M48
;GenerationSoftware,Autodesk,EAGLE,9.5.0*%
;CreationDate,2019-10-29T14:47:14Z*%
FMAT,2
ICI,OFF
METRIC,TZ,000.000
T12C0.350
T11C0.400
T10C0.600
T9C0.900
T8C1.500
T7C1.702
T6C2.900
T5C2.997
T4C3.048
T3C3.988
T2C4.000
T1C8.000
%
G90
M71
T1
X154596Y55146
T2
X143341Y11212
X28675Y0
X134066Y48265
X187790Y84739
X124581Y7904
X112950Y25198
X175216Y48268
X105820Y4596
X64394Y57150
X0Y0
X271101Y38100
X168086Y30181
X33437Y57150
X83990Y78123
X290151Y57150
X212738Y41652
X263957Y19050
X290151Y0
X271101Y0
X175261Y9572
X283007Y19050
X263957Y57150
X31056Y38100
X252051Y-1940
X115306Y44957
X77784Y38341
X244907Y17990
X224348Y58949
X205607Y23565
X47725Y0
X168066Y68873
X205587Y62257
X94189Y21890
X231498Y38344
X-4763Y38100
X231543Y-352
X-7144Y57150
X316344Y57150
X122474Y65565
X248215Y76200
X244907Y57150
X212782Y2956
X57250Y38100
X103714Y62257
X31056Y19050
X61086Y76200
X302057Y38100
X306819Y19050
X-2381Y19050
X84953Y58949
X309201Y0
X131710Y28506
X186827Y65565
X121511Y84739
X224368Y20257
X66775Y-1940
X54869Y19050
X87059Y1288
X96545Y41649
X141235Y68873
X186847Y26873
X194022Y6264
X193977Y44960
X225311Y78123
X75428Y18582
X252051Y38100
T3
X313963Y29845
X134670Y78677
X290151Y29845
X174631Y78677
X198081Y74542
X111219Y74542
X21531Y48895
X45344Y48895
T4
X132024Y93685
X200728Y89550
X21531Y64135
X313963Y45085
X177277Y93685
X45344Y64135
X290151Y45085
X108573Y89550
T5
X102437Y9159
X186173Y90181
X-949Y40632
X-7299Y43172
X34864Y40640
X28514Y43180
X61062Y40637
X54712Y43177
X81093Y41504
X74398Y42903
X107027Y65416
X100332Y66815
X125787Y68728
X119092Y70127
X137377Y51423
X130682Y52822
X179405Y50105
X173593Y53709
X198170Y46801
X192358Y50405
X216931Y43488
X211119Y47092
X235694Y40181
X229882Y43785
X255862Y40640
X249512Y43180
X274914Y40643
X268564Y43183
X305864Y40637
X299514Y43177
X310629Y21587
X304279Y24127
X-3332Y59687
X-9682Y62227
X37252Y59687
X30902Y62227
X68204Y59685
X61854Y62225
X88266Y62106
X81571Y63505
X229504Y79960
X223692Y83564
X252024Y78740
X245674Y81280
X144545Y72033
X137850Y73432
X172262Y70715
X166450Y74319
X191028Y67405
X185216Y71009
X209781Y64093
X203969Y67697
X228544Y60788
X222732Y64392
X248717Y59690
X242367Y62230
X267769Y59685
X261419Y62225
X293962Y59690
X287612Y62230
X320154Y59687
X313804Y62227
X64900Y78737
X58550Y81277
X87306Y81286
X306664Y5072
X124822Y87900
X118127Y89299
X191985Y86577
X80611Y82685
X99856Y44814
X93161Y46213
X118619Y48118
X111924Y49517
X135030Y31669
X128335Y33068
X172275Y32018
X166463Y35622
X191040Y28711
X185228Y32315
X209803Y25409
X203991Y29013
X228559Y22102
X222747Y25706
X248717Y20526
X242367Y23066
X267769Y21585
X261419Y24125
X286817Y21587
X280467Y24127
X1433Y21593
X-4917Y24133
X34869Y21590
X28519Y24130
X58679Y21587
X52329Y24127
X78739Y21746
X72044Y23145
X97497Y25050
X90802Y26449
X116262Y28360
X109567Y29759
X127890Y11065
X121195Y12464
X146653Y14372
X139958Y15771
X179456Y11411
X173644Y15015
X198216Y8101
X192404Y11705
X216974Y4797
X211162Y8401
X235742Y1487
X229930Y5091
X255862Y602
X249512Y3142
X274914Y2543
X268564Y5083
X293962Y2537
X287612Y5077
X3813Y2537
X-2537Y5077
X32487Y2537
X26137Y5077
X51542Y2540
X45192Y5080
X70584Y597
X64234Y3137
X90372Y4448
X83677Y5847
X109132Y7760
X313014Y2532
T6
X297740Y76200
X14338Y0
X299676Y0
X154596Y77146
X11561Y76200
T7
X295231Y57150
X285071Y57150
X307137Y38100
X138338Y10330
X304121Y0
X163063Y69755
X277927Y19050
X71855Y-1940
X56006Y76200
X276181Y38100
X173089Y29299
X59949Y19050
X163083Y31064
X246971Y-1940
X285071Y0
X311899Y19050
X101548Y42531
X236501Y37462
X253295Y76200
X191849Y25991
X116508Y83857
X88993Y79005
X249987Y57150
X230313Y77241
X136232Y67991
X69474Y57150
X246971Y38100
X181844Y27756
X33755Y0
X257131Y-1940
X126707Y27623
X146238Y69755
X258877Y57150
X311264Y57150
X229351Y58067
X192792Y83857
X136713Y29388
X266021Y38100
X200604Y24448
X314281Y0
X181824Y66447
X91542Y40767
X5080Y0
X23595Y0
X173069Y67991
X243135Y76200
X191829Y64683
X269037Y57150
X288087Y19050
X229371Y19375
X117952Y26080
X226495Y39226
X217740Y40770
X107947Y24315
X38517Y57150
X80431Y19464
X139069Y49147
X-5080Y0
X100817Y3714
X25976Y19050
X59314Y57150
X-7461Y19050
X61695Y-1940
X99192Y22772
X72782Y37459
X296977Y38100
X126514Y85621
X78987Y77241
X82787Y39223
X148344Y12095
X276181Y0
X42645Y0
X189019Y7146
X257131Y38100
X-2064Y57150
X117471Y64683
X89956Y59831
X170258Y10454
X2699Y19050
X129583Y8787
X198980Y44078
X108716Y63139
X182787Y85621
X92062Y2171
X52170Y38100
X239827Y57150
X269037Y19050
X207735Y42534
X119578Y7022
X28357Y57150
X25976Y38100
X210610Y22683
X219365Y21140
X82057Y406
X220308Y79005
X180264Y8690
X110823Y5479
X207779Y3838
X210590Y61375
X266021Y0
X249987Y17990
X295231Y0
X258877Y19050
X180219Y47386
X236546Y-1234
X199025Y5382
X62330Y38100
X70426Y17699
X129063Y47383
X188974Y45842
X217785Y2074
X170214Y49150
X110303Y44075
X301739Y19050
X36136Y19050
X120309Y45839
X226540Y530
X200584Y63139
X321424Y57150
X-9843Y38100
X317Y38100
X219345Y59831
X-12224Y57150
X52805Y0
X98711Y61375
X239827Y17990
X79950Y58067
X127477Y66447
X49789Y19050
X36136Y38100
X66166Y76200
X89186Y21007
T8
X189830Y4421
X176882Y4127
X171070Y7731
X146726Y6647
X195642Y817
X140031Y8046
X208588Y1117
X127963Y3340
X214400Y-2487
X121268Y4739
X116335Y20635
X109640Y22034
X227356Y-2193
X233168Y-5797
X97570Y17325
X90875Y18724
X248242Y-4478
X78812Y14021
X72117Y15420
X57409Y13967
X51059Y16507
X254592Y-7018
X267294Y-2537
X33599Y13970
X27249Y16510
X273644Y-5077
X163Y13973
X-6187Y16513
X286342Y-2543
X285547Y13967
X279197Y16507
X292692Y-5083
X266499Y13965
X260149Y16505
X-3807Y-2543
X247447Y12906
X241097Y15446
X188454Y60121
X225985Y14818
X220173Y18422
X207229Y18125
X2543Y-5083
X24867Y-2543
X201417Y21729
X31217Y-5083
X43922Y-2540
X50272Y-5080
X188466Y21427
X62964Y-4483
X69314Y-7023
X182654Y25031
X83750Y-1878
X169701Y24734
X163889Y28338
X90445Y-3277
X135103Y23944
X128408Y25343
X118692Y40393
X102510Y1434
X111997Y41792
X99929Y37089
X93234Y38488
X189411Y79293
X183599Y82897
X124895Y80175
X118200Y81574
X292692Y52070
X109205Y35
X87379Y73561
X80684Y74960
X63630Y71117
X57280Y73657
X318884Y52067
X312534Y54607
X201395Y60413
X305394Y-2548
X207207Y56809
X220158Y57108
X311744Y-5088
X225970Y53504
X241097Y54610
X247447Y52070
X260149Y54605
X266499Y52065
X286342Y54610
X-8569Y35552
X-2219Y33012
X27244Y35560
X33594Y33020
X53442Y35557
X59792Y33017
X74471Y35178
X81166Y33779
X100405Y59090
X107100Y57691
X119165Y62402
X125860Y61003
X130755Y45097
X137450Y43698
X171019Y46425
X176831Y42821
X189784Y43121
X195596Y39517
X208545Y39808
X214357Y36204
X227308Y36501
X233120Y32897
X248242Y35560
X254592Y33020
X267294Y35563
X273644Y33023
X298244Y35557
X304594Y33017
X303009Y16507
X309359Y13967
X-10952Y54607
X-4602Y52067
X29632Y54607
X35982Y52067
X60584Y54605
X66934Y52065
X81644Y55780
X88339Y54381
X221118Y76280
X226930Y72676
X244404Y73660
X250754Y71120
X137923Y65707
X144618Y64308
X163876Y67035
X169688Y63431
X182642Y63725
T9
X175301Y23469
X177803Y23028
X176921Y18025
X174419Y18466
X174860Y20968
X177362Y20526
T10
X150350Y-2931
X158890Y-2931
X158890Y1799
X150350Y1799
T11
X151820Y2949
X152620Y2949
X152220Y2249
X153020Y2249
X153420Y2949
X153820Y2249
X154220Y2949
X155020Y2949
X155420Y2249
X155820Y2949
X156620Y2949
X156220Y2249
X157020Y2249
X157420Y2949
T12
X158265Y38665
X123302Y39042
X104564Y35306
X88252Y31897
X67600Y29312
X46850Y29134
X173233Y22217
X145908Y24902
X159205Y17960
X20637Y28471
X145109Y24195
X157759Y17704
X-9124Y1824
X-12720Y40935
X-10823Y22784
X134115Y9403
X174280Y2136
X143594Y32639
X158560Y40698
X160257Y45875
X159739Y62253
X160942Y44864
X160217Y82490
X172708Y23291
X163683Y18606
X147429Y18567
X160531Y29022
X190975Y15624
X166500Y25291
X152311Y18567
X143932Y18623
X40439Y69769
X30457Y69746
X20427Y69685
X289215Y82492
X278762Y82499
X268851Y82418
X152588Y29060
X149202Y25019
X155788Y14498
X160891Y20571
X158382Y33261
X148742Y28819
X165179Y17071
X150228Y9512
X159382Y9655
X154569Y7003
X155303Y7744
X154529Y5908
X152161Y14082
X159189Y5105
X167704Y21021
X163640Y19809
X39309Y73180
X29279Y73149
X19202Y73010
X290538Y79357
X270411Y79434
X280500Y79335
X161445Y15150
X163292Y5674
X152771Y21935
X165915Y14399
X217482Y29228
X174727Y37214
X157752Y25636
X236817Y26139
X175992Y38021
X160566Y25052
X255765Y26312
X177462Y38603
X157937Y22736
X274770Y24138
X179210Y38625
X158166Y21440
X298275Y22741
X180828Y38900
X159382Y20348
X302226Y7087
X151366Y16718
X157373Y48771
X254935Y48235
X261363Y74653
X263126Y77742
X168727Y272
M30