0
SECTION
2
HEADER
9
$INSUNITS
70
4
9
$ACADVER
1
AC1014
9
$HANDSEED
5
FFFF
0
ENDSEC
0
SECTION
2
TABLES
0
TABLE
2
VPORT
5
8
100
AcDbSymbolTable
0
ENDTAB
0
TABLE
2
LTYPE
5
5
100
AcDbSymbolTable
0
LTYPE
5
14
100
AcDbSymbolTableRecord
100
AcDbLinetypeTableRecord
2
BYBLOCK
70
0
0
LTYPE
5
15
100
AcDbSymbolTableRecord
100
AcDbLinetypeTableRecord
2
BYLAYER
70
0
0
ENDTAB
0
TABLE
2
LAYER
5
2
100
AcDbSymbolTable
70
2
0
LAYER
5
50
100
AcDbSymbolTableRecord
100
AcDbLayerTableRecord
2
0
70
0
6
CONTINUOUS
0
ENDTAB
0
TABLE
2
STYLE
5
3
100
AcDbSymbolTable
70
1
0
STYLE
5
11
100
AcDbSymbolTableRecord
100
AcDbTextStyleTableRecord
2
STANDARD
70
0
0
ENDTAB
0
TABLE
2
VIEW
5
6
100
AcDbSymbolTable
70
0
0
ENDTAB
0
TABLE
2
UCS
5
7
100
AcDbSymbolTable
70
0
0
ENDTAB
0
TABLE
2
APPID
5
9
100
AcDbSymbolTable
70
2
0
APPID
5
12
100
AcDbSymbolTableRecord
100
AcDbRegAppTableRecord
2
ACAD
70
0
0
ENDTAB
0
TABLE
2
DIMSTYLE
5
A
100
AcDbSymbolTable
70
1
0
ENDTAB
0
TABLE
2
BLOCK_RECORD
5
1
100
AcDbSymbolTable
70
1
0
BLOCK_RECORD
5
1F
100
AcDbSymbolTableRecord
100
AcDbBlockTableRecord
2
*MODEL_SPACE
0
BLOCK_RECORD
5
1B
100
AcDbSymbolTableRecord
100
AcDbBlockTableRecord
2
*PAPER_SPACE
0
ENDTAB
0
ENDSEC
0
SECTION
2
BLOCKS
0
BLOCK
5
20
100
AcDbEntity
100
AcDbBlockBegin
2
*MODEL_SPACE
0
ENDBLK
5
21
100
AcDbEntity
100
AcDbBlockEnd
0
BLOCK
5
1C
100
AcDbEntity
100
AcDbBlockBegin
2
*PAPER_SPACE
0
ENDBLK
5
1D
100
AcDbEntity
100
AcDbBlockEnd
0
ENDSEC
0
SECTION
2
ENTITIES
0
LWPOLYLINE
5
100
100
AcDbEntity
8
0
100
AcDbPolyline
90
51
70
1
43
0.0
10
-41.906150014901023
20
65.79999998509895
42
-0.41421356237309503
10
-41.40615001490103
20
65.29999998509895
10
-41.406150014901009
20
47.624999975368006
42
0.41421356237309503
10
-40.531150014901016
20
46.749999975368013
10
-31.406250014869279
20
46.749999974788409
42
-0.41421356235449491
10
-30.906250014901033
20
46.249999974788409
10
-30.906250014901037
20
10.900000000000105
42
-0.41421356237309503
10
-31.40625001490104
20
10.400000000000102
10
-33.706250020155359
20
10.400000000000142
42
0.99999999999999989
10
-33.706250020155359
20
8.6500000000000998
10
-30.031250014901044
20
8.6500000000001069
42
0.41421356237309653
10
-29.156250014901044
20
9.5250000000001034
10
-29.156250015567956
20
47.624999975367999
42
0.0045457408126935005
10
-29.156394655906908
20
47.64090908194764
42
-0.41954927566186523
10
-28.65647730752924
20
48.150000000000084
10
-28.437399999999933
20
48.150000000000084
42
0.41421356237309631
10
-27.437399999999936
20
49.150000000000077
10
-27.437399999999926
20
49.649999987575285
42
-0.41421356433885897
10
-26.937399996644196
20
50.149999987575285
10
-24.685686437626742
20
50.150000000000091
10
-13.514113562372945
20
50.150000000000091
10
-11.262399996644206
20
50.149999882372725
42
-0.41421356040734408
10
-10.76239999999995
20
49.649999882372732
10
-10.762399999999959
20
49.150000000000077
42
0.41421356237309537
10
-9.7623999999999569
20
48.150000000000077
10
-4.6373999999999427
20
48.150000000000084
10
-3.5748999596387194
20
48.149999991746917
42
0.41421356276377075
10
-2.5748999583049015
20
49.149999991746888
10
-2.5748999583048571
20
62.735786217810656
42
0.99999981403376437
10
-3.9891137233166383
20
64.149999956113689
10
-4.6373999999999382
20
64.150000000000077
10
-9.7623999999999533
20
64.150000000000091
10
-13.514113577274095
20
64.149999985098944
10
-24.685686437626732
20
64.150000000000119
10
-28.437399999999933
20
64.150000000000091
10
-33.562399999999961
20
64.150000000000091
10
-36.591936412511416
20
64.150000000000134
42
0.99999969073363593
10
-38.006149976494548
20
62.735786439237259
10
-38.006149987031279
20
51.564213620157318
42
0.99999968760830138
10
-36.591936430070987
20
50.150000052371588
10
-35.062399996644217
20
50.150000042106115
42
-0.41421356040733887
10
-34.562399999999954
20
49.650000042106122
10
-34.562399999999961
20
49.150000000000077
42
0.025047095327405108
10
-34.557387435432872
20
49.049999983346794
42
-0.44386569622086791
10
-35.054881153181071
20
48.499999975020174
10
-39.156150014932784
20
48.499999975280659
42
-0.4142135623545079
10
-39.65615001490103
20
48.999999975280673
10
-39.656150014901016
20
66.67499998509895
42
0.41421356237309503
10
-40.531150014901023
20
67.549999985098964
10
-57.231185353682037
20
67.549999985098964
42
0.99999999999999989
10
-57.231185353682037
20
65.799999985098964
0
LWPOLYLINE
5
101
100
AcDbEntity
8
0
100
AcDbPolyline
90
16
70
1
43
0.0
10
-42.765802363311437
20
8.5595760221445953
42
-0.1539147210598158
10
-42.479014145135928
20
8.6500000000000945
10
-38.406250020155355
20
8.6500000000001016
42
0.99999999999999989
10
-38.406250020155355
20
10.400000000000098
10
-42.912549979844528
20
10.400000000000095
42
0.15391472105982851
10
-43.414429361651685
20
10.241758038752963
10
-45.830190380339715
20
8.5502239629544317
42
-0.15391472105980558
10
-46.116978598515217
20
8.4597999850989307
10
-53.457356843877548
20
8.4597999850987939
42
-0.043660943242600371
10
-53.544180933367812
20
8.467396108708499
10
-69.658814685730192
20
11.308840845648124
42
0.99999999999999989
10
-69.962698998946124
20
9.585427278281923
10
-53.72959591375767
20
6.7230932014157716
42
0.043660943242613798
10
-53.577653757149704
20
6.7097999850987877
10
-45.683442763806603
20
6.7097999850989396
42
0.15391472105981291
10
-45.181563381999453
20
6.8680419463460707
0
LWPOLYLINE
5
102
100
AcDbEntity
8
0
100
AcDbPolyline
90
16
70
1
43
0.0
10
-3.0390872235233908
20
3.318726992058382
42
-0.65239893913883618
10
-3.8767635816926567
20
3.6874744362873502
10
-3.8767635772742537
20
6.9999999785964526
42
0.99999999999999989
10
-5.6267635772742537
20
6.9999999809306876
10
-5.6267635959481268
20
-7.0000000190693132
42
0.99999999999999989
10
-3.8767635959481259
20
-7.0000000214035483
10
-3.8767635915297314
20
-3.6874744259453074
42
-0.65239893913883795
10
-3.039087232376759
20
-3.3187269839510103
42
0.38939666864088268
10
3.0471872061358214
20
-3.3112913086531863
42
-0.65327013777619436
10
3.885763562373139
20
-3.679212565170209
10
3.8857635623731168
20
-6.9999999946644929
42
0.99999999999999989
10
5.635763562373139
20
-6.9999999946644911
10
5.6357635623731284
20
7.0000000053355107
42
0.99999999999999989
10
3.8857635623731279
20
7.000000005335508
10
3.8857635623731266
20
3.6792125651702201
42
-0.65327013777619247
10
3.0471872061358134
20
3.3112913086531988
42
0.38939666787283123
0
LWPOLYLINE
5
103
100
AcDbEntity
8
0
100
AcDbPolyline
90
14
70
1
43
0.0
10
-19.461416603189576
20
79.484068301905751
42
-0.57157761120484352
10
-19.378482758813679
20
78.626416255676219
42
3.0758003030117433
10
-15.850024652581498
20
78.626416255670676
42
-0.57157761120483608
10
-15.767090808202887
20
79.484068301899953
42
0.23772153532956508
10
-13.327646656986548
20
82.574999993797235
10
-6.114253706857113
20
82.575000002422257
42
0.99999999999999989
10
-6.1142537045228824
20
84.324999984175676
10
-14.114253704522884
20
84.324999994846451
42
0.41421356237308021
10
-14.98925370568989
20
83.449999996013673
42
-0.99999999999999989
10
-20.239253705689997
20
83.450000003016243
42
0.41421356237310691
10
-21.114253704522884
20
84.325000004183366
10
-29.114253704522884
20
84.324999996343109
42
0.99999999999999989
10
-29.114253706857113
20
82.575000014854126
10
-21.900860756727674
20
82.575000005232567
42
0.2377215360333414
0
CIRCLE
5
104
100
AcDbEntity
8
0
100
AcDbCircle
10
-266.28804999617961
20
9.5250000147831049
30
0
40
0.87499999999998579
210
0
220
-0
230
1
0
CIRCLE
5
105
100
AcDbEntity
8
0
100
AcDbCircle
10
-125.21248930369197
20
78.247569650564444
30
0
40
0.87500000000000355
210
0
220
-0
230
1
0
LINE
5
106
100
AcDbEntity
8
0
100
AcDbLine
10
-96.742504586090632
20
16.084426149471305
30
0
11
-74.287411123798989
21
12.124987286856324
31
0
0
ARC
5
107
100
AcDbEntity
8
0
100
AcDbCircle
10
-74.439353280406934
20
11.26328050317332
30
0
40
0.87499999999998745
210
0
220
0
230
1
100
AcDbArc
50
-100.00000007642367
51
79.999999923576382
0
LINE
5
108
100
AcDbEntity
8
0
100
AcDbLine
10
-74.591295437014878
20
10.401573719490319
30
0
11
-97.046388899306493
21
14.361012582105317
31
0
0
ARC
5
109
100
AcDbEntity
8
0
100
AcDbCircle
10
-96.894446742698563
20
15.222719365788311
30
0
40
0.87499999999997702
210
0
220
-0
230
1
100
AcDbArc
50
79.999999923577192
51
259.99999992357721
0
CIRCLE
5
110
100
AcDbEntity
8
0
100
AcDbCircle
10
-161.47475726449298
20
19.147104952651532
30
0
40
0.87499999999998579
210
0
220
-0
230
1
0
CIRCLE
5
111
100
AcDbEntity
8
0
100
AcDbCircle
10
-219.74452236151132
20
8.872573206503322
30
0
40
0.87499999999998579
210
0
220
-0
230
1
0
LINE
5
112
100
AcDbEntity
8
0
100
AcDbLine
10
-217.58216628455068
20
10.142353210170157
30
0
11
-193.18470555193215
21
14.444283798105886
31
0
0
ARC
5
113
100
AcDbEntity
8
0
100
AcDbCircle
10
-193.03276339647363
20
13.582577014220462
30
0
40
0.87499999999973765
210
-0
220
0
230
1
100
AcDbArc
50
-80.000000000003169
51
100.0000000000006
0
LINE
5
114
100
AcDbEntity
8
0
100
AcDbLine
10
-192.88082124101516
20
12.720870230335031
30
0
11
-217.2782819864741
21
8.4189396401351235
31
0
0
ARC
5
115
100
AcDbEntity
8
0
100
AcDbCircle
10
-217.43022414193263
20
9.280646424020583
30
0
40
0.87499999999976386
210
0
220
0
230
1
100
AcDbArc
50
99.999999146223857
51
280.00000000000023
0
CIRCLE
5
116
100
AcDbEntity
8
0
100
AcDbCircle
10
-128.40684274398075
20
20.779205050923206
30
0
40
0.87499999999998579
210
0
220
-0
230
1
0
CIRCLE
5
117
100
AcDbEntity
8
0
100
AcDbCircle
10
-59.581185353682613
20
66.674999985098964
30
0
40
0.87499999999999467
210
0
220
-0
230
1
0
LWPOLYLINE
5
118
100
AcDbEntity
8
0
100
AcDbPolyline
90
8
70
1
43
0.0
10
-140.39957424000687
20
21.974730057837203
42
-0.08748866386192268
10
-140.2259260616832
20
21.974730057721391
10
-130.87308311962303
20
20.325571487844471
42
0.99999999999999989
10
-130.56919880640717
20
22.048985055210416
10
-140.16080799363431
20
23.740244556521194
42
0.08748866386194129
10
-140.46469230570082
20
23.740244556723866
10
-159.31240120037279
20
20.416884954054481
42
0.99999999999999989
10
-159.00851688945573
20
18.693471386283097
0
CIRCLE
5
119
100
AcDbEntity
8
0
100
AcDbCircle
10
-87.752864398490232
20
71.642427092558222
30
0
40
0.87500000000000355
210
0
220
-0
230
1
0
CIRCLE
5
120
100
AcDbEntity
8
0
100
AcDbCircle
10
-155.41325919774329
20
78.247561151780786
30
0
40
0.87500000000000355
210
0
220
-0
230
1
0
CIRCLE
5
121
100
AcDbEntity
8
0
100
AcDbCircle
10
-36.056250020155353
20
9.5250000000000981
30
0
40
0.874999999999999
210
0
220
-0
230
1
0
CIRCLE
5
122
100
AcDbEntity
8
0
100
AcDbCircle
10
-99.208744961732947
20
15.630792586392513
30
0
40
0.87500000000000355
210
0
220
-0
230
1
0
LWPOLYLINE
5
123
100
AcDbEntity
8
0
100
AcDbPolyline
90
4
70
1
43
0.0
10
-163.94099763953022
20
19.600738519019927
10
-188.55610911277472
20
15.26043023314061
42
0.99999999999999989
10
-188.25222480185766
20
13.537016665369324
10
-163.63711332861314
20
17.877324951248585
42
0.99999999999999989
0
CIRCLE
5
124
100
AcDbEntity
8
0
100
AcDbCircle
10
-221.04451547276574
20
66.674999982966796
30
0
40
0.87500000000002132
210
0
220
-0
230
1
0
LINE
5
125
100
AcDbEntity
8
0
100
AcDbLine
10
-218.8821594069519
20
67.94477998148534
30
0
11
-195.33912448618725
21
72.096052213397314
31
0
0
ARC
5
126
100
AcDbEntity
8
0
100
AcDbCircle
10
-195.1871823318784
20
71.234345429310196
30
0
40
0.87499999999873768
210
-0
220
0
230
1
100
AcDbArc
50
-80.000000076416583
51
99.99999992356841
0
LINE
5
127
100
AcDbEntity
8
0
100
AcDbLine
10
-195.03524017756934
20
70.372638645223105
30
0
11
-218.57827509833362
21
66.221366413309028
31
0
0
ARC
5
128
100
AcDbEntity
8
0
100
AcDbCircle
10
-218.73021725264277
20
67.083073197397184
30
0
40
0.87499999999979949
210
0
220
0
230
1
100
AcDbArc
50
99.999999923574961
51
279.99999992357681
0
CIRCLE
5
129
100
AcDbEntity
8
0
100
AcDbCircle
10
-190.71846517689491
20
13.990650231737728
30
0
40
0.87499999999998579
210
0
220
-0
230
1
0
LINE
5
130
100
AcDbEntity
8
0
100
AcDbLine
10
-125.94060238117885
20
21.232838616266054
30
0
11
-101.37110102415939
21
16.90057259067969
31
0
0
ARC
5
131
100
AcDbEntity
8
0
100
AcDbCircle
10
-101.52304318076732
20
16.0388658069967
30
0
40
0.87499999999996825
210
0
220
0
230
1
100
AcDbArc
50
-100.00000007642385
51
79.999999923577136
0
LINE
5
132
100
AcDbEntity
8
0
100
AcDbLine
10
-101.67498533737526
20
15.177159023313715
30
0
11
-126.24448668155429
21
19.509425046636085
31
0
0
ARC
5
133
100
AcDbEntity
8
0
100
AcDbCircle
10
-126.09254452494636
20
20.371131830319023
30
0
40
0.87499999999990163
210
0
220
-0
230
1
100
AcDbArc
50
80.000000777348987
51
259.99999992357652
0
CIRCLE
5
134
100
AcDbEntity
8
0
100
AcDbCircle
10
-72.125055061372564
20
10.855207282569129
30
0
40
0.87499999999999467
210
0
220
-0
230
1
0
LINE
5
135
100
AcDbEntity
8
0
100
AcDbLine
10
-85.286624036293347
20
72.096060661190947
30
0
11
-61.743541417802057
21
67.944779986502397
31
0
0
ARC
5
136
100
AcDbEntity
8
0
100
AcDbCircle
10
-61.895483573260705
20
67.083073202616276
30
0
40
0.87500000000044631
210
0
220
0
230
1
100
AcDbArc
50
-100.0000000000005
51
79.999999999999531
0
LINE
5
137
100
AcDbEntity
8
0
100
AcDbLine
10
-62.047425728719354
20
66.221366418730156
30
0
11
-85.590508334370185
21
70.372647091154832
31
0
0
ARC
5
138
100
AcDbEntity
8
0
100
AcDbCircle
10
-85.438566178911543
20
71.234353875040838
30
0
40
0.87500000000031541
210
0
220
-0
230
1
100
AcDbArc
50
80.000000853773074
51
259.99999999999869
0
ARC
5
139
100
AcDbEntity
8
0
100
AcDbCircle
10
-140.25835118333379
20
45.396749837961266
30
0
40
5.0000050942893193
210
0
220
0
230
1
100
AcDbArc
50
-90.000000000000313
51
90
0
ARC
5
140
100
AcDbEntity
8
0
100
AcDbCircle
10
-140.25835118333379
20
44.646749987379593
30
0
40
4.2499999999558291
210
0
220
0
230
1
100
AcDbArc
50
90.000000000000384
51
269.9999999999996
0
ARC
5
141
100
AcDbEntity
8
0
100
AcDbCircle
10
-140.25835118335181
20
45.396749987359911
30
0
40
3.4999999998865761
210
-0
220
0
230
1
100
AcDbArc
50
-89.999999999705054
51
89.999999999705494
0
ARC
5
142
100
AcDbEntity
8
0
100
AcDbCircle
10
-140.25835118333376
20
42.271749987379593
30
0
40
0.37499999999574207
210
0
220
0
230
1
100
AcDbArc
50
90.000000000004349
51
269.99999999999562
0
ARC
5
143
100
AcDbEntity
8
0
100
AcDbCircle
10
-140.25835118335181
20
45.396749987359911
30
0
40
2.7499999999845759
210
-0
220
0
230
1
100
AcDbArc
50
-89.999999999624535
51
89.999999999625174
0
ARC
5
144
100
AcDbEntity
8
0
100
AcDbCircle
10
-140.25835118333379
20
44.646749987379593
30
0
40
3.5000000000037268
210
0
220
0
230
1
100
AcDbArc
50
90.000000000000469
51
270.00000000000091
0
ARC
5
145
100
AcDbEntity
8
0
100
AcDbCircle
10
-140.25835118333379
20
45.396749837961266
30
0
40
4.249999850625894
210
-0
220
0
230
1
100
AcDbArc
50
-89.999999999999247
51
90
0
ARC
5
146
100
AcDbEntity
8
0
100
AcDbCircle
10
-140.25835118333379
20
44.646749987379593
30
0
40
4.999995055129034
210
0
220
-0
230
1
100
AcDbArc
50
90
51
270
0
ARC
5
147
100
AcDbEntity
8
0
100
AcDbCircle
10
-140.25835118333379
20
39.2717499873796
30
0
40
0.37500000000003642
210
0
220
0
230
1
100
AcDbArc
50
-90
51
90
0
ARC
5
148
100
AcDbEntity
8
0
100
AcDbCircle
10
-140.25835118333379
20
44.646749987379593
30
0
40
5.7500049448709944
210
0
220
-0
230
1
100
AcDbArc
50
90
51
270
0
CIRCLE
5
149
100
AcDbEntity
8
0
100
AcDbCircle
10
-192.87288411175538
20
71.642418643740541
30
0
40
0.87499999999998579
210
0
220
-0
230
1
0
ARC
5
150
100
AcDbEntity
8
0
100
AcDbCircle
10
20.639443218813476
20
6.2928932188135462
30
0
40
1.0000000000000004
210
0
220
0
230
1
100
AcDbArc
50
-45.000000000000099
51
135.00000085377349
0
LINE
5
151
100
AcDbEntity
8
0
100
AcDbLine
10
21.346550000000022
20
5.5857864376269974
30
0
11
21.346549985098846
21
-5.5857864227256568
31
0
0
ARC
5
152
100
AcDbEntity
8
0
100
AcDbCircle
10
20.639443218813462
20
-6.2928932188133651
30
0
40
0.99999999999999734
210
0
220
0
230
1
100
AcDbArc
50
-135.00000000000009
51
45.000001207418308
0
LINE
5
153
100
AcDbEntity
8
0
100
AcDbLine
10
19.932336437626915
20
-6.9999999999999094
30
0
11
8.7607635623731177
21
-6.9999999999999094
31
0
0
ARC
5
154
100
AcDbEntity
8
0
100
AcDbCircle
10
8.0536567811865662
20
-6.2928932188133633
30
0
40
1.0000000000000004
210
0
220
0
230
1
100
AcDbArc
50
134.99999999999997
51
315.00000000000017
0
LINE
5
155
100
AcDbEntity
8
0
100
AcDbLine
10
7.3465500000000192
20
-5.5857864376268154
30
0
11
7.3465500149011884
21
5.5857864227258656
31
0
0
ARC
5
156
100
AcDbEntity
8
0
100
AcDbCircle
10
8.0536567811865787
20
6.2928932188135693
30
0
40
0.99999999999999967
210
0
220
-0
230
1
100
AcDbArc
50
44.999999999999751
51
225.00000120741791
0
LINE
5
157
100
AcDbEntity
8
0
100
AcDbLine
10
8.7607635623731284
20
7.0000000000001128
30
0
11
19.932336427090217
21
6.9999999894633849
31
0
0
ARC
5
158
100
AcDbEntity
8
0
100
AcDbCircle
10
25.402043218813468
20
44.392893218813548
30
0
40
1.0000000000000042
210
0
220
0
230
1
100
AcDbArc
50
-45.000000000000306
51
135.00000120741799
0
LINE
5
159
100
AcDbEntity
8
0
100
AcDbLine
10
26.109150000000014
20
43.685786437626994
30
0
11
26.109149985098838
21
32.514213577274354
31
0
0
ARC
5
160
100
AcDbEntity
8
0
100
AcDbCircle
10
25.402043218813446
20
31.807106781186643
30
0
40
0.999999999999998
210
0
220
0
230
1
100
AcDbArc
50
-135
51
45.000001207418123
0
LINE
5
161
100
AcDbEntity
8
0
100
AcDbLine
10
24.6949364376269
20
31.100000000000097
30
0
11
13.523363562373106
21
31.100000000000097
31
0
0
ARC
5
162
100
AcDbEntity
8
0
100
AcDbCircle
10
12.81625678118656
20
31.807106781186643
30
0
40
0.99999999999999967
210
0
220
0
230
1
100
AcDbArc
50
135.00000000000031
51
315
0
LINE
5
163
100
AcDbEntity
8
0
100
AcDbLine
10
12.10915000000001
20
32.514213562373186
30
0
11
12.109150014901179
21
43.685786422725869
31
0
0
ARC
5
164
100
AcDbEntity
8
0
100
AcDbCircle
10
12.816256781186571
20
44.392893218813569
30
0
40
1.0000000000000058
210
0
220
-0
230
1
100
AcDbArc
50
45.00000000000022
51
225.00000120741768
0
LINE
5
165
100
AcDbEntity
8
0
100
AcDbLine
10
13.523363562373119
20
45.100000000000122
30
0
11
24.69493642272576
21
45.09999998509894
31
0
0
ARC
5
166
100
AcDbEntity
8
0
100
AcDbCircle
10
27.783343218813449
20
63.442893218813559
30
0
40
1.0000000000000011
210
0
220
0
230
1
100
AcDbArc
50
-44.999999999999851
51
135.00000120741856
0
LINE
5
167
100
AcDbEntity
8
0
100
AcDbLine
10
28.490449999999999
20
62.735786437627013
30
0
11
28.490449985098824
21
51.564213577274359
31
0
0
ARC
5
168
100
AcDbEntity
8
0
100
AcDbCircle
10
27.783343218813439
20
50.857106781186651
30
0
40
0.999999999999998
210
0
220
0
230
1
100
AcDbArc
50
-135
51
45.000001207418272
0
LINE
5
169
100
AcDbEntity
8
0
100
AcDbLine
10
27.076236437626893
20
50.150000000000105
30
0
11
15.904663562373091
21
50.150000000000105
31
0
0
ARC
5
170
100
AcDbEntity
8
0
100
AcDbCircle
10
15.197556781186545
20
50.857106781186651
30
0
40
1.0000000000000011
210
0
220
0
230
1
100
AcDbArc
50
135.00000000000017
51
315
0
LINE
5
171
100
AcDbEntity
8
0
100
AcDbLine
10
14.490449999999996
20
51.564213562373197
30
0
11
14.490450014901164
21
62.73578642272588
31
0
0
ARC
5
172
100
AcDbEntity
8
0
100
AcDbCircle
10
15.197556781186556
20
63.44289321881358
30
0
40
1.0000000000000058
210
0
220
-0
230
1
100
AcDbArc
50
45.000000000000135
51
225.00000120741768
0
LINE
5
173
100
AcDbEntity
8
0
100
AcDbLine
10
15.904663562373106
20
64.150000000000134
30
0
11
27.076236422725735
21
64.149999985098944
31
0
0
ARC
5
174
100
AcDbEntity
8
0
100
AcDbCircle
10
23.020743218813454
20
25.342893218813561
30
0
40
1.0000000000000044
210
0
220
0
230
1
100
AcDbArc
50
-45
51
135.00000147877941
0
LINE
5
175
100
AcDbEntity
8
0
100
AcDbLine
10
23.727850000000004
20
24.635786437627011
30
0
11
23.727849985098835
21
13.464213577274354
31
0
0
ARC
5
176
100
AcDbEntity
8
0
100
AcDbCircle
10
23.02074321881345
20
12.757106781186645
30
0
40
0.99999999999999967
210
0
220
0
230
1
100
AcDbArc
50
-134.99999999999994
51
45.000001207418336
0
LINE
5
177
100
AcDbEntity
8
0
100
AcDbLine
10
22.313636437626904
20
12.050000000000097
30
0
11
11.142063562373101
21
12.050000000000098
31
0
0
ARC
5
178
100
AcDbEntity
8
0
100
AcDbCircle
10
10.434956781186553
20
12.757106781186645
30
0
40
0.99999999999999967
210
0
220
0
230
1
100
AcDbArc
50
134.99999999999994
51
315.00000000000006
0
LINE
5
179
100
AcDbEntity
8
0
100
AcDbLine
10
9.7278500000000072
20
13.464213562373192
30
0
11
9.7278500149011755
21
24.635786422725875
31
0
0
ARC
5
180
100
AcDbEntity
8
0
100
AcDbCircle
10
10.434956781186564
20
25.342893218813582
30
0
40
0.99999999999999967
210
0
220
-0
230
1
100
AcDbArc
50
44.999999999999922
51
225.00000120741811
0
LINE
5
181
100
AcDbEntity
8
0
100
AcDbLine
10
11.142063562373112
20
26.050000000000129
30
0
11
22.313636419376781
21
26.049999981749991
31
0
0
ARC
5
182
100
AcDbEntity
8
0
100
AcDbCircle
10
-148.62390940893394
20
76.16273947046507
30
0
40
0.99999999999998634
210
0
220
0
230
1
100
AcDbArc
50
-35.000000000000313
51
145.00000085377303
0
LINE
5
183
100
AcDbEntity
8
0
100
AcDbLine
10
-147.80475736464496
20
75.589163034114023
30
0
11
-145.86483411044617
21
64.587311465310393
31
0
0
ARC
5
184
100
AcDbEntity
8
0
100
AcDbCircle
10
-146.43841052953488
20
63.768159408934189
30
0
40
0.99999999999999867
210
0
220
0
230
1
100
AcDbArc
50
-125.00000000000098
51
55.000001207417931
0
LINE
5
185
100
AcDbEntity
8
0
100
AcDbLine
10
-147.01198696588594
20
62.949007364645205
30
0
11
-158.01383854677678
21
61.009084093184057
31
0
0
ARC
5
186
100
AcDbEntity
8
0
100
AcDbCircle
10
-158.83299059106577
20
61.582660529535111
30
0
40
0.99999999999999578
210
0
220
0
230
1
100
AcDbArc
50
145.00000000000003
51
324.99999999999937
0
LINE
5
187
100
AcDbEntity
8
0
100
AcDbLine
10
-159.65214263535475
20
62.156236965886151
30
0
11
-161.59206588955354
21
73.158088534689796
31
0
0
ARC
5
188
100
AcDbEntity
8
0
100
AcDbCircle
10
-161.01848947046483
20
73.977240591066021
30
0
40
0.99999999999997402
210
0
220
-0
230
1
100
AcDbArc
50
54.999999999999901
51
235.00000120741859
0
LINE
5
189
100
AcDbEntity
8
0
100
AcDbLine
10
-160.4449130341138
20
74.796392635354991
30
0
11
-149.44306146176987
21
76.736315894609803
31
0
0
ARC
5
190
100
AcDbEntity
8
0
100
AcDbCircle
10
-204.92570940893413
20
27.547439470465079
30
0
40
1.0000000000000249
210
0
220
0
230
1
100
AcDbArc
50
-34.999999999998074
51
145.00000000000097
0
LINE
5
191
100
AcDbEntity
8
0
100
AcDbLine
10
-204.10655736464508
20
26.973863034114039
30
0
11
-202.1666341104463
21
15.972011465310413
31
0
0
ARC
5
192
100
AcDbEntity
8
0
100
AcDbCircle
10
-202.74021052953492
20
15.152859408934201
30
0
40
1.0000000000000215
210
0
220
0
230
1
100
AcDbArc
50
-125.00000000000183
51
55.000001207422166
0
LINE
5
193
100
AcDbEntity
8
0
100
AcDbLine
10
-203.31378696588601
20
14.333707364645203
30
0
11
-214.31563854677682
21
12.39378409318406
31
0
0
ARC
5
194
100
AcDbEntity
8
0
100
AcDbCircle
10
-215.13479059106584
20
12.967360529535107
30
0
40
0.99999999999999967
210
0
220
0
230
1
100
AcDbArc
50
144.99999999999977
51
325.00000000000063
0
LINE
5
195
100
AcDbEntity
8
0
100
AcDbLine
10
-215.95394263535482
20
13.540936965886152
30
0
11
-217.89386588955364
21
24.542788534689798
31
0
0
ARC
5
196
100
AcDbEntity
8
0
100
AcDbCircle
10
-217.32028947046496
20
25.361940591066023
30
0
40
0.99999999999999212
210
0
220
-0
230
1
100
AcDbArc
50
54.999999999999154
51
235.00000120741996
0
LINE
5
197
100
AcDbEntity
8
0
100
AcDbLine
10
-216.7467130341139
20
26.181092635355011
30
0
11
-205.74486145322314
21
28.121015906816119
31
0
0
LWPOLYLINE
5
198
100
AcDbEntity
8
0
100
AcDbPolyline
90
8
70
1
43
0.0
10
-303.18189999999993
20
44.100000000000094
42
-0.41421356237307422
10
-302.18189999999998
20
45.100000000000087
10
-297.05689999999998
20
45.10000000000008
42
-0.41421356237310542
10
-296.05689999999993
20
44.100000000000101
10
-296.05689999999993
20
30.100000000000087
42
-0.41421356237310675
10
-297.05689999999998
20
29.10000000000009
10
-302.18189999999998
20
29.100000000000072
42
-0.41421356237307555
10
-303.18189999999998
20
30.10000000000009
0
ARC
5
199
100
AcDbEntity
8
0
100
AcDbCircle
10
-193.29550940893387
20
48.942039470465076
30
0
40
1.0000000000000009
210
0
220
0
230
1
100
AcDbArc
50
-35.000000000000313
51
145.00000085377303
0
LINE
5
200
100
AcDbEntity
8
0
100
AcDbLine
10
-192.47635736464488
20
48.368463034114029
30
0
11
-190.53643411044612
21
37.366611465310406
31
0
0
ARC
5
201
100
AcDbEntity
8
0
100
AcDbCircle
10
-191.11001052953483
20
36.547459408934209
30
0
40
0.99999999999999933
210
0
220
0
230
1
100
AcDbArc
50
-124.99999999999915
51
55.000001207417696
0
LINE
5
202
100
AcDbEntity
8
0
100
AcDbLine
10
-191.68358696588587
20
35.728307364645211
30
0
11
-202.68543854677671
21
33.788384093184106
31
0
0
ARC
5
203
100
AcDbEntity
8
0
100
AcDbCircle
10
-203.50459059106569
20
34.361960529535153
30
0
40
0.99999999999999845
210
0
220
0
230
1
100
AcDbArc
50
144.99999999999972
51
324.99999999999972
0
LINE
5
204
100
AcDbEntity
8
0
100
AcDbLine
10
-204.32374263535468
20
34.9355369658862
30
0
11
-206.26366588955347
21
45.937388534689845
31
0
0
ARC
5
205
100
AcDbEntity
8
0
100
AcDbCircle
10
-205.69008947046473
20
46.756540591066049
30
0
40
1.0000000000000031
210
0
220
-0
230
1
100
AcDbArc
50
55.000000000000838
51
235.00000120741657
0
LINE
5
206
100
AcDbEntity
8
0
100
AcDbLine
10
-205.11651303411369
20
47.575692635355047
30
0
11
-194.1146614617698
21
49.515615894609809
31
0
0
ARC
5
207
100
AcDbEntity
8
0
100
AcDbCircle
10
-224.2764567811864
20
24.282393218813553
30
0
40
1.0000000000000073
210
0
220
0
230
1
100
AcDbArc
50
-44.999999999997712
51
135.00000085377644
0
LINE
5
208
100
AcDbEntity
8
0
100
AcDbLine
10
-223.56934999999982
20
23.575286437627028
30
0
11
-223.56935001490103
21
12.403713577274367
31
0
0
ARC
5
209
100
AcDbEntity
8
0
100
AcDbCircle
10
-224.2764567811864
20
11.696606781186659
30
0
40
1.0000000000000233
210
0
220
0
230
1
100
AcDbArc
50
-135.00000000000145
51
45.000001207419139
0
LINE
5
210
100
AcDbEntity
8
0
100
AcDbLine
10
-224.98356356237298
20
10.989500000000113
30
0
11
-236.15513643762679
21
10.98950000000011
31
0
0
ARC
5
211
100
AcDbEntity
8
0
100
AcDbCircle
10
-236.86224321881332
20
11.696606781186658
30
0
40
0.99999999999999967
210
0
220
0
230
1
100
AcDbArc
50
135.00000000000023
51
314.99999999999909
0
LINE
5
212
100
AcDbEntity
8
0
100
AcDbLine
10
-237.56934999999987
20
12.403713562373206
30
0
11
-237.56934998509871
21
23.575286422725888
31
0
0
ARC
5
213
100
AcDbEntity
8
0
100
AcDbCircle
10
-236.86224321881326
20
24.282393218813596
30
0
40
0.99999999999997291
210
0
220
-0
230
1
100
AcDbArc
50
45.000000000002011
51
225.00000120741566
0
LINE
5
214
100
AcDbEntity
8
0
100
AcDbLine
10
-236.15513643762677
20
24.989500000000142
30
0
11
-224.9835635729097
21
24.989499989463365
31
0
0
ARC
5
215
100
AcDbEntity
8
0
100
AcDbCircle
10
-167.38450940893389
20
72.854739470465063
30
0
40
0.99999999999999578
210
0
220
0
230
1
100
AcDbArc
50
-35.000000000000313
51
145.0000012074193
0
LINE
5
216
100
AcDbEntity
8
0
100
AcDbLine
10
-166.56535736464491
20
72.281163034114016
30
0
11
-164.62543411044612
21
61.279311465310393
31
0
0
ARC
5
217
100
AcDbEntity
8
0
100
AcDbCircle
10
-165.1990105295348
20
60.460159408934182
30
0
40
1.0000000000000089
210
0
220
0
230
1
100
AcDbArc
50
-125.00000000000098
51
55.000001207419501
0
LINE
5
218
100
AcDbEntity
8
0
100
AcDbLine
10
-165.77258696588586
20
59.641007364645198
30
0
11
-176.77443854677674
21
57.701084093184065
31
0
0
ARC
5
219
100
AcDbEntity
8
0
100
AcDbCircle
10
-177.59359059106572
20
58.274660529535112
30
0
40
0.99999999999999578
210
0
220
0
230
1
100
AcDbArc
50
145.00000000000003
51
324.99999999999972
0
LINE
5
220
100
AcDbEntity
8
0
100
AcDbLine
10
-178.4127426353547
20
58.848236965886151
30
0
11
-180.35266588955349
21
69.850088534689803
31
0
0
ARC
5
221
100
AcDbEntity
8
0
100
AcDbCircle
10
-179.77908947046478
20
70.669240591066014
30
0
40
0.99999999999998856
210
0
220
-0
230
1
100
AcDbArc
50
55.000000000000377
51
235.00000120741819
0
LINE
5
222
100
AcDbEntity
8
0
100
AcDbLine
10
-179.20551303411375
20
71.488392635354998
30
0
11
-168.20366146531012
21
73.428315889553758
31
0
0
ARC
5
223
100
AcDbEntity
8
0
100
AcDbCircle
10
-205.86855940893403
20
85.412839470465002
30
0
40
1.0000000000000147
210
0
220
0
230
1
100
AcDbArc
50
-34.999999999998685
51
145.0000017075495
0
LINE
5
224
100
AcDbEntity
8
0
100
AcDbLine
10
-205.04940736464502
20
84.839263034113969
30
0
11
-203.1094841104462
21
73.837411465310353
31
0
0
ARC
5
225
100
AcDbEntity
8
0
100
AcDbCircle
10
-203.68306052953486
20
73.018259408934128
30
0
40
1.0000000000000162
210
0
220
0
230
1
100
AcDbArc
50
-125.0000000000023
51
55.000001207421306
0
LINE
5
226
100
AcDbEntity
8
0
100
AcDbLine
10
-204.25663696588595
20
72.199107364645144
30
0
11
-215.25848854677676
21
70.259184093184004
31
0
0
ARC
5
227
100
AcDbEntity
8
0
100
AcDbCircle
10
-216.07764059106574
20
70.832760529535051
30
0
40
1.0000000000000009
210
0
220
0
230
1
100
AcDbArc
50
145.00000000000065
51
324.99999999999972
0
LINE
5
228
100
AcDbEntity
8
0
100
AcDbLine
10
-216.89679263535476
20
71.406336965886098
30
0
11
-218.83671588955355
21
82.408188534689742
31
0
0
ARC
5
229
100
AcDbEntity
8
0
100
AcDbCircle
10
-218.26313947046489
20
83.227340591065953
30
0
40
0.99999999999998113
210
0
220
-0
230
1
100
AcDbArc
50
54.999999999999901
51
235.00000120742084
0
LINE
5
230
100
AcDbEntity
8
0
100
AcDbLine
10
-217.68956303411386
20
84.046492635354923
30
0
11
-206.68771147031697
21
85.986415882403392
31
0
0
ARC
5
231
100
AcDbEntity
8
0
100
AcDbCircle
10
-204.90570940893403
20
66.238739470465049
30
0
40
1.0000000000000198
210
0
220
0
230
1
100
AcDbArc
50
-34.999999999997776
51
145.00000085377459
0
LINE
5
232
100
AcDbEntity
8
0
100
AcDbLine
10
-204.08655736464499
20
65.665163034114016
30
0
11
-202.14663411044623
21
54.663311465310393
31
0
0
ARC
5
233
100
AcDbEntity
8
0
100
AcDbCircle
10
-202.72021052953494
20
53.844159408934196
30
0
40
1.0000000000000102
210
0
220
0
230
1
100
AcDbArc
50
-125.00000000000027
51
55.000001207417696
0
LINE
5
234
100
AcDbEntity
8
0
100
AcDbLine
10
-203.293786965886
20
53.025007364645191
30
0
11
-214.29563854677681
21
51.085084093184065
31
0
0
ARC
5
235
100
AcDbEntity
8
0
100
AcDbCircle
10
-215.1147905910658
20
51.658660529535112
30
0
40
0.99999999999999578
210
0
220
0
230
1
100
AcDbArc
50
145.00000000000097
51
324.99999999999972
0
LINE
5
236
100
AcDbEntity
8
0
100
AcDbLine
10
-215.93394263535481
20
52.232236965886152
30
0
11
-217.87386588955357
21
63.234088534689803
31
0
0
ARC
5
237
100
AcDbEntity
8
0
100
AcDbCircle
10
-217.30028947046492
20
64.053240591066
30
0
40
1.0000000000000233
210
0
220
-0
230
1
100
AcDbArc
50
54.999999999999496
51
235.00000120742033
0
LINE
5
238
100
AcDbEntity
8
0
100
AcDbLine
10
-216.72671303411386
20
64.872392635354998
30
0
11
-205.72486146176999
21
66.812315894609767
31
0
0
ARC
5
239
100
AcDbEntity
8
0
100
AcDbCircle
10
-243.32645678118641
20
25.342893218813551
30
0
40
1.0000000000000324
210
0
220
0
230
1
100
AcDbArc
50
-44.99999999999654
51
135.00000085377758
0
LINE
5
240
100
AcDbEntity
8
0
100
AcDbLine
10
-242.6193499999998
20
24.635786437627026
30
0
11
-242.61935001490102
21
13.464213577274364
31
0
0
ARC
5
241
100
AcDbEntity
8
0
100
AcDbCircle
10
-243.32645678118641
20
12.757106781186657
30
0
40
0.999999999999998
210
0
220
0
230
1
100
AcDbArc
50
-135.00000000000031
51
45.000001207417974
0
LINE
5
242
100
AcDbEntity
8
0
100
AcDbLine
10
-244.03356356237296
20
12.050000000000111
30
0
11
-255.20513643762678
21
12.050000000000107
31
0
0
ARC
5
243
100
AcDbEntity
8
0
100
AcDbCircle
10
-255.9122432188133
20
12.757106781186655
30
0
40
0.99999999999999967
210
0
220
0
230
1
100
AcDbArc
50
134.99999999999909
51
314.99999999999909
0
LINE
5
244
100
AcDbEntity
8
0
100
AcDbLine
10
-256.61934999999983
20
13.464213562373203
30
0
11
-256.61934998509867
21
24.635786422725886
31
0
0
ARC
5
245
100
AcDbEntity
8
0
100
AcDbCircle
10
-255.91224321881327
20
25.342893218813593
30
0
40
0.999999999999998
210
0
220
-0
230
1
100
AcDbArc
50
44.999999999999709
51
225.00000120741797
0
LINE
5
246
100
AcDbEntity
8
0
100
AcDbLine
10
-255.20513643762672
20
26.050000000000139
30
0
11
-244.03356357290974
21
26.049999989463362
31
0
0
ARC
5
247
100
AcDbEntity
8
0
100
AcDbCircle
10
-155.81900940893408
20
16.862339470465088
30
0
40
1.0000000000000033
210
0
220
0
230
1
100
AcDbArc
50
-35.000000000000625
51
144.99999999999952
0
LINE
5
248
100
AcDbEntity
8
0
100
AcDbLine
10
-154.9998573646451
20
16.288763034114034
30
0
11
-153.05993411044631
21
5.2869114653104106
31
0
0
ARC
5
249
100
AcDbEntity
8
0
100
AcDbCircle
10
-153.63351052953502
20
4.4677594089341994
30
0
40
0.99999999999999911
210
0
220
0
230
1
100
AcDbArc
50
-125.00000000000102
51
55.000001207418165
0
LINE
5
250
100
AcDbEntity
8
0
100
AcDbLine
10
-154.20708696588608
20
3.6486073646452173
30
0
11
-165.20893854677692
21
1.708684093184079
31
0
0
ARC
5
251
100
AcDbEntity
8
0
100
AcDbCircle
10
-166.0280905910659
20
2.2822605295351268
30
0
40
0.99999999999999867
210
0
220
0
230
1
100
AcDbArc
50
144.99999999999983
51
324.99999999999972
0
LINE
5
252
100
AcDbEntity
8
0
100
AcDbLine
10
-166.84724263535489
20
2.8558369658861715
30
0
11
-168.78716588955368
21
13.857688534689817
31
0
0
ARC
5
253
100
AcDbEntity
8
0
100
AcDbCircle
10
-168.21358947046497
20
14.676840591066041
30
0
40
0.99999999999997957
210
0
220
-0
230
1
100
AcDbArc
50
54.999999999999957
51
235.00000120741859
0
LINE
5
254
100
AcDbEntity
8
0
100
AcDbLine
10
-167.64001303411393
20
15.495992635355012
30
0
11
-156.63816145322306
21
17.435915906816138
31
0
0
ARC
5
255
100
AcDbEntity
8
0
100
AcDbCircle
10
-262.37645678118645
20
25.342893218813558
30
0
40
1.0000000000000073
210
0
220
0
230
1
100
AcDbArc
50
-44.99999999999654
51
135.00000085377542
0
LINE
5
256
100
AcDbEntity
8
0
100
AcDbLine
10
-261.66934999999984
20
24.635786437627033
30
0
11
-261.66935001490106
21
13.464213577274364
31
0
0
ARC
5
257
100
AcDbEntity
8
0
100
AcDbCircle
10
-262.37645678118645
20
12.757106781186661
30
0
40
1.0000000000000233
210
0
220
0
230
1
100
AcDbArc
50
-135.00000000000031
51
45.000001207417846
0
LINE
5
258
100
AcDbEntity
8
0
100
AcDbLine
10
-263.083563562373
20
12.050000000000114
30
0
11
-274.25513643762679
21
12.050000000000109
31
0
0
ARC
5
259
100
AcDbEntity
8
0
100
AcDbCircle
10
-274.96224321881334
20
12.757106781186657
30
0
40
0.99999999999999967
210
0
220
0
230
1
100
AcDbArc
50
135.00000000000017
51
315.00000000000017
0
LINE
5
260
100
AcDbEntity
8
0
100
AcDbLine
10
-275.66934999999989
20
13.464213562373207
30
0
11
-275.66934998509873
21
24.635786422725889
31
0
0
ARC
5
261
100
AcDbEntity
8
0
100
AcDbCircle
10
-274.96224321881328
20
25.342893218813593
30
0
40
0.99999999999997602
210
0
220
-0
230
1
100
AcDbArc
50
45.000000000002153
51
225.00000120741552
0
LINE
5
262
100
AcDbEntity
8
0
100
AcDbLine
10
-274.25513643762679
20
26.050000000000143
30
0
11
-263.08356357290972
21
26.049999989463366
31
0
0
ARC
5
263
100
AcDbEntity
8
0
100
AcDbCircle
10
-243.32655678118644
20
63.442893218813481
30
0
40
1.0000000000000042
210
0
220
0
230
1
100
AcDbArc
50
-44.999999999997407
51
135.0000008537763
0
LINE
5
264
100
AcDbEntity
8
0
100
AcDbLine
10
-242.61944999999986
20
62.735786437626963
30
0
11
-242.61945001490108
21
51.564213577274309
31
0
0
ARC
5
265
100
AcDbEntity
8
0
100
AcDbCircle
10
-243.32655678118647
20
50.857106781186602
30
0
40
1.0000000000000042
210
0
220
0
230
1
100
AcDbArc
50
-135
51
45.000001207417974
0
LINE
5
266
100
AcDbEntity
8
0
100
AcDbLine
10
-244.03366356237302
20
50.150000000000048
30
0
11
-255.20523643762684
21
50.150000000000048
31
0
0
ARC
5
267
100
AcDbEntity
8
0
100
AcDbCircle
10
-255.91234321881336
20
50.857106781186594
30
0
40
0.999999999999998
210
0
220
0
230
1
100
AcDbArc
50
135.00000000000031
51
314.99999999999915
0
LINE
5
268
100
AcDbEntity
8
0
100
AcDbLine
10
-256.61944999999992
20
51.564213562373141
30
0
11
-256.61944998509875
21
62.735786422725823
31
0
0
ARC
5
269
100
AcDbEntity
8
0
100
AcDbCircle
10
-255.91234321881331
20
63.442893218813516
30
0
40
0.99999999999998546
210
0
220
-0
230
1
100
AcDbArc
50
45.000000000002586
51
225.00000120741507
0
LINE
5
270
100
AcDbEntity
8
0
100
AcDbLine
10
-255.20523643762681
20
64.150000000000077
30
0
11
-244.03366357290975
21
64.149999989463296
31
0
0
ARC
5
271
100
AcDbEntity
8
0
100
AcDbCircle
10
-186.14510940893399
20
69.546739470465042
30
0
40
1.0000000000000198
210
0
220
0
230
1
100
AcDbArc
50
-34.999999999998025
51
145.00000085377556
0
LINE
5
272
100
AcDbEntity
8
0
100
AcDbLine
10
-185.32595736464498
20
68.973163034114023
30
0
11
-183.38603411044619
21
57.971311465310393
31
0
0
ARC
5
273
100
AcDbEntity
8
0
100
AcDbCircle
10
-183.95961052953493
20
57.152159408934196
30
0
40
1.0000000000000102
210
0
220
0
230
1
100
AcDbArc
50
-124.99999999999895
51
55.000001207416361
0
LINE
5
274
100
AcDbEntity
8
0
100
AcDbLine
10
-184.53318696588596
20
56.333007364645191
30
0
11
-195.53503854677678
21
54.393084093184065
31
0
0
ARC
5
275
100
AcDbEntity
8
0
100
AcDbCircle
10
-196.35419059106579
20
54.966660529535112
30
0
40
0.99999999999999578
210
0
220
0
230
1
100
AcDbArc
50
145.00000000000003
51
325.00000000000063
0
LINE
5
276
100
AcDbEntity
8
0
100
AcDbLine
10
-197.17334263535477
20
55.540236965886152
30
0
11
-199.11326588955353
21
66.54208853468981
31
0
0
ARC
5
277
100
AcDbEntity
8
0
100
AcDbCircle
10
-198.53968947046491
20
67.361240591065993
30
0
40
1.0000000000000233
210
0
220
-0
230
1
100
AcDbArc
50
54.999999999998167
51
235.00000120742123
0
LINE
5
278
100
AcDbEntity
8
0
100
AcDbLine
10
-197.96611303411382
20
68.180392635354991
30
0
11
-186.96426146176998
21
70.12031589460976
31
0
0
ARC
5
279
100
AcDbEntity
8
0
100
AcDbCircle
10
-174.57960940893403
20
13.554339470465075
30
0
40
0.99999999999999845
210
0
220
0
230
1
100
AcDbArc
50
-35.000000000000213
51
145.00000085377326
0
LINE
5
280
100
AcDbEntity
8
0
100
AcDbLine
10
-173.76045736464505
20
12.98076303411403
30
0
11
-171.82053411044626
21
1.978911465310409
31
0
0
ARC
5
281
100
AcDbEntity
8
0
100
AcDbCircle
10
-172.394110529535
20
1.1597594089342018
30
0
40
0.99999999999999989
210
0
220
0
230
1
100
AcDbArc
50
-124.99999999999925
51
55.000001207416702
0
LINE
5
282
100
AcDbEntity
8
0
100
AcDbLine
10
-172.96768696588603
20
0.34060736464520569
30
0
11
-183.96953854677687
21
-1.5993159068159195
31
0
0
ARC
5
283
100
AcDbEntity
8
0
100
AcDbCircle
10
-184.78869059106586
20
-1.0257394704648717
30
0
40
0.99999999999999867
210
0
220
0
230
1
100
AcDbArc
50
144.99999999999983
51
324.99999999999972
0
LINE
5
284
100
AcDbEntity
8
0
100
AcDbLine
10
-185.60784263535484
20
-0.45216303411382675
30
0
11
-187.54776588955363
21
10.549688534689823
31
0
0
ARC
5
285
100
AcDbEntity
8
0
100
AcDbCircle
10
-186.97418947046492
20
11.368840591066041
30
0
40
0.99999999999997757
210
0
220
-0
230
1
100
AcDbArc
50
54.999999999999844
51
235.00000120741836
0
LINE
5
286
100
AcDbEntity
8
0
100
AcDbLine
10
-186.40061303411389
20
12.187992635355009
30
0
11
-175.39876146176996
21
14.127915894609803
31
0
0
ARC
5
287
100
AcDbEntity
8
0
100
AcDbCircle
10
-231.4202567811864
20
44.392893218813505
30
0
40
1.0000000000000042
210
0
220
0
230
1
100
AcDbArc
50
-44.999999999997407
51
135.00000085377542
0
LINE
5
288
100
AcDbEntity
8
0
100
AcDbLine
10
-230.71314999999981
20
43.685786437626987
30
0
11
-230.71315001490103
21
32.514213577274333
31
0
0
ARC
5
289
100
AcDbEntity
8
0
100
AcDbCircle
10
-231.4202567811864
20
31.807106781186629
30
0
40
1.0000000000000233
210
0
220
0
230
1
100
AcDbArc
50
-135.00000000000145
51
45.000001207418997
0
LINE
5
290
100
AcDbEntity
8
0
100
AcDbLine
10
-232.12736356237298
20
31.100000000000083
30
0
11
-243.29893643762676
21
31.10000000000008
31
0
0
ARC
5
291
100
AcDbEntity
8
0
100
AcDbCircle
10
-244.00604321881332
20
31.807106781186626
30
0
40
0.999999999999998
210
0
220
0
230
1
100
AcDbArc
50
135.00000000000031
51
315.00000000000028
0
LINE
5
292
100
AcDbEntity
8
0
100
AcDbLine
10
-244.71314999999987
20
32.514213562373172
30
0
11
-244.71314998509868
21
43.685786422725847
31
0
0
ARC
5
293
100
AcDbEntity
8
0
100
AcDbCircle
10
-244.00604321881329
20
44.392893218813555
30
0
40
1.0000000000000169
210
0
220
-0
230
1
100
AcDbArc
50
44.999999999998273
51
225.00000120741797
0
LINE
5
294
100
AcDbEntity
8
0
100
AcDbLine
10
-243.29893643762671
20
45.100000000000094
30
0
11
-232.12736357290967
21
45.099999989463313
31
0
0
ARC
5
295
100
AcDbEntity
8
0
100
AcDbCircle
10
-281.4265067811865
20
44.392893218813541
30
0
40
1.0000000000000357
210
0
220
0
230
1
100
AcDbArc
50
-44.99999999999654
51
135.00000085377746
0
LINE
5
296
100
AcDbEntity
8
0
100
AcDbLine
10
-280.71939999999989
20
43.685786437627016
30
0
11
-280.71940001490111
21
32.514213577274361
31
0
0
ARC
5
297
100
AcDbEntity
8
0
100
AcDbCircle
10
-281.4265067811865
20
31.807106781186654
30
0
40
0.999999999999998
210
0
220
0
230
1
100
AcDbArc
50
-135.00000000000031
51
45.000001207417974
0
LINE
5
298
100
AcDbEntity
8
0
100
AcDbLine
10
-282.13361356237306
20
31.100000000000108
30
0
11
-293.30518643762684
21
31.100000000000104
31
0
0
ARC
5
299
100
AcDbEntity
8
0
100
AcDbCircle
10
-294.0122932188134
20
31.807106781186651
30
0
40
0.999999999999998
210
0
220
0
230
1
100
AcDbArc
50
135.00000000000017
51
315.00000000000028
0
LINE
5
300
100
AcDbEntity
8
0
100
AcDbLine
10
-294.71939999999995
20
32.5142135623732
30
0
11
-294.71939998509879
21
43.685786422725876
31
0
0
ARC
5
301
100
AcDbEntity
8
0
100
AcDbCircle
10
-294.0122932188134
20
44.392893218813576
30
0
40
1.0000000000000233
210
0
220
-0
230
1
100
AcDbArc
50
44.999999999999709
51
225.00000120741768
0
LINE
5
302
100
AcDbEntity
8
0
100
AcDbLine
10
-293.30518643762684
20
45.100000000000122
30
0
11
-282.13361357290984
21
45.099999989463356
31
0
0
ARC
5
303
100
AcDbEntity
8
0
100
AcDbCircle
10
-224.27655678118637
20
63.442893218813495
30
0
40
1.0000000000000042
210
0
220
0
230
1
100
AcDbArc
50
-44.999999999997407
51
135.00000085377513
0
LINE
5
304
100
AcDbEntity
8
0
100
AcDbLine
10
-223.56944999999979
20
62.735786437626977
30
0
11
-223.56945001490101
21
51.564213577274323
31
0
0
ARC
5
305
100
AcDbEntity
8
0
100
AcDbCircle
10
-224.2765567811864
20
50.857106781186623
30
0
40
1.0000000000000042
210
0
220
0
230
1
100
AcDbArc
50
-135
51
45.000001207417689
0
LINE
5
306
100
AcDbEntity
8
0
100
AcDbLine
10
-224.98366356237295
20
50.15000000000007
30
0
11
-236.15523643762674
21
50.15000000000007
31
0
0
ARC
5
307
100
AcDbEntity
8
0
100
AcDbCircle
10
-236.86234321881329
20
50.857106781186616
30
0
40
0.999999999999998
210
0
220
0
230
1
100
AcDbArc
50
135.00000000000031
51
315.00000000000028
0
LINE
5
308
100
AcDbEntity
8
0
100
AcDbLine
10
-237.56944999999985
20
51.564213562373162
30
0
11
-237.56944998509866
21
62.735786422725837
31
0
0
ARC
5
309
100
AcDbEntity
8
0
100
AcDbCircle
10
-236.86234321881324
20
63.442893218813538
30
0
40
0.99999999999998546
210
0
220
-0
230
1
100
AcDbArc
50
45.000000000001151
51
225.00000120741652
0
LINE
5
310
100
AcDbEntity
8
0
100
AcDbLine
10
-236.15523643762671
20
64.150000000000091
30
0
11
-224.98366357290965
21
64.149999989463311
31
0
0
ARC
5
311
100
AcDbEntity
8
0
100
AcDbCircle
10
-250.47025678118641
20
44.392893218813505
30
0
40
1.0000000000000295
210
0
220
0
230
1
100
AcDbArc
50
-44.999999999995119
51
135.00000085377658
0
LINE
5
312
100
AcDbEntity
8
0
100
AcDbLine
10
-249.76314999999977
20
43.685786437626987
30
0
11
-249.76315001490099
21
32.514213577274333
31
0
0
ARC
5
313
100
AcDbEntity
8
0
100
AcDbCircle
10
-250.47025678118641
20
31.807106781186629
30
0
40
0.999999999999998
210
0
220
0
230
1
100
AcDbArc
50
-134.99999999999915
51
45.000001207416688
0
LINE
5
314
100
AcDbEntity
8
0
100
AcDbLine
10
-251.17736356237293
20
31.100000000000083
30
0
11
-262.34893643762678
21
31.10000000000008
31
0
0
ARC
5
315
100
AcDbEntity
8
0
100
AcDbCircle
10
-263.05604321881327
20
31.807106781186626
30
0
40
0.999999999999998
210
0
220
0
230
1
100
AcDbArc
50
135.00000000000031
51
314.99999999999801
0
LINE
5
316
100
AcDbEntity
8
0
100
AcDbLine
10
-263.76314999999983
20
32.514213562373172
30
0
11
-263.76314998509866
21
43.685786422725847
31
0
0
ARC
5
317
100
AcDbEntity
8
0
100
AcDbCircle
10
-263.05604321881327
20
44.392893218813555
30
0
40
1.0000000000000169
210
0
220
-0
230
1
100
AcDbArc
50
44.999999999997115
51
225.00000120741797
0
LINE
5
318
100
AcDbEntity
8
0
100
AcDbLine
10
-262.34893643762666
20
45.100000000000094
30
0
11
-251.17736357290971
21
45.099999989463313
31
0
0
ARC
5
319
100
AcDbEntity
8
0
100
AcDbCircle
10
-193.34020940893413
20
10.246339470465056
30
0
40
1.0000000000000242
210
0
220
0
230
1
100
AcDbArc
50
-34.999999999999048
51
145.00000085377539
0
LINE
5
320
100
AcDbEntity
8
0
100
AcDbLine
10
-192.52105736464512
20
9.6727630341140163
30
0
11
-190.5811341104463
21
-1.3290885346896031
31
0
0
ARC
5
321
100
AcDbEntity
8
0
100
AcDbCircle
10
-191.15471052953495
20
-2.148240591065814
30
0
40
1.0000000000000222
210
0
220
0
230
1
100
AcDbArc
50
-125.00000000000047
51
55.000001207420823
0
LINE
5
322
100
AcDbEntity
8
0
100
AcDbLine
10
-191.72828696588601
20
-2.9673926353548126
30
0
11
-202.73013854677686
21
-4.9073159068159553
31
0
0
ARC
5
323
100
AcDbEntity
8
0
100
AcDbCircle
10
-203.54929059106584
20
-4.3337394704649084
30
0
40
0.99999999999999867
210
0
220
0
230
1
100
AcDbArc
50
144.99999999999983
51
324.99999999999972
0
LINE
5
324
100
AcDbEntity
8
0
100
AcDbLine
10
-204.36844263535482
20
-3.7601630341138637
30
0
11
-206.30836588955364
21
7.241688534689783
31
0
0
ARC
5
325
100
AcDbEntity
8
0
100
AcDbCircle
10
-205.73478947046496
20
8.0608405910660039
30
0
40
0.99999999999999212
210
0
220
-0
230
1
100
AcDbArc
50
55.000000000000426
51
235.00000120741981
0
LINE
5
326
100
AcDbEntity
8
0
100
AcDbLine
10
-205.16121303411393
20
8.8799926353549896
30
0
11
-194.15936146177012
21
10.819915894609778
31
0
0
ARC
5
327
100
AcDbEntity
8
0
100
AcDbCircle
10
-174.534909408934
20
52.250039470465055
30
0
40
1.0000000000000009
210
0
220
0
230
1
100
AcDbArc
50
-35.000000000000313
51
144.99999999999972
0
LINE
5
328
100
AcDbEntity
8
0
100
AcDbLine
10
-173.71575736464501
20
51.676463034114008
30
0
11
-171.7758341104462
21
40.674611465310377
31
0
0
ARC
5
329
100
AcDbEntity
8
0
100
AcDbCircle
10
-172.34941052953488
20
39.855459408934159
30
0
40
0.99999999999999212
210
0
220
0
230
1
100
AcDbArc
50
-124.99999999999964
51
55.000001207419729
0
LINE
5
330
100
AcDbEntity
8
0
100
AcDbLine
10
-172.92298696588591
20
39.036307364645175
30
0
11
-183.92483854677675
21
37.096384093184035
31
0
0
ARC
5
331
100
AcDbEntity
8
0
100
AcDbCircle
10
-184.74399059106574
20
37.669960529535082
30
0
40
1.0000000000000009
210
0
220
0
230
1
100
AcDbArc
50
144.99999999999972
51
324.99999999999972
0
LINE
5
332
100
AcDbEntity
8
0
100
AcDbLine
10
-185.56314263535472
20
38.243536965886129
30
0
11
-187.50306588955354
21
49.245388534689766
31
0
0
ARC
5
333
100
AcDbEntity
8
0
100
AcDbCircle
10
-186.92948947046489
20
50.064540591065978
30
0
40
1.0000000000000233
210
0
220
-0
230
1
100
AcDbArc
50
54.999999999999496
51
235.00000120742084
0
LINE
5
334
100
AcDbEntity
8
0
100
AcDbLine
10
-186.35591303411383
20
50.883692635354976
30
0
11
-175.35406145322298
21
52.823615906816102
31
0
0
ARC
5
335
100
AcDbEntity
8
0
100
AcDbCircle
10
-148.64390940893404
20
37.471439470465114
30
0
40
1.0000000000000033
210
0
220
0
230
1
100
AcDbArc
50
-35.000000000000625
51
144.99999999999937
0
LINE
5
336
100
AcDbEntity
8
0
100
AcDbLine
10
-147.82475736464505
20
36.89786303411406
30
0
11
-145.88483411044626
21
25.896011465310437
31
0
0
ARC
5
337
100
AcDbEntity
8
0
100
AcDbCircle
10
-146.45841052953497
20
25.076859408934233
30
0
40
1.0000000000000024
210
0
220
0
230
1
100
AcDbArc
50
-125.00000000000088
51
55.000001207417931
0
LINE
5
338
100
AcDbEntity
8
0
100
AcDbLine
10
-147.03198696588603
20
24.257707364645245
30
0
11
-158.03383854677688
21
22.317784093184102
31
0
0
ARC
5
339
100
AcDbEntity
8
0
100
AcDbCircle
10
-158.85299059106586
20
22.891360529535145
30
0
40
0.99999999999999845
210
0
220
0
230
1
100
AcDbArc
50
144.99999999999989
51
324.99999999999989
0
LINE
5
340
100
AcDbEntity
8
0
100
AcDbLine
10
-159.67214263535485
20
23.464936965886189
30
0
11
-161.61206588955363
21
34.46678853468984
31
0
0
ARC
5
341
100
AcDbEntity
8
0
100
AcDbCircle
10
-161.03848947046492
20
35.285940591066058
30
0
40
0.99999999999998113
210
0
220
-0
230
1
100
AcDbArc
50
55.000000000000142
51
235.00000120741836
0
LINE
5
342
100
AcDbEntity
8
0
100
AcDbLine
10
-160.46491303411389
20
36.105092635355035
30
0
11
-149.46306145322302
21
38.045015906816168
31
0
0
LWPOLYLINE
5
343
100
AcDbEntity
8
0
100
AcDbPolyline
90
8
70
1
43
0.0
10
-168.22366145322317
20
34.737015906816154
42
-0.99999999999999989
10
-166.58535736464512
20
33.589863034114074
10
-164.64543411044639
20
22.588011465310473
42
-1.0000000105367122
10
-165.7925869658861
20
20.949707364645246
10
-176.79443854677692
20
19.00978409318412
42
-0.99999999999999989
10
-178.43274263535491
20
20.156936965886207
10
-180.37266588955376
20
31.158788534689865
42
-1.0000000105367122
10
-179.22551303411396
20
32.79709263535505
0
LWPOLYLINE
5
344
100
AcDbEntity
8
0
100
AcDbPolyline
90
8
70
1
43
0.0
10
-232.12726356237312
20
5.0598000000000471
42
-0.99999999999999989
10
-230.7130499999999
20
3.6455864376269997
10
-230.71305001490111
20
-7.525986422725655
42
-1.0000000105367122
10
-232.12726356237306
20
-8.9401999999999102
10
-243.29883643762685
20
-8.9401999999999102
42
-0.99999999999999989
10
-244.71304999999995
20
-7.5259864376268162
10
-244.71304998509882
20
3.6455864227258559
42
-1.0000000105367122
10
-243.29883643762682
20
5.0598000000001111
0
ARC
5
345
100
AcDbEntity
8
0
100
AcDbCircle
10
-286.18895678118639
20
25.342893218813551
30
0
40
1.0000000000000073
210
0
220
0
230
1
100
AcDbArc
50
-44.99999999999654
51
135.0000008537753
0
LINE
5
346
100
AcDbEntity
8
0
100
AcDbLine
10
-285.48184999999978
20
24.635786437627026
30
0
11
-285.481850014901
21
13.464213577274364
31
0
0
ARC
5
347
100
AcDbEntity
8
0
100
AcDbCircle
10
-286.18895678118639
20
12.757106781186657
30
0
40
1.0000000000000233
210
0
220
0
230
1
100
AcDbArc
50
-135.00000000000031
51
45.000001207417974
0
LINE
5
348
100
AcDbEntity
8
0
100
AcDbLine
10
-286.89606356237294
20
12.050000000000111
30
0
11
-298.06763643762673
21
12.050000000000107
31
0
0
ARC
5
349
100
AcDbEntity
8
0
100
AcDbCircle
10
-298.77474321881328
20
12.757106781186655
30
0
40
0.99999999999999967
210
0
220
0
230
1
100
AcDbArc
50
135.00000000000023
51
315.00000000000017
0
LINE
5
350
100
AcDbEntity
8
0
100
AcDbLine
10
-299.48184999999984
20
13.464213562373203
30
0
11
-299.48184998509868
21
24.635786422725886
31
0
0
ARC
5
351
100
AcDbEntity
8
0
100
AcDbCircle
10
-298.77474321881323
20
25.342893218813593
30
0
40
0.99999999999997291
210
0
220
-0
230
1
100
AcDbArc
50
45.000000000002011
51
225.00000120741566
0
LINE
5
352
100
AcDbEntity
8
0
100
AcDbLine
10
-298.06763643762673
20
26.050000000000139
30
0
11
-286.89606357290967
21
26.049999989463362
31
0
0
ARC
5
353
100
AcDbEntity
8
0
100
AcDbCircle
10
-227.58455678118639
20
82.492893218813506
30
0
40
1.0000000000000107
210
0
220
0
230
1
100
AcDbArc
50
-45.000000000000561
51
135.00000120741771
0
LINE
5
354
100
AcDbEntity
8
0
100
AcDbLine
10
-226.87744999999984
20
81.785786437626939
30
0
11
-226.87745001490103
21
70.614213577274299
31
0
0
ARC
5
355
100
AcDbEntity
8
0
100
AcDbCircle
10
-227.58455678118645
20
69.907106781186599
30
0
40
1.0000000000000042
210
0
220
0
230
1
100
AcDbArc
50
-134.99999999999886
51
45.000001207416531
0
LINE
5
356
100
AcDbEntity
8
0
100
AcDbLine
10
-228.29166356237297
20
69.200000000000045
30
0
11
-239.46323643762679
21
69.200000000000045
31
0
0
ARC
5
357
100
AcDbEntity
8
0
100
AcDbCircle
10
-240.17034321881334
20
69.907106781186584
30
0
40
0.999999999999998
210
0
220
0
230
1
100
AcDbArc
50
134.99999999999886
51
315.00000000000057
0
LINE
5
358
100
AcDbEntity
8
0
100
AcDbLine
10
-240.87744999999987
20
70.614213562373138
30
0
11
-240.87744998509868
21
81.78578642272582
31
0
0
ARC
5
359
100
AcDbEntity
8
0
100
AcDbCircle
10
-240.17034321881326
20
82.492893218813506
30
0
40
0.999999999999998
210
0
220
-0
230
1
100
AcDbArc
50
45.000000000002302
51
225.00000120741595
0
LINE
5
360
100
AcDbEntity
8
0
100
AcDbLine
10
-239.46323643762673
20
83.200000000000088
30
0
11
-228.29166357727411
21
83.199999985098913
31
0
0
ARC
5
361
100
AcDbEntity
8
0
100
AcDbCircle
10
-212.10080940893408
20
6.9383394704650749
30
0
40
1.0000000000000242
210
0
220
0
230
1
100
AcDbArc
50
-34.999999999998998
51
145.00000085377542
0
LINE
5
362
100
AcDbEntity
8
0
100
AcDbLine
10
-211.28165736464507
20
6.364763034114036
30
0
11
-209.34173411044625
21
-4.6370885346895854
31
0
0
ARC
5
363
100
AcDbEntity
8
0
100
AcDbCircle
10
-209.91531052953491
20
-5.4562405910657947
30
0
40
1.0000000000000226
210
0
220
0
230
1
100
AcDbArc
50
-125.00000000000047
51
55.00000120742078
0
LINE
5
364
100
AcDbEntity
8
0
100
AcDbLine
10
-210.48888696588597
20
-6.2753926353547937
30
0
11
-221.49073854677681
21
-8.2153159068159365
31
0
0
ARC
5
365
100
AcDbEntity
8
0
100
AcDbCircle
10
-222.30989059106579
20
-7.6417394704648895
30
0
40
0.99999999999999889
210
0
220
0
230
1
100
AcDbArc
50
144.99999999999977
51
324.99999999999972
0
LINE
5
366
100
AcDbEntity
8
0
100
AcDbLine
10
-223.12904263535478
20
-7.0681630341138444
30
0
11
-225.0689658895536
21
3.9336885346897974
31
0
0
ARC
5
367
100
AcDbEntity
8
0
100
AcDbCircle
10
-224.49538947046491
20
4.7528405910660201
30
0
40
0.99999999999999212
210
0
220
-0
230
1
100
AcDbArc
50
55.000000000000455
51
235.00000120741987
0
LINE
5
368
100
AcDbEntity
8
0
100
AcDbLine
10
-223.92181303411388
20
5.5719926353550067
30
0
11
-212.91996146177007
21
7.5119158946097961
31
0
0
ARC
5
369
100
AcDbEntity
8
0
100
AcDbCircle
10
-250.47015678118652
20
6.2928932188135729
30
0
40
1.0000000000000036
210
0
220
0
230
1
100
AcDbArc
50
-45
51
135.00000147877813
0
LINE
5
370
100
AcDbEntity
8
0
100
AcDbLine
10
-249.76304999999996
20
5.5857864376270197
30
0
11
-249.76305001490115
21
-5.5857864227256391
31
0
0
ARC
5
371
100
AcDbEntity
8
0
100
AcDbCircle
10
-250.47015678118652
20
-6.2928932188133446
30
0
40
1.000000000000024
210
0
220
0
230
1
100
AcDbArc
50
-135.00000000000142
51
45.000001207419061
0
LINE
5
372
100
AcDbEntity
8
0
100
AcDbLine
10
-251.1772635623731
20
-6.9999999999998916
30
0
11
-262.34883643762691
21
-6.9999999999998934
31
0
0
ARC
5
373
100
AcDbEntity
8
0
100
AcDbCircle
10
-263.05594321881347
20
-6.2928932188133446
30
0
40
0.99999999999999878
210
0
220
0
230
1
100
AcDbArc
50
134.99999999999795
51
315.00000000000017
0
LINE
5
374
100
AcDbEntity
8
0
100
AcDbLine
10
-263.76304999999996
20
-5.5857864376267976
30
0
11
-263.7630499850988
21
5.5857864227258816
31
0
0
ARC
5
375
100
AcDbEntity
8
0
100
AcDbCircle
10
-263.05594321881341
20
6.2928932188135844
30
0
40
0.999999999999998
210
0
220
-0
230
1
100
AcDbArc
50
44.999999999999709
51
225.0000012074178
0
LINE
5
376
100
AcDbEntity
8
0
100
AcDbLine
10
-262.34883643762686
20
7.0000000000001306
30
0
11
-251.17726358062316
21
6.9999999817500065
31
0
0
ARC
5
377
100
AcDbEntity
8
0
100
AcDbCircle
10
-155.77430940893387
20
55.558039470465097
30
0
40
0.99999999999999145
210
0
220
0
230
1
100
AcDbArc
50
-35.000000000000625
51
145.00000085377266
0
LINE
5
378
100
AcDbEntity
8
0
100
AcDbLine
10
-154.95515736464489
20
54.984463034114043
30
0
11
-153.01523411044613
21
43.98261146531042
31
0
0
ARC
5
379
100
AcDbEntity
8
0
100
AcDbCircle
10
-153.58881052953484
20
43.163459408934202
30
0
40
0.99999999999999867
210
0
220
0
230
1
100
AcDbArc
50
-125.00000000000098
51
55.0000012074184
0
LINE
5
380
100
AcDbEntity
8
0
100
AcDbLine
10
-154.1623869658859
20
42.344307364645218
30
0
11
-165.16423854677672
21
40.404384093184092
31
0
0
ARC
5
381
100
AcDbEntity
8
0
100
AcDbCircle
10
-165.9833905910657
20
40.977960529535139
30
0
40
0.99999999999999578
210
0
220
0
230
1
100
AcDbArc
50
145.00000000000065
51
324.99999999999972
0
LINE
5
382
100
AcDbEntity
8
0
100
AcDbLine
10
-166.80254263535471
20
41.551536965886186
30
0
11
-168.74246588955347
21
52.553388534689837
31
0
0
ARC
5
383
100
AcDbEntity
8
0
100
AcDbCircle
10
-168.16888947046476
20
53.372540591066027
30
0
40
1.0000000000000102
210
0
220
-0
230
1
100
AcDbArc
50
54.999999999999979
51
235.00000120741748
0
LINE
5
384
100
AcDbEntity
8
0
100
AcDbLine
10
-167.5953130341137
20
54.191692635355039
30
0
11
-156.59346146176981
21
56.131615894609837
31
0
0
ARC
5
385
100
AcDbEntity
8
0
100
AcDbCircle
10
-212.05610940893396
20
45.634039470465041
30
0
40
1.0000000000000249
210
0
220
0
230
1
100
AcDbArc
50
-34.999999999998685
51
145.00000085377428
0
LINE
5
386
100
AcDbEntity
8
0
100
AcDbLine
10
-211.23695736464495
20
45.060463034114008
30
0
11
-209.29703411044616
21
34.058611465310385
31
0
0
ARC
5
387
100
AcDbEntity
8
0
100
AcDbCircle
10
-209.8706105295349
20
33.239459408934181
30
0
40
1.0000000000000031
210
0
220
0
230
1
100
AcDbArc
50
-124.99999999999915
51
55.000001207416602
0
LINE
5
388
100
AcDbEntity
8
0
100
AcDbLine
10
-210.44418696588593
20
32.420307364645183
30
0
11
-221.44603854677678
21
30.480384093184053
31
0
0
ARC
5
389
100
AcDbEntity
8
0
100
AcDbCircle
10
-222.26519059106576
20
31.053960529535107
30
0
40
0.99999999999999578
210
0
220
0
230
1
100
AcDbArc
50
145.00000000000003
51
324.99999999999937
0
LINE
5
390
100
AcDbEntity
8
0
100
AcDbLine
10
-223.08434263535474
20
31.627536965886147
30
0
11
-225.02426588955353
21
42.629388534689795
31
0
0
ARC
5
391
100
AcDbEntity
8
0
100
AcDbCircle
10
-224.45068947046485
20
43.448540591066006
30
0
40
1.0000000000000089
210
0
220
-0
230
1
100
AcDbArc
50
54.999999999998806
51
235.0000012074195
0
LINE
5
392
100
AcDbEntity
8
0
100
AcDbLine
10
-223.87711303411379
20
44.267692635354983
30
0
11
-212.87526146176992
21
46.207615894609766
31
0
0
ARC
5
393
100
AcDbEntity
8
0
100
AcDbCircle
10
-186.16510940893417
20
30.855439470465079
30
0
40
1.0000000000000249
210
0
220
0
230
1
100
AcDbArc
50
-34.999999999998074
51
145.00000000000097
0
LINE
5
394
100
AcDbEntity
8
0
100
AcDbLine
10
-185.34595736464513
20
30.281863034114039
30
0
11
-183.40603411044634
21
19.280011465310412
31
0
0
ARC
5
395
100
AcDbEntity
8
0
100
AcDbCircle
10
-183.97961052953497
20
18.460859408934201
30
0
40
1.0000000000000215
210
0
220
0
230
1
100
AcDbArc
50
-125.00000000000183
51
55.000001207422166
0
LINE
5
396
100
AcDbEntity
8
0
100
AcDbLine
10
-184.55318696588606
20
17.641707364645203
30
0
11
-195.55503854677687
21
15.70178409318406
31
0
0
ARC
5
397
100
AcDbEntity
8
0
100
AcDbCircle
10
-196.37419059106588
20
16.275360529535106
30
0
40
0.99999999999999845
210
0
220
0
230
1
100
AcDbArc
50
144.99999999999972
51
325.00000000000063
0
LINE
5
398
100
AcDbEntity
8
0
100
AcDbLine
10
-197.19334263535487
20
16.848936965886153
30
0
11
-199.13326588955368
21
27.850788534689798
31
0
0
ARC
5
399
100
AcDbEntity
8
0
100
AcDbCircle
10
-198.559689470465
20
28.669940591066023
30
0
40
0.99999999999999212
210
0
220
-0
230
1
100
AcDbArc
50
54.999999999999154
51
235.00000120741996
0
LINE
5
400
100
AcDbEntity
8
0
100
AcDbLine
10
-197.98611303411394
20
29.489092635355011
30
0
11
-186.98426145322318
21
31.429015906816119
31
0
0
CIRCLE
5
401
100
AcDbEntity
8
0
100
AcDbCircle
10
-7.6142537057013993
20
76.19999999947747
30
0
40
3.0000000000000027
210
0
220
-0
230
1
0
CIRCLE
5
402
100
AcDbEntity
8
0
100
AcDbCircle
10
-252.9024500000003
20
76.200000000000031
30
0
40
3.0000000000000071
210
0
220
-0
230
1
0
CIRCLE
5
403
100
AcDbEntity
8
0
100
AcDbCircle
10
-272.90245000000033
20
76.200000000000045
30
0
40
3.0000000000000071
210
0
220
-0
230
1
0
CIRCLE
5
404
100
AcDbEntity
8
0
100
AcDbCircle
10
-27.614253705701408
20
76.19999999955624
30
0
40
3.0000000000000027
210
0
220
-0
230
1
0
CIRCLE
5
405
100
AcDbEntity
8
0
100
AcDbCircle
10
30.252681908126991
20
24.875000000000011
30
0
40
1.2000000000000011
210
0
220
-0
230
1
0
CIRCLE
5
406
100
AcDbEntity
8
0
100
AcDbCircle
10
-31.912790428953777
20
-12.724999999999994
30
0
40
1.2000000000000011
210
0
220
-0
230
1
0
CIRCLE
5
407
100
AcDbEntity
8
0
100
AcDbCircle
10
-262.90244999999936
20
83.450000000002746
30
0
40
1.2000000000000099
210
0
220
-0
230
1
0
CIRCLE
5
408
100
AcDbEntity
8
0
100
AcDbCircle
10
-140.25835118333379
20
45.0217499873796
30
0
40
1.1999999999999922
210
0
220
-0
230
1
0
CIRCLE
5
409
100
AcDbEntity
8
0
100
AcDbCircle
10
4.7186923981849427
20
38.099999997590558
30
0
40
1.2000000000000006
210
0
220
-0
230
1
0
CIRCLE
5
410
100
AcDbEntity
8
0
100
AcDbCircle
10
-258.63664968855477
20
-12.725000000000037
30
0
40
1.1999999999999744
210
0
220
-0
230
1
0
CIRCLE
5
411
100
AcDbEntity
8
0
100
AcDbCircle
10
-310.79206923057006
20
24.874999999999957
30
0
40
1.2000000000000099
210
0
220
-0
230
1
0
CIRCLE
5
412
100
AcDbEntity
8
0
100
AcDbCircle
10
-17.614253705689944
20
83.449999999514958
30
0
40
1.2000000000000011
210
0
220
-0
230
1
0
CIRCLE
5
413
100
AcDbEntity
8
0
100
AcDbCircle
10
-140.25835185288093
20
55.1464
30
0
40
3.9999999999999964
210
0
220
-0
230
1
0
ARC
5
414
100
AcDbEntity
8
0
100
AcDbCircle
10
-135.49432971528952
20
78.664323935129431
30
0
40
0.50000000000000133
210
0
220
-0
230
1
100
AcDbArc
50
79.999999999964984
51
197.67304155175606
0
ARC
5
415
100
AcDbEntity
8
0
100
AcDbCircle
10
-140.2583518528497
20
77.146400000000028
30
0
40
4.5000000000002425
210
-0
220
0
230
1
100
AcDbArc
50
-12.206686243082141
51
17.673041551756739
0
LINE
5
416
100
AcDbEntity
8
0
100
AcDbLine
10
-135.86009133283318
20
76.194925145857198
30
0
11
-138.36716251783156
21
64.605809400086486
31
0
0
ARC
5
417
100
AcDbEntity
8
0
100
AcDbCircle
10
-139.34455374450187
20
64.817248256562635
30
0
40
1.0000000000000142
210
0
220
0
230
1
100
AcDbArc
50
270.00000021199736
51
347.79331375691947
0
LINE
5
418
100
AcDbEntity
8
0
100
AcDbLine
10
-139.34455374080181
20
63.817248256562628
30
0
11
-141.2741764866721
21
63.817248249422924
31
0
0
ARC
5
419
100
AcDbEntity
8
0
100
AcDbCircle
10
-141.27417649037218
20
64.817248249422889
30
0
40
0.99999999999995937
210
0
220
0
230
1
100
AcDbArc
50
191.72455762261686
51
270.00000021199895
0
LINE
5
420
100
AcDbEntity
8
0
100
AcDbLine
10
-142.25331229411046
20
64.614041266674533
30
0
11
-144.66446296967189
21
76.231968577632102
31
0
0
ARC
5
421
100
AcDbEntity
8
0
100
AcDbCircle
10
-140.2583518528497
20
77.146400000000028
30
0
40
4.4999999999997673
210
0
220
0
230
1
100
AcDbArc
50
162.08178086747012
51
191.72455762262103
0
ARC
5
422
100
AcDbEntity
8
0
100
AcDbCircle
10
-145.0158349595043
20
78.684695969537103
30
0
40
0.50000000000001599
210
0
220
0
230
1
100
AcDbArc
50
-17.918219132526449
51
99.999999923550405
0
LINE
5
423
100
AcDbEntity
8
0
100
AcDbLine
10
-145.10265904768076
20
79.177099846159081
30
0
11
-152.94701882331111
21
77.793927582122805
31
0
0
ARC
5
424
100
AcDbEntity
8
0
100
AcDbCircle
10
-153.09896097762027
20
78.655634366211146
30
0
40
0.87499999999998934
210
0
220
0
230
1
100
AcDbArc
50
99.99999992357651
51
279.99999992357465
0
LINE
5
425
100
AcDbEntity
8
0
100
AcDbLine
10
-153.25090313192945
20
79.517341150299487
30
0
11
-140.46479224663781
21
81.77187746012649
31
0
0
ARC
5
426
100
AcDbEntity
8
0
100
AcDbCircle
10
-140.31285009232778
20
80.910170676032763
30
0
40
0.87500000000543909
210
0
220
-0
230
1
100
AcDbArc
50
80.000000000006736
51
99.999999923570257
0
LINE
5
427
100
AcDbEntity
8
0
100
AcDbLine
10
-140.16090793686837
20
81.771877459923829
30
0
11
-127.37484536781209
21
79.517349651967422
31
0
0
ARC
5
428
100
AcDbEntity
8
0
100
AcDbCircle
10
-127.52678752327057
20
78.655642868082168
30
0
40
0.87499999999954392
210
0
220
0
230
1
100
AcDbArc
50
-100.0000000000001
51
80.000000000000213
0
LINE
5
429
100
AcDbEntity
8
0
100
AcDbLine
10
-127.67872967872906
20
77.793936084196943
30
0
11
-135.40750562645576
21
79.156727811635477
31
0
0
CIRCLE
5
430
100
AcDbEntity
8
0
100
AcDbCircle
10
2.776850000000024
20
76.199999999999946
30
0
40
4.5
210
0
220
-0
230
1
0
CIRCLE
5
431
100
AcDbEntity
8
0
100
AcDbCircle
10
-283.40244999999987
20
76.200000000000031
30
0
40
4.4999999999999858
210
0
220
-0
230
1
0
ARC
5
432
100
AcDbEntity
8
0
100
AcDbCircle
10
-277.50074990912799
20
64.649999999113589
30
0
40
0.49999999999998046
210
0
220
0
230
1
100
AcDbArc
50
-90
51
1.2134403433412637e-05
0
LINE
5
433
100
AcDbEntity
8
0
100
AcDbLine
10
-277.00074990912805
20
64.650000104887027
30
0
11
-277.00075001490143
21
65.149999984212329
31
0
0
ARC
5
434
100
AcDbEntity
8
0
100
AcDbCircle
10
-276.00075001490143
20
65.149999984212272
30
0
40
1.0000000000000231
210
0
220
0
230
1
100
AcDbArc
50
90
51
180
0
LINE
5
435
100
AcDbEntity
8
0
100
AcDbLine
10
-276.00075001490143
20
66.149999984212286
30
0
11
-269.81326237462878
21
66.149999984212243
31
0
0
ARC
5
436
100
AcDbEntity
8
0
100
AcDbCircle
10
-269.81324997561558
20
65.149999984289181
30
0
40
0.99999999999992895
210
0
220
0
230
1
100
AcDbArc
50
-0.011787990454362206
51
90.000710411126562
0
LINE
5
437
100
AcDbEntity
8
0
100
AcDbLine
10
-268.81324999677997
20
65.149794245045229
30
0
11
-268.81325001490103
21
51.564213576387878
31
0
0
ARC
5
438
100
AcDbEntity
8
0
100
AcDbCircle
10
-269.52035678118648
20
50.857106780300171
30
0
40
0.99999999999997291
210
0
220
0
230
1
100
AcDbArc
50
-134.99999999999773
51
45.000001207415671
0
LINE
5
439
100
AcDbEntity
8
0
100
AcDbLine
10
-270.22746356237298
20
50.149999999113618
30
0
11
-290.92403626258562
21
50.14999973841433
31
0
0
ARC
5
440
100
AcDbEntity
8
0
100
AcDbCircle
10
-291.63114300094304
20
50.857106780300228
30
0
40
1.0000001540575323
210
0
220
0
230
1
100
AcDbArc
50
135.00000882684677
51
314.99998770277824
0
LINE
5
441
100
AcDbEntity
8
0
100
AcDbLine
10
-292.33824999999985
20
51.564213561486739
30
0
11
-292.33824998509863
21
62.735786597832657
31
0
0
ARC
5
442
100
AcDbEntity
8
0
100
AcDbCircle
10
-291.63114298415547
20
63.442893217927008
30
0
40
0.99999999999999178
210
0
220
-0
230
1
100
AcDbArc
50
45.000000000002878
51
224.999984570203
0
LINE
5
443
100
AcDbEntity
8
0
100
AcDbLine
10
-290.92403620296898
20
64.149999999113575
30
0
11
-277.50074990912799
21
64.149999999113618
31
0
0
LWPOLYLINE
5
444
100
AcDbEntity
8
0
100
AcDbPolyline
90
16
70
1
43
0.0
10
-100.67086090920967
20
76.484155611444407
42
-0.41421382668221302
10
-100.26528067718803
20
75.904927567754342
10
-100.35210078059626
20
75.412546293717995
42
0.41421356237310364
10
-99.540941205250974
20
74.254090363038856
10
-89.803654547342774
20
72.537144006357067
42
0.41421356237309853
10
-88.645198616663635
20
73.348303581702368
10
-86.214124129326677
20
87.135612123873273
42
0.41421356237307727
10
-87.025283704671864
20
88.29406805455244
10
-120.20099488427066
20
94.143841039707112
42
0.41421356237308987
10
-121.35945081494981
20
93.332681464361826
10
-123.7905253022868
20
79.545372922190893
42
0.41421356237311047
10
-122.9793657269415
20
78.386916991511768
10
-113.24207906903328
20
76.669970634829994
42
0.41421356237309548
10
-112.08362313835414
20
77.481130210175294
10
-111.9968052676204
20
77.97350142029147
42
-0.4142135623730806
10
-111.41757766827936
20
78.379081730663643
0
ARC
5
445
100
AcDbEntity
8
0
100
AcDbCircle
10
-74.917510529534951
20
46.753340591066042
30
0
40
1.0000000000000031
210
-0
220
0
230
1
100
AcDbArc
50
-55.000000000000142
51
125.00000147877812
0
LINE
5
446
100
AcDbEntity
8
0
100
AcDbLine
10
-74.343934093183904
20
45.934188546777044
30
0
11
-76.283857376732286
21
34.932336983148545
31
0
0
ARC
5
447
100
AcDbEntity
8
0
100
AcDbCircle
10
-77.103009408934057
20
34.358760529535168
30
0
40
0.99999999999999101
210
0
220
0
230
1
100
AcDbArc
50
-145.00000000000003
51
35.000001207417959
0
LINE
5
448
100
AcDbEntity
8
0
100
AcDbLine
10
-77.92216145322304
20
33.785184093184128
30
0
11
-88.924013034113884
21
35.725107364645275
31
0
0
ARC
5
449
100
AcDbEntity
8
0
100
AcDbCircle
10
-89.497589470464916
20
36.544259408934266
30
0
40
0.99999999999999933
210
0
220
0
230
1
100
AcDbArc
50
124.99999999999983
51
304.99999999999937
0
LINE
5
450
100
AcDbEntity
8
0
100
AcDbLine
10
-90.071165906815963
20
37.363411453223264
30
0
11
-88.131242623267582
21
48.365263016851785
31
0
0
ARC
5
451
100
AcDbEntity
8
0
100
AcDbCircle
10
-87.312090591065811
20
48.938839470465176
30
0
40
0.99999999999998557
210
0
220
-0
230
1
100
AcDbArc
50
34.999999999998494
51
215.00000120741862
0
LINE
5
452
100
AcDbEntity
8
0
100
AcDbLine
10
-86.492938546776813
20
49.512415906816194
30
0
11
-75.491086987027941
21
47.572492620551287
31
0
0
ARC
5
453
100
AcDbEntity
8
0
100
AcDbCircle
10
-56.156910529534898
20
43.445340591066042
30
0
40
0.99999999999999079
210
-0
220
0
230
1
100
AcDbArc
50
-55.000000000000604
51
125.00000170754623
0
LINE
5
454
100
AcDbEntity
8
0
100
AcDbLine
10
-55.583334093183865
20
42.626188546777051
30
0
11
-57.523257376732246
21
31.624336983148552
31
0
0
ARC
5
455
100
AcDbEntity
8
0
100
AcDbCircle
10
-58.342409408934017
20
31.050760529535172
30
0
40
0.99999999999999845
210
0
220
0
230
1
100
AcDbArc
50
-145.00000000000009
51
35.00000120741813
0
LINE
5
456
100
AcDbEntity
8
0
100
AcDbLine
10
-59.161561453223008
20
30.477184093184128
30
0
11
-70.16341303411383
21
32.417107364645268
31
0
0
ARC
5
457
100
AcDbEntity
8
0
100
AcDbCircle
10
-70.736989470464877
20
33.236259408934259
30
0
40
0.99999999999999734
210
0
220
0
230
1
100
AcDbArc
50
125.00000000000007
51
305.00000000000006
0
LINE
5
458
100
AcDbEntity
8
0
100
AcDbLine
10
-71.310565906815924
20
34.05541145322325
30
0
11
-69.370642623267557
21
45.057263016851778
31
0
0
ARC
5
459
100
AcDbEntity
8
0
100
AcDbCircle
10
-68.551490591065786
20
45.630839470465155
30
0
40
0.999999999999998
210
0
220
-0
230
1
100
AcDbArc
50
34.999999999999169
51
215.00000120741794
0
LINE
5
460
100
AcDbEntity
8
0
100
AcDbLine
10
-67.732338546776788
20
46.204415906816187
30
0
11
-56.730486990298559
21
44.26449261826113
31
0
0
ARC
5
461
100
AcDbEntity
8
0
100
AcDbCircle
10
-43.763256781186392
20
63.442893218813559
30
0
40
1.0000000000000107
210
0
220
0
230
1
100
AcDbArc
50
-44.999999999999133
51
135.000000853774
0
LINE
5
462
100
AcDbEntity
8
0
100
AcDbLine
10
-43.056149999999825
20
62.735786437627013
30
0
11
-43.056150014901021
21
51.564213577274359
31
0
0
ARC
5
463
100
AcDbEntity
8
0
100
AcDbCircle
10
-43.763256781186399
20
50.857106781186651
30
0
40
0.999999999999998
210
0
220
0
230
1
100
AcDbArc
50
-135
51
45.000001207418549
0
LINE
5
464
100
AcDbEntity
8
0
100
AcDbLine
10
-44.470363562372945
20
50.150000000000105
30
0
11
-55.641936437626747
21
50.150000000000105
31
0
0
ARC
5
465
100
AcDbEntity
8
0
100
AcDbCircle
10
-56.349043218813293
20
50.857106781186651
30
0
40
0.999999999999998
210
0
220
0
230
1
100
AcDbArc
50
135
51
315
0
LINE
5
466
100
AcDbEntity
8
0
100
AcDbLine
10
-57.056149999999839
20
51.564213562373197
30
0
11
-57.056149985098671
21
62.73578642272588
31
0
0
ARC
5
467
100
AcDbEntity
8
0
100
AcDbCircle
10
-56.349043218813279
20
63.442893218813587
30
0
40
1.0000000000000042
210
0
220
-0
230
1
100
AcDbArc
50
44.999999999999424
51
225.00000120741797
0
LINE
5
468
100
AcDbEntity
8
0
100
AcDbLine
10
-55.641936437626718
20
64.150000000000134
30
0
11
-44.470363572909662
21
64.149999989463396
31
0
0
ARC
5
469
100
AcDbEntity
8
0
100
AcDbCircle
10
-8.0446567811865446
20
6.2928932188135729
30
0
40
0.99999999999999967
210
0
220
0
230
1
100
AcDbArc
50
-45.000000000000156
51
135.00000085377343
0
LINE
5
470
100
AcDbEntity
8
0
100
AcDbLine
10
-7.3375499999999994
20
5.5857864376270241
30
0
11
-7.337550014901173
21
-5.5857864227256302
31
0
0
ARC
5
471
100
AcDbEntity
8
0
100
AcDbCircle
10
-8.0446567811865588
20
-6.2928932188133366
30
0
40
0.99999999999999878
210
0
220
0
230
1
100
AcDbArc
50
-135.00000000000009
51
45.000001207418201
0
LINE
5
472
100
AcDbEntity
8
0
100
AcDbLine
10
-8.7517635623731067
20
-6.9999999999998828
30
0
11
-19.923336437626901
21
-6.9999999999998828
31
0
0
ARC
5
473
100
AcDbEntity
8
0
100
AcDbCircle
10
-20.630443218813454
20
-6.2928932188133357
30
0
40
1.0000000000000011
210
0
220
0
230
1
100
AcDbArc
50
135.00000000000017
51
315.00000000000028
0
LINE
5
474
100
AcDbEntity
8
0
100
AcDbLine
10
-21.337550000000004
20
-5.5857864376267896
30
0
11
-21.337549985098828
21
5.5857864227258922
31
0
0
ARC
5
475
100
AcDbEntity
8
0
100
AcDbCircle
10
-20.630443218813443
20
6.2928932188135969
30
0
40
1.0000000000000011
210
0
220
-0
230
1
100
AcDbArc
50
44.999999999999602
51
225.00000120741817
0
LINE
5
476
100
AcDbEntity
8
0
100
AcDbLine
10
-19.92333643762689
20
7.0000000000001403
30
0
11
-8.7517635729098018
21
6.9999999894634115
31
0
0
ARC
5
477
100
AcDbEntity
8
0
100
AcDbCircle
10
-10.425856781186415
20
44.392893218813555
30
0
40
1.0000000000000058
210
0
220
0
230
1
100
AcDbArc
50
-45.000000000000199
51
135.00000120741805
0
LINE
5
478
100
AcDbEntity
8
0
100
AcDbLine
10
-9.7187499999998668
20
43.685786437627002
30
0
11
-9.718750014901044
21
32.514213577274361
31
0
0
ARC
5
479
100
AcDbEntity
8
0
100
AcDbCircle
10
-10.425856781186431
20
31.807106781186651
30
0
40
0.99999999999999967
210
0
220
0
230
1
100
AcDbArc
50
-134.9999999999998
51
45.000001207418336
0
LINE
5
480
100
AcDbEntity
8
0
100
AcDbLine
10
-11.132963562372975
20
31.100000000000101
30
0
11
-22.304536437626773
21
31.100000000000104
31
0
0
ARC
5
481
100
AcDbEntity
8
0
100
AcDbCircle
10
-23.011643218813322
20
31.807106781186647
30
0
40
1.0000000000000044
210
0
220
0
230
1
100
AcDbArc
50
134.99999999999986
51
315.00000000000028
0
LINE
5
482
100
AcDbEntity
8
0
100
AcDbLine
10
-23.718749999999872
20
32.5142135623732
30
0
11
-23.7187499850987
21
43.685786422725876
31
0
0
ARC
5
483
100
AcDbEntity
8
0
100
AcDbCircle
10
-23.011643218813308
20
44.392893218813583
30
0
40
1.0000000000000011
210
0
220
-0
230
1
100
AcDbArc
50
44.999999999999858
51
225.00000120741797
0
LINE
5
484
100
AcDbEntity
8
0
100
AcDbLine
10
-22.304536437626759
20
45.100000000000129
30
0
11
-11.132963577274124
21
45.099999985098947
31
0
0
ARC
5
485
100
AcDbEntity
8
0
100
AcDbCircle
10
-46.144656781186541
20
4.3526932188135579
30
0
40
1.0000000000000024
210
0
220
0
230
1
100
AcDbArc
50
-44.99999999999995
51
135.00000120741805
0
LINE
5
486
100
AcDbEntity
8
0
100
AcDbLine
10
-45.437549999999987
20
3.6455864376270055
30
0
11
-45.437550014901177
21
-7.5259864227256479
31
0
0
ARC
5
487
100
AcDbEntity
8
0
100
AcDbCircle
10
-46.144656781186562
20
-8.233093218813357
30
0
40
0.99999999999999245
210
0
220
0
230
1
100
AcDbArc
50
-134.99999999999972
51
45.000001207418336
0
LINE
5
488
100
AcDbEntity
8
0
100
AcDbLine
10
-46.851763562373101
20
-8.9401999999999031
30
0
11
-58.023336437626902
21
-8.9401999999999013
31
0
0
ARC
5
489
100
AcDbEntity
8
0
100
AcDbCircle
10
-58.730443218813448
20
-8.2330932188133552
30
0
40
0.99999999999999967
210
0
220
0
230
1
100
AcDbArc
50
134.99999999999986
51
315
0
LINE
5
490
100
AcDbEntity
8
0
100
AcDbLine
10
-59.437549999999995
20
-7.5259864376268055
30
0
11
-59.437549985098826
21
3.6455864227258719
31
0
0
ARC
5
491
100
AcDbEntity
8
0
100
AcDbCircle
10
-58.730443218813434
20
4.3526932188135792
30
0
40
0.999999999999998
210
0
220
-0
230
1
100
AcDbArc
50
44.999999999999709
51
225.00000120741797
0
LINE
5
492
100
AcDbEntity
8
0
100
AcDbLine
10
-58.023336437626881
20
5.0598000000001253
30
0
11
-46.851763577274248
21
5.0597999850989481
31
0
0
ARC
5
493
100
AcDbEntity
8
0
100
AcDbCircle
10
-53.80073552953489
20
23.686040591066018
30
0
40
1.0000000000000044
210
-0
220
0
230
1
100
AcDbArc
50
-54.99999999999973
51
125.00000085377339
0
LINE
5
494
100
AcDbEntity
8
0
100
AcDbLine
10
-53.227159093183836
20
22.866888546777023
30
0
11
-55.16708237673221
21
11.865036983148514
31
0
0
ARC
5
495
100
AcDbEntity
8
0
100
AcDbCircle
10
-55.986234408933981
20
11.291460529535129
30
0
40
0.99999999999999967
210
0
220
0
230
1
100
AcDbArc
50
-144.99999999999994
51
35.000001207418293
0
LINE
5
496
100
AcDbEntity
8
0
100
AcDbLine
10
-56.805386453222972
20
10.717884093184082
30
0
11
-67.807238034113794
21
12.657807364645208
31
0
0
ARC
5
497
100
AcDbEntity
8
0
100
AcDbCircle
10
-68.380814470464841
20
13.476959408934199
30
0
40
0.99999999999999734
210
0
220
0
230
1
100
AcDbArc
50
125.00000000000018
51
305.00000000000006
0
LINE
5
498
100
AcDbEntity
8
0
100
AcDbLine
10
-68.954390906815888
20
14.296111453223187
30
0
11
-67.014467623267535
21
25.297963016851725
31
0
0
ARC
5
499
100
AcDbEntity
8
0
100
AcDbCircle
10
-66.195315591065778
20
25.871539470465109
30
0
40
0.999999999999998
210
0
220
-0
230
1
100
AcDbArc
50
34.999999999998998
51
215.00000120741873
0
LINE
5
500
100
AcDbEntity
8
0
100
AcDbLine
10
-65.37616354677678
20
26.445115906816138
30
0
11
-54.374311978092251
21
24.505192626808061
31
0
0
ARC
5
501
100
AcDbEntity
8
0
100
AcDbCircle
10
-65.431810529534999
20
6.393040591066014
30
0
40
1.0000000000000027
210
-0
220
0
230
1
100
AcDbArc
50
-55.000000000000043
51
125.00000120741824
0
LINE
5
502
100
AcDbEntity
8
0
100
AcDbLine
10
-64.858234093183952
20
5.5738885467770203
30
0
11
-66.79815737673232
21
-5.4279630168514803
31
0
0
ARC
5
503
100
AcDbEntity
8
0
100
AcDbCircle
10
-67.617309408934091
20
-6.0015394704648646
30
0
40
0.99999999999999845
210
0
220
0
230
1
100
AcDbArc
50
-145.00000000000026
51
35.000001207418293
0
LINE
5
504
100
AcDbEntity
8
0
100
AcDbLine
10
-68.436461453223089
20
-6.5751159068159097
30
0
11
-79.438313034113918
21
-4.6351926353547785
31
0
0
ARC
5
505
100
AcDbEntity
8
0
100
AcDbCircle
10
-80.011889470464951
20
-3.8160405910657866
30
0
40
1.0000000000000033
210
0
220
0
230
1
100
AcDbArc
50
125.00000000000084
51
304.99999999999937
0
LINE
5
506
100
AcDbEntity
8
0
100
AcDbLine
10
-80.585465906816012
20
-2.9968885467767992
30
0
11
-78.645542623267644
21
8.0049630168517361
31
0
0
ARC
5
507
100
AcDbEntity
8
0
100
AcDbCircle
10
-77.826390591065874
20
8.5785394704651132
30
0
40
1.0000000000000018
210
0
220
-0
230
1
100
AcDbArc
50
34.999999999999424
51
215.00000120741794
0
LINE
5
508
100
AcDbEntity
8
0
100
AcDbLine
10
-77.007238546776875
20
9.1521159068161513
30
0
11
-66.005386983148384
21
7.2121926232677867
31
0
0
ARC
5
509
100
AcDbEntity
8
0
100
AcDbCircle
10
-84.192410529535024
20
9.7010405910660147
30
0
40
0.99999999999999933
210
-0
220
0
230
1
100
AcDbArc
50
-55.000000000000043
51
125.00000085377341
0
LINE
5
510
100
AcDbEntity
8
0
100
AcDbLine
10
-83.618834093183978
20
8.8818885467770201
30
0
11
-85.558757376732359
21
-2.1199630168514751
31
0
0
ARC
5
511
100
AcDbEntity
8
0
100
AcDbCircle
10
-86.37790940893413
20
-2.6935394704648585
30
0
40
0.99999999999999889
210
0
220
0
230
1
100
AcDbArc
50
-145.00000000000026
51
35.000001207418258
0
LINE
5
512
100
AcDbEntity
8
0
100
AcDbLine
10
-87.197061453223128
20
-3.2671159068159037
30
0
11
-98.198913034113957
21
-1.3271926353547463
31
0
0
ARC
5
513
100
AcDbEntity
8
0
100
AcDbCircle
10
-98.77248947046499
20
-0.50804059106575128
30
0
40
0.999999999999998
210
0
220
0
230
1
100
AcDbArc
50
124.99999999999999
51
304.99999999999926
0
LINE
5
514
100
AcDbEntity
8
0
100
AcDbLine
10
-99.346065906816037
20
0.31111145322324241
30
0
11
-97.406142623267655
21
11.312963016851763
31
0
0
ARC
5
515
100
AcDbEntity
8
0
100
AcDbCircle
10
-96.586990591065884
20
11.886539470465143
30
0
40
0.99999999999999323
210
0
220
-0
230
1
100
AcDbArc
50
34.999999999999247
51
215.00000120741811
0
LINE
5
516
100
AcDbEntity
8
0
100
AcDbLine
10
-95.767838546776886
20
12.460115906816178
30
0
11
-84.765986978092386
21
10.520192626808056
31
0
0
ARC
5
517
100
AcDbEntity
8
0
100
AcDbCircle
10
-112.43871052953492
20
53.369340591065999
30
0
40
1.0000000000000133
210
-0
220
0
230
1
100
AcDbArc
50
-54.999999999999481
51
125.00000147877947
0
LINE
5
518
100
AcDbEntity
8
0
100
AcDbLine
10
-111.86513409318385
20
52.550188546777001
30
0
11
-113.80505737673221
21
41.548336983148495
31
0
0
ARC
5
519
100
AcDbEntity
8
0
100
AcDbCircle
10
-114.62420940893398
20
40.974760529535111
30
0
40
0.99999999999999578
210
0
220
0
230
1
100
AcDbArc
50
-145.00000000000051
51
35.000001207418293
0
LINE
5
520
100
AcDbEntity
8
0
100
AcDbLine
10
-115.44336145322298
20
40.401184093184071
30
0
11
-126.44521303411381
21
42.341107364645211
31
0
0
ARC
5
521
100
AcDbEntity
8
0
100
AcDbCircle
10
-127.01878947046484
20
43.160259408934195
30
0
40
1.000000000000006
210
0
220
0
230
1
100
AcDbArc
50
125.00000000000051
51
304.99999999999966
0
LINE
5
522
100
AcDbEntity
8
0
100
AcDbLine
10
-127.5923659068159
20
43.979411453223193
30
0
11
-125.65244262326755
21
54.98126301685172
31
0
0
ARC
5
523
100
AcDbEntity
8
0
100
AcDbCircle
10
-124.83329059106575
20
55.554839470465083
30
0
40
1.0000000000000009
210
0
220
-0
230
1
100
AcDbArc
50
35.000000000000298
51
215.00000120741635
0
LINE
5
524
100
AcDbEntity
8
0
100
AcDbLine
10
-124.01413854677676
20
56.12841590681613
30
0
11
-113.01228698702793
21
54.188492620551244
31
0
0
ARC
5
525
100
AcDbEntity
8
0
100
AcDbCircle
10
-40.455256781186378
20
82.492893218813549
30
0
40
1.0000000000000107
210
0
220
0
230
1
100
AcDbArc
50
-45.000000000001165
51
135.00000085377283
0
LINE
5
526
100
AcDbEntity
8
0
100
AcDbLine
10
-39.748149999999839
20
81.785786437626982
30
0
11
-39.748150014901015
21
70.614213577274342
31
0
0
ARC
5
527
100
AcDbEntity
8
0
100
AcDbCircle
10
-40.455256781186407
20
69.907106781186641
30
0
40
0.999999999999998
210
0
220
0
230
1
100
AcDbArc
50
-134.99999999999943
51
45.000001207417689
0
LINE
5
528
100
AcDbEntity
8
0
100
AcDbLine
10
-41.162363562372946
20
69.200000000000088
30
0
11
-52.333936437626747
21
69.200000000000088
31
0
0
ARC
5
529
100
AcDbEntity
8
0
100
AcDbCircle
10
-53.041043218813293
20
69.907106781186627
30
0
40
0.999999999999998
210
0
220
0
230
1
100
AcDbArc
50
134.99999999999972
51
315.00000000000028
0
LINE
5
530
100
AcDbEntity
8
0
100
AcDbLine
10
-53.748149999999839
20
70.61421356237318
30
0
11
-53.748149985098678
21
81.785786422725863
31
0
0
ARC
5
531
100
AcDbEntity
8
0
100
AcDbCircle
10
-53.041043218813293
20
82.492893218813563
30
0
40
0.999999999999998
210
0
220
-0
230
1
100
AcDbArc
50
44.999999999999709
51
225.00000120741797
0
LINE
5
532
100
AcDbEntity
8
0
100
AcDbLine
10
-52.333936437626747
20
83.200000000000102
30
0
11
-41.162363572909641
21
83.199999989463407
31
0
0
ARC
5
533
100
AcDbEntity
8
0
100
AcDbCircle
10
-34.238356781186411
20
25.342893218813572
30
0
40
1.0000000000000011
210
0
220
0
230
1
100
AcDbArc
50
-44.999999999999851
51
135.00000120741768
0
LINE
5
534
100
AcDbEntity
8
0
100
AcDbLine
10
-33.531249999999858
20
24.635786437627022
30
0
11
-33.531250014901048
21
13.464213577274364
31
0
0
ARC
5
535
100
AcDbEntity
8
0
100
AcDbCircle
10
-34.238356781186425
20
12.757106781186655
30
0
40
0.99999999999999967
210
0
220
0
230
1
100
AcDbArc
50
-135.00000000000037
51
45.000001207418634
0
LINE
5
536
100
AcDbEntity
8
0
100
AcDbLine
10
-34.945463562372979
20
12.050000000000111
30
0
11
-46.117036437626773
21
12.050000000000111
31
0
0
ARC
5
537
100
AcDbEntity
8
0
100
AcDbCircle
10
-46.824143218813319
20
12.757106781186657
30
0
40
0.99999999999999967
210
0
220
0
230
1
100
AcDbArc
50
134.99999999999986
51
315
0
LINE
5
538
100
AcDbEntity
8
0
100
AcDbLine
10
-47.531249999999865
20
13.464213562373207
30
0
11
-47.531249985098697
21
24.635786422725889
31
0
0
ARC
5
539
100
AcDbEntity
8
0
100
AcDbCircle
10
-46.824143218813305
20
25.342893218813597
30
0
40
1.0000000000000011
210
0
220
-0
230
1
100
AcDbArc
50
44.999999999999858
51
225.00000120741797
0
LINE
5
540
100
AcDbEntity
8
0
100
AcDbLine
10
-46.117036437626751
20
26.050000000000146
30
0
11
-34.945463577274111
21
26.049999985098964
31
0
0
ARC
5
541
100
AcDbEntity
8
0
100
AcDbCircle
10
-10.425856781186418
20
25.342893218813568
30
0
40
1.0000000000000011
210
0
220
0
230
1
100
AcDbArc
50
-44.999999999999794
51
135.00000085377386
0
LINE
5
542
100
AcDbEntity
8
0
100
AcDbLine
10
-9.7187499999998668
20
24.635786437627022
30
0
11
-9.718750014901044
21
13.464213577274363
31
0
0
ARC
5
543
100
AcDbEntity
8
0
100
AcDbCircle
10
-10.425856781186429
20
12.757106781186653
30
0
40
1.0000000000000011
210
0
220
0
230
1
100
AcDbArc
50
-135
51
45.000001207418336
0
LINE
5
544
100
AcDbEntity
8
0
100
AcDbLine
10
-11.132963562372977
20
12.050000000000106
30
0
11
-22.304536437626773
21
12.050000000000107
31
0
0
ARC
5
545
100
AcDbEntity
8
0
100
AcDbCircle
10
-23.011643218813326
20
12.757106781186655
30
0
40
0.999999999999998
210
0
220
0
230
1
100
AcDbArc
50
135
51
315.00000000000017
0
LINE
5
546
100
AcDbEntity
8
0
100
AcDbLine
10
-23.718749999999872
20
13.464213562373201
30
0
11
-23.7187499850987
21
24.635786422725886
31
0
0
ARC
5
547
100
AcDbEntity
8
0
100
AcDbCircle
10
-23.011643218813312
20
25.342893218813593
30
0
40
0.999999999999998
210
0
220
-0
230
1
100
AcDbArc
50
45
51
225.00000120741811
0
LINE
5
548
100
AcDbEntity
8
0
100
AcDbLine
10
-22.304536437626766
20
26.050000000000139
30
0
11
-11.132963572909681
21
26.049999989463402
31
0
0
ARC
5
549
100
AcDbEntity
8
0
100
AcDbCircle
10
-36.619556781186425
20
44.392893218813576
30
0
40
0.999999999999998
210
0
220
0
230
1
100
AcDbArc
50
-45.000000000000561
51
135.00000085377283
0
LINE
5
550
100
AcDbEntity
8
0
100
AcDbLine
10
-35.912449999999886
20
43.685786437627023
30
0
11
-35.912450014901069
21
32.514213577274369
31
0
0
ARC
5
551
100
AcDbEntity
8
0
100
AcDbCircle
10
-36.619556781186454
20
31.807106781186668
30
0
40
1.0000000000000011
210
0
220
0
230
1
100
AcDbArc
50
-134.99999999999943
51
45.000001207417974
0
LINE
5
552
100
AcDbEntity
8
0
100
AcDbLine
10
-37.326663562372993
20
31.100000000000115
30
0
11
-48.498236437626794
21
31.100000000000119
31
0
0
ARC
5
553
100
AcDbEntity
8
0
100
AcDbCircle
10
-49.20534321881334
20
31.807106781186665
30
0
40
0.999999999999998
210
0
220
0
230
1
100
AcDbArc
50
134.99999999999986
51
315
0
LINE
5
554
100
AcDbEntity
8
0
100
AcDbLine
10
-49.912449999999886
20
32.514213562373214
30
0
11
-49.912449985098718
21
43.68578642272589
31
0
0
ARC
5
555
100
AcDbEntity
8
0
100
AcDbCircle
10
-49.205343218813326
20
44.392893218813597
30
0
40
1.0000000000000107
210
0
220
-0
230
1
100
AcDbArc
50
44.999999999999709
51
225.00000120741797
0
LINE
5
556
100
AcDbEntity
8
0
100
AcDbLine
10
-48.498236437626765
20
45.100000000000151
30
0
11
-37.326663572909673
21
45.09999998946342
31
0
0
ARC
5
557
100
AcDbEntity
8
0
100
AcDbCircle
10
-27.094656781186544
20
6.2928932188135756
30
0
40
1.0000000000000004
210
0
220
0
230
1
100
AcDbArc
50
-45.000000000000156
51
135.00000120741817
0
LINE
5
558
100
AcDbEntity
8
0
100
AcDbLine
10
-26.387549999999997
20
5.5857864376270259
30
0
11
-26.38755001490118
21
-5.5857864227256302
31
0
0
ARC
5
559
100
AcDbEntity
8
0
100
AcDbCircle
10
-27.094656781186565
20
-6.2928932188133384
30
0
40
0.99999999999999734
210
0
220
0
230
1
100
AcDbArc
50
-135.00000000000009
51
45.000001207418308
0
LINE
5
560
100
AcDbEntity
8
0
100
AcDbLine
10
-27.801763562373111
20
-6.9999999999998828
30
0
11
-38.973336437626912
21
-6.9999999999998828
31
0
0
ARC
5
561
100
AcDbEntity
8
0
100
AcDbCircle
10
-39.680443218813451
20
-6.2928932188133357
30
0
40
0.99999999999999967
210
0
220
0
230
1
100
AcDbArc
50
135.0000000000002
51
314.99999999999972
0
LINE
5
562
100
AcDbEntity
8
0
100
AcDbLine
10
-40.387550000000005
20
-5.5857864376267869
30
0
11
-40.387549985098836
21
5.5857864227258922
31
0
0
ARC
5
563
100
AcDbEntity
8
0
100
AcDbCircle
10
-39.680443218813437
20
6.2928932188135995
30
0
40
0.99999999999999734
210
0
220
-0
230
1
100
AcDbArc
50
44.999999999999964
51
225.00000120741768
0
LINE
5
564
100
AcDbEntity
8
0
100
AcDbLine
10
-38.973336437626891
20
7.0000000000001448
30
0
11
-27.801763577274251
21
6.9999999850989632
31
0
0
ARC
5
565
100
AcDbEntity
8
0
100
AcDbCircle
10
-72.561310529534865
20
26.994040591066025
30
0
40
1.0000000000000044
210
-0
220
0
230
1
100
AcDbArc
50
-55.000000000000043
51
125.00000120741872
0
LINE
5
566
100
AcDbEntity
8
0
100
AcDbLine
10
-71.987734093183818
20
26.17488854677703
30
0
11
-73.927657376732185
21
15.173036983148524
31
0
0
ARC
5
567
100
AcDbEntity
8
0
100
AcDbCircle
10
-74.746809408933956
20
14.599460529535142
30
0
40
0.99999999999999967
210
0
220
0
230
1
100
AcDbArc
50
-145.00000000000026
51
35.000001207418208
0
LINE
5
568
100
AcDbEntity
8
0
100
AcDbLine
10
-75.565961453222954
20
14.025884093184096
30
0
11
-86.567813034113783
21
15.965807364645226
31
0
0
ARC
5
569
100
AcDbEntity
8
0
100
AcDbCircle
10
-87.141389470464816
20
16.784959408934213
30
0
40
0.99999999999999578
210
0
220
0
230
1
100
AcDbArc
50
125.00000000000007
51
304.99999999999949
0
LINE
5
570
100
AcDbEntity
8
0
100
AcDbLine
10
-87.714965906815863
20
17.604111453223204
30
0
11
-85.775042623267524
21
28.605963016851742
31
0
0
ARC
5
571
100
AcDbEntity
8
0
100
AcDbCircle
10
-84.955890591065753
20
29.17953947046513
30
0
40
0.99999999999999079
210
0
220
-0
230
1
100
AcDbArc
50
34.999999999999169
51
215.00000120741848
0
LINE
5
572
100
AcDbEntity
8
0
100
AcDbLine
10
-84.136738546776755
20
29.753115906816163
30
0
11
-73.134886983148263
21
27.813192623267803
31
0
0
ARC
5
573
100
AcDbEntity
8
0
100
AcDbCircle
10
-63.325410529534821
20
64.053240591066029
30
0
40
0.99999999999999578
210
-0
220
0
230
1
100
AcDbArc
50
-55.000000000000853
51
125.00000085377407
0
LINE
5
574
100
AcDbEntity
8
0
100
AcDbLine
10
-62.751834093183788
20
63.234088546777031
30
0
11
-64.691757376732141
21
52.232236983148539
31
0
0
ARC
5
575
100
AcDbEntity
8
0
100
AcDbCircle
10
-65.510909408933912
20
51.658660529535155
30
0
40
1.0000000000000009
210
0
220
0
230
1
100
AcDbArc
50
-145.0000000000002
51
35.000001207418293
0
LINE
5
576
100
AcDbEntity
8
0
100
AcDbLine
10
-66.33006145322291
20
51.085084093184108
30
0
11
-77.33191303411374
21
53.025007364645241
31
0
0
ARC
5
577
100
AcDbEntity
8
0
100
AcDbCircle
10
-77.905489470464786
20
53.844159408934246
30
0
40
1.000000000000006
210
0
220
0
230
1
100
AcDbArc
50
125.00000000000098
51
304.9999999999996
0
LINE
5
578
100
AcDbEntity
8
0
100
AcDbLine
10
-78.479065906815848
20
54.66331145322323
30
0
11
-76.53914262326748
21
65.66516301685175
31
0
0
ARC
5
579
100
AcDbEntity
8
0
100
AcDbCircle
10
-75.719990591065695
20
66.238739470465134
30
0
40
0.999999999999998
210
0
220
-0
230
1
100
AcDbArc
50
34.999999999999169
51
215.0000012074178
0
LINE
5
580
100
AcDbEntity
8
0
100
AcDbLine
10
-74.900838546776697
20
66.812315906816167
30
0
11
-63.898986978092182
21
64.87239262680805
31
0
0
ARC
5
581
100
AcDbEntity
8
0
100
AcDbCircle
10
-82.086010529534832
20
67.361240591066036
30
0
40
0.9999999999999899
210
-0
220
0
230
1
100
AcDbArc
50
-55.000000000002174
51
125.00000120741537
0
LINE
5
582
100
AcDbEntity
8
0
100
AcDbLine
10
-81.512434093183828
20
66.542088546777038
30
0
11
-83.452357376732195
21
55.540236983148539
31
0
0
ARC
5
583
100
AcDbEntity
8
0
100
AcDbCircle
10
-84.271509408933966
20
54.966660529535154
30
0
40
1.0000000000000009
210
0
220
0
230
1
100
AcDbArc
50
-144.99999999999972
51
35.000001207418293
0
LINE
5
584
100
AcDbEntity
8
0
100
AcDbLine
10
-85.09066145322295
20
54.393084093184108
30
0
11
-96.092513034113765
21
56.333007364645255
31
0
0
ARC
5
585
100
AcDbEntity
8
0
100
AcDbCircle
10
-96.666089470464826
20
57.152159408934253
30
0
40
1.000000000000006
210
0
220
0
230
1
100
AcDbArc
50
125.00000000000007
51
305.00000000000051
0
LINE
5
586
100
AcDbEntity
8
0
100
AcDbLine
10
-97.239665906815873
20
57.971311453223244
30
0
11
-95.299742623267477
21
68.973163016851771
31
0
0
ARC
5
587
100
AcDbEntity
8
0
100
AcDbCircle
10
-94.480590591065706
20
69.546739470465141
30
0
40
0.99999999999999578
210
0
220
-0
230
1
100
AcDbArc
50
35.000000000000298
51
215.00000120741763
0
LINE
5
588
100
AcDbEntity
8
0
100
AcDbLine
10
-93.661438546776722
20
70.120315906816188
30
0
11
-82.659586983148174
21
68.180392623267835
31
0
0
ARC
5
589
100
AcDbEntity
8
0
100
AcDbCircle
10
-102.95301052953498
20
13.009040591066006
30
0
40
0.99999999999999767
210
-0
220
0
230
1
100
AcDbArc
50
-54.999999999999986
51
125.00000120741757
0
LINE
5
590
100
AcDbEntity
8
0
100
AcDbLine
10
-102.37943409318393
20
12.189888546777013
30
0
11
-104.31935737673231
21
1.1880369831485194
31
0
0
ARC
5
591
100
AcDbEntity
8
0
100
AcDbCircle
10
-105.13850940893408
20
0.6144605295351363
30
0
40
0.99999999999999822
210
0
220
0
230
1
100
AcDbArc
50
-145.00000000000031
51
35.000001207418244
0
LINE
5
592
100
AcDbEntity
8
0
100
AcDbLine
10
-105.95766145322308
20
0.040884093184092377
30
0
11
-116.95951303411391
21
1.9808073646452491
31
0
0
ARC
5
593
100
AcDbEntity
8
0
100
AcDbCircle
10
-117.53308947046494
20
2.7999594089342432
30
0
40
0.999999999999998
210
0
220
0
230
1
100
AcDbArc
50
124.99999999999999
51
304.99999999999932
0
LINE
5
594
100
AcDbEntity
8
0
100
AcDbLine
10
-118.10666590681599
20
3.6191114532232369
30
0
11
-116.16674262326761
21
14.620963016851757
31
0
0
ARC
5
595
100
AcDbEntity
8
0
100
AcDbCircle
10
-115.34759059106584
20
15.194539470465138
30
0
40
0.99999999999999323
210
0
220
-0
230
1
100
AcDbArc
50
34.999999999999339
51
215.00000120741811
0
LINE
5
596
100
AcDbEntity
8
0
100
AcDbLine
10
-114.52843854677684
20
15.768115906816174
30
0
11
-103.52658698314835
21
13.828192623267778
31
0
0
ARC
5
597
100
AcDbEntity
8
0
100
AcDbCircle
10
-119.60721052953488
20
73.97724059106605
30
0
40
1.0000000000000031
210
-0
220
0
230
1
100
AcDbArc
50
-55.000000000000853
51
125.00000147877903
0
LINE
5
598
100
AcDbEntity
8
0
100
AcDbLine
10
-119.03363409318385
20
73.158088546777051
30
0
11
-120.97355737673223
21
62.156236983148546
31
0
0
ARC
5
599
100
AcDbEntity
8
0
100
AcDbCircle
10
-121.792709408934
20
61.582660529535154
30
0
40
0.99999999999999079
210
0
220
0
230
1
100
AcDbArc
50
-145.00000000000071
51
35.000001207418627
0
LINE
5
600
100
AcDbEntity
8
0
100
AcDbLine
10
-122.61186145322299
20
61.009084093184129
30
0
11
-133.6137130341138
21
62.949007364645276
31
0
0
ARC
5
601
100
AcDbEntity
8
0
100
AcDbCircle
10
-134.18728947046486
20
63.768159408934267
30
0
40
0.99999999999999578
210
0
220
0
230
1
100
AcDbArc
50
124.99999999999918
51
305.00000000000074
0
LINE
5
602
100
AcDbEntity
8
0
100
AcDbLine
10
-134.76086590681589
20
64.587311453223265
30
0
11
-132.82094262326751
21
75.589163016851785
31
0
0
ARC
5
603
100
AcDbEntity
8
0
100
AcDbCircle
10
-132.00179059106574
20
76.162739470465183
30
0
40
0.99999999999998557
210
0
220
-0
230
1
100
AcDbArc
50
34.999999999998956
51
215.00000120741896
0
LINE
5
604
100
AcDbEntity
8
0
100
AcDbLine
10
-131.18263854677676
20
76.736315906816202
30
0
11
-120.18078698702789
21
74.796392620551288
31
0
0
ARC
5
605
100
AcDbEntity
8
0
100
AcDbCircle
10
-91.32191052953489
20
30.302040591066017
30
0
40
0.99999999999999212
210
-0
220
0
230
1
100
AcDbArc
50
-55.000000000000504
51
125.0000008537744
0
LINE
5
606
100
AcDbEntity
8
0
100
AcDbLine
10
-90.748334093183857
20
29.48288854677703
30
0
11
-92.688257376732238
21
18.481036983148524
31
0
0
ARC
5
607
100
AcDbEntity
8
0
100
AcDbCircle
10
-93.507409408934009
20
17.907460529535136
30
0
40
0.99999999999999079
210
0
220
0
230
1
100
AcDbArc
50
-145.00000000000057
51
35.000001207418457
0
LINE
5
608
100
AcDbEntity
8
0
100
AcDbLine
10
-94.326561453222993
20
17.333884093184107
30
0
11
-105.32841303411382
21
19.273807364645236
31
0
0
ARC
5
609
100
AcDbEntity
8
0
100
AcDbCircle
10
-105.9019894704649
20
20.092959408934231
30
0
40
0.99999999999998557
210
0
220
0
230
1
100
AcDbArc
50
124.99999999999875
51
305.00000000000131
0
LINE
5
610
100
AcDbEntity
8
0
100
AcDbLine
10
-106.47556590681592
20
20.912111453223222
30
0
11
-104.53564262326756
21
31.913963016851753
31
0
0
ARC
5
611
100
AcDbEntity
8
0
100
AcDbCircle
10
-103.71649059106576
20
32.487539470465137
30
0
40
0.99999999999999578
210
0
220
-0
230
1
100
AcDbArc
50
34.99999999999995
51
215.00000120741737
0
LINE
5
612
100
AcDbEntity
8
0
100
AcDbLine
10
-102.89733854677678
20
33.061115906816177
30
0
11
-91.895486978092265
21
31.12119262680805
31
0
0
ARC
5
613
100
AcDbEntity
8
0
100
AcDbCircle
10
-62.362460529534836
20
83.227340591065968
30
0
40
1.0000000000000009
210
-0
220
0
230
1
100
AcDbArc
50
-54.999999999999687
51
125.00000120741863
0
LINE
5
614
100
AcDbEntity
8
0
100
AcDbLine
10
-61.788884093183789
20
82.408188546776984
30
0
11
-63.728807376732149
21
71.406336983148492
31
0
0
ARC
5
615
100
AcDbEntity
8
0
100
AcDbCircle
10
-64.54795940893392
20
70.832760529535108
30
0
40
1.0000000000000009
210
0
220
0
230
1
100
AcDbArc
50
-145.0000000000002
51
35.000001207418293
0
LINE
5
616
100
AcDbEntity
8
0
100
AcDbLine
10
-65.367111453222918
20
70.259184093184061
30
0
11
-76.368963034113747
21
72.199107364645187
31
0
0
ARC
5
617
100
AcDbEntity
8
0
100
AcDbCircle
10
-76.94253947046478
20
73.018259408934185
30
0
40
0.99999999999999867
210
0
220
0
230
1
100
AcDbArc
50
125.00000000000098
51
304.99999999999915
0
LINE
5
618
100
AcDbEntity
8
0
100
AcDbLine
10
-77.516115906815841
20
73.837411453223169
30
0
11
-75.576192623267474
21
84.839263016851703
31
0
0
ARC
5
619
100
AcDbEntity
8
0
100
AcDbCircle
10
-74.757040591065703
20
85.412839470465087
30
0
40
1.0000000000000031
210
0
220
-0
230
1
100
AcDbArc
50
34.999999999999169
51
215.00000120741831
0
LINE
5
620
100
AcDbEntity
8
0
100
AcDbLine
10
-73.937888546776705
20
85.98641590681612
30
0
11
-62.936036983148227
21
84.046492623267739
31
0
0
ARC
5
621
100
AcDbEntity
8
0
100
AcDbCircle
10
-121.71361052953489
20
16.317040591066
30
0
40
0.99999999999999933
210
-0
220
0
230
1
100
AcDbArc
50
-55.000000000000753
51
125.00000085377417
0
LINE
5
622
100
AcDbEntity
8
0
100
AcDbLine
10
-121.14003409318386
20
15.497888546777004
30
0
11
-123.07995737673222
21
4.4960369831485014
31
0
0
ARC
5
623
100
AcDbEntity
8
0
100
AcDbCircle
10
-123.899109408934
20
3.9224605295351198
30
0
40
0.99999999999999967
210
0
220
0
230
1
100
AcDbArc
50
-144.99999999999977
51
35.000001207418158
0
LINE
5
624
100
AcDbEntity
8
0
100
AcDbLine
10
-124.71826145322298
20
3.3488840931840738
30
0
11
-135.72011303411381
21
5.2888073646452094
31
0
0
ARC
5
625
100
AcDbEntity
8
0
100
AcDbCircle
10
-136.29368947046487
20
6.1079594089342004
30
0
40
0.99999999999999856
210
0
220
0
230
1
100
AcDbArc
50
124.9999999999993
51
305.00000000000074
0
LINE
5
626
100
AcDbEntity
8
0
100
AcDbLine
10
-136.8672659068159
20
6.927111453223195
30
0
11
-134.92734262326755
21
17.928963016851721
31
0
0
ARC
5
627
100
AcDbEntity
8
0
100
AcDbCircle
10
-134.10819059106575
20
18.502539470465102
30
0
40
0.99999999999998634
210
0
220
-0
230
1
100
AcDbArc
50
35.000000000001236
51
215.00000120741717
0
LINE
5
628
100
AcDbEntity
8
0
100
AcDbLine
10
-133.28903854677679
20
19.076115906816149
30
0
11
-122.28718697809227
21
17.13619262680804
31
0
0
ARC
5
629
100
AcDbEntity
8
0
100
AcDbCircle
10
-110.08251052953486
20
33.610040591065996
30
0
40
0.99999999999999933
210
-0
220
0
230
1
100
AcDbArc
50
-55.000000000000853
51
125.00000120741832
0
LINE
5
630
100
AcDbEntity
8
0
100
AcDbLine
10
-109.50893409318383
20
32.790888546776998
30
0
11
-111.44885737673219
21
21.789036983148499
31
0
0
ARC
5
631
100
AcDbEntity
8
0
100
AcDbCircle
10
-112.26800940893396
20
21.215460529535118
30
0
40
1.0000000000000009
210
0
220
0
230
1
100
AcDbArc
50
-144.99999999999952
51
35.00000120741813
0
LINE
5
632
100
AcDbEntity
8
0
100
AcDbLine
10
-113.08716145322295
20
20.641884093184068
30
0
11
-124.08901303411378
21
22.581807364645201
31
0
0
ARC
5
633
100
AcDbEntity
8
0
100
AcDbCircle
10
-124.66258947046482
20
23.400959408934192
30
0
40
1.000000000000006
210
0
220
0
230
1
100
AcDbArc
50
125.00000000000007
51
305.00000000000006
0
LINE
5
634
100
AcDbEntity
8
0
100
AcDbLine
10
-125.23616590681587
20
24.220111453223183
30
0
11
-123.29624262326752
21
35.22196301685171
31
0
0
ARC
5
635
100
AcDbEntity
8
0
100
AcDbCircle
10
-122.47709059106575
20
35.795539470465094
30
0
40
0.99999999999999079
210
0
220
-0
230
1
100
AcDbArc
50
34.999999999999169
51
215.00000120741831
0
LINE
5
636
100
AcDbEntity
8
0
100
AcDbLine
10
-121.65793854677675
20
36.369115906816127
30
0
11
-110.65608698314824
21
34.429192623267767
31
0
0
ARC
5
637
100
AcDbEntity
8
0
100
AcDbCircle
10
-93.678110529534877
20
50.061340591066056
30
0
40
1.0000000000000031
210
-0
220
0
230
1
100
AcDbArc
50
-55.000000000001059
51
125.00000120741807
0
LINE
5
638
100
AcDbEntity
8
0
100
AcDbLine
10
-93.104534093183844
20
49.242188546777051
30
0
11
-95.044457376732211
21
38.240336983148559
31
0
0
ARC
5
639
100
AcDbEntity
8
0
100
AcDbCircle
10
-95.863609408933982
20
37.666760529535175
30
0
40
0.99999999999999845
210
0
220
0
230
1
100
AcDbArc
50
-144.99999999999972
51
35.000001207418293
0
LINE
5
640
100
AcDbEntity
8
0
100
AcDbLine
10
-96.682761453222966
20
37.093184093184128
30
0
11
-107.6846130341138
21
39.033107364645268
31
0
0
ARC
5
641
100
AcDbEntity
8
0
100
AcDbCircle
10
-108.25818947046487
20
39.852259408934259
30
0
40
0.99999999999999212
210
0
220
0
230
1
100
AcDbArc
50
125.00000000000031
51
305.00000000000136
0
LINE
5
642
100
AcDbEntity
8
0
100
AcDbLine
10
-108.83176590681592
20
40.671411453223243
30
0
11
-106.89184262326754
21
51.673263016851777
31
0
0
ARC
5
643
100
AcDbEntity
8
0
100
AcDbCircle
10
-106.07269059106574
20
52.246839470465147
30
0
40
1.0000000000000102
210
0
220
-0
230
1
100
AcDbArc
50
34.999999999999488
51
215.00000120741666
0
LINE
5
644
100
AcDbEntity
8
0
100
AcDbLine
10
-105.25353854677674
20
52.820415906816187
30
0
11
-94.251686983148261
21
50.880492623267834
31
0
0
ARC
5
645
100
AcDbEntity
8
0
100
AcDbCircle
10
-100.84661052953486
20
70.669240591066028
30
0
40
0.99999999999998268
210
-0
220
0
230
1
100
AcDbArc
50
-55.000000000002174
51
124.99999999999785
0
LINE
5
646
100
AcDbEntity
8
0
100
AcDbLine
10
-100.27303409318385
20
69.85008854677703
30
0
11
-102.21295737673222
21
58.848236983148531
31
0
0
ARC
5
647
100
AcDbEntity
8
0
100
AcDbCircle
10
-103.03210940893399
20
58.27466052953514
30
0
40
0.99999999999999578
210
0
220
0
230
1
100
AcDbArc
50
-145.00000000000003
51
35.000001207418627
0
LINE
5
648
100
AcDbEntity
8
0
100
AcDbLine
10
-103.85126145322297
20
57.7010840931841
30
0
11
-114.85311303411379
21
59.641007364645247
31
0
0
ARC
5
649
100
AcDbEntity
8
0
100
AcDbCircle
10
-115.42668947046482
20
60.460159408934246
30
0
40
1.0000000000000133
210
0
220
0
230
1
100
AcDbArc
50
125.00000000000051
51
304.99999999999915
0
LINE
5
650
100
AcDbEntity
8
0
100
AcDbLine
10
-116.00026590681588
20
61.279311453223244
30
0
11
-114.0603426232675
21
72.28116301685175
31
0
0
ARC
5
651
100
AcDbEntity
8
0
100
AcDbCircle
10
-113.24119059106573
20
72.854739470465148
30
0
40
0.99999999999999079
210
0
220
-0
230
1
100
AcDbArc
50
34.999999999999623
51
215.00000120741896
0
LINE
5
652
100
AcDbEntity
8
0
100
AcDbLine
10
-112.42203854677675
20
73.428315906816181
30
0
11
-101.42018696588586
21
71.488392635355027
31
0
0
LWPOLYLINE
5
653
100
AcDbEntity
8
0
100
AcDbPolyline
90
46
70
1
43
0.0
10
-129.76270680374029
20
-4.47828102347711
42
-0.41421269698797658
10
-132.76269793988033
20
-1.4782810234617583
10
-132.76269793985921
20
-0.39609321888870352
42
0.41421356237516482
10
-134.76269793991275
20
1.6039067811886374
10
-145.76269793984625
20
1.6039067812180507
42
0.41421356237123708
10
-147.76269793984562
20
-0.39609321875900577
10
-147.76269793987507
20
-1.4782189764966414
42
-0.41421442775895667
10
-150.76270680373503
20
-4.4782189764572973
10
-156.8674345647475
20
-4.4782009393066122
42
0.044067985519802087
10
-158.00654883344291
20
-4.5787898385649139
10
-213.96777051390117
20
-14.53988631598814
42
-0.044067245430370994
10
-214.93162018315658
20
-14.624999999999941
10
-298.63664968855471
20
-14.624999999999908
42
-0.19891236737965684
10
-302.5257369850807
20
-13.01408729652594
10
-307.7512582603174
20
-7.7885660212893075
42
-0.46441825408728193
10
-307.4301266309439
20
-3.981866445470128
10
-306.3035086836959
20
-3.1825240344383032
42
0.26794919243110221
10
-304.84407898301731
20
-0.001319082100882385
10
-304.98744381073601
20
1.527873637864803
42
0.26794919243112875
10
-307.01273326376582
20
4.3823793098588482
10
-309.63654688602224
20
5.5860966392162563
42
-0.26794919243111931
10
-311.08318220961502
20
7.6250292620691162
10
-317.64979383574166
20
77.66741590113989
42
-0.22332462361135949
10
-316.06289389072577
20
82.069887781062874
10
-309.20809437526265
20
88.924687296526045
42
-0.19891236737965684
10
-305.31900707873666
20
90.535600000000017
10
-224.67035132308916
20
90.535599999999974
42
0.044067220026377883
10
-223.53125690844595
20
90.636188783760744
10
-157.45764167884536
20
102.39728422209288
42
-0.044067960115800282
10
-156.49377630835266
20
102.48239780832797
10
-124.13200752709264
20
102.48230219159893
42
-0.044065989410546638
10
-123.16818526141036
20
102.39719049286214
10
-57.094334111997568
20
90.636186553080904
42
0.04406672949989373
10
-55.955252229343095
20
90.53559999999996
10
24.797954296845436
20
90.53559999999996
42
-0.19891236737965834
10
28.687041593371461
20
88.924687296525974
10
35.540997110910439
20
82.070731778986982
42
-0.22341014507798029
10
37.127729489526835
20
77.666475689420025
10
29.469551296170646
20
-3.7336467430589519
42
-0.17464212066328066
10
27.882818917554246
20
-7.1075652465440076
10
21.976296867572231
20
-13.014087296526007
42
-0.19891236737965823
10
18.087209571046206
20
-14.624999999999995
10
-65.593688295197609
20
-14.624999999999977
42
-0.044066743698843704
10
-66.557527118236621
20
-14.539888246603294
10
-122.51887090492122
20
-4.5788856783832816
42
0.044066003609490326
10
-123.65793394530104
20
-4.478299060761028
0
ARC
5
654
100
AcDbEntity
8
0
100
AcDbCircle
10
-129.19614838774936
20
89.769718188573194
30
0
40
1.1999999999263213
210
0
220
-0
230
1
100
AcDbArc
50
34.999731750552861
51
214.99973175055416
0
LINE
5
655
100
AcDbEntity
8
0
100
AcDbLine
10
-128.21316271220468
20
90.458005309981942
30
0
11
-127.35280381077098
21
89.229273215495809
31
0
0
ARC
5
656
100
AcDbEntity
8
0
100
AcDbCircle
10
-128.33578948604759
20
88.540986094129281
30
0
40
1.1999999996825121
210
0
220
0
230
1
100
AcDbArc
50
-145.00026824375641
51
34.999731756243023
0
LINE
5
657
100
AcDbEntity
8
0
100
AcDbLine
10
-129.3187751613242
20
87.852698972762738
30
0
11
-130.17913406329401
21
89.081431067164431
31
0
0
LWPOLYLINE
5
658
100
AcDbEntity
8
0
100
AcDbPolyline
90
4
70
1
43
0.0
10
-151.30687464898185
20
87.852722001020126
42
-0.99999999999999989
10
-153.27284311623691
20
89.229300361770086
10
-152.41248164057208
20
90.458030654065908
42
-0.99999999999999989
10
-150.44651317339873
20
89.081452293362062
0
ARC
5
659
100
AcDbEntity
8
0
100
AcDbCircle
10
-137.21109284334048
20
96.314979353068594
30
0
40
0.49999999999999967
210
0
220
0
230
1
100
AcDbArc
50
-120.52248781406965
51
59.477512185930351
0
ARC
5
660
100
AcDbEntity
8
0
100
AcDbCircle
10
-140.25835185284939
20
91.146400000000014
30
0
40
5.5000000000000062
210
0
220
-0
230
1
100
AcDbArc
50
59.477512185930117
51
120.52248781406982
0
ARC
5
661
100
AcDbEntity
8
0
100
AcDbCircle
10
-143.30561086235829
20
96.314979353068594
30
0
40
0.49999999999999967
210
0
220
0
230
1
100
AcDbArc
50
120.52248781407246
51
300.52248781407047
0
ARC
5
662
100
AcDbEntity
8
0
100
AcDbCircle
10
-140.25835185284939
20
91.146400000000014
30
0
40
6.5000000000000053
210
0
220
-0
230
1
100
AcDbArc
50
59.477512185930152
51
120.52248781407008
0
ARC
5
663
100
AcDbEntity
8
0
100
AcDbCircle
10
-145.42693120591798
20
88.099140990491094
30
0
40
0.49999999999999967
210
0
220
0
230
1
100
AcDbArc
50
-149.47751218592896
51
30.522487814071042
0
ARC
5
664
100
AcDbEntity
8
0
100
AcDbCircle
10
-140.25835185284939
20
91.146400000000014
30
0
40
6.500000000000008
210
0
220
0
230
1
100
AcDbArc
50
149.47751218592956
51
210.52248781406999
0
ARC
5
665
100
AcDbEntity
8
0
100
AcDbCircle
10
-145.42693120591795
20
94.193659009508963
30
0
40
0.49999999999999967
210
-0
220
0
230
1
100
AcDbArc
50
-30.522487814069663
51
149.47751218592757
0
ARC
5
666
100
AcDbEntity
8
0
100
AcDbCircle
10
-140.25835185284939
20
91.146400000000014
30
0
40
5.5000000000000089
210
0
220
0
230
1
100
AcDbArc
50
149.47751218592967
51
210.52248781406979
0
ARC
5
667
100
AcDbEntity
8
0
100
AcDbCircle
10
-140.25835185284939
20
91.146400000000014
30
0
40
5.4999999999999973
210
-0
220
0
230
1
100
AcDbArc
50
-30.522487814069812
51
30.522487814070494
0
ARC
5
668
100
AcDbEntity
8
0
100
AcDbCircle
10
-135.08977249978085
20
94.193659009508949
30
0
40
0.49999999999999967
210
0
220
-0
230
1
100
AcDbArc
50
30.522487814071042
51
210.52248781406826
0
ARC
5
669
100
AcDbEntity
8
0
100
AcDbCircle
10
-140.25835185284939
20
91.146400000000014
30
0
40
6.5000000000000115
210
-0
220
0
230
1
100
AcDbArc
50
-30.522487814069862
51
30.522487814070367
0
ARC
5
670
100
AcDbEntity
8
0
100
AcDbCircle
10
-135.08977249978079
20
88.099140990491108
30
0
40
0.50000000000001499
210
0
220
0
230
1
100
AcDbArc
50
149.47751218593064
51
329.47751218592896
0
ARC
5
671
100
AcDbEntity
8
0
100
AcDbCircle
10
-140.25835185284939
20
91.146400000000014
30
0
40
5.5
210
0
220
0
230
1
100
AcDbArc
50
239.47751218592973
51
300.52248781407025
0
ARC
5
672
100
AcDbEntity
8
0
100
AcDbCircle
10
-137.21109284334045
20
85.977820646931463
30
0
40
0.49999999999999967
210
-0
220
0
230
1
100
AcDbArc
50
-59.477512185931211
51
120.52248781406965
0
ARC
5
673
100
AcDbEntity
8
0
100
AcDbCircle
10
-140.25835185284939
20
91.146400000000014
30
0
40
6.500000000000008
210
0
220
0
230
1
100
AcDbArc
50
239.47751218592944
51
300.52248781407013
0
ARC
5
674
100
AcDbEntity
8
0
100
AcDbCircle
10
-143.30561086235835
20
85.977820646931463
30
0
40
0.49999999999999967
210
0
220
-0
230
1
100
AcDbArc
50
59.477512185927552
51
239.47751218592833
0
LINE
5
675
100
AcDbEntity
8
0
100
AcDbLine
10
-142.37967219648448
20
89.732186437719704
30
0
11
-143.44033236818018
21
90.792846609415463
31
0
0
ARC
5
676
100
AcDbEntity
8
0
100
AcDbCircle
10
-143.08677897759557
20
91.146400000000071
30
0
40
0.49999999989863042
210
0
220
0
230
1
100
AcDbArc
50
180
51
225
0
LINE
5
677
100
AcDbEntity
8
0
100
AcDbLine
10
-143.58677897749419
20
91.146400000000071
30
0
11
-143.58677897749419
21
93.974827124746099
31
0
0
ARC
5
678
100
AcDbEntity
8
0
100
AcDbCircle
10
-143.0867789775956
20
93.974827124746071
30
0
40
0.49999999989859489
210
0
220
-0
230
1
100
AcDbArc
50
0
51
180
0
LINE
5
679
100
AcDbEntity
8
0
100
AcDbLine
10
-142.58677897769701
20
93.974827124746099
30
0
11
-142.58677897769701
21
91.353506781270667
31
0
0
LINE
5
680
100
AcDbEntity
8
0
100
AcDbLine
10
-142.58677897769701
20
91.353506781270667
30
0
11
-141.67256541531526
21
90.439293218888935
31
0
0
LINE
5
681
100
AcDbEntity
8
0
100
AcDbLine
10
-141.67256541531526
20
90.439293218888935
30
0
11
-140.61190524345716
21
91.499953390607772
31
0
0
ARC
5
682
100
AcDbEntity
8
0
100
AcDbCircle
10
-140.25835185284939
20
91.146400000000014
30
0
40
0.50000000011891155
210
0
220
-0
230
1
100
AcDbArc
50
45.000000000001151
51
135.00000000000117
0
LINE
5
683
100
AcDbEntity
8
0
100
AcDbLine
10
-139.90479846217204
20
91.499953390677376
30
0
11
-138.84413829084352
21
90.439293219209574
31
0
0
LINE
5
684
100
AcDbEntity
8
0
100
AcDbLine
10
-138.84413829084352
20
90.439293219209574
30
0
11
-138.13703150967297
21
91.146400000380197
31
0
0
LINE
5
685
100
AcDbEntity
8
0
100
AcDbLine
10
-138.13703150967297
20
91.146400000380197
30
0
11
-139.19769168128855
21
92.207060171561039
31
0
0
ARC
5
686
100
AcDbEntity
8
0
100
AcDbCircle
10
-138.84413829047631
20
92.560613562373135
30
0
40
0.50000000030957104
210
0
220
0
230
1
100
AcDbArc
50
134.99999999999653
51
224.99999999998849
0
LINE
5
687
100
AcDbEntity
8
0
100
AcDbLine
10
-139.19769168128846
20
92.91416695318533
30
0
11
-137.78347811891533
21
94.328380515558337
31
0
0
ARC
5
688
100
AcDbEntity
8
0
100
AcDbCircle
10
-137.42992472810315
20
93.974827124746156
30
0
40
0.50000000030959613
210
-0
220
0
230
1
100
AcDbArc
50
-45.000000000005748
51
135
0
LINE
5
689
100
AcDbEntity
8
0
100
AcDbLine
10
-137.07637133729099
20
93.621273733933933
30
0
11
-138.13703150906923
21
92.560613562155766
31
0
0
LINE
5
690
100
AcDbEntity
8
0
100
AcDbLine
10
-138.13703150906923
20
92.560613562155766
30
0
11
-137.07637133750839
21
91.499953390594811
31
0
0
ARC
5
691
100
AcDbEntity
8
0
100
AcDbCircle
10
-137.42992472810323
20
91.146400000000057
30
0
40
0.50000000000220968
210
0
220
0
230
1
100
AcDbArc
50
-45
51
44.999999999993086
0
LINE
5
692
100
AcDbEntity
8
0
100
AcDbLine
10
-137.07637133750839
20
90.792846609405217
30
0
11
-138.13703150889367
21
89.732186437259713
31
0
0
LINE
5
693
100
AcDbEntity
8
0
100
AcDbLine
10
-138.13703150889367
20
89.732186437259713
30
0
11
-137.07637133749552
21
88.671526265861544
31
0
0
ARC
5
694
100
AcDbEntity
8
0
100
AcDbCircle
10
-137.42992472810323
20
88.317972875253787
30
0
40
0.50000000002044787
210
0
220
0
230
1
100
AcDbArc
50
-134.99999999999773
51
45.00000000000346
0
LINE
5
695
100
AcDbEntity
8
0
100
AcDbLine
10
-137.78347811871095
20
87.964419484646044
30
0
11
-140.25835185277978
21
90.439293218714909
31
0
0
LINE
5
696
100
AcDbEntity
8
0
100
AcDbLine
10
-140.25835185277978
20
90.439293218714909
30
0
11
-141.87967219636536
21
88.817972875129314
31
0
0
LINE
5
697
100
AcDbEntity
8
0
100
AcDbLine
10
-141.87967219636536
20
88.817972875129314
30
0
11
-141.0867789775956
21
88.817972875129328
31
0
0
ARC
5
698
100
AcDbEntity
8
0
100
AcDbCircle
10
-141.08677897759557
20
88.317972875253787
30
0
40
0.49999999987550225
210
-0
220
0
230
1
100
AcDbArc
50
-89.999999999996746
51
90.000000000003254
0
LINE
5
699
100
AcDbEntity
8
0
100
AcDbLine
10
-141.08677897759554
20
87.817972875378288
30
0
11
-143.0867789775956
21
87.817972875378345
31
0
0
ARC
5
700
100
AcDbEntity
8
0
100
AcDbCircle
10
-143.0867789775956
20
88.317972875253844
30
0
40
0.49999999987549698
210
0
220
0
230
1
100
AcDbArc
50
134.99999999999886
51
270
0
LINE
5
701
100
AcDbEntity
8
0
100
AcDbLine
10
-143.44033236810083
20
88.671526265759084
30
0
11
-142.37967219648448
21
89.732186437719704
31
0
0
LWPOLYLINE
5
702
100
AcDbEntity
8
0
100
AcDbPolyline
90
12
70
1
43
0.0
10
-300.80075001490087
20
64.649999990721071
42
-0.41421356276377025
10
-301.30075001556776
20
64.149999990721071
10
-307.59273643762674
20
64.149999999113646
42
1.0000000129047841
10
-309.00694998174959
20
62.735786418490378
10
-309.00694999999979
20
51.564213561486689
42
0.99999999999999989
10
-307.59273643762674
20
50.149999999113632
10
-294.67575001605468
20
50.149999984212606
42
0.4142135627109641
10
-293.67575001490098
20
51.149999984212585
10
-293.67575001490098
20
65.1499999842123
42
0.41421356237306639
10
-294.6757500149011
20
66.149999984212343
10
-299.80075001490087
20
66.149999984212258
42
0.41421356237311324
10
-300.80075001490081
20
65.149999984212286
0
LWPOLYLINE
5
703
100
AcDbEntity
8
0
100
AcDbPolyline
90
16
70
1
43
0.0
10
-180.3604679787764
20
75.904917347143112
42
-0.41421356237309082
10
-179.9548887138036
20
76.484145678480701
10
-169.20817537474267
20
78.379091193533313
42
-0.41421382668217688
10
-168.62894696505418
20
77.973511484211585
10
-168.54212686164598
20
77.481130210175237
42
0.41421356237309342
10
-167.38367093096682
20
76.669970634829909
10
-157.64638427305863
20
78.386916991511725
42
0.41421356237310875
10
-156.83522469771336
20
79.545372922190893
10
-159.2662991850504
20
93.332681464361755
42
0.41421356237309986
10
-160.42475511572948
20
94.143841039707112
10
-193.60046629532826
20
88.294068054552341
42
0.41421356237309237
10
-194.41162587067356
20
87.135612123873187
10
-191.98055138333646
20
73.348303581702282
42
0.41421356237309293
10
-190.82209545265729
20
72.537144006357011
10
-181.08480879474911
20
74.254090363038785
42
0.41421356237311974
10
-180.27364921940381
20
75.412546293717952
0
LWPOLYLINE
5
704
100
AcDbEntity
8
0
100
AcDbPolyline
90
10
70
1
43
0.0
10
-308.84744894958567
20
13.506883315043561
10
-309.52076617405493
20
20.688782908341295
42
0.81649658092772626
10
-310.321012710231
20
29.224566731830386
10
-310.99432993470026
20
36.406466325128129
42
0.99999999999999989
10
-312.73668951155446
20
36.24311668495637
10
-311.98994829934071
20
28.27804433362261
42
0.4142135623730992
10
-311.0370936908277
20
27.488539365281348
42
-0.99999999999999989
10
-310.54704477031243
20
22.261460634718571
42
0.41421356237309775
10
-311.33654973865367
20
21.308606026205563
10
-310.58980852643987
20
13.343533674871811
42
0.99999999999999989
0
LWPOLYLINE
5
705
100
AcDbEntity
8
0
100
AcDbPolyline
90
4
70
1
43
0.0
10
-310.71773645630071
20
50.150000003281917
42
-0.99999999999999989
10
-312.4677364563006
20
50.15000000561615
10
-312.46773643762663
20
64.150000005616164
42
-0.99999999999999989
10
-310.71773643762674
20
64.150000003281917
0
LWPOLYLINE
5
706
100
AcDbEntity
8
0
100
AcDbPolyline
90
8
70
1
43
0.0
10
-195.19540298525033
20
74.304578423221812
42
-0.41421356237731632
10
-195.60098085927751
20
73.725349117931742
10
-199.82500076627952
20
72.980526052150196
42
-0.41421453041902273
10
-200.40423035852868
20
73.386105553629207
10
-202.66165665112254
20
86.188606345800721
42
-0.41421259432358126
10
-202.256078490135
20
86.767834023631835
10
-198.03210089703154
20
87.512649628250202
42
-0.4142135623730504
10
-197.45287159174271
20
87.107071754230176
0
LWPOLYLINE
5
707
100
AcDbEntity
8
0
100
AcDbPolyline
90
4
70
1
43
0.0
10
-25.429536456300646
20
31.100000004168393
42
-0.99999999999999989
10
-27.179536456300639
20
31.100000006502633
10
-27.179536437626766
20
45.10000000650264
42
-0.99999999999999989
10
-25.429536437626766
20
45.100000004168393
0
LWPOLYLINE
5
708
100
AcDbEntity
8
0
100
AcDbPolyline
90
4
70
1
43
0.0
10
12.779663543699256
20
50.15000000416839
42
-0.99999999999999989
10
11.029663543699257
20
50.150000006502623
10
11.029663562373106
20
64.150000006502637
42
-0.99999999999999989
10
12.779663562373106
20
64.15000000416839
0
ARC
5
709
100
AcDbEntity
8
0
100
AcDbCircle
10
-127.68094770566523
20
25.246015589371126
30
0
40
0.87499999999999778
210
0
220
0
230
1
100
AcDbArc
50
169.99999992357607
51
349.99999992357596
0
LINE
5
710
100
AcDbEntity
8
0
100
AcDbLine
10
-128.54265448934825
20
25.397957745979078
30
0
11
-126.45887634158211
21
37.215650779346134
31
0
0
ARC
5
711
100
AcDbEntity
8
0
100
AcDbCircle
10
-125.59716955789909
20
37.06370862273819
30
0
40
0.87499999999999689
210
0
220
0
230
1
100
AcDbArc
50
-10.000000076423934
51
169.99999992357658
0
LINE
5
712
100
AcDbEntity
8
0
100
AcDbLine
10
-124.73546277421607
20
36.911766466130238
30
0
11
-126.81924092198223
21
25.094073432763174
31
0
0
LWPOLYLINE
5
713
100
AcDbEntity
8
0
100
AcDbPolyline
90
4
70
1
43
0.0
10
-153.21334083675248
20
16.008950953349849
42
-0.99999999999999989
10
-151.48992726817042
20
16.312835259669438
10
-149.40614916769326
20
4.495142217964057
42
-0.99999999999999989
10
-151.12956273627529
20
4.1912579116444659
0
ARC
5
714
100
AcDbEntity
8
0
100
AcDbCircle
10
-150.22315598338793
20
43.03890004955359
30
0
40
0.87500000000000688
210
0
220
0
230
1
100
AcDbArc
50
-170.00000007642475
51
9.9999999235752721
0
LINE
5
715
100
AcDbEntity
8
0
100
AcDbLine
10
-151.0848627674763
20
42.886957895244421
30
0
11
-153.51593723642316
21
56.674266440658016
31
0
0
ARC
5
716
100
AcDbEntity
8
0
100
AcDbCircle
10
-152.65423045233479
20
56.826208594967198
30
0
40
0.87500000000000688
210
0
220
-0
230
1
100
AcDbArc
50
9.9999999235755652
51
189.99999992357615
0
LINE
5
717
100
AcDbEntity
8
0
100
AcDbLine
10
-151.79252366824645
20
56.978150749276367
30
0
11
-149.36144919929956
21
43.190842203862758
31
0
0
LWPOLYLINE
5
718
100
AcDbEntity
8
0
100
AcDbPolyline
90
7
70
1
43
0.0
10
-38.037363577274085
20
83.199999980930656
10
-38.037363595347827
20
69.650000017809219
42
0.41421356237309059
10
-37.162363596514837
20
68.775000016641997
10
19.426594691748459
20
68.774999941160985
42
0.99999999999999989
10
19.426594694082691
20
70.52499994116107
10
-36.287363594180611
20
70.525000015474959
10
-36.287363577274085
20
83.199999978596409
42
0.99999999999999989
0
LWPOLYLINE
5
719
100
AcDbEntity
8
0
100
AcDbPolyline
90
4
70
1
43
0.0
10
-6.2579635772741238
20
31.099999979763556
42
-0.99999999999999989
10
-8.0079635772741238
20
31.099999979763545
10
-8.0079635772741238
20
45.099999979763545
42
-0.99999999999999989
10
-6.2579635772741238
20
45.099999979763545
0
LWPOLYLINE
5
720
100
AcDbEntity
8
0
100
AcDbPolyline
90
4
70
1
43
0.0
10
24.807336404051892
20
-7.0000000214035749
42
-0.99999999999999989
10
23.057336404051895
20
-7.0000000190693399
10
23.057336422725765
20
6.999999980930661
42
-0.99999999999999989
10
24.807336422725761
20
6.999999978596426
0
LWPOLYLINE
5
721
100
AcDbEntity
8
0
100
AcDbPolyline
90
4
70
1
43
0.0
10
-25.429536456300635
20
12.050000004168409
42
-0.99999999999999989
10
-27.179536456300632
20
12.050000006502643
10
-27.179536437626766
20
26.050000006502643
42
-0.99999999999999989
10
-25.429536437626766
20
26.05000000416841
0
LWPOLYLINE
5
722
100
AcDbEntity
8
0
100
AcDbPolyline
90
4
70
1
43
0.0
10
-265.35246355970531
20
52.149999983576613
42
-0.99999999999999989
10
-267.10246355970537
20
52.149999985910831
10
-267.10246354369917
20
64.149999985910839
42
-0.99999999999999989
10
-265.35246354369917
20
64.149999983576606
0
LWPOLYLINE
5
723
100
AcDbEntity
8
0
100
AcDbPolyline
90
10
70
1
43
0.0
10
3.843692413524189
20
49.599999998757667
42
-0.99999999999999989
10
5.5936923949520576
20
49.599999996423428
10
5.5936924028534083
20
41.599999996423435
42
-0.41421356237308693
10
4.7186924016862921
20
40.724999997590544
42
0.99999999999999989
10
4.7186923946835932
20
35.474999997590551
42
-0.4142135623730952
10
5.5936923935164762
20
34.599999996423435
10
5.5936923832869914
20
28.599999996423438
42
-0.99999999999999989
10
3.8436924010981635
20
28.599999998757667
10
3.8436923945104464
20
33.813392948470046
42
-0.81649658112632761
10
3.8436924039026241
20
42.386607048628235
0
LWPOLYLINE
5
724
100
AcDbEntity
8
0
100
AcDbPolyline
90
10
70
1
43
0.0
10
-247.13664968843545
20
-11.850000000000041
42
-0.99999999999999989
10
-247.13664968843545
20
-13.600000000000033
10
-255.13664968843543
20
-13.600000000000044
42
-0.41421356237310103
10
-256.01164968843545
20
-12.725000000000041
42
0.99999999999999989
10
-261.26164968855477
20
-12.725000000000035
42
-0.41421356237312551
10
-262.13664968855477
20
-13.600000000000037
10
-270.13664968855477
20
-13.600000000000041
42
-0.99999999999999989
10
-270.13664968855477
20
-11.850000000000056
10
-262.92325673843226
20
-11.850000000000039
42
-0.81649658092799016
10
-254.35004263867728
20
-11.850000000000041
0
LWPOLYLINE
5
725
100
AcDbEntity
8
0
100
AcDbPolyline
90
4
70
1
43
0.0
10
-301.19263645630059
20
12.0500000041684
42
-0.99999999999999989
10
-302.94263645630059
20
12.050000006502636
10
-302.94263643762679
20
26.050000006502636
42
-0.99999999999999989
10
-301.19263643762673
20
26.050000004168403
0
LWPOLYLINE
5
726
100
AcDbEntity
8
0
100
AcDbPolyline
90
8
70
1
43
0.0
10
-219.29398877516968
20
70.1105611356775
42
-0.44473795400341609
10
-219.75069721442759
20
69.525012839394364
10
-223.75596815786764
20
69.238341577475012
42
-0.43529952761437801
10
-224.29166359523163
20
69.737065786248351
10
-224.29166357790416
20
82.727708998631556
42
-0.39762072037264301
10
-223.82013913968532
20
83.226897481787375
10
-222.07249957412884
20
83.326589321709662
42
-0.38018807039578723
10
-221.55162013572573
20
82.914224926063611
0
LWPOLYLINE
5
727
100
AcDbEntity
8
0
100
AcDbPolyline
90
10
70
1
43
0.0
10
25.438636422725747
20
26.049999980930679
10
25.438636404051888
20
12.049999980930682
42
0.99999999999999989
10
27.188636404051888
20
12.049999978596443
10
27.188636422464377
20
25.854045750190778
10
29.486360934482946
20
30.726808055102829
42
0.11060404034738669
10
29.569936404051877
20
31.099999978596415
10
29.569936422725753
20
45.099999978596415
42
0.99999999999999989
10
27.819936422725753
20
45.099999980930654
10
27.819936404313246
20
31.295954209336315
10
25.522211892294678
20
26.423191904424264
42
0.11060404034738734
0
LWPOLYLINE
5
728
100
AcDbEntity
8
0
100
AcDbPolyline
90
4
70
1
43
0.0
10
31.951236404051887
20
50.149999978596462
42
-0.99999999999999989
10
30.201236404051887
20
50.14999998093068
10
30.201236422725735
20
64.149999980930673
42
-0.99999999999999989
10
31.951236422725735
20
64.149999978596441
0
LWPOLYLINE
5
729
100
AcDbEntity
8
0
100
AcDbPolyline
90
8
70
1
43
0.0
10
-85.024700748875858
20
73.725339561287598
42
-0.41421356237408297
10
-85.430281478175374
20
74.304566867293289
10
-83.172875980976869
20
87.107071326233054
42
-0.41421356237311374
10
-82.593648674971462
20
87.512652055530822
10
-78.369524376687863
20
86.767832052352745
42
-0.41421403890760633
10
-77.963943788651378
20
86.1886039452109
10
-80.221370115398116
20
73.386103159062813
42
-0.41421308583772887
10
-80.800597280140479
20
72.98052323090117
0
ARC
5
730
100
AcDbEntity
8
0
100
AcDbCircle
10
-143.44005233609479
20
26.921915556041249
30
0
40
0.87500000000000688
210
0
220
0
230
1
100
AcDbArc
50
-170.00000007642475
51
9.9999999235752721
0
LINE
5
731
100
AcDbEntity
8
0
100
AcDbLine
10
-144.30175912018316
20
26.769973401732081
30
0
11
-146.38553723642329
21
38.587666440658019
31
0
0
ARC
5
732
100
AcDbEntity
8
0
100
AcDbCircle
10
-145.52383045233495
20
38.739608594967208
30
0
40
0.87500000000000688
210
0
220
-0
230
1
100
AcDbArc
50
9.9999999235752721
51
189.99999992357695
0
LINE
5
733
100
AcDbEntity
8
0
100
AcDbLine
10
-144.66212366824658
20
38.891550749276377
30
0
11
-142.57834555200643
21
27.073857710350417
31
0
0
LWPOLYLINE
5
734
100
AcDbEntity
8
0
100
AcDbPolyline
90
4
70
1
43
0.0
10
-138.43727269804515
20
17.953035266917997
42
-0.99999999999999989
10
-136.71385913027382
20
17.649150956000867
10
-138.79763726227696
20
5.8314579198543726
42
-0.99999999999999989
10
-140.52105083004832
20
6.1353422307714993
0
LWPOLYLINE
5
735
100
AcDbEntity
8
0
100
AcDbPolyline
90
4
70
1
43
0.0
10
-129.52273728511767
20
42.88375792935409
42
-0.99999999999999989
10
-131.24615085236493
20
43.187642243243289
10
-128.81507634125143
20
56.97495078122175
42
-0.99999999999999989
10
-127.09166277400411
20
56.671066467332558
0
LWPOLYLINE
5
736
100
AcDbEntity
8
0
100
AcDbPolyline
90
8
70
1
43
0.0
10
-60.874902835106255
20
69.525012827381829
42
-0.44473795725532084
10
-61.331611278218041
20
70.11056112527092
10
-59.073979882941444
20
82.914224912835181
42
-0.38018806444774794
10
-58.553100453815219
20
83.326589307683619
10
-56.805460885520766
20
83.226897499375411
42
-0.39762072639128831
10
-56.333936438256714
20
82.727709014369736
10
-56.333936455584265
20
69.73706580597306
42
-0.4352995243849857
10
-56.869631888862735
20
69.238341598241135
0
LWPOLYLINE
5
737
100
AcDbEntity
8
0
100
AcDbPolyline
90
4
70
1
43
0.0
10
10.398363562373119
20
31.100000000000108
42
-0.99999999999999989
10
8.6483635623731185
20
31.100000000000108
10
8.6483635623731185
20
45.100000000000115
42
-0.99999999999999989
10
10.398363562373119
20
45.100000000000115
0
LWPOLYLINE
5
738
100
AcDbEntity
8
0
100
AcDbPolyline
90
4
70
1
43
0.0
10
8.0170635436992512
20
12.050000004168396
42
-0.99999999999999989
10
6.2670635436992503
20
12.050000006502636
10
6.2670635623731155
20
26.050000006502636
42
-0.99999999999999989
10
8.0170635623731155
20
26.050000004168403
0
LWPOLYLINE
5
739
100
AcDbEntity
8
0
100
AcDbPolyline
90
4
70
1
43
0.0
10
-6.2579635959479907
20
12.049999978596446
42
-0.99999999999999989
10
-8.007963595947988
20
12.049999980930686
10
-8.0079635772741238
20
26.049999980930689
42
-0.99999999999999989
10
-6.2579635772741238
20
26.04999997859645
0
LWPOLYLINE
5
740
100
AcDbEntity
8
0
100
AcDbPolyline
90
7
70
1
43
0.0
10
-301.46323645570044
20
68.774999999113305
42
-0.99999999999999989
10
-301.46323645570044
20
70.524999999113319
10
-244.33823645453327
20
70.524999999113618
10
-244.33823643762673
20
83.200000006502592
42
-0.99999999999999989
10
-242.58823643762673
20
83.200000004168345
10
-242.58823645570152
20
69.649999997947589
42
-0.41421356198240128
10
-243.46323645570044
20
68.774999999115792
0
LWPOLYLINE
5
741
100
AcDbEntity
8
0
100
AcDbPolyline
90
4
70
1
43
0.0
10
-282.02106359594802
20
12.04999997859645
42
-0.99999999999999989
10
-283.77106359594796
20
12.049999980930682
10
-283.77106357727411
20
26.049999980930679
42
-0.99999999999999989
10
-282.02106357727411
20
26.04999997859645
0
LWPOLYLINE
5
742
100
AcDbEntity
8
0
100
AcDbPolyline
90
10
70
1
43
0.0
10
-20.412790428953773
20
-11.849999999999996
42
-0.99999999999999989
10
-20.412790428953773
20
-13.599999999999994
10
-28.412790428953777
20
-13.599999999999993
42
-0.41421356237309653
10
-29.287790428953777
20
-12.724999999999998
42
0.99999999999999989
10
-34.537790428953777
20
-12.724999999999993
42
-0.41421356237309503
10
-35.412790428953777
20
-13.599999999999993
10
-43.412790428953763
20
-13.599999999999993
42
-0.99999999999999989
10
-43.412790428953784
20
-11.849999999999998
10
-36.199397478824338
20
-11.849999999999996
42
-0.81649658092772603
10
-27.626183379083216
20
-11.849999999999996
0
LWPOLYLINE
5
743
100
AcDbEntity
8
0
100
AcDbPolyline
90
14
70
1
43
0.0
10
-261.1382209468872
20
78.626416256158848
42
-0.5715776112056401
10
-261.05528710251002
20
79.48406830238882
42
0.23772153568172188
10
-258.61584295012881
20
82.575000000002746
10
-251.40244999999933
20
82.575000000002746
42
0.99999999999999989
10
-251.40244999999933
20
84.325000000002746
10
-259.40244999999936
20
84.325000000002746
42
0.41421356237312473
10
-260.27744999999931
20
83.450000000002746
42
-0.99999999999999989
10
-265.52744999999936
20
83.450000000002746
42
0.41421356237312473
10
-266.40244999999936
20
84.325000000002746
10
-274.40244999999936
20
84.325000000002746
42
0.99999999999999989
10
-274.40244999999936
20
82.575000000002746
10
-267.18905704986992
20
82.575000000002746
42
0.23772153568165241
10
-264.74961289748978
20
79.484068302389304
42
-0.57157761120560713
10
-264.66667905311272
20
78.626416256159331
42
3.0758003030189673
0
LWPOLYLINE
5
744
100
AcDbEntity
8
0
100
AcDbPolyline
90
12
70
1
43
0.0
10
-238.14626326423945
20
9.3395000015558445
42
-0.15391472120116551
10
-238.43305148257056
20
9.4299239797938164
10
-239.59247063739224
20
10.241758017928191
42
0.15391472105980489
10
-240.09435001898822
20
10.399999979844674
10
-263.93804999501248
20
10.400000011648521
42
0.99999999999999989
10
-263.9380499973467
20
8.6500000116485687
10
-240.52788585077673
20
8.6499999804229279
42
-0.15391472105984161
10
-240.24109763272185
20
8.5595760021849294
10
-239.08167847582956
20
7.7477419662797669
42
0.15391472120118527
10
-238.57979909547879
20
7.5895000049083254
10
-222.05882058177369
20
7.5894999889860513
42
0.99999999999999989
10
-222.05882058040632
20
9.3394999889860522
0
ARC
5
745
100
AcDbEntity
8
0
100
AcDbCircle
10
-257.76944998507793
20
65.299999982959477
30
0
40
0.50000000000003375
210
0
220
-0
230
1
100
AcDbArc
50
89.999999999700364
51
180
0
LINE
5
746
100
AcDbEntity
8
0
100
AcDbLine
10
-258.26944998507793
20
65.299999982959505
30
0
11
-258.26944998507781
21
47.624999989417503
31
0
0
ARC
5
747
100
AcDbEntity
8
0
100
AcDbCircle
10
-259.14444998517808
20
47.624999989417461
30
0
40
0.87500000010024337
210
0
220
0
230
1
100
AcDbArc
50
-90.000000031057681
51
0
0
LINE
5
748
100
AcDbEntity
8
0
100
AcDbLine
10
-259.14444998565239
20
46.749999989317217
30
0
11
-264.9131499814074
21
46.74999999254446
31
0
0
ARC
5
749
100
AcDbEntity
8
0
100
AcDbCircle
10
-264.91314998167837
20
46.249999992544424
30
0
40
0.50000000000003375
210
0
220
-0
230
1
100
AcDbArc
50
89.999999968948828
51
180
0
LINE
5
750
100
AcDbEntity
8
0
100
AcDbLine
10
-265.41314998167843
20
46.249999993211375
30
0
11
-265.41315000525418
21
28.574999988206265
31
0
0
ARC
5
751
100
AcDbEntity
8
0
100
AcDbCircle
10
-266.28815000525418
20
28.574999989373381
30
0
40
0.87499999999999467
210
0
220
0
230
1
100
AcDbArc
50
269.99999992357669
51
360
0
LINE
5
752
100
AcDbEntity
8
0
100
AcDbLine
10
-266.28815000642129
20
27.699999989373385
30
0
11
-276.81934998101161
21
27.700000003420392
31
0
0
ARC
5
753
100
AcDbEntity
8
0
100
AcDbCircle
10
-276.81934998167856
20
27.200000003420403
30
0
40
0.49999999999998934
210
0
220
-0
230
1
100
AcDbArc
50
89.999999923573867
51
180
0
LINE
5
754
100
AcDbEntity
8
0
100
AcDbLine
10
-277.3193499816785
20
27.200000004087318
30
0
11
-277.31935000342025
21
10.900000029497194
31
0
0
ARC
5
755
100
AcDbEntity
8
0
100
AcDbCircle
10
-276.81935000342025
20
10.900000028830313
30
0
40
0.50000000000000711
210
0
220
0
230
1
100
AcDbArc
50
180
51
269.99999992357385
0
LINE
5
756
100
AcDbEntity
8
0
100
AcDbLine
10
-276.8193500040872
20
10.40000002883027
30
0
11
-268.63804999501247
21
10.400000017917655
31
0
0
ARC
5
757
100
AcDbEntity
8
0
100
AcDbCircle
10
-268.63804999617957
20
9.5250000179176482
30
0
40
0.87500000000000533
210
-0
220
0
230
1
100
AcDbArc
50
-76.824959276732883
51
89.999999923576667
0
ARC
5
758
100
AcDbEntity
8
0
100
AcDbCircle
10
-268.32465073349334
20
8.1861923759661241
30
0
40
0.50000000000002509
210
0
220
0
230
1
100
AcDbArc
50
103.17504072327503
51
187.13041647461853
0
ARC
5
759
100
AcDbEntity
8
0
100
AcDbCircle
10
-269.8130500065509
20
7.9999999916628379
30
0
40
1.0000000000035669
210
0
220
-0
230
1
100
AcDbArc
50
0
51
7.1304164746068155
0
LINE
5
760
100
AcDbEntity
8
0
100
AcDbLine
10
-268.81305000654731
20
7.9999999942080056
30
0
11
-268.81305000084507
21
5.7593562045143196
31
0
0
LINE
5
761
100
AcDbEntity
8
0
100
AcDbLine
10
-268.81305000084507
20
5.7593562045143196
30
0
11
-268.81305001490114
21
-5.5857864236120793
31
0
0
ARC
5
762
100
AcDbEntity
8
0
100
AcDbCircle
10
-269.52015678118647
20
-6.2928932196997911
30
0
40
1.000000000000042
210
0
220
0
230
1
100
AcDbArc
50
-135.00000000000296
51
45.000001207420468
0
LINE
5
763
100
AcDbEntity
8
0
100
AcDbLine
10
-270.22726356237308
20
-7.0000000008863283
30
0
11
-300.44883643762688
21
-7.0000000008863319
31
0
0
ARC
5
764
100
AcDbEntity
8
0
100
AcDbCircle
10
-301.15594321881343
20
-6.2928932196997822
30
0
40
0.999999999999998
210
0
220
0
230
1
100
AcDbArc
50
135.00000000000031
51
315.00000000000017
0
LINE
5
765
100
AcDbEntity
8
0
100
AcDbLine
10
-301.86304999999999
20
-5.5857864385132361
30
0
11
-301.86304998525361
21
5.4697267772673115
31
0
0
LINE
5
766
100
AcDbEntity
8
0
100
AcDbLine
10
-301.86304998525361
20
5.4697267772673115
30
0
11
-301.86304998525361
21
7.9999999903221006
31
0
0
ARC
5
767
100
AcDbEntity
8
0
100
AcDbCircle
10
-300.86304998525361
20
7.9999999903221406
30
0
40
0.9999999999999909
210
0
220
-0
230
1
100
AcDbArc
50
89.999999999996746
51
180
0
LINE
5
768
100
AcDbEntity
8
0
100
AcDbLine
10
-300.86304998525355
20
8.9999999903221308
30
0
11
-294.67555000745057
21
8.9999999916631275
31
0
0
ARC
5
769
100
AcDbEntity
8
0
100
AcDbCircle
10
-294.67555000745057
20
7.9999999916631106
30
0
40
1.0000000000000142
210
0
220
-0
230
1
100
AcDbArc
50
0
51
90
0
LINE
5
770
100
AcDbEntity
8
0
100
AcDbLine
10
-293.67555000745057
20
7.9999999916631124
30
0
11
-293.67555000745051
21
7.4999999916630333
31
0
0
ARC
5
771
100
AcDbEntity
8
0
100
AcDbCircle
10
-293.17555000745051
20
7.4999999916630946
30
0
40
0.49999999999997158
210
0
220
0
230
1
100
AcDbArc
50
180
51
270
0
LINE
5
772
100
AcDbEntity
8
0
100
AcDbLine
10
-293.17555000745051
20
6.999999991663123
30
0
11
-277.50055000745056
21
6.9999999916631026
31
0
0
ARC
5
773
100
AcDbEntity
8
0
100
AcDbCircle
10
-277.50055000745067
20
7.4999999916631532
30
0
40
0.5000000000000504
210
0
220
0
230
1
100
AcDbArc
50
270.00000000001302
51
360
0
LINE
5
774
100
AcDbEntity
8
0
100
AcDbLine
10
-277.00055000745061
20
7.4999999916631044
30
0
11
-277.00055000745061
21
7.999999991663115
31
0
0
ARC
5
775
100
AcDbEntity
8
0
100
AcDbCircle
10
-276.00055000744999
20
7.9999999916629818
30
0
40
1.0000000000005826
210
0
220
0
230
1
100
AcDbArc
50
174.26082806139988
51
180
0
ARC
5
776
100
AcDbEntity
8
0
100
AcDbCircle
10
-277.49303115928478
20
8.1500000297288331
30
0
40
0.50000000000003475
210
0
220
0
230
1
100
AcDbArc
50
-5.7391719385930386
51
89.999999923573867
0
LINE
5
777
100
AcDbEntity
8
0
100
AcDbLine
10
-277.49303115861784
20
8.6500000297288668
30
0
11
-278.19435000642136
21
8.6500000306643123
31
0
0
ARC
5
778
100
AcDbEntity
8
0
100
AcDbCircle
10
-278.19435000525425
20
9.5250000306643052
30
0
40
0.87500000000002132
210
0
220
0
230
1
100
AcDbArc
50
180
51
269.99999992357669
0
LINE
5
779
100
AcDbEntity
8
0
100
AcDbLine
10
-279.06935000525425
20
9.5250000318314303
30
0
11
-279.06934997984445
21
28.575000006421551
31
0
0
ARC
5
780
100
AcDbEntity
8
0
100
AcDbCircle
10
-278.19434997984376
20
28.575000005254271
30
0
40
0.87500000000069655
210
0
220
0
230
1
100
AcDbArc
50
158.73836500169708
51
180
0
ARC
5
781
100
AcDbEntity
8
0
100
AcDbCircle
10
-279.4757595737679
20
29.073612532775307
30
0
40
0.49999999999994316
210
-0
220
0
230
1
100
AcDbArc
50
-21.261634998310058
51
43.177305434123497
0
ARC
5
782
100
AcDbEntity
8
0
100
AcDbCircle
10
-278.38189999999997
20
30.100000000000051
30
0
40
0.99999999999997868
210
0
220
0
230
1
100
AcDbArc
50
180
51
223.17730543411679
0
LINE
5
783
100
AcDbEntity
8
0
100
AcDbLine
10
-279.38189999999997
20
30.10000000000009
30
0
11
-279.38189999999997
21
44.100000000000094
31
0
0
ARC
5
784
100
AcDbEntity
8
0
100
AcDbCircle
10
-278.38190000000003
20
44.100000000000094
30
0
40
0.99999999999999645
210
0
220
-0
230
1
100
AcDbArc
50
89.999999999996746
51
180
0
LINE
5
785
100
AcDbEntity
8
0
100
AcDbLine
10
-278.38189999999997
20
45.100000000000087
30
0
11
-273.25689999999997
21
45.100000000000087
31
0
0
ARC
5
786
100
AcDbEntity
8
0
100
AcDbCircle
10
-273.25690000000003
20
44.100000000000051
30
0
40
1.0000000000000497
210
0
220
-0
230
1
100
AcDbArc
50
0
51
89.999999999996746
0
LINE
5
787
100
AcDbEntity
8
0
100
AcDbLine
10
-272.25689999999997
20
44.100000000000094
30
0
11
-272.25689999999997
21
30.10000000000009
31
0
0
ARC
5
788
100
AcDbEntity
8
0
100
AcDbCircle
10
-273.25690000000168
20
30.100000000000172
30
0
40
1.0000000000016838
210
0
220
0
230
1
100
AcDbArc
50
354.26082939520012
51
360
0
ARC
5
789
100
AcDbEntity
8
0
100
AcDbCircle
10
-271.76441884467397
20
29.949999996677885
30
0
40
0.49999999999998962
210
0
220
0
230
1
100
AcDbArc
50
174.26082939519475
51
269.99999992358039
0
LINE
5
790
100
AcDbEntity
8
0
100
AcDbLine
10
-271.76441884534086
20
29.449999996677896
30
0
11
-267.66315000408702
21
29.449999991207427
31
0
0
ARC
5
791
100
AcDbEntity
8
0
100
AcDbCircle
10
-267.66315000342007
20
29.949999991207395
30
0
40
0.49999999999996714
210
0
220
0
230
1
100
AcDbArc
50
269.99999992357385
51
360
0
LINE
5
792
100
AcDbEntity
8
0
100
AcDbLine
10
-267.16315000342013
20
29.949999990540498
30
0
11
-267.16314997984432
21
47.624999994456907
31
0
0
ARC
5
793
100
AcDbEntity
8
0
100
AcDbCircle
10
-266.28814997984432
20
47.624999993289805
30
0
40
0.87499999999998579
210
0
220
-0
230
1
100
AcDbArc
50
89.999999968946042
51
180
0
LINE
5
794
100
AcDbEntity
8
0
100
AcDbLine
10
-266.28814997937008
20
48.499999993289791
30
0
11
-260.51944998534913
21
48.49999999016282
31
0
0
ARC
5
795
100
AcDbEntity
8
0
100
AcDbCircle
10
-260.51944998507815
20
48.999999990162884
30
0
40
0.50000000000006928
210
0
220
0
230
1
100
AcDbArc
50
269.99999996894883
51
360
0
LINE
5
796
100
AcDbEntity
8
0
100
AcDbLine
10
-260.0194499850781
20
48.999999990162834
30
0
11
-260.01944998507821
21
66.674999983166785
31
0
0
ARC
5
797
100
AcDbEntity
8
0
100
AcDbCircle
10
-259.1444499850781
20
66.674999983166771
30
0
40
0.87500000000015454
210
0
220
-0
230
1
100
AcDbArc
50
89.999999999694779
51
180
0
LINE
5
798
100
AcDbEntity
8
0
100
AcDbLine
10
-259.14444998507344
20
67.549999983166927
30
0
11
-223.39451547276124
21
67.549999983179305
31
0
0
ARC
5
799
100
AcDbEntity
8
0
100
AcDbCircle
10
-223.39451547276576
20
66.674999982979244
30
0
40
0.87500000020010127
210
0
220
0
230
1
100
AcDbArc
50
-90.000000000303345
51
89.999999999704102
0
LINE
5
800
100
AcDbEntity
8
0
100
AcDbLine
10
-223.39451547277039
20
65.799999982779141
30
0
11
-257.76944998507531
21
65.799999982959505
31
0
0
ENDSEC
0
SECTION
2
OBJECTS
0
DICTIONARY
5
C
100
AcDbDictionary
3
ACAD_GROUP
350
D
3
ACAD_MLINESTYLE
350
17
0
DICTIONARY
5
D
100
AcDbDictionary
0
DICTIONARY
5
1A
330
C
100
AcDbDictionary
0
DICTIONARY
5
17
100
AcDbDictionary
0
ENDSEC
0
EOF
