G04 EAGLE Gerber RS-274X export*
G75*
%MOMM*%
%FSLAX34Y34*%
%LPD*%
%INSoldermask Bottom*%
%IPPOS*%
%AMOC8*
5,1,8,0,0,1.08239X$1,22.5*%
G01*
%ADD10C,1.905200*%
%ADD11C,3.103200*%
%ADD12C,3.251200*%
%ADD13C,4.203200*%
%ADD14C,4.191200*%
%ADD15C,8.203200*%
%ADD16C,2.743200*%
%ADD17C,3.200400*%
%ADD18C,0.853200*%
%ADD19C,1.203200*%
%ADD20R,1.703200X1.103200*%
%ADD21C,1.828800*%
%ADD22C,0.756400*%


D10*
X3071370Y381000D03*
D11*
X1545960Y771460D03*
D10*
X2952310Y571500D03*
D12*
X2007280Y895500D03*
D10*
X2850710Y571500D03*
D13*
X2901510Y571500D03*
D10*
X1383380Y103300D03*
X3041210Y0D03*
X1630630Y697550D03*
D13*
X1224740Y655650D03*
X2449070Y571500D03*
D10*
X560060Y762000D03*
D13*
X849530Y589490D03*
D10*
X1730890Y292990D03*
X599490Y190500D03*
X1630830Y310640D03*
D13*
X1868270Y655650D03*
D11*
X2977400Y762000D03*
D10*
X3118990Y190500D03*
X1015480Y425310D03*
X2365010Y374620D03*
X2532950Y762000D03*
X1918490Y259910D03*
X1165080Y838570D03*
D13*
X1215110Y847390D03*
D12*
X1320240Y936850D03*
X453440Y641350D03*
D10*
X1362320Y679910D03*
D13*
X1939770Y449600D03*
D10*
X2469710Y381000D03*
X1818440Y277560D03*
D14*
X3139630Y298450D03*
D13*
X2520510Y381000D03*
X754280Y185820D03*
D10*
X1462380Y697550D03*
D13*
X2253110Y781230D03*
D14*
X1346700Y786770D03*
D10*
X2293510Y580670D03*
X1927920Y838570D03*
D13*
X1940220Y62640D03*
D10*
X2660210Y381000D03*
X2006040Y244480D03*
X3142810Y0D03*
X1818240Y664470D03*
X915420Y407670D03*
X50800Y0D03*
D13*
X1868470Y268730D03*
D10*
X1730690Y679910D03*
X2431350Y762000D03*
X1918290Y646830D03*
X2690370Y571500D03*
X2880870Y190500D03*
X2293710Y193750D03*
X1179520Y260800D03*
X2264950Y392260D03*
X2177400Y407700D03*
X1079470Y243150D03*
D13*
X1412350Y688730D03*
X965450Y416490D03*
X870590Y12880D03*
X548690Y190500D03*
D10*
X1008170Y37140D03*
X259760Y190500D03*
D13*
X667750Y-19400D03*
X2243680Y202570D03*
D12*
X1085730Y895500D03*
D10*
X991920Y227720D03*
X727820Y374590D03*
D12*
X2901510Y450850D03*
D10*
X1265140Y856210D03*
D14*
X2901510Y298450D03*
D10*
X827870Y392230D03*
X1483440Y120950D03*
X2761810Y0D03*
X426450Y0D03*
D14*
X1746310Y786770D03*
D13*
X1317100Y285060D03*
D10*
X-20640Y571500D03*
D13*
X3092010Y0D03*
X1752160Y482680D03*
D14*
X1980810Y745420D03*
D13*
X-23810Y190500D03*
D10*
X1295830Y87870D03*
D13*
X3068190Y190500D03*
X3020570Y381000D03*
X610860Y762000D03*
X310560Y190500D03*
D10*
X521700Y381000D03*
X2398270Y571500D03*
D13*
X1037140Y622570D03*
X572500Y381000D03*
X2127820Y29560D03*
D10*
X283570Y571500D03*
X259760Y381000D03*
D14*
X1112190Y745420D03*
D13*
X2482150Y762000D03*
D10*
X820570Y4060D03*
D14*
X215310Y488950D03*
D10*
X1802640Y86900D03*
X1108230Y54790D03*
X2077790Y38380D03*
D13*
X3163440Y571500D03*
D10*
X2660210Y0D03*
X2499870Y179900D03*
D13*
X-71440Y571500D03*
X2315430Y-3520D03*
D10*
X1802190Y473860D03*
D13*
X-47630Y381000D03*
D12*
X1772770Y936850D03*
D13*
X2314980Y383440D03*
D10*
X704260Y176990D03*
D13*
X941890Y218900D03*
X2055870Y622570D03*
D10*
X2177850Y20740D03*
X1702140Y491500D03*
X1103030Y440750D03*
X3017390Y190500D03*
D13*
X1680660Y688730D03*
D10*
X1203090Y458390D03*
X2265400Y5300D03*
X2005840Y631390D03*
X3214240Y571500D03*
X-98430Y381000D03*
X3170Y381000D03*
X2193450Y598310D03*
X-122240Y571500D03*
D13*
X477250Y0D03*
X2056070Y235650D03*
D10*
X2398270Y179900D03*
D13*
X2243480Y589490D03*
X2449070Y179900D03*
D10*
X497890Y190500D03*
X361360Y381000D03*
D12*
X215310Y641350D03*
D10*
X891860Y210070D03*
D13*
X777840Y383410D03*
D10*
X1274770Y664470D03*
X799500Y580670D03*
X987110Y613750D03*
D13*
X1153060Y449570D03*
D10*
X528050Y0D03*
D13*
X2520510Y-19400D03*
D10*
X361360Y190500D03*
D13*
X310560Y381000D03*
D10*
X1889740Y458420D03*
D12*
X3139630Y450850D03*
D10*
X623300Y381000D03*
D13*
X2639570Y571500D03*
X2830070Y190500D03*
D11*
X115610Y762000D03*
D10*
X2588770Y190500D03*
D13*
X1752610Y95720D03*
D10*
X2952310Y0D03*
X2105900Y613750D03*
X2203080Y790050D03*
X2193650Y211400D03*
D13*
X2711010Y0D03*
X2901510Y0D03*
D10*
X2106100Y226830D03*
X1195780Y70220D03*
D13*
X2639570Y190500D03*
D10*
X2077350Y425340D03*
X2690370Y190500D03*
D13*
X2127380Y416520D03*
D10*
X920620Y21710D03*
X1827870Y856210D03*
D14*
X453440Y488950D03*
D10*
X1087160Y631390D03*
X1989800Y440780D03*
D13*
X839900Y781230D03*
D10*
X26990Y190500D03*
X1702580Y104540D03*
X899560Y598310D03*
X1174710Y646830D03*
X2571310Y381000D03*
X1890190Y71460D03*
D13*
X334370Y571500D03*
X1680860Y301810D03*
D10*
X789870Y772410D03*
D13*
X2711010Y381000D03*
X0Y0D03*
X643940Y571500D03*
D10*
X-74610Y190500D03*
D13*
X1058200Y45960D03*
D15*
X1545960Y551460D03*
D10*
X593140Y571500D03*
D13*
X1129500Y251980D03*
D10*
X-50800Y0D03*
X1390690Y491470D03*
D13*
X1245810Y79040D03*
D10*
X804310Y194640D03*
X385170Y571500D03*
X235950Y0D03*
D13*
X1877900Y847390D03*
D10*
X1367130Y293880D03*
X3112640Y571500D03*
X2588770Y571500D03*
X1267070Y276230D03*
X2571310Y-19400D03*
X337550Y0D03*
D11*
X143380Y0D03*
D10*
X2499870Y571500D03*
D13*
X1340660Y482650D03*
D10*
X889930Y790050D03*
X2469710Y-19400D03*
X2761810Y381000D03*
X718550Y-19400D03*
X2779270Y190500D03*
D11*
X2996760Y0D03*
D10*
X2303130Y772410D03*
D13*
X286750Y0D03*
D10*
X694740Y571500D03*
X616950Y-19400D03*
D13*
X1433410Y112120D03*
D10*
X2969770Y381000D03*
X2365460Y-12340D03*
X1990250Y53820D03*
X1290630Y473830D03*
X661660Y762000D03*
X2850710Y0D03*
D16*
X-85690Y355520D03*
X-22190Y330120D03*
D17*
X-9490Y406320D03*
X-72990Y431720D03*
D16*
X272440Y355600D03*
X335940Y330200D03*
D17*
X348640Y406400D03*
X285140Y431800D03*
D16*
X534420Y355570D03*
X597920Y330170D03*
D17*
X610620Y406370D03*
X547120Y431770D03*
D16*
X744710Y351780D03*
X811655Y337792D03*
D17*
X810931Y415040D03*
X743985Y429028D03*
D16*
X1004050Y590900D03*
X1070995Y576912D03*
D17*
X1070271Y654160D03*
X1003325Y668148D03*
D16*
X1191650Y624020D03*
X1258595Y610032D03*
D17*
X1257871Y687280D03*
X1190925Y701268D03*
D16*
X1307550Y450970D03*
X1374495Y436982D03*
D17*
X1373771Y514230D03*
X1306825Y528218D03*
D16*
X1710188Y464252D03*
X1768313Y428211D03*
D17*
X1794052Y501048D03*
X1735927Y537089D03*
D16*
X1897838Y431212D03*
X1955963Y395171D03*
D17*
X1981702Y468008D03*
X1923577Y504049D03*
D16*
X2085448Y398082D03*
X2143573Y362041D03*
D17*
X2169312Y434878D03*
X2111187Y470919D03*
D16*
X2273078Y365012D03*
X2331203Y328971D03*
D17*
X2356942Y401808D03*
X2298817Y437849D03*
D16*
X2482420Y355600D03*
X2545920Y330200D03*
D17*
X2558620Y406400D03*
X2495120Y431800D03*
D16*
X2672940Y355630D03*
X2736440Y330230D03*
D17*
X2749140Y406430D03*
X2685640Y431830D03*
D16*
X2982440Y355570D03*
X3045940Y330170D03*
D17*
X3058640Y406370D03*
X2995140Y431770D03*
D16*
X3030090Y165070D03*
X3093590Y139670D03*
D17*
X3106290Y215870D03*
X3042790Y241270D03*
D16*
X-109520Y546070D03*
X-46020Y520670D03*
D17*
X-33320Y596870D03*
X-96820Y622270D03*
D16*
X296320Y546070D03*
X359820Y520670D03*
D17*
X372520Y596870D03*
X309020Y622270D03*
D16*
X605840Y546050D03*
X669340Y520650D03*
D17*
X682040Y596850D03*
X618540Y622250D03*
D16*
X816440Y557800D03*
X883385Y543812D03*
D17*
X882661Y621060D03*
X815715Y635048D03*
D16*
X2211178Y762802D03*
X2269303Y726761D03*
D17*
X2295042Y799598D03*
X2236917Y835639D03*
D16*
X2444040Y736600D03*
X2507540Y711200D03*
D17*
X2520240Y787400D03*
X2456740Y812800D03*
D16*
X1379230Y657070D03*
X1446175Y643082D03*
D17*
X1445451Y720330D03*
X1378505Y734318D03*
D16*
X1638758Y670352D03*
X1696883Y634311D03*
D17*
X1722622Y707148D03*
X1664497Y743189D03*
D16*
X1826418Y637252D03*
X1884543Y601211D03*
D17*
X1910282Y674048D03*
X1852157Y710089D03*
D16*
X2013948Y604132D03*
X2072073Y568091D03*
D17*
X2097812Y640928D03*
X2039687Y676969D03*
D16*
X2201578Y571082D03*
X2259703Y535041D03*
D17*
X2285442Y607878D03*
X2227317Y643919D03*
D16*
X2410970Y546100D03*
X2474470Y520700D03*
D17*
X2487170Y596900D03*
X2423670Y622300D03*
D16*
X2601490Y546050D03*
X2664990Y520650D03*
D17*
X2677690Y596850D03*
X2614190Y622250D03*
D16*
X2863420Y546100D03*
X2926920Y520700D03*
D17*
X2939620Y596900D03*
X2876120Y622300D03*
D16*
X3125340Y546070D03*
X3188840Y520670D03*
D17*
X3201540Y596870D03*
X3138040Y622270D03*
D16*
X572800Y736570D03*
X636300Y711170D03*
D17*
X649000Y787370D03*
X585500Y812770D03*
D16*
X806840Y749600D03*
X873785Y735612D03*
D17*
X873061Y812860D03*
X806115Y826848D03*
D16*
X1182000Y815740D03*
X1248945Y801752D03*
D17*
X1248221Y879000D03*
X1181275Y892988D03*
D16*
X1835988Y828972D03*
X1894113Y792931D03*
D17*
X1919852Y865768D03*
X1861727Y901809D03*
D16*
X932340Y384880D03*
X999285Y370892D03*
D17*
X998561Y448140D03*
X931615Y462128D03*
D16*
X1119970Y417920D03*
X1186915Y403932D03*
D17*
X1186191Y481180D03*
X1119245Y495168D03*
D16*
X1284080Y253430D03*
X1351025Y239442D03*
D17*
X1350301Y316690D03*
X1283355Y330678D03*
D16*
X1638888Y283382D03*
X1697013Y247341D03*
D17*
X1722752Y320178D03*
X1664627Y356219D03*
D16*
X1826538Y250312D03*
X1884663Y214271D03*
D17*
X1910402Y287108D03*
X1852277Y323149D03*
D16*
X2014168Y217292D03*
X2072293Y181251D03*
D17*
X2098032Y254088D03*
X2039907Y290129D03*
D16*
X2201728Y184222D03*
X2259853Y148181D03*
D17*
X2285592Y221018D03*
X2227467Y257059D03*
D16*
X2410970Y154460D03*
X2474470Y129060D03*
D17*
X2487170Y205260D03*
X2423670Y230660D03*
D16*
X2601490Y165050D03*
X2664990Y139650D03*
D17*
X2677690Y215850D03*
X2614190Y241250D03*
D16*
X2791970Y165070D03*
X2855470Y139670D03*
D17*
X2868170Y215870D03*
X2804670Y241270D03*
D16*
X-61870Y165130D03*
X1630Y139730D03*
D17*
X14330Y215930D03*
X-49170Y241330D03*
D16*
X272490Y165100D03*
X335990Y139700D03*
D17*
X348690Y215900D03*
X285190Y241300D03*
D16*
X510590Y165070D03*
X574090Y139670D03*
D17*
X586790Y215870D03*
X523290Y241270D03*
D16*
X721170Y154200D03*
X788115Y140212D03*
D17*
X787391Y217460D03*
X720445Y231448D03*
D16*
X908750Y187240D03*
X975695Y173252D03*
D17*
X974971Y250500D03*
X908025Y264488D03*
D16*
X1096400Y220340D03*
X1163345Y206352D03*
D17*
X1162621Y283600D03*
X1095675Y297588D03*
D16*
X1212680Y47390D03*
X1279625Y33402D03*
D17*
X1278901Y110650D03*
X1211955Y124638D03*
D16*
X1400310Y80460D03*
X1467255Y66472D03*
D17*
X1466531Y143720D03*
X1399585Y157708D03*
D16*
X1710698Y77312D03*
X1768823Y41271D03*
D17*
X1794562Y114108D03*
X1736437Y150149D03*
D16*
X1898298Y44212D03*
X1956423Y8171D03*
D17*
X1982162Y81008D03*
X1924037Y117049D03*
D16*
X2085878Y11172D03*
X2144003Y-24869D03*
D17*
X2169742Y47968D03*
X2111617Y84009D03*
D16*
X2273558Y-21928D03*
X2331683Y-57969D03*
D17*
X2357422Y14868D03*
X2299297Y50909D03*
D16*
X2482420Y-44780D03*
X2545920Y-70180D03*
D17*
X2558620Y6020D03*
X2495120Y31420D03*
D16*
X2672940Y-25370D03*
X2736440Y-50770D03*
D17*
X2749140Y25430D03*
X2685640Y50830D03*
D16*
X2863420Y-25430D03*
X2926920Y-50830D03*
D17*
X2939620Y25370D03*
X2876120Y50770D03*
D16*
X-38070Y-25430D03*
X25430Y-50830D03*
D17*
X38130Y25370D03*
X-25370Y50770D03*
D16*
X248670Y-25430D03*
X312170Y-50830D03*
D17*
X324870Y25370D03*
X261370Y50770D03*
D16*
X439220Y-25400D03*
X502720Y-50800D03*
D17*
X515420Y25400D03*
X451920Y50800D03*
D16*
X629640Y-44830D03*
X693140Y-70230D03*
D17*
X705840Y5970D03*
X642340Y31370D03*
D16*
X837500Y-18780D03*
X904445Y-32768D03*
D17*
X903721Y44480D03*
X836775Y58468D03*
D16*
X1025100Y14340D03*
X1092045Y352D03*
D17*
X1091321Y77600D03*
X1024375Y91588D03*
D16*
X3053944Y-25476D03*
X3117444Y-50876D03*
D17*
X3130144Y25324D03*
X3066644Y50724D03*
D18*
X1574200Y29490D03*
X1570200Y22490D03*
X1562200Y22490D03*
X1566200Y29490D03*
X1558200Y29490D03*
X1554200Y22490D03*
X1550200Y29490D03*
X1542200Y29490D03*
X1538200Y22490D03*
X1534200Y29490D03*
X1530200Y22490D03*
X1522200Y22490D03*
X1526200Y29490D03*
X1518200Y29490D03*
D19*
X1503500Y22990D02*
X1503500Y12990D01*
X1588900Y12990D02*
X1588900Y22990D01*
X1588900Y-24310D02*
X1588900Y-34310D01*
X1503500Y-34310D02*
X1503500Y-24310D01*
D20*
X2697000Y778500D03*
X2697000Y745500D03*
X2648000Y778500D03*
X2648000Y745500D03*
X2797000Y778500D03*
X2797000Y745500D03*
X2748000Y778500D03*
X2748000Y745500D03*
X2897000Y778500D03*
X2897000Y745500D03*
X2848000Y778500D03*
X2848000Y745500D03*
X395500Y745500D03*
X395500Y778500D03*
X444500Y745500D03*
X444500Y778500D03*
X295500Y745500D03*
X295500Y778500D03*
X344500Y745500D03*
X344500Y778500D03*
X195500Y745500D03*
X195500Y778500D03*
X244500Y745500D03*
X244500Y778500D03*
D21*
X1773617Y205265D03*
X1748603Y209675D03*
X1744192Y184661D03*
X1769206Y180251D03*
X1778028Y230279D03*
X1753014Y234689D03*
D22*
X1687271Y2718D03*
X1632915Y56744D03*
X1614449Y151499D03*
X2804998Y793346D03*
X2704109Y794337D03*
X2905379Y793575D03*
X192024Y730098D03*
X292786Y731495D03*
X393090Y731799D03*
X1636395Y198095D03*
X1677035Y210210D03*
X1591890Y51054D03*
X1521612Y140818D03*
X1545285Y59080D03*
X1553032Y77445D03*
X1545692Y70030D03*
X1593825Y96545D03*
X1502283Y95123D03*
X1651787Y170713D03*
X1487424Y288188D03*
X1583817Y332613D03*
X1608912Y205715D03*
X1557884Y144983D03*
X1492021Y250190D03*
X1525880Y290601D03*
X2688514Y824179D03*
X2787625Y824992D03*
X2892146Y824916D03*
X204267Y696849D03*
X304571Y697459D03*
X404393Y697687D03*
X1439316Y186233D03*
X1523111Y185674D03*
X1664995Y252908D03*
X1909750Y156235D03*
X1605305Y290220D03*
X1474292Y185674D03*
X1636827Y186055D03*
X1727079Y232912D03*
X1602171Y824900D03*
X1609423Y448640D03*
X1597386Y622529D03*
X1602568Y458748D03*
X1585595Y406984D03*
X1435938Y326387D03*
X1742796Y21361D03*
X1341145Y94031D03*
X-108229Y227838D03*
X-127203Y409346D03*
X-91237Y18237D03*
X1577594Y177038D03*
X1451094Y241950D03*
X206375Y284709D03*
X1592047Y179603D03*
X1459078Y249022D03*
X1732331Y222174D03*
X468503Y291338D03*
X675996Y293116D03*
X882523Y318973D03*
X1045642Y353060D03*
X1233018Y390423D03*
X1582649Y386651D03*
X1527708Y219354D03*
X1659153Y143993D03*
X2174820Y292282D03*
X1747266Y372135D03*
X1577518Y256362D03*
X2368169Y261391D03*
X1759915Y380213D03*
X1605661Y250520D03*
X2557653Y263119D03*
X1774622Y386029D03*
X1579369Y227358D03*
X2747696Y241376D03*
X1792104Y386252D03*
X1581658Y214401D03*
X2982747Y227406D03*
X1808277Y389001D03*
X1593825Y203479D03*
X3022261Y70866D03*
X1513662Y167183D03*
X1573733Y487705D03*
X2549347Y482346D03*
X2613635Y746531D03*
X2631262Y777418D03*
M02*
