0
SECTION
2
HEADER
9
$INSUNITS
70
4
9
$ACADVER
1
AC1014
9
$HANDSEED
5
FFFF
0
ENDSEC
0
SECTION
2
TABLES
0
TABLE
2
VPORT
5
8
100
AcDbSymbolTable
0
ENDTAB
0
TABLE
2
LTYPE
5
5
100
AcDbSymbolTable
0
LTYPE
5
14
100
AcDbSymbolTableRecord
100
AcDbLinetypeTableRecord
2
BYBLOCK
70
0
0
LTYPE
5
15
100
AcDbSymbolTableRecord
100
AcDbLinetypeTableRecord
2
BYLAYER
70
0
0
ENDTAB
0
TABLE
2
LAYER
5
2
100
AcDbSymbolTable
70
2
0
LAYER
5
50
100
AcDbSymbolTableRecord
100
AcDbLayerTableRecord
2
0
70
0
6
CONTINUOUS
0
ENDTAB
0
TABLE
2
STYLE
5
3
100
AcDbSymbolTable
70
1
0
STYLE
5
11
100
AcDbSymbolTableRecord
100
AcDbTextStyleTableRecord
2
STANDARD
70
0
0
ENDTAB
0
TABLE
2
VIEW
5
6
100
AcDbSymbolTable
70
0
0
ENDTAB
0
TABLE
2
UCS
5
7
100
AcDbSymbolTable
70
0
0
ENDTAB
0
TABLE
2
APPID
5
9
100
AcDbSymbolTable
70
2
0
APPID
5
12
100
AcDbSymbolTableRecord
100
AcDbRegAppTableRecord
2
ACAD
70
0
0
ENDTAB
0
TABLE
2
DIMSTYLE
5
A
100
AcDbSymbolTable
70
1
0
ENDTAB
0
TABLE
2
BLOCK_RECORD
5
1
100
AcDbSymbolTable
70
1
0
BLOCK_RECORD
5
1F
100
AcDbSymbolTableRecord
100
AcDbBlockTableRecord
2
*MODEL_SPACE
0
BLOCK_RECORD
5
1B
100
AcDbSymbolTableRecord
100
AcDbBlockTableRecord
2
*PAPER_SPACE
0
ENDTAB
0
ENDSEC
0
SECTION
2
BLOCKS
0
BLOCK
5
20
100
AcDbEntity
100
AcDbBlockBegin
2
*MODEL_SPACE
0
ENDBLK
5
21
100
AcDbEntity
100
AcDbBlockEnd
0
BLOCK
5
1C
100
AcDbEntity
100
AcDbBlockBegin
2
*PAPER_SPACE
0
ENDBLK
5
1D
100
AcDbEntity
100
AcDbBlockEnd
0
ENDSEC
0
SECTION
2
ENTITIES
0
CIRCLE
5
100
100
AcDbEntity
8
0
100
AcDbCircle
10
-287.24000000000035
20
76.19999999999996
30
0
40
3.0000000000000071
210
0
220
-0
230
1
0
CIRCLE
5
101
100
AcDbEntity
8
0
100
AcDbCircle
10
-21.951803705701405
20
76.199999999477484
30
0
40
2.9999999999999982
210
0
220
-0
230
1
0
CIRCLE
5
102
100
AcDbEntity
8
0
100
AcDbCircle
10
-277.24000000000035
20
76.19999999999996
30
0
40
3.0000000000000071
210
0
220
-0
230
1
0
CIRCLE
5
103
100
AcDbEntity
8
0
100
AcDbCircle
10
-41.951803705701408
20
76.199999999556255
30
0
40
2.9999999999999982
210
0
220
-0
230
1
0
CIRCLE
5
104
100
AcDbEntity
8
0
100
AcDbCircle
10
-31.951803705701405
20
76.199999999516862
30
0
40
2.9999999999999982
210
0
220
-0
230
1
0
CIRCLE
5
105
100
AcDbEntity
8
0
100
AcDbCircle
10
-267.24000000000035
20
76.19999999999996
30
0
40
3.0000000000000071
210
0
220
-0
230
1
0
CIRCLE
5
106
100
AcDbEntity
8
0
100
AcDbCircle
10
-31.951803705689954
20
83.449999999514887
30
0
40
1.2
210
0
220
-0
230
1
0
CIRCLE
5
107
100
AcDbEntity
8
0
100
AcDbCircle
10
15.915131908127025
20
24.875000000000043
30
0
40
1.2
210
0
220
-0
230
1
0
CIRCLE
5
108
100
AcDbEntity
8
0
100
AcDbCircle
10
-154.59590118333375
20
45.021749987379636
30
0
40
1.2
210
0
220
-0
230
1
0
CIRCLE
5
109
100
AcDbEntity
8
0
100
AcDbCircle
10
-272.97419968855473
20
-12.725000000000001
30
0
40
1.2
210
0
220
-0
230
1
0
CIRCLE
5
110
100
AcDbEntity
8
0
100
AcDbCircle
10
-277.23999999999933
20
83.450000000002774
30
0
40
1.2
210
0
220
-0
230
1
0
CIRCLE
5
111
100
AcDbEntity
8
0
100
AcDbCircle
10
-9.6188576018150229
20
38.099999997590587
30
0
40
1.2
210
0
220
-0
230
1
0
CIRCLE
5
112
100
AcDbEntity
8
0
100
AcDbCircle
10
-325.12961923057003
20
24.874999999999989
30
0
40
1.2
210
0
220
-0
230
1
0
CIRCLE
5
113
100
AcDbEntity
8
0
100
AcDbCircle
10
-46.250340428953749
20
-12.724999999999959
30
0
40
1.2
210
0
220
-0
230
1
0
ARC
5
114
100
AcDbEntity
8
0
100
AcDbCircle
10
-103.83513947046492
20
36.544259408934174
30
0
40
0.99999999999999933
210
0
220
0
230
1
100
AcDbArc
50
124.99999999999918
51
305.00000000000006
0
LINE
5
115
100
AcDbEntity
8
0
100
AcDbLine
10
-104.40871590681596
20
37.363411453223172
30
0
11
-102.46879262326757
21
48.365263016851692
31
0
0
ARC
5
116
100
AcDbEntity
8
0
100
AcDbCircle
10
-101.6496405910658
20
48.938839470465084
30
0
40
0.99999999999998557
210
0
220
-0
230
1
100
AcDbArc
50
34.999999999999297
51
215.00000120741862
0
LINE
5
117
100
AcDbEntity
8
0
100
AcDbLine
10
-100.83048854677682
20
49.512415906816109
30
0
11
-89.828636983148314
21
47.572492623267728
31
0
0
ARC
5
118
100
AcDbEntity
8
0
100
AcDbCircle
10
-89.255060529534944
20
46.753340591065957
30
0
40
1.0000000000000031
210
-0
220
0
230
1
100
AcDbArc
50
-55.000000000001059
51
125.00000120741764
0
LINE
5
119
100
AcDbEntity
8
0
100
AcDbLine
10
-88.681484093183911
20
45.934188546776952
30
0
11
-90.621407376732293
21
34.932336983148453
31
0
0
ARC
5
120
100
AcDbEntity
8
0
100
AcDbCircle
10
-91.440559408934064
20
34.358760529535076
30
0
40
0.99999999999999578
210
0
220
0
230
1
100
AcDbArc
50
-145.00000000000003
51
35.000001207417959
0
LINE
5
121
100
AcDbEntity
8
0
100
AcDbLine
10
-92.259711453223048
20
33.785184093184036
30
0
11
-103.26156303411388
21
35.725107364645183
31
0
0
ARC
5
122
100
AcDbEntity
8
0
100
AcDbCircle
10
-85.07453947046487
20
33.236259408934167
30
0
40
1.0000000000000024
210
0
220
0
230
1
100
AcDbArc
50
125.00000000000071
51
305.00000000000028
0
LINE
5
123
100
AcDbEntity
8
0
100
AcDbLine
10
-85.648115906815931
20
34.055411453223158
30
0
11
-83.70819262326755
21
45.057263016851685
31
0
0
ARC
5
124
100
AcDbEntity
8
0
100
AcDbCircle
10
-82.889040591065793
20
45.630839470465077
30
0
40
1
210
0
220
-0
230
1
100
AcDbArc
50
34.999999999998025
51
215.00000120741905
0
LINE
5
125
100
AcDbEntity
8
0
100
AcDbLine
10
-82.069888546776781
20
46.204415906816095
30
0
11
-71.068036983148289
21
44.264492623267735
31
0
0
ARC
5
126
100
AcDbEntity
8
0
100
AcDbCircle
10
-70.494460529534905
20
43.445340591065943
30
0
40
1.0000000000000009
210
-0
220
0
230
1
100
AcDbArc
50
-54.999999999999687
51
125.0000012074176
0
LINE
5
127
100
AcDbEntity
8
0
100
AcDbLine
10
-69.920884093183858
20
42.626188546776959
30
0
11
-71.86080737673224
21
31.62433698314846
31
0
0
ARC
5
128
100
AcDbEntity
8
0
100
AcDbCircle
10
-72.67995940893401
20
31.050760529535076
30
0
40
0.99999999999999845
210
0
220
0
230
1
100
AcDbArc
50
-145.00000000000034
51
35.000001207418293
0
LINE
5
129
100
AcDbEntity
8
0
100
AcDbLine
10
-73.499111453223009
20
30.477184093184032
30
0
11
-84.500963034113823
21
32.417107364645183
31
0
0
ARC
5
130
100
AcDbEntity
8
0
100
AcDbCircle
10
-70.686593218813286
20
50.857106781186552
30
0
40
1.0000000000000169
210
0
220
0
230
1
100
AcDbArc
50
135.0000000000006
51
315.00000000000057
0
LINE
5
131
100
AcDbEntity
8
0
100
AcDbLine
10
-71.393699999999853
20
51.564213562373105
30
0
11
-71.393699985098664
21
62.735786422725788
31
0
0
ARC
5
132
100
AcDbEntity
8
0
100
AcDbCircle
10
-70.686593218813286
20
63.442893218813495
30
0
40
1.0000000000000042
210
0
220
-0
230
1
100
AcDbArc
50
44.999999999999424
51
225.00000120741856
0
LINE
5
133
100
AcDbEntity
8
0
100
AcDbLine
10
-69.979486437626718
20
64.150000000000048
30
0
11
-58.8079135772741
21
64.149999985098859
31
0
0
ARC
5
134
100
AcDbEntity
8
0
100
AcDbCircle
10
-58.100806781186385
20
63.442893218813474
30
0
40
1.0000000000000042
210
0
220
0
230
1
100
AcDbArc
50
-44.999999999999694
51
135.00000120741856
0
LINE
5
135
100
AcDbEntity
8
0
100
AcDbLine
10
-57.393699999999832
20
62.735786437626928
30
0
11
-57.393700014901015
21
51.564213577274273
31
0
0
ARC
5
136
100
AcDbEntity
8
0
100
AcDbCircle
10
-58.100806781186392
20
50.857106781186559
30
0
40
0.999999999999998
210
0
220
0
230
1
100
AcDbArc
50
-135.00000000000031
51
45.000001207418848
0
LINE
5
137
100
AcDbEntity
8
0
100
AcDbLine
10
-58.807913562372946
20
50.150000000000013
30
0
11
-69.979486437626718
21
50.149999999999999
31
0
0
ARC
5
138
100
AcDbEntity
8
0
100
AcDbCircle
10
-34.967993218813447
20
-6.2928932188134272
30
0
40
1.0000000000000042
210
0
220
0
230
1
100
AcDbArc
50
135.00000000000031
51
315.00000000000028
0
LINE
5
139
100
AcDbEntity
8
0
100
AcDbLine
10
-35.6751
20
-5.5857864376268811
30
0
11
-35.675099985098832
21
5.5857864227258016
31
0
0
ARC
5
140
100
AcDbEntity
8
0
100
AcDbCircle
10
-34.967993218813447
20
6.2928932188135045
30
0
40
1.0000000000000004
210
0
220
-0
230
1
100
AcDbArc
50
44.999999999999673
51
225.00000120741808
0
LINE
5
141
100
AcDbEntity
8
0
100
AcDbLine
10
-34.260886437626894
20
7.0000000000000497
30
0
11
-23.089313577274257
21
6.9999999850988726
31
0
0
ARC
5
142
100
AcDbEntity
8
0
100
AcDbCircle
10
-22.382206781186547
20
6.2928932188134841
30
0
40
1.0000000000000004
210
0
220
0
230
1
100
AcDbArc
50
-45.000000000000099
51
135.00000120741828
0
LINE
5
143
100
AcDbEntity
8
0
100
AcDbLine
10
-21.6751
20
5.5857864376269353
30
0
11
-21.675100014901176
21
-5.5857864227257217
31
0
0
ARC
5
144
100
AcDbEntity
8
0
100
AcDbCircle
10
-22.382206781186561
20
-6.292893218813429
30
0
40
0.999999999999998
210
0
220
0
230
1
100
AcDbArc
50
-135
51
45.000001207418272
0
LINE
5
145
100
AcDbEntity
8
0
100
AcDbLine
10
-23.089313562373107
20
-6.9999999999999751
30
0
11
-34.260886437626894
21
-6.9999999999999734
31
0
0
ARC
5
146
100
AcDbEntity
8
0
100
AcDbCircle
10
-37.349193218813319
20
31.807106781186558
30
0
40
1.0000000000000042
210
0
220
0
230
1
100
AcDbArc
50
135.00000000000043
51
315.00000000000028
0
LINE
5
147
100
AcDbEntity
8
0
100
AcDbLine
10
-38.056299999999872
20
32.514213562373101
30
0
11
-38.056299985098704
21
43.685786422725783
31
0
0
ARC
5
148
100
AcDbEntity
8
0
100
AcDbCircle
10
-37.349193218813305
20
44.392893218813498
30
0
40
0.999999999999998
210
0
220
-0
230
1
100
AcDbArc
50
45
51
225.00000120741797
0
LINE
5
149
100
AcDbEntity
8
0
100
AcDbLine
10
-36.642086437626759
20
45.100000000000044
30
0
11
-25.470513577274126
21
45.099999985098862
31
0
0
ARC
5
150
100
AcDbEntity
8
0
100
AcDbCircle
10
-24.763406781186418
20
44.39289321881347
30
0
40
1.0000000000000042
210
0
220
0
230
1
100
AcDbArc
50
-45.000000000000306
51
135.00000120741799
0
LINE
5
151
100
AcDbEntity
8
0
100
AcDbLine
10
-24.056299999999872
20
43.685786437626916
30
0
11
-24.056300014901044
21
32.514213577274269
31
0
0
ARC
5
152
100
AcDbEntity
8
0
100
AcDbCircle
10
-24.763406781186433
20
31.807106781186562
30
0
40
1.0000000000000011
210
0
220
0
230
1
100
AcDbArc
50
-134.9999999999996
51
45.000001207418123
0
LINE
5
153
100
AcDbEntity
8
0
100
AcDbLine
10
-25.470513562372975
20
31.100000000000009
30
0
11
-36.642086437626766
21
31.100000000000012
31
0
0
LWPOLYLINE
5
154
100
AcDbEntity
8
0
100
AcDbPolyline
90
8
70
1
43
0.0
10
-72.360886437626903
20
-8.9401999999999902
42
-0.99999999999999989
10
-73.775100000000009
20
-7.5259864376268979
10
-73.775099985098834
20
3.6455864227257817
42
-1.0000000105367122
10
-72.360886437626888
20
5.0598000000000329
10
-61.189313577274255
20
5.0597999850988495
42
-1.0000000105367122
10
-59.775099999999995
20
3.6455864376269154
10
-59.77510001490117
20
-7.5259864227257438
42
-1.0000000105367122
10
-61.189313562373101
20
-8.9401999999999902
0
ARC
5
155
100
AcDbEntity
8
0
100
AcDbCircle
10
-82.718364470464834
20
13.476959408934107
30
0
40
0.99999999999999412
210
0
220
0
230
1
100
AcDbArc
50
125.00000000000018
51
304.99999999999943
0
LINE
5
156
100
AcDbEntity
8
0
100
AcDbLine
10
-83.291940906815881
20
14.296111453223094
30
0
11
-81.352017623267528
21
25.297963016851632
31
0
0
ARC
5
157
100
AcDbEntity
8
0
100
AcDbCircle
10
-80.532865591065757
20
25.871539470465009
30
0
40
0.99999999999999578
210
0
220
-0
230
1
100
AcDbArc
50
34.99999999999995
51
215.00000120741794
0
LINE
5
158
100
AcDbEntity
8
0
100
AcDbLine
10
-79.713713546776773
20
26.445115906816049
30
0
11
-68.711861983148282
21
24.505192623267696
31
0
0
ARC
5
159
100
AcDbEntity
8
0
100
AcDbCircle
10
-68.138285529534897
20
23.686040591065918
30
0
40
0.99999999999999933
210
-0
220
0
230
1
100
AcDbArc
50
-55.000000000000043
51
125.00000120741807
0
LINE
5
160
100
AcDbEntity
8
0
100
AcDbLine
10
-67.564709093183851
20
22.866888546776924
30
0
11
-69.504632376732204
21
11.865036983148425
31
0
0
ARC
5
161
100
AcDbEntity
8
0
100
AcDbCircle
10
-70.323784408933975
20
11.291460529535041
30
0
40
0.99999999999999967
210
0
220
0
230
1
100
AcDbArc
50
-145.0000000000002
51
35.000001207418293
0
LINE
5
162
100
AcDbEntity
8
0
100
AcDbLine
10
-71.142936453222973
20
10.717884093183994
30
0
11
-82.144788034113802
21
12.657807364645118
31
0
0
ARC
5
163
100
AcDbEntity
8
0
100
AcDbCircle
10
-94.349439470464944
20
-3.8160405910658737
30
0
40
1.0000000000000004
210
0
220
0
230
1
100
AcDbArc
50
125.00000000000094
51
305.00000000000028
0
LINE
5
164
100
AcDbEntity
8
0
100
AcDbLine
10
-94.923015906816005
20
-2.9968885467768889
30
0
11
-92.983092623267652
21
8.0049630168516437
31
0
0
ARC
5
165
100
AcDbEntity
8
0
100
AcDbCircle
10
-92.163940591065881
20
8.578539470465028
30
0
40
0.99999999999999134
210
0
220
-0
230
1
100
AcDbArc
50
34.999999999999083
51
215.00000120741831
0
LINE
5
166
100
AcDbEntity
8
0
100
AcDbLine
10
-91.344788546776883
20
9.1521159068160589
30
0
11
-80.342936983148391
21
7.2121926232677005
31
0
0
ARC
5
167
100
AcDbEntity
8
0
100
AcDbCircle
10
-79.769360529535021
20
6.3930405910659225
30
0
40
1.000000000000006
210
-0
220
0
230
1
100
AcDbArc
50
-54.999999999999282
51
125.0000012074174
0
LINE
5
168
100
AcDbEntity
8
0
100
AcDbLine
10
-79.19578409318396
20
5.5738885467769315
30
0
11
-81.135707376732313
21
-5.4279630168515709
31
0
0
ARC
5
169
100
AcDbEntity
8
0
100
AcDbCircle
10
-81.954859408934084
20
-6.0015394704649561
30
0
40
0.99999999999999845
210
0
220
0
230
1
100
AcDbArc
50
-145.00000000000028
51
35.000001207418322
0
LINE
5
170
100
AcDbEntity
8
0
100
AcDbLine
10
-82.774011453223082
20
-6.5751159068160003
30
0
11
-93.775863034113897
21
-4.6351926353548576
31
0
0
ARC
5
171
100
AcDbEntity
8
0
100
AcDbCircle
10
-113.110039470465
20
-0.50804059106584187
30
0
40
0.99999999999999822
210
0
220
0
230
1
100
AcDbArc
50
124.9999999999993
51
304.99999999999994
0
LINE
5
172
100
AcDbEntity
8
0
100
AcDbLine
10
-113.68361590681603
20
0.31111145322315226
30
0
11
-111.74369262326765
21
11.312963016851674
31
0
0
ARC
5
173
100
AcDbEntity
8
0
100
AcDbCircle
10
-110.92454059106588
20
11.886539470465054
30
0
40
0.99999999999999323
210
0
220
-0
230
1
100
AcDbArc
50
34.999999999999716
51
215.00000120741811
0
LINE
5
174
100
AcDbEntity
8
0
100
AcDbLine
10
-110.10538854677689
20
12.460115906816089
30
0
11
-99.103536983148388
21
10.520192623267704
31
0
0
ARC
5
175
100
AcDbEntity
8
0
100
AcDbCircle
10
-98.529960529535018
20
9.7010405910659223
30
0
40
0.99999999999999667
210
-0
220
0
230
1
100
AcDbArc
50
-55.000000000000647
51
125.0000012074173
0
LINE
5
176
100
AcDbEntity
8
0
100
AcDbLine
10
-97.956384093183985
20
8.8818885467769295
30
0
11
-99.896307376732366
21
-2.1199630168515657
31
0
0
ARC
5
177
100
AcDbEntity
8
0
100
AcDbCircle
10
-100.71545940893414
20
-2.69353947046495
30
0
40
0.99999999999999767
210
0
220
0
230
1
100
AcDbArc
50
-144.99999999999989
51
35.000001207418293
0
LINE
5
178
100
AcDbEntity
8
0
100
AcDbLine
10
-101.53461145322312
20
-3.2671159068159934
30
0
11
-112.53646303411395
21
-1.3271926353548358
31
0
0
ARC
5
179
100
AcDbEntity
8
0
100
AcDbCircle
10
-128.80133947046505
20
79.634259408934113
30
0
40
0.99999999999999289
210
0
220
0
230
1
100
AcDbArc
50
124.99999999999785
51
304.99999999999915
0
LINE
5
180
100
AcDbEntity
8
0
100
AcDbLine
10
-129.37491590681606
20
80.453411453223111
30
0
11
-127.43499262326772
21
91.455263016851646
31
0
0
ARC
5
181
100
AcDbEntity
8
0
100
AcDbCircle
10
-126.61584059106595
20
92.028839470465016
30
0
40
0.99999999999999578
210
0
220
-0
230
1
100
AcDbArc
50
34.999999999999169
51
215.00000120741763
0
LINE
5
182
100
AcDbEntity
8
0
100
AcDbLine
10
-125.79668854677695
20
92.602415906816049
30
0
11
-114.79483698314849
21
90.66249262326771
31
0
0
ARC
5
183
100
AcDbEntity
8
0
100
AcDbCircle
10
-114.22126052953509
20
89.843340591065939
30
0
40
0.99999999999999578
210
-0
220
0
230
1
100
AcDbArc
50
-55.000000000000142
51
125.00000120741896
0
LINE
5
184
100
AcDbEntity
8
0
100
AcDbLine
10
-113.64768409318404
20
89.024188546776941
30
0
11
-115.58760737673238
21
78.022336983148449
31
0
0
ARC
5
185
100
AcDbEntity
8
0
100
AcDbCircle
10
-116.40675940893415
20
77.448760529535051
30
0
40
0.99999999999999578
210
0
220
0
230
1
100
AcDbArc
50
-145.0000000000004
51
35.000001207418961
0
LINE
5
186
100
AcDbEntity
8
0
100
AcDbLine
10
-117.22591145322313
20
76.875184093184018
30
0
11
-128.22776303411402
21
78.815107364645115
31
0
0
ARC
5
187
100
AcDbEntity
8
0
100
AcDbCircle
10
-141.35633947046486
20
43.16025940893411
30
0
40
0.99999999999999578
210
0
220
0
230
1
100
AcDbArc
50
124.99999999999939
51
305.0000008537736
0
LINE
5
188
100
AcDbEntity
8
0
100
AcDbLine
10
-141.92991590681589
20
43.979411453223101
30
0
11
-139.98999262326754
21
54.981263016851628
31
0
0
ARC
5
189
100
AcDbEntity
8
0
100
AcDbCircle
10
-139.17084059106577
20
55.554839470464998
30
0
40
1.0000000000000155
210
0
220
-0
230
1
100
AcDbArc
50
34.999999999999368
51
215.00000120741763
0
LINE
5
190
100
AcDbEntity
8
0
100
AcDbLine
10
-138.35168854677676
20
56.128415906816045
30
0
11
-127.34983698314828
21
54.188492623267678
31
0
0
ARC
5
191
100
AcDbEntity
8
0
100
AcDbCircle
10
-126.77626052953488
20
53.369340591065907
30
0
40
1.0000000000000031
210
-0
220
0
230
1
100
AcDbArc
50
-55.000000000000853
51
125.00000120741896
0
LINE
5
192
100
AcDbEntity
8
0
100
AcDbLine
10
-126.20268409318385
20
52.550188546776909
30
0
11
-128.1426073767322
21
41.548336983148403
31
0
0
ARC
5
193
100
AcDbEntity
8
0
100
AcDbCircle
10
-128.96175940893397
20
40.974760529535025
30
0
40
0.99999999999999578
210
0
220
0
230
1
100
AcDbArc
50
-145.00000000000097
51
35.000001207417959
0
LINE
5
194
100
AcDbEntity
8
0
100
AcDbLine
10
-129.78091145322298
20
40.401184093183986
30
0
11
-140.7827630219075
21
42.341107373192074
31
0
0
LWPOLYLINE
5
195
100
AcDbEntity
8
0
100
AcDbPolyline
90
8
70
1
43
0.0
10
-66.67148643762674
20
69.200000000000003
42
-0.99999999999999989
10
-68.085699999999832
20
70.614213562373095
10
-68.085699985098657
20
81.785786422725749
42
-1.0000000105367122
10
-66.67148643762674
20
83.200000000000045
10
-55.4999135772741
20
83.199999985098827
42
-1.0000000105367122
10
-54.085699999999839
20
81.785786437626896
10
-54.085700014901015
20
70.614213577274271
42
-1.0000000105367122
10
-55.499913562372939
20
69.200000000000003
0
ARC
5
196
100
AcDbEntity
8
0
100
AcDbCircle
10
-61.161693218813326
20
12.757106781186568
30
0
40
1.0000000000000042
210
0
220
0
230
1
100
AcDbArc
50
135.00000000000031
51
315.00000000000028
0
LINE
5
197
100
AcDbEntity
8
0
100
AcDbLine
10
-61.868799999999879
20
13.464213562373114
30
0
11
-61.868799985098697
21
24.635786422725797
31
0
0
ARC
5
198
100
AcDbEntity
8
0
100
AcDbCircle
10
-61.161693218813312
20
25.342893218813501
30
0
40
1.0000000000000042
210
0
220
-0
230
1
100
AcDbArc
50
44.999999999999709
51
225.00000120741811
0
LINE
5
199
100
AcDbEntity
8
0
100
AcDbLine
10
-60.454586437626759
20
26.050000000000047
30
0
11
-49.283013577274126
21
26.049999985098864
31
0
0
ARC
5
200
100
AcDbEntity
8
0
100
AcDbCircle
10
-48.575906781186411
20
25.342893218813479
30
0
40
1.0000000000000011
210
0
220
0
230
1
100
AcDbArc
50
-45.000000000000156
51
135.00000120741856
0
LINE
5
201
100
AcDbEntity
8
0
100
AcDbLine
10
-47.868799999999865
20
24.63578643762693
30
0
11
-47.868800014901041
21
13.464213577274275
31
0
0
ARC
5
202
100
AcDbEntity
8
0
100
AcDbCircle
10
-48.575906781186418
20
12.757106781186568
30
0
40
0.99999999999999645
210
0
220
0
230
1
100
AcDbArc
50
-135.00000000000043
51
45.000001207418549
0
LINE
5
203
100
AcDbEntity
8
0
100
AcDbLine
10
-49.283013562372972
20
12.050000000000026
30
0
11
-60.454586437626773
21
12.050000000000022
31
0
0
ARC
5
204
100
AcDbEntity
8
0
100
AcDbCircle
10
-37.349193218813326
20
12.757106781186566
30
0
40
1.0000000000000011
210
0
220
0
230
1
100
AcDbArc
50
135
51
315.00000000000028
0
LINE
5
205
100
AcDbEntity
8
0
100
AcDbLine
10
-38.056299999999872
20
13.464213562373113
30
0
11
-38.056299985098704
21
24.635786422725793
31
0
0
ARC
5
206
100
AcDbEntity
8
0
100
AcDbCircle
10
-37.349193218813319
20
25.342893218813497
30
0
40
1.0000000000000011
210
0
220
-0
230
1
100
AcDbArc
50
44.999999999999709
51
225.00000120741811
0
LINE
5
207
100
AcDbEntity
8
0
100
AcDbLine
10
-36.642086437626766
20
26.050000000000043
30
0
11
-25.470513577274126
21
26.049999985098864
31
0
0
ARC
5
208
100
AcDbEntity
8
0
100
AcDbCircle
10
-24.763406781186422
20
25.342893218813476
30
0
40
1.0000000000000011
210
0
220
0
230
1
100
AcDbArc
50
-45.000000000000156
51
135.00000120741799
0
LINE
5
209
100
AcDbEntity
8
0
100
AcDbLine
10
-24.056299999999876
20
24.635786437626926
30
0
11
-24.056300014901044
21
13.464213577274274
31
0
0
ARC
5
210
100
AcDbEntity
8
0
100
AcDbCircle
10
-24.763406781186429
20
12.757106781186565
30
0
40
0.99999999999999967
210
0
220
0
230
1
100
AcDbArc
50
-134.99999999999994
51
45.000001207418336
0
LINE
5
211
100
AcDbEntity
8
0
100
AcDbLine
10
-25.470513562372975
20
12.050000000000017
30
0
11
-36.642086437626773
21
12.05000000000002
31
0
0
LWPOLYLINE
5
212
100
AcDbEntity
8
0
100
AcDbPolyline
90
8
70
1
43
0.0
10
-62.835786437626794
20
31.100000000000033
42
-0.99999999999999989
10
-64.249999999999901
20
32.514213562373115
10
-64.249999985098725
20
43.685786422725812
42
-1.0000000105367122
10
-62.83578643762678
20
45.100000000000051
10
-51.664213577274147
20
45.099999985098876
42
-1.0000000105367122
10
-50.249999999999886
20
43.68578643762693
10
-50.250000014901062
20
32.514213577274276
42
-1.0000000105367122
10
-51.664213562372993
20
31.100000000000026
0
ARC
5
213
100
AcDbEntity
8
0
100
AcDbCircle
10
-54.017993218813459
20
-6.2928932188134254
30
0
40
1.0000000000000042
210
0
220
0
230
1
100
AcDbArc
50
135.00000000000031
51
315.00000000000028
0
LINE
5
214
100
AcDbEntity
8
0
100
AcDbLine
10
-54.725100000000012
20
-5.5857864376268793
30
0
11
-54.725099985098836
21
5.5857864227258016
31
0
0
ARC
5
215
100
AcDbEntity
8
0
100
AcDbCircle
10
-54.017993218813452
20
6.2928932188135072
30
0
40
1.0000000000000036
210
0
220
-0
230
1
100
AcDbArc
50
44.999999999999638
51
225.00000120741819
0
LINE
5
216
100
AcDbEntity
8
0
100
AcDbLine
10
-53.310886437626898
20
7.0000000000000515
30
0
11
-42.139313577274258
21
6.9999999850988726
31
0
0
ARC
5
217
100
AcDbEntity
8
0
100
AcDbCircle
10
-41.432206781186551
20
6.2928932188134823
30
0
40
0.99999999999999878
210
0
220
0
230
1
100
AcDbArc
50
-45.00000000000005
51
135.00000120741805
0
LINE
5
218
100
AcDbEntity
8
0
100
AcDbLine
10
-40.725100000000005
20
5.5857864376269353
30
0
11
-40.725100014901173
21
-5.5857864227257217
31
0
0
ARC
5
219
100
AcDbEntity
8
0
100
AcDbCircle
10
-41.432206781186558
20
-6.292893218813429
30
0
40
0.99999999999999556
210
0
220
0
230
1
100
AcDbArc
50
-135.00000000000017
51
45.000001207418272
0
LINE
5
220
100
AcDbEntity
8
0
100
AcDbLine
10
-42.139313562373104
20
-6.9999999999999716
30
0
11
-53.310886437626905
21
-6.9999999999999716
31
0
0
ARC
5
221
100
AcDbEntity
8
0
100
AcDbCircle
10
-101.47893947046482
20
16.784959408934125
30
0
40
0.99999999999999578
210
0
220
0
230
1
100
AcDbArc
50
124.99999999999939
51
305.00000000000011
0
LINE
5
222
100
AcDbEntity
8
0
100
AcDbLine
10
-102.05251590681586
20
17.604111453223116
30
0
11
-100.11259262326752
21
28.60596301685165
31
0
0
ARC
5
223
100
AcDbEntity
8
0
100
AcDbCircle
10
-99.293440591065746
20
29.179539470465041
30
0
40
0.99999999999998812
210
0
220
-0
230
1
100
AcDbArc
50
34.999999999998828
51
215.00000120741862
0
LINE
5
224
100
AcDbEntity
8
0
100
AcDbLine
10
-98.474288546776748
20
29.753115906816067
30
0
11
-87.472436983148256
21
27.81319262326771
31
0
0
ARC
5
225
100
AcDbEntity
8
0
100
AcDbCircle
10
-86.898860529534858
20
26.994040591065932
30
0
40
0.99999999999999933
210
-0
220
0
230
1
100
AcDbArc
50
-55.000000000000703
51
125.00000120741872
0
LINE
5
226
100
AcDbEntity
8
0
100
AcDbLine
10
-86.325284093183825
20
26.174888546776938
30
0
11
-88.265207376732192
21
15.173036983148435
31
0
0
ARC
5
227
100
AcDbEntity
8
0
100
AcDbCircle
10
-89.084359408933963
20
14.599460529535053
30
0
40
0.99999999999999967
210
0
220
0
230
1
100
AcDbArc
50
-144.99999999999977
51
35.000001207418208
0
LINE
5
228
100
AcDbEntity
8
0
100
AcDbLine
10
-89.903511453222947
20
14.025884093184008
30
0
11
-100.90536303411378
21
15.965807364645135
31
0
0
ARC
5
229
100
AcDbEntity
8
0
100
AcDbCircle
10
-92.243039470464794
20
53.844159408934146
30
0
40
1.0000000000000031
210
0
220
0
230
1
100
AcDbArc
50
124.99999999999918
51
304.99999999999915
0
LINE
5
230
100
AcDbEntity
8
0
100
AcDbLine
10
-92.816615906815827
20
54.663311453223145
30
0
11
-90.876692623267473
21
65.665163016851665
31
0
0
ARC
5
231
100
AcDbEntity
8
0
100
AcDbCircle
10
-90.057540591065674
20
66.238739470465035
30
0
40
1.0000000000000102
210
0
220
-0
230
1
100
AcDbArc
50
34.999999999999822
51
215.00000120741666
0
LINE
5
232
100
AcDbEntity
8
0
100
AcDbLine
10
-89.238388546776676
20
66.812315906816082
30
0
11
-78.236536983148213
21
64.872392623267714
31
0
0
ARC
5
233
100
AcDbEntity
8
0
100
AcDbCircle
10
-77.662960529534828
20
64.053240591065943
30
0
40
0.99999999999999578
210
-0
220
0
230
1
100
AcDbArc
50
-55.000000000000604
51
125.00000120741832
0
LINE
5
234
100
AcDbEntity
8
0
100
AcDbLine
10
-77.089384093183796
20
63.234088546776952
30
0
11
-79.029307376732149
21
52.232236983148454
31
0
0
ARC
5
235
100
AcDbEntity
8
0
100
AcDbCircle
10
-79.84845940893392
20
51.658660529535069
30
0
40
1.0000000000000009
210
0
220
0
230
1
100
AcDbArc
50
-144.99999999999972
51
35.000001207418293
0
LINE
5
236
100
AcDbEntity
8
0
100
AcDbLine
10
-80.667611453222904
20
51.085084093184022
30
0
11
-91.669463034113761
21
53.025007364645148
31
0
0
ARC
5
237
100
AcDbEntity
8
0
100
AcDbCircle
10
-111.00363947046482
20
57.15215940893416
30
0
40
1.000000000000006
210
0
220
0
230
1
100
AcDbArc
50
125.00000000000071
51
305.00000000000074
0
LINE
5
238
100
AcDbEntity
8
0
100
AcDbLine
10
-111.57721590681588
20
57.971311453223151
30
0
11
-109.63729262326748
21
68.973163016851672
31
0
0
ARC
5
239
100
AcDbEntity
8
0
100
AcDbCircle
10
-108.81814059106571
20
69.546739470465056
30
0
40
0.99999999999999578
210
0
220
-0
230
1
100
AcDbArc
50
34.999999999999822
51
215.00000120741831
0
LINE
5
240
100
AcDbEntity
8
0
100
AcDbLine
10
-107.99898854677672
20
70.120315906816103
30
0
11
-96.997136983148224
21
68.180392623267721
31
0
0
ARC
5
241
100
AcDbEntity
8
0
100
AcDbCircle
10
-96.423560529534853
20
67.361240591065965
30
0
40
1.0000000000000073
210
-0
220
0
230
1
100
AcDbArc
50
-55.000000000001769
51
125.00000120741809
0
LINE
5
242
100
AcDbEntity
8
0
100
AcDbLine
10
-95.849984093183821
20
66.542088546776938
30
0
11
-97.789907376732188
21
55.540236983148446
31
0
0
ARC
5
243
100
AcDbEntity
8
0
100
AcDbCircle
10
-98.609059408933959
20
54.966660529535069
30
0
40
1.0000000000000009
210
0
220
0
230
1
100
AcDbArc
50
-144.99999999999983
51
35.000001207417959
0
LINE
5
244
100
AcDbEntity
8
0
100
AcDbLine
10
-99.428211453222957
20
54.393084093184015
30
0
11
-110.43006303411376
21
56.333007364645169
31
0
0
ARC
5
245
100
AcDbEntity
8
0
100
AcDbCircle
10
-39.730343218813289
20
50.857106781186552
30
0
40
1.0000000000000042
210
0
220
0
230
1
100
AcDbArc
50
135.00000000000031
51
315.00000000000028
0
LINE
5
246
100
AcDbEntity
8
0
100
AcDbLine
10
-40.437449999999842
20
51.564213562373098
30
0
11
-40.437449985098667
21
62.735786422725781
31
0
0
ARC
5
247
100
AcDbEntity
8
0
100
AcDbCircle
10
-39.730343218813275
20
63.442893218813488
30
0
40
0.999999999999998
210
0
220
-0
230
1
100
AcDbArc
50
45
51
225.00000120741797
0
LINE
5
248
100
AcDbEntity
8
0
100
AcDbLine
10
-39.023236437626728
20
64.150000000000034
30
0
11
-27.851663577274095
21
64.149999985098859
31
0
0
ARC
5
249
100
AcDbEntity
8
0
100
AcDbCircle
10
-27.144556781186388
20
63.442893218813467
30
0
40
1.0000000000000042
210
0
220
0
230
1
100
AcDbArc
50
-45.000000000000561
51
135.00000120741799
0
LINE
5
250
100
AcDbEntity
8
0
100
AcDbLine
10
-26.437449999999842
20
62.735786437626906
30
0
11
-26.437450014901014
21
51.564213577274259
31
0
0
ARC
5
251
100
AcDbEntity
8
0
100
AcDbCircle
10
-27.144556781186399
20
50.857106781186559
30
0
40
1.0000000000000042
210
0
220
0
230
1
100
AcDbArc
50
-134.99999999999972
51
45.000001207417974
0
LINE
5
252
100
AcDbEntity
8
0
100
AcDbLine
10
-27.851663562372945
20
50.150000000000006
30
0
11
-39.023236437626736
21
50.150000000000006
31
0
0
ARC
5
253
100
AcDbEntity
8
0
100
AcDbCircle
10
-131.87063947046494
20
2.799959408934154
30
0
40
0.999999999999998
210
0
220
0
230
1
100
AcDbArc
50
125.00000000000064
51
304.99999999999932
0
LINE
5
254
100
AcDbEntity
8
0
100
AcDbLine
10
-132.444215906816
20
3.6191114532231476
30
0
11
-130.50429262326762
21
14.620963016851668
31
0
0
ARC
5
255
100
AcDbEntity
8
0
100
AcDbCircle
10
-129.68514059106585
20
15.194539470465049
30
0
40
0.99999999999999323
210
0
220
-0
230
1
100
AcDbArc
50
34.999999999998856
51
215.00000120741811
0
LINE
5
256
100
AcDbEntity
8
0
100
AcDbLine
10
-128.86598854677683
20
15.768115906816085
30
0
11
-117.86413698314834
21
13.828192623267698
31
0
0
ARC
5
257
100
AcDbEntity
8
0
100
AcDbCircle
10
-117.29056052953497
20
13.009040591065915
30
0
40
0.99999999999999578
210
-0
220
0
230
1
100
AcDbArc
50
-55.000000000000604
51
125.00000120741721
0
LINE
5
258
100
AcDbEntity
8
0
100
AcDbLine
10
-116.71698409318394
20
12.189888546776924
30
0
11
-118.65690737673232
21
1.1880369831484305
31
0
0
ARC
5
259
100
AcDbEntity
8
0
100
AcDbCircle
10
-119.47605940893409
20
0.61446052953504582
30
0
40
0.99999999999999822
210
0
220
0
230
1
100
AcDbArc
50
-144.99999999999986
51
35.000001207418308
0
LINE
5
260
100
AcDbEntity
8
0
100
AcDbLine
10
-120.29521145322308
20
0.040884093184001893
30
0
11
-131.2970630341139
21
1.9808073646451603
31
0
0
LWPOLYLINE
5
261
100
AcDbEntity
8
0
100
AcDbPolyline
90
8
70
1
43
0.0
10
-41.77494999999994
20
49.149999999999991
42
-0.41421356237309503
10
-42.77494999999994
20
48.149999999999991
10
-47.899949999999961
20
48.149999999999991
42
-0.41421356237309503
10
-48.899949999999954
20
49.149999999999991
10
-48.899949999999954
20
63.149999999999991
42
-0.41421356237309503
10
-47.899949999999961
20
64.149999999999991
10
-42.77494999999994
20
64.149999999999991
42
-0.41421356237309243
10
-41.77494999999994
20
63.150000000000006
0
LWPOLYLINE
5
262
100
AcDbEntity
8
0
100
AcDbPolyline
90
8
70
1
43
0.0
10
-24.099949999999957
20
48.149999999999991
42
-0.41421356237309503
10
-25.099949999999961
20
49.149999999999991
10
-25.09994999999995
20
63.149999999999991
42
-0.41421356237310025
10
-24.099949999999954
20
64.149999999999991
10
-18.974949999999939
20
64.149999999999991
42
-0.4142135623730957
10
-17.974949999999939
20
63.149999999999991
10
-17.974949999999946
20
49.149999999999991
42
-0.41421356237309503
10
-18.974949999999943
20
48.149999999999991
0
ARC
5
263
100
AcDbEntity
8
0
100
AcDbCircle
10
-148.52483947046485
20
63.768159408934181
30
0
40
0.99999999999999578
210
0
220
0
230
1
100
AcDbArc
50
124.99999999999963
51
304.99999999999937
0
LINE
5
264
100
AcDbEntity
8
0
100
AcDbLine
10
-149.09841590681589
20
64.587311453223165
30
0
11
-147.15849262326751
21
75.5891630168517
31
0
0
ARC
5
265
100
AcDbEntity
8
0
100
AcDbCircle
10
-146.33934059106573
20
76.162739470465098
30
0
40
0.99999999999998557
210
0
220
-0
230
1
100
AcDbArc
50
34.999999999998956
51
215.00000120741896
0
LINE
5
266
100
AcDbEntity
8
0
100
AcDbLine
10
-145.52018854677675
20
76.736315906816117
30
0
11
-134.51833698314826
21
74.796392623267735
31
0
0
ARC
5
267
100
AcDbEntity
8
0
100
AcDbCircle
10
-133.94476052953488
20
73.97724059106595
30
0
40
0.99999999999999578
210
-0
220
0
230
1
100
AcDbArc
50
-55.000000000000348
51
125.00000120741784
0
LINE
5
268
100
AcDbEntity
8
0
100
AcDbLine
10
-133.37118409318384
20
73.158088546776966
30
0
11
-135.31110737673222
21
62.15623698314846
31
0
0
ARC
5
269
100
AcDbEntity
8
0
100
AcDbCircle
10
-136.13025940893399
20
61.582660529535069
30
0
40
0.99999999999999079
210
0
220
0
230
1
100
AcDbArc
50
-145.0000000000004
51
35.000001207418627
0
LINE
5
270
100
AcDbEntity
8
0
100
AcDbLine
10
-136.94941145322298
20
61.009084093184036
30
0
11
-147.95126303411382
21
62.94900736464519
31
0
0
ARC
5
271
100
AcDbEntity
8
0
100
AcDbCircle
10
-120.23953947046486
20
20.092959408934135
30
0
40
1.0000000000000095
210
0
220
0
230
1
100
AcDbArc
50
125.00000000000051
51
304.99999914622651
0
LINE
5
272
100
AcDbEntity
8
0
100
AcDbLine
10
-120.81311590681592
20
20.912111453223133
30
0
11
-118.87319262326756
21
31.91396301685166
31
0
0
ARC
5
273
100
AcDbEntity
8
0
100
AcDbCircle
10
-118.05404059106577
20
32.487539470465045
30
0
40
0.99999999999999578
210
0
220
-0
230
1
100
AcDbArc
50
34.999999999999488
51
215.0000012074178
0
LINE
5
274
100
AcDbEntity
8
0
100
AcDbLine
10
-117.23488854677677
20
33.061115906816084
30
0
11
-106.2330369831483
21
31.12119262326771
31
0
0
ARC
5
275
100
AcDbEntity
8
0
100
AcDbCircle
10
-105.65946052953491
20
30.302040591065929
30
0
40
1.000000000000006
210
-0
220
0
230
1
100
AcDbArc
50
-54.999999999999282
51
125.00000120741795
0
LINE
5
276
100
AcDbEntity
8
0
100
AcDbLine
10
-105.08588409318385
20
29.482888546776937
30
0
11
-107.02580737673223
21
18.481036983148435
31
0
0
ARC
5
277
100
AcDbEntity
8
0
100
AcDbCircle
10
-107.844959408934
20
17.907460529535047
30
0
40
0.99999999999999079
210
0
220
0
230
1
100
AcDbArc
50
-145.00000000000102
51
35.000001207418457
0
LINE
5
278
100
AcDbEntity
8
0
100
AcDbLine
10
-108.664111453223
20
17.333884093184018
30
0
11
-119.66596304632013
21
19.273807356098189
31
0
0
LWPOLYLINE
5
279
100
AcDbEntity
8
0
100
AcDbPolyline
90
8
70
1
43
0.0
10
-131.11132006207481
20
78.308129657200382
42
-0.4142135623731053
10
-132.26977599275392
20
77.496970081855096
10
-137.31691572694152
20
78.386916992398113
42
-0.41421356237310314
10
-138.12807530228679
20
79.545372923077252
10
-135.6970008149498
20
93.332681465248172
42
-0.41421356237308987
10
-134.53854488427066
20
94.143841040593458
10
-129.49140515008307
20
93.25389413005044
42
-0.4142135623731053
10
-128.6802455747378
20
92.095438199371316
0
LWPOLYLINE
5
280
100
AcDbEntity
8
0
100
AcDbPolyline
90
8
70
1
43
0.0
10
-113.87849120525097
20
74.254090363925201
42
-0.41421356237309764
10
-114.68965078059625
20
75.41254629460434
10
-112.25857629325924
20
89.199854836775273
42
-0.4142135623731053
10
-111.10012036258011
20
90.011014412120559
10
-106.05298062839252
20
89.121067501577542
42
-0.41421356237308987
10
-105.24182105304725
20
87.962611570898417
10
-107.67289554038425
20
74.175303028727484
42
-0.41421356237309293
10
-108.83135147106339
20
73.364143453382198
0
ARC
5
281
100
AcDbEntity
8
0
100
AcDbCircle
10
-91.280089470464787
20
73.018259408934085
30
0
40
0.99999999999999578
210
0
220
0
230
1
100
AcDbArc
50
124.99999999999963
51
305.00000000000028
0
LINE
5
282
100
AcDbEntity
8
0
100
AcDbLine
10
-91.85366590681582
20
73.837411453223069
30
0
11
-89.913742623267467
21
84.839263016851604
31
0
0
ARC
5
283
100
AcDbEntity
8
0
100
AcDbCircle
10
-89.094590591065696
20
85.412839470464974
30
0
40
1.0000000000000204
210
0
220
-0
230
1
100
AcDbArc
50
35.000000000000504
51
215.00000120741763
0
LINE
5
284
100
AcDbEntity
8
0
100
AcDbLine
10
-88.275438546776698
20
85.986415906816035
30
0
11
-77.27358698314822
21
84.046492623267682
31
0
0
ARC
5
285
100
AcDbEntity
8
0
100
AcDbCircle
10
-76.700010529534836
20
83.227340591065911
30
0
40
0.99999999999999578
210
-0
220
0
230
1
100
AcDbArc
50
-55.000000000000142
51
125.00000120741832
0
LINE
5
286
100
AcDbEntity
8
0
100
AcDbLine
10
-76.126434093183789
20
82.408188546776913
30
0
11
-78.066357376732157
21
71.406336983148407
31
0
0
ARC
5
287
100
AcDbEntity
8
0
100
AcDbCircle
10
-78.885509408933927
20
70.832760529535022
30
0
40
1.0000000000000009
210
0
220
0
230
1
100
AcDbArc
50
-144.99999999999906
51
35.000001207418293
0
LINE
5
288
100
AcDbEntity
8
0
100
AcDbLine
10
-79.704661453222911
20
70.259184093183961
30
0
11
-90.70651303411374
21
72.199107364645101
31
0
0
ARC
5
289
100
AcDbEntity
8
0
100
AcDbCircle
10
-150.63123947046483
20
6.1079594089341072
30
0
40
1.0000000000000104
210
0
220
0
230
1
100
AcDbArc
50
125.00000000000057
51
304.99999999999926
0
LINE
5
290
100
AcDbEntity
8
0
100
AcDbLine
10
-151.2048159068159
20
6.9271114532231035
30
0
11
-149.26489262326754
21
17.928963016851633
31
0
0
ARC
5
291
100
AcDbEntity
8
0
100
AcDbCircle
10
-148.44574059106577
20
18.502539470465017
30
0
40
0.99999999999999845
210
0
220
-0
230
1
100
AcDbArc
50
35.000000000000128
51
215.00000120741831
0
LINE
5
292
100
AcDbEntity
8
0
100
AcDbLine
10
-147.62658854677679
20
19.07611590681606
30
0
11
-136.6247369831483
21
17.136192623267686
31
0
0
ARC
5
293
100
AcDbEntity
8
0
100
AcDbCircle
10
-136.05116052953491
20
16.317040591065911
30
0
40
1.0000000000000095
210
-0
220
0
230
1
100
AcDbArc
50
-54.999999999999432
51
125.00000120741819
0
LINE
5
294
100
AcDbEntity
8
0
100
AcDbLine
10
-135.47758409318385
20
15.497888546776915
30
0
11
-137.4175073767322
21
4.4960369831484126
31
0
0
ARC
5
295
100
AcDbEntity
8
0
100
AcDbCircle
10
-138.23665940893397
20
3.9224605295350301
30
0
40
0.99999999999999967
210
0
220
0
230
1
100
AcDbArc
50
-145.00000000000065
51
35.000001207418208
0
LINE
5
296
100
AcDbEntity
8
0
100
AcDbLine
10
-139.05581145322299
20
3.3488840931839836
30
0
11
-150.0576630341138
21
5.2888073646451108
31
0
0
ARC
5
297
100
AcDbEntity
8
0
100
AcDbCircle
10
-139.00013947046483
20
23.400959408934099
30
0
40
1.0000000000000024
210
0
220
0
230
1
100
AcDbArc
50
124.99999999999952
51
304.99999914622674
0
LINE
5
298
100
AcDbEntity
8
0
100
AcDbLine
10
-139.57371590681586
20
24.220111453223087
30
0
11
-137.63379262326751
21
35.221963016851618
31
0
0
ARC
5
299
100
AcDbEntity
8
0
100
AcDbCircle
10
-136.81464059106574
20
35.795539470465002
30
0
40
0.99999999999998812
210
0
220
-0
230
1
100
AcDbArc
50
34.999999999999623
51
215.00000120741831
0
LINE
5
300
100
AcDbEntity
8
0
100
AcDbLine
10
-135.99548854677676
20
36.369115906816035
30
0
11
-124.99363698314825
21
34.429192623267674
31
0
0
ARC
5
301
100
AcDbEntity
8
0
100
AcDbCircle
10
-124.42006052953488
20
33.610040591065903
30
0
40
1.0000000000000133
210
-0
220
0
230
1
100
AcDbArc
50
-54.999999999999481
51
125.00000120741764
0
LINE
5
302
100
AcDbEntity
8
0
100
AcDbLine
10
-123.84648409318382
20
32.790888546776905
30
0
11
-125.78640737673219
21
21.789036983148407
31
0
0
ARC
5
303
100
AcDbEntity
8
0
100
AcDbCircle
10
-126.60555940893396
20
21.215460529535022
30
0
40
1.0000000000000009
210
0
220
0
230
1
100
AcDbArc
50
-145.0000000000002
51
35.000001207418293
0
LINE
5
304
100
AcDbEntity
8
0
100
AcDbLine
10
-127.42471145322295
20
20.641884093183975
30
0
11
-138.4265630463201
21
22.58180735609816
31
0
0
ARC
5
305
100
AcDbEntity
8
0
100
AcDbCircle
10
-122.59573947046485
20
39.85225940893416
30
0
40
0.99999999999999933
210
0
220
0
230
1
100
AcDbArc
50
124.99999999999983
51
304.99999999999915
0
LINE
5
306
100
AcDbEntity
8
0
100
AcDbLine
10
-123.1693159068159
20
40.671411453223158
30
0
11
-121.22939262326753
21
51.673263016851685
31
0
0
ARC
5
307
100
AcDbEntity
8
0
100
AcDbCircle
10
-120.41024059106574
20
52.246839470465062
30
0
40
1.0000000000000102
210
0
220
-0
230
1
100
AcDbArc
50
34.999999999998693
51
215.00000120741751
0
LINE
5
308
100
AcDbEntity
8
0
100
AcDbLine
10
-119.59108854677673
20
52.820415906816095
30
0
11
-108.58923698314827
21
50.880492623267735
31
0
0
ARC
5
309
100
AcDbEntity
8
0
100
AcDbCircle
10
-108.0156605295349
20
50.061340591065964
30
0
40
1.0000000000000133
210
-0
220
0
230
1
100
AcDbArc
50
-54.999999999999481
51
125.00000120741764
0
LINE
5
310
100
AcDbEntity
8
0
100
AcDbLine
10
-107.44208409318384
20
49.242188546776966
30
0
11
-109.3820073767322
21
38.240336983148467
31
0
0
ARC
5
311
100
AcDbEntity
8
0
100
AcDbCircle
10
-110.20115940893398
20
37.666760529535082
30
0
40
0.99999999999999845
210
0
220
0
230
1
100
AcDbArc
50
-145.0000000000002
51
35.000001207418293
0
LINE
5
312
100
AcDbEntity
8
0
100
AcDbLine
10
-111.02031145322297
20
37.093184093184036
30
0
11
-122.02216303411382
21
39.033107364645161
31
0
0
ARC
5
313
100
AcDbEntity
8
0
100
AcDbCircle
10
-129.76423947046484
20
60.460159408934153
30
0
40
0.99999999999999578
210
0
220
0
230
1
100
AcDbArc
50
124.99999999999939
51
305.00000085377383
0
LINE
5
314
100
AcDbEntity
8
0
100
AcDbLine
10
-130.33781590681588
20
61.279311453223144
30
0
11
-128.3978926232675
21
72.281163016851664
31
0
0
ARC
5
315
100
AcDbEntity
8
0
100
AcDbCircle
10
-127.57874059106572
20
72.854739470465063
30
0
40
0.99999999999999079
210
0
220
-0
230
1
100
AcDbArc
50
34.999999999999623
51
215.00000120741896
0
LINE
5
316
100
AcDbEntity
8
0
100
AcDbLine
10
-126.75958854677674
20
73.428315906816096
30
0
11
-115.75773698314825
21
71.488392623267714
31
0
0
ARC
5
317
100
AcDbEntity
8
0
100
AcDbCircle
10
-115.18416052953486
20
70.669240591065943
30
0
40
1
210
-0
220
0
230
1
100
AcDbArc
50
-55.000000000001975
51
125.00000120741832
0
LINE
5
318
100
AcDbEntity
8
0
100
AcDbLine
10
-114.61058409318385
20
69.850088546776931
30
0
11
-116.55050737673221
21
58.848236983148439
31
0
0
ARC
5
319
100
AcDbEntity
8
0
100
AcDbCircle
10
-117.36965940893398
20
58.274660529535048
30
0
40
0.99999999999999578
210
0
220
0
230
1
100
AcDbArc
50
-145.00000000000003
51
35.000001207418627
0
LINE
5
320
100
AcDbEntity
8
0
100
AcDbLine
10
-118.18881145322297
20
57.701084093184008
30
0
11
-129.19066302190748
21
59.641007373192124
31
0
0
LWPOLYLINE
5
321
100
AcDbEntity
8
0
100
AcDbPolyline
90
30
70
1
43
0.0
10
23.088860562716459
20
77.638375573435994
10
15.43068236936023
20
-3.7617468590429768
42
-0.17464212066328033
10
13.757400951910252
20
-7.319697280899895
10
7.8508789019282332
20
-13.226219330881934
42
-0.1989123673796572
10
3.7496595710462621
20
-14.924999999999962
10
-80.443407091370631
20
-14.924999999999976
10
-137.44800328031639
20
-4.7783006783596793
10
-171.75249172182717
20
-4.7781993216323677
10
-228.75699553288166
20
-14.924999999999994
10
-312.97419968855473
20
-14.92499999999999
42
-0.19891236737965695
10
-317.07541901943671
20
-13.226219330881985
10
-322.30094029467341
20
-8.0006980556453993
42
-0.46441825408727755
10
-321.94127286977505
20
-3.7371945307278676
10
-320.81465492252698
20
-2.9378521196960095
42
0.26794919243110693
10
-319.48031919619234
20
-0.029321877558946552
10
-319.62368402391098
20
1.4998708424066731
42
0.26794919243111409
10
-321.47537723810967
20
4.1097045996583903
10
-324.09919086036609
20
5.3134219290157993
42
-0.26794919243112608
10
-325.71942242278999
20
7.5970264666110054
10
-332.2860340489168
20
77.63941310568174
42
-0.22332462361135028
10
-330.61257592508184
20
82.282019815418721
10
-323.75777640961866
20
89.136819330881863
42
-0.198912367379664
10
-319.65655707873663
20
90.835599999999914
10
-238.46040459999102
20
90.835599999999928
10
-171.34350841104552
20
102.78239932163274
10
-137.95739664541736
20
102.78230067835943
10
-70.840292834363325
20
90.835599999999985
10
10.460404296845427
20
90.835599999999999
42
-0.19891236737965706
10
14.561623627727405
20
89.136819330881991
10
21.415579145266413
20
82.282863813343027
42
-0.22341014507797993
0
CIRCLE
5
322
100
AcDbEntity
8
0
100
AcDbCircle
10
-14.337549999999975
20
2.6737201100939408e-14
30
0
40
3.9999999999999991
210
0
220
0
230
1
0
CIRCLE
5
323
100
AcDbEntity
8
0
100
AcDbCircle
10
-154.59590185284947
20
77.146399999999971
30
0
40
4.0000000000000036
210
-0
220
0
230
1
0
CIRCLE
5
324
100
AcDbEntity
8
0
100
AcDbCircle
10
-297.7399999999999
20
76.199999999999932
30
0
40
3.9999999999999858
210
0
220
0
230
1
0
CIRCLE
5
325
100
AcDbEntity
8
0
100
AcDbCircle
10
-154.59590185288096
20
55.146399999999964
30
0
40
3.499999999999996
210
0
220
0
230
1
0
CIRCLE
5
326
100
AcDbEntity
8
0
100
AcDbCircle
10
-11.560699999999979
20
76.199999999999974
30
0
40
3.9999999999999991
210
-0
220
0
230
1
0
ARC
5
327
100
AcDbEntity
8
0
100
AcDbCircle
10
-210.7117405910659
20
16.275360529535018
30
0
40
0.99999999999999845
210
0
220
0
230
1
100
AcDbArc
50
144.99999999999972
51
325.0000000000008
0
LINE
5
328
100
AcDbEntity
8
0
100
AcDbLine
10
-211.53089263535489
20
16.848936965886065
30
0
11
-213.47081588955371
21
27.850788534689706
31
0
0
ARC
5
329
100
AcDbEntity
8
0
100
AcDbCircle
10
-212.89723947046502
20
28.669940591065913
30
0
40
1.0000000000000271
210
0
220
-0
230
1
100
AcDbArc
50
54.999999999999623
51
235.00000120741939
0
LINE
5
330
100
AcDbEntity
8
0
100
AcDbLine
10
-212.32366303411396
20
29.489092635354915
30
0
11
-201.32181146531036
21
31.4290158895537
31
0
0
ARC
5
331
100
AcDbEntity
8
0
100
AcDbCircle
10
-200.50265940893414
20
30.85543947046499
30
0
40
0.99999999999999845
210
0
220
0
230
1
100
AcDbArc
50
-35.000000000000114
51
145.00000120741865
0
LINE
5
332
100
AcDbEntity
8
0
100
AcDbLine
10
-199.68350736464515
20
30.281863034113947
30
0
11
-197.74358411044633
21
19.280011465310324
31
0
0
ARC
5
333
100
AcDbEntity
8
0
100
AcDbCircle
10
-198.31716052953504
20
18.460859408934098
30
0
40
0.99999999999999034
210
0
220
0
230
1
100
AcDbArc
50
-124.99999999999964
51
55.000001207418634
0
LINE
5
334
100
AcDbEntity
8
0
100
AcDbLine
10
-198.89073696588608
20
17.641707364645114
30
0
11
-209.89258854677689
21
15.701784093183974
31
0
0
LWPOLYLINE
5
335
100
AcDbEntity
8
0
100
AcDbPolyline
90
8
70
1
43
0.0
10
-235.78358854677677
20
30.480384093183964
42
-0.99999999999999989
10
-237.42189263535477
20
31.627536965886055
10
-239.36181588955353
20
42.629388534689745
42
-1.0000000105367122
10
-238.21466303411381
20
44.267692635354898
10
-227.21281146531015
20
46.207615889553672
42
-1.0000000105367122
10
-225.57450736464494
20
45.060463034113916
10
-223.63458411044621
20
34.0586114653103
42
-1.0000000105367122
10
-224.78173696588595
20
32.42030736464509
0
ARC
5
336
100
AcDbEntity
8
0
100
AcDbCircle
10
-180.32094059106572
20
40.977960529535054
30
0
40
0.99999999999999578
210
0
220
0
230
1
100
AcDbArc
50
145.00000000000097
51
325.00000000000006
0
LINE
5
337
100
AcDbEntity
8
0
100
AcDbLine
10
-181.14009263535473
20
41.551536965886093
30
0
11
-183.08001588955349
21
52.553388534689745
31
0
0
ARC
5
338
100
AcDbEntity
8
0
100
AcDbCircle
10
-182.50643947046478
20
53.372540591065949
30
0
40
1.0000000000000031
210
0
220
-0
230
1
100
AcDbArc
50
54.999999999999496
51
235.00000120741794
0
LINE
5
339
100
AcDbEntity
8
0
100
AcDbLine
10
-181.93286303411372
20
54.191692635354947
30
0
11
-170.93101146531012
21
56.131615889553714
31
0
0
ARC
5
340
100
AcDbEntity
8
0
100
AcDbCircle
10
-170.11185940893395
20
55.55803947046499
30
0
40
1.0000000000000249
210
0
220
0
230
1
100
AcDbArc
50
-34.999999999998074
51
145.00000120741609
0
LINE
5
341
100
AcDbEntity
8
0
100
AcDbLine
10
-169.29270736464491
20
54.984463034113951
30
0
11
-167.35278411044615
21
43.982611465310335
31
0
0
ARC
5
342
100
AcDbEntity
8
0
100
AcDbCircle
10
-167.92636052953486
20
43.163459408934138
30
0
40
1.0000000000000102
210
0
220
0
230
1
100
AcDbArc
50
-125.00000000000027
51
55.000001207417696
0
LINE
5
343
100
AcDbEntity
8
0
100
AcDbLine
10
-168.49993696588592
20
42.344307364645132
30
0
11
-179.50178854677674
21
40.404384093184014
31
0
0
ARC
5
344
100
AcDbEntity
8
0
100
AcDbCircle
10
-277.39349321881343
20
-6.2928932188134361
30
0
40
0.99999999999999967
210
0
220
0
230
1
100
AcDbArc
50
135.0000000000002
51
315.00000000000017
0
LINE
5
345
100
AcDbEntity
8
0
100
AcDbLine
10
-278.10059999999999
20
-5.5857864376268873
30
0
11
-278.10059998509882
21
5.5857864227257901
31
0
0
ARC
5
346
100
AcDbEntity
8
0
100
AcDbCircle
10
-277.39349321881343
20
6.292893218813493
30
0
40
1.0000000000000233
210
0
220
-0
230
1
100
AcDbArc
50
44.999999999999709
51
225.0000012074178
0
LINE
5
347
100
AcDbEntity
8
0
100
AcDbLine
10
-276.68638643762688
20
7.0000000000000391
30
0
11
-265.51481357727425
21
6.9999999850988628
31
0
0
ARC
5
348
100
AcDbEntity
8
0
100
AcDbCircle
10
-264.80770678118654
20
6.2928932188134823
30
0
40
1.0000000000000036
210
0
220
0
230
1
100
AcDbArc
50
-45.00000000000005
51
135.00000120741876
0
LINE
5
349
100
AcDbEntity
8
0
100
AcDbLine
10
-264.10059999999999
20
5.5857864376269282
30
0
11
-264.10060001490115
21
-5.5857864227257306
31
0
0
ARC
5
350
100
AcDbEntity
8
0
100
AcDbCircle
10
-264.80770678118654
20
-6.2928932188134361
30
0
40
0.99999999999999878
210
0
220
0
230
1
100
AcDbArc
50
-135.00000000000026
51
45.00000120741791
0
LINE
5
351
100
AcDbEntity
8
0
100
AcDbLine
10
-265.51481356237309
20
-6.9999999999999831
30
0
11
-276.68638643762688
21
-6.999999999999984
31
0
0
ARC
5
352
100
AcDbEntity
8
0
100
AcDbCircle
10
-296.44349321881344
20
-6.2928932188134361
30
0
40
0.99999999999999967
210
0
220
0
230
1
100
AcDbArc
50
135.0000000000002
51
315.00000000000017
0
LINE
5
353
100
AcDbEntity
8
0
100
AcDbLine
10
-297.1506
20
-5.5857864376268873
30
0
11
-297.15059998509878
21
5.5857864227257901
31
0
0
ARC
5
354
100
AcDbEntity
8
0
100
AcDbCircle
10
-296.44349321881339
20
6.292893218813493
30
0
40
0.999999999999998
210
0
220
-0
230
1
100
AcDbArc
50
44.999999999999709
51
225.0000012074178
0
LINE
5
355
100
AcDbEntity
8
0
100
AcDbLine
10
-295.73638643762683
20
7.0000000000000391
30
0
11
-284.56481357727421
21
6.9999999850988628
31
0
0
ARC
5
356
100
AcDbEntity
8
0
100
AcDbCircle
10
-283.85770678118649
20
6.2928932188134823
30
0
40
1.0000000000000036
210
0
220
0
230
1
100
AcDbArc
50
-45.00000000000005
51
135.00000120741876
0
LINE
5
357
100
AcDbEntity
8
0
100
AcDbLine
10
-283.15059999999994
20
5.5857864376269282
30
0
11
-283.15060001490116
21
-5.5857864227257306
31
0
0
ARC
5
358
100
AcDbEntity
8
0
100
AcDbCircle
10
-283.85770678118649
20
-6.2928932188134361
30
0
40
1.000000000000024
210
0
220
0
230
1
100
AcDbArc
50
-135.00000000000256
51
45.000001207420219
0
LINE
5
359
100
AcDbEntity
8
0
100
AcDbLine
10
-284.5648135623731
20
-6.9999999999999831
30
0
11
-295.73638643762689
21
-6.999999999999984
31
0
0
ARC
5
360
100
AcDbEntity
8
0
100
AcDbCircle
10
-236.64744059106582
20
-7.6417394704649819
30
0
40
0.99999999999999889
210
0
220
0
230
1
100
AcDbArc
50
144.99999999999977
51
324.99999999999983
0
LINE
5
361
100
AcDbEntity
8
0
100
AcDbLine
10
-237.4665926353548
20
-7.0681630341139368
30
0
11
-239.40651588955362
21
3.9336885346897086
31
0
0
ARC
5
362
100
AcDbEntity
8
0
100
AcDbCircle
10
-238.83293947046496
20
4.7528405910659179
30
0
40
1.0000000000000226
210
0
220
-0
230
1
100
AcDbArc
50
54.999999999999531
51
235.00000120742072
0
LINE
5
363
100
AcDbEntity
8
0
100
AcDbLine
10
-238.2593630341139
20
5.571992635354917
30
0
11
-227.25751146531027
21
7.5119158895537028
31
0
0
ARC
5
364
100
AcDbEntity
8
0
100
AcDbCircle
10
-226.43835940893408
20
6.9383394704649888
30
0
40
0.99999999999999845
210
0
220
0
230
1
100
AcDbArc
50
-35.000000000000114
51
145.00000120741751
0
LINE
5
365
100
AcDbEntity
8
0
100
AcDbLine
10
-225.61920736464509
20
6.3647630341139454
30
0
11
-223.67928411044628
21
-4.637088534689676
31
0
0
ARC
5
366
100
AcDbEntity
8
0
100
AcDbCircle
10
-224.25286052953496
20
-5.4562405910658986
30
0
40
0.99999999999999212
210
0
220
0
230
1
100
AcDbArc
50
-124.99999999999956
51
55.000001207419885
0
LINE
5
367
100
AcDbEntity
8
0
100
AcDbLine
10
-224.82643696588599
20
-6.2753926353548852
30
0
11
-235.82828854677683
21
-8.2153159068160271
31
0
0
ARC
5
368
100
AcDbEntity
8
0
100
AcDbCircle
10
-254.50789321881334
20
69.907106781186499
30
0
40
0.999999999999998
210
0
220
0
230
1
100
AcDbArc
50
135
51
314.99999999999943
0
LINE
5
369
100
AcDbEntity
8
0
100
AcDbLine
10
-255.21499999999989
20
70.614213562373052
30
0
11
-255.2149999850987
21
81.785786422725721
31
0
0
ARC
5
370
100
AcDbEntity
8
0
100
AcDbCircle
10
-254.50789321881331
20
82.492893218813435
30
0
40
1.0000000000000107
210
0
220
-0
230
1
100
AcDbArc
50
45.000000000000568
51
225.00000120741828
0
LINE
5
371
100
AcDbEntity
8
0
100
AcDbLine
10
-253.80078643762675
20
83.200000000000003
30
0
11
-242.62921357727413
21
83.199999985098799
31
0
0
ARC
5
372
100
AcDbEntity
8
0
100
AcDbCircle
10
-241.92210678118641
20
82.492893218813421
30
0
40
1.0000000000000107
210
0
220
0
230
1
100
AcDbArc
50
-45.000000000000561
51
135.00000120741885
0
LINE
5
373
100
AcDbEntity
8
0
100
AcDbLine
10
-241.21499999999986
20
81.785786437626854
30
0
11
-241.21500001490105
21
70.614213577274214
31
0
0
ARC
5
374
100
AcDbEntity
8
0
100
AcDbCircle
10
-241.92210678118647
20
69.907106781186513
30
0
40
0.99999999999997924
210
0
220
0
230
1
100
AcDbArc
50
-134.99999999999886
51
45.000001207416531
0
LINE
5
375
100
AcDbEntity
8
0
100
AcDbLine
10
-242.629213562373
20
69.19999999999996
30
0
11
-253.80078643762681
21
69.19999999999996
31
0
0
ARC
5
376
100
AcDbEntity
8
0
100
AcDbCircle
10
-313.11229321881331
20
12.757106781186566
30
0
40
0.99999999999999967
210
0
220
0
230
1
100
AcDbArc
50
135.00000000000023
51
315.00000000000017
0
LINE
5
377
100
AcDbEntity
8
0
100
AcDbLine
10
-313.81939999999986
20
13.464213562373114
30
0
11
-313.8193999850987
21
24.635786422725793
31
0
0
ARC
5
378
100
AcDbEntity
8
0
100
AcDbCircle
10
-313.11229321881331
20
25.342893218813494
30
0
40
1.0000000000000011
210
0
220
-0
230
1
100
AcDbArc
50
44.999999999999858
51
225.00000120741768
0
LINE
5
379
100
AcDbEntity
8
0
100
AcDbLine
10
-312.40518643762675
20
26.050000000000043
30
0
11
-301.23361357727413
21
26.049999985098864
31
0
0
ARC
5
380
100
AcDbEntity
8
0
100
AcDbCircle
10
-300.52650678118641
20
25.342893218813458
30
0
40
1.0000000000000324
210
0
220
0
230
1
100
AcDbArc
50
-44.99999999999654
51
135.00000120741771
0
LINE
5
381
100
AcDbEntity
8
0
100
AcDbLine
10
-299.8193999999998
20
24.635786437626933
30
0
11
-299.81940001490102
21
13.464213577274275
31
0
0
ARC
5
382
100
AcDbEntity
8
0
100
AcDbCircle
10
-300.52650678118641
20
12.757106781186568
30
0
40
0.999999999999998
210
0
220
0
230
1
100
AcDbArc
50
-135.00000000000031
51
45.000001207417974
0
LINE
5
383
100
AcDbEntity
8
0
100
AcDbLine
10
-301.23361356237297
20
12.050000000000022
30
0
11
-312.40518643762675
21
12.050000000000018
31
0
0
ARC
5
384
100
AcDbEntity
8
0
100
AcDbCircle
10
-258.34349321881342
20
-8.2330932188134547
30
0
40
0.99999999999999967
210
0
220
0
230
1
100
AcDbArc
50
135.0000000000002
51
315.00000000000017
0
LINE
5
385
100
AcDbEntity
8
0
100
AcDbLine
10
-259.05059999999997
20
-7.5259864376269059
30
0
11
-259.05059998509876
21
3.6455864227257715
31
0
0
ARC
5
386
100
AcDbEntity
8
0
100
AcDbCircle
10
-258.34349321881336
20
4.3526932188134744
30
0
40
0.99999999999999845
210
0
220
-0
230
1
100
AcDbArc
50
44.999999999999709
51
225.0000012074178
0
LINE
5
387
100
AcDbEntity
8
0
100
AcDbLine
10
-257.63638643762681
20
5.0598000000000205
30
0
11
-246.46481357727421
21
5.0597999850988442
31
0
0
ARC
5
388
100
AcDbEntity
8
0
100
AcDbCircle
10
-245.75770678118647
20
4.3526932188134646
30
0
40
1.000000000000004
210
0
220
0
230
1
100
AcDbArc
50
-45.00000000000005
51
135.00000120741993
0
LINE
5
389
100
AcDbEntity
8
0
100
AcDbLine
10
-245.05059999999992
20
3.6455864376269096
30
0
11
-245.05060001490111
21
-7.5259864227257491
31
0
0
ARC
5
390
100
AcDbEntity
8
0
100
AcDbCircle
10
-245.75770678118647
20
-8.2330932188134547
30
0
40
1.000000000000024
210
0
220
0
230
1
100
AcDbArc
50
-135.00000000000145
51
45.000001207419061
0
LINE
5
391
100
AcDbEntity
8
0
100
AcDbLine
10
-246.46481356237305
20
-8.9402000000000008
30
0
11
-257.63638643762687
21
-8.9402000000000026
31
0
0
ARC
5
392
100
AcDbEntity
8
0
100
AcDbCircle
10
-191.95114059106595
20
19.583360529535071
30
0
40
0.99999999999999845
210
0
220
0
230
1
100
AcDbArc
50
144.99999999999989
51
325.00000000000063
0
LINE
5
393
100
AcDbEntity
8
0
100
AcDbLine
10
-192.77029263535493
20
20.156936965886114
30
0
11
-194.71021588955369
21
31.158788534689769
31
0
0
ARC
5
394
100
AcDbEntity
8
0
100
AcDbCircle
10
-194.13663947046501
20
31.977940591065984
30
0
40
0.99999999999998113
210
0
220
-0
230
1
100
AcDbArc
50
55.000000000000021
51
235.00000120741961
0
LINE
5
395
100
AcDbEntity
8
0
100
AcDbLine
10
-193.56306303411398
20
32.797092635354957
30
0
11
-182.56121146531032
21
34.737015889553732
31
0
0
ARC
5
396
100
AcDbEntity
8
0
100
AcDbCircle
10
-181.74205940893413
20
34.163439470465022
30
0
40
0.99999999999999845
210
0
220
0
230
1
100
AcDbArc
50
-34.999999999999964
51
145.00000120741771
0
LINE
5
397
100
AcDbEntity
8
0
100
AcDbLine
10
-180.92290736464514
20
33.589863034113982
30
0
11
-178.98298411044635
21
22.588011465310352
31
0
0
ARC
5
398
100
AcDbEntity
8
0
100
AcDbCircle
10
-179.55656052953509
20
21.768859408934141
30
0
40
0.99999999999999578
210
0
220
0
230
1
100
AcDbArc
50
-124.99999999999939
51
55.000001207416837
0
LINE
5
399
100
AcDbEntity
8
0
100
AcDbLine
10
-180.13013696588612
20
20.94970736464515
30
0
11
-191.13198854677694
21
19.009784093184024
31
0
0
ARC
5
400
100
AcDbEntity
8
0
100
AcDbCircle
10
-173.19054059106588
20
22.891360529535056
30
0
40
0.99999999999999578
210
0
220
0
230
1
100
AcDbArc
50
145.00000000000003
51
325.00000000000097
0
LINE
5
401
100
AcDbEntity
8
0
100
AcDbLine
10
-174.00969263535487
20
23.464936965886096
30
0
11
-175.94961588955363
21
34.466788534689748
31
0
0
ARC
5
402
100
AcDbEntity
8
0
100
AcDbCircle
10
-175.376039470465
20
35.285940591065959
30
0
40
1.0000000000000089
210
0
220
-0
230
1
100
AcDbArc
50
54.99999999999747
51
235.00000120742214
0
LINE
5
403
100
AcDbEntity
8
0
100
AcDbLine
10
-174.80246303411391
20
36.105092635354936
30
0
11
-163.80061146531028
21
38.045015889553724
31
0
0
ARC
5
404
100
AcDbEntity
8
0
100
AcDbCircle
10
-162.98145940893409
20
37.471439470465008
30
0
40
1.0000000000000249
210
0
220
0
230
1
100
AcDbArc
50
-34.999999999999048
51
145.00000120741737
0
LINE
5
405
100
AcDbEntity
8
0
100
AcDbLine
10
-162.16230736464507
20
36.897863034113968
30
0
11
-160.22238411044628
21
25.896011465310345
31
0
0
ARC
5
406
100
AcDbEntity
8
0
100
AcDbCircle
10
-160.79596052953497
20
25.076859408934137
30
0
40
0.99999999999999212
210
0
220
0
230
1
100
AcDbArc
50
-125.00000000000088
51
55.000001207419388
0
LINE
5
407
100
AcDbEntity
8
0
100
AcDbLine
10
-161.36953696588603
20
24.25770736464515
30
0
11
-172.37138854677687
21
22.317784093184017
31
0
0
ARC
5
408
100
AcDbEntity
8
0
100
AcDbCircle
10
-296.44369321881334
20
50.857106781186523
30
0
40
1.0000000000000042
210
0
220
0
230
1
100
AcDbArc
50
135.00000000000375
51
315.00000000000142
0
LINE
5
409
100
AcDbEntity
8
0
100
AcDbLine
10
-297.15079999999995
20
51.564213562373041
30
0
11
-297.15079998509873
21
62.735786422725738
31
0
0
ARC
5
410
100
AcDbEntity
8
0
100
AcDbCircle
10
-296.44369321881328
20
63.442893218813424
30
0
40
0.99999999999998546
210
0
220
-0
230
1
100
AcDbArc
50
45.000000000002878
51
225.00000120741484
0
LINE
5
411
100
AcDbEntity
8
0
100
AcDbLine
10
-295.73658643762678
20
64.149999999999991
30
0
11
-284.56501357727416
21
64.149999985098816
31
0
0
ARC
5
412
100
AcDbEntity
8
0
100
AcDbCircle
10
-283.85790678118644
20
63.442893218813396
30
0
40
1.0000000000000042
210
0
220
0
230
1
100
AcDbArc
50
-44.99999999999654
51
135.00000120741711
0
LINE
5
413
100
AcDbEntity
8
0
100
AcDbLine
10
-283.15079999999983
20
62.735786437626871
30
0
11
-283.15080001490105
21
51.564213577274217
31
0
0
ARC
5
414
100
AcDbEntity
8
0
100
AcDbCircle
10
-283.85790678118644
20
50.857106781186516
30
0
40
1.0000000000000042
210
0
220
0
230
1
100
AcDbArc
50
-135
51
45.000001207417689
0
LINE
5
415
100
AcDbEntity
8
0
100
AcDbLine
10
-284.565013562373
20
50.149999999999963
30
0
11
-295.73658643762678
21
50.150000000000006
31
0
0
LWPOLYLINE
5
416
100
AcDbEntity
8
0
100
AcDbPolyline
90
8
70
1
43
0.0
10
-198.26238854677678
20
37.09638409318395
42
-0.99999999999999989
10
-199.90069263535474
20
38.243536965886037
10
-201.84061588955356
20
49.245388534689681
42
-1.0000000105367122
10
-200.69346303411382
20
50.88369263535489
10
-189.6916114653103
20
52.823615889553651
42
-1.0000000105367122
10
-188.05330736464501
20
51.676463034113915
10
-186.11338411044613
20
40.674611465310299
42
-1.0000000105367122
10
-187.26053696588593
20
39.036307364645083
0
ARC
5
417
100
AcDbEntity
8
0
100
AcDbCircle
10
-217.88684059106586
20
-4.3337394704649981
30
0
40
0.99999999999999845
210
0
220
0
230
1
100
AcDbArc
50
144.99999999999986
51
324.99999999999983
0
LINE
5
418
100
AcDbEntity
8
0
100
AcDbLine
10
-218.70599263535485
20
-3.7601630341139543
30
0
11
-220.64591588955366
21
7.2416885346896933
31
0
0
ARC
5
419
100
AcDbEntity
8
0
100
AcDbCircle
10
-220.07233947046501
20
8.0608405910658991
30
0
40
1.0000000000000226
210
0
220
-0
230
1
100
AcDbArc
50
54.999999999999559
51
235.00000120742061
0
LINE
5
420
100
AcDbEntity
8
0
100
AcDbLine
10
-219.49876303411395
20
8.879992635354899
30
0
11
-208.49691146531032
21
10.819915889553684
31
0
0
ARC
5
421
100
AcDbEntity
8
0
100
AcDbCircle
10
-207.67775940893412
20
10.246339470464971
30
0
40
0.99999999999999889
210
0
220
0
230
1
100
AcDbArc
50
-35.000000000000213
51
145.00000120741751
0
LINE
5
422
100
AcDbEntity
8
0
100
AcDbLine
10
-206.85860736464514
20
9.6727630341139257
30
0
11
-204.91868411044632
21
-1.3290885346896941
31
0
0
ARC
5
423
100
AcDbEntity
8
0
100
AcDbCircle
10
-205.492260529535
20
-2.1482405910659166
30
0
40
0.99999999999999212
210
0
220
0
230
1
100
AcDbArc
50
-124.99999999999956
51
55.000001207419864
0
LINE
5
424
100
AcDbEntity
8
0
100
AcDbLine
10
-206.06583696588604
20
-2.9673926353549032
30
0
11
-217.06768854677688
21
-4.9073159068160424
31
0
0
ARC
5
425
100
AcDbEntity
8
0
100
AcDbCircle
10
-277.39359321881329
20
31.807106781186533
30
0
40
0.999999999999998
210
0
220
0
230
1
100
AcDbArc
50
135.00000000000031
51
315.00000000000028
0
LINE
5
426
100
AcDbEntity
8
0
100
AcDbLine
10
-278.10069999999985
20
32.514213562373079
30
0
11
-278.10069998509869
21
43.685786422725755
31
0
0
ARC
5
427
100
AcDbEntity
8
0
100
AcDbCircle
10
-277.39359321881329
20
44.39289321881347
30
0
40
1.0000000000000169
210
0
220
-0
230
1
100
AcDbArc
50
44.999999999997115
51
225.00000120741828
0
LINE
5
428
100
AcDbEntity
8
0
100
AcDbLine
10
-276.68648643762668
20
45.100000000000009
30
0
11
-265.51491357727411
21
45.099999985098833
31
0
0
ARC
5
429
100
AcDbEntity
8
0
100
AcDbCircle
10
-264.8078067811864
20
44.392893218813413
30
0
40
1.0000000000000042
210
0
220
0
230
1
100
AcDbArc
50
-44.999999999996234
51
135.00000120741711
0
LINE
5
430
100
AcDbEntity
8
0
100
AcDbLine
10
-264.10069999999979
20
43.685786437626895
30
0
11
-264.10070001490101
21
32.514213577274241
31
0
0
ARC
5
431
100
AcDbEntity
8
0
100
AcDbCircle
10
-264.8078067811864
20
31.807106781186533
30
0
40
1.00000000000002
210
0
220
0
230
1
100
AcDbArc
50
-135.00000000000043
51
45.000001207417974
0
LINE
5
432
100
AcDbEntity
8
0
100
AcDbLine
10
-265.51491356237295
20
31.099999999999991
30
0
11
-276.68648643762674
21
31.099999999999987
31
0
0
ARC
5
433
100
AcDbEntity
8
0
100
AcDbCircle
10
-251.19989321881332
20
50.857106781186523
30
0
40
0.999999999999998
210
0
220
0
230
1
100
AcDbArc
50
135.00000000000031
51
315.00000000000028
0
LINE
5
434
100
AcDbEntity
8
0
100
AcDbLine
10
-251.90699999999987
20
51.56421356237307
30
0
11
-251.90699998509868
21
62.735786422725752
31
0
0
ARC
5
435
100
AcDbEntity
8
0
100
AcDbCircle
10
-251.19989321881326
20
63.442893218813445
30
0
40
1.0000000000000107
210
0
220
-0
230
1
100
AcDbArc
50
45.000000000001442
51
225.00000120741629
0
LINE
5
436
100
AcDbEntity
8
0
100
AcDbLine
10
-250.49278643762673
20
64.150000000000006
30
0
11
-239.32121357727411
21
64.14999998509883
31
0
0
ARC
5
437
100
AcDbEntity
8
0
100
AcDbCircle
10
-238.61410678118642
20
63.44289321881341
30
0
40
1.0000000000000295
210
0
220
0
230
1
100
AcDbArc
50
-44.999999999996234
51
135.00000120741598
0
LINE
5
438
100
AcDbEntity
8
0
100
AcDbLine
10
-237.90699999999981
20
62.735786437626892
30
0
11
-237.90700001490103
21
51.564213577274238
31
0
0
ARC
5
439
100
AcDbEntity
8
0
100
AcDbCircle
10
-238.61410678118645
20
50.85710678118653
30
0
40
0.99999999999997924
210
0
220
0
230
1
100
AcDbArc
50
-134.99999999999886
51
45.000001207416823
0
LINE
5
440
100
AcDbEntity
8
0
100
AcDbLine
10
-239.32121356237298
20
50.149999999999977
30
0
11
-250.49278643762676
21
50.149999999999977
31
0
0
ARC
5
441
100
AcDbEntity
8
0
100
AcDbCircle
10
-308.34984321881342
20
31.807106781186558
30
0
40
0.999999999999998
210
0
220
0
230
1
100
AcDbArc
50
135.00000000000043
51
315.00000000000028
0
LINE
5
442
100
AcDbEntity
8
0
100
AcDbLine
10
-309.05694999999997
20
32.514213562373101
30
0
11
-309.05694998509881
21
43.685786422725783
31
0
0
ARC
5
443
100
AcDbEntity
8
0
100
AcDbCircle
10
-308.34984321881342
20
44.392893218813484
30
0
40
0.999999999999998
210
0
220
-0
230
1
100
AcDbArc
50
45
51
225.00000120741768
0
LINE
5
444
100
AcDbEntity
8
0
100
AcDbLine
10
-307.64273643762687
20
45.100000000000037
30
0
11
-296.47116357727424
21
45.099999985098862
31
0
0
ARC
5
445
100
AcDbEntity
8
0
100
AcDbCircle
10
-295.76405678118653
20
44.392893218813455
30
0
40
1.0000000000000107
210
0
220
0
230
1
100
AcDbArc
50
-44.999999999996845
51
135.00000120741771
0
LINE
5
446
100
AcDbEntity
8
0
100
AcDbLine
10
-295.05694999999992
20
43.685786437626923
30
0
11
-295.05695001490113
21
32.514213577274269
31
0
0
ARC
5
447
100
AcDbEntity
8
0
100
AcDbCircle
10
-295.76405678118653
20
31.807106781186558
30
0
40
1.00000000000002
210
0
220
0
230
1
100
AcDbArc
50
-135.00000000000043
51
45.000001207418123
0
LINE
5
448
100
AcDbEntity
8
0
100
AcDbLine
10
-296.47116356237308
20
31.100000000000016
30
0
11
-307.64273643762687
21
31.100000000000012
31
0
0
ARC
5
449
100
AcDbEntity
8
0
100
AcDbCircle
10
-192.89409059106589
20
77.448760529535036
30
0
40
0.99999999999999578
210
0
220
0
230
1
100
AcDbArc
50
144.99999999999972
51
324.99999914622708
0
LINE
5
450
100
AcDbEntity
8
0
100
AcDbLine
10
-193.71324263535487
20
78.022336965886083
30
0
11
-195.65316588955366
21
89.024188534689728
31
0
0
ARC
5
451
100
AcDbEntity
8
0
100
AcDbCircle
10
-195.07958947046495
20
89.843340591065939
30
0
40
1.0000000000000016
210
0
220
-0
230
1
100
AcDbArc
50
54.999999999998572
51
235.00000120741819
0
LINE
5
452
100
AcDbEntity
8
0
100
AcDbLine
10
-194.50601303411389
20
90.662492635354909
30
0
11
-183.50416146531029
21
92.602415889553697
31
0
0
ARC
5
453
100
AcDbEntity
8
0
100
AcDbCircle
10
-182.68500940893406
20
92.028839470465002
30
0
40
0.99999999999999578
210
0
220
0
230
1
100
AcDbArc
50
-35.000000000000313
51
145.0000012074193
0
LINE
5
454
100
AcDbEntity
8
0
100
AcDbLine
10
-181.86585736464508
20
91.455263034113955
30
0
11
-179.92593411044629
21
80.453411465310325
31
0
0
ARC
5
455
100
AcDbEntity
8
0
100
AcDbCircle
10
-180.49951052953503
20
79.634259408934113
30
0
40
0.99999999999998113
210
0
220
0
230
1
100
AcDbArc
50
-125.00000000000011
51
55.000001207416837
0
LINE
5
456
100
AcDbEntity
8
0
100
AcDbLine
10
-181.07308696588606
20
78.815107364645144
30
0
11
-192.07493855532385
21
76.875184080977689
31
0
0
ARC
5
457
100
AcDbEntity
8
0
100
AcDbCircle
10
-258.34359321881334
20
31.807106781186533
30
0
40
0.999999999999998
210
0
220
0
230
1
100
AcDbArc
50
135.00000000000031
51
315.00000000000028
0
LINE
5
458
100
AcDbEntity
8
0
100
AcDbLine
10
-259.05069999999989
20
32.514213562373079
30
0
11
-259.05069998509867
21
43.685786422725755
31
0
0
ARC
5
459
100
AcDbEntity
8
0
100
AcDbCircle
10
-258.34359321881328
20
44.39289321881347
30
0
40
1.0000000000000169
210
0
220
-0
230
1
100
AcDbArc
50
44.999999999999424
51
225.00000120741828
0
LINE
5
460
100
AcDbEntity
8
0
100
AcDbLine
10
-257.63648643762673
20
45.100000000000009
30
0
11
-246.46491357727413
21
45.099999985098833
31
0
0
ARC
5
461
100
AcDbEntity
8
0
100
AcDbCircle
10
-245.75780678118645
20
44.392893218813413
30
0
40
1.0000000000000295
210
0
220
0
230
1
100
AcDbArc
50
-44.999999999996234
51
135.00000120741598
0
LINE
5
462
100
AcDbEntity
8
0
100
AcDbLine
10
-245.05069999999984
20
43.685786437626895
30
0
11
-245.05070001490105
21
32.514213577274241
31
0
0
ARC
5
463
100
AcDbEntity
8
0
100
AcDbCircle
10
-245.75780678118645
20
31.807106781186533
30
0
40
0.99999999999999489
210
0
220
0
230
1
100
AcDbArc
50
-135.00000000000043
51
45.000001207417974
0
LINE
5
464
100
AcDbEntity
8
0
100
AcDbLine
10
-246.464913562373
20
31.099999999999991
30
0
11
-257.63648643762679
21
31.099999999999987
31
0
0
ARC
5
465
100
AcDbEntity
8
0
100
AcDbCircle
10
-199.12624059106588
20
-1.0257394704649623
30
0
40
0.99999999999999878
210
0
220
0
230
1
100
AcDbArc
50
144.99999999999977
51
325.00000000000068
0
LINE
5
466
100
AcDbEntity
8
0
100
AcDbLine
10
-199.94539263535486
20
-0.45216303411391717
30
0
11
-201.88531588955362
21
10.549688534689734
31
0
0
ARC
5
467
100
AcDbEntity
8
0
100
AcDbCircle
10
-201.311739470465
20
11.368840591065938
30
0
40
1.0000000000000089
210
0
220
-0
230
1
100
AcDbArc
50
54.999999999997648
51
235.00000120742195
0
LINE
5
468
100
AcDbEntity
8
0
100
AcDbLine
10
-200.73816303411391
20
12.18799263535492
30
0
11
-189.73631146531028
21
14.127915889553702
31
0
0
ARC
5
469
100
AcDbEntity
8
0
100
AcDbCircle
10
-188.91715940893408
20
13.554339470464981
30
0
40
1.0000000000000249
210
0
220
0
230
1
100
AcDbArc
50
-34.999999999999048
51
145.00000120741723
0
LINE
5
470
100
AcDbEntity
8
0
100
AcDbLine
10
-188.09800736464507
20
12.980763034113942
30
0
11
-186.15808411044628
21
1.9789114653103179
31
0
0
ARC
5
471
100
AcDbEntity
8
0
100
AcDbCircle
10
-186.73166052953502
20
1.1597594089341174
30
0
40
1.0000000000000049
210
0
220
0
230
1
100
AcDbArc
50
-124.99999999999905
51
55.000001207416481
0
LINE
5
472
100
AcDbEntity
8
0
100
AcDbLine
10
-187.30523696588605
20
0.34060736464511532
30
0
11
-198.30708854677687
21
-1.5993159068160074
31
0
0
ARC
5
473
100
AcDbEntity
8
0
100
AcDbCircle
10
-210.69174059106581
20
54.966660529535019
30
0
40
0.99999999999999578
210
0
220
0
230
1
100
AcDbArc
50
144.99999999999972
51
325.00000000000131
0
LINE
5
474
100
AcDbEntity
8
0
100
AcDbLine
10
-211.51089263535479
20
55.540236965886066
30
0
11
-213.45081588955355
21
66.542088534689711
31
0
0
ARC
5
475
100
AcDbEntity
8
0
100
AcDbCircle
10
-212.87723947046487
20
67.361240591065922
30
0
40
0.99999999999998856
210
0
220
-0
230
1
100
AcDbArc
50
55.000000000000377
51
235.0000012074195
0
LINE
5
476
100
AcDbEntity
8
0
100
AcDbLine
10
-212.30366303411384
20
68.180392635354906
30
0
11
-201.30181146531018
21
70.12031588955368
31
0
0
ARC
5
477
100
AcDbEntity
8
0
100
AcDbCircle
10
-200.48265940893398
20
69.546739470464971
30
0
40
0.99999999999999578
210
0
220
0
230
1
100
AcDbArc
50
-35.000000000000313
51
145.00000120741771
0
LINE
5
478
100
AcDbEntity
8
0
100
AcDbLine
10
-199.663507364645
20
68.973163034113924
30
0
11
-197.72358411044621
21
57.971311465310301
31
0
0
ARC
5
479
100
AcDbEntity
8
0
100
AcDbCircle
10
-198.29716052953495
20
57.152159408934097
30
0
40
1.0000000000000031
210
0
220
0
230
1
100
AcDbArc
50
-124.99999999999915
51
55.000001207416602
0
LINE
5
480
100
AcDbEntity
8
0
100
AcDbLine
10
-198.87073696588598
20
56.333007364645098
30
0
11
-209.8725885467768
21
54.393084093183987
31
0
0
ARC
5
481
100
AcDbEntity
8
0
100
AcDbCircle
10
-270.24989321881338
20
50.857106781186509
30
0
40
0.999999999999998
210
0
220
0
230
1
100
AcDbArc
50
135.00000000000031
51
315.00000000000028
0
LINE
5
482
100
AcDbEntity
8
0
100
AcDbLine
10
-270.95699999999994
20
51.564213562373055
30
0
11
-270.95699998509878
21
62.735786422725738
31
0
0
ARC
5
483
100
AcDbEntity
8
0
100
AcDbCircle
10
-270.24989321881333
20
63.442893218813424
30
0
40
1.0000000000000107
210
0
220
-0
230
1
100
AcDbArc
50
45.000000000002878
51
225.00000120741484
0
LINE
5
484
100
AcDbEntity
8
0
100
AcDbLine
10
-269.54278643762683
20
64.149999999999991
30
0
11
-258.3712135772742
21
64.149999985098816
31
0
0
ARC
5
485
100
AcDbEntity
8
0
100
AcDbCircle
10
-257.66410678118649
20
63.442893218813396
30
0
40
1.0000000000000295
210
0
220
0
230
1
100
AcDbArc
50
-44.99999999999654
51
135.00000120741711
0
LINE
5
486
100
AcDbEntity
8
0
100
AcDbLine
10
-256.95699999999988
20
62.735786437626871
30
0
11
-256.9570000149011
21
51.564213577274217
31
0
0
ARC
5
487
100
AcDbEntity
8
0
100
AcDbCircle
10
-257.66410678118655
20
50.857106781186516
30
0
40
0.99999999999997924
210
0
220
0
230
1
100
AcDbArc
50
-134.99999999999773
51
45.000001207415387
0
LINE
5
488
100
AcDbEntity
8
0
100
AcDbLine
10
-258.37121356237304
20
50.149999999999963
30
0
11
-269.54278643762683
21
50.149999999999963
31
0
0
ARC
5
489
100
AcDbEntity
8
0
100
AcDbCircle
10
-289.29979321881336
20
12.757106781186568
30
0
40
0.99999999999999967
210
0
220
0
230
1
100
AcDbArc
50
135.00000000000017
51
315.00000000000017
0
LINE
5
490
100
AcDbEntity
8
0
100
AcDbLine
10
-290.00689999999992
20
13.464213562373118
30
0
11
-290.00689998509876
21
24.635786422725797
31
0
0
ARC
5
491
100
AcDbEntity
8
0
100
AcDbCircle
10
-289.29979321881331
20
25.342893218813501
30
0
40
0.999999999999998
210
0
220
-0
230
1
100
AcDbArc
50
45.000000000002011
51
225.00000120741552
0
LINE
5
492
100
AcDbEntity
8
0
100
AcDbLine
10
-288.59268643762681
20
26.050000000000047
30
0
11
-277.42111357727418
21
26.049999985098871
31
0
0
ARC
5
493
100
AcDbEntity
8
0
100
AcDbCircle
10
-276.71400678118647
20
25.342893218813462
30
0
40
1.0000000000000324
210
0
220
0
230
1
100
AcDbArc
50
-44.99999999999639
51
135.00000120741754
0
LINE
5
494
100
AcDbEntity
8
0
100
AcDbLine
10
-276.00689999999986
20
24.63578643762694
30
0
11
-276.00690001490108
21
13.464213577274275
31
0
0
ARC
5
495
100
AcDbEntity
8
0
100
AcDbCircle
10
-276.71400678118647
20
12.757106781186572
30
0
40
0.999999999999998
210
0
220
0
230
1
100
AcDbArc
50
-135.00000000000031
51
45.000001207417846
0
LINE
5
496
100
AcDbEntity
8
0
100
AcDbLine
10
-277.42111356237302
20
12.050000000000026
30
0
11
-288.59268643762681
21
12.05000000000002
31
0
0
ARC
5
497
100
AcDbEntity
8
0
100
AcDbCircle
10
-180.36564059106593
20
2.2822605295350367
30
0
40
0.99999999999999878
210
0
220
0
230
1
100
AcDbArc
50
144.99999999999983
51
325.00000000000068
0
LINE
5
498
100
AcDbEntity
8
0
100
AcDbLine
10
-181.18479263535491
20
2.8558369658860814
30
0
11
-183.12471588955367
21
13.857688534689732
31
0
0
ARC
5
499
100
AcDbEntity
8
0
100
AcDbCircle
10
-182.55113947046505
20
14.676840591065938
30
0
40
1.0000000000000107
210
0
220
-0
230
1
100
AcDbArc
50
54.999999999997762
51
235.00000120742195
0
LINE
5
500
100
AcDbEntity
8
0
100
AcDbLine
10
-181.97756303411396
20
15.495992635354924
30
0
11
-170.97571146531033
21
17.435915889553705
31
0
0
ARC
5
501
100
AcDbEntity
8
0
100
AcDbCircle
10
-170.15655940893413
20
16.862339470464981
30
0
40
1.0000000000000235
210
0
220
0
230
1
100
AcDbArc
50
-34.999999999998842
51
145.00000120741703
0
LINE
5
502
100
AcDbEntity
8
0
100
AcDbLine
10
-169.33740736464512
20
16.288763034113945
30
0
11
-167.39748411044633
21
5.2869114653103182
31
0
0
ARC
5
503
100
AcDbEntity
8
0
100
AcDbCircle
10
-167.97106052953501
20
4.4677594089340982
30
0
40
0.99999999999997957
210
0
220
0
230
1
100
AcDbArc
50
-125.00000000000138
51
55.000001207419793
0
LINE
5
504
100
AcDbEntity
8
0
100
AcDbLine
10
-168.54463696588607
20
3.6486073646451267
30
0
11
-179.54648854677691
21
1.7086840931839915
31
0
0
ARC
5
505
100
AcDbEntity
8
0
100
AcDbCircle
10
-270.24979321881335
20
12.757106781186566
30
0
40
0.99999999999999967
210
0
220
0
230
1
100
AcDbArc
50
134.99999999999793
51
315.00000000000017
0
LINE
5
506
100
AcDbEntity
8
0
100
AcDbLine
10
-270.95689999999985
20
13.464213562373114
30
0
11
-270.95689998509869
21
24.635786422725793
31
0
0
ARC
5
507
100
AcDbEntity
8
0
100
AcDbCircle
10
-270.24979321881324
20
25.342893218813494
30
0
40
0.99999999999997602
210
0
220
-0
230
1
100
AcDbArc
50
45.000000000002153
51
225.00000120741538
0
LINE
5
508
100
AcDbEntity
8
0
100
AcDbLine
10
-269.54268643762674
20
26.050000000000043
30
0
11
-258.37111357727412
21
26.049999985098864
31
0
0
ARC
5
509
100
AcDbEntity
8
0
100
AcDbCircle
10
-257.6640067811864
20
25.342893218813458
30
0
40
1.0000000000000073
210
0
220
0
230
1
100
AcDbArc
50
-44.99999999999654
51
135.00000120741771
0
LINE
5
510
100
AcDbEntity
8
0
100
AcDbLine
10
-256.95689999999979
20
24.635786437626933
30
0
11
-256.95690001490101
21
13.464213577274275
31
0
0
ARC
5
511
100
AcDbEntity
8
0
100
AcDbCircle
10
-257.6640067811864
20
12.757106781186568
30
0
40
1.0000000000000233
210
0
220
0
230
1
100
AcDbArc
50
-135.00000000000031
51
45.000001207417974
0
LINE
5
512
100
AcDbEntity
8
0
100
AcDbLine
10
-258.37111356237295
20
12.050000000000022
30
0
11
-269.5426864376268
21
12.050000000000018
31
0
0
ARC
5
513
100
AcDbEntity
8
0
100
AcDbCircle
10
-229.45234059106582
20
51.658660529535027
30
0
40
0.99999999999999578
210
0
220
0
230
1
100
AcDbArc
50
145.0000000000004
51
324.99999999999972
0
LINE
5
514
100
AcDbEntity
8
0
100
AcDbLine
10
-230.2714926353548
20
52.232236965886059
30
0
11
-232.21141588955359
21
63.234088534689718
31
0
0
ARC
5
515
100
AcDbEntity
8
0
100
AcDbCircle
10
-231.63783947046488
20
64.053240591065929
30
0
40
0.99999999999998856
210
0
220
-0
230
1
100
AcDbArc
50
55.000000000000377
51
235.00000120741819
0
LINE
5
516
100
AcDbEntity
8
0
100
AcDbLine
10
-231.06426303411385
20
64.872392635354913
30
0
11
-220.06241146531022
21
66.812315889553687
31
0
0
ARC
5
517
100
AcDbEntity
8
0
100
AcDbCircle
10
-219.24325940893399
20
66.238739470464964
30
0
40
0.99999999999999578
210
0
220
0
230
1
100
AcDbArc
50
-34.999999999999602
51
145.00000120741797
0
LINE
5
518
100
AcDbEntity
8
0
100
AcDbLine
10
-218.42410736464501
20
65.665163034113931
30
0
11
-216.48418411044622
21
54.663311465310301
31
0
0
ARC
5
519
100
AcDbEntity
8
0
100
AcDbCircle
10
-217.05776052953496
20
53.844159408934104
30
0
40
1.0000000000000031
210
0
220
0
230
1
100
AcDbArc
50
-124.99999999999895
51
55.000001207416361
0
LINE
5
520
100
AcDbEntity
8
0
100
AcDbLine
10
-217.63133696588599
20
53.025007364645099
30
0
11
-228.63318854677684
21
51.08508409318398
31
0
0
LWPOLYLINE
5
521
100
AcDbEntity
8
0
100
AcDbPolyline
90
8
70
1
43
0.0
10
-229.59603854677678
20
70.259184093183904
42
-0.99999999999999989
10
-231.23434263535475
20
71.406336965885998
10
-233.1742658895536
20
82.408188534689643
42
-1.0000000105367122
10
-232.02711303411388
20
84.046492635354838
10
-221.02526146531022
20
85.986415889553626
42
-1.0000000105367122
10
-219.38695736464501
20
84.839263034113884
10
-217.44703411044622
20
73.83741146531024
42
-1.0000000105367122
10
-218.59418696588594
20
72.199107364645045
0
ARC
5
522
100
AcDbEntity
8
0
100
AcDbCircle
10
-191.93114059106574
20
58.274660529535026
30
0
40
0.99999999999999578
210
0
220
0
230
1
100
AcDbArc
50
145.0000000000004
51
325.00000000000063
0
LINE
5
523
100
AcDbEntity
8
0
100
AcDbLine
10
-192.75029263535473
20
58.848236965886059
30
0
11
-194.69021588955349
21
69.850088534689718
31
0
0
ARC
5
524
100
AcDbEntity
8
0
100
AcDbCircle
10
-194.11663947046486
20
70.669240591065915
30
0
40
1.0000000000000233
210
0
220
-0
230
1
100
AcDbArc
50
54.999999999998167
51
235.00000120742172
0
LINE
5
525
100
AcDbEntity
8
0
100
AcDbLine
10
-193.54306303411377
20
71.488392635354913
30
0
11
-182.54121146531014
21
73.428315889553687
31
0
0
ARC
5
526
100
AcDbEntity
8
0
100
AcDbCircle
10
-181.72205940893394
20
72.854739470464963
30
0
40
1.0000000000000198
210
0
220
0
230
1
100
AcDbArc
50
-34.999999999998685
51
145.00000120741703
0
LINE
5
527
100
AcDbEntity
8
0
100
AcDbLine
10
-180.90290736464493
20
72.281163034113931
30
0
11
-178.96298411044614
21
61.2793114653103
31
0
0
ARC
5
528
100
AcDbEntity
8
0
100
AcDbCircle
10
-179.53656052953482
20
60.460159408934075
30
0
40
0.99999999999997402
210
0
220
0
230
1
100
AcDbArc
50
-125.00000000000144
51
55.000001207419963
0
LINE
5
529
100
AcDbEntity
8
0
100
AcDbLine
10
-180.11013696588589
20
59.641007364645105
30
0
11
-191.11198854677673
21
57.701084093183979
31
0
0
ARC
5
530
100
AcDbEntity
8
0
100
AcDbCircle
10
-251.19979321881334
20
11.696606781186569
30
0
40
0.99999999999999967
210
0
220
0
230
1
100
AcDbArc
50
135.00000000000023
51
315.00000000000017
0
LINE
5
531
100
AcDbEntity
8
0
100
AcDbLine
10
-251.90689999999989
20
12.403713562373117
30
0
11
-251.9068999850987
21
23.575286422725796
31
0
0
ARC
5
532
100
AcDbEntity
8
0
100
AcDbCircle
10
-251.19979321881331
20
24.282393218813496
30
0
40
1.0000000000000011
210
0
220
-0
230
1
100
AcDbArc
50
44.999999999999858
51
225.00000120741768
0
LINE
5
533
100
AcDbEntity
8
0
100
AcDbLine
10
-250.49268643762676
20
24.989500000000046
30
0
11
-239.32111357727416
21
24.989499985098867
31
0
0
ARC
5
534
100
AcDbEntity
8
0
100
AcDbCircle
10
-238.61400678118645
20
24.282393218813461
30
0
40
1.0000000000000324
210
0
220
0
230
1
100
AcDbArc
50
-44.99999999999654
51
135.00000120741771
0
LINE
5
535
100
AcDbEntity
8
0
100
AcDbLine
10
-237.90689999999984
20
23.575286437626936
30
0
11
-237.90690001490105
21
12.403713577274278
31
0
0
ARC
5
536
100
AcDbEntity
8
0
100
AcDbCircle
10
-238.61400678118645
20
11.696606781186571
30
0
40
0.999999999999998
210
0
220
0
230
1
100
AcDbArc
50
-135.00000000000031
51
45.000001207417974
0
LINE
5
537
100
AcDbEntity
8
0
100
AcDbLine
10
-239.321113562373
20
10.989500000000024
30
0
11
-250.49268643762679
21
10.989500000000021
31
0
0
ARC
5
538
100
AcDbEntity
8
0
100
AcDbCircle
10
-315.49349321881346
20
-6.2928932188134361
30
0
40
0.99999999999999967
210
0
220
0
230
1
100
AcDbArc
50
135.0000000000002
51
315.00000000000017
0
LINE
5
539
100
AcDbEntity
8
0
100
AcDbLine
10
-316.20060000000001
20
-5.5857864376268873
30
0
11
-316.20059998509879
21
5.5857864227257901
31
0
0
ARC
5
540
100
AcDbEntity
8
0
100
AcDbCircle
10
-315.4934932188134
20
6.292893218813493
30
0
40
0.999999999999998
210
0
220
-0
230
1
100
AcDbArc
50
44.999999999999709
51
225.0000012074178
0
LINE
5
541
100
AcDbEntity
8
0
100
AcDbLine
10
-314.78638643762685
20
7.0000000000000391
30
0
11
-303.61481357727422
21
6.9999999850988628
31
0
0
ARC
5
542
100
AcDbEntity
8
0
100
AcDbCircle
10
-302.9077067811865
20
6.2928932188134823
30
0
40
1.0000000000000036
210
0
220
0
230
1
100
AcDbArc
50
-45.00000000000005
51
135.00000120741876
0
LINE
5
543
100
AcDbEntity
8
0
100
AcDbLine
10
-302.20059999999995
20
5.5857864376269282
30
0
11
-302.20060001490117
21
-5.5857864227257306
31
0
0
ARC
5
544
100
AcDbEntity
8
0
100
AcDbCircle
10
-302.9077067811865
20
-6.2928932188134361
30
0
40
1.000000000000024
210
0
220
0
230
1
100
AcDbArc
50
-135.00000000000256
51
45.000001207420219
0
LINE
5
545
100
AcDbEntity
8
0
100
AcDbLine
10
-303.61481356237312
20
-6.9999999999999831
30
0
11
-314.7863864376269
21
-6.999999999999984
31
0
0
ARC
5
546
100
AcDbEntity
8
0
100
AcDbCircle
10
-217.84214059106571
20
34.361960529535061
30
0
40
0.99999999999999845
210
0
220
0
230
1
100
AcDbArc
50
144.99999999999972
51
325.00000000000006
0
LINE
5
547
100
AcDbEntity
8
0
100
AcDbLine
10
-218.6612926353547
20
34.935536965886108
30
0
11
-220.60121588955349
21
45.937388534689759
31
0
0
ARC
5
548
100
AcDbEntity
8
0
100
AcDbCircle
10
-220.02763947046475
20
46.756540591065971
30
0
40
0.99999999999999578
210
0
220
-0
230
1
100
AcDbArc
50
55.000000000000377
51
235.00000120741683
0
LINE
5
549
100
AcDbEntity
8
0
100
AcDbLine
10
-219.45406303411372
20
47.575692635354955
30
0
11
-208.45221146531009
21
49.515615889553708
31
0
0
ARC
5
550
100
AcDbEntity
8
0
100
AcDbCircle
10
-207.63305940893392
20
48.942039470464991
30
0
40
1.00000000000003
210
0
220
0
230
1
100
AcDbArc
50
-34.999999999999346
51
145.00000120741643
0
LINE
5
551
100
AcDbEntity
8
0
100
AcDbLine
10
-206.8139073646449
20
48.368463034113944
30
0
11
-204.87398411044612
21
37.366611465310314
31
0
0
ARC
5
552
100
AcDbEntity
8
0
100
AcDbCircle
10
-205.44756052953485
20
36.547459408934124
30
0
40
1.0000000000000067
210
0
220
0
230
1
100
AcDbArc
50
-124.99999999999895
51
55.000001207416126
0
LINE
5
553
100
AcDbEntity
8
0
100
AcDbLine
10
-206.02113696588589
20
35.728307364645119
30
0
11
-217.02298854677673
21
33.788384093184021
31
0
0
LWPOLYLINE
5
554
100
AcDbEntity
8
0
100
AcDbPolyline
90
8
70
1
43
0.0
10
-310.39444999999995
20
30.099999999999994
42
-0.41421356237307422
10
-311.39445000000001
20
29.099999999999994
10
-316.51945000000001
20
29.100000000000016
42
-0.41421356237310675
10
-317.51945000000001
20
30.099999999999998
10
-317.51945000000001
20
44.100000000000001
42
-0.41421356237310542
10
-316.51945000000001
20
45.099999999999994
10
-311.39445000000001
20
45.100000000000023
42
-0.41421356237307422
10
-310.39444999999995
20
44.100000000000009
0
LWPOLYLINE
5
555
100
AcDbEntity
8
0
100
AcDbPolyline
90
8
70
1
43
0.0
10
-292.71944999999999
20
29.09999999999998
42
-0.41421356237307422
10
-293.71944999999999
20
30.099999999999994
10
-293.71944999999994
20
44.100000000000001
42
-0.41421356237307422
10
-292.71944999999999
20
45.099999999999994
10
-287.59444999999999
20
45.09999999999998
42
-0.41421356237310542
10
-286.59444999999999
20
44.100000000000001
10
-286.59444999999999
20
30.099999999999998
42
-0.41421356237309243
10
-287.59444999999999
20
29.099999999999998
0
ARC
5
556
100
AcDbEntity
8
0
100
AcDbCircle
10
-229.47234059106586
20
12.967360529535018
30
0
40
0.99999999999999967
210
0
220
0
230
1
100
AcDbArc
50
144.99999999999977
51
325.00000000000063
0
LINE
5
557
100
AcDbEntity
8
0
100
AcDbLine
10
-230.29149263535484
20
13.540936965886063
30
0
11
-232.23141588955366
21
24.542788534689706
31
0
0
ARC
5
558
100
AcDbEntity
8
0
100
AcDbCircle
10
-231.65783947046498
20
25.361940591065913
30
0
40
1.0000000000000271
210
0
220
-0
230
1
100
AcDbArc
50
54.999999999999623
51
235.00000120741939
0
LINE
5
559
100
AcDbEntity
8
0
100
AcDbLine
10
-231.08426303411392
20
26.181092635354915
30
0
11
-220.08241146531032
21
28.1210158895537
31
0
0
ARC
5
560
100
AcDbEntity
8
0
100
AcDbCircle
10
-219.26325940893409
20
27.54743947046499
30
0
40
0.99999999999999845
210
0
220
0
230
1
100
AcDbArc
50
-35.000000000000114
51
145.00000120741865
0
LINE
5
561
100
AcDbEntity
8
0
100
AcDbLine
10
-218.44410736464511
20
26.973863034113947
30
0
11
-216.50418411044629
21
15.972011465310324
31
0
0
ARC
5
562
100
AcDbEntity
8
0
100
AcDbCircle
10
-217.077760529535
20
15.152859408934098
30
0
40
0.99999999999999034
210
0
220
0
230
1
100
AcDbArc
50
-124.99999999999964
51
55.000001207418634
0
LINE
5
563
100
AcDbEntity
8
0
100
AcDbLine
10
-217.65133696588603
20
14.333707364645115
30
0
11
-228.65318854677685
21
12.393784093183971
31
0
0
ARC
5
564
100
AcDbEntity
8
0
100
AcDbCircle
10
-322.63739321881332
20
50.857106781186459
30
0
40
0.99999999999998546
210
0
220
0
230
1
100
AcDbArc
50
134.99999999999713
51
314.99999999999739
0
LINE
5
565
100
AcDbEntity
8
0
100
AcDbLine
10
-323.34449999999981
20
51.564213562373027
30
0
11
-323.34449998509876
21
62.735786422725717
31
0
0
ARC
5
566
100
AcDbEntity
8
0
100
AcDbCircle
10
-322.63739321881326
20
63.442893218813417
30
0
40
0.99999999999998546
210
0
220
-0
230
1
100
AcDbArc
50
45.000000000000291
51
225.00000120741305
0
LINE
5
567
100
AcDbEntity
8
0
100
AcDbLine
10
-321.93028643762671
20
64.149999999999977
30
0
11
-310.75871357727414
21
64.149999985098788
31
0
0
ARC
5
568
100
AcDbEntity
8
0
100
AcDbCircle
10
-310.05160678118648
20
63.442893218813374
30
0
40
1.0000000000000295
210
0
220
0
230
1
100
AcDbArc
50
-44.999999999993946
51
135.0000012074151
0
LINE
5
569
100
AcDbEntity
8
0
100
AcDbLine
10
-309.34449999999981
20
62.735786437626857
30
0
11
-309.34450001490109
21
51.564213577274202
31
0
0
ARC
5
570
100
AcDbEntity
8
0
100
AcDbCircle
10
-310.05160678118648
20
50.857106781186502
30
0
40
0.99999999999997924
210
0
220
0
230
1
100
AcDbArc
50
-134.99999999999972
51
45.000001207417689
0
LINE
5
571
100
AcDbEntity
8
0
100
AcDbLine
10
-310.75871356237303
20
50.149999999999942
30
0
11
-321.93028643762682
21
50.149999999999899
31
0
0
LWPOLYLINE
5
572
100
AcDbEntity
8
0
100
AcDbPolyline
90
8
70
1
43
0.0
10
-194.61119921940389
20
75.412546294604283
42
-0.41421356237309082
10
-195.42235879474913
20
74.254090363925158
10
-200.46949852893673
20
73.364143453382155
42
-0.4142135623730967
10
-201.62795445961586
20
74.175303028727413
10
-204.05902894695291
20
87.962611570898332
42
-0.4142135623730866
10
-203.24786937160764
20
89.121067501577471
10
-198.20072963742001
20
90.011014412120488
42
-0.41421356237309925
10
-197.0422737067409
20
89.199854836775216
0
LWPOLYLINE
5
573
100
AcDbEntity
8
0
100
AcDbPolyline
90
8
70
1
43
0.0
10
-177.03107400724619
20
77.496970081855096
42
-0.41421356237308987
10
-178.18952993792527
20
78.308129657200368
10
-180.62060442526229
20
92.095438199371273
42
-0.4142135623730821
10
-179.80944484991707
20
93.253894130050426
10
-174.76230511572948
20
94.143841040593443
42
-0.41421356237307361
10
-173.60384918505034
20
93.332681465248172
10
-171.17277469771338
20
79.545372923077238
42
-0.41421356237307955
10
-171.98393427305859
20
78.386916992398113
0
ARC
5
574
100
AcDbEntity
8
0
100
AcDbCircle
10
-173.17054059106579
20
61.582660529535019
30
0
40
0.99999999999999578
210
0
220
0
230
1
100
AcDbArc
50
144.99999999999972
51
324.99999914622765
0
LINE
5
575
100
AcDbEntity
8
0
100
AcDbLine
10
-173.98969263535477
20
62.156236965886066
30
0
11
-175.92961588955353
21
73.158088534689711
31
0
0
ARC
5
576
100
AcDbEntity
8
0
100
AcDbCircle
10
-175.35603947046491
20
73.977240591065922
30
0
40
1.0000000000000089
210
0
220
-0
230
1
100
AcDbArc
50
54.999999999997698
51
235.00000120742214
0
LINE
5
577
100
AcDbEntity
8
0
100
AcDbLine
10
-174.78246303411382
20
74.796392635354906
30
0
11
-163.78061146531019
21
76.73631588955368
31
0
0
ARC
5
578
100
AcDbEntity
8
0
100
AcDbCircle
10
-162.96145940893399
20
76.162739470464956
30
0
40
1.0000000000000198
210
0
220
0
230
1
100
AcDbArc
50
-34.999999999998685
51
145.00000120741703
0
LINE
5
579
100
AcDbEntity
8
0
100
AcDbLine
10
-162.14230736464498
20
75.589163034113923
30
0
11
-160.20238411044619
21
64.587311465310307
31
0
0
ARC
5
580
100
AcDbEntity
8
0
100
AcDbCircle
10
-160.77596052953487
20
63.768159408934096
30
0
40
0.99999999999998856
210
0
220
0
230
1
100
AcDbArc
50
-125.00000000000118
51
55.000001207419501
0
LINE
5
581
100
AcDbEntity
8
0
100
AcDbLine
10
-161.34953696588593
20
62.949007364645119
30
0
11
-172.35138855532372
21
61.009084080977665
31
0
0
ARC
5
582
100
AcDbEntity
8
0
100
AcDbCircle
10
-6.2928932188134343
20
-6.2928932188134548
30
0
40
1.0000000000000004
210
0
220
0
230
1
100
AcDbArc
50
134.99999999999997
51
314.99999999999994
0
LINE
5
583
100
AcDbEntity
8
0
100
AcDbLine
10
-6.9999999999999822
20
-5.585786437626906
30
0
11
-6.9999999850988122
21
5.585786422725775
31
0
0
ARC
5
584
100
AcDbEntity
8
0
100
AcDbCircle
10
-6.2928932188134237
20
6.2928932188134779
30
0
40
0.99999999999999967
210
0
220
-0
230
1
100
AcDbArc
50
44.999999999999709
51
225.00000120741794
0
LINE
5
585
100
AcDbEntity
8
0
100
AcDbLine
10
-5.5857864376268731
20
7.0000000000000213
30
0
11
5.5857864227257634
21
6.9999999850988459
31
0
0
ARC
5
586
100
AcDbEntity
8
0
100
AcDbCircle
10
6.2928932188134725
20
6.2928932188134565
30
0
40
1.0000000000000004
210
0
220
0
230
1
100
AcDbArc
50
-45.000000000000199
51
135.00000120741817
0
LINE
5
587
100
AcDbEntity
8
0
100
AcDbLine
10
7.0000000000000178
20
5.585786437626906
30
0
11
6.9999999850988477
21
-5.5857864227257483
31
0
0
ARC
5
588
100
AcDbEntity
8
0
100
AcDbCircle
10
6.292893218813461
20
-6.2928932188134539
30
0
40
0.99999999999999967
210
0
220
0
230
1
100
AcDbArc
50
-135.00000000000009
51
45.000001207418123
0
LINE
5
589
100
AcDbEntity
8
0
100
AcDbLine
10
5.5857864376269131
20
-7
30
0
11
-5.5857864376268873
21
-7.0000000000000027
31
0
0
ARC
5
590
100
AcDbEntity
8
0
100
AcDbCircle
10
-1.5302932188134437
20
31.807106781186548
30
0
40
1.0000000000000013
210
0
220
0
230
1
100
AcDbArc
50
134.99999999999974
51
314.99999999999983
0
LINE
5
591
100
AcDbEntity
8
0
100
AcDbLine
10
-2.2373999999999903
20
32.514213562373101
30
0
11
-2.2373999850988224
21
43.685786422725776
31
0
0
ARC
5
592
100
AcDbEntity
8
0
100
AcDbCircle
10
-1.5302932188134295
20
44.392893218813477
30
0
40
1.000000000000006
210
0
220
-0
230
1
100
AcDbArc
50
45.000000000000483
51
225.00000120741765
0
LINE
5
593
100
AcDbEntity
8
0
100
AcDbLine
10
-0.82318643762688093
20
45.100000000000037
30
0
11
10.348386422725753
21
45.099999985098847
31
0
0
ARC
5
594
100
AcDbEntity
8
0
100
AcDbCircle
10
11.055493218813464
20
44.39289321881347
30
0
40
1.0000000000000058
210
0
220
0
230
1
100
AcDbArc
50
-45.000000000000199
51
135.00000120741871
0
LINE
5
595
100
AcDbEntity
8
0
100
AcDbLine
10
11.762600000000011
20
43.685786437626916
30
0
11
11.762599985098838
21
32.514213577274262
31
0
0
ARC
5
596
100
AcDbEntity
8
0
100
AcDbCircle
10
11.055493218813449
20
31.807106781186548
30
0
40
0.99999999999999967
210
0
220
0
230
1
100
AcDbArc
50
-135.00000000000009
51
45.000001207418414
0
LINE
5
597
100
AcDbEntity
8
0
100
AcDbLine
10
10.348386437626901
20
31.100000000000001
30
0
11
-0.82318643762689758
21
31.099999999999998
31
0
0
ARC
5
598
100
AcDbEntity
8
0
100
AcDbCircle
10
0.85100678118654338
20
50.857106781186559
30
0
40
1.0000000000000007
210
0
220
0
230
1
100
AcDbArc
50
135.00000000000017
51
314.99999914622663
0
LINE
5
599
100
AcDbEntity
8
0
100
AcDbLine
10
0.14389999999999348
20
51.564213562373105
30
0
11
0.14390001490116378
21
62.735786422725788
31
0
0
ARC
5
600
100
AcDbEntity
8
0
100
AcDbCircle
10
0.85100678118655682
20
63.442893218813488
30
0
40
1.000000000000006
210
0
220
-0
230
1
100
AcDbArc
50
45.000000000000483
51
225.00000120741765
0
LINE
5
601
100
AcDbEntity
8
0
100
AcDbLine
10
1.5581135623731055
20
64.150000000000048
30
0
11
12.729686422725738
21
64.149999985098859
31
0
0
ARC
5
602
100
AcDbEntity
8
0
100
AcDbCircle
10
13.436793218813449
20
63.442893218813481
30
0
40
1.0000000000000058
210
0
220
0
230
1
100
AcDbArc
50
-45.000000000000156
51
135.00000120741871
0
LINE
5
603
100
AcDbEntity
8
0
100
AcDbLine
10
14.143899999999999
20
62.735786437626928
30
0
11
14.143899985098825
21
51.564213577274273
31
0
0
ARC
5
604
100
AcDbEntity
8
0
100
AcDbCircle
10
13.436793218813431
20
50.857106781186559
30
0
40
1.0000000000000011
210
0
220
0
230
1
100
AcDbArc
50
-134.99999999999952
51
45.000001207418201
0
LINE
5
605
100
AcDbEntity
8
0
100
AcDbLine
10
12.72968643762689
20
50.150000000000006
30
0
11
1.5581135518363807
21
50.149999989463304
31
0
0
LWPOLYLINE
5
606
100
AcDbEntity
8
0
100
AcDbPolyline
90
8
70
1
43
0.0
10
-3.204486437626902
20
12.050000000000004
42
-0.99999999999999989
10
-4.6186999999999943
20
13.464213562373107
10
-4.6186999850988242
20
24.635786422725783
42
-1.0000000105367122
10
-3.2044864376268887
20
26.050000000000036
10
7.9670864227257487
20
26.049999985098857
42
-1.0000000105367122
10
9.3813000000000049
20
24.635786437626916
10
9.3812999850988366
20
13.464213577274261
42
-1.0000000105367122
10
7.9670864376268993
20
12.05000000000001
0
ENDSEC
0
SECTION
2
OBJECTS
0
DICTIONARY
5
C
100
AcDbDictionary
3
ACAD_GROUP
350
D
3
ACAD_MLINESTYLE
350
17
0
DICTIONARY
5
D
100
AcDbDictionary
0
DICTIONARY
5
1A
330
C
100
AcDbDictionary
0
DICTIONARY
5
17
100
AcDbDictionary
0
ENDSEC
0
EOF
