M48
; DRILL file {KiCad (5.99.0-2612-g32a7d0025-dirty)} date 11/22/20 16:41:42
; FORMAT={-:-/ absolute / inch / decimal}
; #@! TF.CreationDate,2020-11-22T16:41:42+01:00
; #@! TF.GenerationSoftware,Kicad,Pcbnew,(5.99.0-2612-g32a7d0025-dirty)
; #@! TF.FileFunction,NonPlated,1,2,NPTH
FMAT,2
INCH
T1C0.0256
T2C0.0689
T3C0.1200
T4C0.1570
T5C0.2106
T6C0.2559
T7C0.3543
%
G90
G05
T1
X7.4086Y-1.0803
X7.6362Y-1.0803
T2
X5.6854Y-2.0573
X12.0275Y-1.85
X11.9088Y-1.1
X12.6588Y-3.35
X8.8755Y-2.9048
X9.2694Y-2.8353
X10.1091Y-4.2104
X10.503Y-4.141
X13.0588Y-3.35
X6.0793Y-2.1268
X11.6275Y-1.85
X5.8378Y-4.3689
X1.4477Y-2.6
X10.0712Y-3.4555
X10.4651Y-3.3861
X2.4582Y-1.85
X2.8582Y-1.85
X6.2317Y-4.4383
X1.0477Y-2.6
X4.5453Y-4.141
X3.8895Y-2.6
X12.3088Y-1.1
X2.552Y-3.35
X2.952Y-3.35
X6.1433Y-1.3765
X6.5372Y-1.4459
X5.0396Y-2.705
X4.9392Y-4.2104
X8.6319Y-4.4709
X9.0258Y-4.4014
X10.3544Y-1.1209
X10.7484Y-1.0514
X5.4335Y-2.7744
X3.4895Y-2.6
X9.6158Y-1.2511
X3.1145Y-1.1
X3.5145Y-1.1
X10.8775Y-1.8082
X11.2775Y-1.8082
X11.9088Y-2.6
X12.3088Y-2.6
X12.6588Y-1.1
X13.0588Y-1.1
X10.0097Y-1.1817
X9.6141Y-2.7746
X10.3527Y-2.6443
X2.177Y-3.35
X2.577Y-3.35
X8.1386Y-1.5116
X6.0604Y-3.6466
X3.0207Y-3.35
X3.4207Y-3.35
X13.4088Y-1.1
X13.8088Y-1.1
X6.4164Y-4.4709
X8.5325Y-1.4421
X6.4543Y-3.716
X4.2082Y-1.7968
X4.6021Y-1.8663
X10.7466Y-2.5749
X11.1588Y-2.6
X2.8582Y-2.6
X4.9468Y-1.9271
X5.3407Y-1.9965
X3.8645Y-1.0236
X4.2645Y-1.0236
X10.008Y-2.7051
X6.0225Y-4.4014
X11.5588Y-2.6
X3.7707Y-3.35
X4.1707Y-3.35
X2.4582Y-2.6
X11.6275Y-3.35
X12.0275Y-3.35
X8.1369Y-3.035
X6.8819Y-1.5067
X7.2758Y-1.5762
X13.315Y-1.85
X13.715Y-1.85
X3.3957Y-1.85
X3.7957Y-1.85
X9.3333Y-2.0625
X9.7273Y-1.993
X10.8775Y-3.35
X11.2775Y-3.35
X9.3326Y-3.5858
X9.7265Y-3.5163
X13.1275Y-2.6
X13.5275Y-2.6
X1.2352Y-1.1
X1.6352Y-1.1
X4.6661Y-1.116
X5.06Y-1.1855
X2.3645Y-1.1
X2.7645Y-1.1
X8.5308Y-2.9656
X8.5947Y-2.1927
X5.4047Y-1.2462
X5.7986Y-1.3157
X1.1414Y-1.85
X1.5414Y-1.85
X8.8165Y-4.4383
X9.2104Y-4.3689
X1.3539Y-3.35
X8.9887Y-2.1233
X8.5939Y-3.716
X13.0338Y-1.1
X13.4338Y-1.1
X5.3218Y-3.5163
X5.7157Y-3.5858
X0.9539Y-3.35
X13.69Y-3.35
X14.09Y-3.35
X8.9879Y-3.6466
X4.3009Y-2.5748
X4.6949Y-2.6442
X6.5168Y-2.9655
X6.9107Y-3.0349
X6.424Y-2.1875
X6.8179Y-2.257
X13.0338Y-3.35
X13.4338Y-3.35
X12.3775Y-1.85
X12.7775Y-1.85
X10.0719Y-1.9323
X10.4659Y-1.8628
X5.7782Y-2.8352
X6.1721Y-2.9047
X6.799Y-3.7768
X7.1929Y-3.8463
X7.8561Y-2.323
X8.2501Y-2.2535
X11.1588Y-1.0236
X11.5588Y-1.0236
X11.0078Y-4.1
X4.0405Y-4.1
X7.8553Y-3.8463
X8.2493Y-3.7768
X11.4078Y-4.1
X9.2711Y-1.3119
X3.6405Y-4.1
X8.8772Y-1.3814
X4.5832Y-3.3861
X4.9771Y-3.4555
T3
X8.5996Y-4.7558
X9.5229Y-4.593
X5.7101Y-4.6256
X6.6333Y-4.7884
X12.765Y-3.075
X13.7025Y-3.075
X2.2832Y-3.625
X8.4149Y-4.7884
X9.3382Y-4.6256
X12.765Y-0.825
X13.7025Y-0.825
X12.8588Y-2.875
X13.7963Y-2.875
X5.5254Y-4.593
X6.4487Y-4.7558
X3.2207Y-3.625
T4
X5.2365Y-2.7397
X12.1088Y-2.6
X3.2207Y-3.025
X12.1088Y-1.1
X2.2832Y-3.025
X11.3588Y-1.0236
X8.3356Y-1.4769
X7.0789Y-1.5414
X13.515Y-1.85
X1.1539Y-3.35
X3.5957Y-1.85
X11.2078Y-4.1
X13.2338Y-1.1
X13.89Y-3.35
X13.2338Y-3.35
X2.752Y-3.35
X10.306Y-4.1757
X2.377Y-3.35
X11.0775Y-1.8082
X4.4051Y-1.8316
X13.6088Y-1.1
X5.8824Y-2.092
X9.8128Y-1.2164
X11.8275Y-1.85
X12.8588Y-1.1
X2.6582Y-2.6
X3.6895Y-2.6
X3.2207Y-3.35
X9.5303Y-2.0278
X11.0775Y-3.35
X2.5645Y-1.1
X8.0531Y-2.2882
X9.811Y-2.7398
X1.4352Y-1.1
X11.3588Y-2.6
X6.7137Y-3.0002
X10.5496Y-2.6096
X9.5295Y-3.5511
X8.7917Y-2.158
X8.7909Y-3.6813
X9.0135Y-4.4036
X12.765Y-3.675
X13.7025Y-3.675
X8.3108Y-4.1975
X1.3414Y-1.85
X5.1438Y-1.9618
X9.234Y-4.0347
X3.9707Y-3.35
X8.4954Y-4.1649
X5.5187Y-3.5511
X8.3338Y-3.0003
X9.4187Y-4.0022
X4.0645Y-1.0236
X4.8631Y-1.1507
X5.6017Y-1.281
X10.2689Y-1.8975
X13.7963Y-2.275
X13.3275Y-2.6
X4.4979Y-2.6095
X12.765Y-1.425
X13.7025Y-1.425
X8.0523Y-3.8115
X12.8588Y-2.275
X10.2681Y-3.4208
X3.8405Y-4.1
X5.8142Y-4.0347
X6.621Y-2.2223
X9.0742Y-1.3466
X6.3403Y-1.4112
X9.0724Y-2.8701
X5.9751Y-2.87
X6.996Y-3.8115
X12.8588Y-3.35
X12.5775Y-1.85
X8.8288Y-4.4362
X10.5514Y-1.0862
X5.6296Y-4.0022
X6.5529Y-4.1649
X2.6582Y-1.85
X6.0348Y-4.4036
X1.2477Y-2.6
X11.8275Y-3.35
X6.2194Y-4.4362
X6.2573Y-3.6813
X6.7375Y-4.1975
X4.7801Y-3.4208
X4.7422Y-4.1757
X3.3145Y-1.1
T5
X1.8142Y-2.6
X7.522Y-2.8724
T6
X7.0772Y-4.6083
X7.9709Y-4.6083
T7
X7.522Y-3.2713
T0
M30
