M48
; DRILL file {KiCad (5.99.0-2612-g32a7d0025-dirty)} date 08/10/20 19:08:23
; FORMAT={-:-/ absolute / inch / decimal}
; #@! TF.CreationDate,2020-08-10T19:08:23+02:00
; #@! TF.GenerationSoftware,Kicad,Pcbnew,(5.99.0-2612-g32a7d0025-dirty)
; #@! TF.FileFunction,Plated,1,2,PTH
FMAT,2
INCH
T1C0.0118
T2C0.0157
T3C0.0236
T4C0.0394
T5C0.0579
T6C0.0945
%
G90
G05
T1
X3.132Y-1.332
X3.69Y-1.25
X4.5025Y-1.2525
X6.5675Y-1.808
X6.9595Y-2.479
X7.413Y-1.762
X7.579Y-1.227
X7.746Y-1.215
T2
X2.118Y-3.994
X2.2745Y-1.364
X2.486Y-4.192
X2.512Y-3.994
X2.906Y-3.994
X3.282Y-4.213
X4.677Y-2.885
X4.868Y-3.054
X5.2495Y-1.3905
X5.98Y-1.37
X6.826Y-4.559
X6.9375Y-1.85
X6.9475Y-2.27
X7.07Y-2.68
X7.1Y-3.36
X7.16Y-2.454
X7.193Y-2.863
X7.199Y-2.019
X7.208Y-1.071
X7.2125Y-2.5525
X7.261Y-1.673
X7.294Y-1.182
X7.344Y-4.515
X7.356Y-2.254
X7.4125Y-1.99
X7.424Y-1.718
X7.46Y-1.252
X7.476Y-3.662
X7.48Y-2.09
X7.505Y-3.743
X7.59Y-1.458
X7.59Y-1.735
X7.64Y-1.398
X7.703Y-2.041
X7.717Y-1.18
X7.788Y-2.518
X7.85Y-1.869
X7.9025Y-2.8475
X8.05Y-2.55
X8.054Y-3.381
X8.148Y-1.143
X8.375Y-1.62
X8.437Y-1.864
X8.7Y-2.657
X9.14Y-2.0
X9.88Y-1.87
X10.16Y-2.58
X10.7Y-1.71
X10.99Y-2.5
X11.45Y-1.75
X11.74Y-2.5
X11.794Y-4.162
X12.142Y-4.2
X12.2Y-1.75
X12.534Y-3.998
X12.536Y-4.2
X12.724Y-2.892
X12.873Y-4.244
X12.928Y-4.2
X12.97Y-1.21
X13.12Y-1.75
T4
X7.9265Y-1.7224
X7.9439Y-1.8208
X7.9612Y-1.9193
X7.7351Y-1.479
X7.7525Y-1.5775
X7.7699Y-1.676
X7.7872Y-1.7745
X8.025Y-1.705
X8.0424Y-1.8035
X8.0597Y-1.902
T5
X11.2088Y-0.9236
X11.4588Y-0.8236
X1.1914Y-1.75
X8.6266Y-2.0856
X3.4457Y-1.75
X3.6957Y-1.65
X9.6477Y-1.144
X9.8765Y-1.0021
X6.168Y-4.224
X2.602Y-3.25
X2.852Y-3.15
X8.1687Y-2.9279
X8.3976Y-2.786
X8.8484Y-4.3312
X9.0772Y-4.1893
X6.4906Y-2.0977
X12.9588Y-0.9
X1.4414Y-1.65
X8.8554Y-1.9437
X8.1705Y-1.4044
X13.99Y-3.15
X13.4588Y-1.0
X8.3993Y-1.2625
X13.74Y-3.25
X3.1645Y-1.0
X3.4145Y-0.9
X13.7088Y-0.9
X10.1038Y-1.8251
X10.3327Y-1.6832
X5.9044Y-4.2791
X3.8207Y-3.25
X4.0707Y-3.15
X8.6637Y-4.3637
X8.8926Y-4.2218
X6.0891Y-4.3116
X6.3526Y-4.2566
X1.5352Y-0.9
X6.2099Y-1.2867
X7.888Y-2.2158
X10.1409Y-4.1033
X1.2852Y-1.0
X13.365Y-1.75
X13.615Y-1.65
X8.1168Y-2.0739
X10.3698Y-3.9614
X5.0134Y-1.8373
X5.277Y-1.7822
X6.4735Y-1.2316
X11.9588Y-2.5
X12.2088Y-2.4
X4.2748Y-1.707
X10.3319Y-3.2065
X3.0707Y-3.25
X3.3207Y-3.15
X10.103Y-3.3484
X12.7088Y-1.0
X4.5384Y-1.652
X3.6905Y-4.0
X3.9405Y-3.9
X11.9588Y-1.0
X12.2088Y-0.9
X4.7327Y-1.0262
X4.9963Y-0.9711
X11.6775Y-3.25
X11.9275Y-3.15
X4.6119Y-4.0512
X4.8754Y-3.9961
X10.3863Y-1.0137
X10.6151Y-0.8718
X5.4713Y-1.1564
X5.7349Y-1.1014
X7.8872Y-3.7391
X8.1161Y-3.5972
X5.652Y-3.3715
X10.9275Y-1.7082
X11.1775Y-1.6082
X9.3652Y-1.9553
X9.5941Y-1.8134
X4.6498Y-3.2963
X4.9133Y-3.2412
X6.7542Y-2.0427
X12.7088Y-3.25
X8.9073Y-2.7976
X9.1362Y-2.6558
X13.4275Y-2.4
X9.8748Y-2.5255
X5.3884Y-3.4265
X1.0039Y-3.25
X13.1775Y-2.5
X1.2539Y-3.15
X3.5395Y-2.5
X3.7895Y-2.4
X11.6775Y-1.75
X11.9275Y-1.65
X10.9275Y-3.25
X11.1775Y-3.15
X9.6459Y-2.6674
X12.9588Y-3.15
X2.227Y-3.25
X2.477Y-3.15
X11.0578Y-4.0
X11.2088Y-2.5
X11.4588Y-2.4
X5.8448Y-2.7454
X6.1083Y-2.6904
X9.1379Y-1.1323
X6.127Y-3.5568
X6.3906Y-3.5017
X10.3845Y-2.5372
X10.6134Y-2.3953
X13.0838Y-1.0
X4.3676Y-2.485
X4.6311Y-2.4299
X8.9091Y-1.2742
X9.5933Y-3.3367
X13.3338Y-0.9
X9.3644Y-3.4786
X5.1062Y-2.6152
X1.3477Y-2.4
X2.5082Y-2.5
X13.0838Y-3.25
X12.6775Y-1.65
X5.3697Y-2.5601
X1.0977Y-2.5
X2.7582Y-2.4
X2.7582Y-1.65
X13.3338Y-3.15
X3.9145Y-0.9236
X4.1645Y-0.8236
X7.1292Y-3.6319
X2.5082Y-1.75
X6.8656Y-3.687
X12.4275Y-1.75
X5.752Y-1.9675
X6.0156Y-1.9124
X8.6258Y-3.6089
X11.3078Y-3.9
X7.2121Y-1.3618
X2.4145Y-1.0
X2.6645Y-0.9
X6.9485Y-1.4169
X8.8547Y-3.467
X6.5834Y-2.8757
X6.8469Y-2.8206
T6
X1.8906Y-4.1
X2.0Y-1.1
X7.522Y-4.1374
X13.1575Y-4.1
T3
G00X7.3523Y-0.9248
M15
G01X7.3523Y-0.9484
M16
G05
G00X7.3523Y-1.0795
M15
G01X7.3523Y-1.1228
M16
G05
G00X7.6925Y-0.9248
M15
G01X7.6925Y-0.9484
M16
G05
G00X7.6925Y-1.0795
M15
G01X7.6925Y-1.1228
M16
G05
T0
M30
