G04 #@! TF.GenerationSoftware,KiCad,Pcbnew,(5.99.0-1918-g94cd0cf3a)*
G04 #@! TF.CreationDate,2020-08-09T16:20:09+02:00*
G04 #@! TF.ProjectId,BMEK_Solder,424d454b-5f53-46f6-9c64-65722e6b6963,1*
G04 #@! TF.SameCoordinates,Original*
G04 #@! TF.FileFunction,Legend,Top*
G04 #@! TF.FilePolarity,Positive*
%FSLAX46Y46*%
G04 Gerber Fmt 4.6, Leading zero omitted, Abs format (unit mm)*
G04 Created by KiCad (PCBNEW (5.99.0-1918-g94cd0cf3a)) date 2020-08-09 16:20:09*
%MOMM*%
%LPD*%
G01*
G04 APERTURE LIST*
%ADD10C,0.150000*%
%ADD11C,0.120000*%
%ADD12C,0.100000*%
G04 APERTURE END LIST*
D10*
X-809523Y6897619D02*
X-476190Y5897619D01*
X-142857Y6897619D01*
X714285Y5897619D02*
X142857Y5897619D01*
X428571Y5897619D02*
X428571Y6897619D01*
X333333Y6754761D01*
X238095Y6659523D01*
X142857Y6611904D01*
X252174404Y-80152380D02*
X252174404Y-79152380D01*
X252412500Y-79152380D01*
X252555357Y-79200000D01*
X252650595Y-79295238D01*
X252698214Y-79390476D01*
X252745833Y-79580952D01*
X252745833Y-79723809D01*
X252698214Y-79914285D01*
X252650595Y-80009523D01*
X252555357Y-80104761D01*
X252412500Y-80152380D01*
X252174404Y-80152380D01*
X253126785Y-79247619D02*
X253174404Y-79200000D01*
X253269642Y-79152380D01*
X253507738Y-79152380D01*
X253602976Y-79200000D01*
X253650595Y-79247619D01*
X253698214Y-79342857D01*
X253698214Y-79438095D01*
X253650595Y-79580952D01*
X253079166Y-80152380D01*
X253698214Y-80152380D01*
X257348214Y-78252380D02*
X256776785Y-78252380D01*
X257062500Y-78252380D02*
X257062500Y-77252380D01*
X256967261Y-77395238D01*
X256872023Y-77490476D01*
X256776785Y-77538095D01*
X262174404Y-80152380D02*
X262174404Y-79152380D01*
X262412500Y-79152380D01*
X262555357Y-79200000D01*
X262650595Y-79295238D01*
X262698214Y-79390476D01*
X262745833Y-79580952D01*
X262745833Y-79723809D01*
X262698214Y-79914285D01*
X262650595Y-80009523D01*
X262555357Y-80104761D01*
X262412500Y-80152380D01*
X262174404Y-80152380D01*
X263079166Y-79152380D02*
X263698214Y-79152380D01*
X263364880Y-79533333D01*
X263507738Y-79533333D01*
X263602976Y-79580952D01*
X263650595Y-79628571D01*
X263698214Y-79723809D01*
X263698214Y-79961904D01*
X263650595Y-80057142D01*
X263602976Y-80104761D01*
X263507738Y-80152380D01*
X263222023Y-80152380D01*
X263126785Y-80104761D01*
X263079166Y-80057142D01*
X267348214Y-78252380D02*
X266776785Y-78252380D01*
X267062500Y-78252380D02*
X267062500Y-77252380D01*
X266967261Y-77395238D01*
X266872023Y-77490476D01*
X266776785Y-77538095D01*
X272174404Y-80152380D02*
X272174404Y-79152380D01*
X272412500Y-79152380D01*
X272555357Y-79200000D01*
X272650595Y-79295238D01*
X272698214Y-79390476D01*
X272745833Y-79580952D01*
X272745833Y-79723809D01*
X272698214Y-79914285D01*
X272650595Y-80009523D01*
X272555357Y-80104761D01*
X272412500Y-80152380D01*
X272174404Y-80152380D01*
X273602976Y-79485714D02*
X273602976Y-80152380D01*
X273364880Y-79104761D02*
X273126785Y-79819047D01*
X273745833Y-79819047D01*
X277348214Y-78252380D02*
X276776785Y-78252380D01*
X277062500Y-78252380D02*
X277062500Y-77252380D01*
X276967261Y-77395238D01*
X276872023Y-77490476D01*
X276776785Y-77538095D01*
X26921904Y-73152380D02*
X26921904Y-72152380D01*
X27160000Y-72152380D01*
X27302857Y-72200000D01*
X27398095Y-72295238D01*
X27445714Y-72390476D01*
X27493333Y-72580952D01*
X27493333Y-72723809D01*
X27445714Y-72914285D01*
X27398095Y-73009523D01*
X27302857Y-73104761D01*
X27160000Y-73152380D01*
X26921904Y-73152380D01*
X28398095Y-72152380D02*
X27921904Y-72152380D01*
X27874285Y-72628571D01*
X27921904Y-72580952D01*
X28017142Y-72533333D01*
X28255238Y-72533333D01*
X28350476Y-72580952D01*
X28398095Y-72628571D01*
X28445714Y-72723809D01*
X28445714Y-72961904D01*
X28398095Y-73057142D01*
X28350476Y-73104761D01*
X28255238Y-73152380D01*
X28017142Y-73152380D01*
X27921904Y-73104761D01*
X27874285Y-73057142D01*
X23795714Y-75052380D02*
X23224285Y-75052380D01*
X23510000Y-75052380D02*
X23510000Y-74052380D01*
X23414761Y-74195238D01*
X23319523Y-74290476D01*
X23224285Y-74338095D01*
X16921904Y-73152380D02*
X16921904Y-72152380D01*
X17160000Y-72152380D01*
X17302857Y-72200000D01*
X17398095Y-72295238D01*
X17445714Y-72390476D01*
X17493333Y-72580952D01*
X17493333Y-72723809D01*
X17445714Y-72914285D01*
X17398095Y-73009523D01*
X17302857Y-73104761D01*
X17160000Y-73152380D01*
X16921904Y-73152380D01*
X18350476Y-72152380D02*
X18160000Y-72152380D01*
X18064761Y-72200000D01*
X18017142Y-72247619D01*
X17921904Y-72390476D01*
X17874285Y-72580952D01*
X17874285Y-72961904D01*
X17921904Y-73057142D01*
X17969523Y-73104761D01*
X18064761Y-73152380D01*
X18255238Y-73152380D01*
X18350476Y-73104761D01*
X18398095Y-73057142D01*
X18445714Y-72961904D01*
X18445714Y-72723809D01*
X18398095Y-72628571D01*
X18350476Y-72580952D01*
X18255238Y-72533333D01*
X18064761Y-72533333D01*
X17969523Y-72580952D01*
X17921904Y-72628571D01*
X17874285Y-72723809D01*
X13795714Y-75052380D02*
X13224285Y-75052380D01*
X13510000Y-75052380D02*
X13510000Y-74052380D01*
X13414761Y-74195238D01*
X13319523Y-74290476D01*
X13224285Y-74338095D01*
X6921904Y-73152380D02*
X6921904Y-72152380D01*
X7160000Y-72152380D01*
X7302857Y-72200000D01*
X7398095Y-72295238D01*
X7445714Y-72390476D01*
X7493333Y-72580952D01*
X7493333Y-72723809D01*
X7445714Y-72914285D01*
X7398095Y-73009523D01*
X7302857Y-73104761D01*
X7160000Y-73152380D01*
X6921904Y-73152380D01*
X7826666Y-72152380D02*
X8493333Y-72152380D01*
X8064761Y-73152380D01*
X3795714Y-75052380D02*
X3224285Y-75052380D01*
X3510000Y-75052380D02*
X3510000Y-74052380D01*
X3414761Y-74195238D01*
X3319523Y-74290476D01*
X3224285Y-74338095D01*
D11*
X184486294Y-92465095D02*
X165725706Y-95773093D01*
X177116821Y-76999838D02*
X179117951Y-76646985D01*
X167433198Y-90829485D02*
X167786051Y-92830615D01*
X167786051Y-92830615D02*
X169787181Y-92477762D01*
X165713039Y-81073980D02*
X165360186Y-79072850D01*
X181543816Y-90404750D02*
X181190963Y-88403620D01*
X165360186Y-79072850D02*
X167361316Y-78719997D01*
X179542686Y-90757603D02*
X181543816Y-90404750D01*
X179117951Y-76646985D02*
X179470804Y-78648115D01*
X165725706Y-95773093D02*
X162417708Y-77012505D01*
X181178296Y-73704507D02*
X184486294Y-92465095D01*
X162417708Y-77012505D02*
X181178296Y-73704507D01*
X114900046Y-95773093D02*
X96139458Y-92465095D01*
X113264436Y-78719997D02*
X115265566Y-79072850D01*
X99434789Y-88403620D02*
X99081936Y-90404750D01*
X99081936Y-90404750D02*
X101083066Y-90757603D01*
X101154948Y-78648115D02*
X101507801Y-76646985D01*
X112839701Y-92830615D02*
X113192554Y-90829485D01*
X101507801Y-76646985D02*
X103508931Y-76999838D01*
X110838571Y-92477762D02*
X112839701Y-92830615D01*
X115265566Y-79072850D02*
X114912713Y-81073980D01*
X96139458Y-92465095D02*
X99447456Y-73704507D01*
X118208044Y-77012505D02*
X114900046Y-95773093D01*
X99447456Y-73704507D02*
X118208044Y-77012505D01*
X243402450Y-85725000D02*
X224352450Y-85725000D01*
X238830450Y-69215000D02*
X240862450Y-69215000D01*
X226892450Y-81153000D02*
X226892450Y-83185000D01*
X226892450Y-83185000D02*
X228924450Y-83185000D01*
X226892450Y-71247000D02*
X226892450Y-69215000D01*
X240862450Y-83185000D02*
X240862450Y-81153000D01*
X226892450Y-69215000D02*
X228924450Y-69215000D01*
X238830450Y-83185000D02*
X240862450Y-83185000D01*
X240862450Y-69215000D02*
X240862450Y-71247000D01*
X224352450Y-85725000D02*
X224352450Y-66675000D01*
X243402450Y-66675000D02*
X243402450Y-85725000D01*
X224352450Y-66675000D02*
X243402450Y-66675000D01*
X222007393Y-85849094D02*
X203246805Y-89157092D01*
X214637920Y-70383837D02*
X216639050Y-70030984D01*
X204954297Y-84213484D02*
X205307150Y-86214614D01*
X205307150Y-86214614D02*
X207308280Y-85861761D01*
X203234138Y-74457979D02*
X202881285Y-72456849D01*
X219064915Y-83788749D02*
X218712062Y-81787619D01*
X202881285Y-72456849D02*
X204882415Y-72103996D01*
X217063785Y-84141602D02*
X219064915Y-83788749D01*
X216639050Y-70030984D02*
X216991903Y-72032114D01*
X203246805Y-89157092D02*
X199938807Y-70396504D01*
X218699395Y-67088506D02*
X222007393Y-85849094D01*
X199938807Y-70396504D02*
X218699395Y-67088506D01*
X189176440Y-91638095D02*
X170415852Y-94946093D01*
X181806967Y-76172838D02*
X183808097Y-75819985D01*
X172123344Y-90002485D02*
X172476197Y-92003615D01*
X172476197Y-92003615D02*
X174477327Y-91650762D01*
X170403185Y-80246980D02*
X170050332Y-78245850D01*
X186233962Y-89577750D02*
X185881109Y-87576620D01*
X170050332Y-78245850D02*
X172051462Y-77892997D01*
X184232832Y-89930603D02*
X186233962Y-89577750D01*
X183808097Y-75819985D02*
X184160950Y-77821115D01*
X170415852Y-94946093D02*
X167107854Y-76185505D01*
X185868442Y-72877507D02*
X189176440Y-91638095D01*
X167107854Y-76185505D02*
X185868442Y-72877507D01*
X110209899Y-94946093D02*
X91449311Y-91638095D01*
X108574289Y-77892997D02*
X110575419Y-78245850D01*
X94744642Y-87576620D02*
X94391789Y-89577750D01*
X94391789Y-89577750D02*
X96392919Y-89930603D01*
X96464801Y-77821115D02*
X96817654Y-75819985D01*
X108149554Y-92003615D02*
X108502407Y-90002485D01*
X96817654Y-75819985D02*
X98818784Y-76172838D01*
X106148424Y-91650762D02*
X108149554Y-92003615D01*
X110575419Y-78245850D02*
X110222566Y-80246980D01*
X91449311Y-91638095D02*
X94757309Y-72877507D01*
X113517897Y-76185505D02*
X110209899Y-94946093D01*
X94757309Y-72877507D02*
X113517897Y-76185505D01*
X77378795Y-89157093D02*
X58618207Y-85849095D01*
X75743185Y-72103997D02*
X77744315Y-72456850D01*
X61913538Y-81787620D02*
X61560685Y-83788750D01*
X61560685Y-83788750D02*
X63561815Y-84141603D01*
X63633697Y-72032115D02*
X63986550Y-70030985D01*
X75318450Y-86214615D02*
X75671303Y-84213485D01*
X63986550Y-70030985D02*
X65987680Y-70383838D01*
X73317320Y-85861762D02*
X75318450Y-86214615D01*
X77744315Y-72456850D02*
X77391462Y-74457980D01*
X58618207Y-85849095D02*
X61926205Y-67088507D01*
X80686793Y-70396505D02*
X77378795Y-89157093D01*
X61926205Y-67088507D02*
X80686793Y-70396505D01*
X56273150Y-85725000D02*
X37223150Y-85725000D01*
X51701150Y-69215000D02*
X53733150Y-69215000D01*
X39763150Y-81153000D02*
X39763150Y-83185000D01*
X39763150Y-83185000D02*
X41795150Y-83185000D01*
X39763150Y-71247000D02*
X39763150Y-69215000D01*
X53733150Y-83185000D02*
X53733150Y-81153000D01*
X39763150Y-69215000D02*
X41795150Y-69215000D01*
X51701150Y-83185000D02*
X53733150Y-83185000D01*
X53733150Y-69215000D02*
X53733150Y-71247000D01*
X37223150Y-85725000D02*
X37223150Y-66675000D01*
X56273150Y-66675000D02*
X56273150Y-85725000D01*
X37223150Y-66675000D02*
X56273150Y-66675000D01*
X40531250Y-66675000D02*
X21481250Y-66675000D01*
X35959250Y-50165000D02*
X37991250Y-50165000D01*
X24021250Y-62103000D02*
X24021250Y-64135000D01*
X24021250Y-64135000D02*
X26053250Y-64135000D01*
X24021250Y-52197000D02*
X24021250Y-50165000D01*
X37991250Y-64135000D02*
X37991250Y-62103000D01*
X24021250Y-50165000D02*
X26053250Y-50165000D01*
X35959250Y-64135000D02*
X37991250Y-64135000D01*
X37991250Y-50165000D02*
X37991250Y-52197000D01*
X21481250Y-66675000D02*
X21481250Y-47625000D01*
X40531250Y-47625000D02*
X40531250Y-66675000D01*
X21481250Y-47625000D02*
X40531250Y-47625000D01*
X19100000Y-66675000D02*
X50000Y-66675000D01*
X14528000Y-50165000D02*
X16560000Y-50165000D01*
X2590000Y-62103000D02*
X2590000Y-64135000D01*
X2590000Y-64135000D02*
X4622000Y-64135000D01*
X2590000Y-52197000D02*
X2590000Y-50165000D01*
X16560000Y-64135000D02*
X16560000Y-62103000D01*
X2590000Y-50165000D02*
X4622000Y-50165000D01*
X14528000Y-64135000D02*
X16560000Y-64135000D01*
X16560000Y-50165000D02*
X16560000Y-52197000D01*
X50000Y-66675000D02*
X50000Y-47625000D01*
X19100000Y-47625000D02*
X19100000Y-66675000D01*
X50000Y-47625000D02*
X19100000Y-47625000D01*
X294863200Y-66675000D02*
X275813200Y-66675000D01*
X290291200Y-50165000D02*
X292323200Y-50165000D01*
X278353200Y-62103000D02*
X278353200Y-64135000D01*
X278353200Y-64135000D02*
X280385200Y-64135000D01*
X278353200Y-52197000D02*
X278353200Y-50165000D01*
X292323200Y-64135000D02*
X292323200Y-62103000D01*
X278353200Y-50165000D02*
X280385200Y-50165000D01*
X290291200Y-64135000D02*
X292323200Y-64135000D01*
X292323200Y-50165000D02*
X292323200Y-52197000D01*
X275813200Y-66675000D02*
X275813200Y-47625000D01*
X294863200Y-47625000D02*
X294863200Y-66675000D01*
X275813200Y-47625000D02*
X294863200Y-47625000D01*
X311531950Y-66675000D02*
X292481950Y-66675000D01*
X306959950Y-50165000D02*
X308991950Y-50165000D01*
X295021950Y-62103000D02*
X295021950Y-64135000D01*
X295021950Y-64135000D02*
X297053950Y-64135000D01*
X295021950Y-52197000D02*
X295021950Y-50165000D01*
X308991950Y-64135000D02*
X308991950Y-62103000D01*
X295021950Y-50165000D02*
X297053950Y-50165000D01*
X306959950Y-64135000D02*
X308991950Y-64135000D01*
X308991950Y-50165000D02*
X308991950Y-52197000D01*
X292481950Y-66675000D02*
X292481950Y-47625000D01*
X311531950Y-47625000D02*
X311531950Y-66675000D01*
X292481950Y-47625000D02*
X311531950Y-47625000D01*
X285338250Y-66675000D02*
X266288250Y-66675000D01*
X280766250Y-50165000D02*
X282798250Y-50165000D01*
X268828250Y-62103000D02*
X268828250Y-64135000D01*
X268828250Y-64135000D02*
X270860250Y-64135000D01*
X268828250Y-52197000D02*
X268828250Y-50165000D01*
X282798250Y-64135000D02*
X282798250Y-62103000D01*
X268828250Y-50165000D02*
X270860250Y-50165000D01*
X280766250Y-64135000D02*
X282798250Y-64135000D01*
X282798250Y-50165000D02*
X282798250Y-52197000D01*
X266288250Y-66675000D02*
X266288250Y-47625000D01*
X285338250Y-47625000D02*
X285338250Y-66675000D01*
X266288250Y-47625000D02*
X285338250Y-47625000D01*
X259144450Y-66675000D02*
X240094450Y-66675000D01*
X254572450Y-50165000D02*
X256604450Y-50165000D01*
X242634450Y-62103000D02*
X242634450Y-64135000D01*
X242634450Y-64135000D02*
X244666450Y-64135000D01*
X242634450Y-52197000D02*
X242634450Y-50165000D01*
X256604450Y-64135000D02*
X256604450Y-62103000D01*
X242634450Y-50165000D02*
X244666450Y-50165000D01*
X254572450Y-64135000D02*
X256604450Y-64135000D01*
X256604450Y-50165000D02*
X256604450Y-52197000D01*
X240094450Y-66675000D02*
X240094450Y-47625000D01*
X259144450Y-47625000D02*
X259144450Y-66675000D01*
X240094450Y-47625000D02*
X259144450Y-47625000D01*
X240094450Y-66674999D02*
X221044450Y-66674999D01*
X235522450Y-50164999D02*
X237554450Y-50164999D01*
X223584450Y-62102999D02*
X223584450Y-64134999D01*
X223584450Y-64134999D02*
X225616450Y-64134999D01*
X223584450Y-52196999D02*
X223584450Y-50164999D01*
X237554450Y-64134999D02*
X237554450Y-62102999D01*
X223584450Y-50164999D02*
X225616450Y-50164999D01*
X235522450Y-64134999D02*
X237554450Y-64134999D01*
X237554450Y-50164999D02*
X237554450Y-52196999D01*
X221044450Y-66674999D02*
X221044450Y-47624999D01*
X240094450Y-47624999D02*
X240094450Y-66674999D01*
X221044450Y-47624999D02*
X240094450Y-47624999D01*
X221044543Y-66674994D02*
X202283955Y-69982992D01*
X213675070Y-51209737D02*
X215676200Y-50856884D01*
X203991447Y-65039384D02*
X204344300Y-67040514D01*
X204344300Y-67040514D02*
X206345430Y-66687661D01*
X202271288Y-55283879D02*
X201918435Y-53282749D01*
X218102065Y-64614649D02*
X217749212Y-62613519D01*
X201918435Y-53282749D02*
X203919565Y-52929896D01*
X216100935Y-64967502D02*
X218102065Y-64614649D01*
X215676200Y-50856884D02*
X216029053Y-52858014D01*
X202283955Y-69982992D02*
X198975957Y-51222404D01*
X217736545Y-47914406D02*
X221044543Y-66674994D01*
X198975957Y-51222404D02*
X217736545Y-47914406D01*
X202283943Y-69982994D02*
X183523355Y-73290992D01*
X194914470Y-54517737D02*
X196915600Y-54164884D01*
X185230847Y-68347384D02*
X185583700Y-70348514D01*
X185583700Y-70348514D02*
X187584830Y-69995661D01*
X183510688Y-58591879D02*
X183157835Y-56590749D01*
X199341465Y-67922649D02*
X198988612Y-65921519D01*
X183157835Y-56590749D02*
X185158965Y-56237896D01*
X197340335Y-68275502D02*
X199341465Y-67922649D01*
X196915600Y-54164884D02*
X197268453Y-56166014D01*
X183523355Y-73290992D02*
X180215357Y-54530404D01*
X198975945Y-51222406D02*
X202283943Y-69982994D01*
X180215357Y-54530404D02*
X198975945Y-51222406D01*
X183523343Y-73290994D02*
X164762755Y-76598992D01*
X176153870Y-57825737D02*
X178155000Y-57472884D01*
X166470247Y-71655384D02*
X166823100Y-73656514D01*
X166823100Y-73656514D02*
X168824230Y-73303661D01*
X164750088Y-61899879D02*
X164397235Y-59898749D01*
X180580865Y-71230649D02*
X180228012Y-69229519D01*
X164397235Y-59898749D02*
X166398365Y-59545896D01*
X178579735Y-71583502D02*
X180580865Y-71230649D01*
X178155000Y-57472884D02*
X178507853Y-59474014D01*
X164762755Y-76598992D02*
X161454757Y-57838404D01*
X180215345Y-54530406D02*
X183523343Y-73290994D01*
X161454757Y-57838404D02*
X180215345Y-54530406D01*
X164762743Y-76598995D02*
X146002155Y-79906993D01*
X157393270Y-61133738D02*
X159394400Y-60780885D01*
X147709647Y-74963385D02*
X148062500Y-76964515D01*
X148062500Y-76964515D02*
X150063630Y-76611662D01*
X145989488Y-65207880D02*
X145636635Y-63206750D01*
X161820265Y-74538650D02*
X161467412Y-72537520D01*
X145636635Y-63206750D02*
X147637765Y-62853897D01*
X159819135Y-74891503D02*
X161820265Y-74538650D01*
X159394400Y-60780885D02*
X159747253Y-62782015D01*
X146002155Y-79906993D02*
X142694157Y-61146405D01*
X161454745Y-57838407D02*
X164762743Y-76598995D01*
X142694157Y-61146405D02*
X161454745Y-57838407D01*
X134623545Y-79906993D02*
X115862957Y-76598995D01*
X132987935Y-62853897D02*
X134989065Y-63206750D01*
X119158288Y-72537520D02*
X118805435Y-74538650D01*
X118805435Y-74538650D02*
X120806565Y-74891503D01*
X120878447Y-62782015D02*
X121231300Y-60780885D01*
X132563200Y-76964515D02*
X132916053Y-74963385D01*
X121231300Y-60780885D02*
X123232430Y-61133738D01*
X130562070Y-76611662D02*
X132563200Y-76964515D01*
X134989065Y-63206750D02*
X134636212Y-65207880D01*
X115862957Y-76598995D02*
X119170955Y-57838407D01*
X137931543Y-61146405D02*
X134623545Y-79906993D01*
X119170955Y-57838407D02*
X137931543Y-61146405D01*
X115862945Y-76598993D02*
X97102357Y-73290995D01*
X114227335Y-59545897D02*
X116228465Y-59898750D01*
X100397688Y-69229520D02*
X100044835Y-71230650D01*
X100044835Y-71230650D02*
X102045965Y-71583503D01*
X102117847Y-59474015D02*
X102470700Y-57472885D01*
X113802600Y-73656515D02*
X114155453Y-71655385D01*
X102470700Y-57472885D02*
X104471830Y-57825738D01*
X111801470Y-73303662D02*
X113802600Y-73656515D01*
X116228465Y-59898750D02*
X115875612Y-61899880D01*
X97102357Y-73290995D02*
X100410355Y-54530407D01*
X119170943Y-57838405D02*
X115862945Y-76598993D01*
X100410355Y-54530407D02*
X119170943Y-57838405D01*
X97102345Y-73290993D02*
X78341757Y-69982995D01*
X95466735Y-56237897D02*
X97467865Y-56590750D01*
X81637088Y-65921520D02*
X81284235Y-67922650D01*
X81284235Y-67922650D02*
X83285365Y-68275503D01*
X83357247Y-56166015D02*
X83710100Y-54164885D01*
X95042000Y-70348515D02*
X95394853Y-68347385D01*
X83710100Y-54164885D02*
X85711230Y-54517738D01*
X93040870Y-69995662D02*
X95042000Y-70348515D01*
X97467865Y-56590750D02*
X97115012Y-58591880D01*
X78341757Y-69982995D02*
X81649755Y-51222407D01*
X100410343Y-54530405D02*
X97102345Y-73290993D01*
X81649755Y-51222407D02*
X100410343Y-54530405D01*
X78341745Y-69982993D02*
X59581157Y-66674995D01*
X76706135Y-52929897D02*
X78707265Y-53282750D01*
X62876488Y-62613520D02*
X62523635Y-64614650D01*
X62523635Y-64614650D02*
X64524765Y-64967503D01*
X64596647Y-52858015D02*
X64949500Y-50856885D01*
X76281400Y-67040515D02*
X76634253Y-65039385D01*
X64949500Y-50856885D02*
X66950630Y-51209738D01*
X74280270Y-66687662D02*
X76281400Y-67040515D01*
X78707265Y-53282750D02*
X78354412Y-55283880D01*
X59581157Y-66674995D02*
X62889155Y-47914407D01*
X81649743Y-51222405D02*
X78341745Y-69982993D01*
X62889155Y-47914407D02*
X81649743Y-51222405D01*
X59581150Y-66675000D02*
X40531150Y-66675000D01*
X55009150Y-50165000D02*
X57041150Y-50165000D01*
X43071150Y-62103000D02*
X43071150Y-64135000D01*
X43071150Y-64135000D02*
X45103150Y-64135000D01*
X43071150Y-52197000D02*
X43071150Y-50165000D01*
X57041150Y-64135000D02*
X57041150Y-62103000D01*
X43071150Y-50165000D02*
X45103150Y-50165000D01*
X55009150Y-64135000D02*
X57041150Y-64135000D01*
X57041150Y-50165000D02*
X57041150Y-52197000D01*
X40531150Y-66675000D02*
X40531150Y-47625000D01*
X59581150Y-47625000D02*
X59581150Y-66675000D01*
X40531150Y-47625000D02*
X59581150Y-47625000D01*
X28624900Y-66675000D02*
X9574900Y-66675000D01*
X24052900Y-50165000D02*
X26084900Y-50165000D01*
X12114900Y-62103000D02*
X12114900Y-64135000D01*
X12114900Y-64135000D02*
X14146900Y-64135000D01*
X12114900Y-52197000D02*
X12114900Y-50165000D01*
X26084900Y-64135000D02*
X26084900Y-62103000D01*
X12114900Y-50165000D02*
X14146900Y-50165000D01*
X24052900Y-64135000D02*
X26084900Y-64135000D01*
X26084900Y-50165000D02*
X26084900Y-52197000D01*
X9574900Y-66675000D02*
X9574900Y-47625000D01*
X28624900Y-47625000D02*
X28624900Y-66675000D01*
X9574900Y-47625000D02*
X28624900Y-47625000D01*
X-11965448Y-66675000D02*
X-31015448Y-66675000D01*
X-16537448Y-50165000D02*
X-14505448Y-50165000D01*
X-28475448Y-62103000D02*
X-28475448Y-64135000D01*
X-28475448Y-64135000D02*
X-26443448Y-64135000D01*
X-28475448Y-52197000D02*
X-28475448Y-50165000D01*
X-14505448Y-64135000D02*
X-14505448Y-62103000D01*
X-28475448Y-50165000D02*
X-26443448Y-50165000D01*
X-16537448Y-64135000D02*
X-14505448Y-64135000D01*
X-14505448Y-50165000D02*
X-14505448Y-52197000D01*
X-31015448Y-66675000D02*
X-31015448Y-47625000D01*
X-11965448Y-47625000D02*
X-11965448Y-66675000D01*
X-31015448Y-47625000D02*
X-11965448Y-47625000D01*
X302006850Y-28575000D02*
X282956850Y-28575000D01*
X297434850Y-12065000D02*
X299466850Y-12065000D01*
X285496850Y-24003000D02*
X285496850Y-26035000D01*
X285496850Y-26035000D02*
X287528850Y-26035000D01*
X285496850Y-14097000D02*
X285496850Y-12065000D01*
X299466850Y-26035000D02*
X299466850Y-24003000D01*
X285496850Y-12065000D02*
X287528850Y-12065000D01*
X297434850Y-26035000D02*
X299466850Y-26035000D01*
X299466850Y-12065000D02*
X299466850Y-14097000D01*
X282956850Y-28575000D02*
X282956850Y-9525000D01*
X302006850Y-9525000D02*
X302006850Y-28575000D01*
X282956850Y-9525000D02*
X302006850Y-9525000D01*
X297244401Y-47625000D02*
X278194401Y-47625000D01*
X292672401Y-31115000D02*
X294704401Y-31115000D01*
X280734401Y-43053000D02*
X280734401Y-45085000D01*
X280734401Y-45085000D02*
X282766401Y-45085000D01*
X280734401Y-33147000D02*
X280734401Y-31115000D01*
X294704401Y-45085000D02*
X294704401Y-43053000D01*
X280734401Y-31115000D02*
X282766401Y-31115000D01*
X292672401Y-45085000D02*
X294704401Y-45085000D01*
X294704401Y-31115000D02*
X294704401Y-33147000D01*
X278194401Y-47625000D02*
X278194401Y-28575000D01*
X297244401Y-28575000D02*
X297244401Y-47625000D01*
X278194401Y-28575000D02*
X297244401Y-28575000D01*
X266288150Y-47625000D02*
X247238150Y-47625000D01*
X261716150Y-31115000D02*
X263748150Y-31115000D01*
X249778150Y-43053000D02*
X249778150Y-45085000D01*
X249778150Y-45085000D02*
X251810150Y-45085000D01*
X249778150Y-33147000D02*
X249778150Y-31115000D01*
X263748150Y-45085000D02*
X263748150Y-43053000D01*
X249778150Y-31115000D02*
X251810150Y-31115000D01*
X261716150Y-45085000D02*
X263748150Y-45085000D01*
X263748150Y-31115000D02*
X263748150Y-33147000D01*
X247238150Y-47625000D02*
X247238150Y-28575000D01*
X266288150Y-28575000D02*
X266288150Y-47625000D01*
X247238150Y-28575000D02*
X266288150Y-28575000D01*
X247238150Y-47624999D02*
X228188150Y-47624999D01*
X242666150Y-31114999D02*
X244698150Y-31114999D01*
X230728150Y-43052999D02*
X230728150Y-45084999D01*
X230728150Y-45084999D02*
X232760150Y-45084999D01*
X230728150Y-33146999D02*
X230728150Y-31114999D01*
X244698150Y-45084999D02*
X244698150Y-43052999D01*
X230728150Y-31114999D02*
X232760150Y-31114999D01*
X242666150Y-45084999D02*
X244698150Y-45084999D01*
X244698150Y-31114999D02*
X244698150Y-33146999D01*
X228188150Y-47624999D02*
X228188150Y-28574999D01*
X247238150Y-28574999D02*
X247238150Y-47624999D01*
X228188150Y-28574999D02*
X247238150Y-28574999D01*
X228194943Y-46070294D02*
X209434355Y-49378292D01*
X220825470Y-30605037D02*
X222826600Y-30252184D01*
X211141847Y-44434684D02*
X211494700Y-46435814D01*
X211494700Y-46435814D02*
X213495830Y-46082961D01*
X209421688Y-34679179D02*
X209068835Y-32678049D01*
X225252465Y-44009949D02*
X224899612Y-42008819D01*
X209068835Y-32678049D02*
X211069965Y-32325196D01*
X223251335Y-44362802D02*
X225252465Y-44009949D01*
X222826600Y-30252184D02*
X223179453Y-32253314D01*
X209434355Y-49378292D02*
X206126357Y-30617704D01*
X224886945Y-27309706D02*
X228194943Y-46070294D01*
X206126357Y-30617704D02*
X224886945Y-27309706D01*
X209434343Y-49378295D02*
X190673755Y-52686293D01*
X202064870Y-33913038D02*
X204066000Y-33560185D01*
X192381247Y-47742685D02*
X192734100Y-49743815D01*
X192734100Y-49743815D02*
X194735230Y-49390962D01*
X190661088Y-37987180D02*
X190308235Y-35986050D01*
X206491865Y-47317950D02*
X206139012Y-45316820D01*
X190308235Y-35986050D02*
X192309365Y-35633197D01*
X204490735Y-47670803D02*
X206491865Y-47317950D01*
X204066000Y-33560185D02*
X204418853Y-35561315D01*
X190673755Y-52686293D02*
X187365757Y-33925705D01*
X206126345Y-30617707D02*
X209434343Y-49378295D01*
X187365757Y-33925705D02*
X206126345Y-30617707D01*
X190673743Y-52686294D02*
X171913155Y-55994292D01*
X183304270Y-37221037D02*
X185305400Y-36868184D01*
X173620647Y-51050684D02*
X173973500Y-53051814D01*
X173973500Y-53051814D02*
X175974630Y-52698961D01*
X171900488Y-41295179D02*
X171547635Y-39294049D01*
X187731265Y-50625949D02*
X187378412Y-48624819D01*
X171547635Y-39294049D02*
X173548765Y-38941196D01*
X185730135Y-50978802D02*
X187731265Y-50625949D01*
X185305400Y-36868184D02*
X185658253Y-38869314D01*
X171913155Y-55994292D02*
X168605157Y-37233704D01*
X187365745Y-33925706D02*
X190673743Y-52686294D01*
X168605157Y-37233704D02*
X187365745Y-33925706D01*
X171913143Y-55994295D02*
X153152555Y-59302293D01*
X164543670Y-40529038D02*
X166544800Y-40176185D01*
X154860047Y-54358685D02*
X155212900Y-56359815D01*
X155212900Y-56359815D02*
X157214030Y-56006962D01*
X153139888Y-44603180D02*
X152787035Y-42602050D01*
X168970665Y-53933950D02*
X168617812Y-51932820D01*
X152787035Y-42602050D02*
X154788165Y-42249197D01*
X166969535Y-54286803D02*
X168970665Y-53933950D01*
X166544800Y-40176185D02*
X166897653Y-42177315D01*
X153152555Y-59302293D02*
X149844557Y-40541705D01*
X168605145Y-37233707D02*
X171913143Y-55994295D01*
X149844557Y-40541705D02*
X168605145Y-37233707D01*
X127455045Y-59299093D02*
X108694457Y-55991095D01*
X125819435Y-42245997D02*
X127820565Y-42598850D01*
X111989788Y-51929620D02*
X111636935Y-53930750D01*
X111636935Y-53930750D02*
X113638065Y-54283603D01*
X113709947Y-42174115D02*
X114062800Y-40172985D01*
X125394700Y-56356615D02*
X125747553Y-54355485D01*
X114062800Y-40172985D02*
X116063930Y-40525838D01*
X123393570Y-56003762D02*
X125394700Y-56356615D01*
X127820565Y-42598850D02*
X127467712Y-44599980D01*
X108694457Y-55991095D02*
X112002455Y-37230507D01*
X130763043Y-40538505D02*
X127455045Y-59299093D01*
X112002455Y-37230507D02*
X130763043Y-40538505D01*
X108694445Y-55991093D02*
X89933857Y-52683095D01*
X107058835Y-38937997D02*
X109059965Y-39290850D01*
X93229188Y-48621620D02*
X92876335Y-50622750D01*
X92876335Y-50622750D02*
X94877465Y-50975603D01*
X94949347Y-38866115D02*
X95302200Y-36864985D01*
X106634100Y-53048615D02*
X106986953Y-51047485D01*
X95302200Y-36864985D02*
X97303330Y-37217838D01*
X104632970Y-52695762D02*
X106634100Y-53048615D01*
X109059965Y-39290850D02*
X108707112Y-41291980D01*
X89933857Y-52683095D02*
X93241855Y-33922507D01*
X112002443Y-37230505D02*
X108694445Y-55991093D01*
X93241855Y-33922507D02*
X112002443Y-37230505D01*
X89933845Y-52683093D02*
X71173257Y-49375095D01*
X88298235Y-35629997D02*
X90299365Y-35982850D01*
X74468588Y-45313620D02*
X74115735Y-47314750D01*
X74115735Y-47314750D02*
X76116865Y-47667603D01*
X76188747Y-35558115D02*
X76541600Y-33556985D01*
X87873500Y-49740615D02*
X88226353Y-47739485D01*
X76541600Y-33556985D02*
X78542730Y-33909838D01*
X85872370Y-49387762D02*
X87873500Y-49740615D01*
X90299365Y-35982850D02*
X89946512Y-37983980D01*
X71173257Y-49375095D02*
X74481255Y-30614507D01*
X93241843Y-33922505D02*
X89933845Y-52683093D01*
X74481255Y-30614507D02*
X93241843Y-33922505D01*
X71173245Y-49375093D02*
X52412657Y-46067095D01*
X69537635Y-32321997D02*
X71538765Y-32674850D01*
X55707988Y-42005620D02*
X55355135Y-44006750D01*
X55355135Y-44006750D02*
X57356265Y-44359603D01*
X57428147Y-32250115D02*
X57781000Y-30248985D01*
X69112900Y-46432615D02*
X69465753Y-44431485D01*
X57781000Y-30248985D02*
X59782130Y-30601838D01*
X67111770Y-46079762D02*
X69112900Y-46432615D01*
X71538765Y-32674850D02*
X71185912Y-34675980D01*
X52412657Y-46067095D02*
X55720655Y-27306507D01*
X74481243Y-30614505D02*
X71173245Y-49375093D01*
X55720655Y-27306507D02*
X74481243Y-30614505D01*
X52437450Y-47625000D02*
X33387450Y-47625000D01*
X47865450Y-31115000D02*
X49897450Y-31115000D01*
X35927450Y-43053000D02*
X35927450Y-45085000D01*
X35927450Y-45085000D02*
X37959450Y-45085000D01*
X35927450Y-33147000D02*
X35927450Y-31115000D01*
X49897450Y-45085000D02*
X49897450Y-43053000D01*
X35927450Y-31115000D02*
X37959450Y-31115000D01*
X47865450Y-45085000D02*
X49897450Y-45085000D01*
X49897450Y-31115000D02*
X49897450Y-33147000D01*
X33387450Y-47625000D02*
X33387450Y-28575000D01*
X52437450Y-28575000D02*
X52437450Y-47625000D01*
X33387450Y-28575000D02*
X52437450Y-28575000D01*
X26243750Y-47625000D02*
X7193750Y-47625000D01*
X21671750Y-31115000D02*
X23703750Y-31115000D01*
X9733750Y-43053000D02*
X9733750Y-45085000D01*
X9733750Y-45085000D02*
X11765750Y-45085000D01*
X9733750Y-33147000D02*
X9733750Y-31115000D01*
X23703750Y-45085000D02*
X23703750Y-43053000D01*
X9733750Y-31115000D02*
X11765750Y-31115000D01*
X21671750Y-45085000D02*
X23703750Y-45085000D01*
X23703750Y-31115000D02*
X23703750Y-33147000D01*
X7193750Y-47625000D02*
X7193750Y-28575000D01*
X26243750Y-28575000D02*
X26243750Y-47625000D01*
X7193750Y-28575000D02*
X26243750Y-28575000D01*
X-9584148Y-47625000D02*
X-28634148Y-47625000D01*
X-14156148Y-31115000D02*
X-12124148Y-31115000D01*
X-26094148Y-43053000D02*
X-26094148Y-45085000D01*
X-26094148Y-45085000D02*
X-24062148Y-45085000D01*
X-26094148Y-33147000D02*
X-26094148Y-31115000D01*
X-12124148Y-45085000D02*
X-12124148Y-43053000D01*
X-26094148Y-31115000D02*
X-24062148Y-31115000D01*
X-14156148Y-45085000D02*
X-12124148Y-45085000D01*
X-12124148Y-31115000D02*
X-12124148Y-33147000D01*
X-28634148Y-47625000D02*
X-28634148Y-28575000D01*
X-9584148Y-28575000D02*
X-9584148Y-47625000D01*
X-28634148Y-28575000D02*
X-9584148Y-28575000D01*
X304388051Y-9525000D02*
X285338051Y-9525000D01*
X299816051Y6985000D02*
X301848051Y6985000D01*
X287878051Y-4953000D02*
X287878051Y-6985000D01*
X287878051Y-6985000D02*
X289910051Y-6985000D01*
X287878051Y4953000D02*
X287878051Y6985000D01*
X301848051Y-6985000D02*
X301848051Y-4953000D01*
X287878051Y6985000D02*
X289910051Y6985000D01*
X299816051Y-6985000D02*
X301848051Y-6985000D01*
X301848051Y6985000D02*
X301848051Y4953000D01*
X285338051Y-9525000D02*
X285338051Y9525000D01*
X304388051Y9525000D02*
X304388051Y-9525000D01*
X285338051Y9525000D02*
X304388051Y9525000D01*
X278194350Y-28575000D02*
X259144350Y-28575000D01*
X273622350Y-12065000D02*
X275654350Y-12065000D01*
X261684350Y-24003000D02*
X261684350Y-26035000D01*
X261684350Y-26035000D02*
X263716350Y-26035000D01*
X261684350Y-14097000D02*
X261684350Y-12065000D01*
X275654350Y-26035000D02*
X275654350Y-24003000D01*
X261684350Y-12065000D02*
X263716350Y-12065000D01*
X273622350Y-26035000D02*
X275654350Y-26035000D01*
X275654350Y-12065000D02*
X275654350Y-14097000D01*
X259144350Y-28575000D02*
X259144350Y-9525000D01*
X278194350Y-9525000D02*
X278194350Y-28575000D01*
X259144350Y-9525000D02*
X278194350Y-9525000D01*
X259144350Y-28575000D02*
X240094350Y-28575000D01*
X254572350Y-12065000D02*
X256604350Y-12065000D01*
X242634350Y-24003000D02*
X242634350Y-26035000D01*
X242634350Y-26035000D02*
X244666350Y-26035000D01*
X242634350Y-14097000D02*
X242634350Y-12065000D01*
X256604350Y-26035000D02*
X256604350Y-24003000D01*
X242634350Y-12065000D02*
X244666350Y-12065000D01*
X254572350Y-26035000D02*
X256604350Y-26035000D01*
X256604350Y-12065000D02*
X256604350Y-14097000D01*
X240094350Y-28575000D02*
X240094350Y-9525000D01*
X259144350Y-9525000D02*
X259144350Y-28575000D01*
X240094350Y-9525000D02*
X259144350Y-9525000D01*
X240094350Y-27514500D02*
X221044350Y-27514500D01*
X235522350Y-11004500D02*
X237554350Y-11004500D01*
X223584350Y-22942500D02*
X223584350Y-24974500D01*
X223584350Y-24974500D02*
X225616350Y-24974500D01*
X223584350Y-13036500D02*
X223584350Y-11004500D01*
X237554350Y-24974500D02*
X237554350Y-22942500D01*
X223584350Y-11004500D02*
X225616350Y-11004500D01*
X235522350Y-24974500D02*
X237554350Y-24974500D01*
X237554350Y-11004500D02*
X237554350Y-13036500D01*
X221044350Y-27514500D02*
X221044350Y-8464500D01*
X240094350Y-8464500D02*
X240094350Y-27514500D01*
X221044350Y-8464500D02*
X240094350Y-8464500D01*
X221064544Y-27983694D02*
X202303956Y-31291692D01*
X213695071Y-12518437D02*
X215696201Y-12165584D01*
X204011448Y-26348084D02*
X204364301Y-28349214D01*
X204364301Y-28349214D02*
X206365431Y-27996361D01*
X202291289Y-16592579D02*
X201938436Y-14591449D01*
X218122066Y-25923349D02*
X217769213Y-23922219D01*
X201938436Y-14591449D02*
X203939566Y-14238596D01*
X216120936Y-26276202D02*
X218122066Y-25923349D01*
X215696201Y-12165584D02*
X216049054Y-14166714D01*
X202303956Y-31291692D02*
X198995958Y-12531104D01*
X217756546Y-9223106D02*
X221064544Y-27983694D01*
X198995958Y-12531104D02*
X217756546Y-9223106D01*
X202303944Y-31291694D02*
X183543356Y-34599692D01*
X194934471Y-15826437D02*
X196935601Y-15473584D01*
X185250848Y-29656084D02*
X185603701Y-31657214D01*
X185603701Y-31657214D02*
X187604831Y-31304361D01*
X183530689Y-19900579D02*
X183177836Y-17899449D01*
X199361466Y-29231349D02*
X199008613Y-27230219D01*
X183177836Y-17899449D02*
X185178966Y-17546596D01*
X197360336Y-29584202D02*
X199361466Y-29231349D01*
X196935601Y-15473584D02*
X197288454Y-17474714D01*
X183543356Y-34599692D02*
X180235358Y-15839104D01*
X198995946Y-12531106D02*
X202303944Y-31291694D01*
X180235358Y-15839104D02*
X198995946Y-12531106D01*
X183543344Y-34599695D02*
X164782756Y-37907693D01*
X176173871Y-19134438D02*
X178175001Y-18781585D01*
X166490248Y-32964085D02*
X166843101Y-34965215D01*
X166843101Y-34965215D02*
X168844231Y-34612362D01*
X164770089Y-23208580D02*
X164417236Y-21207450D01*
X180600866Y-32539350D02*
X180248013Y-30538220D01*
X164417236Y-21207450D02*
X166418366Y-20854597D01*
X178599736Y-32892203D02*
X180600866Y-32539350D01*
X178175001Y-18781585D02*
X178527854Y-20782715D01*
X164782756Y-37907693D02*
X161474758Y-19147105D01*
X180235346Y-15839107D02*
X183543344Y-34599695D01*
X161474758Y-19147105D02*
X180235346Y-15839107D01*
X164782743Y-37907695D02*
X146022155Y-41215693D01*
X157413270Y-22442438D02*
X159414400Y-22089585D01*
X147729647Y-36272085D02*
X148082500Y-38273215D01*
X148082500Y-38273215D02*
X150083630Y-37920362D01*
X146009488Y-26516580D02*
X145656635Y-24515450D01*
X161840265Y-35847350D02*
X161487412Y-33846220D01*
X145656635Y-24515450D02*
X147657765Y-24162597D01*
X159839135Y-36200203D02*
X161840265Y-35847350D01*
X159414400Y-22089585D02*
X159767253Y-24090715D01*
X146022155Y-41215693D02*
X142714157Y-22455105D01*
X161474745Y-19147107D02*
X164782743Y-37907695D01*
X142714157Y-22455105D02*
X161474745Y-19147107D01*
X125098845Y-39539792D02*
X106338257Y-36231794D01*
X123463235Y-22486696D02*
X125464365Y-22839549D01*
X109633588Y-32170319D02*
X109280735Y-34171449D01*
X109280735Y-34171449D02*
X111281865Y-34524302D01*
X111353747Y-22414814D02*
X111706600Y-20413684D01*
X123038500Y-36597314D02*
X123391353Y-34596184D01*
X111706600Y-20413684D02*
X113707730Y-20766537D01*
X121037370Y-36244461D02*
X123038500Y-36597314D01*
X125464365Y-22839549D02*
X125111512Y-24840679D01*
X106338257Y-36231794D02*
X109646255Y-17471206D01*
X128406843Y-20779204D02*
X125098845Y-39539792D01*
X109646255Y-17471206D02*
X128406843Y-20779204D01*
X106338245Y-36231793D02*
X87577657Y-32923795D01*
X104702635Y-19178697D02*
X106703765Y-19531550D01*
X90872988Y-28862320D02*
X90520135Y-30863450D01*
X90520135Y-30863450D02*
X92521265Y-31216303D01*
X92593147Y-19106815D02*
X92946000Y-17105685D01*
X104277900Y-33289315D02*
X104630753Y-31288185D01*
X92946000Y-17105685D02*
X94947130Y-17458538D01*
X102276770Y-32936462D02*
X104277900Y-33289315D01*
X106703765Y-19531550D02*
X106350912Y-21532680D01*
X87577657Y-32923795D02*
X90885655Y-14163207D01*
X109646243Y-17471205D02*
X106338245Y-36231793D01*
X90885655Y-14163207D02*
X109646243Y-17471205D01*
X87577645Y-32923793D02*
X68817057Y-29615795D01*
X85942035Y-15870697D02*
X87943165Y-16223550D01*
X72112388Y-25554320D02*
X71759535Y-27555450D01*
X71759535Y-27555450D02*
X73760665Y-27908303D01*
X73832547Y-15798815D02*
X74185400Y-13797685D01*
X85517300Y-29981315D02*
X85870153Y-27980185D01*
X74185400Y-13797685D02*
X76186530Y-14150538D01*
X83516170Y-29628462D02*
X85517300Y-29981315D01*
X87943165Y-16223550D02*
X87590312Y-18224680D01*
X68817057Y-29615795D02*
X72125055Y-10855207D01*
X90885643Y-14163205D02*
X87577645Y-32923793D01*
X72125055Y-10855207D02*
X90885643Y-14163205D01*
X68817070Y-29615793D02*
X50056482Y-26307795D01*
X67181460Y-12562697D02*
X69182590Y-12915550D01*
X53351813Y-22246320D02*
X52998960Y-24247450D01*
X52998960Y-24247450D02*
X55000090Y-24600303D01*
X55071972Y-12490815D02*
X55424825Y-10489685D01*
X66756725Y-26673315D02*
X67109578Y-24672185D01*
X55424825Y-10489685D02*
X57425955Y-10842538D01*
X64755595Y-26320462D02*
X66756725Y-26673315D01*
X69182590Y-12915550D02*
X68829737Y-14916680D01*
X50056482Y-26307795D02*
X53364480Y-7547207D01*
X72125068Y-10855205D02*
X68817070Y-29615793D01*
X53364480Y-7547207D02*
X72125068Y-10855205D01*
X50056250Y-28575000D02*
X31006250Y-28575000D01*
X45484250Y-12065000D02*
X47516250Y-12065000D01*
X33546250Y-24003000D02*
X33546250Y-26035000D01*
X33546250Y-26035000D02*
X35578250Y-26035000D01*
X33546250Y-14097000D02*
X33546250Y-12065000D01*
X47516250Y-26035000D02*
X47516250Y-24003000D01*
X33546250Y-12065000D02*
X35578250Y-12065000D01*
X45484250Y-26035000D02*
X47516250Y-26035000D01*
X47516250Y-12065000D02*
X47516250Y-14097000D01*
X31006250Y-28575000D02*
X31006250Y-9525000D01*
X50056250Y-9525000D02*
X50056250Y-28575000D01*
X31006250Y-9525000D02*
X50056250Y-9525000D01*
X26243750Y-28575000D02*
X7193750Y-28575000D01*
X21671750Y-12065000D02*
X23703750Y-12065000D01*
X9733750Y-24003000D02*
X9733750Y-26035000D01*
X9733750Y-26035000D02*
X11765750Y-26035000D01*
X9733750Y-14097000D02*
X9733750Y-12065000D01*
X23703750Y-26035000D02*
X23703750Y-24003000D01*
X9733750Y-12065000D02*
X11765750Y-12065000D01*
X21671750Y-26035000D02*
X23703750Y-26035000D01*
X23703750Y-12065000D02*
X23703750Y-14097000D01*
X7193750Y-28575000D02*
X7193750Y-9525000D01*
X26243750Y-9525000D02*
X26243750Y-28575000D01*
X7193750Y-9525000D02*
X26243750Y-9525000D01*
X-7202848Y-28575000D02*
X-26252848Y-28575000D01*
X-11774848Y-12065000D02*
X-9742848Y-12065000D01*
X-23712848Y-24003000D02*
X-23712848Y-26035000D01*
X-23712848Y-26035000D02*
X-21680848Y-26035000D01*
X-23712848Y-14097000D02*
X-23712848Y-12065000D01*
X-9742848Y-26035000D02*
X-9742848Y-24003000D01*
X-23712848Y-12065000D02*
X-21680848Y-12065000D01*
X-11774848Y-26035000D02*
X-9742848Y-26035000D01*
X-9742848Y-12065000D02*
X-9742848Y-14097000D01*
X-26252848Y-28575000D02*
X-26252848Y-9525000D01*
X-7202848Y-9525000D02*
X-7202848Y-28575000D01*
X-26252848Y-9525000D02*
X-7202848Y-9525000D01*
X294863051Y-9525000D02*
X275813051Y-9525000D01*
X290291051Y6985000D02*
X292323051Y6985000D01*
X278353051Y-4953000D02*
X278353051Y-6985000D01*
X278353051Y-6985000D02*
X280385051Y-6985000D01*
X278353051Y4953000D02*
X278353051Y6985000D01*
X292323051Y-6985000D02*
X292323051Y-4953000D01*
X278353051Y6985000D02*
X280385051Y6985000D01*
X290291051Y-6985000D02*
X292323051Y-6985000D01*
X292323051Y6985000D02*
X292323051Y4953000D01*
X275813051Y-9525000D02*
X275813051Y9525000D01*
X294863051Y9525000D02*
X294863051Y-9525000D01*
X275813051Y9525000D02*
X294863051Y9525000D01*
X285338051Y-9525000D02*
X266288051Y-9525000D01*
X280766051Y6985000D02*
X282798051Y6985000D01*
X268828051Y-4953000D02*
X268828051Y-6985000D01*
X268828051Y-6985000D02*
X270860051Y-6985000D01*
X268828051Y4953000D02*
X268828051Y6985000D01*
X282798051Y-6985000D02*
X282798051Y-4953000D01*
X268828051Y6985000D02*
X270860051Y6985000D01*
X280766051Y-6985000D02*
X282798051Y-6985000D01*
X282798051Y6985000D02*
X282798051Y4953000D01*
X266288051Y-9525000D02*
X266288051Y9525000D01*
X285338051Y9525000D02*
X285338051Y-9525000D01*
X266288051Y9525000D02*
X285338051Y9525000D01*
X266288051Y-9525000D02*
X247238051Y-9525000D01*
X261716051Y6985000D02*
X263748051Y6985000D01*
X249778051Y-4953000D02*
X249778051Y-6985000D01*
X249778051Y-6985000D02*
X251810051Y-6985000D01*
X249778051Y4953000D02*
X249778051Y6985000D01*
X263748051Y-6985000D02*
X263748051Y-4953000D01*
X249778051Y6985000D02*
X251810051Y6985000D01*
X261716051Y-6985000D02*
X263748051Y-6985000D01*
X263748051Y6985000D02*
X263748051Y4953000D01*
X247238051Y-9525000D02*
X247238051Y9525000D01*
X266288051Y9525000D02*
X266288051Y-9525000D01*
X247238051Y9525000D02*
X266288051Y9525000D01*
X247238050Y-7584800D02*
X228188050Y-7584800D01*
X242666050Y8925200D02*
X244698050Y8925200D01*
X230728050Y-3012800D02*
X230728050Y-5044800D01*
X230728050Y-5044800D02*
X232760050Y-5044800D01*
X230728050Y6893200D02*
X230728050Y8925200D01*
X244698050Y-5044800D02*
X244698050Y-3012800D01*
X230728050Y8925200D02*
X232760050Y8925200D01*
X242666050Y-5044800D02*
X244698050Y-5044800D01*
X244698050Y8925200D02*
X244698050Y6893200D01*
X228188050Y-7584800D02*
X228188050Y11465200D01*
X247238050Y11465200D02*
X247238050Y-7584800D01*
X228188050Y11465200D02*
X247238050Y11465200D01*
X228239643Y-7374596D02*
X209479055Y-10682594D01*
X220870170Y8090661D02*
X222871300Y8443514D01*
X211186547Y-5738986D02*
X211539400Y-7740116D01*
X211539400Y-7740116D02*
X213540530Y-7387263D01*
X209466388Y4016519D02*
X209113535Y6017649D01*
X225297165Y-5314251D02*
X224944312Y-3313121D01*
X209113535Y6017649D02*
X211114665Y6370502D01*
X223296035Y-5667104D02*
X225297165Y-5314251D01*
X222871300Y8443514D02*
X223224153Y6442384D01*
X209479055Y-10682594D02*
X206171057Y8077994D01*
X224931645Y11385992D02*
X228239643Y-7374596D01*
X206171057Y8077994D02*
X224931645Y11385992D01*
X209479044Y-10682594D02*
X190718456Y-13990592D01*
X202109571Y4782663D02*
X204110701Y5135516D01*
X192425948Y-9046984D02*
X192778801Y-11048114D01*
X192778801Y-11048114D02*
X194779931Y-10695261D01*
X190705789Y708521D02*
X190352936Y2709651D01*
X206536566Y-8622249D02*
X206183713Y-6621119D01*
X190352936Y2709651D02*
X192354066Y3062504D01*
X204535436Y-8975102D02*
X206536566Y-8622249D01*
X204110701Y5135516D02*
X204463554Y3134386D01*
X190718456Y-13990592D02*
X187410458Y4769996D01*
X206171046Y8077994D02*
X209479044Y-10682594D01*
X187410458Y4769996D02*
X206171046Y8077994D01*
X190718443Y-13990595D02*
X171957855Y-17298593D01*
X183348970Y1474662D02*
X185350100Y1827515D01*
X173665347Y-12354985D02*
X174018200Y-14356115D01*
X174018200Y-14356115D02*
X176019330Y-14003262D01*
X171945188Y-2599480D02*
X171592335Y-598350D01*
X187775965Y-11930250D02*
X187423112Y-9929120D01*
X171592335Y-598350D02*
X173593465Y-245497D01*
X185774835Y-12283103D02*
X187775965Y-11930250D01*
X185350100Y1827515D02*
X185702953Y-173615D01*
X171957855Y-17298593D02*
X168649857Y1461995D01*
X187410445Y4769993D02*
X190718443Y-13990595D01*
X168649857Y1461995D02*
X187410445Y4769993D01*
X171957844Y-17298595D02*
X153197256Y-20606593D01*
X164588371Y-1833338D02*
X166589501Y-1480485D01*
X154904748Y-15662985D02*
X155257601Y-17664115D01*
X155257601Y-17664115D02*
X157258731Y-17311262D01*
X153184589Y-5907480D02*
X152831736Y-3906350D01*
X169015366Y-15238250D02*
X168662513Y-13237120D01*
X152831736Y-3906350D02*
X154832866Y-3553497D01*
X167014236Y-15591103D02*
X169015366Y-15238250D01*
X166589501Y-1480485D02*
X166942354Y-3481615D01*
X153197256Y-20606593D02*
X149889258Y-1846005D01*
X168649846Y1461993D02*
X171957844Y-17298595D01*
X149889258Y-1846005D02*
X168649846Y1461993D01*
X136729945Y-22246793D02*
X117969357Y-18938795D01*
X135094335Y-5193697D02*
X137095465Y-5546550D01*
X121264688Y-14877320D02*
X120911835Y-16878450D01*
X120911835Y-16878450D02*
X122912965Y-17231303D01*
X122984847Y-5121815D02*
X123337700Y-3120685D01*
X134669600Y-19304315D02*
X135022453Y-17303185D01*
X123337700Y-3120685D02*
X125338830Y-3473538D01*
X132668470Y-18951462D02*
X134669600Y-19304315D01*
X137095465Y-5546550D02*
X136742612Y-7547680D01*
X117969357Y-18938795D02*
X121277355Y-178207D01*
X140037943Y-3486205D02*
X136729945Y-22246793D01*
X121277355Y-178207D02*
X140037943Y-3486205D01*
X117969345Y-18938793D02*
X99208757Y-15630795D01*
X116333735Y-1885697D02*
X118334865Y-2238550D01*
X102504088Y-11569320D02*
X102151235Y-13570450D01*
X102151235Y-13570450D02*
X104152365Y-13923303D01*
X104224247Y-1813815D02*
X104577100Y187315D01*
X115909000Y-15996315D02*
X116261853Y-13995185D01*
X104577100Y187315D02*
X106578230Y-165538D01*
X113907870Y-15643462D02*
X115909000Y-15996315D01*
X118334865Y-2238550D02*
X117982012Y-4239680D01*
X99208757Y-15630795D02*
X102516755Y3129793D01*
X121277343Y-178205D02*
X117969345Y-18938793D01*
X102516755Y3129793D02*
X121277343Y-178205D01*
X99208746Y-15630793D02*
X80448158Y-12322795D01*
X97573136Y1422303D02*
X99574266Y1069450D01*
X83743489Y-8261320D02*
X83390636Y-10262450D01*
X83390636Y-10262450D02*
X85391766Y-10615303D01*
X85463648Y1494185D02*
X85816501Y3495315D01*
X97148401Y-12688315D02*
X97501254Y-10687185D01*
X85816501Y3495315D02*
X87817631Y3142462D01*
X95147271Y-12335462D02*
X97148401Y-12688315D01*
X99574266Y1069450D02*
X99221413Y-931680D01*
X80448158Y-12322795D02*
X83756156Y6437793D01*
X102516744Y3129795D02*
X99208746Y-15630793D01*
X83756156Y6437793D02*
X102516744Y3129795D01*
X80448146Y-12322793D02*
X61687558Y-9014795D01*
X78812536Y4730303D02*
X80813666Y4377450D01*
X64982889Y-4953320D02*
X64630036Y-6954450D01*
X64630036Y-6954450D02*
X66631166Y-7307303D01*
X66703048Y4802185D02*
X67055901Y6803315D01*
X78387801Y-9380315D02*
X78740654Y-7379185D01*
X67055901Y6803315D02*
X69057031Y6450462D01*
X76386671Y-9027462D02*
X78387801Y-9380315D01*
X80813666Y4377450D02*
X80460813Y2376320D01*
X61687558Y-9014795D02*
X64995556Y9745793D01*
X83756144Y6437795D02*
X80448146Y-12322793D01*
X64995556Y9745793D02*
X83756144Y6437795D01*
X61962551Y-7584801D02*
X42912551Y-7584801D01*
X57390551Y8925199D02*
X59422551Y8925199D01*
X45452551Y-3012801D02*
X45452551Y-5044801D01*
X45452551Y-5044801D02*
X47484551Y-5044801D01*
X45452551Y6893199D02*
X45452551Y8925199D01*
X59422551Y-5044801D02*
X59422551Y-3012801D01*
X45452551Y8925199D02*
X47484551Y8925199D01*
X57390551Y-5044801D02*
X59422551Y-5044801D01*
X59422551Y8925199D02*
X59422551Y6893199D01*
X42912551Y-7584801D02*
X42912551Y11465199D01*
X61962551Y11465199D02*
X61962551Y-7584801D01*
X42912551Y11465199D02*
X61962551Y11465199D01*
X42912551Y-9525000D02*
X23862551Y-9525000D01*
X38340551Y6985000D02*
X40372551Y6985000D01*
X26402551Y-4953000D02*
X26402551Y-6985000D01*
X26402551Y-6985000D02*
X28434551Y-6985000D01*
X26402551Y4953000D02*
X26402551Y6985000D01*
X40372551Y-6985000D02*
X40372551Y-4953000D01*
X26402551Y6985000D02*
X28434551Y6985000D01*
X38340551Y-6985000D02*
X40372551Y-6985000D01*
X40372551Y6985000D02*
X40372551Y4953000D01*
X23862551Y-9525000D02*
X23862551Y9525000D01*
X42912551Y9525000D02*
X42912551Y-9525000D01*
X23862551Y9525000D02*
X42912551Y9525000D01*
X23862551Y-9525000D02*
X4812551Y-9525000D01*
X19290551Y6985000D02*
X21322551Y6985000D01*
X7352551Y-4953000D02*
X7352551Y-6985000D01*
X7352551Y-6985000D02*
X9384551Y-6985000D01*
X7352551Y4953000D02*
X7352551Y6985000D01*
X21322551Y-6985000D02*
X21322551Y-4953000D01*
X7352551Y6985000D02*
X9384551Y6985000D01*
X19290551Y-6985000D02*
X21322551Y-6985000D01*
X21322551Y6985000D02*
X21322551Y4953000D01*
X4812551Y-9525000D02*
X4812551Y9525000D01*
X23862551Y9525000D02*
X23862551Y-9525000D01*
X4812551Y9525000D02*
X23862551Y9525000D01*
X-4821549Y-9525000D02*
X-23871549Y-9525000D01*
X-9393549Y6985000D02*
X-7361549Y6985000D01*
X-21331549Y-4953000D02*
X-21331549Y-6985000D01*
X-21331549Y-6985000D02*
X-19299549Y-6985000D01*
X-21331549Y4953000D02*
X-21331549Y6985000D01*
X-7361549Y-6985000D02*
X-7361549Y-4953000D01*
X-21331549Y6985000D02*
X-19299549Y6985000D01*
X-9393549Y-6985000D02*
X-7361549Y-6985000D01*
X-7361549Y6985000D02*
X-7361549Y4953000D01*
X-23871549Y-9525000D02*
X-23871549Y9525000D01*
X-4821549Y9525000D02*
X-4821549Y-9525000D01*
X-23871549Y9525000D02*
X-4821549Y9525000D01*
G36*
X249280300Y-74066400D02*
G01*
X249280300Y-73456800D01*
X249889900Y-73456800D01*
X249280300Y-74066400D01*
G37*
D12*
X249280300Y-74066400D02*
X249280300Y-73456800D01*
X249889900Y-73456800D01*
X249280300Y-74066400D01*
D11*
X249262500Y-73450000D02*
X249262500Y-74600000D01*
X256562500Y-73450000D02*
X249262500Y-73450000D01*
X256562500Y-78950000D02*
X249262500Y-78950000D01*
G36*
X259280300Y-74066400D02*
G01*
X259280300Y-73456800D01*
X259889900Y-73456800D01*
X259280300Y-74066400D01*
G37*
D12*
X259280300Y-74066400D02*
X259280300Y-73456800D01*
X259889900Y-73456800D01*
X259280300Y-74066400D01*
D11*
X259262500Y-73450000D02*
X259262500Y-74600000D01*
X266562500Y-73450000D02*
X259262500Y-73450000D01*
X266562500Y-78950000D02*
X259262500Y-78950000D01*
G36*
X269280300Y-74066400D02*
G01*
X269280300Y-73456800D01*
X269889900Y-73456800D01*
X269280300Y-74066400D01*
G37*
D12*
X269280300Y-74066400D02*
X269280300Y-73456800D01*
X269889900Y-73456800D01*
X269280300Y-74066400D01*
D11*
X269262500Y-73450000D02*
X269262500Y-74600000D01*
X276562500Y-73450000D02*
X269262500Y-73450000D01*
X276562500Y-78950000D02*
X269262500Y-78950000D01*
G36*
X31292200Y-78943200D02*
G01*
X30682600Y-78943200D01*
X31292200Y-78333600D01*
X31292200Y-78943200D01*
G37*
D12*
X31292200Y-78943200D02*
X30682600Y-78943200D01*
X31292200Y-78333600D01*
X31292200Y-78943200D01*
D11*
X31310000Y-78950000D02*
X31310000Y-77800000D01*
X24010000Y-78950000D02*
X31310000Y-78950000D01*
X24010000Y-73450000D02*
X31310000Y-73450000D01*
G36*
X21292200Y-78943200D02*
G01*
X20682600Y-78943200D01*
X21292200Y-78333600D01*
X21292200Y-78943200D01*
G37*
D12*
X21292200Y-78943200D02*
X20682600Y-78943200D01*
X21292200Y-78333600D01*
X21292200Y-78943200D01*
D11*
X21310000Y-78950000D02*
X21310000Y-77800000D01*
X14010000Y-78950000D02*
X21310000Y-78950000D01*
X14010000Y-73450000D02*
X21310000Y-73450000D01*
G36*
X11292200Y-78943200D02*
G01*
X10682600Y-78943200D01*
X11292200Y-78333600D01*
X11292200Y-78943200D01*
G37*
D12*
X11292200Y-78943200D02*
X10682600Y-78943200D01*
X11292200Y-78333600D01*
X11292200Y-78943200D01*
D11*
X11310000Y-78950000D02*
X11310000Y-77800000D01*
X4010000Y-78950000D02*
X11310000Y-78950000D01*
X4010000Y-73450000D02*
X11310000Y-73450000D01*
M02*
