G04 #@! TF.GenerationSoftware,KiCad,Pcbnew,(5.99.0-1918-g94cd0cf3a)*
G04 #@! TF.CreationDate,2020-08-09T16:20:09+02:00*
G04 #@! TF.ProjectId,BMEK_Solder,424d454b-5f53-46f6-9c64-65722e6b6963,1*
G04 #@! TF.SameCoordinates,Original*
G04 #@! TF.FileFunction,Soldermask,Top*
G04 #@! TF.FilePolarity,Negative*
%FSLAX46Y46*%
G04 Gerber Fmt 4.6, Leading zero omitted, Abs format (unit mm)*
G04 Created by KiCad (PCBNEW (5.99.0-1918-g94cd0cf3a)) date 2020-08-09 16:20:09*
%MOMM*%
%LPD*%
G01*
G04 APERTURE LIST*
%ADD10C,6.500000*%
%ADD11C,9.000000*%
%ADD12C,5.350000*%
%ADD13C,3.800000*%
%ADD14C,2.250000*%
%ADD15C,3.987800*%
%ADD16C,1.750000*%
%ADD17C,3.348000*%
%ADD18C,4.287800*%
%ADD19O,1.000000X1.600000*%
%ADD20O,1.000000X2.100000*%
%ADD21C,0.650000*%
%ADD22R,1.500000X1.000000*%
G04 APERTURE END LIST*
D10*
X151660000Y-89110000D03*
X128960000Y-89110000D03*
D11*
X140260000Y-55150000D03*
D12*
X140260000Y-45020000D03*
X-4720000Y-38100000D03*
D13*
X283400000Y-76200000D03*
X-2780000Y-76200000D03*
X0Y0D03*
X140260000Y-77150000D03*
D14*
X175071280Y-79294910D03*
D15*
X173452001Y-84738800D03*
D14*
X169258817Y-82898988D03*
D16*
X168449178Y-85620933D03*
X178454824Y-83856667D03*
D14*
X110557295Y-80177043D03*
D15*
X107173751Y-84738800D03*
D14*
X103862700Y-81575789D03*
D16*
X102170928Y-83856667D03*
X112176574Y-85620933D03*
D14*
X236417450Y-71120000D03*
D15*
X233877450Y-76200000D03*
D14*
X230067450Y-73660000D03*
D16*
X228797450Y-76200000D03*
X238957450Y-76200000D03*
D14*
X212592379Y-72678909D03*
D15*
X210973100Y-78122799D03*
D14*
X206779916Y-76282987D03*
D16*
X205970277Y-79004932D03*
X215975923Y-77240666D03*
D14*
X179761426Y-78467910D03*
D15*
X178142147Y-83911800D03*
D14*
X173948963Y-82071988D03*
D16*
X173139324Y-84793933D03*
X183144970Y-83029667D03*
D14*
X105867148Y-79350043D03*
D15*
X102483604Y-83911800D03*
D14*
X99172553Y-80748789D03*
D16*
X97480781Y-83029667D03*
X107486427Y-84793933D03*
D14*
X73036044Y-73561043D03*
D15*
X69652500Y-78122800D03*
D14*
X66341449Y-74959789D03*
D16*
X64649677Y-77240667D03*
X74655323Y-79004933D03*
D14*
X49288150Y-71120000D03*
D15*
X46748150Y-76200000D03*
D14*
X42938150Y-73660000D03*
D16*
X41668150Y-76200000D03*
X51828150Y-76200000D03*
D14*
X33546250Y-52070000D03*
D15*
X31006250Y-57150000D03*
D14*
X27196250Y-54610000D03*
D16*
X25926250Y-57150000D03*
X36086250Y-57150000D03*
D14*
X12115000Y-52070000D03*
D15*
X9575000Y-57150000D03*
D14*
X5765000Y-54610000D03*
D16*
X4495000Y-57150000D03*
X14655000Y-57150000D03*
D14*
X287878200Y-52070000D03*
D15*
X285338200Y-57150000D03*
D14*
X281528200Y-54610000D03*
D16*
X280258200Y-57150000D03*
X290418200Y-57150000D03*
D14*
X304546950Y-52070000D03*
D15*
X302006950Y-57150000D03*
D14*
X298196950Y-54610000D03*
D16*
X296926950Y-57150000D03*
X307086950Y-57150000D03*
D14*
X278353250Y-52070000D03*
D15*
X275813250Y-57150000D03*
D14*
X272003250Y-54610000D03*
D16*
X270733250Y-57150000D03*
X280893250Y-57150000D03*
D14*
X252159450Y-52070000D03*
D15*
X249619450Y-57150000D03*
D14*
X245809450Y-54610000D03*
D16*
X244539450Y-57150000D03*
X254699450Y-57150000D03*
D14*
X233109450Y-52069999D03*
D15*
X230569450Y-57149999D03*
D14*
X226759450Y-54609999D03*
D16*
X225489450Y-57149999D03*
X235649450Y-57149999D03*
D14*
X211629529Y-53504809D03*
D15*
X210010250Y-58948699D03*
D14*
X205817066Y-57108887D03*
D16*
X205007427Y-59830832D03*
X215013073Y-58066566D03*
D14*
X192868929Y-56812809D03*
D15*
X191249650Y-62256699D03*
D14*
X187056466Y-60416887D03*
D16*
X186246827Y-63138832D03*
X196252473Y-61374566D03*
D14*
X174108329Y-60120809D03*
D15*
X172489050Y-65564699D03*
D14*
X168295866Y-63724887D03*
D16*
X167486227Y-66446832D03*
X177491873Y-64682566D03*
D14*
X155347729Y-63428810D03*
D15*
X153728450Y-68872700D03*
D14*
X149535266Y-67032888D03*
D16*
X148725627Y-69754833D03*
X158731273Y-67990567D03*
D14*
X130280794Y-64310943D03*
D15*
X126897250Y-68872700D03*
D14*
X123586199Y-65709689D03*
D16*
X121894427Y-67990567D03*
X131900073Y-69754833D03*
D14*
X111520194Y-61002943D03*
D15*
X108136650Y-65564700D03*
D14*
X104825599Y-62401689D03*
D16*
X103133827Y-64682567D03*
X113139473Y-66446833D03*
D14*
X92759594Y-57694943D03*
D15*
X89376050Y-62256700D03*
D14*
X86064999Y-59093689D03*
D16*
X84373227Y-61374567D03*
X94378873Y-63138833D03*
D14*
X73998994Y-54386943D03*
D15*
X70615450Y-58948700D03*
D14*
X67304399Y-55785689D03*
D16*
X65612627Y-58066567D03*
X75618273Y-59830833D03*
D14*
X52596150Y-52070000D03*
D15*
X50056150Y-57150000D03*
D14*
X46246150Y-54610000D03*
D16*
X44976150Y-57150000D03*
X55136150Y-57150000D03*
D14*
X21639900Y-52070000D03*
D15*
X19099900Y-57150000D03*
D14*
X15289900Y-54610000D03*
D16*
X14019900Y-57150000D03*
X24179900Y-57150000D03*
D14*
X-18950448Y-52070000D03*
D15*
X-21490448Y-57150000D03*
D14*
X-25300448Y-54610000D03*
D16*
X-26570448Y-57150000D03*
X-16410448Y-57150000D03*
D14*
X295021850Y-13970000D03*
D15*
X292481850Y-19050000D03*
D14*
X288671850Y-16510000D03*
D16*
X287401850Y-19050000D03*
X297561850Y-19050000D03*
D14*
X290259401Y-33020000D03*
D15*
X287719401Y-38100000D03*
D14*
X283909401Y-35560000D03*
D16*
X282639401Y-38100000D03*
X292799401Y-38100000D03*
D14*
X259303150Y-33020000D03*
D15*
X256763150Y-38100000D03*
D14*
X252953150Y-35560000D03*
D16*
X251683150Y-38100000D03*
X261843150Y-38100000D03*
D14*
X240253150Y-33019999D03*
D15*
X237713150Y-38099999D03*
D14*
X233903150Y-35559999D03*
D16*
X232633150Y-38099999D03*
X242793150Y-38099999D03*
D14*
X218779929Y-32900109D03*
D15*
X217160650Y-38343999D03*
D14*
X212967466Y-36504187D03*
D16*
X212157827Y-39226132D03*
X222163473Y-37461866D03*
D14*
X200019329Y-36208110D03*
D15*
X198400050Y-41652000D03*
D14*
X194206866Y-39812188D03*
D16*
X193397227Y-42534133D03*
X203402873Y-40769867D03*
D14*
X181258729Y-39516109D03*
D15*
X179639450Y-44959999D03*
D14*
X175446266Y-43120187D03*
D16*
X174636627Y-45842132D03*
X184642273Y-44077866D03*
D14*
X162498129Y-42824110D03*
D15*
X160878850Y-48268000D03*
D14*
X156685666Y-46428188D03*
D16*
X155876027Y-49150133D03*
X165881673Y-47385867D03*
D14*
X123112294Y-43703043D03*
D15*
X119728750Y-48264800D03*
D14*
X116417699Y-45101789D03*
D16*
X114725927Y-47382667D03*
X124731573Y-49146933D03*
D14*
X104351694Y-40395043D03*
D15*
X100968150Y-44956800D03*
D14*
X97657099Y-41793789D03*
D16*
X95965327Y-44074667D03*
X105970973Y-45838933D03*
D14*
X85591094Y-37087043D03*
D15*
X82207550Y-41648800D03*
D14*
X78896499Y-38485789D03*
D16*
X77204727Y-40766667D03*
X87210373Y-42530933D03*
D14*
X66830494Y-33779043D03*
D15*
X63446950Y-38340800D03*
D14*
X60135899Y-35177789D03*
D16*
X58444127Y-37458667D03*
X68449773Y-39222933D03*
D14*
X45452450Y-33020000D03*
D15*
X42912450Y-38100000D03*
D14*
X39102450Y-35560000D03*
D16*
X37832450Y-38100000D03*
X47992450Y-38100000D03*
D14*
X19258750Y-33020000D03*
D15*
X16718750Y-38100000D03*
D14*
X12908750Y-35560000D03*
D16*
X11638750Y-38100000D03*
X21798750Y-38100000D03*
D14*
X-16569148Y-33020000D03*
D15*
X-19109148Y-38100000D03*
D14*
X-22919148Y-35560000D03*
D16*
X-24189148Y-38100000D03*
X-14029148Y-38100000D03*
D14*
X297403051Y5080000D03*
D15*
X294863051Y0D03*
D14*
X291053051Y2540000D03*
D16*
X289783051Y0D03*
X299943051Y0D03*
D14*
X271209350Y-13970000D03*
D15*
X268669350Y-19050000D03*
D14*
X264859350Y-16510000D03*
D16*
X263589350Y-19050000D03*
X273749350Y-19050000D03*
D14*
X252159350Y-13970000D03*
D15*
X249619350Y-19050000D03*
D14*
X245809350Y-16510000D03*
D16*
X244539350Y-19050000D03*
X254699350Y-19050000D03*
D14*
X233109350Y-12909500D03*
D15*
X230569350Y-17989500D03*
D14*
X226759350Y-15449500D03*
D16*
X225489350Y-17989500D03*
X235649350Y-17989500D03*
D14*
X211649530Y-14813509D03*
D15*
X210030251Y-20257399D03*
D14*
X205837067Y-18417587D03*
D16*
X205027428Y-21139532D03*
X215033074Y-19375266D03*
D14*
X192888930Y-18121509D03*
D15*
X191269651Y-23565399D03*
D14*
X187076467Y-21725587D03*
D16*
X186266828Y-24447532D03*
X196272474Y-22683266D03*
D14*
X174128330Y-21429510D03*
D15*
X172509051Y-26873400D03*
D14*
X168315867Y-25033588D03*
D16*
X167506228Y-27755533D03*
X177511874Y-25991267D03*
D14*
X155367729Y-24737510D03*
D15*
X153748450Y-30181400D03*
D14*
X149555266Y-28341588D03*
D16*
X148745627Y-31063533D03*
X158751273Y-29299267D03*
D14*
X120756094Y-23943742D03*
D15*
X117372550Y-28505499D03*
D14*
X114061499Y-25342488D03*
D16*
X112369727Y-27623366D03*
X122375373Y-29387632D03*
D14*
X101995494Y-20635743D03*
D15*
X98611950Y-25197500D03*
D14*
X95300899Y-22034489D03*
D16*
X93609127Y-24315367D03*
X103614773Y-26079633D03*
D14*
X83234894Y-17327743D03*
D15*
X79851350Y-21889500D03*
D14*
X76540299Y-18726489D03*
D16*
X74848527Y-21007367D03*
X84854173Y-22771633D03*
D14*
X64474319Y-14019743D03*
D15*
X61090775Y-18581500D03*
D14*
X57779724Y-15418489D03*
D16*
X56087952Y-17699367D03*
X66093598Y-19463633D03*
D14*
X43071250Y-13970000D03*
D15*
X40531250Y-19050000D03*
D14*
X36721250Y-16510000D03*
D16*
X35451250Y-19050000D03*
X45611250Y-19050000D03*
D14*
X19258750Y-13970000D03*
D15*
X16718750Y-19050000D03*
D14*
X12908750Y-16510000D03*
D16*
X11638750Y-19050000D03*
X21798750Y-19050000D03*
D14*
X-14187848Y-13970000D03*
D15*
X-16727848Y-19050000D03*
D14*
X-20537848Y-16510000D03*
D16*
X-21807848Y-19050000D03*
X-11647848Y-19050000D03*
D14*
X287878051Y5080000D03*
D15*
X285338051Y0D03*
D14*
X281528051Y2540000D03*
D16*
X280258051Y0D03*
X290418051Y0D03*
D14*
X278353051Y5080000D03*
D15*
X275813051Y0D03*
D14*
X272003051Y2540000D03*
D16*
X270733051Y0D03*
X280893051Y0D03*
D14*
X259303051Y5080000D03*
D15*
X256763051Y0D03*
D14*
X252953051Y2540000D03*
D16*
X251683051Y0D03*
X261843051Y0D03*
D14*
X240253050Y7020200D03*
D15*
X237713050Y1940200D03*
D14*
X233903050Y4480200D03*
D16*
X232633050Y1940200D03*
X242793050Y1940200D03*
D14*
X218824629Y5795589D03*
D15*
X217205350Y351699D03*
D14*
X213012166Y2191511D03*
D16*
X212202527Y-530434D03*
X222208173Y1233832D03*
D14*
X200064030Y2487591D03*
D15*
X198444751Y-2956299D03*
D14*
X194251567Y-1116487D03*
D16*
X193441928Y-3838432D03*
X203447574Y-2074166D03*
D14*
X181303429Y-820410D03*
D15*
X179684150Y-6264300D03*
D14*
X175490966Y-4424488D03*
D16*
X174681327Y-7146433D03*
X184686973Y-5382167D03*
D14*
X162542830Y-4128410D03*
D15*
X160923551Y-9572300D03*
D14*
X156730367Y-7732488D03*
D16*
X155920728Y-10454433D03*
X165926374Y-8690167D03*
D14*
X132387194Y-6650743D03*
D15*
X129003650Y-11212500D03*
D14*
X125692599Y-8049489D03*
D16*
X124000827Y-10330367D03*
X134006473Y-12094633D03*
D14*
X113626594Y-3342743D03*
D15*
X110243050Y-7904500D03*
D14*
X106931999Y-4741489D03*
D16*
X105240227Y-7022367D03*
X115245873Y-8786633D03*
D14*
X94865995Y-34743D03*
D15*
X91482451Y-4596500D03*
D14*
X88171400Y-1433489D03*
D16*
X86479628Y-3714367D03*
X96485274Y-5478633D03*
D14*
X76105395Y3273257D03*
D15*
X72721851Y-1288500D03*
D14*
X69410800Y1874511D03*
D16*
X67719028Y-406367D03*
X77724674Y-2170633D03*
D14*
X54977551Y7020199D03*
D15*
X52437551Y1940199D03*
D14*
X48627551Y4480199D03*
D16*
X47357551Y1940199D03*
X57517551Y1940199D03*
D14*
X35927551Y5080000D03*
D15*
X33387551Y0D03*
D14*
X29577551Y2540000D03*
D16*
X28307551Y0D03*
X38467551Y0D03*
D14*
X16877551Y5080000D03*
D15*
X14337551Y0D03*
D14*
X10527551Y2540000D03*
D16*
X9257551Y0D03*
X19417551Y0D03*
D14*
X-11806549Y5080000D03*
D15*
X-14346549Y0D03*
D14*
X-18156549Y2540000D03*
D16*
X-19426549Y0D03*
X-9266549Y0D03*
D17*
X273431801Y6985000D03*
X297244301Y6985000D03*
D18*
X273431801Y-8255000D03*
X297244301Y-8255000D03*
D17*
X299625651Y-45085000D03*
X275813151Y-45085000D03*
D18*
X299625651Y-29845000D03*
X275813151Y-29845000D03*
D17*
X112996039Y-92858181D03*
X89545304Y-88723184D03*
D18*
X115642437Y-77849711D03*
X92191702Y-73714713D03*
D17*
X117686186Y-93685181D03*
X94235451Y-89550184D03*
D18*
X120332584Y-78676711D03*
X96881849Y-74541713D03*
D17*
X186390301Y-89550184D03*
X162939566Y-93685181D03*
D18*
X183743903Y-74541713D03*
X160293168Y-78676711D03*
D17*
X191080447Y-88723184D03*
X167629712Y-92858181D03*
D18*
X188434049Y-73714713D03*
X164983314Y-77849711D03*
D17*
X31006150Y-64135000D03*
X7193650Y-64135000D03*
D18*
X31006150Y-48895000D03*
X7193650Y-48895000D03*
D19*
X144588500Y4150000D03*
X135948500Y4150000D03*
D20*
X144588500Y-30000D03*
X135948500Y-30000D03*
D21*
X137378500Y500000D03*
X143158500Y500000D03*
G36*
G01*
X147832720Y-16983722D02*
X147832720Y-16983722D01*
G75*
G02*
X147143234Y-17968410I-837087J-147601D01*
G01*
X147143234Y-17968410D01*
G75*
G02*
X146158546Y-17278924I-147601J837087D01*
G01*
X146158546Y-17278924D01*
G75*
G02*
X146848032Y-16294236I837087J147601D01*
G01*
X146848032Y-16294236D01*
G75*
G02*
X147832720Y-16983722I147601J-837087D01*
G01*
G37*
G36*
G01*
X147391654Y-14482310D02*
X147391654Y-14482310D01*
G75*
G02*
X146702168Y-15466998I-837087J-147601D01*
G01*
X146702168Y-15466998D01*
G75*
G02*
X145717480Y-14777512I-147601J837087D01*
G01*
X145717480Y-14777512D01*
G75*
G02*
X146406966Y-13792824I837087J147601D01*
G01*
X146406966Y-13792824D01*
G75*
G02*
X147391654Y-14482310I147601J-837087D01*
G01*
G37*
G36*
G01*
X146950587Y-11980899D02*
X146950587Y-11980899D01*
G75*
G02*
X146261101Y-12965587I-837087J-147601D01*
G01*
X146261101Y-12965587D01*
G75*
G02*
X145276413Y-12276101I-147601J837087D01*
G01*
X145276413Y-12276101D01*
G75*
G02*
X145965899Y-11291413I837087J147601D01*
G01*
X145965899Y-11291413D01*
G75*
G02*
X146950587Y-11980899I147601J-837087D01*
G01*
G37*
G36*
X146361920Y-8642400D02*
G01*
X146657122Y-10316574D01*
X144982948Y-10611776D01*
X144687746Y-8937602D01*
X146361920Y-8642400D01*
G37*
G36*
G01*
X152252808Y-20663289D02*
X152252808Y-20663289D01*
G75*
G02*
X151563322Y-21647977I-837087J-147601D01*
G01*
X151563322Y-21647977D01*
G75*
G02*
X150578634Y-20958491I-147601J837087D01*
G01*
X150578634Y-20958491D01*
G75*
G02*
X151268120Y-19973803I837087J147601D01*
G01*
X151268120Y-19973803D01*
G75*
G02*
X152252808Y-20663289I147601J-837087D01*
G01*
G37*
G36*
G01*
X154754220Y-20222222D02*
X154754220Y-20222222D01*
G75*
G02*
X154064734Y-21206910I-837087J-147601D01*
G01*
X154064734Y-21206910D01*
G75*
G02*
X153080046Y-20517424I-147601J837087D01*
G01*
X153080046Y-20517424D01*
G75*
G02*
X153769532Y-19532736I837087J147601D01*
G01*
X153769532Y-19532736D01*
G75*
G02*
X154754220Y-20222222I147601J-837087D01*
G01*
G37*
G36*
G01*
X151811742Y-18161877D02*
X151811742Y-18161877D01*
G75*
G02*
X151122256Y-19146565I-837087J-147601D01*
G01*
X151122256Y-19146565D01*
G75*
G02*
X150137568Y-18457079I-147601J837087D01*
G01*
X150137568Y-18457079D01*
G75*
G02*
X150827054Y-17472391I837087J147601D01*
G01*
X150827054Y-17472391D01*
G75*
G02*
X151811742Y-18161877I147601J-837087D01*
G01*
G37*
G36*
G01*
X154313153Y-17720811D02*
X154313153Y-17720811D01*
G75*
G02*
X153623667Y-18705499I-837087J-147601D01*
G01*
X153623667Y-18705499D01*
G75*
G02*
X152638979Y-18016013I-147601J837087D01*
G01*
X152638979Y-18016013D01*
G75*
G02*
X153328465Y-17031325I837087J147601D01*
G01*
X153328465Y-17031325D01*
G75*
G02*
X154313153Y-17720811I147601J-837087D01*
G01*
G37*
G36*
G01*
X151370675Y-15660465D02*
X151370675Y-15660465D01*
G75*
G02*
X150681189Y-16645153I-837087J-147601D01*
G01*
X150681189Y-16645153D01*
G75*
G02*
X149696501Y-15955667I-147601J837087D01*
G01*
X149696501Y-15955667D01*
G75*
G02*
X150385987Y-14970979I837087J147601D01*
G01*
X150385987Y-14970979D01*
G75*
G02*
X151370675Y-15660465I147601J-837087D01*
G01*
G37*
G36*
X153724486Y-14382312D02*
G01*
X154019688Y-16056486D01*
X152345514Y-16351688D01*
X152050312Y-14677514D01*
X153724486Y-14382312D01*
G37*
D22*
X255362500Y-77800000D03*
X255362500Y-74600000D03*
X250462500Y-77800000D03*
X250462500Y-74600000D03*
X265362500Y-77800000D03*
X265362500Y-74600000D03*
X260462500Y-77800000D03*
X260462500Y-74600000D03*
X275362500Y-77800000D03*
X275362500Y-74600000D03*
X270462500Y-77800000D03*
X270462500Y-74600000D03*
X25210000Y-74600000D03*
X25210000Y-77800000D03*
X30110000Y-74600000D03*
X30110000Y-77800000D03*
X15210000Y-74600000D03*
X15210000Y-77800000D03*
X20110000Y-74600000D03*
X20110000Y-77800000D03*
X5210000Y-74600000D03*
X5210000Y-77800000D03*
X10110000Y-74600000D03*
X10110000Y-77800000D03*
D17*
X273431950Y-50165000D03*
X297244450Y-50165000D03*
D18*
X273431950Y-65405000D03*
X297244450Y-65405000D03*
G36*
X25117111Y-56831137D02*
G01*
X25117386Y-56832958D01*
X25074287Y-56959561D01*
X25053267Y-57146955D01*
X25072977Y-57334483D01*
X25116152Y-57464273D01*
X25115750Y-57466232D01*
X25113852Y-57466863D01*
X25112427Y-57465717D01*
X25106168Y-57451658D01*
X25087124Y-57428142D01*
X25059129Y-57417396D01*
X25029626Y-57422068D01*
X25002630Y-57449064D01*
X25000698Y-57449582D01*
X24999284Y-57448168D01*
X24999406Y-57446798D01*
X25005328Y-57434213D01*
X25047102Y-57250344D01*
X25047781Y-57055713D01*
X25007292Y-56871557D01*
X24998760Y-56853092D01*
X24998942Y-56851100D01*
X25000757Y-56850261D01*
X25002130Y-56850994D01*
X25019026Y-56871858D01*
X25047021Y-56882604D01*
X25076524Y-56877932D01*
X25106211Y-56848245D01*
X25113666Y-56831500D01*
X25115284Y-56830324D01*
X25117111Y-56831137D01*
G37*
M02*
