G04 #@! TF.GenerationSoftware,KiCad,Pcbnew,(5.99.0-2612-g32a7d0025-dirty)*
G04 #@! TF.CreationDate,2020-08-15T16:40:13+02:00*
G04 #@! TF.ProjectId,BMEK_Solder,424d454b-5f53-46f6-9c64-65722e6b6963,1*
G04 #@! TF.SameCoordinates,Original*
G04 #@! TF.FileFunction,Soldermask,Bot*
G04 #@! TF.FilePolarity,Negative*
%FSLAX46Y46*%
G04 Gerber Fmt 4.6, Leading zero omitted, Abs format (unit mm)*
G04 Created by KiCad (PCBNEW (5.99.0-2612-g32a7d0025-dirty)) date 2020-08-15 16:40:13*
%MOMM*%
%LPD*%
G01*
G04 APERTURE LIST*
%ADD10C,2.250000*%
%ADD11C,3.987800*%
%ADD12C,1.750000*%
%ADD13C,3.348000*%
%ADD14C,4.287800*%
%ADD15C,3.800000*%
%ADD16C,6.500000*%
%ADD17C,5.350000*%
%ADD18C,9.000000*%
%ADD19R,1.200000X0.900000*%
%ADD20R,0.900000X1.200000*%
%ADD21R,0.750000X1.000000*%
%ADD22R,1.360000X0.600000*%
%ADD23O,1.000000X1.600000*%
%ADD24O,1.000000X2.100000*%
%ADD25C,0.650000*%
%ADD26R,0.300000X2.050000*%
%ADD27R,0.600000X2.050000*%
G04 APERTURE END LIST*
D10*
X171556094Y-51883742D03*
D11*
X168172550Y-56445499D03*
D10*
X164861499Y-53282488D03*
D12*
X163169727Y-55563366D03*
X173175373Y-57327632D03*
D10*
X31849552Y-80010000D03*
D11*
X29309552Y-85090000D03*
D10*
X25499552Y-82550000D03*
D12*
X24229552Y-85090000D03*
X34389552Y-85090000D03*
D10*
X232058729Y-67456109D03*
D11*
X230439450Y-72899999D03*
D10*
X226246266Y-71060187D03*
D12*
X225436627Y-73782132D03*
X235442273Y-72017866D03*
D10*
X164426594Y-31282743D03*
D11*
X161043050Y-35844500D03*
D10*
X157731999Y-32681489D03*
D12*
X156040227Y-34962367D03*
X166045873Y-36726633D03*
D10*
X206167729Y-52677510D03*
D11*
X204548450Y-58121400D03*
D10*
X200355266Y-56281588D03*
D12*
X199545627Y-59003533D03*
X209551273Y-57239267D03*
D10*
X224908329Y-88060809D03*
D11*
X223289050Y-93504699D03*
D10*
X219095866Y-91664887D03*
D12*
X218286227Y-94386832D03*
X228291873Y-92622566D03*
D10*
X123836044Y-101501043D03*
D11*
X120452500Y-106062800D03*
D10*
X117141449Y-102899789D03*
D12*
X115449677Y-105180667D03*
X125455323Y-106944933D03*
D10*
X143559594Y-85634943D03*
D11*
X140176050Y-90196700D03*
D10*
X136864999Y-87033689D03*
D12*
X135173227Y-89314567D03*
X145178873Y-91078833D03*
D10*
X291053050Y-20919800D03*
D11*
X288513050Y-25999800D03*
D10*
X284703050Y-23459800D03*
D12*
X283433050Y-25999800D03*
X293593050Y-25999800D03*
D10*
X348203051Y-22860000D03*
D11*
X345663051Y-27940000D03*
D10*
X341853051Y-25400000D03*
D12*
X340583051Y-27940000D03*
X350743051Y-27940000D03*
D10*
X329153250Y-80010000D03*
D11*
X326613250Y-85090000D03*
D10*
X322803250Y-82550000D03*
D12*
X321533250Y-85090000D03*
X331693250Y-85090000D03*
D10*
X263392379Y-100618909D03*
D11*
X261773100Y-106062799D03*
D10*
X257579916Y-104222987D03*
D12*
X256770277Y-106944932D03*
X266775923Y-105180666D03*
D13*
X81806150Y-92075000D03*
X57993650Y-92075000D03*
D14*
X81806150Y-76835000D03*
X57993650Y-76835000D03*
D10*
X124798994Y-82326943D03*
D11*
X121415450Y-86888700D03*
D10*
X118104399Y-83725689D03*
D12*
X116412627Y-86006567D03*
X126418273Y-87770833D03*
D10*
X232103429Y-28760410D03*
D11*
X230484150Y-34204300D03*
D10*
X226290966Y-32364488D03*
D12*
X225481327Y-35086433D03*
X235486973Y-33322167D03*
D10*
X310103051Y-22860000D03*
D11*
X307563051Y-27940000D03*
D10*
X303753051Y-25400000D03*
D12*
X302483051Y-27940000D03*
X312643051Y-27940000D03*
D13*
X324231950Y-78105000D03*
X348044450Y-78105000D03*
D14*
X324231950Y-93345000D03*
X348044450Y-93345000D03*
D10*
X283909450Y-80009999D03*
D11*
X281369450Y-85089999D03*
D10*
X277559450Y-82549999D03*
D12*
X276289450Y-85089999D03*
X286449450Y-85089999D03*
D10*
X250864030Y-25452409D03*
D11*
X249244751Y-30896299D03*
D10*
X245051567Y-29056487D03*
D12*
X244241928Y-31778432D03*
X254247574Y-30014166D03*
D10*
X213298129Y-70764110D03*
D11*
X211678850Y-76208000D03*
D10*
X207485666Y-74368188D03*
D12*
X206676027Y-77090133D03*
X216681673Y-75325867D03*
D10*
X310103150Y-60960000D03*
D11*
X307563150Y-66040000D03*
D10*
X303753150Y-63500000D03*
D12*
X302483150Y-66040000D03*
X312643150Y-66040000D03*
D10*
X206147729Y-91368810D03*
D11*
X204528450Y-96812700D03*
D10*
X200335266Y-94972888D03*
D12*
X199525627Y-97694833D03*
X209531273Y-95930567D03*
D10*
X283909350Y-40849500D03*
D11*
X281369350Y-45929500D03*
D10*
X277559350Y-43389500D03*
D12*
X276289350Y-45929500D03*
X286449350Y-45929500D03*
D10*
X341059401Y-60960000D03*
D11*
X338519401Y-66040000D03*
D10*
X334709401Y-63500000D03*
D12*
X333439401Y-66040000D03*
X343599401Y-66040000D03*
D10*
X302959450Y-80010000D03*
D11*
X300419450Y-85090000D03*
D10*
X296609450Y-82550000D03*
D12*
X295339450Y-85090000D03*
X305499450Y-85090000D03*
D10*
X287217450Y-99060000D03*
D11*
X284677450Y-104140000D03*
D10*
X280867450Y-101600000D03*
D12*
X279597450Y-104140000D03*
X289757450Y-104140000D03*
D10*
X224928330Y-49369510D03*
D11*
X223309051Y-54813400D03*
D10*
X219115867Y-52973588D03*
D12*
X218306228Y-55695533D03*
X228311874Y-53931267D03*
D10*
X93871250Y-41910000D03*
D11*
X91331250Y-46990000D03*
D10*
X87521250Y-44450000D03*
D12*
X86251250Y-46990000D03*
X96411250Y-46990000D03*
D10*
X262449530Y-42753509D03*
D11*
X260830251Y-48197399D03*
D10*
X256637067Y-46357587D03*
D12*
X255827428Y-49079532D03*
X265833074Y-47315266D03*
D10*
X269624629Y-22144411D03*
D11*
X268005350Y-27588301D03*
D10*
X263812166Y-25748489D03*
D12*
X263002527Y-28470434D03*
X273008173Y-26706168D03*
D10*
X72439900Y-80010000D03*
D11*
X69899900Y-85090000D03*
D10*
X66089900Y-82550000D03*
D12*
X64819900Y-85090000D03*
X74979900Y-85090000D03*
D10*
X34230852Y-60960000D03*
D11*
X31690852Y-66040000D03*
D10*
X27880852Y-63500000D03*
D12*
X26610852Y-66040000D03*
X36770852Y-66040000D03*
D10*
X36612152Y-41910000D03*
D11*
X34072152Y-46990000D03*
D10*
X30262152Y-44450000D03*
D12*
X28992152Y-46990000D03*
X39152152Y-46990000D03*
D10*
X243668929Y-84752809D03*
D11*
X242049650Y-90196699D03*
D10*
X237856466Y-88356887D03*
D12*
X237046827Y-91078832D03*
X247052473Y-89314566D03*
D10*
X322009350Y-41910000D03*
D11*
X319469350Y-46990000D03*
D10*
X315659350Y-44450000D03*
D12*
X314389350Y-46990000D03*
X324549350Y-46990000D03*
D10*
X338678200Y-80010000D03*
D11*
X336138200Y-85090000D03*
D10*
X332328200Y-82550000D03*
D12*
X331058200Y-85090000D03*
X341218200Y-85090000D03*
D10*
X96252450Y-60960000D03*
D11*
X93712450Y-66040000D03*
D10*
X89902450Y-63500000D03*
D12*
X88632450Y-66040000D03*
X98792450Y-66040000D03*
D13*
X168486186Y-121625181D03*
X145035451Y-117490184D03*
D14*
X171132584Y-106616711D03*
X147681849Y-102481713D03*
D10*
X103396150Y-80010000D03*
D11*
X100856150Y-85090000D03*
D10*
X97046150Y-82550000D03*
D12*
X95776150Y-85090000D03*
X105936150Y-85090000D03*
D10*
X100088150Y-99060000D03*
D11*
X97548150Y-104140000D03*
D10*
X93738150Y-101600000D03*
D12*
X92468150Y-104140000D03*
X102628150Y-104140000D03*
D10*
X302959350Y-41910000D03*
D11*
X300419350Y-46990000D03*
D10*
X296609350Y-44450000D03*
D12*
X295339350Y-46990000D03*
X305499350Y-46990000D03*
D10*
X250819329Y-64148110D03*
D11*
X249200050Y-69592000D03*
D10*
X245006866Y-67752188D03*
D12*
X244197227Y-70474133D03*
X254202873Y-68709867D03*
D10*
X329153051Y-22860000D03*
D11*
X326613051Y-27940000D03*
D10*
X322803051Y-25400000D03*
D12*
X321533051Y-27940000D03*
X331693051Y-27940000D03*
D10*
X181080794Y-92250943D03*
D11*
X177697250Y-96812700D03*
D10*
X174386199Y-93649689D03*
D12*
X172694427Y-95930567D03*
X182700073Y-97694833D03*
D10*
X338678051Y-22860000D03*
D11*
X336138051Y-27940000D03*
D10*
X332328051Y-25400000D03*
D12*
X331058051Y-27940000D03*
X341218051Y-27940000D03*
D10*
X67677551Y-22860000D03*
D11*
X65137551Y-27940000D03*
D10*
X61327551Y-25400000D03*
D12*
X60057551Y-27940000D03*
X70217551Y-27940000D03*
D10*
X161357295Y-108117043D03*
D11*
X157973751Y-112678800D03*
D10*
X154662700Y-109515789D03*
D12*
X152970928Y-111796667D03*
X162976574Y-113560933D03*
D10*
X355346950Y-80010000D03*
D11*
X352806950Y-85090000D03*
D10*
X348996950Y-82550000D03*
D12*
X347726950Y-85090000D03*
X357886950Y-85090000D03*
D10*
X134034894Y-45267743D03*
D11*
X130651350Y-49829500D03*
D10*
X127340299Y-46666489D03*
D12*
X125648527Y-48947367D03*
X135654173Y-50711633D03*
D10*
X136391094Y-65027043D03*
D11*
X133007550Y-69588800D03*
D10*
X129696499Y-66425789D03*
D12*
X128004727Y-68706667D03*
X138010373Y-70470933D03*
D13*
X324231801Y-20955000D03*
X348044301Y-20955000D03*
D14*
X324231801Y-36195000D03*
X348044301Y-36195000D03*
D10*
X152795494Y-48575743D03*
D11*
X149411950Y-53137500D03*
D10*
X146100899Y-49974489D03*
D12*
X144409127Y-52255367D03*
X154414773Y-54019633D03*
D13*
X163796039Y-120798181D03*
X140345304Y-116663184D03*
D14*
X166442437Y-105789711D03*
X142991702Y-101654713D03*
D10*
X225871280Y-107234910D03*
D11*
X224252001Y-112678800D03*
D10*
X220058817Y-110838988D03*
D12*
X219249178Y-113560933D03*
X229254824Y-111796667D03*
D10*
X162320194Y-88942943D03*
D11*
X158936650Y-93504700D03*
D10*
X155625599Y-90341689D03*
D12*
X153933827Y-92622567D03*
X163939473Y-94386833D03*
D10*
X269579929Y-60840109D03*
D11*
X267960650Y-66283999D03*
D10*
X263767466Y-64444187D03*
D12*
X262957827Y-67166132D03*
X272963473Y-65401866D03*
D13*
X241880447Y-116663184D03*
X218429712Y-120798181D03*
D14*
X239234049Y-101654713D03*
X215783314Y-105789711D03*
D10*
X126905395Y-24666743D03*
D11*
X123521851Y-29228500D03*
D10*
X120210800Y-26065489D03*
D12*
X118519028Y-28346367D03*
X128524674Y-30110633D03*
D10*
X156667148Y-107290043D03*
D11*
X153283604Y-111851800D03*
D10*
X149972553Y-108688789D03*
D12*
X148280781Y-110969667D03*
X158286427Y-112733933D03*
D10*
X70058750Y-60960000D03*
D11*
X67518750Y-66040000D03*
D10*
X63708750Y-63500000D03*
D12*
X62438750Y-66040000D03*
X72598750Y-66040000D03*
D10*
X105777551Y-20919801D03*
D11*
X103237551Y-25999801D03*
D10*
X99427551Y-23459801D03*
D12*
X98157551Y-25999801D03*
X108317551Y-25999801D03*
D10*
X117630494Y-61719043D03*
D11*
X114246950Y-66280800D03*
D10*
X110935899Y-63117789D03*
D12*
X109244127Y-65398667D03*
X119249773Y-67162933D03*
D13*
X237190301Y-117490184D03*
X213739566Y-121625181D03*
D14*
X234543903Y-102481713D03*
X211093168Y-106616711D03*
D10*
X173912294Y-71643043D03*
D11*
X170528750Y-76204800D03*
D10*
X167217699Y-73041789D03*
D12*
X165525927Y-75322667D03*
X175531573Y-77086933D03*
D10*
X230561426Y-106407910D03*
D11*
X228942147Y-111851800D03*
D10*
X224748963Y-110011988D03*
D12*
X223939324Y-112733933D03*
X233944970Y-110969667D03*
D10*
X70058750Y-41910000D03*
D11*
X67518750Y-46990000D03*
D10*
X63708750Y-44450000D03*
D12*
X62438750Y-46990000D03*
X72598750Y-46990000D03*
D10*
X38993451Y-22860000D03*
D11*
X36453451Y-27940000D03*
D10*
X32643451Y-25400000D03*
D12*
X31373451Y-27940000D03*
X41533451Y-27940000D03*
D10*
X62915000Y-80010000D03*
D11*
X60375000Y-85090000D03*
D10*
X56565000Y-82550000D03*
D12*
X55295000Y-85090000D03*
X65455000Y-85090000D03*
D10*
X213342830Y-32068410D03*
D11*
X211723551Y-37512300D03*
D10*
X207530367Y-35672488D03*
D12*
X206720728Y-38394433D03*
X216726374Y-36630167D03*
D10*
X145665995Y-27974743D03*
D11*
X142282451Y-32536500D03*
D10*
X138971400Y-29373489D03*
D12*
X137279628Y-31654367D03*
X147285274Y-33418633D03*
D10*
X115274319Y-41959743D03*
D11*
X111890775Y-46521500D03*
D10*
X108579724Y-43358489D03*
D12*
X106887952Y-45639367D03*
X116893598Y-47403633D03*
D10*
X155151694Y-68335043D03*
D11*
X151768150Y-72896800D03*
D10*
X148457099Y-69733789D03*
D12*
X146765327Y-72014667D03*
X156770973Y-73778933D03*
D10*
X183187194Y-34590743D03*
D11*
X179803650Y-39152500D03*
D10*
X176492599Y-35989489D03*
D12*
X174800827Y-38270367D03*
X184806473Y-40034633D03*
D15*
X191060000Y-105090000D03*
X48020000Y-104140000D03*
X334200000Y-104140000D03*
X50800000Y-27940000D03*
D16*
X179760000Y-117050000D03*
D17*
X46080000Y-66040000D03*
X191060000Y-72960000D03*
D16*
X202460000Y-117050000D03*
D18*
X191060000Y-83090000D03*
D10*
X291053150Y-60959999D03*
D11*
X288513150Y-66039999D03*
D10*
X284703150Y-63499999D03*
D12*
X283433150Y-66039999D03*
X293593150Y-66039999D03*
D13*
X350425651Y-73025000D03*
X326613151Y-73025000D03*
D14*
X350425651Y-57785000D03*
X326613151Y-57785000D03*
D10*
X86727551Y-22860000D03*
D11*
X84187551Y-27940000D03*
D10*
X80377551Y-25400000D03*
D12*
X79107551Y-27940000D03*
X89267551Y-27940000D03*
D10*
X262429529Y-81444809D03*
D11*
X260810250Y-86888699D03*
D10*
X256617066Y-85048887D03*
D12*
X255807427Y-87770832D03*
X265813073Y-86006566D03*
D10*
X243688930Y-46061509D03*
D11*
X242069651Y-51505399D03*
D10*
X237876467Y-49665587D03*
D12*
X237066828Y-52387532D03*
X247072474Y-50623266D03*
D10*
X345821850Y-41910000D03*
D11*
X343281850Y-46990000D03*
D10*
X339471850Y-44450000D03*
D12*
X338201850Y-46990000D03*
X348361850Y-46990000D03*
D10*
X84346250Y-80010000D03*
D11*
X81806250Y-85090000D03*
D10*
X77996250Y-82550000D03*
D12*
X76726250Y-85090000D03*
X86886250Y-85090000D03*
D19*
X291084000Y-39750000D03*
X291084000Y-36450000D03*
X269748000Y-79374000D03*
X269748000Y-76074000D03*
G36*
G01*
X177561816Y-56200291D02*
X177924209Y-56562684D01*
G75*
G02*
X177924209Y-56872044I-154680J-154680D01*
G01*
X177614850Y-57181403D01*
G75*
G02*
X177305490Y-57181403I-154680J154680D01*
G01*
X176943097Y-56819010D01*
G75*
G02*
X176943097Y-56509650I154680J154680D01*
G01*
X177252456Y-56200291D01*
G75*
G02*
X177561816Y-56200291I154680J-154680D01*
G01*
G37*
G36*
G01*
X178675510Y-55086597D02*
X179037903Y-55448990D01*
G75*
G02*
X179037903Y-55758350I-154680J-154680D01*
G01*
X178728544Y-56067709D01*
G75*
G02*
X178419184Y-56067709I-154680J154680D01*
G01*
X178056791Y-55705316D01*
G75*
G02*
X178056791Y-55395956I154680J154680D01*
G01*
X178366150Y-55086597D01*
G75*
G02*
X178675510Y-55086597I154680J-154680D01*
G01*
G37*
G36*
G01*
X190400650Y-38816800D02*
X189888150Y-38816800D01*
G75*
G02*
X189669400Y-38598050I0J218750D01*
G01*
X189669400Y-38160550D01*
G75*
G02*
X189888150Y-37941800I218750J0D01*
G01*
X190400650Y-37941800D01*
G75*
G02*
X190619400Y-38160550I0J-218750D01*
G01*
X190619400Y-38598050D01*
G75*
G02*
X190400650Y-38816800I-218750J0D01*
G01*
G37*
G36*
G01*
X190400650Y-40391800D02*
X189888150Y-40391800D01*
G75*
G02*
X189669400Y-40173050I0J218750D01*
G01*
X189669400Y-39735550D01*
G75*
G02*
X189888150Y-39516800I218750J0D01*
G01*
X190400650Y-39516800D01*
G75*
G02*
X190619400Y-39735550I0J-218750D01*
G01*
X190619400Y-40173050D01*
G75*
G02*
X190400650Y-40391800I-218750J0D01*
G01*
G37*
G36*
G01*
X193246316Y-46357791D02*
X193608709Y-46720184D01*
G75*
G02*
X193608709Y-47029544I-154680J-154680D01*
G01*
X193299350Y-47338903D01*
G75*
G02*
X192989990Y-47338903I-154680J154680D01*
G01*
X192627597Y-46976510D01*
G75*
G02*
X192627597Y-46667150I154680J154680D01*
G01*
X192936956Y-46357791D01*
G75*
G02*
X193246316Y-46357791I154680J-154680D01*
G01*
G37*
G36*
G01*
X194360010Y-45244097D02*
X194722403Y-45606490D01*
G75*
G02*
X194722403Y-45915850I-154680J-154680D01*
G01*
X194413044Y-46225209D01*
G75*
G02*
X194103684Y-46225209I-154680J154680D01*
G01*
X193741291Y-45862816D01*
G75*
G02*
X193741291Y-45553456I154680J154680D01*
G01*
X194050650Y-45244097D01*
G75*
G02*
X194360010Y-45244097I154680J-154680D01*
G01*
G37*
G36*
X210004408Y-47922264D02*
G01*
X210852936Y-48770792D01*
X210216540Y-49407188D01*
X209368012Y-48558660D01*
X210004408Y-47922264D01*
G37*
G36*
X212337860Y-45588812D02*
G01*
X213186388Y-46437340D01*
X212549992Y-47073736D01*
X211701464Y-46225208D01*
X212337860Y-45588812D01*
G37*
X113665000Y-21970000D03*
X113665000Y-18670000D03*
G36*
G01*
X177797209Y-48212316D02*
X177434816Y-48574709D01*
G75*
G02*
X177125456Y-48574709I-154680J154680D01*
G01*
X176816097Y-48265350D01*
G75*
G02*
X176816097Y-47955990I154680J154680D01*
G01*
X177178490Y-47593597D01*
G75*
G02*
X177487850Y-47593597I154680J-154680D01*
G01*
X177797209Y-47902956D01*
G75*
G02*
X177797209Y-48212316I-154680J-154680D01*
G01*
G37*
G36*
G01*
X178910903Y-49326010D02*
X178548510Y-49688403D01*
G75*
G02*
X178239150Y-49688403I-154680J154680D01*
G01*
X177929791Y-49379044D01*
G75*
G02*
X177929791Y-49069684I154680J154680D01*
G01*
X178292184Y-48707291D01*
G75*
G02*
X178601544Y-48707291I154680J-154680D01*
G01*
X178910903Y-49016650D01*
G75*
G02*
X178910903Y-49326010I-154680J-154680D01*
G01*
G37*
D20*
X96265000Y-19050000D03*
X92965000Y-19050000D03*
D19*
X299720000Y-21335000D03*
X299720000Y-18035000D03*
D20*
X199473594Y-33300611D03*
X196173594Y-33300611D03*
D19*
X77470000Y-40385000D03*
X77470000Y-37085000D03*
D20*
X89232200Y-94437200D03*
X92532200Y-94437200D03*
D19*
X153416000Y-102742000D03*
X153416000Y-99442000D03*
X132080000Y-81660000D03*
X132080000Y-78360000D03*
G36*
G01*
X197030050Y-61041800D02*
X196517550Y-61041800D01*
G75*
G02*
X196298800Y-60823050I0J218750D01*
G01*
X196298800Y-60385550D01*
G75*
G02*
X196517550Y-60166800I218750J0D01*
G01*
X197030050Y-60166800D01*
G75*
G02*
X197248800Y-60385550I0J-218750D01*
G01*
X197248800Y-60823050D01*
G75*
G02*
X197030050Y-61041800I-218750J0D01*
G01*
G37*
G36*
G01*
X197030050Y-62616800D02*
X196517550Y-62616800D01*
G75*
G02*
X196298800Y-62398050I0J218750D01*
G01*
X196298800Y-61960550D01*
G75*
G02*
X196517550Y-61741800I218750J0D01*
G01*
X197030050Y-61741800D01*
G75*
G02*
X197248800Y-61960550I0J-218750D01*
G01*
X197248800Y-62398050D01*
G75*
G02*
X197030050Y-62616800I-218750J0D01*
G01*
G37*
D20*
X157100000Y-45466000D03*
X160400000Y-45466000D03*
D21*
X200731600Y-80139800D03*
X200731600Y-74139800D03*
X196981600Y-74139800D03*
X196981600Y-80139800D03*
G36*
G01*
X205818450Y-27869400D02*
X205305950Y-27869400D01*
G75*
G02*
X205087200Y-27650650I0J218750D01*
G01*
X205087200Y-27213150D01*
G75*
G02*
X205305950Y-26994400I218750J0D01*
G01*
X205818450Y-26994400D01*
G75*
G02*
X206037200Y-27213150I0J-218750D01*
G01*
X206037200Y-27650650D01*
G75*
G02*
X205818450Y-27869400I-218750J0D01*
G01*
G37*
G36*
G01*
X205818450Y-29444400D02*
X205305950Y-29444400D01*
G75*
G02*
X205087200Y-29225650I0J218750D01*
G01*
X205087200Y-28788150D01*
G75*
G02*
X205305950Y-28569400I218750J0D01*
G01*
X205818450Y-28569400D01*
G75*
G02*
X206037200Y-28788150I0J-218750D01*
G01*
X206037200Y-29225650D01*
G75*
G02*
X205818450Y-29444400I-218750J0D01*
G01*
G37*
G36*
G01*
X54056250Y-103790000D02*
X53543750Y-103790000D01*
G75*
G02*
X53325000Y-103571250I0J218750D01*
G01*
X53325000Y-103133750D01*
G75*
G02*
X53543750Y-102915000I218750J0D01*
G01*
X54056250Y-102915000D01*
G75*
G02*
X54275000Y-103133750I0J-218750D01*
G01*
X54275000Y-103571250D01*
G75*
G02*
X54056250Y-103790000I-218750J0D01*
G01*
G37*
G36*
G01*
X54056250Y-105365000D02*
X53543750Y-105365000D01*
G75*
G02*
X53325000Y-105146250I0J218750D01*
G01*
X53325000Y-104708750D01*
G75*
G02*
X53543750Y-104490000I218750J0D01*
G01*
X54056250Y-104490000D01*
G75*
G02*
X54275000Y-104708750I0J-218750D01*
G01*
X54275000Y-105146250D01*
G75*
G02*
X54056250Y-105365000I-218750J0D01*
G01*
G37*
G36*
X186322702Y-46416940D02*
G01*
X185933794Y-46805848D01*
X184873134Y-45745188D01*
X185262042Y-45356280D01*
X186322702Y-46416940D01*
G37*
G36*
X185757017Y-46982626D02*
G01*
X185368109Y-47371534D01*
X184307449Y-46310874D01*
X184696357Y-45921966D01*
X185757017Y-46982626D01*
G37*
G36*
X185191332Y-47548311D02*
G01*
X184802424Y-47937219D01*
X183741764Y-46876559D01*
X184130672Y-46487651D01*
X185191332Y-47548311D01*
G37*
G36*
X184625646Y-48113996D02*
G01*
X184236738Y-48502904D01*
X183176078Y-47442244D01*
X183564986Y-47053336D01*
X184625646Y-48113996D01*
G37*
G36*
X184059961Y-48679682D02*
G01*
X183671053Y-49068590D01*
X182610393Y-48007930D01*
X182999301Y-47619022D01*
X184059961Y-48679682D01*
G37*
G36*
X183494275Y-49245367D02*
G01*
X183105367Y-49634275D01*
X182044707Y-48573615D01*
X182433615Y-48184707D01*
X183494275Y-49245367D01*
G37*
G36*
X182928590Y-49811053D02*
G01*
X182539682Y-50199961D01*
X181479022Y-49139301D01*
X181867930Y-48750393D01*
X182928590Y-49811053D01*
G37*
G36*
X182362904Y-50376738D02*
G01*
X181973996Y-50765646D01*
X180913336Y-49704986D01*
X181302244Y-49316078D01*
X182362904Y-50376738D01*
G37*
G36*
X181797219Y-50942424D02*
G01*
X181408311Y-51331332D01*
X180347651Y-50270672D01*
X180736559Y-49881764D01*
X181797219Y-50942424D01*
G37*
G36*
X181231534Y-51508109D02*
G01*
X180842626Y-51897017D01*
X179781966Y-50836357D01*
X180170874Y-50447449D01*
X181231534Y-51508109D01*
G37*
G36*
X180665848Y-52073794D02*
G01*
X180276940Y-52462702D01*
X179216280Y-51402042D01*
X179605188Y-51013134D01*
X180665848Y-52073794D01*
G37*
G36*
X180276940Y-53417298D02*
G01*
X180665848Y-53806206D01*
X179605188Y-54866866D01*
X179216280Y-54477958D01*
X180276940Y-53417298D01*
G37*
G36*
X180842626Y-53982983D02*
G01*
X181231534Y-54371891D01*
X180170874Y-55432551D01*
X179781966Y-55043643D01*
X180842626Y-53982983D01*
G37*
G36*
X181408311Y-54548668D02*
G01*
X181797219Y-54937576D01*
X180736559Y-55998236D01*
X180347651Y-55609328D01*
X181408311Y-54548668D01*
G37*
G36*
X181973996Y-55114354D02*
G01*
X182362904Y-55503262D01*
X181302244Y-56563922D01*
X180913336Y-56175014D01*
X181973996Y-55114354D01*
G37*
G36*
X182539682Y-55680039D02*
G01*
X182928590Y-56068947D01*
X181867930Y-57129607D01*
X181479022Y-56740699D01*
X182539682Y-55680039D01*
G37*
G36*
X183105367Y-56245725D02*
G01*
X183494275Y-56634633D01*
X182433615Y-57695293D01*
X182044707Y-57306385D01*
X183105367Y-56245725D01*
G37*
G36*
X183671053Y-56811410D02*
G01*
X184059961Y-57200318D01*
X182999301Y-58260978D01*
X182610393Y-57872070D01*
X183671053Y-56811410D01*
G37*
G36*
X184236738Y-57377096D02*
G01*
X184625646Y-57766004D01*
X183564986Y-58826664D01*
X183176078Y-58437756D01*
X184236738Y-57377096D01*
G37*
G36*
X184802424Y-57942781D02*
G01*
X185191332Y-58331689D01*
X184130672Y-59392349D01*
X183741764Y-59003441D01*
X184802424Y-57942781D01*
G37*
G36*
X185368109Y-58508466D02*
G01*
X185757017Y-58897374D01*
X184696357Y-59958034D01*
X184307449Y-59569126D01*
X185368109Y-58508466D01*
G37*
G36*
X185933794Y-59074152D02*
G01*
X186322702Y-59463060D01*
X185262042Y-60523720D01*
X184873134Y-60134812D01*
X185933794Y-59074152D01*
G37*
G36*
X188726866Y-60134812D02*
G01*
X188337958Y-60523720D01*
X187277298Y-59463060D01*
X187666206Y-59074152D01*
X188726866Y-60134812D01*
G37*
G36*
X189292551Y-59569126D02*
G01*
X188903643Y-59958034D01*
X187842983Y-58897374D01*
X188231891Y-58508466D01*
X189292551Y-59569126D01*
G37*
G36*
X189858236Y-59003441D02*
G01*
X189469328Y-59392349D01*
X188408668Y-58331689D01*
X188797576Y-57942781D01*
X189858236Y-59003441D01*
G37*
G36*
X190423922Y-58437756D02*
G01*
X190035014Y-58826664D01*
X188974354Y-57766004D01*
X189363262Y-57377096D01*
X190423922Y-58437756D01*
G37*
G36*
X190989607Y-57872070D02*
G01*
X190600699Y-58260978D01*
X189540039Y-57200318D01*
X189928947Y-56811410D01*
X190989607Y-57872070D01*
G37*
G36*
X191555293Y-57306385D02*
G01*
X191166385Y-57695293D01*
X190105725Y-56634633D01*
X190494633Y-56245725D01*
X191555293Y-57306385D01*
G37*
G36*
X192120978Y-56740699D02*
G01*
X191732070Y-57129607D01*
X190671410Y-56068947D01*
X191060318Y-55680039D01*
X192120978Y-56740699D01*
G37*
G36*
X192686664Y-56175014D02*
G01*
X192297756Y-56563922D01*
X191237096Y-55503262D01*
X191626004Y-55114354D01*
X192686664Y-56175014D01*
G37*
G36*
X193252349Y-55609328D02*
G01*
X192863441Y-55998236D01*
X191802781Y-54937576D01*
X192191689Y-54548668D01*
X193252349Y-55609328D01*
G37*
G36*
X193818034Y-55043643D02*
G01*
X193429126Y-55432551D01*
X192368466Y-54371891D01*
X192757374Y-53982983D01*
X193818034Y-55043643D01*
G37*
G36*
X194383720Y-54477958D02*
G01*
X193994812Y-54866866D01*
X192934152Y-53806206D01*
X193323060Y-53417298D01*
X194383720Y-54477958D01*
G37*
G36*
X193994812Y-51013134D02*
G01*
X194383720Y-51402042D01*
X193323060Y-52462702D01*
X192934152Y-52073794D01*
X193994812Y-51013134D01*
G37*
G36*
X193429126Y-50447449D02*
G01*
X193818034Y-50836357D01*
X192757374Y-51897017D01*
X192368466Y-51508109D01*
X193429126Y-50447449D01*
G37*
G36*
X192863441Y-49881764D02*
G01*
X193252349Y-50270672D01*
X192191689Y-51331332D01*
X191802781Y-50942424D01*
X192863441Y-49881764D01*
G37*
G36*
X192297756Y-49316078D02*
G01*
X192686664Y-49704986D01*
X191626004Y-50765646D01*
X191237096Y-50376738D01*
X192297756Y-49316078D01*
G37*
G36*
X191732070Y-48750393D02*
G01*
X192120978Y-49139301D01*
X191060318Y-50199961D01*
X190671410Y-49811053D01*
X191732070Y-48750393D01*
G37*
G36*
X191166385Y-48184707D02*
G01*
X191555293Y-48573615D01*
X190494633Y-49634275D01*
X190105725Y-49245367D01*
X191166385Y-48184707D01*
G37*
G36*
X190600699Y-47619022D02*
G01*
X190989607Y-48007930D01*
X189928947Y-49068590D01*
X189540039Y-48679682D01*
X190600699Y-47619022D01*
G37*
G36*
X190035014Y-47053336D02*
G01*
X190423922Y-47442244D01*
X189363262Y-48502904D01*
X188974354Y-48113996D01*
X190035014Y-47053336D01*
G37*
G36*
X189469328Y-46487651D02*
G01*
X189858236Y-46876559D01*
X188797576Y-47937219D01*
X188408668Y-47548311D01*
X189469328Y-46487651D01*
G37*
G36*
X188903643Y-45921966D02*
G01*
X189292551Y-46310874D01*
X188231891Y-47371534D01*
X187842983Y-46982626D01*
X188903643Y-45921966D01*
G37*
G36*
X188337958Y-45356280D02*
G01*
X188726866Y-45745188D01*
X187666206Y-46805848D01*
X187277298Y-46416940D01*
X188337958Y-45356280D01*
G37*
D19*
X231140000Y-46735000D03*
X231140000Y-43435000D03*
X357505000Y-75945000D03*
X357505000Y-72645000D03*
X107188000Y-97662000D03*
X107188000Y-94362000D03*
G36*
G01*
X193819300Y-64053000D02*
X192694300Y-64053000D01*
G75*
G02*
X192506800Y-63865500I0J187500D01*
G01*
X192506800Y-62540500D01*
G75*
G02*
X192694300Y-62353000I187500J0D01*
G01*
X193819300Y-62353000D01*
G75*
G02*
X194006800Y-62540500I0J-187500D01*
G01*
X194006800Y-63865500D01*
G75*
G02*
X193819300Y-64053000I-187500J0D01*
G01*
G37*
G36*
G01*
X193819300Y-61853000D02*
X192694300Y-61853000D01*
G75*
G02*
X192506800Y-61665500I0J187500D01*
G01*
X192506800Y-60340500D01*
G75*
G02*
X192694300Y-60153000I187500J0D01*
G01*
X193819300Y-60153000D01*
G75*
G02*
X194006800Y-60340500I0J-187500D01*
G01*
X194006800Y-61665500D01*
G75*
G02*
X193819300Y-61853000I-187500J0D01*
G01*
G37*
G36*
G01*
X195519300Y-61853000D02*
X194394300Y-61853000D01*
G75*
G02*
X194206800Y-61665500I0J187500D01*
G01*
X194206800Y-60340500D01*
G75*
G02*
X194394300Y-60153000I187500J0D01*
G01*
X195519300Y-60153000D01*
G75*
G02*
X195706800Y-60340500I0J-187500D01*
G01*
X195706800Y-61665500D01*
G75*
G02*
X195519300Y-61853000I-187500J0D01*
G01*
G37*
G36*
G01*
X195519300Y-64053000D02*
X194394300Y-64053000D01*
G75*
G02*
X194206800Y-63865500I0J187500D01*
G01*
X194206800Y-62540500D01*
G75*
G02*
X194394300Y-62353000I187500J0D01*
G01*
X195519300Y-62353000D01*
G75*
G02*
X195706800Y-62540500I0J-187500D01*
G01*
X195706800Y-63865500D01*
G75*
G02*
X195519300Y-64053000I-187500J0D01*
G01*
G37*
X344170000Y-57530000D03*
X344170000Y-54230000D03*
X39370000Y-79120000D03*
X39370000Y-75820000D03*
X238760000Y-26415000D03*
X238760000Y-23115000D03*
X354330000Y-25910000D03*
X354330000Y-29210000D03*
G36*
G01*
X308143750Y-104490000D02*
X308656250Y-104490000D01*
G75*
G02*
X308875000Y-104708750I0J-218750D01*
G01*
X308875000Y-105146250D01*
G75*
G02*
X308656250Y-105365000I-218750J0D01*
G01*
X308143750Y-105365000D01*
G75*
G02*
X307925000Y-105146250I0J218750D01*
G01*
X307925000Y-104708750D01*
G75*
G02*
X308143750Y-104490000I218750J0D01*
G01*
G37*
G36*
G01*
X308143750Y-102915000D02*
X308656250Y-102915000D01*
G75*
G02*
X308875000Y-103133750I0J-218750D01*
G01*
X308875000Y-103571250D01*
G75*
G02*
X308656250Y-103790000I-218750J0D01*
G01*
X308143750Y-103790000D01*
G75*
G02*
X307925000Y-103571250I0J218750D01*
G01*
X307925000Y-103133750D01*
G75*
G02*
X308143750Y-102915000I218750J0D01*
G01*
G37*
X103505000Y-59435000D03*
X103505000Y-56135000D03*
X46355000Y-21970000D03*
X46355000Y-18670000D03*
G36*
G01*
X183947325Y-29458217D02*
X183434825Y-29458217D01*
G75*
G02*
X183216075Y-29239467I0J218750D01*
G01*
X183216075Y-28801967D01*
G75*
G02*
X183434825Y-28583217I218750J0D01*
G01*
X183947325Y-28583217D01*
G75*
G02*
X184166075Y-28801967I0J-218750D01*
G01*
X184166075Y-29239467D01*
G75*
G02*
X183947325Y-29458217I-218750J0D01*
G01*
G37*
G36*
G01*
X183947325Y-31033217D02*
X183434825Y-31033217D01*
G75*
G02*
X183216075Y-30814467I0J218750D01*
G01*
X183216075Y-30376967D01*
G75*
G02*
X183434825Y-30158217I218750J0D01*
G01*
X183947325Y-30158217D01*
G75*
G02*
X184166075Y-30376967I0J-218750D01*
G01*
X184166075Y-30814467D01*
G75*
G02*
X183947325Y-31033217I-218750J0D01*
G01*
G37*
X173355000Y-88645000D03*
X173355000Y-85345000D03*
X231902000Y-84454000D03*
X231902000Y-81154000D03*
X298450000Y-59435000D03*
X298450000Y-56135000D03*
X238760000Y-64515000D03*
X238760000Y-61215000D03*
X140970000Y-44830000D03*
X140970000Y-41530000D03*
G36*
G01*
X192305650Y-38816700D02*
X191793150Y-38816700D01*
G75*
G02*
X191574400Y-38597950I0J218750D01*
G01*
X191574400Y-38160450D01*
G75*
G02*
X191793150Y-37941700I218750J0D01*
G01*
X192305650Y-37941700D01*
G75*
G02*
X192524400Y-38160450I0J-218750D01*
G01*
X192524400Y-38597950D01*
G75*
G02*
X192305650Y-38816700I-218750J0D01*
G01*
G37*
G36*
G01*
X192305650Y-40391700D02*
X191793150Y-40391700D01*
G75*
G02*
X191574400Y-40172950I0J218750D01*
G01*
X191574400Y-39735450D01*
G75*
G02*
X191793150Y-39516700I218750J0D01*
G01*
X192305650Y-39516700D01*
G75*
G02*
X192524400Y-39735450I0J-218750D01*
G01*
X192524400Y-40172950D01*
G75*
G02*
X192305650Y-40391700I-218750J0D01*
G01*
G37*
X41275000Y-59435000D03*
X41275000Y-56135000D03*
X169545000Y-88645000D03*
X169545000Y-85345000D03*
G36*
G01*
X328143750Y-104490000D02*
X328656250Y-104490000D01*
G75*
G02*
X328875000Y-104708750I0J-218750D01*
G01*
X328875000Y-105146250D01*
G75*
G02*
X328656250Y-105365000I-218750J0D01*
G01*
X328143750Y-105365000D01*
G75*
G02*
X327925000Y-105146250I0J218750D01*
G01*
X327925000Y-104708750D01*
G75*
G02*
X328143750Y-104490000I218750J0D01*
G01*
G37*
G36*
G01*
X328143750Y-102915000D02*
X328656250Y-102915000D01*
G75*
G02*
X328875000Y-103133750I0J-218750D01*
G01*
X328875000Y-103571250D01*
G75*
G02*
X328656250Y-103790000I-218750J0D01*
G01*
X328143750Y-103790000D01*
G75*
G02*
X327925000Y-103571250I0J218750D01*
G01*
X327925000Y-103133750D01*
G75*
G02*
X328143750Y-102915000I218750J0D01*
G01*
G37*
G36*
G01*
X198632720Y-44923722D02*
X198632720Y-44923722D01*
G75*
G02*
X197943234Y-45908410I-837087J-147601D01*
G01*
X197943234Y-45908410D01*
G75*
G02*
X196958546Y-45218924I-147601J837087D01*
G01*
X196958546Y-45218924D01*
G75*
G02*
X197648032Y-44234236I837087J147601D01*
G01*
X197648032Y-44234236D01*
G75*
G02*
X198632720Y-44923722I147601J-837087D01*
G01*
G37*
G36*
G01*
X198191654Y-42422310D02*
X198191654Y-42422310D01*
G75*
G02*
X197502168Y-43406998I-837087J-147601D01*
G01*
X197502168Y-43406998D01*
G75*
G02*
X196517480Y-42717512I-147601J837087D01*
G01*
X196517480Y-42717512D01*
G75*
G02*
X197206966Y-41732824I837087J147601D01*
G01*
X197206966Y-41732824D01*
G75*
G02*
X198191654Y-42422310I147601J-837087D01*
G01*
G37*
G36*
G01*
X197750587Y-39920899D02*
X197750587Y-39920899D01*
G75*
G02*
X197061101Y-40905587I-837087J-147601D01*
G01*
X197061101Y-40905587D01*
G75*
G02*
X196076413Y-40216101I-147601J837087D01*
G01*
X196076413Y-40216101D01*
G75*
G02*
X196765899Y-39231413I837087J147601D01*
G01*
X196765899Y-39231413D01*
G75*
G02*
X197750587Y-39920899I147601J-837087D01*
G01*
G37*
G36*
X197161920Y-36582400D02*
G01*
X197457122Y-38256574D01*
X195782948Y-38551776D01*
X195487746Y-36877602D01*
X197161920Y-36582400D01*
G37*
X151130000Y-84835000D03*
X151130000Y-81535000D03*
X250190000Y-80898000D03*
X250190000Y-77598000D03*
G36*
G01*
X182476716Y-43932091D02*
X182839109Y-44294484D01*
G75*
G02*
X182839109Y-44603844I-154680J-154680D01*
G01*
X182529750Y-44913203D01*
G75*
G02*
X182220390Y-44913203I-154680J154680D01*
G01*
X181857997Y-44550810D01*
G75*
G02*
X181857997Y-44241450I154680J154680D01*
G01*
X182167356Y-43932091D01*
G75*
G02*
X182476716Y-43932091I154680J-154680D01*
G01*
G37*
G36*
G01*
X183590410Y-42818397D02*
X183952803Y-43180790D01*
G75*
G02*
X183952803Y-43490150I-154680J-154680D01*
G01*
X183643444Y-43799509D01*
G75*
G02*
X183334084Y-43799509I-154680J154680D01*
G01*
X182971691Y-43437116D01*
G75*
G02*
X182971691Y-43127756I154680J154680D01*
G01*
X183281050Y-42818397D01*
G75*
G02*
X183590410Y-42818397I154680J-154680D01*
G01*
G37*
D22*
X190010800Y-35824200D03*
X190010800Y-34874200D03*
X190010800Y-33924200D03*
X192360800Y-33924200D03*
X192360800Y-34874200D03*
X192360800Y-35824200D03*
G36*
G01*
X196796084Y-53197509D02*
X196433691Y-52835116D01*
G75*
G02*
X196433691Y-52525756I154680J154680D01*
G01*
X196743050Y-52216397D01*
G75*
G02*
X197052410Y-52216397I154680J-154680D01*
G01*
X197414803Y-52578790D01*
G75*
G02*
X197414803Y-52888150I-154680J-154680D01*
G01*
X197105444Y-53197509D01*
G75*
G02*
X196796084Y-53197509I-154680J154680D01*
G01*
G37*
G36*
G01*
X195682390Y-54311203D02*
X195319997Y-53948810D01*
G75*
G02*
X195319997Y-53639450I154680J154680D01*
G01*
X195629356Y-53330091D01*
G75*
G02*
X195938716Y-53330091I154680J-154680D01*
G01*
X196301109Y-53692484D01*
G75*
G02*
X196301109Y-54001844I-154680J-154680D01*
G01*
X195991750Y-54311203D01*
G75*
G02*
X195682390Y-54311203I-154680J154680D01*
G01*
G37*
D19*
X270002000Y-39750000D03*
X270002000Y-36450000D03*
X317500000Y-59435000D03*
X317500000Y-56135000D03*
X100965000Y-40385000D03*
X100965000Y-37085000D03*
X214630000Y-88518000D03*
X214630000Y-85218000D03*
X164274500Y-48005000D03*
X164274500Y-44705000D03*
X124460000Y-61340000D03*
X124460000Y-58040000D03*
X270510000Y-98170000D03*
X270510000Y-94870000D03*
D20*
X335660000Y-18415000D03*
X332360000Y-18415000D03*
X218695000Y-27940000D03*
X221995000Y-27940000D03*
D19*
X353060000Y-43435000D03*
X353060000Y-46735000D03*
X276860000Y-59435000D03*
X276860000Y-56135000D03*
G36*
G01*
X199595450Y-29444200D02*
X199082950Y-29444200D01*
G75*
G02*
X198864200Y-29225450I0J218750D01*
G01*
X198864200Y-28787950D01*
G75*
G02*
X199082950Y-28569200I218750J0D01*
G01*
X199595450Y-28569200D01*
G75*
G02*
X199814200Y-28787950I0J-218750D01*
G01*
X199814200Y-29225450D01*
G75*
G02*
X199595450Y-29444200I-218750J0D01*
G01*
G37*
G36*
G01*
X199595450Y-31019200D02*
X199082950Y-31019200D01*
G75*
G02*
X198864200Y-30800450I0J218750D01*
G01*
X198864200Y-30362950D01*
G75*
G02*
X199082950Y-30144200I218750J0D01*
G01*
X199595450Y-30144200D01*
G75*
G02*
X199814200Y-30362950I0J-218750D01*
G01*
X199814200Y-30800450D01*
G75*
G02*
X199595450Y-31019200I-218750J0D01*
G01*
G37*
X133985000Y-24510000D03*
X133985000Y-21210000D03*
X166370000Y-67055000D03*
X166370000Y-63755000D03*
X257175000Y-23240000D03*
X257175000Y-19940000D03*
X330200000Y-40385000D03*
X330200000Y-37085000D03*
G36*
G01*
X297530000Y-105971050D02*
X297530000Y-105458550D01*
G75*
G02*
X297748750Y-105239800I218750J0D01*
G01*
X298186250Y-105239800D01*
G75*
G02*
X298405000Y-105458550I0J-218750D01*
G01*
X298405000Y-105971050D01*
G75*
G02*
X298186250Y-106189800I-218750J0D01*
G01*
X297748750Y-106189800D01*
G75*
G02*
X297530000Y-105971050I0J218750D01*
G01*
G37*
G36*
G01*
X295955000Y-105971050D02*
X295955000Y-105458550D01*
G75*
G02*
X296173750Y-105239800I218750J0D01*
G01*
X296611250Y-105239800D01*
G75*
G02*
X296830000Y-105458550I0J-218750D01*
G01*
X296830000Y-105971050D01*
G75*
G02*
X296611250Y-106189800I-218750J0D01*
G01*
X296173750Y-106189800D01*
G75*
G02*
X295955000Y-105971050I0J218750D01*
G01*
G37*
G36*
G01*
X74056250Y-103790000D02*
X73543750Y-103790000D01*
G75*
G02*
X73325000Y-103571250I0J218750D01*
G01*
X73325000Y-103133750D01*
G75*
G02*
X73543750Y-102915000I218750J0D01*
G01*
X74056250Y-102915000D01*
G75*
G02*
X74275000Y-103133750I0J-218750D01*
G01*
X74275000Y-103571250D01*
G75*
G02*
X74056250Y-103790000I-218750J0D01*
G01*
G37*
G36*
G01*
X74056250Y-105365000D02*
X73543750Y-105365000D01*
G75*
G02*
X73325000Y-105146250I0J218750D01*
G01*
X73325000Y-104708750D01*
G75*
G02*
X73543750Y-104490000I218750J0D01*
G01*
X74056250Y-104490000D01*
G75*
G02*
X74275000Y-104708750I0J-218750D01*
G01*
X74275000Y-105146250D01*
G75*
G02*
X74056250Y-105365000I-218750J0D01*
G01*
G37*
X175260000Y-30860000D03*
X175260000Y-27560000D03*
D20*
X218695000Y-65792386D03*
X221995000Y-65792386D03*
D19*
X143510000Y-64515000D03*
X143510000Y-61215000D03*
X310388000Y-79374000D03*
X310388000Y-76074000D03*
G36*
G01*
X185054816Y-64137791D02*
X185417209Y-64500184D01*
G75*
G02*
X185417209Y-64809544I-154680J-154680D01*
G01*
X185107850Y-65118903D01*
G75*
G02*
X184798490Y-65118903I-154680J154680D01*
G01*
X184436097Y-64756510D01*
G75*
G02*
X184436097Y-64447150I154680J154680D01*
G01*
X184745456Y-64137791D01*
G75*
G02*
X185054816Y-64137791I154680J-154680D01*
G01*
G37*
G36*
G01*
X186168510Y-63024097D02*
X186530903Y-63386490D01*
G75*
G02*
X186530903Y-63695850I-154680J-154680D01*
G01*
X186221544Y-64005209D01*
G75*
G02*
X185912184Y-64005209I-154680J154680D01*
G01*
X185549791Y-63642816D01*
G75*
G02*
X185549791Y-63333456I154680J154680D01*
G01*
X185859150Y-63024097D01*
G75*
G02*
X186168510Y-63024097I154680J-154680D01*
G01*
G37*
G36*
G01*
X194696600Y-64843950D02*
X194696600Y-65356450D01*
G75*
G02*
X194477850Y-65575200I-218750J0D01*
G01*
X194040350Y-65575200D01*
G75*
G02*
X193821600Y-65356450I0J218750D01*
G01*
X193821600Y-64843950D01*
G75*
G02*
X194040350Y-64625200I218750J0D01*
G01*
X194477850Y-64625200D01*
G75*
G02*
X194696600Y-64843950I0J-218750D01*
G01*
G37*
G36*
G01*
X196271600Y-64843950D02*
X196271600Y-65356450D01*
G75*
G02*
X196052850Y-65575200I-218750J0D01*
G01*
X195615350Y-65575200D01*
G75*
G02*
X195396600Y-65356450I0J218750D01*
G01*
X195396600Y-64843950D01*
G75*
G02*
X195615350Y-64625200I218750J0D01*
G01*
X196052850Y-64625200D01*
G75*
G02*
X196271600Y-64843950I0J-218750D01*
G01*
G37*
X277495000Y-21335000D03*
X277495000Y-18035000D03*
X309880000Y-39750000D03*
X309880000Y-36450000D03*
X335737200Y-75665600D03*
X335737200Y-72365600D03*
X162560000Y-67055000D03*
X162560000Y-63755000D03*
X294894000Y-98170000D03*
X294894000Y-94870000D03*
G36*
G01*
X64056250Y-103790000D02*
X63543750Y-103790000D01*
G75*
G02*
X63325000Y-103571250I0J218750D01*
G01*
X63325000Y-103133750D01*
G75*
G02*
X63543750Y-102915000I218750J0D01*
G01*
X64056250Y-102915000D01*
G75*
G02*
X64275000Y-103133750I0J-218750D01*
G01*
X64275000Y-103571250D01*
G75*
G02*
X64056250Y-103790000I-218750J0D01*
G01*
G37*
G36*
G01*
X64056250Y-105365000D02*
X63543750Y-105365000D01*
G75*
G02*
X63325000Y-105146250I0J218750D01*
G01*
X63325000Y-104708750D01*
G75*
G02*
X63543750Y-104490000I218750J0D01*
G01*
X64056250Y-104490000D01*
G75*
G02*
X64275000Y-104708750I0J-218750D01*
G01*
X64275000Y-105146250D01*
G75*
G02*
X64056250Y-105365000I-218750J0D01*
G01*
G37*
G36*
G01*
X190248250Y-43033200D02*
X189735750Y-43033200D01*
G75*
G02*
X189517000Y-42814450I0J218750D01*
G01*
X189517000Y-42376950D01*
G75*
G02*
X189735750Y-42158200I218750J0D01*
G01*
X190248250Y-42158200D01*
G75*
G02*
X190467000Y-42376950I0J-218750D01*
G01*
X190467000Y-42814450D01*
G75*
G02*
X190248250Y-43033200I-218750J0D01*
G01*
G37*
G36*
G01*
X190248250Y-44608200D02*
X189735750Y-44608200D01*
G75*
G02*
X189517000Y-44389450I0J218750D01*
G01*
X189517000Y-43951950D01*
G75*
G02*
X189735750Y-43733200I218750J0D01*
G01*
X190248250Y-43733200D01*
G75*
G02*
X190467000Y-43951950I0J-218750D01*
G01*
X190467000Y-44389450D01*
G75*
G02*
X190248250Y-44608200I-218750J0D01*
G01*
G37*
X131572000Y-101218000D03*
X131572000Y-97918000D03*
X291338000Y-79374000D03*
X291338000Y-76074000D03*
X122555000Y-41655000D03*
X122555000Y-38355000D03*
X111125000Y-79120000D03*
X111125000Y-75820000D03*
X77470000Y-59435000D03*
X77470000Y-56135000D03*
G36*
G01*
X318143750Y-104490000D02*
X318656250Y-104490000D01*
G75*
G02*
X318875000Y-104708750I0J-218750D01*
G01*
X318875000Y-105146250D01*
G75*
G02*
X318656250Y-105365000I-218750J0D01*
G01*
X318143750Y-105365000D01*
G75*
G02*
X317925000Y-105146250I0J218750D01*
G01*
X317925000Y-104708750D01*
G75*
G02*
X318143750Y-104490000I218750J0D01*
G01*
G37*
G36*
G01*
X318143750Y-102915000D02*
X318656250Y-102915000D01*
G75*
G02*
X318875000Y-103133750I0J-218750D01*
G01*
X318875000Y-103571250D01*
G75*
G02*
X318656250Y-103790000I-218750J0D01*
G01*
X318143750Y-103790000D01*
G75*
G02*
X317925000Y-103571250I0J218750D01*
G01*
X317925000Y-103133750D01*
G75*
G02*
X318143750Y-102915000I218750J0D01*
G01*
G37*
D23*
X195388500Y-23790000D03*
X186748500Y-23790000D03*
D24*
X195388500Y-27970000D03*
X186748500Y-27970000D03*
D25*
X188178500Y-27440000D03*
X193958500Y-27440000D03*
D26*
X190818500Y-29215000D03*
X191318500Y-29215000D03*
X191818500Y-29215000D03*
X190318500Y-29215000D03*
X192318500Y-29215000D03*
X189818500Y-29215000D03*
X192818500Y-29215000D03*
X189318500Y-29215000D03*
D27*
X188618500Y-29215000D03*
X193518500Y-29215000D03*
X187843500Y-29215000D03*
X194293500Y-29215000D03*
G36*
G01*
X186153484Y-43062909D02*
X185791091Y-42700516D01*
G75*
G02*
X185791091Y-42391156I154680J154680D01*
G01*
X186100450Y-42081797D01*
G75*
G02*
X186409810Y-42081797I154680J-154680D01*
G01*
X186772203Y-42444190D01*
G75*
G02*
X186772203Y-42753550I-154680J-154680D01*
G01*
X186462844Y-43062909D01*
G75*
G02*
X186153484Y-43062909I-154680J154680D01*
G01*
G37*
G36*
G01*
X185039790Y-44176603D02*
X184677397Y-43814210D01*
G75*
G02*
X184677397Y-43504850I154680J154680D01*
G01*
X184986756Y-43195491D01*
G75*
G02*
X185296116Y-43195491I154680J-154680D01*
G01*
X185658509Y-43557884D01*
G75*
G02*
X185658509Y-43867244I-154680J-154680D01*
G01*
X185349150Y-44176603D01*
G75*
G02*
X185039790Y-44176603I-154680J154680D01*
G01*
G37*
G36*
G01*
X195183184Y-47304709D02*
X194820791Y-46942316D01*
G75*
G02*
X194820791Y-46632956I154680J154680D01*
G01*
X195130150Y-46323597D01*
G75*
G02*
X195439510Y-46323597I154680J-154680D01*
G01*
X195801903Y-46685990D01*
G75*
G02*
X195801903Y-46995350I-154680J-154680D01*
G01*
X195492544Y-47304709D01*
G75*
G02*
X195183184Y-47304709I-154680J154680D01*
G01*
G37*
G36*
G01*
X194069490Y-48418403D02*
X193707097Y-48056010D01*
G75*
G02*
X193707097Y-47746650I154680J154680D01*
G01*
X194016456Y-47437291D01*
G75*
G02*
X194325816Y-47437291I154680J-154680D01*
G01*
X194688209Y-47799684D01*
G75*
G02*
X194688209Y-48109044I-154680J-154680D01*
G01*
X194378850Y-48418403D01*
G75*
G02*
X194069490Y-48418403I-154680J154680D01*
G01*
G37*
D19*
X257810000Y-61340000D03*
X257810000Y-58040000D03*
X74930000Y-21970000D03*
X74930000Y-18670000D03*
G36*
G01*
X203052808Y-48603289D02*
X203052808Y-48603289D01*
G75*
G02*
X202363322Y-49587977I-837087J-147601D01*
G01*
X202363322Y-49587977D01*
G75*
G02*
X201378634Y-48898491I-147601J837087D01*
G01*
X201378634Y-48898491D01*
G75*
G02*
X202068120Y-47913803I837087J147601D01*
G01*
X202068120Y-47913803D01*
G75*
G02*
X203052808Y-48603289I147601J-837087D01*
G01*
G37*
G36*
G01*
X205554220Y-48162222D02*
X205554220Y-48162222D01*
G75*
G02*
X204864734Y-49146910I-837087J-147601D01*
G01*
X204864734Y-49146910D01*
G75*
G02*
X203880046Y-48457424I-147601J837087D01*
G01*
X203880046Y-48457424D01*
G75*
G02*
X204569532Y-47472736I837087J147601D01*
G01*
X204569532Y-47472736D01*
G75*
G02*
X205554220Y-48162222I147601J-837087D01*
G01*
G37*
G36*
G01*
X202611742Y-46101877D02*
X202611742Y-46101877D01*
G75*
G02*
X201922256Y-47086565I-837087J-147601D01*
G01*
X201922256Y-47086565D01*
G75*
G02*
X200937568Y-46397079I-147601J837087D01*
G01*
X200937568Y-46397079D01*
G75*
G02*
X201627054Y-45412391I837087J147601D01*
G01*
X201627054Y-45412391D01*
G75*
G02*
X202611742Y-46101877I147601J-837087D01*
G01*
G37*
G36*
G01*
X205113153Y-45660811D02*
X205113153Y-45660811D01*
G75*
G02*
X204423667Y-46645499I-837087J-147601D01*
G01*
X204423667Y-46645499D01*
G75*
G02*
X203438979Y-45956013I-147601J837087D01*
G01*
X203438979Y-45956013D01*
G75*
G02*
X204128465Y-44971325I837087J147601D01*
G01*
X204128465Y-44971325D01*
G75*
G02*
X205113153Y-45660811I147601J-837087D01*
G01*
G37*
G36*
G01*
X202170675Y-43600465D02*
X202170675Y-43600465D01*
G75*
G02*
X201481189Y-44585153I-837087J-147601D01*
G01*
X201481189Y-44585153D01*
G75*
G02*
X200496501Y-43895667I-147601J837087D01*
G01*
X200496501Y-43895667D01*
G75*
G02*
X201185987Y-42910979I837087J147601D01*
G01*
X201185987Y-42910979D01*
G75*
G02*
X202170675Y-43600465I147601J-837087D01*
G01*
G37*
G36*
X204524486Y-42322312D02*
G01*
X204819688Y-43996486D01*
X203145514Y-44291688D01*
X202850312Y-42617514D01*
X204524486Y-42322312D01*
G37*
X316865000Y-21335000D03*
X316865000Y-18035000D03*
G36*
G01*
X183414563Y-62501444D02*
X183776956Y-62863837D01*
G75*
G02*
X183776956Y-63173197I-154680J-154680D01*
G01*
X183467597Y-63482556D01*
G75*
G02*
X183158237Y-63482556I-154680J154680D01*
G01*
X182795844Y-63120163D01*
G75*
G02*
X182795844Y-62810803I154680J154680D01*
G01*
X183105203Y-62501444D01*
G75*
G02*
X183414563Y-62501444I154680J-154680D01*
G01*
G37*
G36*
G01*
X184528257Y-61387750D02*
X184890650Y-61750143D01*
G75*
G02*
X184890650Y-62059503I-154680J-154680D01*
G01*
X184581291Y-62368862D01*
G75*
G02*
X184271931Y-62368862I-154680J154680D01*
G01*
X183909538Y-62006469D01*
G75*
G02*
X183909538Y-61697109I154680J154680D01*
G01*
X184218897Y-61387750D01*
G75*
G02*
X184528257Y-61387750I154680J-154680D01*
G01*
G37*
G36*
G01*
X194902421Y-34344020D02*
X193989921Y-34344020D01*
G75*
G02*
X193746171Y-34100270I0J243750D01*
G01*
X193746171Y-33612770D01*
G75*
G02*
X193989921Y-33369020I243750J0D01*
G01*
X194902421Y-33369020D01*
G75*
G02*
X195146171Y-33612770I0J-243750D01*
G01*
X195146171Y-34100270D01*
G75*
G02*
X194902421Y-34344020I-243750J0D01*
G01*
G37*
G36*
G01*
X194902421Y-32469020D02*
X193989921Y-32469020D01*
G75*
G02*
X193746171Y-32225270I0J243750D01*
G01*
X193746171Y-31737770D01*
G75*
G02*
X193989921Y-31494020I243750J0D01*
G01*
X194902421Y-31494020D01*
G75*
G02*
X195146171Y-31737770I0J-243750D01*
G01*
X195146171Y-32225270D01*
G75*
G02*
X194902421Y-32469020I-243750J0D01*
G01*
G37*
X152400000Y-27685000D03*
X152400000Y-24385000D03*
X221488000Y-104774000D03*
X221488000Y-101474000D03*
G36*
G01*
X203557850Y-27869400D02*
X203045350Y-27869400D01*
G75*
G02*
X202826600Y-27650650I0J218750D01*
G01*
X202826600Y-27213150D01*
G75*
G02*
X203045350Y-26994400I218750J0D01*
G01*
X203557850Y-26994400D01*
G75*
G02*
X203776600Y-27213150I0J-218750D01*
G01*
X203776600Y-27650650D01*
G75*
G02*
X203557850Y-27869400I-218750J0D01*
G01*
G37*
G36*
G01*
X203557850Y-29444400D02*
X203045350Y-29444400D01*
G75*
G02*
X202826600Y-29225650I0J218750D01*
G01*
X202826600Y-28788150D01*
G75*
G02*
X203045350Y-28569400I218750J0D01*
G01*
X203557850Y-28569400D01*
G75*
G02*
X203776600Y-28788150I0J-218750D01*
G01*
X203776600Y-29225650D01*
G75*
G02*
X203557850Y-29444400I-218750J0D01*
G01*
G37*
X67056000Y-76834000D03*
X67056000Y-73534000D03*
X43942000Y-40258000D03*
X43942000Y-36958000D03*
X250190000Y-43560000D03*
X250190000Y-40260000D03*
X171450000Y-30860000D03*
X171450000Y-27560000D03*
M02*
