M48
; DRILL file {KiCad (5.99.0-1918-g94cd0cf3a)} date 08/09/20 16:20:29
; FORMAT={-:-/ absolute / inch / decimal}
; #@! TF.CreationDate,2020-08-09T16:20:29+02:00
; #@! TF.GenerationSoftware,Kicad,Pcbnew,(5.99.0-1918-g94cd0cf3a)
FMAT,2
INCH
T1C0.0118
T2C0.0157
T3C0.0236
T4C0.0394
T5C0.0579
T6C0.0945
T7C0.0256
T8C0.0689
T9C0.1200
T10C0.1570
T11C0.2106
T12C0.2559
T13C0.3543
%
G90
G05
T1
X1.132Y-0.232
X1.69Y-0.15
X2.5025Y-0.1525
X4.5675Y-0.708
X4.9595Y-1.379
X5.413Y-0.662
X5.579Y-0.127
X5.746Y-0.115
T2
X0.118Y-2.894
X0.2745Y-0.264
X0.486Y-3.092
X0.512Y-2.894
X0.906Y-2.894
X1.282Y-3.113
X2.677Y-1.785
X2.868Y-1.954
X3.2495Y-0.2905
X3.98Y-0.27
X4.826Y-3.459
X4.9375Y-0.75
X4.9475Y-1.17
X5.07Y-1.58
X5.1Y-2.26
X5.16Y-1.354
X5.193Y-1.763
X5.199Y-0.919
X5.208Y0.029
X5.2125Y-1.4525
X5.261Y-0.573
X5.294Y-0.082
X5.344Y-3.415
X5.356Y-1.154
X5.4125Y-0.89
X5.424Y-0.618
X5.46Y-0.152
X5.476Y-2.562
X5.48Y-0.99
X5.505Y-2.643
X5.59Y-0.358
X5.59Y-0.635
X5.64Y-0.298
X5.703Y-0.941
X5.717Y-0.08
X5.788Y-1.418
X5.85Y-0.769
X5.878Y-0.275
X5.9025Y-1.7475
X6.05Y-1.45
X6.054Y-2.281
X6.148Y-0.043
X6.375Y-0.52
X6.437Y-0.764
X6.7Y-1.557
X7.14Y-0.9
X7.88Y-0.77
X8.16Y-1.48
X8.7Y-0.61
X8.99Y-1.4
X9.45Y-0.65
X9.74Y-1.4
X9.794Y-3.062
X10.142Y-3.1
X10.2Y-0.65
X10.534Y-2.898
X10.536Y-3.1
X10.724Y-1.792
X10.873Y-3.144
X10.928Y-3.1
X10.97Y-0.11
X11.12Y-0.65
T4
X5.9265Y-0.6224
X5.9439Y-0.7208
X5.9612Y-0.8193
X6.025Y-0.605
X6.0424Y-0.7035
X6.0597Y-0.802
X5.7351Y-0.379
X5.7525Y-0.4775
X5.7699Y-0.576
X5.7872Y-0.6745
T5
X5.888Y-1.1158
X6.1168Y-0.9739
X3.9044Y-3.1791
X4.168Y-3.124
X9.6775Y-0.65
X9.9275Y-0.55
X7.6477Y-0.044
X7.8765Y0.0979
X2.2748Y-0.607
X2.5384Y-0.552
X4.0891Y-3.2116
X4.3526Y-3.1566
X0.4145Y0.1
X0.6645Y0.2
X1.8207Y-2.15
X2.0707Y-2.05
X4.3906Y-2.4017
X9.0578Y-2.9
X4.127Y-2.4568
X9.3078Y-2.8
X0.7582Y-0.55
X8.9275Y-2.15
X9.1775Y-2.05
X0.5082Y-0.65
X0.602Y-2.15
X0.852Y-2.05
X10.7088Y-2.15
X10.9588Y-2.05
X1.1645Y0.1
X3.1062Y-1.5152
X1.4145Y0.2
X3.3697Y-1.4601
X4.9485Y-0.3169
X5.2121Y-0.2618
X2.3676Y-1.385
X2.6311Y-1.3299
X6.1705Y-0.3044
X6.3993Y-0.1625
X10.4275Y-0.65
X10.6775Y-0.55
X6.6258Y-2.5089
X8.3327Y-0.5832
X6.8547Y-2.367
X7.6459Y-1.5674
X0.227Y-2.15
X11.0838Y-2.15
X11.3338Y-2.05
X8.3845Y-1.4372
X8.6134Y-1.2953
X0.477Y-2.05
X2.6498Y-2.1963
X2.9133Y-2.1412
X11.0838Y0.1
X11.3338Y0.2
X5.8872Y-2.6391
X6.1161Y-2.4972
X7.8748Y-1.4255
X1.4457Y-0.65
X1.6957Y-0.55
X8.3863Y0.0863
X6.6637Y-3.2637
X6.8926Y-3.1218
X3.752Y-0.8675
X4.0156Y-0.8124
X8.1038Y-0.7251
X6.1687Y-1.8279
X3.0134Y-0.7373
X3.277Y-0.6822
X1.6905Y-2.9
X8.6151Y0.2282
X4.4906Y-0.9977
X4.7542Y-0.9427
X6.3976Y-1.686
X1.9405Y-2.8
X2.1645Y0.2764
X3.8448Y-1.6454
X4.1083Y-1.5904
X4.5834Y-1.7757
X4.8469Y-1.7206
X2.7327Y0.0738
X2.9963Y0.1289
X6.8484Y-3.2312
X7.0772Y-3.0893
X11.74Y-2.15
X11.99Y-2.05
X1.9145Y0.1764
X1.0707Y-2.15
X1.3207Y-2.05
X2.6119Y-2.9512
X2.8754Y-2.8961
X10.7088Y0.1
X10.9588Y0.2
X-0.9961Y-2.15
X4.8656Y-2.587
X5.1292Y-2.5319
X1.5395Y-1.4
X6.6266Y-0.9856
X4.2099Y-0.1867
X4.4735Y-0.1316
X9.1775Y-0.5082
X3.652Y-2.2715
X7.5933Y-2.2367
X3.3884Y-2.3265
X11.4588Y0.1
X7.3644Y-2.3786
X-0.7461Y-2.05
X9.9588Y0.1
X10.2088Y0.2
X8.9275Y-0.6082
X9.2088Y0.1764
X9.4588Y0.2764
X-0.9023Y-1.4
X-0.6523Y-1.3
X11.1775Y-1.4
X11.4275Y-1.3
X-0.7148Y0.1
X-0.4648Y0.2
X6.9073Y-1.6976
X7.1362Y-1.5558
X11.7088Y0.2
X1.7895Y-1.3
X9.2088Y-1.4
X9.4588Y-1.3
X3.4713Y-0.0564
X3.7349Y-0.0014
X8.1409Y-3.0033
X8.3698Y-2.8614
X11.365Y-0.65
X8.3319Y-2.1065
X6.9091Y-0.1742
X10.2088Y-1.3
X-0.8086Y-0.65
X8.103Y-2.2484
X7.1379Y-0.0323
X9.9588Y-1.4
X9.6775Y-2.15
X11.615Y-0.55
X6.8554Y-0.8437
X9.9275Y-2.05
X0.5082Y-1.4
X0.7582Y-1.3
X-0.5586Y-0.55
X7.3652Y-0.8553
X7.5941Y-0.7134
T6
X-0.1094Y-3.0
X0.0Y0.0
X5.522Y-3.0374
X11.1575Y-3.0
T7
X5.4086Y0.0197
X5.6362Y0.0197
T8
X9.0078Y-3.0
X9.4078Y-3.0
X3.0396Y-1.605
X3.4335Y-1.6744
X1.7707Y-2.25
X2.1707Y-2.25
X10.3775Y-0.75
X10.7775Y-0.75
X6.5939Y-2.616
X6.9879Y-2.5466
X7.3326Y-2.4858
X7.7265Y-2.4163
X8.0719Y-0.8323
X8.4659Y-0.7628
X2.3009Y-1.4748
X2.6949Y-1.5442
X6.8165Y-3.3383
X7.2104Y-3.2689
X8.1091Y-3.1104
X8.503Y-3.041
X-0.9523Y-1.5
X-0.5523Y-1.5
X6.1369Y-1.935
X6.5308Y-1.8656
X11.69Y-2.25
X12.09Y-2.25
X1.8645Y0.0764
X2.2645Y0.0764
X8.8775Y-2.25
X9.2775Y-2.25
X1.1145Y0.0
X1.5145Y0.0
X-1.0461Y-2.25
X-0.6461Y-2.25
X10.3088Y0.0
X9.1588Y0.0764
X9.5588Y0.0764
X3.3218Y-2.4163
X3.7157Y-2.4858
X6.5947Y-1.0927
X6.9887Y-1.0233
X10.0275Y-2.25
X4.1721Y-1.8047
X3.7986Y-0.2157
X8.0712Y-2.3555
X8.4651Y-2.2861
X9.6275Y-2.25
X3.7782Y-1.7352
X1.0207Y-2.25
X1.4207Y-2.25
X9.9088Y0.0
X9.1588Y-1.5
X9.5588Y-1.5
X3.4047Y-0.1462
X11.1275Y-1.5
X11.5275Y-1.5
X-0.7648Y0.0
X-0.3648Y0.0
X7.2694Y-1.7353
X0.3645Y0.0
X0.7645Y0.0
X6.8755Y-1.8048
X10.6588Y0.0
X11.0588Y0.0
X2.6661Y-0.016
X3.06Y-0.0855
X6.8772Y-0.2814
X7.2711Y-0.2119
X-0.8586Y-0.75
X-0.4586Y-0.75
X6.1386Y-0.4116
X6.5325Y-0.3421
X8.3544Y-0.0209
X8.7484Y0.0486
X2.9468Y-0.8271
X4.5372Y-0.3459
X2.9392Y-3.1104
X4.1433Y-0.2765
X2.5453Y-3.041
X8.7466Y-1.4749
X9.2775Y-0.7082
X8.3527Y-1.5443
X9.6275Y-0.75
X10.0275Y-0.75
X6.6319Y-3.3709
X2.0405Y-3.0
X0.4582Y-0.75
X0.8582Y-0.75
X4.424Y-1.0875
X4.8179Y-1.157
X3.3407Y-0.8965
X4.5168Y-1.8655
X7.0258Y-3.3014
X1.6405Y-3.0
X4.9107Y-1.9349
X8.8775Y-0.7082
X11.4088Y0.0
X11.8088Y0.0
X2.5832Y-2.2861
X0.177Y-2.25
X0.577Y-2.25
X4.799Y-2.6768
X5.1929Y-2.7463
X2.9771Y-2.3555
X11.0338Y0.0
X11.4338Y0.0
X1.4895Y-1.5
X5.8561Y-1.223
X3.8378Y-3.2689
X4.2317Y-3.3383
X1.8895Y-1.5
X5.8553Y-2.7463
X6.2493Y-2.6768
X11.315Y-0.75
X11.715Y-0.75
X2.2082Y-0.6968
X2.6021Y-0.7663
X4.0225Y-3.3014
X4.4164Y-3.3709
X1.3957Y-0.75
X1.7957Y-0.75
X3.6854Y-0.9573
X4.0793Y-1.0268
X7.3333Y-0.9625
X7.7273Y-0.893
X6.2501Y-1.1535
X11.0338Y-2.25
X11.4338Y-2.25
X0.4582Y-1.5
X9.9088Y-1.5
X10.3088Y-1.5
X11.0588Y-2.25
X4.8819Y-0.4067
X7.6158Y-0.1511
X8.0097Y-0.0817
X0.552Y-2.25
X0.952Y-2.25
X0.8582Y-1.5
X7.6141Y-1.6746
X8.008Y-1.6051
X10.6588Y-2.25
X5.2758Y-0.4762
X4.0604Y-2.5466
X4.4543Y-2.616
T9
X10.765Y0.275
X1.2207Y-2.525
X4.6333Y-3.6884
X11.7025Y0.275
X3.7101Y-3.5256
X0.2832Y-2.525
X3.5254Y-3.493
X6.4149Y-3.6884
X7.3382Y-3.5256
X6.5996Y-3.6558
X7.5229Y-3.493
X10.765Y-1.975
X11.7025Y-1.975
X4.4487Y-3.6558
X10.8588Y-1.775
X11.7963Y-1.775
T10
X10.8588Y0.0
X4.2573Y-2.5813
X8.2689Y-0.7975
X9.0775Y-0.7082
X0.377Y-2.25
X4.996Y-2.7115
X1.6895Y-1.5
X2.8631Y-0.0507
X11.515Y-0.75
X2.7801Y-2.3208
X11.2338Y-2.25
X7.0742Y-0.2466
X0.5645Y0.0
X0.6582Y-1.5
X10.1088Y-1.5
X4.7375Y-3.0975
X6.0523Y-2.7115
X10.8588Y-2.25
X-0.6586Y-0.75
X7.5303Y-0.9278
X8.5496Y-1.5096
X3.2365Y-1.6397
X6.0531Y-1.1882
X4.0348Y-3.3036
X11.2338Y0.0
X9.8275Y-0.75
X6.3108Y-3.0975
X7.234Y-2.9347
X7.8128Y-0.1164
X2.4051Y-0.7316
X0.752Y-2.25
X3.8142Y-2.9347
X7.811Y-1.6398
X1.5957Y-0.75
X6.8288Y-3.3362
X3.8824Y-0.992
X1.8405Y-3.0
X1.3145Y0.0
X7.0135Y-3.3036
X9.0775Y-2.25
X1.2207Y-2.25
X-0.8461Y-2.25
X10.1088Y0.0
X9.3588Y0.0764
X9.3588Y-1.5
X6.3338Y-1.9003
X10.765Y-0.325
X11.7025Y-0.325
X0.2832Y-1.925
X1.2207Y-1.925
X3.5187Y-2.4511
X4.7137Y-1.9002
X6.4954Y-3.0649
X3.6017Y-0.181
X10.8588Y-1.175
X11.7963Y-1.175
X5.0789Y-0.4414
X1.9707Y-2.25
X6.3356Y-0.3769
X0.6582Y-0.75
X6.7909Y-2.5813
X7.5295Y-2.4511
X3.9751Y-1.77
X8.306Y-3.0757
X4.621Y-1.1223
X3.1438Y-0.8618
X10.765Y-2.575
X11.7025Y-2.575
X8.5514Y0.0138
X11.3275Y-1.5
X-0.5648Y0.0
X7.4187Y-2.9022
X9.2078Y-3.0
X2.4979Y-1.5095
X3.6296Y-2.9022
X4.5529Y-3.0649
X11.89Y-2.25
X-0.7523Y-1.5
X8.2681Y-2.3208
X2.0645Y0.0764
X2.7422Y-3.0757
X4.2194Y-3.3362
X10.5775Y-0.75
X6.7917Y-1.058
X9.8275Y-2.25
X7.0724Y-1.7701
X11.6088Y0.0
X4.3403Y-0.3112
T11
X-0.1858Y-1.5
X5.522Y-1.7724
T12
X5.0772Y-3.5083
X5.9709Y-3.5083
T13
X5.522Y-2.1713
T3
G00X5.3523Y0.1752
M15
G01X5.3523Y0.1516
M16
G05
G00X5.3523Y0.0205
M15
G01X5.3523Y-0.0228
M16
G05
G00X5.6925Y0.1752
M15
G01X5.6925Y0.1516
M16
G05
G00X5.6925Y0.0205
M15
G01X5.6925Y-0.0228
M16
G05
T0
M30
