G04 #@! TF.GenerationSoftware,KiCad,Pcbnew,(5.99.0-2612-g32a7d0025-dirty)*
G04 #@! TF.CreationDate,2020-08-15T16:40:12+02:00*
G04 #@! TF.ProjectId,BMEK_Solder,424d454b-5f53-46f6-9c64-65722e6b6963,1*
G04 #@! TF.SameCoordinates,Original*
G04 #@! TF.FileFunction,Legend,Top*
G04 #@! TF.FilePolarity,Positive*
%FSLAX46Y46*%
G04 Gerber Fmt 4.6, Leading zero omitted, Abs format (unit mm)*
G04 Created by KiCad (PCBNEW (5.99.0-2612-g32a7d0025-dirty)) date 2020-08-15 16:40:12*
%MOMM*%
%LPD*%
G01*
G04 APERTURE LIST*
%ADD10C,0.150000*%
%ADD11C,0.120000*%
%ADD12C,0.100000*%
%ADD13C,2.250000*%
%ADD14C,3.987800*%
%ADD15C,1.750000*%
%ADD16C,3.348000*%
%ADD17C,4.287800*%
%ADD18R,1.500000X1.000000*%
%ADD19C,3.800000*%
%ADD20C,6.500000*%
%ADD21C,5.350000*%
%ADD22C,9.000000*%
%ADD23O,1.000000X1.600000*%
%ADD24O,1.000000X2.100000*%
%ADD25C,0.650000*%
G04 APERTURE END LIST*
D10*
X57721904Y-101092380D02*
X57721904Y-100092380D01*
X57960000Y-100092380D01*
X58102857Y-100140000D01*
X58198095Y-100235238D01*
X58245714Y-100330476D01*
X58293333Y-100520952D01*
X58293333Y-100663809D01*
X58245714Y-100854285D01*
X58198095Y-100949523D01*
X58102857Y-101044761D01*
X57960000Y-101092380D01*
X57721904Y-101092380D01*
X58626666Y-100092380D02*
X59293333Y-100092380D01*
X58864761Y-101092380D01*
X54595714Y-102992380D02*
X54024285Y-102992380D01*
X54310000Y-102992380D02*
X54310000Y-101992380D01*
X54214761Y-102135238D01*
X54119523Y-102230476D01*
X54024285Y-102278095D01*
X302974404Y-108092380D02*
X302974404Y-107092380D01*
X303212500Y-107092380D01*
X303355357Y-107140000D01*
X303450595Y-107235238D01*
X303498214Y-107330476D01*
X303545833Y-107520952D01*
X303545833Y-107663809D01*
X303498214Y-107854285D01*
X303450595Y-107949523D01*
X303355357Y-108044761D01*
X303212500Y-108092380D01*
X302974404Y-108092380D01*
X303926785Y-107187619D02*
X303974404Y-107140000D01*
X304069642Y-107092380D01*
X304307738Y-107092380D01*
X304402976Y-107140000D01*
X304450595Y-107187619D01*
X304498214Y-107282857D01*
X304498214Y-107378095D01*
X304450595Y-107520952D01*
X303879166Y-108092380D01*
X304498214Y-108092380D01*
X308148214Y-106192380D02*
X307576785Y-106192380D01*
X307862500Y-106192380D02*
X307862500Y-105192380D01*
X307767261Y-105335238D01*
X307672023Y-105430476D01*
X307576785Y-105478095D01*
X77721904Y-101092380D02*
X77721904Y-100092380D01*
X77960000Y-100092380D01*
X78102857Y-100140000D01*
X78198095Y-100235238D01*
X78245714Y-100330476D01*
X78293333Y-100520952D01*
X78293333Y-100663809D01*
X78245714Y-100854285D01*
X78198095Y-100949523D01*
X78102857Y-101044761D01*
X77960000Y-101092380D01*
X77721904Y-101092380D01*
X79198095Y-100092380D02*
X78721904Y-100092380D01*
X78674285Y-100568571D01*
X78721904Y-100520952D01*
X78817142Y-100473333D01*
X79055238Y-100473333D01*
X79150476Y-100520952D01*
X79198095Y-100568571D01*
X79245714Y-100663809D01*
X79245714Y-100901904D01*
X79198095Y-100997142D01*
X79150476Y-101044761D01*
X79055238Y-101092380D01*
X78817142Y-101092380D01*
X78721904Y-101044761D01*
X78674285Y-100997142D01*
X74595714Y-102992380D02*
X74024285Y-102992380D01*
X74310000Y-102992380D02*
X74310000Y-101992380D01*
X74214761Y-102135238D01*
X74119523Y-102230476D01*
X74024285Y-102278095D01*
X322974404Y-108092380D02*
X322974404Y-107092380D01*
X323212500Y-107092380D01*
X323355357Y-107140000D01*
X323450595Y-107235238D01*
X323498214Y-107330476D01*
X323545833Y-107520952D01*
X323545833Y-107663809D01*
X323498214Y-107854285D01*
X323450595Y-107949523D01*
X323355357Y-108044761D01*
X323212500Y-108092380D01*
X322974404Y-108092380D01*
X324402976Y-107425714D02*
X324402976Y-108092380D01*
X324164880Y-107044761D02*
X323926785Y-107759047D01*
X324545833Y-107759047D01*
X328148214Y-106192380D02*
X327576785Y-106192380D01*
X327862500Y-106192380D02*
X327862500Y-105192380D01*
X327767261Y-105335238D01*
X327672023Y-105430476D01*
X327576785Y-105478095D01*
X312974404Y-108092380D02*
X312974404Y-107092380D01*
X313212500Y-107092380D01*
X313355357Y-107140000D01*
X313450595Y-107235238D01*
X313498214Y-107330476D01*
X313545833Y-107520952D01*
X313545833Y-107663809D01*
X313498214Y-107854285D01*
X313450595Y-107949523D01*
X313355357Y-108044761D01*
X313212500Y-108092380D01*
X312974404Y-108092380D01*
X313879166Y-107092380D02*
X314498214Y-107092380D01*
X314164880Y-107473333D01*
X314307738Y-107473333D01*
X314402976Y-107520952D01*
X314450595Y-107568571D01*
X314498214Y-107663809D01*
X314498214Y-107901904D01*
X314450595Y-107997142D01*
X314402976Y-108044761D01*
X314307738Y-108092380D01*
X314022023Y-108092380D01*
X313926785Y-108044761D01*
X313879166Y-107997142D01*
X318148214Y-106192380D02*
X317576785Y-106192380D01*
X317862500Y-106192380D02*
X317862500Y-105192380D01*
X317767261Y-105335238D01*
X317672023Y-105430476D01*
X317576785Y-105478095D01*
X49990476Y-21042380D02*
X50323809Y-22042380D01*
X50657142Y-21042380D01*
X51514285Y-22042380D02*
X50942857Y-22042380D01*
X51228571Y-22042380D02*
X51228571Y-21042380D01*
X51133333Y-21185238D01*
X51038095Y-21280476D01*
X50942857Y-21328095D01*
X67721904Y-101092380D02*
X67721904Y-100092380D01*
X67960000Y-100092380D01*
X68102857Y-100140000D01*
X68198095Y-100235238D01*
X68245714Y-100330476D01*
X68293333Y-100520952D01*
X68293333Y-100663809D01*
X68245714Y-100854285D01*
X68198095Y-100949523D01*
X68102857Y-101044761D01*
X67960000Y-101092380D01*
X67721904Y-101092380D01*
X69150476Y-100092380D02*
X68960000Y-100092380D01*
X68864761Y-100140000D01*
X68817142Y-100187619D01*
X68721904Y-100330476D01*
X68674285Y-100520952D01*
X68674285Y-100901904D01*
X68721904Y-100997142D01*
X68769523Y-101044761D01*
X68864761Y-101092380D01*
X69055238Y-101092380D01*
X69150476Y-101044761D01*
X69198095Y-100997142D01*
X69245714Y-100901904D01*
X69245714Y-100663809D01*
X69198095Y-100568571D01*
X69150476Y-100520952D01*
X69055238Y-100473333D01*
X68864761Y-100473333D01*
X68769523Y-100520952D01*
X68721904Y-100568571D01*
X68674285Y-100663809D01*
X64595714Y-102992380D02*
X64024285Y-102992380D01*
X64310000Y-102992380D02*
X64310000Y-101992380D01*
X64214761Y-102135238D01*
X64119523Y-102230476D01*
X64024285Y-102278095D01*
D11*
X175898845Y-67479792D02*
X157138257Y-64171794D01*
X174263235Y-50426696D02*
X176264365Y-50779549D01*
X160433588Y-60110319D02*
X160080735Y-62111449D01*
X160080735Y-62111449D02*
X162081865Y-62464302D01*
X162153747Y-50354814D02*
X162506600Y-48353684D01*
X173838500Y-64537314D02*
X174191353Y-62536184D01*
X162506600Y-48353684D02*
X164507730Y-48706537D01*
X171837370Y-64184461D02*
X173838500Y-64537314D01*
X176264365Y-50779549D02*
X175911512Y-52780679D01*
X157138257Y-64171794D02*
X160446255Y-45411206D01*
X179206843Y-48719204D02*
X175898845Y-67479792D01*
X160446255Y-45411206D02*
X179206843Y-48719204D01*
X38834552Y-94615000D02*
X19784552Y-94615000D01*
X34262552Y-78105000D02*
X36294552Y-78105000D01*
X22324552Y-90043000D02*
X22324552Y-92075000D01*
X22324552Y-92075000D02*
X24356552Y-92075000D01*
X22324552Y-80137000D02*
X22324552Y-78105000D01*
X36294552Y-92075000D02*
X36294552Y-90043000D01*
X22324552Y-78105000D02*
X24356552Y-78105000D01*
X34262552Y-92075000D02*
X36294552Y-92075000D01*
X36294552Y-78105000D02*
X36294552Y-80137000D01*
X19784552Y-94615000D02*
X19784552Y-75565000D01*
X38834552Y-75565000D02*
X38834552Y-94615000D01*
X19784552Y-75565000D02*
X38834552Y-75565000D01*
X241473743Y-80626294D02*
X222713155Y-83934292D01*
X234104270Y-65161037D02*
X236105400Y-64808184D01*
X224420647Y-78990684D02*
X224773500Y-80991814D01*
X224773500Y-80991814D02*
X226774630Y-80638961D01*
X222700488Y-69235179D02*
X222347635Y-67234049D01*
X238531265Y-78565949D02*
X238178412Y-76564819D01*
X222347635Y-67234049D02*
X224348765Y-66881196D01*
X236530135Y-78918802D02*
X238531265Y-78565949D01*
X236105400Y-64808184D02*
X236458253Y-66809314D01*
X222713155Y-83934292D02*
X219405157Y-65173704D01*
X238165745Y-61865706D02*
X241473743Y-80626294D01*
X219405157Y-65173704D02*
X238165745Y-61865706D01*
X168769345Y-46878793D02*
X150008757Y-43570795D01*
X167133735Y-29825697D02*
X169134865Y-30178550D01*
X153304088Y-39509320D02*
X152951235Y-41510450D01*
X152951235Y-41510450D02*
X154952365Y-41863303D01*
X155024247Y-29753815D02*
X155377100Y-27752685D01*
X166709000Y-43936315D02*
X167061853Y-41935185D01*
X155377100Y-27752685D02*
X157378230Y-28105538D01*
X164707870Y-43583462D02*
X166709000Y-43936315D01*
X169134865Y-30178550D02*
X168782012Y-32179680D01*
X150008757Y-43570795D02*
X153316755Y-24810207D01*
X172077343Y-28118205D02*
X168769345Y-46878793D01*
X153316755Y-24810207D02*
X172077343Y-28118205D01*
X215582743Y-65847695D02*
X196822155Y-69155693D01*
X208213270Y-50382438D02*
X210214400Y-50029585D01*
X198529647Y-64212085D02*
X198882500Y-66213215D01*
X198882500Y-66213215D02*
X200883630Y-65860362D01*
X196809488Y-54456580D02*
X196456635Y-52455450D01*
X212640265Y-63787350D02*
X212287412Y-61786220D01*
X196456635Y-52455450D02*
X198457765Y-52102597D01*
X210639135Y-64140203D02*
X212640265Y-63787350D01*
X210214400Y-50029585D02*
X210567253Y-52030715D01*
X196822155Y-69155693D02*
X193514157Y-50395105D01*
X212274745Y-47087107D02*
X215582743Y-65847695D01*
X193514157Y-50395105D02*
X212274745Y-47087107D01*
X234323343Y-101230994D02*
X215562755Y-104538992D01*
X226953870Y-85765737D02*
X228955000Y-85412884D01*
X217270247Y-99595384D02*
X217623100Y-101596514D01*
X217623100Y-101596514D02*
X219624230Y-101243661D01*
X215550088Y-89839879D02*
X215197235Y-87838749D01*
X231380865Y-99170649D02*
X231028012Y-97169519D01*
X215197235Y-87838749D02*
X217198365Y-87485896D01*
X229379735Y-99523502D02*
X231380865Y-99170649D01*
X228955000Y-85412884D02*
X229307853Y-87414014D01*
X215562755Y-104538992D02*
X212254757Y-85778404D01*
X231015345Y-82470406D02*
X234323343Y-101230994D01*
X212254757Y-85778404D02*
X231015345Y-82470406D01*
X128178795Y-117097093D02*
X109418207Y-113789095D01*
X126543185Y-100043997D02*
X128544315Y-100396850D01*
X112713538Y-109727620D02*
X112360685Y-111728750D01*
X112360685Y-111728750D02*
X114361815Y-112081603D01*
X114433697Y-99972115D02*
X114786550Y-97970985D01*
X126118450Y-114154615D02*
X126471303Y-112153485D01*
X114786550Y-97970985D02*
X116787680Y-98323838D01*
X124117320Y-113801762D02*
X126118450Y-114154615D01*
X128544315Y-100396850D02*
X128191462Y-102397980D01*
X109418207Y-113789095D02*
X112726205Y-95028507D01*
X131486793Y-98336505D02*
X128178795Y-117097093D01*
X112726205Y-95028507D02*
X131486793Y-98336505D01*
X147902345Y-101230993D02*
X129141757Y-97922995D01*
X146266735Y-84177897D02*
X148267865Y-84530750D01*
X132437088Y-93861520D02*
X132084235Y-95862650D01*
X132084235Y-95862650D02*
X134085365Y-96215503D01*
X134157247Y-84106015D02*
X134510100Y-82104885D01*
X145842000Y-98288515D02*
X146194853Y-96287385D01*
X134510100Y-82104885D02*
X136511230Y-82457738D01*
X143840870Y-97935662D02*
X145842000Y-98288515D01*
X148267865Y-84530750D02*
X147915012Y-86531880D01*
X129141757Y-97922995D02*
X132449755Y-79162407D01*
X151210343Y-82470405D02*
X147902345Y-101230993D01*
X132449755Y-79162407D02*
X151210343Y-82470405D01*
X298038050Y-35524800D02*
X278988050Y-35524800D01*
X293466050Y-19014800D02*
X295498050Y-19014800D01*
X281528050Y-30952800D02*
X281528050Y-32984800D01*
X281528050Y-32984800D02*
X283560050Y-32984800D01*
X281528050Y-21046800D02*
X281528050Y-19014800D01*
X295498050Y-32984800D02*
X295498050Y-30952800D01*
X281528050Y-19014800D02*
X283560050Y-19014800D01*
X293466050Y-32984800D02*
X295498050Y-32984800D01*
X295498050Y-19014800D02*
X295498050Y-21046800D01*
X278988050Y-35524800D02*
X278988050Y-16474800D01*
X298038050Y-16474800D02*
X298038050Y-35524800D01*
X278988050Y-16474800D02*
X298038050Y-16474800D01*
X355188051Y-37465000D02*
X336138051Y-37465000D01*
X350616051Y-20955000D02*
X352648051Y-20955000D01*
X338678051Y-32893000D02*
X338678051Y-34925000D01*
X338678051Y-34925000D02*
X340710051Y-34925000D01*
X338678051Y-22987000D02*
X338678051Y-20955000D01*
X352648051Y-34925000D02*
X352648051Y-32893000D01*
X338678051Y-20955000D02*
X340710051Y-20955000D01*
X350616051Y-34925000D02*
X352648051Y-34925000D01*
X352648051Y-20955000D02*
X352648051Y-22987000D01*
X336138051Y-37465000D02*
X336138051Y-18415000D01*
X355188051Y-18415000D02*
X355188051Y-37465000D01*
X336138051Y-18415000D02*
X355188051Y-18415000D01*
X336138250Y-94615000D02*
X317088250Y-94615000D01*
X331566250Y-78105000D02*
X333598250Y-78105000D01*
X319628250Y-90043000D02*
X319628250Y-92075000D01*
X319628250Y-92075000D02*
X321660250Y-92075000D01*
X319628250Y-80137000D02*
X319628250Y-78105000D01*
X333598250Y-92075000D02*
X333598250Y-90043000D01*
X319628250Y-78105000D02*
X321660250Y-78105000D01*
X331566250Y-92075000D02*
X333598250Y-92075000D01*
X333598250Y-78105000D02*
X333598250Y-80137000D01*
X317088250Y-94615000D02*
X317088250Y-75565000D01*
X336138250Y-75565000D02*
X336138250Y-94615000D01*
X317088250Y-75565000D02*
X336138250Y-75565000D01*
X272807393Y-113789094D02*
X254046805Y-117097092D01*
X265437920Y-98323837D02*
X267439050Y-97970984D01*
X255754297Y-112153484D02*
X256107150Y-114154614D01*
X256107150Y-114154614D02*
X258108280Y-113801761D01*
X254034138Y-102397979D02*
X253681285Y-100396849D01*
X269864915Y-111728749D02*
X269512062Y-109727619D01*
X253681285Y-100396849D02*
X255682415Y-100043996D01*
X267863785Y-112081602D02*
X269864915Y-111728749D01*
X267439050Y-97970984D02*
X267791903Y-99972114D01*
X254046805Y-117097092D02*
X250738807Y-98336504D01*
X269499395Y-95028506D02*
X272807393Y-113789094D01*
X250738807Y-98336504D02*
X269499395Y-95028506D01*
X129141745Y-97922993D02*
X110381157Y-94614995D01*
X127506135Y-80869897D02*
X129507265Y-81222750D01*
X113676488Y-90553520D02*
X113323635Y-92554650D01*
X113323635Y-92554650D02*
X115324765Y-92907503D01*
X115396647Y-80798015D02*
X115749500Y-78796885D01*
X127081400Y-94980515D02*
X127434253Y-92979385D01*
X115749500Y-78796885D02*
X117750630Y-79149738D01*
X125080270Y-94627662D02*
X127081400Y-94980515D01*
X129507265Y-81222750D02*
X129154412Y-83223880D01*
X110381157Y-94614995D02*
X113689155Y-75854407D01*
X132449743Y-79162405D02*
X129141745Y-97922993D01*
X113689155Y-75854407D02*
X132449743Y-79162405D01*
X241518443Y-41930595D02*
X222757855Y-45238593D01*
X234148970Y-26465338D02*
X236150100Y-26112485D01*
X224465347Y-40294985D02*
X224818200Y-42296115D01*
X224818200Y-42296115D02*
X226819330Y-41943262D01*
X222745188Y-30539480D02*
X222392335Y-28538350D01*
X238575965Y-39870250D02*
X238223112Y-37869120D01*
X222392335Y-28538350D02*
X224393465Y-28185497D01*
X236574835Y-40223103D02*
X238575965Y-39870250D01*
X236150100Y-26112485D02*
X236502953Y-28113615D01*
X222757855Y-45238593D02*
X219449857Y-26478005D01*
X238210445Y-23170007D02*
X241518443Y-41930595D01*
X219449857Y-26478005D02*
X238210445Y-23170007D01*
X317088051Y-37465000D02*
X298038051Y-37465000D01*
X312516051Y-20955000D02*
X314548051Y-20955000D01*
X300578051Y-32893000D02*
X300578051Y-34925000D01*
X300578051Y-34925000D02*
X302610051Y-34925000D01*
X300578051Y-22987000D02*
X300578051Y-20955000D01*
X314548051Y-34925000D02*
X314548051Y-32893000D01*
X300578051Y-20955000D02*
X302610051Y-20955000D01*
X312516051Y-34925000D02*
X314548051Y-34925000D01*
X314548051Y-20955000D02*
X314548051Y-22987000D01*
X298038051Y-37465000D02*
X298038051Y-18415000D01*
X317088051Y-18415000D02*
X317088051Y-37465000D01*
X298038051Y-18415000D02*
X317088051Y-18415000D01*
X290894450Y-94614999D02*
X271844450Y-94614999D01*
X286322450Y-78104999D02*
X288354450Y-78104999D01*
X274384450Y-90042999D02*
X274384450Y-92074999D01*
X274384450Y-92074999D02*
X276416450Y-92074999D01*
X274384450Y-80136999D02*
X274384450Y-78104999D01*
X288354450Y-92074999D02*
X288354450Y-90042999D01*
X274384450Y-78104999D02*
X276416450Y-78104999D01*
X286322450Y-92074999D02*
X288354450Y-92074999D01*
X288354450Y-78104999D02*
X288354450Y-80136999D01*
X271844450Y-94614999D02*
X271844450Y-75564999D01*
X290894450Y-75564999D02*
X290894450Y-94614999D01*
X271844450Y-75564999D02*
X290894450Y-75564999D01*
X260279044Y-38622594D02*
X241518456Y-41930592D01*
X252909571Y-23157337D02*
X254910701Y-22804484D01*
X243225948Y-36986984D02*
X243578801Y-38988114D01*
X243578801Y-38988114D02*
X245579931Y-38635261D01*
X241505789Y-27231479D02*
X241152936Y-25230349D01*
X257336566Y-36562249D02*
X256983713Y-34561119D01*
X241152936Y-25230349D02*
X243154066Y-24877496D01*
X255335436Y-36915102D02*
X257336566Y-36562249D01*
X254910701Y-22804484D02*
X255263554Y-24805614D01*
X241518456Y-41930592D02*
X238210458Y-23170004D01*
X256971046Y-19862006D02*
X260279044Y-38622594D01*
X238210458Y-23170004D02*
X256971046Y-19862006D01*
X222713143Y-83934295D02*
X203952555Y-87242293D01*
X215343670Y-68469038D02*
X217344800Y-68116185D01*
X205660047Y-82298685D02*
X206012900Y-84299815D01*
X206012900Y-84299815D02*
X208014030Y-83946962D01*
X203939888Y-72543180D02*
X203587035Y-70542050D01*
X219770665Y-81873950D02*
X219417812Y-79872820D01*
X203587035Y-70542050D02*
X205588165Y-70189197D01*
X217769535Y-82226803D02*
X219770665Y-81873950D01*
X217344800Y-68116185D02*
X217697653Y-70117315D01*
X203952555Y-87242293D02*
X200644557Y-68481705D01*
X219405145Y-65173707D02*
X222713143Y-83934295D01*
X200644557Y-68481705D02*
X219405145Y-65173707D01*
X317088150Y-75565000D02*
X298038150Y-75565000D01*
X312516150Y-59055000D02*
X314548150Y-59055000D01*
X300578150Y-70993000D02*
X300578150Y-73025000D01*
X300578150Y-73025000D02*
X302610150Y-73025000D01*
X300578150Y-61087000D02*
X300578150Y-59055000D01*
X314548150Y-73025000D02*
X314548150Y-70993000D01*
X300578150Y-59055000D02*
X302610150Y-59055000D01*
X312516150Y-73025000D02*
X314548150Y-73025000D01*
X314548150Y-59055000D02*
X314548150Y-61087000D01*
X298038150Y-75565000D02*
X298038150Y-56515000D01*
X317088150Y-56515000D02*
X317088150Y-75565000D01*
X298038150Y-56515000D02*
X317088150Y-56515000D01*
X215562743Y-104538995D02*
X196802155Y-107846993D01*
X208193270Y-89073738D02*
X210194400Y-88720885D01*
X198509647Y-102903385D02*
X198862500Y-104904515D01*
X198862500Y-104904515D02*
X200863630Y-104551662D01*
X196789488Y-93147880D02*
X196436635Y-91146750D01*
X212620265Y-102478650D02*
X212267412Y-100477520D01*
X196436635Y-91146750D02*
X198437765Y-90793897D01*
X210619135Y-102831503D02*
X212620265Y-102478650D01*
X210194400Y-88720885D02*
X210547253Y-90722015D01*
X196802155Y-107846993D02*
X193494157Y-89086405D01*
X212254745Y-85778407D02*
X215562743Y-104538995D01*
X193494157Y-89086405D02*
X212254745Y-85778407D01*
X290894350Y-55454500D02*
X271844350Y-55454500D01*
X286322350Y-38944500D02*
X288354350Y-38944500D01*
X274384350Y-50882500D02*
X274384350Y-52914500D01*
X274384350Y-52914500D02*
X276416350Y-52914500D01*
X274384350Y-40976500D02*
X274384350Y-38944500D01*
X288354350Y-52914500D02*
X288354350Y-50882500D01*
X274384350Y-38944500D02*
X276416350Y-38944500D01*
X286322350Y-52914500D02*
X288354350Y-52914500D01*
X288354350Y-38944500D02*
X288354350Y-40976500D01*
X271844350Y-55454500D02*
X271844350Y-36404500D01*
X290894350Y-36404500D02*
X290894350Y-55454500D01*
X271844350Y-36404500D02*
X290894350Y-36404500D01*
X348044401Y-75565000D02*
X328994401Y-75565000D01*
X343472401Y-59055000D02*
X345504401Y-59055000D01*
X331534401Y-70993000D02*
X331534401Y-73025000D01*
X331534401Y-73025000D02*
X333566401Y-73025000D01*
X331534401Y-61087000D02*
X331534401Y-59055000D01*
X345504401Y-73025000D02*
X345504401Y-70993000D01*
X331534401Y-59055000D02*
X333566401Y-59055000D01*
X343472401Y-73025000D02*
X345504401Y-73025000D01*
X345504401Y-59055000D02*
X345504401Y-61087000D01*
X328994401Y-75565000D02*
X328994401Y-56515000D01*
X348044401Y-56515000D02*
X348044401Y-75565000D01*
X328994401Y-56515000D02*
X348044401Y-56515000D01*
X309944450Y-94615000D02*
X290894450Y-94615000D01*
X305372450Y-78105000D02*
X307404450Y-78105000D01*
X293434450Y-90043000D02*
X293434450Y-92075000D01*
X293434450Y-92075000D02*
X295466450Y-92075000D01*
X293434450Y-80137000D02*
X293434450Y-78105000D01*
X307404450Y-92075000D02*
X307404450Y-90043000D01*
X293434450Y-78105000D02*
X295466450Y-78105000D01*
X305372450Y-92075000D02*
X307404450Y-92075000D01*
X307404450Y-78105000D02*
X307404450Y-80137000D01*
X290894450Y-94615000D02*
X290894450Y-75565000D01*
X309944450Y-75565000D02*
X309944450Y-94615000D01*
X290894450Y-75565000D02*
X309944450Y-75565000D01*
X294202450Y-113665000D02*
X275152450Y-113665000D01*
X289630450Y-97155000D02*
X291662450Y-97155000D01*
X277692450Y-109093000D02*
X277692450Y-111125000D01*
X277692450Y-111125000D02*
X279724450Y-111125000D01*
X277692450Y-99187000D02*
X277692450Y-97155000D01*
X291662450Y-111125000D02*
X291662450Y-109093000D01*
X277692450Y-97155000D02*
X279724450Y-97155000D01*
X289630450Y-111125000D02*
X291662450Y-111125000D01*
X291662450Y-97155000D02*
X291662450Y-99187000D01*
X275152450Y-113665000D02*
X275152450Y-94615000D01*
X294202450Y-94615000D02*
X294202450Y-113665000D01*
X275152450Y-94615000D02*
X294202450Y-94615000D01*
X234343344Y-62539695D02*
X215582756Y-65847693D01*
X226973871Y-47074438D02*
X228975001Y-46721585D01*
X217290248Y-60904085D02*
X217643101Y-62905215D01*
X217643101Y-62905215D02*
X219644231Y-62552362D01*
X215570089Y-51148580D02*
X215217236Y-49147450D01*
X231400866Y-60479350D02*
X231048013Y-58478220D01*
X215217236Y-49147450D02*
X217218366Y-48794597D01*
X229399736Y-60832203D02*
X231400866Y-60479350D01*
X228975001Y-46721585D02*
X229327854Y-48722715D01*
X215582756Y-65847693D02*
X212274758Y-47087105D01*
X231035346Y-43779107D02*
X234343344Y-62539695D01*
X212274758Y-47087105D02*
X231035346Y-43779107D01*
X100856250Y-56515000D02*
X81806250Y-56515000D01*
X96284250Y-40005000D02*
X98316250Y-40005000D01*
X84346250Y-51943000D02*
X84346250Y-53975000D01*
X84346250Y-53975000D02*
X86378250Y-53975000D01*
X84346250Y-42037000D02*
X84346250Y-40005000D01*
X98316250Y-53975000D02*
X98316250Y-51943000D01*
X84346250Y-40005000D02*
X86378250Y-40005000D01*
X96284250Y-53975000D02*
X98316250Y-53975000D01*
X98316250Y-40005000D02*
X98316250Y-42037000D01*
X81806250Y-56515000D02*
X81806250Y-37465000D01*
X100856250Y-37465000D02*
X100856250Y-56515000D01*
X81806250Y-37465000D02*
X100856250Y-37465000D01*
X271864544Y-55923694D02*
X253103956Y-59231692D01*
X264495071Y-40458437D02*
X266496201Y-40105584D01*
X254811448Y-54288084D02*
X255164301Y-56289214D01*
X255164301Y-56289214D02*
X257165431Y-55936361D01*
X253091289Y-44532579D02*
X252738436Y-42531449D01*
X268922066Y-53863349D02*
X268569213Y-51862219D01*
X252738436Y-42531449D02*
X254739566Y-42178596D01*
X266920936Y-54216202D02*
X268922066Y-53863349D01*
X266496201Y-40105584D02*
X266849054Y-42106714D01*
X253103956Y-59231692D02*
X249795958Y-40471104D01*
X268556546Y-37163106D02*
X271864544Y-55923694D01*
X249795958Y-40471104D02*
X268556546Y-37163106D01*
X279039643Y-35314596D02*
X260279055Y-38622594D01*
X271670170Y-19849339D02*
X273671300Y-19496486D01*
X261986547Y-33678986D02*
X262339400Y-35680116D01*
X262339400Y-35680116D02*
X264340530Y-35327263D01*
X260266388Y-23923481D02*
X259913535Y-21922351D01*
X276097165Y-33254251D02*
X275744312Y-31253121D01*
X259913535Y-21922351D02*
X261914665Y-21569498D01*
X274096035Y-33607104D02*
X276097165Y-33254251D01*
X273671300Y-19496486D02*
X274024153Y-21497616D01*
X260279055Y-38622594D02*
X256971057Y-19862006D01*
X275731645Y-16554008D02*
X279039643Y-35314596D01*
X256971057Y-19862006D02*
X275731645Y-16554008D01*
X79424900Y-94615000D02*
X60374900Y-94615000D01*
X74852900Y-78105000D02*
X76884900Y-78105000D01*
X62914900Y-90043000D02*
X62914900Y-92075000D01*
X62914900Y-92075000D02*
X64946900Y-92075000D01*
X62914900Y-80137000D02*
X62914900Y-78105000D01*
X76884900Y-92075000D02*
X76884900Y-90043000D01*
X62914900Y-78105000D02*
X64946900Y-78105000D01*
X74852900Y-92075000D02*
X76884900Y-92075000D01*
X76884900Y-78105000D02*
X76884900Y-80137000D01*
X60374900Y-94615000D02*
X60374900Y-75565000D01*
X79424900Y-75565000D02*
X79424900Y-94615000D01*
X60374900Y-75565000D02*
X79424900Y-75565000D01*
X41215852Y-75565000D02*
X22165852Y-75565000D01*
X36643852Y-59055000D02*
X38675852Y-59055000D01*
X24705852Y-70993000D02*
X24705852Y-73025000D01*
X24705852Y-73025000D02*
X26737852Y-73025000D01*
X24705852Y-61087000D02*
X24705852Y-59055000D01*
X38675852Y-73025000D02*
X38675852Y-70993000D01*
X24705852Y-59055000D02*
X26737852Y-59055000D01*
X36643852Y-73025000D02*
X38675852Y-73025000D01*
X38675852Y-59055000D02*
X38675852Y-61087000D01*
X22165852Y-75565000D02*
X22165852Y-56515000D01*
X41215852Y-56515000D02*
X41215852Y-75565000D01*
X22165852Y-56515000D02*
X41215852Y-56515000D01*
G36*
X62092200Y-106883200D02*
G01*
X61482600Y-106883200D01*
X62092200Y-106273600D01*
X62092200Y-106883200D01*
G37*
D12*
X62092200Y-106883200D02*
X61482600Y-106883200D01*
X62092200Y-106273600D01*
X62092200Y-106883200D01*
D11*
X62110000Y-106890000D02*
X62110000Y-105740000D01*
X54810000Y-106890000D02*
X62110000Y-106890000D01*
X54810000Y-101390000D02*
X62110000Y-101390000D01*
X43597152Y-56515000D02*
X24547152Y-56515000D01*
X39025152Y-40005000D02*
X41057152Y-40005000D01*
X27087152Y-51943000D02*
X27087152Y-53975000D01*
X27087152Y-53975000D02*
X29119152Y-53975000D01*
X27087152Y-42037000D02*
X27087152Y-40005000D01*
X41057152Y-53975000D02*
X41057152Y-51943000D01*
X27087152Y-40005000D02*
X29119152Y-40005000D01*
X39025152Y-53975000D02*
X41057152Y-53975000D01*
X41057152Y-40005000D02*
X41057152Y-42037000D01*
X24547152Y-56515000D02*
X24547152Y-37465000D01*
X43597152Y-37465000D02*
X43597152Y-56515000D01*
X24547152Y-37465000D02*
X43597152Y-37465000D01*
X253083943Y-97922994D02*
X234323355Y-101230992D01*
X245714470Y-82457737D02*
X247715600Y-82104884D01*
X236030847Y-96287384D02*
X236383700Y-98288514D01*
X236383700Y-98288514D02*
X238384830Y-97935661D01*
X234310688Y-86531879D02*
X233957835Y-84530749D01*
X250141465Y-95862649D02*
X249788612Y-93861519D01*
X233957835Y-84530749D02*
X235958965Y-84177896D01*
X248140335Y-96215502D02*
X250141465Y-95862649D01*
X247715600Y-82104884D02*
X248068453Y-84106014D01*
X234323355Y-101230992D02*
X231015357Y-82470404D01*
X249775945Y-79162406D02*
X253083943Y-97922994D01*
X231015357Y-82470404D02*
X249775945Y-79162406D01*
X328994350Y-56515000D02*
X309944350Y-56515000D01*
X324422350Y-40005000D02*
X326454350Y-40005000D01*
X312484350Y-51943000D02*
X312484350Y-53975000D01*
X312484350Y-53975000D02*
X314516350Y-53975000D01*
X312484350Y-42037000D02*
X312484350Y-40005000D01*
X326454350Y-53975000D02*
X326454350Y-51943000D01*
X312484350Y-40005000D02*
X314516350Y-40005000D01*
X324422350Y-53975000D02*
X326454350Y-53975000D01*
X326454350Y-40005000D02*
X326454350Y-42037000D01*
X309944350Y-56515000D02*
X309944350Y-37465000D01*
X328994350Y-37465000D02*
X328994350Y-56515000D01*
X309944350Y-37465000D02*
X328994350Y-37465000D01*
X345663200Y-94615000D02*
X326613200Y-94615000D01*
X341091200Y-78105000D02*
X343123200Y-78105000D01*
X329153200Y-90043000D02*
X329153200Y-92075000D01*
X329153200Y-92075000D02*
X331185200Y-92075000D01*
X329153200Y-80137000D02*
X329153200Y-78105000D01*
X343123200Y-92075000D02*
X343123200Y-90043000D01*
X329153200Y-78105000D02*
X331185200Y-78105000D01*
X341091200Y-92075000D02*
X343123200Y-92075000D01*
X343123200Y-78105000D02*
X343123200Y-80137000D01*
X326613200Y-94615000D02*
X326613200Y-75565000D01*
X345663200Y-75565000D02*
X345663200Y-94615000D01*
X326613200Y-75565000D02*
X345663200Y-75565000D01*
X103237450Y-75565000D02*
X84187450Y-75565000D01*
X98665450Y-59055000D02*
X100697450Y-59055000D01*
X86727450Y-70993000D02*
X86727450Y-73025000D01*
X86727450Y-73025000D02*
X88759450Y-73025000D01*
X86727450Y-61087000D02*
X86727450Y-59055000D01*
X100697450Y-73025000D02*
X100697450Y-70993000D01*
X86727450Y-59055000D02*
X88759450Y-59055000D01*
X98665450Y-73025000D02*
X100697450Y-73025000D01*
X100697450Y-59055000D02*
X100697450Y-61087000D01*
X84187450Y-75565000D02*
X84187450Y-56515000D01*
X103237450Y-56515000D02*
X103237450Y-75565000D01*
X84187450Y-56515000D02*
X103237450Y-56515000D01*
X110381150Y-94615000D02*
X91331150Y-94615000D01*
X105809150Y-78105000D02*
X107841150Y-78105000D01*
X93871150Y-90043000D02*
X93871150Y-92075000D01*
X93871150Y-92075000D02*
X95903150Y-92075000D01*
X93871150Y-80137000D02*
X93871150Y-78105000D01*
X107841150Y-92075000D02*
X107841150Y-90043000D01*
X93871150Y-78105000D02*
X95903150Y-78105000D01*
X105809150Y-92075000D02*
X107841150Y-92075000D01*
X107841150Y-78105000D02*
X107841150Y-80137000D01*
X91331150Y-94615000D02*
X91331150Y-75565000D01*
X110381150Y-75565000D02*
X110381150Y-94615000D01*
X91331150Y-75565000D02*
X110381150Y-75565000D01*
G36*
X300080300Y-102006400D02*
G01*
X300080300Y-101396800D01*
X300689900Y-101396800D01*
X300080300Y-102006400D01*
G37*
D12*
X300080300Y-102006400D02*
X300080300Y-101396800D01*
X300689900Y-101396800D01*
X300080300Y-102006400D01*
D11*
X300062500Y-101390000D02*
X300062500Y-102540000D01*
X307362500Y-101390000D02*
X300062500Y-101390000D01*
X307362500Y-106890000D02*
X300062500Y-106890000D01*
X107073150Y-113665000D02*
X88023150Y-113665000D01*
X102501150Y-97155000D02*
X104533150Y-97155000D01*
X90563150Y-109093000D02*
X90563150Y-111125000D01*
X90563150Y-111125000D02*
X92595150Y-111125000D01*
X90563150Y-99187000D02*
X90563150Y-97155000D01*
X104533150Y-111125000D02*
X104533150Y-109093000D01*
X90563150Y-97155000D02*
X92595150Y-97155000D01*
X102501150Y-111125000D02*
X104533150Y-111125000D01*
X104533150Y-97155000D02*
X104533150Y-99187000D01*
X88023150Y-113665000D02*
X88023150Y-94615000D01*
X107073150Y-94615000D02*
X107073150Y-113665000D01*
X88023150Y-94615000D02*
X107073150Y-94615000D01*
X309944350Y-56515000D02*
X290894350Y-56515000D01*
X305372350Y-40005000D02*
X307404350Y-40005000D01*
X293434350Y-51943000D02*
X293434350Y-53975000D01*
X293434350Y-53975000D02*
X295466350Y-53975000D01*
X293434350Y-42037000D02*
X293434350Y-40005000D01*
X307404350Y-53975000D02*
X307404350Y-51943000D01*
X293434350Y-40005000D02*
X295466350Y-40005000D01*
X305372350Y-53975000D02*
X307404350Y-53975000D01*
X307404350Y-40005000D02*
X307404350Y-42037000D01*
X290894350Y-56515000D02*
X290894350Y-37465000D01*
X309944350Y-37465000D02*
X309944350Y-56515000D01*
X290894350Y-37465000D02*
X309944350Y-37465000D01*
X260234343Y-77318295D02*
X241473755Y-80626293D01*
X252864870Y-61853038D02*
X254866000Y-61500185D01*
X243181247Y-75682685D02*
X243534100Y-77683815D01*
X243534100Y-77683815D02*
X245535230Y-77330962D01*
X241461088Y-65927180D02*
X241108235Y-63926050D01*
X257291865Y-75257950D02*
X256939012Y-73256820D01*
X241108235Y-63926050D02*
X243109365Y-63573197D01*
X255290735Y-75610803D02*
X257291865Y-75257950D01*
X254866000Y-61500185D02*
X255218853Y-63501315D01*
X241473755Y-80626293D02*
X238165757Y-61865705D01*
X256926345Y-58557707D02*
X260234343Y-77318295D01*
X238165757Y-61865705D02*
X256926345Y-58557707D01*
G36*
X82092200Y-106883200D02*
G01*
X81482600Y-106883200D01*
X82092200Y-106273600D01*
X82092200Y-106883200D01*
G37*
D12*
X82092200Y-106883200D02*
X81482600Y-106883200D01*
X82092200Y-106273600D01*
X82092200Y-106883200D01*
D11*
X82110000Y-106890000D02*
X82110000Y-105740000D01*
X74810000Y-106890000D02*
X82110000Y-106890000D01*
X74810000Y-101390000D02*
X82110000Y-101390000D01*
G36*
X320080300Y-102006400D02*
G01*
X320080300Y-101396800D01*
X320689900Y-101396800D01*
X320080300Y-102006400D01*
G37*
D12*
X320080300Y-102006400D02*
X320080300Y-101396800D01*
X320689900Y-101396800D01*
X320080300Y-102006400D01*
D11*
X320062500Y-101390000D02*
X320062500Y-102540000D01*
X327362500Y-101390000D02*
X320062500Y-101390000D01*
X327362500Y-106890000D02*
X320062500Y-106890000D01*
X336138051Y-37465000D02*
X317088051Y-37465000D01*
X331566051Y-20955000D02*
X333598051Y-20955000D01*
X319628051Y-32893000D02*
X319628051Y-34925000D01*
X319628051Y-34925000D02*
X321660051Y-34925000D01*
X319628051Y-22987000D02*
X319628051Y-20955000D01*
X333598051Y-34925000D02*
X333598051Y-32893000D01*
X319628051Y-20955000D02*
X321660051Y-20955000D01*
X331566051Y-34925000D02*
X333598051Y-34925000D01*
X333598051Y-20955000D02*
X333598051Y-22987000D01*
X317088051Y-37465000D02*
X317088051Y-18415000D01*
X336138051Y-18415000D02*
X336138051Y-37465000D01*
X317088051Y-18415000D02*
X336138051Y-18415000D01*
X185423545Y-107846993D02*
X166662957Y-104538995D01*
X183787935Y-90793897D02*
X185789065Y-91146750D01*
X169958288Y-100477520D02*
X169605435Y-102478650D01*
X169605435Y-102478650D02*
X171606565Y-102831503D01*
X171678447Y-90722015D02*
X172031300Y-88720885D01*
X183363200Y-104904515D02*
X183716053Y-102903385D01*
X172031300Y-88720885D02*
X174032430Y-89073738D01*
X181362070Y-104551662D02*
X183363200Y-104904515D01*
X185789065Y-91146750D02*
X185436212Y-93147880D01*
X166662957Y-104538995D02*
X169970955Y-85778407D01*
X188731543Y-89086405D02*
X185423545Y-107846993D01*
X169970955Y-85778407D02*
X188731543Y-89086405D01*
X345663051Y-37465000D02*
X326613051Y-37465000D01*
X341091051Y-20955000D02*
X343123051Y-20955000D01*
X329153051Y-32893000D02*
X329153051Y-34925000D01*
X329153051Y-34925000D02*
X331185051Y-34925000D01*
X329153051Y-22987000D02*
X329153051Y-20955000D01*
X343123051Y-34925000D02*
X343123051Y-32893000D01*
X329153051Y-20955000D02*
X331185051Y-20955000D01*
X341091051Y-34925000D02*
X343123051Y-34925000D01*
X343123051Y-20955000D02*
X343123051Y-22987000D01*
X326613051Y-37465000D02*
X326613051Y-18415000D01*
X345663051Y-18415000D02*
X345663051Y-37465000D01*
X326613051Y-18415000D02*
X345663051Y-18415000D01*
X74662551Y-37465000D02*
X55612551Y-37465000D01*
X70090551Y-20955000D02*
X72122551Y-20955000D01*
X58152551Y-32893000D02*
X58152551Y-34925000D01*
X58152551Y-34925000D02*
X60184551Y-34925000D01*
X58152551Y-22987000D02*
X58152551Y-20955000D01*
X72122551Y-34925000D02*
X72122551Y-32893000D01*
X58152551Y-20955000D02*
X60184551Y-20955000D01*
X70090551Y-34925000D02*
X72122551Y-34925000D01*
X72122551Y-20955000D02*
X72122551Y-22987000D01*
X55612551Y-37465000D02*
X55612551Y-18415000D01*
X74662551Y-18415000D02*
X74662551Y-37465000D01*
X55612551Y-18415000D02*
X74662551Y-18415000D01*
X165700046Y-123713093D02*
X146939458Y-120405095D01*
X164064436Y-106659997D02*
X166065566Y-107012850D01*
X150234789Y-116343620D02*
X149881936Y-118344750D01*
X149881936Y-118344750D02*
X151883066Y-118697603D01*
X151954948Y-106588115D02*
X152307801Y-104586985D01*
X163639701Y-120770615D02*
X163992554Y-118769485D01*
X152307801Y-104586985D02*
X154308931Y-104939838D01*
X161638571Y-120417762D02*
X163639701Y-120770615D01*
X166065566Y-107012850D02*
X165712713Y-109013980D01*
X146939458Y-120405095D02*
X150247456Y-101644507D01*
X169008044Y-104952505D02*
X165700046Y-123713093D01*
X150247456Y-101644507D02*
X169008044Y-104952505D01*
X362331950Y-94615000D02*
X343281950Y-94615000D01*
X357759950Y-78105000D02*
X359791950Y-78105000D01*
X345821950Y-90043000D02*
X345821950Y-92075000D01*
X345821950Y-92075000D02*
X347853950Y-92075000D01*
X345821950Y-80137000D02*
X345821950Y-78105000D01*
X359791950Y-92075000D02*
X359791950Y-90043000D01*
X345821950Y-78105000D02*
X347853950Y-78105000D01*
X357759950Y-92075000D02*
X359791950Y-92075000D01*
X359791950Y-78105000D02*
X359791950Y-80137000D01*
X343281950Y-94615000D02*
X343281950Y-75565000D01*
X362331950Y-75565000D02*
X362331950Y-94615000D01*
X343281950Y-75565000D02*
X362331950Y-75565000D01*
X138377645Y-60863793D02*
X119617057Y-57555795D01*
X136742035Y-43810697D02*
X138743165Y-44163550D01*
X122912388Y-53494320D02*
X122559535Y-55495450D01*
X122559535Y-55495450D02*
X124560665Y-55848303D01*
X124632547Y-43738815D02*
X124985400Y-41737685D01*
X136317300Y-57921315D02*
X136670153Y-55920185D01*
X124985400Y-41737685D02*
X126986530Y-42090538D01*
X134316170Y-57568462D02*
X136317300Y-57921315D01*
X138743165Y-44163550D02*
X138390312Y-46164680D01*
X119617057Y-57555795D02*
X122925055Y-38795207D01*
X141685643Y-42103205D02*
X138377645Y-60863793D01*
X122925055Y-38795207D02*
X141685643Y-42103205D01*
X140733845Y-80623093D02*
X121973257Y-77315095D01*
X139098235Y-63569997D02*
X141099365Y-63922850D01*
X125268588Y-73253620D02*
X124915735Y-75254750D01*
X124915735Y-75254750D02*
X126916865Y-75607603D01*
X126988747Y-63498115D02*
X127341600Y-61496985D01*
X138673500Y-77680615D02*
X139026353Y-75679485D01*
X127341600Y-61496985D02*
X129342730Y-61849838D01*
X136672370Y-77327762D02*
X138673500Y-77680615D01*
X141099365Y-63922850D02*
X140746512Y-65923980D01*
X121973257Y-77315095D02*
X125281255Y-58554507D01*
X144041843Y-61862505D02*
X140733845Y-80623093D01*
X125281255Y-58554507D02*
X144041843Y-61862505D01*
X157138245Y-64171793D02*
X138377657Y-60863795D01*
X155502635Y-47118697D02*
X157503765Y-47471550D01*
X141672988Y-56802320D02*
X141320135Y-58803450D01*
X141320135Y-58803450D02*
X143321265Y-59156303D01*
X143393147Y-47046815D02*
X143746000Y-45045685D01*
X155077900Y-61229315D02*
X155430753Y-59228185D01*
X143746000Y-45045685D02*
X145747130Y-45398538D01*
X153076770Y-60876462D02*
X155077900Y-61229315D01*
X157503765Y-47471550D02*
X157150912Y-49472680D01*
X138377657Y-60863795D02*
X141685655Y-42103207D01*
X160446243Y-45411205D02*
X157138245Y-64171793D01*
X141685655Y-42103207D02*
X160446243Y-45411205D01*
X235286294Y-120405095D02*
X216525706Y-123713093D01*
X227916821Y-104939838D02*
X229917951Y-104586985D01*
X218233198Y-118769485D02*
X218586051Y-120770615D01*
X218586051Y-120770615D02*
X220587181Y-120417762D01*
X216513039Y-109013980D02*
X216160186Y-107012850D01*
X232343816Y-118344750D02*
X231990963Y-116343620D01*
X216160186Y-107012850D02*
X218161316Y-106659997D01*
X230342686Y-118697603D02*
X232343816Y-118344750D01*
X229917951Y-104586985D02*
X230270804Y-106588115D01*
X216525706Y-123713093D02*
X213217708Y-104952505D01*
X231978296Y-101644507D02*
X235286294Y-120405095D01*
X213217708Y-104952505D02*
X231978296Y-101644507D01*
X166662945Y-104538993D02*
X147902357Y-101230995D01*
X165027335Y-87485897D02*
X167028465Y-87838750D01*
X151197688Y-97169520D02*
X150844835Y-99170650D01*
X150844835Y-99170650D02*
X152845965Y-99523503D01*
X152917847Y-87414015D02*
X153270700Y-85412885D01*
X164602600Y-101596515D02*
X164955453Y-99595385D01*
X153270700Y-85412885D02*
X155271830Y-85765738D01*
X162601470Y-101243662D02*
X164602600Y-101596515D01*
X167028465Y-87838750D02*
X166675612Y-89839880D01*
X147902357Y-101230995D02*
X151210355Y-82470407D01*
X169970943Y-85778405D02*
X166662945Y-104538993D01*
X151210355Y-82470407D02*
X169970943Y-85778405D01*
X278994943Y-74010294D02*
X260234355Y-77318292D01*
X271625470Y-58545037D02*
X273626600Y-58192184D01*
X261941847Y-72374684D02*
X262294700Y-74375814D01*
X262294700Y-74375814D02*
X264295830Y-74022961D01*
X260221688Y-62619179D02*
X259868835Y-60618049D01*
X276052465Y-71949949D02*
X275699612Y-69948819D01*
X259868835Y-60618049D02*
X261869965Y-60265196D01*
X274051335Y-72302802D02*
X276052465Y-71949949D01*
X273626600Y-58192184D02*
X273979453Y-60193314D01*
X260234355Y-77318292D02*
X256926357Y-58557704D01*
X275686945Y-55249706D02*
X278994943Y-74010294D01*
X256926357Y-58557704D02*
X275686945Y-55249706D01*
X131248146Y-40262793D02*
X112487558Y-36954795D01*
X129612536Y-23209697D02*
X131613666Y-23562550D01*
X115782889Y-32893320D02*
X115430036Y-34894450D01*
X115430036Y-34894450D02*
X117431166Y-35247303D01*
X117503048Y-23137815D02*
X117855901Y-21136685D01*
X129187801Y-37320315D02*
X129540654Y-35319185D01*
X117855901Y-21136685D02*
X119857031Y-21489538D01*
X127186671Y-36967462D02*
X129187801Y-37320315D01*
X131613666Y-23562550D02*
X131260813Y-25563680D01*
X112487558Y-36954795D02*
X115795556Y-18194207D01*
X134556144Y-21502205D02*
X131248146Y-40262793D01*
X115795556Y-18194207D02*
X134556144Y-21502205D01*
G36*
X310080300Y-102006400D02*
G01*
X310080300Y-101396800D01*
X310689900Y-101396800D01*
X310080300Y-102006400D01*
G37*
D12*
X310080300Y-102006400D02*
X310080300Y-101396800D01*
X310689900Y-101396800D01*
X310080300Y-102006400D01*
D11*
X310062500Y-101390000D02*
X310062500Y-102540000D01*
X317362500Y-101390000D02*
X310062500Y-101390000D01*
X317362500Y-106890000D02*
X310062500Y-106890000D01*
X161009899Y-122886093D02*
X142249311Y-119578095D01*
X159374289Y-105832997D02*
X161375419Y-106185850D01*
X145544642Y-115516620D02*
X145191789Y-117517750D01*
X145191789Y-117517750D02*
X147192919Y-117870603D01*
X147264801Y-105761115D02*
X147617654Y-103759985D01*
X158949554Y-119943615D02*
X159302407Y-117942485D01*
X147617654Y-103759985D02*
X149618784Y-104112838D01*
X156948424Y-119590762D02*
X158949554Y-119943615D01*
X161375419Y-106185850D02*
X161022566Y-108186980D01*
X142249311Y-119578095D02*
X145557309Y-100817507D01*
X164317897Y-104125505D02*
X161009899Y-122886093D01*
X145557309Y-100817507D02*
X164317897Y-104125505D01*
X77043750Y-75565000D02*
X57993750Y-75565000D01*
X72471750Y-59055000D02*
X74503750Y-59055000D01*
X60533750Y-70993000D02*
X60533750Y-73025000D01*
X60533750Y-73025000D02*
X62565750Y-73025000D01*
X60533750Y-61087000D02*
X60533750Y-59055000D01*
X74503750Y-73025000D02*
X74503750Y-70993000D01*
X60533750Y-59055000D02*
X62565750Y-59055000D01*
X72471750Y-73025000D02*
X74503750Y-73025000D01*
X74503750Y-59055000D02*
X74503750Y-61087000D01*
X57993750Y-75565000D02*
X57993750Y-56515000D01*
X77043750Y-56515000D02*
X77043750Y-75565000D01*
X57993750Y-56515000D02*
X77043750Y-56515000D01*
X112762551Y-35524801D02*
X93712551Y-35524801D01*
X108190551Y-19014801D02*
X110222551Y-19014801D01*
X96252551Y-30952801D02*
X96252551Y-32984801D01*
X96252551Y-32984801D02*
X98284551Y-32984801D01*
X96252551Y-21046801D02*
X96252551Y-19014801D01*
X110222551Y-32984801D02*
X110222551Y-30952801D01*
X96252551Y-19014801D02*
X98284551Y-19014801D01*
X108190551Y-32984801D02*
X110222551Y-32984801D01*
X110222551Y-19014801D02*
X110222551Y-21046801D01*
X93712551Y-35524801D02*
X93712551Y-16474801D01*
X112762551Y-16474801D02*
X112762551Y-35524801D01*
X93712551Y-16474801D02*
X112762551Y-16474801D01*
X121973245Y-77315093D02*
X103212657Y-74007095D01*
X120337635Y-60261997D02*
X122338765Y-60614850D01*
X106507988Y-69945620D02*
X106155135Y-71946750D01*
X106155135Y-71946750D02*
X108156265Y-72299603D01*
X108228147Y-60190115D02*
X108581000Y-58188985D01*
X119912900Y-74372615D02*
X120265753Y-72371485D01*
X108581000Y-58188985D02*
X110582130Y-58541838D01*
X117911770Y-74019762D02*
X119912900Y-74372615D01*
X122338765Y-60614850D02*
X121985912Y-62615980D01*
X103212657Y-74007095D02*
X106520655Y-55246507D01*
X125281243Y-58554505D02*
X121973245Y-77315093D01*
X106520655Y-55246507D02*
X125281243Y-58554505D01*
X178255045Y-87239093D02*
X159494457Y-83931095D01*
X176619435Y-70185997D02*
X178620565Y-70538850D01*
X162789788Y-79869620D02*
X162436935Y-81870750D01*
X162436935Y-81870750D02*
X164438065Y-82223603D01*
X164509947Y-70114115D02*
X164862800Y-68112985D01*
X176194700Y-84296615D02*
X176547553Y-82295485D01*
X164862800Y-68112985D02*
X166863930Y-68465838D01*
X174193570Y-83943762D02*
X176194700Y-84296615D01*
X178620565Y-70538850D02*
X178267712Y-72539980D01*
X159494457Y-83931095D02*
X162802455Y-65170507D01*
X181563043Y-68478505D02*
X178255045Y-87239093D01*
X162802455Y-65170507D02*
X181563043Y-68478505D01*
X239976440Y-119578095D02*
X221215852Y-122886093D01*
X232606967Y-104112838D02*
X234608097Y-103759985D01*
X222923344Y-117942485D02*
X223276197Y-119943615D01*
X223276197Y-119943615D02*
X225277327Y-119590762D01*
X221203185Y-108186980D02*
X220850332Y-106185850D01*
X237033962Y-117517750D02*
X236681109Y-115516620D01*
X220850332Y-106185850D02*
X222851462Y-105832997D01*
X235032832Y-117870603D02*
X237033962Y-117517750D01*
X234608097Y-103759985D02*
X234960950Y-105761115D01*
X221215852Y-122886093D02*
X217907854Y-104125505D01*
X236668442Y-100817507D02*
X239976440Y-119578095D01*
X217907854Y-104125505D02*
X236668442Y-100817507D01*
X77043750Y-56515000D02*
X57993750Y-56515000D01*
X72471750Y-40005000D02*
X74503750Y-40005000D01*
X60533750Y-51943000D02*
X60533750Y-53975000D01*
X60533750Y-53975000D02*
X62565750Y-53975000D01*
X60533750Y-42037000D02*
X60533750Y-40005000D01*
X74503750Y-53975000D02*
X74503750Y-51943000D01*
X60533750Y-40005000D02*
X62565750Y-40005000D01*
X72471750Y-53975000D02*
X74503750Y-53975000D01*
X74503750Y-40005000D02*
X74503750Y-42037000D01*
X57993750Y-56515000D02*
X57993750Y-37465000D01*
X77043750Y-37465000D02*
X77043750Y-56515000D01*
X57993750Y-37465000D02*
X77043750Y-37465000D01*
X45978451Y-37465000D02*
X26928451Y-37465000D01*
X41406451Y-20955000D02*
X43438451Y-20955000D01*
X29468451Y-32893000D02*
X29468451Y-34925000D01*
X29468451Y-34925000D02*
X31500451Y-34925000D01*
X29468451Y-22987000D02*
X29468451Y-20955000D01*
X43438451Y-34925000D02*
X43438451Y-32893000D01*
X29468451Y-20955000D02*
X31500451Y-20955000D01*
X41406451Y-34925000D02*
X43438451Y-34925000D01*
X43438451Y-20955000D02*
X43438451Y-22987000D01*
X26928451Y-37465000D02*
X26928451Y-18415000D01*
X45978451Y-18415000D02*
X45978451Y-37465000D01*
X26928451Y-18415000D02*
X45978451Y-18415000D01*
X69900000Y-94615000D02*
X50850000Y-94615000D01*
X65328000Y-78105000D02*
X67360000Y-78105000D01*
X53390000Y-90043000D02*
X53390000Y-92075000D01*
X53390000Y-92075000D02*
X55422000Y-92075000D01*
X53390000Y-80137000D02*
X53390000Y-78105000D01*
X67360000Y-92075000D02*
X67360000Y-90043000D01*
X53390000Y-78105000D02*
X55422000Y-78105000D01*
X65328000Y-92075000D02*
X67360000Y-92075000D01*
X67360000Y-78105000D02*
X67360000Y-80137000D01*
X50850000Y-94615000D02*
X50850000Y-75565000D01*
X69900000Y-75565000D02*
X69900000Y-94615000D01*
X50850000Y-75565000D02*
X69900000Y-75565000D01*
X222757844Y-45238595D02*
X203997256Y-48546593D01*
X215388371Y-29773338D02*
X217389501Y-29420485D01*
X205704748Y-43602985D02*
X206057601Y-45604115D01*
X206057601Y-45604115D02*
X208058731Y-45251262D01*
X203984589Y-33847480D02*
X203631736Y-31846350D01*
X219815366Y-43178250D02*
X219462513Y-41177120D01*
X203631736Y-31846350D02*
X205632866Y-31493497D01*
X217814236Y-43531103D02*
X219815366Y-43178250D01*
X217389501Y-29420485D02*
X217742354Y-31421615D01*
X203997256Y-48546593D02*
X200689258Y-29786005D01*
X219449846Y-26478007D02*
X222757844Y-45238595D01*
X200689258Y-29786005D02*
X219449846Y-26478007D01*
X150008746Y-43570793D02*
X131248158Y-40262795D01*
X148373136Y-26517697D02*
X150374266Y-26870550D01*
X134543489Y-36201320D02*
X134190636Y-38202450D01*
X134190636Y-38202450D02*
X136191766Y-38555303D01*
X136263648Y-26445815D02*
X136616501Y-24444685D01*
X147948401Y-40628315D02*
X148301254Y-38627185D01*
X136616501Y-24444685D02*
X138617631Y-24797538D01*
X145947271Y-40275462D02*
X147948401Y-40628315D01*
X150374266Y-26870550D02*
X150021413Y-28871680D01*
X131248158Y-40262795D02*
X134556156Y-21502207D01*
X153316744Y-24810205D02*
X150008746Y-43570793D01*
X134556156Y-21502207D02*
X153316744Y-24810205D01*
X119617070Y-57555793D02*
X100856482Y-54247795D01*
X117981460Y-40502697D02*
X119982590Y-40855550D01*
X104151813Y-50186320D02*
X103798960Y-52187450D01*
X103798960Y-52187450D02*
X105800090Y-52540303D01*
X105871972Y-40430815D02*
X106224825Y-38429685D01*
X117556725Y-54613315D02*
X117909578Y-52612185D01*
X106224825Y-38429685D02*
X108225955Y-38782538D01*
X115555595Y-54260462D02*
X117556725Y-54613315D01*
X119982590Y-40855550D02*
X119629737Y-42856680D01*
X100856482Y-54247795D02*
X104164480Y-35487207D01*
X122925068Y-38795205D02*
X119617070Y-57555793D01*
X104164480Y-35487207D02*
X122925068Y-38795205D01*
X159494445Y-83931093D02*
X140733857Y-80623095D01*
X157858835Y-66877997D02*
X159859965Y-67230850D01*
X144029188Y-76561620D02*
X143676335Y-78562750D01*
X143676335Y-78562750D02*
X145677465Y-78915603D01*
X145749347Y-66806115D02*
X146102200Y-64804985D01*
X157434100Y-80988615D02*
X157786953Y-78987485D01*
X146102200Y-64804985D02*
X148103330Y-65157838D01*
X155432970Y-80635762D02*
X157434100Y-80988615D01*
X159859965Y-67230850D02*
X159507112Y-69231980D01*
X140733857Y-80623095D02*
X144041855Y-61862507D01*
X162802443Y-65170505D02*
X159494445Y-83931093D01*
X144041855Y-61862507D02*
X162802443Y-65170505D01*
X187529945Y-50186793D02*
X168769357Y-46878795D01*
X185894335Y-33133697D02*
X187895465Y-33486550D01*
X172064688Y-42817320D02*
X171711835Y-44818450D01*
X171711835Y-44818450D02*
X173712965Y-45171303D01*
X173784847Y-33061815D02*
X174137700Y-31060685D01*
X185469600Y-47244315D02*
X185822453Y-45243185D01*
X174137700Y-31060685D02*
X176138830Y-31413538D01*
X183468470Y-46891462D02*
X185469600Y-47244315D01*
X187895465Y-33486550D02*
X187542612Y-35487680D01*
X168769357Y-46878795D02*
X172077355Y-28118207D01*
X190837943Y-31426205D02*
X187529945Y-50186793D01*
X172077355Y-28118207D02*
X190837943Y-31426205D01*
X298038150Y-75564999D02*
X278988150Y-75564999D01*
X293466150Y-59054999D02*
X295498150Y-59054999D01*
X281528150Y-70992999D02*
X281528150Y-73024999D01*
X281528150Y-73024999D02*
X283560150Y-73024999D01*
X281528150Y-61086999D02*
X281528150Y-59054999D01*
X295498150Y-73024999D02*
X295498150Y-70992999D01*
X281528150Y-59054999D02*
X283560150Y-59054999D01*
X293466150Y-73024999D02*
X295498150Y-73024999D01*
X295498150Y-59054999D02*
X295498150Y-61086999D01*
X278988150Y-75564999D02*
X278988150Y-56514999D01*
X298038150Y-56514999D02*
X298038150Y-75564999D01*
X278988150Y-56514999D02*
X298038150Y-56514999D01*
X93712551Y-37465000D02*
X74662551Y-37465000D01*
X89140551Y-20955000D02*
X91172551Y-20955000D01*
X77202551Y-32893000D02*
X77202551Y-34925000D01*
X77202551Y-34925000D02*
X79234551Y-34925000D01*
X77202551Y-22987000D02*
X77202551Y-20955000D01*
X91172551Y-34925000D02*
X91172551Y-32893000D01*
X77202551Y-20955000D02*
X79234551Y-20955000D01*
X89140551Y-34925000D02*
X91172551Y-34925000D01*
X91172551Y-20955000D02*
X91172551Y-22987000D01*
X74662551Y-37465000D02*
X74662551Y-18415000D01*
X93712551Y-18415000D02*
X93712551Y-37465000D01*
X74662551Y-18415000D02*
X93712551Y-18415000D01*
X271844543Y-94614994D02*
X253083955Y-97922992D01*
X264475070Y-79149737D02*
X266476200Y-78796884D01*
X254791447Y-92979384D02*
X255144300Y-94980514D01*
X255144300Y-94980514D02*
X257145430Y-94627661D01*
X253071288Y-83223879D02*
X252718435Y-81222749D01*
X268902065Y-92554649D02*
X268549212Y-90553519D01*
X252718435Y-81222749D02*
X254719565Y-80869896D01*
X266900935Y-92907502D02*
X268902065Y-92554649D01*
X266476200Y-78796884D02*
X266829053Y-80798014D01*
X253083955Y-97922992D02*
X249775957Y-79162404D01*
X268536545Y-75854406D02*
X271844543Y-94614994D01*
X249775957Y-79162404D02*
X268536545Y-75854406D01*
X253103944Y-59231694D02*
X234343356Y-62539692D01*
X245734471Y-43766437D02*
X247735601Y-43413584D01*
X236050848Y-57596084D02*
X236403701Y-59597214D01*
X236403701Y-59597214D02*
X238404831Y-59244361D01*
X234330689Y-47840579D02*
X233977836Y-45839449D01*
X250161466Y-57171349D02*
X249808613Y-55170219D01*
X233977836Y-45839449D02*
X235978966Y-45486596D01*
X248160336Y-57524202D02*
X250161466Y-57171349D01*
X247735601Y-43413584D02*
X248088454Y-45414714D01*
X234343356Y-62539692D02*
X231035358Y-43779104D01*
X249795946Y-40471106D02*
X253103944Y-59231694D01*
X231035358Y-43779104D02*
X249795946Y-40471106D01*
G36*
X72092200Y-106883200D02*
G01*
X71482600Y-106883200D01*
X72092200Y-106273600D01*
X72092200Y-106883200D01*
G37*
D12*
X72092200Y-106883200D02*
X71482600Y-106883200D01*
X72092200Y-106273600D01*
X72092200Y-106883200D01*
D11*
X72110000Y-106890000D02*
X72110000Y-105740000D01*
X64810000Y-106890000D02*
X72110000Y-106890000D01*
X64810000Y-101390000D02*
X72110000Y-101390000D01*
X352806850Y-56515000D02*
X333756850Y-56515000D01*
X348234850Y-40005000D02*
X350266850Y-40005000D01*
X336296850Y-51943000D02*
X336296850Y-53975000D01*
X336296850Y-53975000D02*
X338328850Y-53975000D01*
X336296850Y-42037000D02*
X336296850Y-40005000D01*
X350266850Y-53975000D02*
X350266850Y-51943000D01*
X336296850Y-40005000D02*
X338328850Y-40005000D01*
X348234850Y-53975000D02*
X350266850Y-53975000D01*
X350266850Y-40005000D02*
X350266850Y-42037000D01*
X333756850Y-56515000D02*
X333756850Y-37465000D01*
X352806850Y-37465000D02*
X352806850Y-56515000D01*
X333756850Y-37465000D02*
X352806850Y-37465000D01*
X91331250Y-94615000D02*
X72281250Y-94615000D01*
X86759250Y-78105000D02*
X88791250Y-78105000D01*
X74821250Y-90043000D02*
X74821250Y-92075000D01*
X74821250Y-92075000D02*
X76853250Y-92075000D01*
X74821250Y-80137000D02*
X74821250Y-78105000D01*
X88791250Y-92075000D02*
X88791250Y-90043000D01*
X74821250Y-78105000D02*
X76853250Y-78105000D01*
X86759250Y-92075000D02*
X88791250Y-92075000D01*
X88791250Y-78105000D02*
X88791250Y-80137000D01*
X72281250Y-94615000D02*
X72281250Y-75565000D01*
X91331250Y-75565000D02*
X91331250Y-94615000D01*
X72281250Y-75565000D02*
X91331250Y-75565000D01*
%LPC*%
D13*
X171556094Y-51883742D03*
D14*
X168172550Y-56445499D03*
D13*
X164861499Y-53282488D03*
D15*
X163169727Y-55563366D03*
X173175373Y-57327632D03*
D13*
X31849552Y-80010000D03*
D14*
X29309552Y-85090000D03*
D13*
X25499552Y-82550000D03*
D15*
X24229552Y-85090000D03*
X34389552Y-85090000D03*
D13*
X232058729Y-67456109D03*
D14*
X230439450Y-72899999D03*
D13*
X226246266Y-71060187D03*
D15*
X225436627Y-73782132D03*
X235442273Y-72017866D03*
D13*
X164426594Y-31282743D03*
D14*
X161043050Y-35844500D03*
D13*
X157731999Y-32681489D03*
D15*
X156040227Y-34962367D03*
X166045873Y-36726633D03*
D13*
X206167729Y-52677510D03*
D14*
X204548450Y-58121400D03*
D13*
X200355266Y-56281588D03*
D15*
X199545627Y-59003533D03*
X209551273Y-57239267D03*
D13*
X224908329Y-88060809D03*
D14*
X223289050Y-93504699D03*
D13*
X219095866Y-91664887D03*
D15*
X218286227Y-94386832D03*
X228291873Y-92622566D03*
D13*
X123836044Y-101501043D03*
D14*
X120452500Y-106062800D03*
D13*
X117141449Y-102899789D03*
D15*
X115449677Y-105180667D03*
X125455323Y-106944933D03*
D13*
X143559594Y-85634943D03*
D14*
X140176050Y-90196700D03*
D13*
X136864999Y-87033689D03*
D15*
X135173227Y-89314567D03*
X145178873Y-91078833D03*
D13*
X291053050Y-20919800D03*
D14*
X288513050Y-25999800D03*
D13*
X284703050Y-23459800D03*
D15*
X283433050Y-25999800D03*
X293593050Y-25999800D03*
D13*
X348203051Y-22860000D03*
D14*
X345663051Y-27940000D03*
D13*
X341853051Y-25400000D03*
D15*
X340583051Y-27940000D03*
X350743051Y-27940000D03*
D13*
X329153250Y-80010000D03*
D14*
X326613250Y-85090000D03*
D13*
X322803250Y-82550000D03*
D15*
X321533250Y-85090000D03*
X331693250Y-85090000D03*
D13*
X263392379Y-100618909D03*
D14*
X261773100Y-106062799D03*
D13*
X257579916Y-104222987D03*
D15*
X256770277Y-106944932D03*
X266775923Y-105180666D03*
D16*
X81806150Y-92075000D03*
X57993650Y-92075000D03*
D17*
X81806150Y-76835000D03*
X57993650Y-76835000D03*
D13*
X124798994Y-82326943D03*
D14*
X121415450Y-86888700D03*
D13*
X118104399Y-83725689D03*
D15*
X116412627Y-86006567D03*
X126418273Y-87770833D03*
D13*
X232103429Y-28760410D03*
D14*
X230484150Y-34204300D03*
D13*
X226290966Y-32364488D03*
D15*
X225481327Y-35086433D03*
X235486973Y-33322167D03*
D13*
X310103051Y-22860000D03*
D14*
X307563051Y-27940000D03*
D13*
X303753051Y-25400000D03*
D15*
X302483051Y-27940000D03*
X312643051Y-27940000D03*
D16*
X324231950Y-78105000D03*
X348044450Y-78105000D03*
D17*
X324231950Y-93345000D03*
X348044450Y-93345000D03*
D13*
X283909450Y-80009999D03*
D14*
X281369450Y-85089999D03*
D13*
X277559450Y-82549999D03*
D15*
X276289450Y-85089999D03*
X286449450Y-85089999D03*
D13*
X250864030Y-25452409D03*
D14*
X249244751Y-30896299D03*
D13*
X245051567Y-29056487D03*
D15*
X244241928Y-31778432D03*
X254247574Y-30014166D03*
D13*
X213298129Y-70764110D03*
D14*
X211678850Y-76208000D03*
D13*
X207485666Y-74368188D03*
D15*
X206676027Y-77090133D03*
X216681673Y-75325867D03*
D13*
X310103150Y-60960000D03*
D14*
X307563150Y-66040000D03*
D13*
X303753150Y-63500000D03*
D15*
X302483150Y-66040000D03*
X312643150Y-66040000D03*
D13*
X206147729Y-91368810D03*
D14*
X204528450Y-96812700D03*
D13*
X200335266Y-94972888D03*
D15*
X199525627Y-97694833D03*
X209531273Y-95930567D03*
D13*
X283909350Y-40849500D03*
D14*
X281369350Y-45929500D03*
D13*
X277559350Y-43389500D03*
D15*
X276289350Y-45929500D03*
X286449350Y-45929500D03*
D13*
X341059401Y-60960000D03*
D14*
X338519401Y-66040000D03*
D13*
X334709401Y-63500000D03*
D15*
X333439401Y-66040000D03*
X343599401Y-66040000D03*
D13*
X302959450Y-80010000D03*
D14*
X300419450Y-85090000D03*
D13*
X296609450Y-82550000D03*
D15*
X295339450Y-85090000D03*
X305499450Y-85090000D03*
D13*
X287217450Y-99060000D03*
D14*
X284677450Y-104140000D03*
D13*
X280867450Y-101600000D03*
D15*
X279597450Y-104140000D03*
X289757450Y-104140000D03*
D13*
X224928330Y-49369510D03*
D14*
X223309051Y-54813400D03*
D13*
X219115867Y-52973588D03*
D15*
X218306228Y-55695533D03*
X228311874Y-53931267D03*
D13*
X93871250Y-41910000D03*
D14*
X91331250Y-46990000D03*
D13*
X87521250Y-44450000D03*
D15*
X86251250Y-46990000D03*
X96411250Y-46990000D03*
D13*
X262449530Y-42753509D03*
D14*
X260830251Y-48197399D03*
D13*
X256637067Y-46357587D03*
D15*
X255827428Y-49079532D03*
X265833074Y-47315266D03*
D13*
X269624629Y-22144411D03*
D14*
X268005350Y-27588301D03*
D13*
X263812166Y-25748489D03*
D15*
X263002527Y-28470434D03*
X273008173Y-26706168D03*
D13*
X72439900Y-80010000D03*
D14*
X69899900Y-85090000D03*
D13*
X66089900Y-82550000D03*
D15*
X64819900Y-85090000D03*
X74979900Y-85090000D03*
D13*
X34230852Y-60960000D03*
D14*
X31690852Y-66040000D03*
D13*
X27880852Y-63500000D03*
D15*
X26610852Y-66040000D03*
X36770852Y-66040000D03*
D18*
X56010000Y-102540000D03*
X56010000Y-105740000D03*
X60910000Y-102540000D03*
X60910000Y-105740000D03*
D13*
X36612152Y-41910000D03*
D14*
X34072152Y-46990000D03*
D13*
X30262152Y-44450000D03*
D15*
X28992152Y-46990000D03*
X39152152Y-46990000D03*
D13*
X243668929Y-84752809D03*
D14*
X242049650Y-90196699D03*
D13*
X237856466Y-88356887D03*
D15*
X237046827Y-91078832D03*
X247052473Y-89314566D03*
D13*
X322009350Y-41910000D03*
D14*
X319469350Y-46990000D03*
D13*
X315659350Y-44450000D03*
D15*
X314389350Y-46990000D03*
X324549350Y-46990000D03*
D13*
X338678200Y-80010000D03*
D14*
X336138200Y-85090000D03*
D13*
X332328200Y-82550000D03*
D15*
X331058200Y-85090000D03*
X341218200Y-85090000D03*
D13*
X96252450Y-60960000D03*
D14*
X93712450Y-66040000D03*
D13*
X89902450Y-63500000D03*
D15*
X88632450Y-66040000D03*
X98792450Y-66040000D03*
D16*
X168486186Y-121625181D03*
X145035451Y-117490184D03*
D17*
X171132584Y-106616711D03*
X147681849Y-102481713D03*
D13*
X103396150Y-80010000D03*
D14*
X100856150Y-85090000D03*
D13*
X97046150Y-82550000D03*
D15*
X95776150Y-85090000D03*
X105936150Y-85090000D03*
D18*
X306162500Y-105740000D03*
X306162500Y-102540000D03*
X301262500Y-105740000D03*
X301262500Y-102540000D03*
D13*
X100088150Y-99060000D03*
D14*
X97548150Y-104140000D03*
D13*
X93738150Y-101600000D03*
D15*
X92468150Y-104140000D03*
X102628150Y-104140000D03*
D13*
X302959350Y-41910000D03*
D14*
X300419350Y-46990000D03*
D13*
X296609350Y-44450000D03*
D15*
X295339350Y-46990000D03*
X305499350Y-46990000D03*
D13*
X250819329Y-64148110D03*
D14*
X249200050Y-69592000D03*
D13*
X245006866Y-67752188D03*
D15*
X244197227Y-70474133D03*
X254202873Y-68709867D03*
D18*
X76010000Y-102540000D03*
X76010000Y-105740000D03*
X80910000Y-102540000D03*
X80910000Y-105740000D03*
X326162500Y-105740000D03*
X326162500Y-102540000D03*
X321262500Y-105740000D03*
X321262500Y-102540000D03*
D13*
X329153051Y-22860000D03*
D14*
X326613051Y-27940000D03*
D13*
X322803051Y-25400000D03*
D15*
X321533051Y-27940000D03*
X331693051Y-27940000D03*
D13*
X181080794Y-92250943D03*
D14*
X177697250Y-96812700D03*
D13*
X174386199Y-93649689D03*
D15*
X172694427Y-95930567D03*
X182700073Y-97694833D03*
D13*
X338678051Y-22860000D03*
D14*
X336138051Y-27940000D03*
D13*
X332328051Y-25400000D03*
D15*
X331058051Y-27940000D03*
X341218051Y-27940000D03*
D13*
X67677551Y-22860000D03*
D14*
X65137551Y-27940000D03*
D13*
X61327551Y-25400000D03*
D15*
X60057551Y-27940000D03*
X70217551Y-27940000D03*
D13*
X161357295Y-108117043D03*
D14*
X157973751Y-112678800D03*
D13*
X154662700Y-109515789D03*
D15*
X152970928Y-111796667D03*
X162976574Y-113560933D03*
D13*
X355346950Y-80010000D03*
D14*
X352806950Y-85090000D03*
D13*
X348996950Y-82550000D03*
D15*
X347726950Y-85090000D03*
X357886950Y-85090000D03*
D13*
X134034894Y-45267743D03*
D14*
X130651350Y-49829500D03*
D13*
X127340299Y-46666489D03*
D15*
X125648527Y-48947367D03*
X135654173Y-50711633D03*
D13*
X136391094Y-65027043D03*
D14*
X133007550Y-69588800D03*
D13*
X129696499Y-66425789D03*
D15*
X128004727Y-68706667D03*
X138010373Y-70470933D03*
D16*
X324231801Y-20955000D03*
X348044301Y-20955000D03*
D17*
X324231801Y-36195000D03*
X348044301Y-36195000D03*
D13*
X152795494Y-48575743D03*
D14*
X149411950Y-53137500D03*
D13*
X146100899Y-49974489D03*
D15*
X144409127Y-52255367D03*
X154414773Y-54019633D03*
D16*
X163796039Y-120798181D03*
X140345304Y-116663184D03*
D17*
X166442437Y-105789711D03*
X142991702Y-101654713D03*
D13*
X225871280Y-107234910D03*
D14*
X224252001Y-112678800D03*
D13*
X220058817Y-110838988D03*
D15*
X219249178Y-113560933D03*
X229254824Y-111796667D03*
D13*
X162320194Y-88942943D03*
D14*
X158936650Y-93504700D03*
D13*
X155625599Y-90341689D03*
D15*
X153933827Y-92622567D03*
X163939473Y-94386833D03*
D13*
X269579929Y-60840109D03*
D14*
X267960650Y-66283999D03*
D13*
X263767466Y-64444187D03*
D15*
X262957827Y-67166132D03*
X272963473Y-65401866D03*
D16*
X241880447Y-116663184D03*
X218429712Y-120798181D03*
D17*
X239234049Y-101654713D03*
X215783314Y-105789711D03*
D13*
X126905395Y-24666743D03*
D14*
X123521851Y-29228500D03*
D13*
X120210800Y-26065489D03*
D15*
X118519028Y-28346367D03*
X128524674Y-30110633D03*
D18*
X316162500Y-105740000D03*
X316162500Y-102540000D03*
X311262500Y-105740000D03*
X311262500Y-102540000D03*
D13*
X156667148Y-107290043D03*
D14*
X153283604Y-111851800D03*
D13*
X149972553Y-108688789D03*
D15*
X148280781Y-110969667D03*
X158286427Y-112733933D03*
D13*
X70058750Y-60960000D03*
D14*
X67518750Y-66040000D03*
D13*
X63708750Y-63500000D03*
D15*
X62438750Y-66040000D03*
X72598750Y-66040000D03*
D13*
X105777551Y-20919801D03*
D14*
X103237551Y-25999801D03*
D13*
X99427551Y-23459801D03*
D15*
X98157551Y-25999801D03*
X108317551Y-25999801D03*
D13*
X117630494Y-61719043D03*
D14*
X114246950Y-66280800D03*
D13*
X110935899Y-63117789D03*
D15*
X109244127Y-65398667D03*
X119249773Y-67162933D03*
D16*
X237190301Y-117490184D03*
X213739566Y-121625181D03*
D17*
X234543903Y-102481713D03*
X211093168Y-106616711D03*
D13*
X173912294Y-71643043D03*
D14*
X170528750Y-76204800D03*
D13*
X167217699Y-73041789D03*
D15*
X165525927Y-75322667D03*
X175531573Y-77086933D03*
D13*
X230561426Y-106407910D03*
D14*
X228942147Y-111851800D03*
D13*
X224748963Y-110011988D03*
D15*
X223939324Y-112733933D03*
X233944970Y-110969667D03*
D13*
X70058750Y-41910000D03*
D14*
X67518750Y-46990000D03*
D13*
X63708750Y-44450000D03*
D15*
X62438750Y-46990000D03*
X72598750Y-46990000D03*
D13*
X38993451Y-22860000D03*
D14*
X36453451Y-27940000D03*
D13*
X32643451Y-25400000D03*
D15*
X31373451Y-27940000D03*
X41533451Y-27940000D03*
D13*
X62915000Y-80010000D03*
D14*
X60375000Y-85090000D03*
D13*
X56565000Y-82550000D03*
D15*
X55295000Y-85090000D03*
X65455000Y-85090000D03*
D13*
X213342830Y-32068410D03*
D14*
X211723551Y-37512300D03*
D13*
X207530367Y-35672488D03*
D15*
X206720728Y-38394433D03*
X216726374Y-36630167D03*
D13*
X145665995Y-27974743D03*
D14*
X142282451Y-32536500D03*
D13*
X138971400Y-29373489D03*
D15*
X137279628Y-31654367D03*
X147285274Y-33418633D03*
D13*
X115274319Y-41959743D03*
D14*
X111890775Y-46521500D03*
D13*
X108579724Y-43358489D03*
D15*
X106887952Y-45639367D03*
X116893598Y-47403633D03*
D13*
X155151694Y-68335043D03*
D14*
X151768150Y-72896800D03*
D13*
X148457099Y-69733789D03*
D15*
X146765327Y-72014667D03*
X156770973Y-73778933D03*
D13*
X183187194Y-34590743D03*
D14*
X179803650Y-39152500D03*
D13*
X176492599Y-35989489D03*
D15*
X174800827Y-38270367D03*
X184806473Y-40034633D03*
D19*
X191060000Y-105090000D03*
X48020000Y-104140000D03*
X334200000Y-104140000D03*
X50800000Y-27940000D03*
D20*
X179760000Y-117050000D03*
D21*
X46080000Y-66040000D03*
X191060000Y-72960000D03*
D20*
X202460000Y-117050000D03*
D22*
X191060000Y-83090000D03*
D13*
X291053150Y-60959999D03*
D14*
X288513150Y-66039999D03*
D13*
X284703150Y-63499999D03*
D15*
X283433150Y-66039999D03*
X293593150Y-66039999D03*
D16*
X350425651Y-73025000D03*
X326613151Y-73025000D03*
D17*
X350425651Y-57785000D03*
X326613151Y-57785000D03*
D13*
X86727551Y-22860000D03*
D14*
X84187551Y-27940000D03*
D13*
X80377551Y-25400000D03*
D15*
X79107551Y-27940000D03*
X89267551Y-27940000D03*
D13*
X262429529Y-81444809D03*
D14*
X260810250Y-86888699D03*
D13*
X256617066Y-85048887D03*
D15*
X255807427Y-87770832D03*
X265813073Y-86006566D03*
D13*
X243688930Y-46061509D03*
D14*
X242069651Y-51505399D03*
D13*
X237876467Y-49665587D03*
D15*
X237066828Y-52387532D03*
X247072474Y-50623266D03*
D18*
X66010000Y-102540000D03*
X66010000Y-105740000D03*
X70910000Y-102540000D03*
X70910000Y-105740000D03*
D13*
X345821850Y-41910000D03*
D14*
X343281850Y-46990000D03*
D13*
X339471850Y-44450000D03*
D15*
X338201850Y-46990000D03*
X348361850Y-46990000D03*
D13*
X84346250Y-80010000D03*
D14*
X81806250Y-85090000D03*
D13*
X77996250Y-82550000D03*
D15*
X76726250Y-85090000D03*
X86886250Y-85090000D03*
G36*
G01*
X198632720Y-44923722D02*
X198632720Y-44923722D01*
G75*
G02*
X197943234Y-45908410I-837087J-147601D01*
G01*
X197943234Y-45908410D01*
G75*
G02*
X196958546Y-45218924I-147601J837087D01*
G01*
X196958546Y-45218924D01*
G75*
G02*
X197648032Y-44234236I837087J147601D01*
G01*
X197648032Y-44234236D01*
G75*
G02*
X198632720Y-44923722I147601J-837087D01*
G01*
G37*
G36*
G01*
X198191654Y-42422310D02*
X198191654Y-42422310D01*
G75*
G02*
X197502168Y-43406998I-837087J-147601D01*
G01*
X197502168Y-43406998D01*
G75*
G02*
X196517480Y-42717512I-147601J837087D01*
G01*
X196517480Y-42717512D01*
G75*
G02*
X197206966Y-41732824I837087J147601D01*
G01*
X197206966Y-41732824D01*
G75*
G02*
X198191654Y-42422310I147601J-837087D01*
G01*
G37*
G36*
G01*
X197750587Y-39920899D02*
X197750587Y-39920899D01*
G75*
G02*
X197061101Y-40905587I-837087J-147601D01*
G01*
X197061101Y-40905587D01*
G75*
G02*
X196076413Y-40216101I-147601J837087D01*
G01*
X196076413Y-40216101D01*
G75*
G02*
X196765899Y-39231413I837087J147601D01*
G01*
X196765899Y-39231413D01*
G75*
G02*
X197750587Y-39920899I147601J-837087D01*
G01*
G37*
G36*
X197161920Y-36582400D02*
G01*
X197457122Y-38256574D01*
X195782948Y-38551776D01*
X195487746Y-36877602D01*
X197161920Y-36582400D01*
G37*
D23*
X195388500Y-23790000D03*
X186748500Y-23790000D03*
D24*
X195388500Y-27970000D03*
X186748500Y-27970000D03*
D25*
X188178500Y-27440000D03*
X193958500Y-27440000D03*
G36*
G01*
X203052808Y-48603289D02*
X203052808Y-48603289D01*
G75*
G02*
X202363322Y-49587977I-837087J-147601D01*
G01*
X202363322Y-49587977D01*
G75*
G02*
X201378634Y-48898491I-147601J837087D01*
G01*
X201378634Y-48898491D01*
G75*
G02*
X202068120Y-47913803I837087J147601D01*
G01*
X202068120Y-47913803D01*
G75*
G02*
X203052808Y-48603289I147601J-837087D01*
G01*
G37*
G36*
G01*
X205554220Y-48162222D02*
X205554220Y-48162222D01*
G75*
G02*
X204864734Y-49146910I-837087J-147601D01*
G01*
X204864734Y-49146910D01*
G75*
G02*
X203880046Y-48457424I-147601J837087D01*
G01*
X203880046Y-48457424D01*
G75*
G02*
X204569532Y-47472736I837087J147601D01*
G01*
X204569532Y-47472736D01*
G75*
G02*
X205554220Y-48162222I147601J-837087D01*
G01*
G37*
G36*
G01*
X202611742Y-46101877D02*
X202611742Y-46101877D01*
G75*
G02*
X201922256Y-47086565I-837087J-147601D01*
G01*
X201922256Y-47086565D01*
G75*
G02*
X200937568Y-46397079I-147601J837087D01*
G01*
X200937568Y-46397079D01*
G75*
G02*
X201627054Y-45412391I837087J147601D01*
G01*
X201627054Y-45412391D01*
G75*
G02*
X202611742Y-46101877I147601J-837087D01*
G01*
G37*
G36*
G01*
X205113153Y-45660811D02*
X205113153Y-45660811D01*
G75*
G02*
X204423667Y-46645499I-837087J-147601D01*
G01*
X204423667Y-46645499D01*
G75*
G02*
X203438979Y-45956013I-147601J837087D01*
G01*
X203438979Y-45956013D01*
G75*
G02*
X204128465Y-44971325I837087J147601D01*
G01*
X204128465Y-44971325D01*
G75*
G02*
X205113153Y-45660811I147601J-837087D01*
G01*
G37*
G36*
G01*
X202170675Y-43600465D02*
X202170675Y-43600465D01*
G75*
G02*
X201481189Y-44585153I-837087J-147601D01*
G01*
X201481189Y-44585153D01*
G75*
G02*
X200496501Y-43895667I-147601J837087D01*
G01*
X200496501Y-43895667D01*
G75*
G02*
X201185987Y-42910979I837087J147601D01*
G01*
X201185987Y-42910979D01*
G75*
G02*
X202170675Y-43600465I147601J-837087D01*
G01*
G37*
G36*
X204524486Y-42322312D02*
G01*
X204819688Y-43996486D01*
X203145514Y-44291688D01*
X202850312Y-42617514D01*
X204524486Y-42322312D01*
G37*
M02*
