G04 #@! TF.GenerationSoftware,KiCad,Pcbnew,(5.99.0-2612-g32a7d0025-dirty)*
G04 #@! TF.CreationDate,2020-08-15T16:40:13+02:00*
G04 #@! TF.ProjectId,BMEK_Solder,424d454b-5f53-46f6-9c64-65722e6b6963,1*
G04 #@! TF.SameCoordinates,Original*
G04 #@! TF.FileFunction,Soldermask,Top*
G04 #@! TF.FilePolarity,Negative*
%FSLAX46Y46*%
G04 Gerber Fmt 4.6, Leading zero omitted, Abs format (unit mm)*
G04 Created by KiCad (PCBNEW (5.99.0-2612-g32a7d0025-dirty)) date 2020-08-15 16:40:13*
%MOMM*%
%LPD*%
G01*
G04 APERTURE LIST*
%ADD10C,2.250000*%
%ADD11C,3.987800*%
%ADD12C,1.750000*%
%ADD13C,3.348000*%
%ADD14C,4.287800*%
%ADD15R,1.500000X1.000000*%
%ADD16C,3.800000*%
%ADD17C,6.500000*%
%ADD18C,5.350000*%
%ADD19C,9.000000*%
%ADD20O,1.000000X1.600000*%
%ADD21O,1.000000X2.100000*%
%ADD22C,0.650000*%
G04 APERTURE END LIST*
D10*
X171556094Y-51883742D03*
D11*
X168172550Y-56445499D03*
D10*
X164861499Y-53282488D03*
D12*
X163169727Y-55563366D03*
X173175373Y-57327632D03*
D10*
X31849552Y-80010000D03*
D11*
X29309552Y-85090000D03*
D10*
X25499552Y-82550000D03*
D12*
X24229552Y-85090000D03*
X34389552Y-85090000D03*
D10*
X232058729Y-67456109D03*
D11*
X230439450Y-72899999D03*
D10*
X226246266Y-71060187D03*
D12*
X225436627Y-73782132D03*
X235442273Y-72017866D03*
D10*
X164426594Y-31282743D03*
D11*
X161043050Y-35844500D03*
D10*
X157731999Y-32681489D03*
D12*
X156040227Y-34962367D03*
X166045873Y-36726633D03*
D10*
X206167729Y-52677510D03*
D11*
X204548450Y-58121400D03*
D10*
X200355266Y-56281588D03*
D12*
X199545627Y-59003533D03*
X209551273Y-57239267D03*
D10*
X224908329Y-88060809D03*
D11*
X223289050Y-93504699D03*
D10*
X219095866Y-91664887D03*
D12*
X218286227Y-94386832D03*
X228291873Y-92622566D03*
D10*
X123836044Y-101501043D03*
D11*
X120452500Y-106062800D03*
D10*
X117141449Y-102899789D03*
D12*
X115449677Y-105180667D03*
X125455323Y-106944933D03*
D10*
X143559594Y-85634943D03*
D11*
X140176050Y-90196700D03*
D10*
X136864999Y-87033689D03*
D12*
X135173227Y-89314567D03*
X145178873Y-91078833D03*
D10*
X291053050Y-20919800D03*
D11*
X288513050Y-25999800D03*
D10*
X284703050Y-23459800D03*
D12*
X283433050Y-25999800D03*
X293593050Y-25999800D03*
D10*
X348203051Y-22860000D03*
D11*
X345663051Y-27940000D03*
D10*
X341853051Y-25400000D03*
D12*
X340583051Y-27940000D03*
X350743051Y-27940000D03*
D10*
X329153250Y-80010000D03*
D11*
X326613250Y-85090000D03*
D10*
X322803250Y-82550000D03*
D12*
X321533250Y-85090000D03*
X331693250Y-85090000D03*
D10*
X263392379Y-100618909D03*
D11*
X261773100Y-106062799D03*
D10*
X257579916Y-104222987D03*
D12*
X256770277Y-106944932D03*
X266775923Y-105180666D03*
D13*
X81806150Y-92075000D03*
X57993650Y-92075000D03*
D14*
X81806150Y-76835000D03*
X57993650Y-76835000D03*
D10*
X124798994Y-82326943D03*
D11*
X121415450Y-86888700D03*
D10*
X118104399Y-83725689D03*
D12*
X116412627Y-86006567D03*
X126418273Y-87770833D03*
D10*
X232103429Y-28760410D03*
D11*
X230484150Y-34204300D03*
D10*
X226290966Y-32364488D03*
D12*
X225481327Y-35086433D03*
X235486973Y-33322167D03*
D10*
X310103051Y-22860000D03*
D11*
X307563051Y-27940000D03*
D10*
X303753051Y-25400000D03*
D12*
X302483051Y-27940000D03*
X312643051Y-27940000D03*
D13*
X324231950Y-78105000D03*
X348044450Y-78105000D03*
D14*
X324231950Y-93345000D03*
X348044450Y-93345000D03*
D10*
X283909450Y-80009999D03*
D11*
X281369450Y-85089999D03*
D10*
X277559450Y-82549999D03*
D12*
X276289450Y-85089999D03*
X286449450Y-85089999D03*
D10*
X250864030Y-25452409D03*
D11*
X249244751Y-30896299D03*
D10*
X245051567Y-29056487D03*
D12*
X244241928Y-31778432D03*
X254247574Y-30014166D03*
D10*
X213298129Y-70764110D03*
D11*
X211678850Y-76208000D03*
D10*
X207485666Y-74368188D03*
D12*
X206676027Y-77090133D03*
X216681673Y-75325867D03*
D10*
X310103150Y-60960000D03*
D11*
X307563150Y-66040000D03*
D10*
X303753150Y-63500000D03*
D12*
X302483150Y-66040000D03*
X312643150Y-66040000D03*
D10*
X206147729Y-91368810D03*
D11*
X204528450Y-96812700D03*
D10*
X200335266Y-94972888D03*
D12*
X199525627Y-97694833D03*
X209531273Y-95930567D03*
D10*
X283909350Y-40849500D03*
D11*
X281369350Y-45929500D03*
D10*
X277559350Y-43389500D03*
D12*
X276289350Y-45929500D03*
X286449350Y-45929500D03*
D10*
X341059401Y-60960000D03*
D11*
X338519401Y-66040000D03*
D10*
X334709401Y-63500000D03*
D12*
X333439401Y-66040000D03*
X343599401Y-66040000D03*
D10*
X302959450Y-80010000D03*
D11*
X300419450Y-85090000D03*
D10*
X296609450Y-82550000D03*
D12*
X295339450Y-85090000D03*
X305499450Y-85090000D03*
D10*
X287217450Y-99060000D03*
D11*
X284677450Y-104140000D03*
D10*
X280867450Y-101600000D03*
D12*
X279597450Y-104140000D03*
X289757450Y-104140000D03*
D10*
X224928330Y-49369510D03*
D11*
X223309051Y-54813400D03*
D10*
X219115867Y-52973588D03*
D12*
X218306228Y-55695533D03*
X228311874Y-53931267D03*
D10*
X93871250Y-41910000D03*
D11*
X91331250Y-46990000D03*
D10*
X87521250Y-44450000D03*
D12*
X86251250Y-46990000D03*
X96411250Y-46990000D03*
D10*
X262449530Y-42753509D03*
D11*
X260830251Y-48197399D03*
D10*
X256637067Y-46357587D03*
D12*
X255827428Y-49079532D03*
X265833074Y-47315266D03*
D10*
X269624629Y-22144411D03*
D11*
X268005350Y-27588301D03*
D10*
X263812166Y-25748489D03*
D12*
X263002527Y-28470434D03*
X273008173Y-26706168D03*
D10*
X72439900Y-80010000D03*
D11*
X69899900Y-85090000D03*
D10*
X66089900Y-82550000D03*
D12*
X64819900Y-85090000D03*
X74979900Y-85090000D03*
D10*
X34230852Y-60960000D03*
D11*
X31690852Y-66040000D03*
D10*
X27880852Y-63500000D03*
D12*
X26610852Y-66040000D03*
X36770852Y-66040000D03*
D15*
X56010000Y-102540000D03*
X56010000Y-105740000D03*
X60910000Y-102540000D03*
X60910000Y-105740000D03*
D10*
X36612152Y-41910000D03*
D11*
X34072152Y-46990000D03*
D10*
X30262152Y-44450000D03*
D12*
X28992152Y-46990000D03*
X39152152Y-46990000D03*
D10*
X243668929Y-84752809D03*
D11*
X242049650Y-90196699D03*
D10*
X237856466Y-88356887D03*
D12*
X237046827Y-91078832D03*
X247052473Y-89314566D03*
D10*
X322009350Y-41910000D03*
D11*
X319469350Y-46990000D03*
D10*
X315659350Y-44450000D03*
D12*
X314389350Y-46990000D03*
X324549350Y-46990000D03*
D10*
X338678200Y-80010000D03*
D11*
X336138200Y-85090000D03*
D10*
X332328200Y-82550000D03*
D12*
X331058200Y-85090000D03*
X341218200Y-85090000D03*
D10*
X96252450Y-60960000D03*
D11*
X93712450Y-66040000D03*
D10*
X89902450Y-63500000D03*
D12*
X88632450Y-66040000D03*
X98792450Y-66040000D03*
D13*
X168486186Y-121625181D03*
X145035451Y-117490184D03*
D14*
X171132584Y-106616711D03*
X147681849Y-102481713D03*
D10*
X103396150Y-80010000D03*
D11*
X100856150Y-85090000D03*
D10*
X97046150Y-82550000D03*
D12*
X95776150Y-85090000D03*
X105936150Y-85090000D03*
D15*
X306162500Y-105740000D03*
X306162500Y-102540000D03*
X301262500Y-105740000D03*
X301262500Y-102540000D03*
D10*
X100088150Y-99060000D03*
D11*
X97548150Y-104140000D03*
D10*
X93738150Y-101600000D03*
D12*
X92468150Y-104140000D03*
X102628150Y-104140000D03*
D10*
X302959350Y-41910000D03*
D11*
X300419350Y-46990000D03*
D10*
X296609350Y-44450000D03*
D12*
X295339350Y-46990000D03*
X305499350Y-46990000D03*
D10*
X250819329Y-64148110D03*
D11*
X249200050Y-69592000D03*
D10*
X245006866Y-67752188D03*
D12*
X244197227Y-70474133D03*
X254202873Y-68709867D03*
D15*
X76010000Y-102540000D03*
X76010000Y-105740000D03*
X80910000Y-102540000D03*
X80910000Y-105740000D03*
X326162500Y-105740000D03*
X326162500Y-102540000D03*
X321262500Y-105740000D03*
X321262500Y-102540000D03*
D10*
X329153051Y-22860000D03*
D11*
X326613051Y-27940000D03*
D10*
X322803051Y-25400000D03*
D12*
X321533051Y-27940000D03*
X331693051Y-27940000D03*
D10*
X181080794Y-92250943D03*
D11*
X177697250Y-96812700D03*
D10*
X174386199Y-93649689D03*
D12*
X172694427Y-95930567D03*
X182700073Y-97694833D03*
D10*
X338678051Y-22860000D03*
D11*
X336138051Y-27940000D03*
D10*
X332328051Y-25400000D03*
D12*
X331058051Y-27940000D03*
X341218051Y-27940000D03*
D10*
X67677551Y-22860000D03*
D11*
X65137551Y-27940000D03*
D10*
X61327551Y-25400000D03*
D12*
X60057551Y-27940000D03*
X70217551Y-27940000D03*
D10*
X161357295Y-108117043D03*
D11*
X157973751Y-112678800D03*
D10*
X154662700Y-109515789D03*
D12*
X152970928Y-111796667D03*
X162976574Y-113560933D03*
D10*
X355346950Y-80010000D03*
D11*
X352806950Y-85090000D03*
D10*
X348996950Y-82550000D03*
D12*
X347726950Y-85090000D03*
X357886950Y-85090000D03*
D10*
X134034894Y-45267743D03*
D11*
X130651350Y-49829500D03*
D10*
X127340299Y-46666489D03*
D12*
X125648527Y-48947367D03*
X135654173Y-50711633D03*
D10*
X136391094Y-65027043D03*
D11*
X133007550Y-69588800D03*
D10*
X129696499Y-66425789D03*
D12*
X128004727Y-68706667D03*
X138010373Y-70470933D03*
D13*
X324231801Y-20955000D03*
X348044301Y-20955000D03*
D14*
X324231801Y-36195000D03*
X348044301Y-36195000D03*
D10*
X152795494Y-48575743D03*
D11*
X149411950Y-53137500D03*
D10*
X146100899Y-49974489D03*
D12*
X144409127Y-52255367D03*
X154414773Y-54019633D03*
D13*
X163796039Y-120798181D03*
X140345304Y-116663184D03*
D14*
X166442437Y-105789711D03*
X142991702Y-101654713D03*
D10*
X225871280Y-107234910D03*
D11*
X224252001Y-112678800D03*
D10*
X220058817Y-110838988D03*
D12*
X219249178Y-113560933D03*
X229254824Y-111796667D03*
D10*
X162320194Y-88942943D03*
D11*
X158936650Y-93504700D03*
D10*
X155625599Y-90341689D03*
D12*
X153933827Y-92622567D03*
X163939473Y-94386833D03*
D10*
X269579929Y-60840109D03*
D11*
X267960650Y-66283999D03*
D10*
X263767466Y-64444187D03*
D12*
X262957827Y-67166132D03*
X272963473Y-65401866D03*
D13*
X241880447Y-116663184D03*
X218429712Y-120798181D03*
D14*
X239234049Y-101654713D03*
X215783314Y-105789711D03*
D10*
X126905395Y-24666743D03*
D11*
X123521851Y-29228500D03*
D10*
X120210800Y-26065489D03*
D12*
X118519028Y-28346367D03*
X128524674Y-30110633D03*
D15*
X316162500Y-105740000D03*
X316162500Y-102540000D03*
X311262500Y-105740000D03*
X311262500Y-102540000D03*
D10*
X156667148Y-107290043D03*
D11*
X153283604Y-111851800D03*
D10*
X149972553Y-108688789D03*
D12*
X148280781Y-110969667D03*
X158286427Y-112733933D03*
D10*
X70058750Y-60960000D03*
D11*
X67518750Y-66040000D03*
D10*
X63708750Y-63500000D03*
D12*
X62438750Y-66040000D03*
X72598750Y-66040000D03*
D10*
X105777551Y-20919801D03*
D11*
X103237551Y-25999801D03*
D10*
X99427551Y-23459801D03*
D12*
X98157551Y-25999801D03*
X108317551Y-25999801D03*
D10*
X117630494Y-61719043D03*
D11*
X114246950Y-66280800D03*
D10*
X110935899Y-63117789D03*
D12*
X109244127Y-65398667D03*
X119249773Y-67162933D03*
D13*
X237190301Y-117490184D03*
X213739566Y-121625181D03*
D14*
X234543903Y-102481713D03*
X211093168Y-106616711D03*
D10*
X173912294Y-71643043D03*
D11*
X170528750Y-76204800D03*
D10*
X167217699Y-73041789D03*
D12*
X165525927Y-75322667D03*
X175531573Y-77086933D03*
D10*
X230561426Y-106407910D03*
D11*
X228942147Y-111851800D03*
D10*
X224748963Y-110011988D03*
D12*
X223939324Y-112733933D03*
X233944970Y-110969667D03*
D10*
X70058750Y-41910000D03*
D11*
X67518750Y-46990000D03*
D10*
X63708750Y-44450000D03*
D12*
X62438750Y-46990000D03*
X72598750Y-46990000D03*
D10*
X38993451Y-22860000D03*
D11*
X36453451Y-27940000D03*
D10*
X32643451Y-25400000D03*
D12*
X31373451Y-27940000D03*
X41533451Y-27940000D03*
D10*
X62915000Y-80010000D03*
D11*
X60375000Y-85090000D03*
D10*
X56565000Y-82550000D03*
D12*
X55295000Y-85090000D03*
X65455000Y-85090000D03*
D10*
X213342830Y-32068410D03*
D11*
X211723551Y-37512300D03*
D10*
X207530367Y-35672488D03*
D12*
X206720728Y-38394433D03*
X216726374Y-36630167D03*
D10*
X145665995Y-27974743D03*
D11*
X142282451Y-32536500D03*
D10*
X138971400Y-29373489D03*
D12*
X137279628Y-31654367D03*
X147285274Y-33418633D03*
D10*
X115274319Y-41959743D03*
D11*
X111890775Y-46521500D03*
D10*
X108579724Y-43358489D03*
D12*
X106887952Y-45639367D03*
X116893598Y-47403633D03*
D10*
X155151694Y-68335043D03*
D11*
X151768150Y-72896800D03*
D10*
X148457099Y-69733789D03*
D12*
X146765327Y-72014667D03*
X156770973Y-73778933D03*
D10*
X183187194Y-34590743D03*
D11*
X179803650Y-39152500D03*
D10*
X176492599Y-35989489D03*
D12*
X174800827Y-38270367D03*
X184806473Y-40034633D03*
D16*
X191060000Y-105090000D03*
X48020000Y-104140000D03*
X334200000Y-104140000D03*
X50800000Y-27940000D03*
D17*
X179760000Y-117050000D03*
D18*
X46080000Y-66040000D03*
X191060000Y-72960000D03*
D17*
X202460000Y-117050000D03*
D19*
X191060000Y-83090000D03*
D10*
X291053150Y-60959999D03*
D11*
X288513150Y-66039999D03*
D10*
X284703150Y-63499999D03*
D12*
X283433150Y-66039999D03*
X293593150Y-66039999D03*
D13*
X350425651Y-73025000D03*
X326613151Y-73025000D03*
D14*
X350425651Y-57785000D03*
X326613151Y-57785000D03*
D10*
X86727551Y-22860000D03*
D11*
X84187551Y-27940000D03*
D10*
X80377551Y-25400000D03*
D12*
X79107551Y-27940000D03*
X89267551Y-27940000D03*
D10*
X262429529Y-81444809D03*
D11*
X260810250Y-86888699D03*
D10*
X256617066Y-85048887D03*
D12*
X255807427Y-87770832D03*
X265813073Y-86006566D03*
D10*
X243688930Y-46061509D03*
D11*
X242069651Y-51505399D03*
D10*
X237876467Y-49665587D03*
D12*
X237066828Y-52387532D03*
X247072474Y-50623266D03*
D15*
X66010000Y-102540000D03*
X66010000Y-105740000D03*
X70910000Y-102540000D03*
X70910000Y-105740000D03*
D10*
X345821850Y-41910000D03*
D11*
X343281850Y-46990000D03*
D10*
X339471850Y-44450000D03*
D12*
X338201850Y-46990000D03*
X348361850Y-46990000D03*
D10*
X84346250Y-80010000D03*
D11*
X81806250Y-85090000D03*
D10*
X77996250Y-82550000D03*
D12*
X76726250Y-85090000D03*
X86886250Y-85090000D03*
G36*
G01*
X198632720Y-44923722D02*
X198632720Y-44923722D01*
G75*
G02*
X197943234Y-45908410I-837087J-147601D01*
G01*
X197943234Y-45908410D01*
G75*
G02*
X196958546Y-45218924I-147601J837087D01*
G01*
X196958546Y-45218924D01*
G75*
G02*
X197648032Y-44234236I837087J147601D01*
G01*
X197648032Y-44234236D01*
G75*
G02*
X198632720Y-44923722I147601J-837087D01*
G01*
G37*
G36*
G01*
X198191654Y-42422310D02*
X198191654Y-42422310D01*
G75*
G02*
X197502168Y-43406998I-837087J-147601D01*
G01*
X197502168Y-43406998D01*
G75*
G02*
X196517480Y-42717512I-147601J837087D01*
G01*
X196517480Y-42717512D01*
G75*
G02*
X197206966Y-41732824I837087J147601D01*
G01*
X197206966Y-41732824D01*
G75*
G02*
X198191654Y-42422310I147601J-837087D01*
G01*
G37*
G36*
G01*
X197750587Y-39920899D02*
X197750587Y-39920899D01*
G75*
G02*
X197061101Y-40905587I-837087J-147601D01*
G01*
X197061101Y-40905587D01*
G75*
G02*
X196076413Y-40216101I-147601J837087D01*
G01*
X196076413Y-40216101D01*
G75*
G02*
X196765899Y-39231413I837087J147601D01*
G01*
X196765899Y-39231413D01*
G75*
G02*
X197750587Y-39920899I147601J-837087D01*
G01*
G37*
G36*
X197161920Y-36582400D02*
G01*
X197457122Y-38256574D01*
X195782948Y-38551776D01*
X195487746Y-36877602D01*
X197161920Y-36582400D01*
G37*
D20*
X195388500Y-23790000D03*
X186748500Y-23790000D03*
D21*
X195388500Y-27970000D03*
X186748500Y-27970000D03*
D22*
X188178500Y-27440000D03*
X193958500Y-27440000D03*
G36*
G01*
X203052808Y-48603289D02*
X203052808Y-48603289D01*
G75*
G02*
X202363322Y-49587977I-837087J-147601D01*
G01*
X202363322Y-49587977D01*
G75*
G02*
X201378634Y-48898491I-147601J837087D01*
G01*
X201378634Y-48898491D01*
G75*
G02*
X202068120Y-47913803I837087J147601D01*
G01*
X202068120Y-47913803D01*
G75*
G02*
X203052808Y-48603289I147601J-837087D01*
G01*
G37*
G36*
G01*
X205554220Y-48162222D02*
X205554220Y-48162222D01*
G75*
G02*
X204864734Y-49146910I-837087J-147601D01*
G01*
X204864734Y-49146910D01*
G75*
G02*
X203880046Y-48457424I-147601J837087D01*
G01*
X203880046Y-48457424D01*
G75*
G02*
X204569532Y-47472736I837087J147601D01*
G01*
X204569532Y-47472736D01*
G75*
G02*
X205554220Y-48162222I147601J-837087D01*
G01*
G37*
G36*
G01*
X202611742Y-46101877D02*
X202611742Y-46101877D01*
G75*
G02*
X201922256Y-47086565I-837087J-147601D01*
G01*
X201922256Y-47086565D01*
G75*
G02*
X200937568Y-46397079I-147601J837087D01*
G01*
X200937568Y-46397079D01*
G75*
G02*
X201627054Y-45412391I837087J147601D01*
G01*
X201627054Y-45412391D01*
G75*
G02*
X202611742Y-46101877I147601J-837087D01*
G01*
G37*
G36*
G01*
X205113153Y-45660811D02*
X205113153Y-45660811D01*
G75*
G02*
X204423667Y-46645499I-837087J-147601D01*
G01*
X204423667Y-46645499D01*
G75*
G02*
X203438979Y-45956013I-147601J837087D01*
G01*
X203438979Y-45956013D01*
G75*
G02*
X204128465Y-44971325I837087J147601D01*
G01*
X204128465Y-44971325D01*
G75*
G02*
X205113153Y-45660811I147601J-837087D01*
G01*
G37*
G36*
G01*
X202170675Y-43600465D02*
X202170675Y-43600465D01*
G75*
G02*
X201481189Y-44585153I-837087J-147601D01*
G01*
X201481189Y-44585153D01*
G75*
G02*
X200496501Y-43895667I-147601J837087D01*
G01*
X200496501Y-43895667D01*
G75*
G02*
X201185987Y-42910979I837087J147601D01*
G01*
X201185987Y-42910979D01*
G75*
G02*
X202170675Y-43600465I147601J-837087D01*
G01*
G37*
G36*
X204524486Y-42322312D02*
G01*
X204819688Y-43996486D01*
X203145514Y-44291688D01*
X202850312Y-42617514D01*
X204524486Y-42322312D01*
G37*
M02*
