G04 #@! TF.GenerationSoftware,KiCad,Pcbnew,(5.99.0-2612-g32a7d0025-dirty)*
G04 #@! TF.CreationDate,2020-08-15T16:40:13+02:00*
G04 #@! TF.ProjectId,BMEK_Solder,424d454b-5f53-46f6-9c64-65722e6b6963,1*
G04 #@! TF.SameCoordinates,Original*
G04 #@! TF.FileFunction,Profile,NP*
%FSLAX46Y46*%
G04 Gerber Fmt 4.6, Leading zero omitted, Abs format (unit mm)*
G04 Created by KiCad (PCBNEW (5.99.0-2612-g32a7d0025-dirty)) date 2020-08-15 16:40:13*
%MOMM*%
%LPD*%
G01*
G04 APERTURE LIST*
G04 #@! TA.AperFunction,Profile*
%ADD10C,0.100000*%
G04 #@! TD*
G04 APERTURE END LIST*
D10*
X70354293Y-109623661D02*
X70310434Y-109576454D01*
X66064611Y-110206216D02*
X66036356Y-110264100D01*
X312575090Y-109013515D02*
X312517205Y-109041767D01*
X358093980Y-29240825D02*
X358114959Y-29261493D01*
X82450543Y-17823835D02*
X82514702Y-17829361D01*
X84736954Y-16876758D02*
X84777198Y-16826478D01*
X30681562Y-14240454D02*
X30794399Y-14192079D01*
X67525016Y-108914905D02*
X67464628Y-108937352D01*
X316258667Y-110811294D02*
X316243779Y-110748608D01*
X358350195Y-29437699D02*
X358375943Y-29452029D01*
X82007701Y-17741381D02*
X82069986Y-17757798D01*
X311136248Y-110811294D02*
X311122898Y-110874356D01*
X21546871Y-50386292D02*
X21487015Y-50362357D01*
X80490085Y-16615816D02*
X80525234Y-16669848D01*
X23116879Y-53323586D02*
X23128674Y-53260215D01*
X80133297Y-15723588D02*
X80146646Y-15786650D01*
X25874356Y-117970565D02*
X25751714Y-117966046D01*
X360315571Y-24250507D02*
X360576929Y-27038283D01*
X66599303Y-109485294D02*
X66553158Y-109530308D01*
X184106660Y-22936343D02*
X184167261Y-22898066D01*
X356726024Y-117934479D02*
X356604102Y-117948000D01*
X82772272Y-17835683D02*
X82836655Y-17833311D01*
X316322456Y-117972081D02*
X316322456Y-117972081D01*
X80133297Y-15723588D02*
X80133297Y-15723588D01*
X23154663Y-53068769D02*
X23160185Y-53004605D01*
X21054440Y-55386036D02*
X21054440Y-55386036D01*
X357774516Y-28653802D02*
X357781185Y-28682482D01*
X22967495Y-51806931D02*
X22967495Y-51806931D01*
X23190155Y-21259727D02*
X23265774Y-21182464D01*
X83156536Y-17797835D02*
X83219906Y-17786036D01*
X81945847Y-17723443D02*
X82007701Y-17741381D01*
X23034832Y-53634865D02*
X23054283Y-53573471D01*
X22589813Y-22022931D02*
X22649042Y-21932543D01*
X66553158Y-109530308D02*
X66508151Y-109576446D01*
X22793885Y-51461990D02*
X22760090Y-51407136D01*
X25021664Y-117875996D02*
X25021664Y-117875996D01*
X315880066Y-109928105D02*
X315880066Y-109928105D01*
X316122639Y-110381924D02*
X316122639Y-110381924D01*
X357798396Y-117679825D02*
X357682381Y-117719734D01*
X315880066Y-109928105D02*
X315843599Y-109874952D01*
X359190210Y-116913779D02*
X359092572Y-116988069D01*
X80638443Y-16826478D02*
X80678684Y-16876758D01*
X22611731Y-51196471D02*
X22571488Y-51146191D01*
X80102597Y-15532780D02*
X80111266Y-15596605D01*
X80456286Y-16560962D02*
X80490085Y-16615816D01*
X308608265Y-17703997D02*
X308669659Y-17723446D01*
X197668102Y-22700812D02*
X197668102Y-22700812D01*
X315553612Y-109530316D02*
X315507477Y-109485299D01*
X358520083Y-27274743D02*
X358492703Y-27285540D01*
X81249477Y-17394083D02*
X81249477Y-17394083D01*
X310376348Y-17660596D02*
X310436199Y-17636661D01*
X314209568Y-108811909D02*
X314209568Y-108811909D01*
X360349662Y-50496435D02*
X360293241Y-50527487D01*
X80282650Y-16216020D02*
X80282650Y-16216020D01*
X308486964Y-17660596D02*
X308547357Y-17683044D01*
X316209425Y-110624472D02*
X316189976Y-110563078D01*
X312997313Y-108856566D02*
X312935460Y-108874504D01*
X196928986Y-22265114D02*
X196994421Y-22294336D01*
X358385882Y-27335443D02*
X358385882Y-27335443D01*
X69413815Y-108961285D02*
X69353958Y-108937352D01*
X80146646Y-15786650D02*
X80161534Y-15849336D01*
X69646675Y-109071427D02*
X69589513Y-109041767D01*
X68473749Y-108762263D02*
X68409298Y-108761471D01*
X366693195Y-109453289D02*
X366600169Y-109554316D01*
X171025738Y-23458169D02*
X171025738Y-23458169D01*
X21950703Y-23504819D02*
X21978054Y-23400236D01*
X199205752Y-23398884D02*
X199276394Y-23411310D01*
X85219750Y-15973473D02*
X85237689Y-15911620D01*
X359557927Y-54476761D02*
X359599390Y-54526039D01*
X22724941Y-51353104D02*
X22688476Y-51299950D01*
X24901553Y-117850566D02*
X24782153Y-117822207D01*
X358144961Y-27503418D02*
X358123311Y-27523337D01*
X314581755Y-108914905D02*
X314520847Y-108893953D01*
X21365711Y-50318957D02*
X21304318Y-50299508D01*
X358034232Y-29175888D02*
X358053608Y-29198013D01*
X198258701Y-23076865D02*
X198322923Y-23108755D01*
X21606113Y-55211260D02*
X21664688Y-55184429D01*
X85304376Y-15596605D02*
X85313045Y-15532780D01*
X30794399Y-14192079D02*
X30794399Y-14192079D01*
X358962079Y-52811478D02*
X358962079Y-52811478D01*
X360293241Y-55095470D02*
X360349662Y-55126522D01*
X81763152Y-17660593D02*
X81823544Y-17683041D01*
X311668304Y-109721186D02*
X311628062Y-109771467D01*
X197493471Y-22574878D02*
X197552500Y-22615631D01*
X69758738Y-109134912D02*
X69703092Y-109102479D01*
X70983822Y-110874356D02*
X70983822Y-110874356D01*
X360128706Y-50628872D02*
X360128706Y-50628872D01*
X363239317Y-55436478D02*
X363239317Y-55436478D01*
X311151136Y-110748608D02*
X311136248Y-110811294D01*
X352879314Y-15190200D02*
X352967192Y-15275946D01*
X14849732Y-108680661D02*
X14780943Y-108561735D01*
X357750261Y-28302511D02*
X357748317Y-28331901D01*
X85022831Y-16448892D02*
X85052488Y-16391727D01*
X25507038Y-117947996D02*
X25385115Y-117934475D01*
X312053492Y-15340320D02*
X312055865Y-15275933D01*
X20542355Y-50186474D02*
X20542355Y-50186474D01*
X359872519Y-50823790D02*
X359824266Y-50866456D01*
X309688951Y-17823837D02*
X309752960Y-17816739D01*
X65812743Y-111001339D02*
X65804074Y-111065165D01*
X350527226Y-13932983D02*
X350646630Y-13961341D01*
X315261201Y-109278073D02*
X315208983Y-109240329D01*
X29172299Y-15275942D02*
X29260181Y-15190196D01*
X31974265Y-13865583D02*
X32095839Y-13849073D01*
X311903224Y-16095778D02*
X311924176Y-16034870D01*
X359599390Y-54526039D02*
X359642056Y-54574292D01*
X84219319Y-17357616D02*
X84271536Y-17319872D01*
X29535877Y-14946424D02*
X29631650Y-14869773D01*
X357799902Y-28042662D02*
X357791562Y-28070924D01*
X351896109Y-14461022D02*
X352002108Y-14522799D01*
X311628062Y-109771467D02*
X311589060Y-109822727D01*
X358689042Y-27224354D02*
X358660389Y-27231020D01*
X14594637Y-108194446D02*
X14539332Y-108068743D01*
X357986090Y-27677050D02*
X357968729Y-27700833D01*
X313122283Y-108825260D02*
X313059596Y-108840149D01*
X306806656Y-13811478D02*
X306806656Y-15211478D01*
X359766139Y-22396386D02*
X359815285Y-22492687D01*
X20991070Y-55397835D02*
X21054440Y-55386036D01*
X358962871Y-52875933D02*
X358965243Y-52940319D01*
X22109841Y-22988711D02*
X22148295Y-22887760D01*
X307486635Y-16974292D02*
X307530485Y-17021498D01*
X359428702Y-21842980D02*
X359428702Y-21842980D01*
X21487015Y-50362357D02*
X21426619Y-50339910D01*
X182768118Y-23422286D02*
X182839001Y-23411310D01*
X314642149Y-108937352D02*
X314581755Y-108914905D01*
X310611909Y-17556181D02*
X310669074Y-17526521D01*
X20542355Y-55436474D02*
X20606806Y-55435683D01*
X84422344Y-17199165D02*
X84470593Y-17156498D01*
X82386538Y-17816737D02*
X82450543Y-17823835D01*
X367758590Y-107551869D02*
X367717383Y-107682874D01*
X22710232Y-21843424D02*
X22773334Y-21755650D01*
X67585919Y-108893953D02*
X67525016Y-108914905D01*
X183326586Y-23294274D02*
X183394726Y-23271881D01*
X84322793Y-17280870D02*
X84373070Y-17240628D01*
X310436199Y-17636661D02*
X310495446Y-17611265D01*
X358891868Y-117129429D02*
X358891868Y-117129429D01*
X358027434Y-117591481D02*
X357913431Y-117637068D01*
X67286960Y-109013515D02*
X67229074Y-109041767D01*
X311185490Y-110624472D02*
X311167553Y-110686325D01*
X309880397Y-17797837D02*
X309943768Y-17786039D01*
X69813586Y-109168710D02*
X69758738Y-109134912D01*
X184621923Y-22574878D02*
X184681743Y-22535363D01*
X315685146Y-109671915D02*
X315642479Y-109623661D01*
X359214124Y-53933845D02*
X359242376Y-53991729D01*
X359000720Y-52362737D02*
X358990486Y-52426349D01*
X85332790Y-13811480D02*
X116830196Y-13811480D01*
X81092847Y-17280870D02*
X81144106Y-17319872D01*
X359972077Y-54880874D02*
X360023337Y-54919876D01*
X356604102Y-117948000D02*
X356481885Y-117958527D01*
X20927460Y-55408070D02*
X20991070Y-55397835D01*
X21365711Y-55303994D02*
X21426619Y-55283041D01*
X313059596Y-108840149D02*
X312997313Y-108856566D01*
X310943182Y-17357619D02*
X310995399Y-17319875D01*
X314877708Y-109041767D02*
X314819823Y-109013515D01*
X14921810Y-108797718D02*
X14849732Y-108680661D01*
X82195736Y-17786036D02*
X82259106Y-17797835D01*
X65984127Y-110381924D02*
X65984127Y-110381924D01*
X307920133Y-17357619D02*
X307973286Y-17394086D01*
X22991429Y-51866782D02*
X22967495Y-51806931D01*
X22276669Y-22590104D02*
X22276669Y-22590104D01*
X23164133Y-52682633D02*
X23160185Y-52618343D01*
X24197688Y-117637061D02*
X24083675Y-117591473D01*
X15156803Y-109136228D02*
X15075417Y-109025608D01*
X185319094Y-22210684D02*
X185386304Y-22185497D01*
X315101798Y-109168710D02*
X315046944Y-109134912D01*
X360800951Y-29427802D02*
X362747119Y-50186478D01*
X311514847Y-109928097D02*
X311514847Y-109928097D01*
X312049541Y-15404609D02*
X312053492Y-15340320D01*
X359862353Y-22590063D02*
X359907305Y-22688433D01*
X358872933Y-21181686D02*
X358948579Y-21258985D01*
X68409298Y-108761471D02*
X68344846Y-108762263D01*
X21664688Y-55184429D02*
X21722569Y-55156177D01*
X84608957Y-17021495D02*
X84652815Y-16974289D01*
X367886964Y-107018284D02*
X367860375Y-107152964D01*
X15607632Y-109653653D02*
X15511774Y-109555127D01*
X19383114Y-50186474D02*
X21823269Y-24249663D01*
X198788808Y-23294274D02*
X198857369Y-23315259D01*
X186580822Y-21975355D02*
X195534573Y-21975355D01*
X352106591Y-14587177D02*
X352209509Y-14654132D01*
X357748317Y-28331901D02*
X357747095Y-28361321D01*
X357749432Y-28479033D02*
X357751823Y-28508403D01*
X358022555Y-27630774D02*
X358022555Y-27630774D01*
X32707852Y-13811476D02*
X80082852Y-13811476D01*
X20606806Y-50187266D02*
X20542355Y-50186474D01*
X29172299Y-15275942D02*
X29172299Y-15275942D01*
X313185345Y-108811909D02*
X313185345Y-108811909D01*
X358872933Y-21181686D02*
X358872933Y-21181686D01*
X358746839Y-27213133D02*
X358717863Y-27218391D01*
X20671188Y-50189638D02*
X20606806Y-50187266D01*
X356847596Y-117917969D02*
X356726024Y-117934479D01*
X360576929Y-27038283D02*
X358834569Y-27201632D01*
X311804614Y-16333846D02*
X311831445Y-16275268D01*
X185386304Y-22185497D02*
X185454067Y-22161677D01*
X359561672Y-116593353D02*
X359471756Y-116676879D01*
X82514702Y-17829361D02*
X82578987Y-17833311D01*
X359369321Y-54215820D02*
X359404472Y-54269852D01*
X84563931Y-17067631D02*
X84608957Y-17021495D01*
X307816653Y-17280873D02*
X307867914Y-17319875D01*
X65796974Y-111129175D02*
X65791447Y-111193339D01*
X22650734Y-54375218D02*
X22688476Y-54323001D01*
X21823269Y-24249663D02*
X21834559Y-24142150D01*
X20799633Y-55423835D02*
X20863638Y-55416737D01*
X171025738Y-23458169D02*
X182267971Y-23458204D01*
X66263186Y-109874945D02*
X66226711Y-109928097D01*
X70265408Y-109530316D02*
X70265408Y-109530316D01*
X360237592Y-50559920D02*
X360182738Y-50593720D01*
X32707852Y-13811476D02*
X32707852Y-13811476D01*
X68538132Y-108764635D02*
X68473749Y-108762263D01*
X357763301Y-28596003D02*
X357768554Y-28624971D01*
X358981818Y-52490174D02*
X358974720Y-52554183D01*
X306870448Y-15786652D02*
X306885335Y-15849339D01*
X22256881Y-50823782D02*
X22207600Y-50782318D01*
X23265774Y-21182464D02*
X29172299Y-15275942D01*
X84777198Y-16826478D02*
X84816200Y-16775218D01*
X358482161Y-29502877D02*
X358509445Y-29513937D01*
X358140282Y-117543105D02*
X358027434Y-117591481D01*
X22688476Y-51299950D02*
X22650734Y-51247732D01*
X307249050Y-16669850D02*
X307285518Y-16723003D01*
X358027434Y-117591481D02*
X358027434Y-117591481D01*
X22461575Y-116507603D02*
X15607632Y-109653653D01*
X196661327Y-22161677D02*
X196661327Y-22161677D01*
X308137819Y-17495468D02*
X308194240Y-17526521D01*
X358603636Y-27246441D02*
X358575562Y-27255190D01*
X349921742Y-13835556D02*
X350043664Y-13849076D01*
X198519259Y-23196418D02*
X198585859Y-23222940D01*
X85107566Y-16275265D02*
X85132961Y-16216020D01*
X359642056Y-54574292D02*
X359685907Y-54621498D01*
X357209586Y-117850573D02*
X357089468Y-117876004D01*
X360188297Y-23505276D02*
X360213368Y-23610446D01*
X360582535Y-50386296D02*
X360582535Y-50386296D01*
X367189940Y-108797223D02*
X367114702Y-108912204D01*
X21946643Y-50593714D02*
X21891795Y-50559915D01*
X197713879Y-22732747D02*
X197771183Y-22775884D01*
X199632444Y-23451602D02*
X199704037Y-23455276D01*
X66191562Y-109982129D02*
X66157763Y-110036982D01*
X186294114Y-21987117D02*
X186437258Y-21978300D01*
X358999816Y-29595210D02*
X359029223Y-29593542D01*
X359040757Y-52173618D02*
X359025869Y-52236305D01*
X23103529Y-53386648D02*
X23116879Y-53323586D01*
X23167294Y-52811474D02*
X23167294Y-52811474D01*
X65937745Y-110502170D02*
X65916792Y-110563078D01*
X311924176Y-16034870D02*
X311943625Y-15973476D01*
X359921797Y-50782327D02*
X359872519Y-50823790D01*
X68921383Y-108811909D02*
X68858013Y-108800110D01*
X198995670Y-23352986D02*
X199065369Y-23369716D01*
X183529536Y-23222940D02*
X183596136Y-23196418D01*
X367396213Y-108440668D02*
X367330759Y-108561341D01*
X265285099Y-13811478D02*
X265285099Y-13811478D01*
X83830159Y-17584431D02*
X83888045Y-17556178D01*
X66226711Y-109928097D02*
X66191562Y-109982129D01*
X357935790Y-27749633D02*
X357920225Y-27774628D01*
X84890408Y-16669848D02*
X84890408Y-16669848D01*
X358547706Y-27264625D02*
X358520083Y-27274743D01*
X274847218Y-117972073D02*
X274847218Y-117972073D01*
X22857365Y-51574059D02*
X22826315Y-51517639D01*
X358834569Y-27201632D02*
X358805205Y-27204750D01*
X359233763Y-21583794D02*
X359300588Y-21668754D01*
X360582535Y-50386296D02*
X360523289Y-50411692D01*
X311122898Y-110874356D02*
X311111099Y-110937559D01*
X306939139Y-16034870D02*
X306960091Y-16095778D01*
X358990486Y-52426349D02*
X358981818Y-52490174D01*
X183119719Y-23352986D02*
X183189061Y-23334832D01*
X312056656Y-15211478D02*
X312056656Y-15211478D01*
X196246407Y-22048504D02*
X196386086Y-22080513D01*
X357885633Y-28957092D02*
X357899750Y-28983028D01*
X367189940Y-108797223D02*
X367189940Y-108797223D01*
X366504350Y-109652806D02*
X366504350Y-109652806D01*
X308669659Y-17723446D02*
X308731512Y-17741383D01*
X359557927Y-51146193D02*
X359517685Y-51196474D01*
X83712338Y-17636659D02*
X83712338Y-17636659D01*
X311943625Y-15973476D02*
X311961562Y-15911623D01*
X315155830Y-109203862D02*
X315101798Y-109168710D01*
X360702779Y-50339913D02*
X360642386Y-50362361D01*
X316294050Y-110999997D02*
X316283816Y-110937559D01*
X25021664Y-117875996D02*
X24901553Y-117850566D01*
X306813771Y-15404610D02*
X306819297Y-15468773D01*
X312044016Y-15468773D02*
X312049541Y-15404609D01*
X360274843Y-23928762D02*
X360290733Y-24035679D01*
X360949218Y-55357801D02*
X361011905Y-55372689D01*
X359057174Y-53511622D02*
X359075111Y-53573475D01*
X360213368Y-23610446D02*
X360236153Y-23716108D01*
X196105595Y-22022248D02*
X196246407Y-22048504D01*
X358359946Y-27349561D02*
X358334392Y-27364296D01*
X18889187Y-55436474D02*
X18889187Y-55436474D01*
X314991294Y-109102479D02*
X314934873Y-109071427D01*
X307249050Y-16669850D02*
X307249050Y-16669850D01*
X352002108Y-14522799D02*
X352106591Y-14587177D01*
X199135403Y-23385017D02*
X199205752Y-23398884D01*
X22571488Y-51146191D02*
X22530021Y-51096913D01*
X174485500Y-129918774D02*
X107368404Y-117972073D01*
X22649042Y-21932543D02*
X22710232Y-21843424D01*
X80258726Y-16156169D02*
X80282650Y-16216020D01*
X311961562Y-15911623D02*
X311977979Y-15849339D01*
X358775957Y-27208585D02*
X358746839Y-27213133D01*
X22487349Y-51048660D02*
X22443491Y-51001454D01*
X359824266Y-54756502D02*
X359872519Y-54799169D01*
X311982896Y-109398780D02*
X311934643Y-109441445D01*
X21864085Y-23928082D02*
X21882305Y-23821601D01*
X313185345Y-108811909D02*
X313122283Y-108825260D01*
X316189976Y-110563078D02*
X316169023Y-110502170D01*
X360406827Y-50466775D02*
X360349662Y-50496435D01*
X316272019Y-110874356D02*
X316272019Y-110874356D01*
X23013877Y-53695773D02*
X23034832Y-53634865D01*
X85282345Y-15723588D02*
X85294142Y-15660217D01*
X360763687Y-50318961D02*
X360702779Y-50339913D01*
X182697049Y-23431804D02*
X182768118Y-23422286D01*
X80236285Y-16095775D02*
X80258726Y-16156169D01*
X358167085Y-27484042D02*
X358144961Y-27503418D01*
X67171906Y-109071427D02*
X67115483Y-109102479D01*
X311075621Y-111221362D02*
X311073248Y-111264425D01*
X22424081Y-22301391D02*
X22477314Y-22207388D01*
X312056656Y-15211478D02*
X312056656Y-13811478D01*
X357799902Y-28042662D02*
X357799902Y-28042662D01*
X198195126Y-23043656D02*
X198258701Y-23076865D01*
X24782153Y-117822207D02*
X24663518Y-117790937D01*
X316272019Y-110874356D02*
X316258667Y-110811294D01*
X361074967Y-50236920D02*
X361074967Y-50236920D01*
X367114702Y-108912204D02*
X367036379Y-109025012D01*
X361261241Y-55416739D02*
X361319037Y-55423838D01*
X361465029Y-55435687D02*
X361501106Y-55436478D01*
X360886934Y-50281574D02*
X360825081Y-50299511D01*
X311841301Y-109530308D02*
X311841301Y-109530308D01*
X358823356Y-29590046D02*
X358852702Y-29592712D01*
X358962079Y-52811478D02*
X358962871Y-52875933D01*
X358823356Y-29590046D02*
X358823356Y-29590046D01*
X312133715Y-109278073D02*
X312082455Y-109317076D01*
X22352337Y-50910301D02*
X22305135Y-50866449D01*
X312874065Y-108893953D02*
X312813158Y-108914905D01*
X21834559Y-24142150D02*
X21848167Y-24034944D01*
X361501106Y-55436478D02*
X363239317Y-55436478D01*
X361200606Y-50214886D02*
X361138169Y-50225121D01*
X21664688Y-50438520D02*
X21606113Y-50411689D01*
X367672568Y-107812771D02*
X367624200Y-107941388D01*
X312185933Y-109240329D02*
X312133715Y-109278073D01*
X359161896Y-51806935D02*
X359161896Y-51806935D01*
X357814850Y-28795366D02*
X357824980Y-28823014D01*
X80423851Y-16505313D02*
X80456286Y-16560962D01*
X360075554Y-54957620D02*
X360128706Y-54994088D01*
X306845299Y-15660220D02*
X306857098Y-15723591D01*
X361501106Y-55436478D02*
X361501106Y-55436478D01*
X311096939Y-17240631D02*
X311146217Y-17199167D01*
X67960554Y-108800110D02*
X67897183Y-108811909D01*
X358362114Y-117438182D02*
X358251858Y-117491996D01*
X21836149Y-55095466D02*
X21891795Y-55063033D01*
X311072456Y-117972073D02*
X274847218Y-117972073D01*
X310255047Y-17703997D02*
X310315955Y-17683044D01*
X359606427Y-22114257D02*
X359661691Y-22207138D01*
X311046658Y-17280873D02*
X311096939Y-17240631D01*
X82707821Y-17836475D02*
X82707821Y-17836475D01*
X197186854Y-22389903D02*
X197249641Y-22424357D01*
X70478675Y-109771474D02*
X70438431Y-109721194D01*
X21722569Y-50466771D02*
X21664688Y-50438520D01*
X30137400Y-14522795D02*
X30243400Y-14461019D01*
X309943768Y-17786039D02*
X310006829Y-17772688D01*
X22967495Y-51806931D02*
X22942100Y-51747686D01*
X22352328Y-54712647D02*
X22398464Y-54667630D01*
X85080737Y-16333843D02*
X85107566Y-16275265D01*
X29729288Y-14795483D02*
X29828749Y-14723590D01*
X82195736Y-17786036D02*
X82195736Y-17786036D01*
X24428754Y-117719726D02*
X24312732Y-117679817D01*
X308731512Y-17741383D02*
X308793796Y-17757800D01*
X66508151Y-109576446D02*
X66464308Y-109623654D01*
X70834438Y-110381924D02*
X70809043Y-110322680D01*
X359012519Y-53323590D02*
X359025869Y-53386651D01*
X315598628Y-109576454D02*
X315553612Y-109530316D01*
X350407108Y-13907553D02*
X350407108Y-13907553D01*
X357328989Y-117822215D02*
X357209586Y-117850573D01*
X359862353Y-22590063D02*
X359862353Y-22590063D01*
X314209568Y-108811909D02*
X314146198Y-108800110D01*
X68666576Y-108774110D02*
X68602417Y-108768585D01*
X359242376Y-51631227D02*
X359214124Y-51689111D01*
X66646513Y-109441445D02*
X66599303Y-109485294D01*
X83092926Y-17808069D02*
X83156536Y-17797835D01*
X357768554Y-28624971D02*
X357774516Y-28653802D01*
X312813158Y-108914905D02*
X312752764Y-108937352D01*
X358102148Y-27543790D02*
X358081480Y-27564769D01*
X360523289Y-55211266D02*
X360582535Y-55236664D01*
X80720147Y-16926036D02*
X80762814Y-16974289D01*
X21546871Y-50386292D02*
X21546871Y-50386292D01*
X307766372Y-17240631D02*
X307816653Y-17280873D01*
X360128706Y-54994088D02*
X360128706Y-54994088D01*
X81823544Y-17683041D02*
X81884452Y-17703994D01*
X14182766Y-106746434D02*
X14182766Y-106746434D01*
X23044094Y-21418989D02*
X23116254Y-21338578D01*
X312055865Y-15275933D02*
X312056656Y-15211478D01*
X361074967Y-50236920D02*
X361011905Y-50250270D01*
X68730581Y-108781208D02*
X68666576Y-108774110D01*
X357968729Y-27700833D02*
X357951960Y-27725031D01*
X66009523Y-110322678D02*
X65984127Y-110381924D01*
X359428702Y-21842980D02*
X359489913Y-21932145D01*
X14251366Y-107152760D02*
X14224794Y-107018023D01*
X70123833Y-109398782D02*
X70074555Y-109357318D01*
X357962316Y-29082846D02*
X357979440Y-29106768D01*
X70995618Y-110937726D02*
X70983822Y-110874356D01*
X69232654Y-108893953D02*
X69171261Y-108874504D01*
X197713879Y-22732747D02*
X197713879Y-22732747D01*
X80089970Y-15404607D02*
X80095497Y-15468771D01*
X359040757Y-53449338D02*
X359057174Y-53511622D01*
X196729090Y-22185497D02*
X196796301Y-22210684D01*
X357829035Y-27959255D02*
X357818646Y-27986807D01*
X81644063Y-17611262D02*
X81703304Y-17636659D01*
X314272630Y-108825260D02*
X314209568Y-108811909D01*
X358114959Y-29261493D02*
X358136454Y-29281655D01*
X22256868Y-54799165D02*
X22305122Y-54756499D01*
X183462392Y-23248097D02*
X183529536Y-23222940D01*
X80215336Y-16034868D02*
X80236285Y-16095775D01*
X311352754Y-110206216D02*
X311324502Y-110264100D01*
X361200606Y-55408072D02*
X361261241Y-55416739D01*
X66125328Y-110092631D02*
X66094273Y-110149051D01*
X315460272Y-109441448D02*
X315412020Y-109398782D01*
X357089468Y-117876004D02*
X357089468Y-117876004D01*
X313248715Y-108800110D02*
X313185345Y-108811909D01*
X198195126Y-23043656D02*
X198195126Y-23043656D01*
X69973004Y-109278073D02*
X69920777Y-109240329D01*
X357808933Y-28014613D02*
X357799902Y-28042662D01*
X70265408Y-109530316D02*
X70219282Y-109485299D01*
X311072456Y-111300503D02*
X311072456Y-111300503D01*
X25142373Y-117898470D02*
X25021664Y-117875996D01*
X311225892Y-110502170D02*
X311204939Y-110563078D01*
X22530021Y-54526036D02*
X22571488Y-54476758D01*
X309174361Y-17823837D02*
X309238525Y-17829363D01*
X314146198Y-108800110D02*
X314082585Y-108789876D01*
X184286056Y-22817824D02*
X184344212Y-22775884D01*
X22305135Y-50866449D02*
X22256881Y-50823782D01*
X84695487Y-16926036D02*
X84736954Y-16876758D01*
X359730924Y-50955323D02*
X359730924Y-50955323D01*
X307147665Y-16505315D02*
X307180098Y-16560965D01*
X358299823Y-29407183D02*
X358324818Y-29422748D01*
X357885633Y-28957092D02*
X357885633Y-28957092D01*
X22398464Y-54667630D02*
X22398464Y-54667630D01*
X360160948Y-23400636D02*
X360188297Y-23505276D01*
X82259106Y-17797835D02*
X82322716Y-17808069D01*
X360256648Y-23822226D02*
X360274843Y-23928762D01*
X24663518Y-117790937D02*
X24545700Y-117756771D01*
X316321665Y-111264427D02*
X316319292Y-111221365D01*
X360290733Y-24035679D02*
X360304312Y-24142940D01*
X313761911Y-108762263D02*
X313697456Y-108761471D01*
X360949218Y-50265157D02*
X360886934Y-50281574D01*
X307058701Y-16333846D02*
X307086953Y-16391730D01*
X81527605Y-17556178D02*
X81585487Y-17584431D01*
X358575562Y-27255190D02*
X358547706Y-27264625D01*
X22157306Y-54880870D02*
X22207588Y-54840629D01*
X22207588Y-54840629D02*
X22256868Y-54799165D01*
X186009800Y-22022248D02*
X186151568Y-22001776D01*
X66300936Y-109822727D02*
X66263186Y-109874945D01*
X68794403Y-108789876D02*
X68730581Y-108781208D01*
X306835064Y-15596608D02*
X306845299Y-15660220D01*
X315843599Y-109874952D02*
X315805854Y-109822734D01*
X70517677Y-109822734D02*
X70478675Y-109771474D01*
X358251858Y-117491996D02*
X358140282Y-117543105D01*
X361319037Y-50199119D02*
X361261241Y-50206218D01*
X358592853Y-29543070D02*
X358621115Y-29551410D01*
X85132961Y-16216020D02*
X85156895Y-16156169D01*
X310835998Y-17429237D02*
X310890030Y-17394086D01*
X358509445Y-29513937D02*
X358536997Y-29524326D01*
X22826315Y-51517639D02*
X22793885Y-51461990D01*
X357447625Y-117790945D02*
X357328989Y-117822215D01*
X358275221Y-29391013D02*
X358299823Y-29407183D01*
X15328500Y-109350516D02*
X15241181Y-109244551D01*
X311111099Y-110937559D02*
X311100864Y-110999996D01*
X308793796Y-17757800D02*
X308856483Y-17772688D01*
X198720669Y-23271881D02*
X198788808Y-23294274D01*
X184447292Y-22700812D02*
X184447292Y-22700812D01*
X357796632Y-28739337D02*
X357796632Y-28739337D01*
X21180185Y-55357797D02*
X21242467Y-55341380D01*
X311776361Y-16391730D02*
X311804614Y-16333846D01*
X359187293Y-53875267D02*
X359214124Y-53933845D01*
X367330759Y-108561341D02*
X367261990Y-108680216D01*
X358788950Y-117196383D02*
X358684467Y-117260761D01*
X361138169Y-55397838D02*
X361200606Y-55408072D01*
X360800951Y-29427802D02*
X360800951Y-29427802D01*
X367929027Y-106746807D02*
X367909854Y-106882873D01*
X311501052Y-16826480D02*
X311540054Y-16775220D01*
X367956383Y-106476277D02*
X367944486Y-106610620D01*
X66380184Y-109721186D02*
X66339941Y-109771467D01*
X82643370Y-17835683D02*
X82707821Y-17836475D01*
X23013877Y-51927175D02*
X22991429Y-51866782D01*
X67059832Y-109134912D02*
X67004980Y-109168710D01*
X14780943Y-108561735D02*
X14715475Y-108441011D01*
X85313045Y-15532780D02*
X85320145Y-15468771D01*
X85254107Y-15849337D02*
X85268995Y-15786650D01*
X316042159Y-110206219D02*
X316012500Y-110149055D01*
X312056656Y-13811478D02*
X312056656Y-13811478D01*
X360825081Y-50299511D02*
X360763687Y-50318961D01*
X356114017Y-117972081D02*
X316322456Y-117972081D01*
X306806656Y-15211478D02*
X306807447Y-15275933D01*
X306807447Y-15275933D02*
X306809820Y-15340320D01*
X312517205Y-109041767D02*
X312460040Y-109071427D01*
X306806656Y-13811478D02*
X306806656Y-13811478D01*
X359161896Y-53816021D02*
X359161896Y-53816021D01*
X359272036Y-54048895D02*
X359303089Y-54105316D01*
X314819823Y-109013515D02*
X314761245Y-108986683D01*
X195963826Y-22001776D02*
X196105595Y-22022248D01*
X22760090Y-51407136D02*
X22724941Y-51353104D01*
X80392796Y-16448892D02*
X80423851Y-16505313D01*
X306857098Y-15723591D02*
X306870448Y-15786652D01*
X21304318Y-50299508D02*
X21242467Y-50281570D01*
X311841301Y-109530308D02*
X311796284Y-109576446D01*
X311072456Y-117972073D02*
X311072456Y-117972073D01*
X367672568Y-107812771D02*
X367672568Y-107812771D01*
X182979986Y-23385017D02*
X183050020Y-23369716D01*
X307402506Y-16876761D02*
X307443970Y-16926039D01*
X30908411Y-14146489D02*
X31023452Y-14103731D01*
X359025869Y-53386651D02*
X359040757Y-53449338D01*
X82578987Y-17833311D02*
X82643370Y-17835683D01*
X311248340Y-110441776D02*
X311225892Y-110502170D01*
X29350100Y-15106671D02*
X29442013Y-15025402D01*
X70310434Y-109576454D02*
X70265408Y-109530316D01*
X22305122Y-54756499D02*
X22352328Y-54712647D01*
X314335317Y-108840149D02*
X314272630Y-108825260D01*
X311856842Y-16216022D02*
X311856842Y-16216022D01*
X21891795Y-55063033D02*
X21946643Y-55029235D01*
X360642386Y-55260598D02*
X360702779Y-55283046D01*
X22443491Y-54621494D02*
X22487349Y-54574289D01*
X69171261Y-108874504D02*
X69109410Y-108856566D01*
X313312328Y-108789876D02*
X313248715Y-108800110D01*
X23088641Y-52173614D02*
X23072223Y-52111330D01*
X308082170Y-17463035D02*
X308137819Y-17495468D01*
X80851681Y-17067631D02*
X80851681Y-17067631D01*
X312633668Y-108986683D02*
X312575090Y-109013515D01*
X14539332Y-108068743D02*
X14487480Y-107941521D01*
X312692913Y-108961285D02*
X312633668Y-108986683D01*
X14281620Y-107286690D02*
X14251366Y-107152760D01*
X67004980Y-109168710D02*
X66950955Y-109203862D01*
X83945213Y-17526519D02*
X84001636Y-17495466D01*
X306885335Y-15849339D02*
X306901752Y-15911623D01*
X24083675Y-117591473D02*
X23970828Y-117543097D01*
X311683216Y-16560965D02*
X311715649Y-16505315D01*
X65784329Y-117972073D02*
X65784329Y-117972073D01*
X84959352Y-16560962D02*
X84991781Y-16505313D01*
X21946643Y-55029235D02*
X22000668Y-54994084D01*
X306857098Y-15723591D02*
X306857098Y-15723591D01*
X367624200Y-107941388D02*
X367572346Y-108068556D01*
X312032174Y-109357317D02*
X311982896Y-109398780D01*
X311072456Y-111300503D02*
X311072456Y-117972073D01*
X311204939Y-110563078D02*
X311185490Y-110624472D01*
X358136454Y-29281655D02*
X358158459Y-29301300D01*
X358492703Y-27285540D02*
X358465580Y-27297012D01*
X22398464Y-54667630D02*
X22443491Y-54621494D01*
X15241181Y-109244551D02*
X15156803Y-109136228D01*
X22053823Y-54957616D02*
X22106043Y-54919873D01*
X314761245Y-108986683D02*
X314702000Y-108961285D01*
X195678137Y-21978300D02*
X195821281Y-21987117D01*
X65897343Y-110624472D02*
X65879407Y-110686325D01*
X67709157Y-108856566D02*
X67647308Y-108874504D01*
X310890030Y-17394086D02*
X310943182Y-17357619D01*
X359777060Y-50910306D02*
X359730924Y-50955323D01*
X23072223Y-52111330D02*
X23054283Y-52049477D01*
X307213898Y-16615818D02*
X307249050Y-16669850D01*
X358911511Y-29595878D02*
X358940947Y-29596377D01*
X31732388Y-13907550D02*
X31732388Y-13907550D01*
X311992867Y-15786652D02*
X312006218Y-15723591D01*
X85332790Y-15211476D02*
X85332790Y-13811480D01*
X197249641Y-22424357D02*
X197311716Y-22460092D01*
X306982539Y-16156171D02*
X307006474Y-16216022D01*
X197668102Y-22700812D02*
X197713879Y-22732747D01*
X367909854Y-106882873D02*
X367886964Y-107018284D01*
X367458319Y-108318266D02*
X367396213Y-108440668D01*
X358882091Y-29594656D02*
X358911511Y-29595878D01*
X22443491Y-51001454D02*
X22398464Y-50955319D01*
X315766852Y-109771474D02*
X315726609Y-109721194D01*
X182839001Y-23411310D02*
X182909639Y-23398884D01*
X367717383Y-107682874D02*
X367672568Y-107812771D01*
X184401516Y-22732747D02*
X184447292Y-22700812D01*
X311146217Y-17199167D02*
X311194470Y-17156501D01*
X358965243Y-52682637D02*
X358962871Y-52747023D01*
X22838294Y-21669290D02*
X22905090Y-21584374D01*
X360576929Y-27038283D02*
X360576929Y-27038283D01*
X70753965Y-110206219D02*
X70724308Y-110149055D01*
X83771581Y-17611262D02*
X83830159Y-17584431D01*
X314018760Y-108781208D02*
X313954751Y-108774110D01*
X357756313Y-28243893D02*
X357752927Y-28273165D01*
X85332790Y-15211476D02*
X85332790Y-15211476D01*
X81196323Y-17357616D02*
X81249477Y-17394083D01*
X309560497Y-17833314D02*
X309624787Y-17829363D01*
X199847424Y-23458229D02*
X211089550Y-23458289D01*
X359025869Y-52236305D02*
X359012519Y-52299366D01*
X15607632Y-109653653D02*
X15607632Y-109653653D01*
X357914486Y-29008581D02*
X357929831Y-29033743D01*
X29260181Y-15190196D02*
X29350100Y-15106671D01*
X349554427Y-13812987D02*
X349677068Y-13817506D01*
X31023452Y-14103731D02*
X31139470Y-14063821D01*
X84991781Y-16505313D02*
X85022831Y-16448892D01*
X361074967Y-55386040D02*
X361074967Y-55386040D01*
X312028250Y-15596608D02*
X312036917Y-15532782D01*
X23167294Y-52811474D02*
X23166503Y-52747020D01*
X311746702Y-16448895D02*
X311776361Y-16391730D01*
X349677068Y-13817506D02*
X349799525Y-13825031D01*
X357751823Y-28508403D02*
X357754933Y-28537706D01*
X66421646Y-109671908D02*
X66380184Y-109721186D01*
X21978054Y-23400236D02*
X22007669Y-23296268D01*
X311887437Y-109485294D02*
X311841301Y-109530308D01*
X359661691Y-22207138D02*
X359714935Y-22301192D01*
X14201922Y-106882556D02*
X14182766Y-106746434D01*
X84517796Y-17112648D02*
X84563931Y-17067631D01*
X69531631Y-109013515D02*
X69473056Y-108986683D01*
X80945036Y-17156498D02*
X80993291Y-17199165D01*
X85332790Y-13811480D02*
X85332790Y-13811480D01*
X312239086Y-109203862D02*
X312185933Y-109240329D01*
X357765228Y-28185677D02*
X357760414Y-28214726D01*
X358212718Y-27446949D02*
X358189674Y-27465216D01*
X25629256Y-117958521D02*
X25507038Y-117947996D01*
X23322159Y-117196373D02*
X23219235Y-117129422D01*
X80086017Y-15340317D02*
X80089970Y-15404607D01*
X24312732Y-117679817D02*
X24197688Y-117637061D01*
X352967192Y-15275945D02*
X358872933Y-21181686D01*
X358158459Y-29301300D02*
X358180964Y-29320419D01*
X81884452Y-17703994D02*
X81945847Y-17723443D01*
X367830103Y-107286839D02*
X367796169Y-107419832D01*
X67647308Y-108874504D02*
X67585919Y-108893953D01*
X22000668Y-50628865D02*
X22000668Y-50628865D01*
X359950103Y-22787718D02*
X359990735Y-22887882D01*
X360702779Y-55283046D02*
X360763687Y-55303998D01*
X309752960Y-17816739D02*
X309816785Y-17808071D01*
X311614266Y-16669850D02*
X311649417Y-16615818D01*
X183189061Y-23334832D02*
X183258024Y-23315259D01*
X22724941Y-51353104D02*
X22724941Y-51353104D01*
X358969194Y-52618347D02*
X358965243Y-52682637D01*
X315362742Y-109357318D02*
X315312462Y-109317076D01*
X359057174Y-52111334D02*
X359040757Y-52173618D01*
X65916792Y-110563078D02*
X65897343Y-110624472D01*
X14653362Y-108318558D02*
X14594637Y-108194446D01*
X185056171Y-22324882D02*
X185120974Y-22294336D01*
X357754933Y-28537706D02*
X357758760Y-28566910D01*
X357791562Y-28070924D02*
X357783923Y-28099370D01*
X357864209Y-27878254D02*
X357851822Y-27904967D01*
X25263541Y-117917964D02*
X25142373Y-117898470D01*
X22487349Y-54574289D02*
X22530021Y-54526036D01*
X84166165Y-17394083D02*
X84166165Y-17394083D01*
X316012500Y-110149055D02*
X315981448Y-110092635D01*
X360131342Y-23296612D02*
X360160948Y-23400636D01*
X23138905Y-52426345D02*
X23128674Y-52362733D01*
X65787494Y-111257629D02*
X65785121Y-111322016D01*
X22688476Y-54323001D02*
X22724941Y-54269848D01*
X80851681Y-17067631D02*
X80897826Y-17112648D01*
X359242376Y-53991729D02*
X359272036Y-54048895D01*
X307086953Y-16391730D02*
X307116613Y-16448895D01*
X20606806Y-55435683D02*
X20671188Y-55433311D01*
X184447292Y-22700812D02*
X184504678Y-22657613D01*
X358189674Y-27465216D02*
X358167085Y-27484042D01*
X70627033Y-109982134D02*
X70591885Y-109928105D01*
X357851822Y-27904967D02*
X357840095Y-27931971D01*
X356236787Y-117970573D02*
X356114017Y-117972081D01*
X85331999Y-15275931D02*
X85332790Y-15211476D01*
X195534573Y-21975355D02*
X195534573Y-21975355D01*
X70219282Y-109485299D02*
X70172083Y-109441448D01*
X185454067Y-22161677D02*
X185590943Y-22118248D01*
X359777060Y-54712651D02*
X359824266Y-54756502D01*
X361465029Y-50187270D02*
X361421968Y-50189642D01*
X311287811Y-17067634D02*
X311287811Y-17067634D01*
X316309816Y-111118431D02*
X316302718Y-111060634D01*
X311445897Y-110036982D02*
X311413465Y-110092631D01*
X361372958Y-55429363D02*
X361421968Y-55433314D01*
X359649550Y-116507603D02*
X359649550Y-116507603D01*
X310193653Y-17723446D02*
X310255047Y-17703997D01*
X307668841Y-17156501D02*
X307717094Y-17199167D01*
X22887021Y-51631224D02*
X22857365Y-51574059D01*
X70901775Y-110563078D02*
X70880821Y-110502170D01*
X316322456Y-111300503D02*
X316321665Y-111264427D01*
X312056656Y-13811478D02*
X349431656Y-13811479D01*
X107368404Y-117972073D02*
X71034237Y-117972073D01*
X30243400Y-14461019D02*
X30350865Y-14401870D01*
X350286402Y-13885080D02*
X350407108Y-13907553D01*
X351569499Y-14291565D02*
X351679755Y-14345379D01*
X211089550Y-23458289D02*
X211089550Y-23458289D01*
X70983822Y-110874356D02*
X70970473Y-110811294D01*
X30032913Y-14587174D02*
X30137400Y-14522795D01*
X184681743Y-22535363D02*
X184742335Y-22497097D01*
X198653003Y-23248097D02*
X198720669Y-23271881D01*
X359404472Y-51353108D02*
X359404472Y-51353108D01*
X307180098Y-16560965D02*
X307213898Y-16615818D01*
X359058593Y-29591153D02*
X359058593Y-29591153D01*
X306901752Y-15911623D02*
X306919689Y-15973476D01*
X352697487Y-15025405D02*
X352789398Y-15106675D01*
X309110352Y-17816739D02*
X309174361Y-17823837D01*
X70724308Y-110149055D02*
X70693258Y-110092635D01*
X20671188Y-55433311D02*
X20735474Y-55429361D01*
X22967495Y-53816018D02*
X22991429Y-53756166D01*
X184928541Y-22389903D02*
X184992020Y-22356741D01*
X357979440Y-29106768D02*
X357997139Y-29130256D01*
X358385882Y-27335443D02*
X358359946Y-27349561D01*
X83592098Y-17683041D02*
X83652490Y-17660593D01*
X358465580Y-27297012D02*
X358438727Y-27309156D01*
X14165096Y-105649784D02*
X14165096Y-105649784D01*
X358284472Y-27395587D02*
X358260127Y-27412126D01*
X316097242Y-110322680D02*
X316070411Y-110264103D01*
X14439114Y-107812848D02*
X14439114Y-107812848D01*
X183394726Y-23271881D02*
X183394726Y-23271881D01*
X359012519Y-53323590D02*
X359012519Y-53323590D01*
X14165096Y-105649784D02*
X18889187Y-55436474D01*
X358592853Y-29543070D02*
X358592853Y-29543070D01*
X310781144Y-17463035D02*
X310835998Y-17429237D01*
X84816200Y-16775218D02*
X84853943Y-16723000D01*
X80334879Y-16333843D02*
X80363134Y-16391727D01*
X311100864Y-110999996D02*
X311092196Y-111060631D01*
X199347272Y-23422286D02*
X199418339Y-23431804D01*
X22942100Y-53875263D02*
X22967495Y-53816018D01*
X358993110Y-117059964D02*
X358891868Y-117129429D01*
X70555420Y-109874952D02*
X70517677Y-109822734D01*
X360763687Y-55303998D02*
X360825081Y-55323447D01*
X311479696Y-109982129D02*
X311445897Y-110036982D01*
X32217762Y-13835553D02*
X32339980Y-13825027D01*
X358660389Y-27231020D02*
X358631916Y-27238384D01*
X84563931Y-17067631D02*
X84563931Y-17067631D01*
X358965243Y-52940319D02*
X358969194Y-53004609D01*
X65791447Y-111193339D02*
X65787494Y-111257629D01*
X311092196Y-111060631D02*
X311085097Y-111118429D01*
X358015406Y-29153299D02*
X358034232Y-29175888D01*
X83282968Y-17772686D02*
X83345656Y-17757798D01*
X359990735Y-22887882D02*
X360029188Y-22988889D01*
X66094273Y-110149051D02*
X66064611Y-110206216D01*
X22207600Y-50782318D02*
X22157314Y-50742076D01*
X350646630Y-13961341D02*
X350765266Y-13992612D01*
X359440939Y-51299954D02*
X359404472Y-51353108D01*
X357760414Y-28214726D02*
X357756313Y-28243893D01*
X85132961Y-16216020D02*
X85132961Y-16216020D01*
X185868987Y-22048504D02*
X186009800Y-22022248D01*
X31256413Y-14026775D02*
X31374228Y-13992609D01*
X358061318Y-27586265D02*
X358041673Y-27608269D01*
X358412157Y-27321968D02*
X358385882Y-27335443D01*
X85200298Y-16034868D02*
X85219750Y-15973473D01*
X359094560Y-51988087D02*
X359075111Y-52049481D01*
X22920905Y-116913775D02*
X22825138Y-116837123D01*
X311649417Y-16615818D02*
X311683216Y-16560965D01*
X67897183Y-108811909D02*
X67897183Y-108811909D01*
X83531190Y-17703994D02*
X83592098Y-17683041D01*
X198585859Y-23222940D02*
X198653003Y-23248097D01*
X83219906Y-17786036D02*
X83282968Y-17772686D01*
X83345656Y-17757798D02*
X83407941Y-17741381D01*
X360642386Y-50362361D02*
X360582535Y-50386296D01*
X309431656Y-17836478D02*
X309431656Y-17836478D01*
X356359428Y-117966053D02*
X356236787Y-117970573D01*
X83469795Y-17723443D02*
X83531190Y-17703994D01*
X71034237Y-117972073D02*
X71034237Y-117972073D01*
X71031076Y-111257629D02*
X71027129Y-111193339D01*
X14997070Y-108912751D02*
X14921810Y-108797718D01*
X71034237Y-111386471D02*
X71033446Y-111322016D01*
X84112139Y-17429234D02*
X84166165Y-17394083D01*
X198720669Y-23271881D02*
X198720669Y-23271881D01*
X358852702Y-29592712D02*
X358882091Y-29594656D01*
X69293562Y-108914905D02*
X69232654Y-108893953D01*
X80121500Y-15660217D02*
X80133297Y-15723588D01*
X358375943Y-29452029D02*
X358402035Y-29465722D01*
X361261241Y-50206218D02*
X361200606Y-50214886D01*
X367964915Y-106345994D02*
X367956383Y-106476277D01*
X70591885Y-109928105D02*
X70591885Y-109928105D01*
X310131800Y-17741383D02*
X310193653Y-17723446D01*
X357877251Y-27851845D02*
X357864209Y-27878254D01*
X82900940Y-17829361D02*
X82965099Y-17823835D01*
X84373070Y-17240628D02*
X84422344Y-17199165D01*
X23117996Y-117059959D02*
X23018539Y-116988065D01*
X65784329Y-111386471D02*
X65784329Y-111386471D01*
X20735474Y-50193589D02*
X20671188Y-50189638D01*
X66694768Y-109398780D02*
X66646513Y-109441445D01*
X359730924Y-50955323D02*
X359685907Y-51001457D01*
X81470440Y-17526519D02*
X81527605Y-17556178D01*
X23147569Y-52490171D02*
X23138905Y-52426345D01*
X14143449Y-106061287D02*
X14146893Y-105923999D01*
X313376153Y-108781208D02*
X313312328Y-108789876D01*
X30459746Y-14345376D02*
X30569994Y-14291562D01*
X23088641Y-53449334D02*
X23103529Y-53386648D01*
X31612268Y-13932980D02*
X31732388Y-13907550D01*
X313890587Y-108768585D02*
X313826298Y-108764635D01*
X14487480Y-107941521D02*
X14439114Y-107812848D01*
X357920225Y-27774628D02*
X357905274Y-27800005D01*
X24545700Y-117756771D02*
X24428754Y-117719726D01*
X21180185Y-50265154D02*
X21117501Y-50250266D01*
X358251023Y-29374243D02*
X358275221Y-29391013D01*
X312403620Y-109102479D02*
X312347970Y-109134912D01*
X21891795Y-50559915D02*
X21836149Y-50527483D01*
X307575501Y-17067634D02*
X307575501Y-17067634D01*
X23128674Y-52362733D02*
X23116879Y-52299363D01*
X84001636Y-17495466D02*
X84057287Y-17463033D01*
X30350865Y-14401870D02*
X30459746Y-14345376D01*
X359161896Y-53816021D02*
X359187293Y-53875267D01*
X85329625Y-15340317D02*
X85331999Y-15275931D01*
X68409298Y-108761471D02*
X68409298Y-108761471D01*
X23116879Y-52299363D02*
X23116879Y-52299363D01*
X314934873Y-109071427D02*
X314877708Y-109041767D01*
X307575501Y-17067634D02*
X307621635Y-17112650D01*
X22157314Y-50742076D02*
X22106048Y-50703074D01*
X350407108Y-13907553D02*
X350527226Y-13932983D01*
X310436199Y-17636661D02*
X310436199Y-17636661D01*
X85294142Y-15660217D02*
X85304376Y-15596605D01*
X361501106Y-50186478D02*
X361465029Y-50187270D01*
X367517041Y-108194206D02*
X367458319Y-108318266D01*
X315312462Y-109317076D02*
X315261201Y-109278073D01*
X68344846Y-108762263D02*
X68280460Y-108764635D01*
X359824266Y-50866456D02*
X359777060Y-50910306D01*
X22398464Y-50955319D02*
X22398464Y-50955319D01*
X358974720Y-53068773D02*
X358981818Y-53132782D01*
X307006474Y-16216022D02*
X307031870Y-16275268D01*
X313697456Y-108761471D02*
X313697456Y-108761471D01*
X23970828Y-117543097D02*
X23859253Y-117491988D01*
X65785121Y-111322016D02*
X65784329Y-111386471D01*
X367860375Y-107152964D02*
X367830103Y-107286839D01*
X107368404Y-117972073D02*
X107368404Y-117972073D01*
X14154108Y-105786805D02*
X14165096Y-105649784D01*
X357682381Y-117719734D02*
X357565440Y-117756779D01*
X367972322Y-106001666D02*
X367972686Y-106106473D01*
X357847256Y-28877514D02*
X357859391Y-28904342D01*
X85237689Y-15911620D02*
X85254107Y-15849337D01*
X362747119Y-50186478D02*
X361501106Y-50186478D01*
X31374228Y-13992609D02*
X31492864Y-13961338D01*
X358227240Y-29356883D02*
X358251023Y-29374243D01*
X183258024Y-23315259D02*
X183326586Y-23294274D01*
X185590943Y-22118248D02*
X185729309Y-22080513D01*
X315507477Y-109485299D02*
X315460272Y-109441448D01*
X70396964Y-109671915D02*
X70354293Y-109623661D01*
X360128706Y-50628872D02*
X360075554Y-50665340D01*
X357872185Y-28930872D02*
X357885633Y-28957092D01*
X358073527Y-29219662D02*
X358093980Y-29240825D01*
X311272274Y-110381924D02*
X311248340Y-110441776D01*
X308027317Y-17429237D02*
X308082170Y-17463035D01*
X84853943Y-16723000D02*
X84890408Y-16669848D01*
X14143776Y-106198593D02*
X14143449Y-106061287D01*
X80282650Y-16216020D02*
X80308046Y-16275265D01*
X311551315Y-109874945D02*
X311514847Y-109928097D01*
X186151568Y-22001776D02*
X186294114Y-21987117D01*
X316322456Y-117972081D02*
X316322456Y-111300503D01*
X23219235Y-117129422D02*
X23117996Y-117059959D01*
X85282345Y-15723588D02*
X85282345Y-15723588D01*
X66226711Y-109928097D02*
X66226711Y-109928097D01*
X70834438Y-110381924D02*
X70834438Y-110381924D01*
X307443970Y-16926039D02*
X307486635Y-16974292D01*
X183596136Y-23196418D02*
X183662172Y-23168540D01*
X23166503Y-52747020D02*
X23164133Y-52682633D01*
X310554024Y-17584433D02*
X310611909Y-17556181D01*
X358375943Y-29452029D02*
X358375943Y-29452029D01*
X70438431Y-109721194D02*
X70396964Y-109671915D01*
X315553612Y-109530316D02*
X315553612Y-109530316D01*
X80525234Y-16669848D02*
X80561699Y-16723000D01*
X82965099Y-17823835D02*
X83029104Y-17816737D01*
X183050020Y-23369716D02*
X183119719Y-23352986D01*
X81703304Y-17636659D02*
X81703304Y-17636659D01*
X316146574Y-110441776D02*
X316122639Y-110381924D01*
X316243779Y-110748608D02*
X316227362Y-110686325D01*
X199418339Y-23431804D02*
X199489572Y-23439864D01*
X22571488Y-54476758D02*
X22611731Y-54426478D01*
X357776985Y-28127986D02*
X357770753Y-28156760D01*
X306819297Y-15468773D02*
X306826396Y-15532782D01*
X184167261Y-22898066D02*
X184227066Y-22858555D01*
X307530485Y-17021498D02*
X307575501Y-17067634D01*
X66845583Y-109278073D02*
X66794324Y-109317076D01*
X358974720Y-52554183D02*
X358969194Y-52618347D01*
X21487015Y-55260592D02*
X21546871Y-55236657D01*
X23128674Y-53260215D02*
X23138905Y-53196603D01*
X21054440Y-50236916D02*
X20991070Y-50225117D01*
X23054283Y-53573471D02*
X23072223Y-53511618D01*
X309624787Y-17829363D02*
X309688951Y-17823837D01*
X207730312Y-129918873D02*
X207730312Y-129918873D01*
X359440939Y-54323004D02*
X359478682Y-54375221D01*
X312752764Y-108937352D02*
X312692913Y-108961285D01*
X22007669Y-23296268D02*
X22039514Y-23193001D01*
X83652490Y-17660593D02*
X83712338Y-17636659D01*
X359649550Y-116507603D02*
X359561672Y-116593353D01*
X311752433Y-109623654D02*
X311709767Y-109671908D01*
X358891868Y-117129429D02*
X358788950Y-117196383D01*
X198926330Y-23334832D02*
X198995670Y-23352986D01*
X315208983Y-109240329D02*
X315155830Y-109203862D01*
X359685907Y-54621498D02*
X359730924Y-54667633D01*
X359272036Y-51574062D02*
X359242376Y-51631227D01*
X360523289Y-50411692D02*
X360464711Y-50438523D01*
X197123375Y-22356741D02*
X197186854Y-22389903D01*
X21242467Y-55341380D02*
X21304318Y-55323443D01*
X71021607Y-111129175D02*
X71014512Y-111065165D01*
X360582535Y-55236664D02*
X360582535Y-55236664D01*
X352603624Y-14946428D02*
X352697487Y-15025405D01*
X21426619Y-50339910D02*
X21365711Y-50318957D01*
X31853096Y-13885077D02*
X31974265Y-13865583D01*
X311413465Y-110092631D02*
X311382413Y-110149051D01*
X359115513Y-53695777D02*
X359137961Y-53756170D01*
X357747095Y-28361321D02*
X357746595Y-28390757D01*
X356114017Y-117972081D02*
X356114017Y-117972081D01*
X313568615Y-108764635D02*
X313504326Y-108768585D01*
X357770753Y-28156760D02*
X357765228Y-28185677D01*
X359599390Y-51096915D02*
X359557927Y-51146193D01*
X22793885Y-54160960D02*
X22826315Y-54105310D01*
X22073576Y-23090470D02*
X22109841Y-22988711D01*
X81585487Y-17584431D02*
X81644063Y-17611262D01*
X358428444Y-29478765D02*
X358455157Y-29491151D01*
X21304318Y-55323443D02*
X21365711Y-55303994D01*
X14715475Y-108441011D02*
X14653362Y-108318558D01*
X357840095Y-27931971D02*
X357829035Y-27959255D01*
X308982915Y-17797837D02*
X309046527Y-17808071D01*
X367972686Y-106106473D02*
X367970283Y-106221987D01*
X307116613Y-16448895D02*
X307147665Y-16505315D01*
X358180964Y-29320419D02*
X358203883Y-29338939D01*
X70782214Y-110264103D02*
X70753965Y-110206219D01*
X183920269Y-23043656D02*
X183920269Y-23043656D01*
X356481885Y-117958527D02*
X356359428Y-117966053D01*
X359517685Y-51196474D02*
X359478682Y-51247735D01*
X23532647Y-117322527D02*
X23426646Y-117260750D01*
X352209509Y-14654132D02*
X352310751Y-14723593D01*
X23138905Y-53196603D02*
X23147569Y-53132778D01*
X67771437Y-108840149D02*
X67709157Y-108856566D01*
X360349662Y-55126522D02*
X360406827Y-55156182D01*
X360293241Y-50527487D02*
X360237592Y-50559920D01*
X20863638Y-50206214D02*
X20799633Y-50199115D01*
X29631650Y-14869773D02*
X29729288Y-14795483D01*
X30569994Y-14291562D02*
X30681562Y-14240454D01*
X358684467Y-117260761D02*
X358578467Y-117322538D01*
X360182738Y-55029239D02*
X360237592Y-55063037D01*
X116830196Y-13811480D02*
X116830196Y-13811480D01*
X68087994Y-108781208D02*
X68024167Y-108789876D01*
X69473056Y-108986683D02*
X69413815Y-108961285D01*
X307973286Y-17394086D02*
X307973286Y-17394086D01*
X359489913Y-21932145D02*
X359549161Y-22022582D01*
X32339980Y-13825027D02*
X32462438Y-13817502D01*
X366870667Y-109243863D02*
X366783377Y-109349784D01*
X367964094Y-105833043D02*
X367964094Y-105833043D01*
X197373059Y-22497097D02*
X197433651Y-22535363D01*
X360182738Y-50593720D02*
X360128706Y-50628872D01*
X184227066Y-22858555D02*
X184286056Y-22817824D01*
X23116254Y-21338578D02*
X23190155Y-21259727D01*
X23116879Y-52299363D02*
X23103529Y-52236301D01*
X359187293Y-51747689D02*
X359161896Y-51806935D01*
X361372958Y-50193593D02*
X361319037Y-50199119D01*
X20735474Y-55429361D02*
X20799633Y-55423835D01*
X311287811Y-17067634D02*
X311332829Y-17021498D01*
X314082585Y-108789876D02*
X314018760Y-108781208D01*
X83407941Y-17741381D02*
X83469795Y-17723443D01*
X70591885Y-109928105D02*
X70555420Y-109874952D01*
X311589060Y-109822727D02*
X311551315Y-109874945D01*
X23116879Y-53323586D02*
X23116879Y-53323586D01*
X366783377Y-109349784D02*
X366693195Y-109453289D01*
X315642479Y-109623661D02*
X315598628Y-109576454D01*
X357089468Y-117876004D02*
X356968762Y-117898475D01*
X32462438Y-13817502D02*
X32585080Y-13812984D01*
X199276394Y-23411310D02*
X199347272Y-23422286D01*
X21882305Y-23821601D02*
X21902820Y-23715539D01*
X360464711Y-55184434D02*
X360523289Y-55211266D01*
X359404472Y-54269852D02*
X359440939Y-54323004D01*
X349431656Y-13811479D02*
X349431656Y-13811479D01*
X22710232Y-21843424D02*
X22710232Y-21843424D01*
X311419347Y-16926039D02*
X311460810Y-16876761D01*
X314459453Y-108874504D02*
X314397600Y-108856566D01*
X67115483Y-109102479D02*
X67059832Y-109134912D01*
X358123311Y-27523337D02*
X358102148Y-27543790D01*
X23166503Y-52875929D02*
X23167294Y-52811474D01*
X308427113Y-17636661D02*
X308486964Y-17660596D01*
X71034237Y-117972073D02*
X71034237Y-111386471D01*
X22276669Y-22590104D02*
X22323739Y-22492781D01*
X69703092Y-109102479D02*
X69646675Y-109071427D01*
X80161534Y-15849336D02*
X80177952Y-15911620D01*
X68602417Y-108768585D02*
X68538132Y-108764635D01*
X80083643Y-15275931D02*
X80086017Y-15340317D01*
X197771183Y-22775884D02*
X197829339Y-22817824D01*
X361138169Y-50225121D02*
X361074967Y-50236920D01*
X308251405Y-17556181D02*
X308309289Y-17584433D01*
X360304312Y-24142940D02*
X360315571Y-24250507D01*
X195821281Y-21987117D02*
X195963826Y-22001776D01*
X30794399Y-14192079D02*
X30908411Y-14146489D01*
X22650734Y-51247732D02*
X22611731Y-51196471D01*
X80195889Y-15973473D02*
X80215336Y-16034868D01*
X306960091Y-16095778D02*
X306982539Y-16156171D01*
X357565440Y-117756779D02*
X357447625Y-117790945D01*
X360236153Y-23716108D02*
X360256648Y-23822226D01*
X196661327Y-22161677D02*
X196729090Y-22185497D01*
X357758760Y-28566910D02*
X357763301Y-28596003D01*
X307006474Y-16216022D02*
X307006474Y-16216022D01*
X22549455Y-116593350D02*
X22461575Y-116507603D01*
X357788558Y-28710998D02*
X357796632Y-28739337D01*
X67404781Y-108961285D02*
X67345538Y-108986683D01*
X311297671Y-110322678D02*
X311272274Y-110381924D01*
X25385115Y-117934475D02*
X25263541Y-117917964D01*
X82322716Y-17808069D02*
X82386538Y-17816737D01*
X359022509Y-21337875D02*
X359094699Y-21418325D01*
X182909639Y-23398884D02*
X182979986Y-23385017D01*
X357818646Y-27986807D02*
X357808933Y-28014613D01*
X23034832Y-51988083D02*
X23013877Y-51927175D01*
X81303512Y-17429234D02*
X81358368Y-17463033D01*
X308194240Y-17526521D02*
X308251405Y-17556181D01*
X21823269Y-24249663D02*
X21823269Y-24249663D01*
X307717094Y-17199167D02*
X307766372Y-17240631D01*
X309496111Y-17835686D02*
X309560497Y-17833314D01*
X22991429Y-53756166D02*
X23013877Y-53695773D01*
X367036379Y-109025012D02*
X366955017Y-109135585D01*
X358706950Y-29572221D02*
X358735867Y-29577746D01*
X70858372Y-110441776D02*
X70834438Y-110381924D01*
X359921797Y-54840632D02*
X359972077Y-54880874D01*
X23072223Y-53511618D02*
X23088641Y-53449334D01*
X359058593Y-29591153D02*
X360800951Y-29427802D01*
X197311716Y-22460092D02*
X197373059Y-22497097D01*
X352209509Y-14654132D02*
X352209509Y-14654132D01*
X14439114Y-107812848D02*
X14394303Y-107682893D01*
X66157763Y-110036982D02*
X66125328Y-110092631D01*
X358455157Y-29491151D02*
X358482161Y-29502877D01*
X83219906Y-17786036D02*
X83219906Y-17786036D01*
X22942100Y-51747686D02*
X22915271Y-51689108D01*
X360160948Y-23400636D02*
X360160948Y-23400636D01*
X316319292Y-111221365D02*
X316315342Y-111172354D01*
X82069986Y-17757798D02*
X82132674Y-17772686D01*
X367964094Y-105833043D02*
X367969392Y-105909784D01*
X32585080Y-13812984D02*
X32707852Y-13811476D01*
X65784329Y-117972073D02*
X25997128Y-117972073D01*
X14147872Y-106335838D02*
X14143776Y-106198593D01*
X359075111Y-53573475D02*
X359094560Y-53634869D01*
X309046527Y-17808071D02*
X309110352Y-17816739D01*
X358536997Y-29524326D02*
X358564803Y-29534039D01*
X359478682Y-54375221D02*
X359517685Y-54426481D01*
X359000720Y-53260219D02*
X359012519Y-53323590D01*
X357752927Y-28273165D02*
X357752927Y-28273165D01*
X358764916Y-29582560D02*
X358794084Y-29586661D01*
X23640114Y-117381676D02*
X23532647Y-117322527D01*
X358735867Y-29577746D02*
X358764916Y-29582560D01*
X198132249Y-23009151D02*
X198195126Y-23043656D01*
X358260127Y-27412126D02*
X358236205Y-27429250D01*
X14353106Y-107551832D02*
X14315539Y-107419739D01*
X312347970Y-109134912D02*
X312293117Y-109168710D01*
X358940947Y-29596377D02*
X358970387Y-29596155D01*
X24083675Y-117591473D02*
X24083675Y-117591473D01*
X20542355Y-50186474D02*
X19383114Y-50186474D01*
X359714935Y-22301192D02*
X359766139Y-22396386D01*
X309238525Y-17829363D02*
X309302815Y-17833314D01*
X83712338Y-17636659D02*
X83771581Y-17611262D01*
X313440162Y-108774110D02*
X313376153Y-108781208D01*
X22532565Y-22114558D02*
X22589813Y-22022931D01*
X185729309Y-22080513D02*
X185868987Y-22048504D01*
X21117501Y-50250266D02*
X21054440Y-50236916D01*
X67345538Y-108986683D02*
X67286960Y-109013515D01*
X307867914Y-17319875D02*
X307920133Y-17357619D01*
X357945777Y-29058501D02*
X357962316Y-29082846D01*
X198453222Y-23168540D02*
X198519259Y-23196418D01*
X367970283Y-106221987D02*
X367964915Y-106345994D01*
X308856483Y-17772688D02*
X308919544Y-17786039D01*
X359094699Y-21418325D02*
X359165125Y-21500308D01*
X182625816Y-23439863D02*
X182697049Y-23431804D01*
X350043664Y-13849076D02*
X350165236Y-13865586D01*
X70939166Y-110686325D02*
X70921227Y-110624472D01*
X311514847Y-109928097D02*
X311479696Y-109982129D01*
X308309289Y-17584433D02*
X308367867Y-17611265D01*
X314397600Y-108856566D02*
X314335317Y-108840149D01*
X361011905Y-55372689D02*
X361074967Y-55386040D01*
X360886934Y-55341384D02*
X360949218Y-55357801D01*
X361421968Y-50189642D02*
X361372958Y-50193593D01*
X80082852Y-13811476D02*
X80082852Y-15211476D01*
X182339690Y-23457469D02*
X182411356Y-23455266D01*
X81042568Y-17240628D02*
X81092847Y-17280870D01*
X359549161Y-22022582D02*
X359606427Y-22114257D01*
X311382413Y-110149051D02*
X311352754Y-110206216D01*
X66553158Y-109530308D02*
X66553158Y-109530308D01*
X357905274Y-27800005D02*
X357890945Y-27825753D01*
X65834774Y-110874356D02*
X65822977Y-110937726D01*
X359471756Y-116676879D02*
X359379845Y-116758149D01*
X310890030Y-17394086D02*
X310890030Y-17394086D01*
X313697456Y-108761471D02*
X313633002Y-108762263D01*
X22372883Y-22396533D02*
X22424081Y-22301391D01*
X359730924Y-54667633D02*
X359730924Y-54667633D01*
X14315539Y-107419739D02*
X14281620Y-107286690D01*
X22639371Y-116676876D02*
X22549455Y-116593350D01*
X359300588Y-21668754D02*
X359365576Y-21755159D01*
X356968762Y-117898475D02*
X356847596Y-117917969D01*
X65960193Y-110441776D02*
X65937745Y-110502170D01*
X309943768Y-17786039D02*
X309943768Y-17786039D01*
X68280460Y-108764635D02*
X68216169Y-108768585D01*
X351345074Y-14192082D02*
X351345074Y-14192082D01*
X358805205Y-27204750D02*
X358775957Y-27208585D01*
X197829339Y-22817824D02*
X197888329Y-22858555D01*
X70955584Y-110748608D02*
X70939166Y-110686325D01*
X311167553Y-110686325D02*
X311151136Y-110748608D01*
X70921227Y-110624472D02*
X70901775Y-110563078D01*
X22826315Y-54105310D02*
X22857365Y-54048890D01*
X310006829Y-17772688D02*
X310069516Y-17757800D01*
X183662172Y-23168540D02*
X183727625Y-23139316D01*
X307031870Y-16275268D02*
X307058701Y-16333846D01*
X70074555Y-109357318D02*
X70024271Y-109317076D01*
X198387770Y-23139317D02*
X198453222Y-23168540D01*
X357859391Y-28904342D02*
X357872185Y-28930872D01*
X80993291Y-17199165D02*
X81042568Y-17240628D01*
X185120974Y-22294336D02*
X185186408Y-22265114D01*
X311073248Y-111264425D02*
X311072456Y-111300503D01*
X360128706Y-54994088D02*
X360182738Y-55029239D01*
X183792472Y-23108755D02*
X183856693Y-23076865D01*
X358203883Y-29338939D02*
X358227240Y-29356883D01*
X311880776Y-16156171D02*
X311903224Y-16095778D01*
X349799525Y-13825031D02*
X349921742Y-13835556D01*
X316302718Y-111060634D02*
X316294050Y-110999997D01*
X21546871Y-55236657D02*
X21546871Y-55236657D01*
X182482947Y-23451596D02*
X182554442Y-23446461D01*
X357783923Y-28099370D02*
X357776985Y-28127986D01*
X25751714Y-117966046D02*
X25629256Y-117958521D01*
X358053608Y-29198013D02*
X358073527Y-29219662D01*
X185186408Y-22265114D02*
X185252455Y-22237226D01*
X311977979Y-15849339D02*
X311992867Y-15786652D01*
X23219235Y-117129422D02*
X23219235Y-117129422D01*
X23265774Y-21182464D02*
X23265774Y-21182464D01*
X31139470Y-14063821D02*
X31256413Y-14026775D01*
X357752927Y-28273165D02*
X357750261Y-28302511D01*
X199775704Y-23457486D02*
X199847424Y-23458229D01*
X307285518Y-16723003D02*
X307323262Y-16775220D01*
X308919544Y-17786039D02*
X308982915Y-17797837D01*
X316227362Y-110686325D02*
X316209425Y-110624472D01*
X357997139Y-29130256D02*
X358015406Y-29153299D01*
X29442013Y-15025402D02*
X29535877Y-14946424D01*
X197059224Y-22324882D02*
X197123375Y-22356741D01*
X357796632Y-28739337D02*
X357805399Y-28767470D01*
X22188927Y-22787651D02*
X22231723Y-22688420D01*
X265285099Y-13811478D02*
X306806656Y-13811478D01*
X23426646Y-117260750D02*
X23322159Y-117196373D01*
X310315955Y-17683044D02*
X310376348Y-17660596D01*
X22905090Y-21584374D02*
X22973698Y-21500930D01*
X211089550Y-23458289D02*
X265285099Y-13811478D01*
X351116037Y-14103735D02*
X351231072Y-14146492D01*
X311614266Y-16669850D02*
X311614266Y-16669850D01*
X359092572Y-116988069D02*
X358993110Y-117059964D01*
X359730924Y-54667633D02*
X359777060Y-54712651D01*
X311577798Y-16723003D02*
X311614266Y-16669850D01*
X361074967Y-55386040D02*
X361138169Y-55397838D01*
X29828749Y-14723590D02*
X29929989Y-14654128D01*
X14182766Y-106746434D02*
X14167368Y-106609836D01*
X196862940Y-22237226D02*
X196928986Y-22265114D01*
X20863638Y-55416737D02*
X20927460Y-55408070D01*
X80762814Y-16974289D02*
X80806664Y-17021495D01*
X359685907Y-51001457D02*
X359642056Y-51048662D01*
X71014512Y-111065165D02*
X71005849Y-111001339D01*
X84925556Y-16615816D02*
X84959352Y-16560962D01*
X84652815Y-16974289D02*
X84695487Y-16926036D01*
X358969194Y-53004609D02*
X358974720Y-53068773D01*
X22231723Y-22688420D02*
X22276669Y-22590104D01*
X183856693Y-23076865D02*
X183920269Y-23043656D01*
X367969392Y-105909784D02*
X367972322Y-106001666D01*
X311085097Y-111118429D02*
X311079571Y-111172351D01*
X182267971Y-23458204D02*
X182339690Y-23457469D01*
X23054283Y-52049477D02*
X23034832Y-51988083D01*
X359115513Y-51927179D02*
X359094560Y-51988087D01*
X359012519Y-52299366D02*
X359012519Y-52299366D01*
X69047129Y-108840149D02*
X68984444Y-108825260D01*
X70172083Y-109441448D02*
X70123833Y-109398782D01*
X20799633Y-50199115D02*
X20735474Y-50193589D01*
X85268995Y-15786650D02*
X85282345Y-15723588D01*
X67404781Y-108961285D02*
X67404781Y-108961285D01*
X359137961Y-51866786D02*
X359115513Y-51927179D01*
X68921383Y-108811909D02*
X68921383Y-108811909D01*
X358990486Y-53196607D02*
X359000720Y-53260219D01*
X21925622Y-23609932D02*
X21950703Y-23504819D01*
X22530021Y-51096913D02*
X22487349Y-51048660D01*
X197552500Y-22615631D02*
X197610717Y-22657613D01*
X83029104Y-17816737D02*
X83092926Y-17808069D01*
X23160185Y-53004605D02*
X23164133Y-52940315D01*
X82836655Y-17833311D02*
X82900940Y-17829361D01*
X70809043Y-110322680D02*
X70782214Y-110264103D01*
X361421968Y-55433314D02*
X361465029Y-55435687D01*
X358621115Y-29551410D02*
X358649560Y-29559050D01*
X196994421Y-22294336D02*
X197059224Y-22324882D01*
X21848167Y-24034944D02*
X21864085Y-23928082D01*
X25997128Y-117972073D02*
X25874356Y-117970565D01*
X358962871Y-52747023D02*
X358962079Y-52811478D01*
X23160185Y-52618343D02*
X23154663Y-52554180D01*
X18889187Y-55436474D02*
X20542355Y-55436474D01*
X83888045Y-17556178D02*
X83945213Y-17526519D01*
X23018539Y-116988065D02*
X22920905Y-116913775D01*
X359379845Y-116758149D02*
X359285982Y-116837127D01*
X310995399Y-17319875D02*
X311046658Y-17280873D01*
X311324502Y-110264100D02*
X311297671Y-110322678D01*
X350765266Y-13992612D02*
X350883081Y-14026778D01*
X65984127Y-110381924D02*
X65960193Y-110441776D01*
X22731279Y-116758145D02*
X22639371Y-116676876D01*
X308427113Y-17636661D02*
X308427113Y-17636661D01*
X84470593Y-17156498D02*
X84517796Y-17112648D01*
X185454067Y-22161677D02*
X185454067Y-22161677D01*
X359029223Y-29593542D02*
X359058593Y-29591153D01*
X23147569Y-53132778D02*
X23154663Y-53068769D01*
X359335522Y-51461992D02*
X359303089Y-51517642D01*
X359335522Y-54160966D02*
X359369321Y-54215820D01*
X19383114Y-50186474D02*
X19383114Y-50186474D01*
X67464628Y-108937352D02*
X67404781Y-108961285D01*
X65822977Y-110937726D02*
X65812743Y-111001339D01*
X22148295Y-22887760D02*
X22188927Y-22787651D01*
X360315571Y-24250507D02*
X360315571Y-24250507D01*
X185252455Y-22237226D02*
X185319094Y-22210684D01*
X357835784Y-28850401D02*
X357847256Y-28877514D01*
X311856842Y-16216022D02*
X311880776Y-16156171D01*
X80082852Y-15211476D02*
X80082852Y-15211476D01*
X67834122Y-108825260D02*
X67771437Y-108840149D01*
X116830196Y-13811480D02*
X171025738Y-23458169D01*
X316315342Y-111172354D02*
X316309816Y-111118431D01*
X22887021Y-53991724D02*
X22915271Y-53933840D01*
X70660829Y-110036987D02*
X70627033Y-109982134D01*
X68024167Y-108789876D02*
X67960554Y-108800110D01*
X359369321Y-51407139D02*
X359335522Y-51461992D01*
X357746818Y-28420197D02*
X357747764Y-28449627D01*
X359285982Y-116837127D02*
X359190210Y-116913779D01*
X357781185Y-28682482D02*
X357788558Y-28710998D01*
X23103529Y-52236301D02*
X23088641Y-52173614D01*
X366955017Y-109135585D02*
X366870667Y-109243863D01*
X307973286Y-17394086D02*
X308027317Y-17429237D01*
X182839001Y-23411310D02*
X182839001Y-23411310D01*
X360582535Y-55236664D02*
X360642386Y-55260598D01*
X352789398Y-15106675D02*
X352879314Y-15190200D01*
X197948134Y-22898066D02*
X198008734Y-22936344D01*
X316283816Y-110937559D02*
X316272019Y-110874356D01*
X21978054Y-23400236D02*
X21978054Y-23400236D01*
X70693258Y-110092635D02*
X70660829Y-110036987D01*
X80308046Y-16275265D02*
X80334879Y-16333843D01*
X174485500Y-129918774D02*
X174485500Y-129918774D01*
X311194470Y-17156501D02*
X311241676Y-17112650D01*
X315046944Y-109134912D02*
X314991294Y-109102479D01*
X66464308Y-109623654D02*
X66421646Y-109671908D01*
X359214124Y-51689111D02*
X359187293Y-51747689D01*
X360075554Y-50665340D02*
X360023337Y-50703083D01*
X69867611Y-109203862D02*
X69813586Y-109168710D01*
X367944486Y-106610620D02*
X367929027Y-106746807D01*
X358578467Y-117322538D02*
X358471000Y-117381687D01*
X351788641Y-14401873D02*
X351896109Y-14461022D01*
X309816785Y-17808071D02*
X309880397Y-17797837D01*
X184742335Y-22497097D02*
X184803679Y-22460092D01*
X358022555Y-27630774D02*
X358004034Y-27653693D01*
X80111266Y-15596605D02*
X80121500Y-15660217D01*
X358834569Y-27201632D02*
X358834569Y-27201632D01*
X360237592Y-55063037D02*
X360293241Y-55095470D01*
X311540054Y-16775220D02*
X311577798Y-16723003D01*
X357805399Y-28767470D02*
X357814850Y-28795366D01*
X314702000Y-108961285D02*
X314702000Y-108961285D01*
X182411356Y-23455266D02*
X182482947Y-23451596D01*
X71034237Y-111386471D02*
X71034237Y-111386471D01*
X22724941Y-54269848D02*
X22724941Y-54269848D01*
X84271536Y-17319872D02*
X84322793Y-17280870D01*
X310069516Y-17757800D02*
X310131800Y-17741383D01*
X23154663Y-52554180D02*
X23147569Y-52490171D01*
X14146893Y-105923999D02*
X14154108Y-105786805D01*
X359161896Y-51806935D02*
X359137961Y-51866786D01*
X184504678Y-22657613D02*
X184562895Y-22615631D01*
X66950955Y-109203862D02*
X66897800Y-109240329D01*
X195534573Y-21975355D02*
X195678137Y-21978300D01*
X366504350Y-109652806D02*
X359649550Y-116507603D01*
X66794324Y-109317076D02*
X66744045Y-109357317D01*
X306809820Y-15340320D02*
X306813771Y-15404610D01*
X80082852Y-13811476D02*
X80082852Y-13811476D01*
X358309231Y-27379641D02*
X358284472Y-27395587D01*
X71033446Y-111322016D02*
X71031076Y-111257629D01*
X311122898Y-110874356D02*
X311122898Y-110874356D01*
X306826396Y-15532782D02*
X306835064Y-15596608D01*
X15075417Y-109025608D02*
X14997070Y-108912751D01*
X80525234Y-16669848D02*
X80525234Y-16669848D01*
X65879407Y-110686325D02*
X65862994Y-110748608D01*
X81703304Y-17636659D02*
X81763152Y-17660593D01*
X21779732Y-55126518D02*
X21836149Y-55095466D01*
X22323739Y-22492781D02*
X22372883Y-22396533D01*
X358471000Y-117381687D02*
X358362114Y-117438182D01*
X80177952Y-15911620D02*
X80195889Y-15973473D01*
X22773334Y-21755650D02*
X22838294Y-21669290D01*
X81249477Y-17394083D02*
X81303512Y-17429234D01*
X360065449Y-23090703D02*
X360099505Y-23193290D01*
X22106048Y-50703074D02*
X22053824Y-50665331D01*
X315412020Y-109398782D02*
X315362742Y-109357318D01*
X312239086Y-109203862D02*
X312239086Y-109203862D01*
X308367867Y-17611265D02*
X308427113Y-17636661D01*
X310725494Y-17495468D02*
X310781144Y-17463035D01*
X311272274Y-110381924D02*
X311272274Y-110381924D01*
X14394303Y-107682893D02*
X14353106Y-107551832D01*
X357824980Y-28823014D02*
X357835784Y-28850401D01*
X358631916Y-27238384D02*
X358603636Y-27246441D01*
X22000668Y-50628865D02*
X21946643Y-50593714D01*
X22760090Y-54215815D02*
X22793885Y-54160960D01*
X21426619Y-55283041D02*
X21487015Y-55260592D01*
X184992020Y-22356741D02*
X185056171Y-22324882D01*
X85320145Y-15468771D02*
X85325672Y-15404607D01*
X199065369Y-23369716D02*
X199135403Y-23385017D01*
X309302815Y-17833314D02*
X309367201Y-17835686D01*
X14167368Y-106609836D02*
X14155737Y-106472945D01*
X20542355Y-55436474D02*
X20542355Y-55436474D01*
X351679755Y-14345379D02*
X351788641Y-14401873D01*
X359165125Y-21500308D02*
X359233763Y-21583794D01*
X14921810Y-108797718D02*
X14921810Y-108797718D01*
X184803679Y-22460092D02*
X184865754Y-22424357D01*
X21054440Y-55386036D02*
X21117501Y-55372685D01*
X359478682Y-51247735D02*
X359440939Y-51299954D01*
X312082455Y-109317076D02*
X312032174Y-109357317D01*
X361501106Y-50186478D02*
X361501106Y-50186478D01*
X22053824Y-50665331D02*
X22000668Y-50628865D01*
X351457922Y-14240457D02*
X351569499Y-14291565D01*
X183394726Y-23271881D02*
X183462392Y-23248097D01*
X361319037Y-55423838D02*
X361372958Y-55429363D01*
X308547357Y-17683044D02*
X308608265Y-17703997D01*
X197610717Y-22657613D02*
X197668102Y-22700812D01*
X80095497Y-15468771D02*
X80102597Y-15532780D01*
X359872519Y-54799169D02*
X359921797Y-54840632D01*
X197888329Y-22858555D02*
X197948134Y-22898066D01*
X69589513Y-109041767D02*
X69531631Y-109013515D01*
X199847424Y-23458229D02*
X199847424Y-23458229D01*
X358041673Y-27608269D02*
X358022555Y-27630774D01*
X357929831Y-29033743D02*
X357945777Y-29058501D01*
X358324818Y-29422748D02*
X358350195Y-29437699D01*
X357751823Y-28508403D02*
X357751823Y-28508403D01*
X312460040Y-109071427D02*
X312403620Y-109102479D01*
X360825081Y-55323447D02*
X360886934Y-55341384D01*
X316322456Y-111300503D02*
X316322456Y-111300503D01*
X361011905Y-50250270D02*
X360949218Y-50265157D01*
X199560948Y-23446464D02*
X199632444Y-23451602D01*
X21779732Y-50496430D02*
X21722569Y-50466771D01*
X367796169Y-107419832D02*
X367758590Y-107551869D01*
X29929989Y-14654128D02*
X29929989Y-14654128D01*
X198857369Y-23315259D02*
X198926330Y-23334832D01*
X23164133Y-52940315D02*
X23166503Y-52875929D01*
X21117501Y-55372685D02*
X21180185Y-55357797D01*
X315726609Y-109721194D02*
X315685146Y-109671915D01*
X367929027Y-106746807D02*
X367929027Y-106746807D01*
X350883081Y-14026778D02*
X351000022Y-14063824D01*
X358678176Y-29565988D02*
X358706950Y-29572221D01*
X70880821Y-110502170D02*
X70858372Y-110441776D01*
X22724941Y-54269848D02*
X22760090Y-54215815D01*
X311241676Y-17112650D02*
X311287811Y-17067634D01*
X183727625Y-23139316D02*
X183792472Y-23108755D01*
X357951960Y-27725031D02*
X357935790Y-27749633D01*
X29929989Y-14654128D02*
X30032913Y-14587174D01*
X196386086Y-22080513D02*
X196524452Y-22118248D01*
X21546871Y-55236657D02*
X21606113Y-55211260D01*
X313954751Y-108774110D02*
X313890587Y-108768585D01*
X184045282Y-22973376D02*
X184106660Y-22936343D01*
X21242467Y-50281570D02*
X21180185Y-50265154D01*
X68216169Y-108768585D02*
X68152004Y-108774110D01*
X197433651Y-22535363D02*
X197493471Y-22574878D01*
X66897800Y-109240329D02*
X66845583Y-109278073D01*
X308919544Y-17786039D02*
X308919544Y-17786039D01*
X359075111Y-52049481D02*
X359057174Y-52111334D01*
X68984444Y-108825260D02*
X68921383Y-108811909D01*
X350165236Y-13865586D02*
X350286402Y-13885080D01*
X315155830Y-109203862D02*
X315155830Y-109203862D01*
X21606113Y-50411689D02*
X21546871Y-50386292D01*
X66744045Y-109357317D02*
X66694768Y-109398780D01*
X307621635Y-17112650D02*
X307668841Y-17156501D01*
X360029188Y-22988889D02*
X360065449Y-23090703D01*
X69353958Y-108937352D02*
X69293562Y-108914905D01*
X312018016Y-15660220D02*
X312028250Y-15596608D01*
X349431656Y-13811479D02*
X349554427Y-13812987D01*
X81144106Y-17319872D02*
X81196323Y-17357616D01*
X21722569Y-55156177D02*
X21779732Y-55126518D01*
X312935460Y-108874504D02*
X312874065Y-108893953D01*
X31732388Y-13907550D02*
X31853096Y-13885077D01*
X309367201Y-17835686D02*
X309431656Y-17836478D01*
X358649560Y-29559050D02*
X358678176Y-29565988D01*
X311079571Y-111172351D02*
X311075621Y-111221362D01*
X359094560Y-53634869D02*
X359115513Y-53695777D01*
X183983146Y-23009151D02*
X184045282Y-22973376D01*
X360023337Y-50703083D02*
X359972077Y-50742085D01*
X186580822Y-21975355D02*
X186580822Y-21975355D01*
X306806656Y-15211478D02*
X306806656Y-15211478D01*
X314702000Y-108961285D02*
X314642149Y-108937352D01*
X358970387Y-29596155D02*
X358999816Y-29595210D01*
X316070411Y-110264103D02*
X316042159Y-110206219D01*
X358438727Y-27309156D02*
X358412157Y-27321968D01*
X367572346Y-108068556D02*
X367517041Y-108194206D01*
X315981448Y-110092635D02*
X315949016Y-110036987D01*
X80897826Y-17112648D02*
X80945036Y-17156498D01*
X84890408Y-16669848D02*
X84925556Y-16615816D01*
X21836149Y-50527483D02*
X21779732Y-50496430D01*
X84166165Y-17394083D02*
X84219319Y-17357616D01*
X22398464Y-50955319D02*
X22352337Y-50910301D01*
X358236205Y-27429250D02*
X358212718Y-27446949D01*
X69867611Y-109203862D02*
X69867611Y-109203862D01*
X359907305Y-22688433D02*
X359950103Y-22787718D01*
X22915271Y-53933840D02*
X22942100Y-53875263D01*
X312692913Y-108961285D02*
X312692913Y-108961285D01*
X360464711Y-50438523D02*
X360406827Y-50466775D01*
X65834774Y-110874356D02*
X65834774Y-110874356D01*
X184562895Y-22615631D02*
X184621923Y-22574878D01*
X71027129Y-111193339D02*
X71021607Y-111129175D01*
X196524452Y-22118248D02*
X196661327Y-22161677D01*
X25997128Y-117972073D02*
X25997128Y-117972073D01*
X359404472Y-51353108D02*
X359369321Y-51407139D01*
X358334392Y-27364296D02*
X358309231Y-27379641D01*
X196796301Y-22210684D02*
X196862940Y-22237226D01*
X22477314Y-22207388D02*
X22532565Y-22114558D01*
X359303089Y-54105316D02*
X359335522Y-54160966D01*
X351231072Y-14146492D02*
X351345074Y-14192082D01*
X311460810Y-16876761D02*
X311501052Y-16826480D01*
X351000022Y-14063824D02*
X351116037Y-14103735D01*
X309431656Y-17836478D02*
X309496111Y-17835686D01*
X315949016Y-110036987D02*
X315915217Y-109982134D01*
X312036917Y-15532782D02*
X312044016Y-15468773D01*
X66339941Y-109771467D02*
X66300936Y-109822727D01*
X198070113Y-22973376D02*
X198132249Y-23009151D01*
X85052488Y-16391727D02*
X85080737Y-16333843D01*
X70970473Y-110811294D02*
X70955584Y-110748608D01*
X357747764Y-28449627D02*
X357749432Y-28479033D01*
X313633002Y-108762263D02*
X313568615Y-108764635D01*
X358981818Y-53132782D02*
X358990486Y-53196607D01*
X23859253Y-117491988D02*
X23748999Y-117438172D01*
X199489572Y-23439864D02*
X199560948Y-23446464D01*
X312006218Y-15723591D02*
X312018016Y-15660220D01*
X351345074Y-14192082D02*
X351457922Y-14240457D01*
X69920777Y-109240329D02*
X69867611Y-109203862D01*
X66036356Y-110264100D02*
X66009523Y-110322678D01*
X32095839Y-13849073D02*
X32217762Y-13835553D01*
X67229074Y-109041767D02*
X67171906Y-109071427D01*
X22611731Y-54426478D02*
X22650734Y-54375218D01*
X312006218Y-15723591D02*
X312006218Y-15723591D01*
X357890945Y-27825753D02*
X357890945Y-27825753D01*
X68152004Y-108774110D02*
X68087994Y-108781208D01*
X80082852Y-15211476D02*
X80083643Y-15275931D01*
X360023337Y-54919876D02*
X360075554Y-54957620D01*
X311934643Y-109441445D02*
X311887437Y-109485294D01*
X81358368Y-17463033D02*
X81414019Y-17495466D01*
X84057287Y-17463033D02*
X84112139Y-17429234D01*
X311332829Y-17021498D02*
X311376680Y-16974292D01*
X14155737Y-106472945D02*
X14147872Y-106335838D01*
X311831445Y-16275268D02*
X311856842Y-16216022D01*
X184344212Y-22775884D02*
X184401516Y-22732747D01*
X65848114Y-110811294D02*
X65834774Y-110874356D01*
X68858013Y-108800110D02*
X68794403Y-108789876D01*
X274847218Y-117972073D02*
X207730312Y-129918873D01*
X360099505Y-23193290D02*
X360131342Y-23296612D01*
X313826298Y-108764635D02*
X313761911Y-108762263D01*
X199704037Y-23455276D02*
X199775704Y-23457486D01*
X307323262Y-16775220D02*
X307362264Y-16826480D01*
X315915217Y-109982134D02*
X315880066Y-109928105D01*
X311715649Y-16505315D02*
X311746702Y-16448895D01*
X22000668Y-54994084D02*
X22053823Y-54957616D01*
X352310751Y-14723593D02*
X352410213Y-14795486D01*
X207730312Y-129918873D02*
X174485500Y-129918774D01*
X71005849Y-111001339D02*
X70995618Y-110937726D01*
X362747119Y-50186478D02*
X362747119Y-50186478D01*
X358794084Y-29586661D02*
X358823356Y-29590046D01*
X14224794Y-107018023D02*
X14201922Y-106882556D01*
X22825138Y-116837123D02*
X22731279Y-116758145D01*
X20927460Y-50214882D02*
X20863638Y-50206214D01*
X85156895Y-16156169D02*
X85179344Y-16095775D01*
X22915271Y-51689108D02*
X22887021Y-51631224D01*
X69109410Y-108856566D02*
X69047129Y-108840149D01*
X310669074Y-17526521D02*
X310725494Y-17495468D01*
X22967495Y-53816018D02*
X22967495Y-53816018D01*
X358402035Y-29465722D02*
X358428444Y-29478765D01*
X315805854Y-109822734D02*
X315766852Y-109771474D01*
X184865754Y-22424357D02*
X184928541Y-22389903D01*
X182554442Y-23446461D02*
X182625816Y-23439863D01*
X352410213Y-14795486D02*
X352507852Y-14869776D01*
X359972077Y-50742085D02*
X359921797Y-50782327D01*
X357913431Y-117637068D02*
X357798396Y-117679825D01*
X80363134Y-16391727D02*
X80392796Y-16448892D01*
X358004034Y-27653693D02*
X357986090Y-27677050D01*
X352507852Y-14869776D02*
X352603624Y-14946428D01*
X184401516Y-22732747D02*
X184401516Y-22732747D01*
X69413815Y-108961285D02*
X69413815Y-108961285D01*
X311376680Y-16974292D02*
X311419347Y-16926039D01*
X22039514Y-23193001D02*
X22073576Y-23090470D01*
X358717863Y-27218391D02*
X358689042Y-27224354D01*
X306919689Y-15973476D02*
X306939139Y-16034870D01*
X22973698Y-21500930D02*
X23044094Y-21418989D01*
X70024271Y-109317076D02*
X69973004Y-109278073D01*
X22106043Y-54919873D02*
X22157306Y-54880870D01*
X15511774Y-109555127D02*
X15418714Y-109454061D01*
X357899750Y-28983028D02*
X357914486Y-29008581D01*
X80678684Y-16876758D02*
X80720147Y-16926036D01*
X182267971Y-23458204D02*
X182267971Y-23458204D01*
X67897183Y-108811909D02*
X67834122Y-108825260D01*
X358081480Y-27564769D02*
X358061318Y-27586265D01*
X359815285Y-22492687D02*
X359862353Y-22590063D01*
X85325672Y-15404607D02*
X85329625Y-15340317D01*
X310495446Y-17611265D02*
X310554024Y-17584433D01*
X80599442Y-16775218D02*
X80638443Y-16826478D01*
X186437258Y-21978300D02*
X186580822Y-21975355D01*
X316122639Y-110381924D02*
X316097242Y-110322680D01*
X314520847Y-108893953D02*
X314459453Y-108874504D01*
X359642056Y-51048662D02*
X359599390Y-51096915D01*
X311796284Y-109576446D02*
X311752433Y-109623654D01*
X311709767Y-109671908D02*
X311668304Y-109721186D01*
X359404472Y-54269852D02*
X359404472Y-54269852D01*
X21054440Y-50236916D02*
X21054440Y-50236916D01*
X363239317Y-55436478D02*
X367964094Y-105833043D01*
X357890945Y-27825753D02*
X357877251Y-27851845D01*
X357746595Y-28390757D02*
X357746818Y-28420197D01*
X359303089Y-51517642D02*
X359272036Y-51574062D01*
X66950955Y-109203862D02*
X66950955Y-109203862D01*
X80806664Y-17021495D02*
X80851681Y-17067631D01*
X359137961Y-53756170D02*
X359161896Y-53816021D01*
X85179344Y-16095775D02*
X85200298Y-16034868D01*
X198322923Y-23108755D02*
X198387770Y-23139317D01*
X199276394Y-23411310D02*
X199276394Y-23411310D01*
X367261990Y-108680216D02*
X367189940Y-108797223D01*
X307362264Y-16826480D02*
X307402506Y-16876761D01*
X80561699Y-16723000D02*
X80599442Y-16775218D01*
X23748999Y-117438172D02*
X23640114Y-117381676D01*
X359365576Y-21755159D02*
X359428702Y-21842980D01*
X15418714Y-109454061D02*
X15328500Y-109350516D01*
X359012519Y-52299366D02*
X359000720Y-52362737D01*
X21902820Y-23715539D02*
X21925622Y-23609932D01*
X81414019Y-17495466D02*
X81470440Y-17526519D01*
X65804074Y-111065165D02*
X65796974Y-111129175D01*
X22461575Y-116507603D02*
X22461575Y-116507603D01*
X82132674Y-17772686D02*
X82195736Y-17786036D01*
X22857365Y-54048890D02*
X22887021Y-53991724D01*
X22000668Y-54994084D02*
X22000668Y-54994084D01*
X313504326Y-108768585D02*
X313440162Y-108774110D01*
X183920269Y-23043656D02*
X183983146Y-23009151D01*
X31492864Y-13961338D02*
X31612268Y-13932980D01*
X82707821Y-17836475D02*
X82772272Y-17835683D01*
X198008734Y-22936344D02*
X198070113Y-22973376D01*
X358948579Y-21258985D02*
X359022509Y-21337875D01*
X358180964Y-29320419D02*
X358180964Y-29320419D01*
X316169023Y-110502170D02*
X316146574Y-110441776D01*
X312293117Y-109168710D02*
X312239086Y-109203862D01*
X65862994Y-110748608D02*
X65848114Y-110811294D01*
X20991070Y-50225117D02*
X20927460Y-50214882D01*
X65784329Y-111386471D02*
X65784329Y-117972073D01*
X360406827Y-55156182D02*
X360464711Y-55184434D01*
X358564803Y-29534039D02*
X358592853Y-29543070D01*
X366600169Y-109554316D02*
X366504350Y-109652806D01*
X359517685Y-54426481D02*
X359557927Y-54476761D01*
M02*
