G04 EAGLE Gerber RS-274X export*
G75*
%MOMM*%
%FSLAX34Y34*%
%LPD*%
%INSoldermask Top*%
%IPPOS*%
%AMOC8*
5,1,8,0,0,1.08239X$1,22.5*%
G01*
%ADD10C,1.904953*%
%ADD11C,1.905047*%
%ADD12C,1.905000*%
%ADD13C,4.203200*%
%ADD14C,4.191000*%
%ADD15C,3.203200*%
%ADD16C,4.191034*%
%ADD17C,1.905100*%
%ADD18C,4.190903*%
%ADD19C,1.905053*%
%ADD20C,4.203300*%
%ADD21C,1.905097*%
%ADD22C,4.203100*%
%ADD23C,4.203250*%
%ADD24C,3.251200*%
%ADD25C,1.904947*%
%ADD26C,1.905003*%
%ADD27C,3.251300*%
%ADD28C,4.191066*%
%ADD29C,3.251269*%
%ADD30C,3.251231*%
%ADD31C,3.203300*%
%ADD32C,4.190997*%
%ADD33C,2.743200*%
%ADD34C,3.200400*%
%ADD35C,0.457706*%
%ADD36R,2.303200X1.703200*%
%ADD37R,1.703200X2.303200*%
%ADD38R,0.711200X1.676400*%
%ADD39R,1.676400X0.711200*%
%ADD40R,0.403200X1.203200*%
%ADD41R,0.503200X1.403200*%
%ADD42C,0.853200*%
%ADD43C,1.203200*%
%ADD44R,1.203200X1.303200*%
%ADD45R,1.303200X1.203200*%
%ADD46R,2.603200X2.603200*%
%ADD47R,1.403200X1.603200*%
%ADD48R,2.003200X1.303200*%
%ADD49C,1.828800*%
%ADD50C,0.756400*%


D10*
X2193450Y598308D03*
X1079467Y243154D03*
D11*
X1390691Y491469D03*
D12*
X2499870Y571500D03*
D13*
X477251Y0D03*
X1940217Y62643D03*
D12*
X2660206Y0D03*
X661657Y762000D03*
D10*
X1103029Y440747D03*
D13*
X2127823Y29563D03*
D14*
X3139632Y298450D03*
D15*
X2977400Y762000D03*
D13*
X1340663Y482648D03*
D10*
X1267073Y276234D03*
D11*
X1483440Y120946D03*
D16*
X1746307Y786767D03*
D10*
X2265401Y5304D03*
D17*
X2969770Y381000D03*
D12*
X560057Y762000D03*
D11*
X2177851Y20742D03*
D14*
X453437Y488950D03*
D13*
X2056072Y235654D03*
X941889Y218895D03*
D10*
X1383384Y103304D03*
D12*
X2532950Y762000D03*
D13*
X2482150Y762000D03*
D11*
X1989798Y440779D03*
D10*
X915423Y407667D03*
D12*
X2571307Y381000D03*
X2690370Y571500D03*
D13*
X1939770Y449600D03*
D18*
X1980815Y745417D03*
D12*
X2952308Y571500D03*
D17*
X385175Y571500D03*
D12*
X521700Y381000D03*
D13*
X1317101Y285055D03*
D12*
X2469706Y-19402D03*
D10*
X727817Y374587D03*
D13*
X-71439Y571500D03*
D10*
X1362320Y679906D03*
X2006044Y244475D03*
D19*
X789872Y772407D03*
D13*
X2315429Y-3517D03*
D10*
X1818238Y664468D03*
D11*
X1462376Y697548D03*
D12*
X3174Y381000D03*
D13*
X2711007Y381000D03*
D11*
X920622Y21706D03*
X1108228Y54786D03*
D12*
X259763Y190500D03*
D11*
X2177404Y407699D03*
D15*
X2996756Y0D03*
D11*
X1295834Y87866D03*
D12*
X3142806Y0D03*
D11*
X1274770Y664468D03*
D12*
X497888Y190500D03*
D11*
X1730888Y292993D03*
D14*
X215312Y488950D03*
D10*
X2077795Y38384D03*
D15*
X115607Y762000D03*
D13*
X667751Y-19402D03*
D10*
X1702136Y491501D03*
D13*
X1868466Y268734D03*
X2449070Y571500D03*
D12*
X2588769Y190500D03*
D13*
X2449069Y179895D03*
D12*
X259763Y381000D03*
X2850706Y0D03*
X3214245Y571500D03*
D20*
X334375Y571500D03*
D13*
X1129495Y251975D03*
D12*
X26987Y190500D03*
D13*
X2127376Y416520D03*
D10*
X2264954Y392261D03*
D21*
X804311Y194636D03*
D12*
X528051Y0D03*
X2761807Y381000D03*
X3118994Y190500D03*
X361363Y381000D03*
D22*
X1877896Y847388D03*
D10*
X1890189Y71464D03*
D19*
X2203078Y790049D03*
D23*
X754283Y185815D03*
D12*
X-74613Y190500D03*
D13*
X1058200Y45965D03*
D12*
X-20639Y571500D03*
D13*
X0Y0D03*
D10*
X2005844Y631388D03*
D13*
X3163445Y571500D03*
D12*
X2779269Y190500D03*
D20*
X839901Y781228D03*
D12*
X2398270Y571500D03*
D10*
X1702583Y104544D03*
X1290635Y473827D03*
D13*
X643937Y571500D03*
X849530Y589487D03*
D11*
X2293706Y193753D03*
D13*
X2520507Y381000D03*
D24*
X2901507Y450850D03*
D10*
X1889742Y458421D03*
D11*
X2106100Y226833D03*
D12*
X2850708Y571500D03*
D10*
X2193650Y211395D03*
D11*
X1087164Y631388D03*
D24*
X453437Y641350D03*
D10*
X1818438Y277555D03*
D13*
X2711006Y0D03*
D11*
X827873Y392229D03*
X2365010Y374619D03*
D13*
X1680660Y688727D03*
D12*
X-98426Y381000D03*
D11*
X2365457Y-12338D03*
D13*
X-23813Y190500D03*
D12*
X718551Y-19402D03*
D10*
X891861Y210074D03*
D24*
X3139632Y450850D03*
D11*
X2105900Y613746D03*
D25*
X2303135Y772407D03*
D26*
X704255Y176994D03*
D13*
X2243478Y589487D03*
D11*
X1015479Y425309D03*
D12*
X2880869Y190500D03*
D10*
X1630832Y310635D03*
D12*
X2761806Y0D03*
D17*
X283575Y571500D03*
D25*
X889929Y790049D03*
D24*
X1085730Y895502D03*
D11*
X1918494Y259913D03*
D20*
X3020570Y381000D03*
D12*
X2660207Y381000D03*
D13*
X1752164Y482680D03*
D20*
X2253107Y781228D03*
D13*
X1037136Y622567D03*
D10*
X1174714Y646826D03*
D13*
X1433412Y112125D03*
X286751Y0D03*
X2639569Y190500D03*
D12*
X-122239Y571500D03*
D11*
X2293506Y580666D03*
D12*
X50800Y0D03*
D13*
X310563Y381000D03*
D24*
X215312Y641350D03*
D13*
X610857Y762000D03*
D11*
X1730688Y679906D03*
D13*
X777845Y383408D03*
D11*
X991917Y227716D03*
D19*
X1827867Y856209D03*
D12*
X-50800Y0D03*
D10*
X1008172Y37144D03*
D13*
X2901508Y571500D03*
D12*
X337551Y0D03*
D13*
X1868266Y655647D03*
X310563Y190500D03*
X3092006Y0D03*
D10*
X1165085Y838567D03*
D13*
X-47626Y381000D03*
D10*
X987108Y613746D03*
D27*
X2007279Y895502D03*
D12*
X2431350Y762000D03*
X3112645Y571500D03*
X593137Y571500D03*
X3041206Y0D03*
X2499869Y179895D03*
X2571306Y-19402D03*
D11*
X1990245Y53822D03*
D13*
X1412348Y688727D03*
D10*
X1630632Y697548D03*
D13*
X1245806Y79045D03*
D28*
X1346701Y786767D03*
D10*
X1195778Y70224D03*
D13*
X2901506Y0D03*
X3068194Y190500D03*
D29*
X1320237Y936852D03*
D13*
X1752611Y95723D03*
X1680860Y301814D03*
X870594Y12885D03*
D12*
X599488Y190500D03*
D11*
X1367129Y293876D03*
D12*
X2398269Y179895D03*
X426451Y0D03*
D30*
X1772771Y936852D03*
D13*
X2243678Y202574D03*
X2314982Y383440D03*
D11*
X1179523Y260796D03*
D25*
X1927924Y838567D03*
D12*
X623300Y381000D03*
X2588770Y571500D03*
D15*
X1546504Y771464D03*
D13*
X2639570Y571500D03*
D12*
X361363Y190500D03*
D31*
X143376Y0D03*
D14*
X2901507Y298450D03*
D13*
X2830069Y190500D03*
D11*
X1203085Y458389D03*
D13*
X2520506Y-19402D03*
D11*
X1802639Y86902D03*
X1918294Y646826D03*
X1802192Y473859D03*
D32*
X1112194Y745417D03*
D12*
X3017394Y190500D03*
D13*
X965451Y416488D03*
D12*
X2690369Y190500D03*
X616951Y-19402D03*
X235951Y0D03*
D13*
X2055872Y622567D03*
D10*
X2077348Y425341D03*
D13*
X548688Y190500D03*
D10*
X820566Y4064D03*
D11*
X899558Y598308D03*
D12*
X694737Y571500D03*
D11*
X1265141Y856209D03*
D17*
X3071370Y381000D03*
D12*
X2469707Y381000D03*
D10*
X799502Y580666D03*
D12*
X2952306Y0D03*
D13*
X1153057Y449568D03*
X1215113Y847388D03*
X572500Y381000D03*
X1224742Y655647D03*
D33*
X-85690Y355520D03*
X-22190Y330120D03*
D34*
X-9490Y406320D03*
X-72990Y431720D03*
D35*
X11594Y395146D02*
X34450Y395146D01*
X11594Y395146D02*
X11594Y417494D01*
X34450Y417494D01*
X34450Y395146D01*
X34450Y399494D02*
X11594Y399494D01*
X11594Y403842D02*
X34450Y403842D01*
X34450Y408190D02*
X11594Y408190D01*
X11594Y412538D02*
X34450Y412538D01*
X34450Y416886D02*
X11594Y416886D01*
X-94074Y420546D02*
X-116930Y420546D01*
X-116930Y442894D01*
X-94074Y442894D01*
X-94074Y420546D01*
X-94074Y424894D02*
X-116930Y424894D01*
X-116930Y429242D02*
X-94074Y429242D01*
X-94074Y433590D02*
X-116930Y433590D01*
X-116930Y437938D02*
X-94074Y437938D01*
X-94074Y442286D02*
X-116930Y442286D01*
D33*
X272440Y355600D03*
X335940Y330200D03*
D34*
X348640Y406400D03*
X285140Y431800D03*
D35*
X369724Y395226D02*
X392580Y395226D01*
X369724Y395226D02*
X369724Y417574D01*
X392580Y417574D01*
X392580Y395226D01*
X392580Y399574D02*
X369724Y399574D01*
X369724Y403922D02*
X392580Y403922D01*
X392580Y408270D02*
X369724Y408270D01*
X369724Y412618D02*
X392580Y412618D01*
X392580Y416966D02*
X369724Y416966D01*
X264056Y420626D02*
X241200Y420626D01*
X241200Y442974D01*
X264056Y442974D01*
X264056Y420626D01*
X264056Y424974D02*
X241200Y424974D01*
X241200Y429322D02*
X264056Y429322D01*
X264056Y433670D02*
X241200Y433670D01*
X241200Y438018D02*
X264056Y438018D01*
X264056Y442366D02*
X241200Y442366D01*
D33*
X534420Y355570D03*
X597920Y330170D03*
D34*
X610620Y406370D03*
X547120Y431770D03*
D35*
X631704Y395196D02*
X654560Y395196D01*
X631704Y395196D02*
X631704Y417544D01*
X654560Y417544D01*
X654560Y395196D01*
X654560Y399544D02*
X631704Y399544D01*
X631704Y403892D02*
X654560Y403892D01*
X654560Y408240D02*
X631704Y408240D01*
X631704Y412588D02*
X654560Y412588D01*
X654560Y416936D02*
X631704Y416936D01*
X526036Y420596D02*
X503180Y420596D01*
X503180Y442944D01*
X526036Y442944D01*
X526036Y420596D01*
X526036Y424944D02*
X503180Y424944D01*
X503180Y429292D02*
X526036Y429292D01*
X526036Y433640D02*
X503180Y433640D01*
X503180Y437988D02*
X526036Y437988D01*
X526036Y442336D02*
X503180Y442336D01*
D33*
X744710Y351780D03*
X811655Y337792D03*
D34*
X810931Y415040D03*
X743985Y429028D03*
D35*
X833635Y407698D02*
X856143Y411667D01*
X833635Y407698D02*
X829755Y429705D01*
X852263Y433674D01*
X856143Y411667D01*
X856076Y412046D02*
X832868Y412046D01*
X832102Y416394D02*
X855310Y416394D01*
X854543Y420742D02*
X831335Y420742D01*
X830569Y425090D02*
X853776Y425090D01*
X853010Y429438D02*
X829802Y429438D01*
X725161Y414363D02*
X702653Y410394D01*
X698773Y432401D01*
X721281Y436370D01*
X725161Y414363D01*
X725094Y414742D02*
X701886Y414742D01*
X701120Y419090D02*
X724328Y419090D01*
X723561Y423438D02*
X700353Y423438D01*
X699587Y427786D02*
X722794Y427786D01*
X722028Y432134D02*
X698820Y432134D01*
D33*
X1004050Y590900D03*
X1070995Y576912D03*
D34*
X1070271Y654160D03*
X1003325Y668148D03*
D35*
X1092975Y646818D02*
X1115483Y650787D01*
X1092975Y646818D02*
X1089095Y668825D01*
X1111603Y672794D01*
X1115483Y650787D01*
X1115416Y651166D02*
X1092208Y651166D01*
X1091442Y655514D02*
X1114650Y655514D01*
X1113883Y659862D02*
X1090675Y659862D01*
X1089909Y664210D02*
X1113116Y664210D01*
X1112350Y668558D02*
X1089142Y668558D01*
X984501Y653483D02*
X961993Y649514D01*
X958113Y671521D01*
X980621Y675490D01*
X984501Y653483D01*
X984434Y653862D02*
X961226Y653862D01*
X960460Y658210D02*
X983668Y658210D01*
X982901Y662558D02*
X959693Y662558D01*
X958927Y666906D02*
X982134Y666906D01*
X981368Y671254D02*
X958160Y671254D01*
D33*
X1191650Y624020D03*
X1258595Y610032D03*
D34*
X1257871Y687280D03*
X1190925Y701268D03*
D35*
X1280575Y679938D02*
X1303083Y683907D01*
X1280575Y679938D02*
X1276695Y701945D01*
X1299203Y705914D01*
X1303083Y683907D01*
X1303016Y684286D02*
X1279808Y684286D01*
X1279042Y688634D02*
X1302250Y688634D01*
X1301483Y692982D02*
X1278275Y692982D01*
X1277509Y697330D02*
X1300716Y697330D01*
X1299950Y701678D02*
X1276742Y701678D01*
X1172101Y686603D02*
X1149593Y682634D01*
X1145713Y704641D01*
X1168221Y708610D01*
X1172101Y686603D01*
X1172034Y686982D02*
X1148826Y686982D01*
X1148060Y691330D02*
X1171268Y691330D01*
X1170501Y695678D02*
X1147293Y695678D01*
X1146527Y700026D02*
X1169734Y700026D01*
X1168968Y704374D02*
X1145760Y704374D01*
D33*
X1307550Y450970D03*
X1374495Y436982D03*
D34*
X1373771Y514230D03*
X1306825Y528218D03*
D35*
X1396475Y506888D02*
X1418983Y510857D01*
X1396475Y506888D02*
X1392595Y528895D01*
X1415103Y532864D01*
X1418983Y510857D01*
X1418916Y511236D02*
X1395708Y511236D01*
X1394942Y515584D02*
X1418150Y515584D01*
X1417383Y519932D02*
X1394175Y519932D01*
X1393409Y524280D02*
X1416616Y524280D01*
X1415850Y528628D02*
X1392642Y528628D01*
X1288001Y513553D02*
X1265493Y509584D01*
X1261613Y531591D01*
X1284121Y535560D01*
X1288001Y513553D01*
X1287934Y513932D02*
X1264726Y513932D01*
X1263960Y518280D02*
X1287168Y518280D01*
X1286401Y522628D02*
X1263193Y522628D01*
X1262427Y526976D02*
X1285634Y526976D01*
X1284868Y531324D02*
X1261660Y531324D01*
D33*
X1710188Y464252D03*
X1768313Y428211D03*
D34*
X1794052Y501048D03*
X1735927Y537089D03*
D35*
X1812876Y486383D02*
X1835384Y482414D01*
X1812876Y486383D02*
X1816756Y508390D01*
X1839264Y504421D01*
X1835384Y482414D01*
X1836151Y486762D02*
X1812943Y486762D01*
X1813709Y491110D02*
X1836917Y491110D01*
X1837684Y495458D02*
X1814476Y495458D01*
X1815243Y499806D02*
X1838450Y499806D01*
X1839217Y504154D02*
X1816009Y504154D01*
X1713223Y529747D02*
X1690715Y533716D01*
X1694595Y555723D01*
X1717103Y551754D01*
X1713223Y529747D01*
X1713990Y534095D02*
X1690782Y534095D01*
X1691548Y538443D02*
X1714756Y538443D01*
X1715523Y542791D02*
X1692315Y542791D01*
X1693082Y547139D02*
X1716289Y547139D01*
X1717056Y551487D02*
X1693848Y551487D01*
D33*
X1897838Y431212D03*
X1955963Y395171D03*
D34*
X1981702Y468008D03*
X1923577Y504049D03*
D35*
X2000526Y453343D02*
X2023034Y449374D01*
X2000526Y453343D02*
X2004406Y475350D01*
X2026914Y471381D01*
X2023034Y449374D01*
X2023801Y453722D02*
X2000593Y453722D01*
X2001359Y458070D02*
X2024567Y458070D01*
X2025334Y462418D02*
X2002126Y462418D01*
X2002893Y466766D02*
X2026100Y466766D01*
X2026867Y471114D02*
X2003659Y471114D01*
X1900873Y496707D02*
X1878365Y500676D01*
X1882245Y522683D01*
X1904753Y518714D01*
X1900873Y496707D01*
X1901640Y501055D02*
X1878432Y501055D01*
X1879198Y505403D02*
X1902406Y505403D01*
X1903173Y509751D02*
X1879965Y509751D01*
X1880732Y514099D02*
X1903939Y514099D01*
X1904706Y518447D02*
X1881498Y518447D01*
D33*
X2085448Y398082D03*
X2143573Y362041D03*
D34*
X2169312Y434878D03*
X2111187Y470919D03*
D35*
X2188136Y420213D02*
X2210644Y416244D01*
X2188136Y420213D02*
X2192016Y442220D01*
X2214524Y438251D01*
X2210644Y416244D01*
X2211411Y420592D02*
X2188203Y420592D01*
X2188969Y424940D02*
X2212177Y424940D01*
X2212944Y429288D02*
X2189736Y429288D01*
X2190503Y433636D02*
X2213710Y433636D01*
X2214477Y437984D02*
X2191269Y437984D01*
X2088483Y463577D02*
X2065975Y467546D01*
X2069855Y489553D01*
X2092363Y485584D01*
X2088483Y463577D01*
X2089250Y467925D02*
X2066042Y467925D01*
X2066808Y472273D02*
X2090016Y472273D01*
X2090783Y476621D02*
X2067575Y476621D01*
X2068342Y480969D02*
X2091549Y480969D01*
X2092316Y485317D02*
X2069108Y485317D01*
D33*
X2273078Y365012D03*
X2331203Y328971D03*
D34*
X2356942Y401808D03*
X2298817Y437849D03*
D35*
X2375766Y387143D02*
X2398274Y383174D01*
X2375766Y387143D02*
X2379646Y409150D01*
X2402154Y405181D01*
X2398274Y383174D01*
X2399041Y387522D02*
X2375833Y387522D01*
X2376599Y391870D02*
X2399807Y391870D01*
X2400574Y396218D02*
X2377366Y396218D01*
X2378133Y400566D02*
X2401340Y400566D01*
X2402107Y404914D02*
X2378899Y404914D01*
X2276113Y430507D02*
X2253605Y434476D01*
X2257485Y456483D01*
X2279993Y452514D01*
X2276113Y430507D01*
X2276880Y434855D02*
X2253672Y434855D01*
X2254438Y439203D02*
X2277646Y439203D01*
X2278413Y443551D02*
X2255205Y443551D01*
X2255972Y447899D02*
X2279179Y447899D01*
X2279946Y452247D02*
X2256738Y452247D01*
D33*
X2482420Y355600D03*
X2545920Y330200D03*
D34*
X2558620Y406400D03*
X2495120Y431800D03*
D35*
X2579704Y395226D02*
X2602560Y395226D01*
X2579704Y395226D02*
X2579704Y417574D01*
X2602560Y417574D01*
X2602560Y395226D01*
X2602560Y399574D02*
X2579704Y399574D01*
X2579704Y403922D02*
X2602560Y403922D01*
X2602560Y408270D02*
X2579704Y408270D01*
X2579704Y412618D02*
X2602560Y412618D01*
X2602560Y416966D02*
X2579704Y416966D01*
X2474036Y420626D02*
X2451180Y420626D01*
X2451180Y442974D01*
X2474036Y442974D01*
X2474036Y420626D01*
X2474036Y424974D02*
X2451180Y424974D01*
X2451180Y429322D02*
X2474036Y429322D01*
X2474036Y433670D02*
X2451180Y433670D01*
X2451180Y438018D02*
X2474036Y438018D01*
X2474036Y442366D02*
X2451180Y442366D01*
D33*
X2672940Y355630D03*
X2736440Y330230D03*
D34*
X2749140Y406430D03*
X2685640Y431830D03*
D35*
X2770224Y395256D02*
X2793080Y395256D01*
X2770224Y395256D02*
X2770224Y417604D01*
X2793080Y417604D01*
X2793080Y395256D01*
X2793080Y399604D02*
X2770224Y399604D01*
X2770224Y403952D02*
X2793080Y403952D01*
X2793080Y408300D02*
X2770224Y408300D01*
X2770224Y412648D02*
X2793080Y412648D01*
X2793080Y416996D02*
X2770224Y416996D01*
X2664556Y420656D02*
X2641700Y420656D01*
X2641700Y443004D01*
X2664556Y443004D01*
X2664556Y420656D01*
X2664556Y425004D02*
X2641700Y425004D01*
X2641700Y429352D02*
X2664556Y429352D01*
X2664556Y433700D02*
X2641700Y433700D01*
X2641700Y438048D02*
X2664556Y438048D01*
X2664556Y442396D02*
X2641700Y442396D01*
D33*
X2982440Y355570D03*
X3045940Y330170D03*
D34*
X3058640Y406370D03*
X2995140Y431770D03*
D35*
X3079724Y395196D02*
X3102580Y395196D01*
X3079724Y395196D02*
X3079724Y417544D01*
X3102580Y417544D01*
X3102580Y395196D01*
X3102580Y399544D02*
X3079724Y399544D01*
X3079724Y403892D02*
X3102580Y403892D01*
X3102580Y408240D02*
X3079724Y408240D01*
X3079724Y412588D02*
X3102580Y412588D01*
X3102580Y416936D02*
X3079724Y416936D01*
X2974056Y420596D02*
X2951200Y420596D01*
X2951200Y442944D01*
X2974056Y442944D01*
X2974056Y420596D01*
X2974056Y424944D02*
X2951200Y424944D01*
X2951200Y429292D02*
X2974056Y429292D01*
X2974056Y433640D02*
X2951200Y433640D01*
X2951200Y437988D02*
X2974056Y437988D01*
X2974056Y442336D02*
X2951200Y442336D01*
D33*
X3030090Y165070D03*
X3093590Y139670D03*
D34*
X3106290Y215870D03*
X3042790Y241270D03*
D35*
X3127374Y204696D02*
X3150230Y204696D01*
X3127374Y204696D02*
X3127374Y227044D01*
X3150230Y227044D01*
X3150230Y204696D01*
X3150230Y209044D02*
X3127374Y209044D01*
X3127374Y213392D02*
X3150230Y213392D01*
X3150230Y217740D02*
X3127374Y217740D01*
X3127374Y222088D02*
X3150230Y222088D01*
X3150230Y226436D02*
X3127374Y226436D01*
X3021706Y230096D02*
X2998850Y230096D01*
X2998850Y252444D01*
X3021706Y252444D01*
X3021706Y230096D01*
X3021706Y234444D02*
X2998850Y234444D01*
X2998850Y238792D02*
X3021706Y238792D01*
X3021706Y243140D02*
X2998850Y243140D01*
X2998850Y247488D02*
X3021706Y247488D01*
X3021706Y251836D02*
X2998850Y251836D01*
D33*
X-109520Y546070D03*
X-46020Y520670D03*
D34*
X-33320Y596870D03*
X-96820Y622270D03*
D35*
X-12236Y585696D02*
X10620Y585696D01*
X-12236Y585696D02*
X-12236Y608044D01*
X10620Y608044D01*
X10620Y585696D01*
X10620Y590044D02*
X-12236Y590044D01*
X-12236Y594392D02*
X10620Y594392D01*
X10620Y598740D02*
X-12236Y598740D01*
X-12236Y603088D02*
X10620Y603088D01*
X10620Y607436D02*
X-12236Y607436D01*
X-117904Y611096D02*
X-140760Y611096D01*
X-140760Y633444D01*
X-117904Y633444D01*
X-117904Y611096D01*
X-117904Y615444D02*
X-140760Y615444D01*
X-140760Y619792D02*
X-117904Y619792D01*
X-117904Y624140D02*
X-140760Y624140D01*
X-140760Y628488D02*
X-117904Y628488D01*
X-117904Y632836D02*
X-140760Y632836D01*
D33*
X296320Y546070D03*
X359820Y520670D03*
D34*
X372520Y596870D03*
X309020Y622270D03*
D35*
X393604Y585696D02*
X416460Y585696D01*
X393604Y585696D02*
X393604Y608044D01*
X416460Y608044D01*
X416460Y585696D01*
X416460Y590044D02*
X393604Y590044D01*
X393604Y594392D02*
X416460Y594392D01*
X416460Y598740D02*
X393604Y598740D01*
X393604Y603088D02*
X416460Y603088D01*
X416460Y607436D02*
X393604Y607436D01*
X287936Y611096D02*
X265080Y611096D01*
X265080Y633444D01*
X287936Y633444D01*
X287936Y611096D01*
X287936Y615444D02*
X265080Y615444D01*
X265080Y619792D02*
X287936Y619792D01*
X287936Y624140D02*
X265080Y624140D01*
X265080Y628488D02*
X287936Y628488D01*
X287936Y632836D02*
X265080Y632836D01*
D33*
X605840Y546050D03*
X669340Y520650D03*
D34*
X682040Y596850D03*
X618540Y622250D03*
D35*
X703124Y585676D02*
X725980Y585676D01*
X703124Y585676D02*
X703124Y608024D01*
X725980Y608024D01*
X725980Y585676D01*
X725980Y590024D02*
X703124Y590024D01*
X703124Y594372D02*
X725980Y594372D01*
X725980Y598720D02*
X703124Y598720D01*
X703124Y603068D02*
X725980Y603068D01*
X725980Y607416D02*
X703124Y607416D01*
X597456Y611076D02*
X574600Y611076D01*
X574600Y633424D01*
X597456Y633424D01*
X597456Y611076D01*
X597456Y615424D02*
X574600Y615424D01*
X574600Y619772D02*
X597456Y619772D01*
X597456Y624120D02*
X574600Y624120D01*
X574600Y628468D02*
X597456Y628468D01*
X597456Y632816D02*
X574600Y632816D01*
D33*
X816440Y557800D03*
X883385Y543812D03*
D34*
X882661Y621060D03*
X815715Y635048D03*
D35*
X905365Y613718D02*
X927873Y617687D01*
X905365Y613718D02*
X901485Y635725D01*
X923993Y639694D01*
X927873Y617687D01*
X927806Y618066D02*
X904598Y618066D01*
X903832Y622414D02*
X927040Y622414D01*
X926273Y626762D02*
X903065Y626762D01*
X902299Y631110D02*
X925506Y631110D01*
X924740Y635458D02*
X901532Y635458D01*
X796891Y620383D02*
X774383Y616414D01*
X770503Y638421D01*
X793011Y642390D01*
X796891Y620383D01*
X796824Y620762D02*
X773616Y620762D01*
X772850Y625110D02*
X796058Y625110D01*
X795291Y629458D02*
X772083Y629458D01*
X771317Y633806D02*
X794524Y633806D01*
X793758Y638154D02*
X770550Y638154D01*
D33*
X2211178Y762802D03*
X2269303Y726761D03*
D34*
X2295042Y799598D03*
X2236917Y835639D03*
D35*
X2313866Y784933D02*
X2336374Y780964D01*
X2313866Y784933D02*
X2317746Y806940D01*
X2340254Y802971D01*
X2336374Y780964D01*
X2337141Y785312D02*
X2313933Y785312D01*
X2314699Y789660D02*
X2337907Y789660D01*
X2338674Y794008D02*
X2315466Y794008D01*
X2316233Y798356D02*
X2339440Y798356D01*
X2340207Y802704D02*
X2316999Y802704D01*
X2214213Y828297D02*
X2191705Y832266D01*
X2195585Y854273D01*
X2218093Y850304D01*
X2214213Y828297D01*
X2214980Y832645D02*
X2191772Y832645D01*
X2192538Y836993D02*
X2215746Y836993D01*
X2216513Y841341D02*
X2193305Y841341D01*
X2194072Y845689D02*
X2217279Y845689D01*
X2218046Y850037D02*
X2194838Y850037D01*
D33*
X2444040Y736600D03*
X2507540Y711200D03*
D34*
X2520240Y787400D03*
X2456740Y812800D03*
D35*
X2541324Y776226D02*
X2564180Y776226D01*
X2541324Y776226D02*
X2541324Y798574D01*
X2564180Y798574D01*
X2564180Y776226D01*
X2564180Y780574D02*
X2541324Y780574D01*
X2541324Y784922D02*
X2564180Y784922D01*
X2564180Y789270D02*
X2541324Y789270D01*
X2541324Y793618D02*
X2564180Y793618D01*
X2564180Y797966D02*
X2541324Y797966D01*
X2435656Y801626D02*
X2412800Y801626D01*
X2412800Y823974D01*
X2435656Y823974D01*
X2435656Y801626D01*
X2435656Y805974D02*
X2412800Y805974D01*
X2412800Y810322D02*
X2435656Y810322D01*
X2435656Y814670D02*
X2412800Y814670D01*
X2412800Y819018D02*
X2435656Y819018D01*
X2435656Y823366D02*
X2412800Y823366D01*
D33*
X1379230Y657070D03*
X1446175Y643082D03*
D34*
X1445451Y720330D03*
X1378505Y734318D03*
D35*
X1468155Y712988D02*
X1490663Y716957D01*
X1468155Y712988D02*
X1464275Y734995D01*
X1486783Y738964D01*
X1490663Y716957D01*
X1490596Y717336D02*
X1467388Y717336D01*
X1466622Y721684D02*
X1489830Y721684D01*
X1489063Y726032D02*
X1465855Y726032D01*
X1465089Y730380D02*
X1488296Y730380D01*
X1487530Y734728D02*
X1464322Y734728D01*
X1359681Y719653D02*
X1337173Y715684D01*
X1333293Y737691D01*
X1355801Y741660D01*
X1359681Y719653D01*
X1359614Y720032D02*
X1336406Y720032D01*
X1335640Y724380D02*
X1358848Y724380D01*
X1358081Y728728D02*
X1334873Y728728D01*
X1334107Y733076D02*
X1357314Y733076D01*
X1356548Y737424D02*
X1333340Y737424D01*
D33*
X1638758Y670352D03*
X1696883Y634311D03*
D34*
X1722622Y707148D03*
X1664497Y743189D03*
D35*
X1741446Y692483D02*
X1763954Y688514D01*
X1741446Y692483D02*
X1745326Y714490D01*
X1767834Y710521D01*
X1763954Y688514D01*
X1764721Y692862D02*
X1741513Y692862D01*
X1742279Y697210D02*
X1765487Y697210D01*
X1766254Y701558D02*
X1743046Y701558D01*
X1743813Y705906D02*
X1767020Y705906D01*
X1767787Y710254D02*
X1744579Y710254D01*
X1641793Y735847D02*
X1619285Y739816D01*
X1623165Y761823D01*
X1645673Y757854D01*
X1641793Y735847D01*
X1642560Y740195D02*
X1619352Y740195D01*
X1620118Y744543D02*
X1643326Y744543D01*
X1644093Y748891D02*
X1620885Y748891D01*
X1621652Y753239D02*
X1644859Y753239D01*
X1645626Y757587D02*
X1622418Y757587D01*
D33*
X1826418Y637252D03*
X1884543Y601211D03*
D34*
X1910282Y674048D03*
X1852157Y710089D03*
D35*
X1929106Y659383D02*
X1951614Y655414D01*
X1929106Y659383D02*
X1932986Y681390D01*
X1955494Y677421D01*
X1951614Y655414D01*
X1952381Y659762D02*
X1929173Y659762D01*
X1929939Y664110D02*
X1953147Y664110D01*
X1953914Y668458D02*
X1930706Y668458D01*
X1931473Y672806D02*
X1954680Y672806D01*
X1955447Y677154D02*
X1932239Y677154D01*
X1829453Y702747D02*
X1806945Y706716D01*
X1810825Y728723D01*
X1833333Y724754D01*
X1829453Y702747D01*
X1830220Y707095D02*
X1807012Y707095D01*
X1807778Y711443D02*
X1830986Y711443D01*
X1831753Y715791D02*
X1808545Y715791D01*
X1809312Y720139D02*
X1832519Y720139D01*
X1833286Y724487D02*
X1810078Y724487D01*
D33*
X2013948Y604132D03*
X2072073Y568091D03*
D34*
X2097812Y640928D03*
X2039687Y676969D03*
D35*
X2116636Y626263D02*
X2139144Y622294D01*
X2116636Y626263D02*
X2120516Y648270D01*
X2143024Y644301D01*
X2139144Y622294D01*
X2139911Y626642D02*
X2116703Y626642D01*
X2117469Y630990D02*
X2140677Y630990D01*
X2141444Y635338D02*
X2118236Y635338D01*
X2119003Y639686D02*
X2142210Y639686D01*
X2142977Y644034D02*
X2119769Y644034D01*
X2016983Y669627D02*
X1994475Y673596D01*
X1998355Y695603D01*
X2020863Y691634D01*
X2016983Y669627D01*
X2017750Y673975D02*
X1994542Y673975D01*
X1995308Y678323D02*
X2018516Y678323D01*
X2019283Y682671D02*
X1996075Y682671D01*
X1996842Y687019D02*
X2020049Y687019D01*
X2020816Y691367D02*
X1997608Y691367D01*
D33*
X2201578Y571082D03*
X2259703Y535041D03*
D34*
X2285442Y607878D03*
X2227317Y643919D03*
D35*
X2304266Y593213D02*
X2326774Y589244D01*
X2304266Y593213D02*
X2308146Y615220D01*
X2330654Y611251D01*
X2326774Y589244D01*
X2327541Y593592D02*
X2304333Y593592D01*
X2305099Y597940D02*
X2328307Y597940D01*
X2329074Y602288D02*
X2305866Y602288D01*
X2306633Y606636D02*
X2329840Y606636D01*
X2330607Y610984D02*
X2307399Y610984D01*
X2204613Y636577D02*
X2182105Y640546D01*
X2185985Y662553D01*
X2208493Y658584D01*
X2204613Y636577D01*
X2205380Y640925D02*
X2182172Y640925D01*
X2182938Y645273D02*
X2206146Y645273D01*
X2206913Y649621D02*
X2183705Y649621D01*
X2184472Y653969D02*
X2207679Y653969D01*
X2208446Y658317D02*
X2185238Y658317D01*
D33*
X2410970Y546100D03*
X2474470Y520700D03*
D34*
X2487170Y596900D03*
X2423670Y622300D03*
D35*
X2508254Y585726D02*
X2531110Y585726D01*
X2508254Y585726D02*
X2508254Y608074D01*
X2531110Y608074D01*
X2531110Y585726D01*
X2531110Y590074D02*
X2508254Y590074D01*
X2508254Y594422D02*
X2531110Y594422D01*
X2531110Y598770D02*
X2508254Y598770D01*
X2508254Y603118D02*
X2531110Y603118D01*
X2531110Y607466D02*
X2508254Y607466D01*
X2402586Y611126D02*
X2379730Y611126D01*
X2379730Y633474D01*
X2402586Y633474D01*
X2402586Y611126D01*
X2402586Y615474D02*
X2379730Y615474D01*
X2379730Y619822D02*
X2402586Y619822D01*
X2402586Y624170D02*
X2379730Y624170D01*
X2379730Y628518D02*
X2402586Y628518D01*
X2402586Y632866D02*
X2379730Y632866D01*
D33*
X2601490Y546050D03*
X2664990Y520650D03*
D34*
X2677690Y596850D03*
X2614190Y622250D03*
D35*
X2698774Y585676D02*
X2721630Y585676D01*
X2698774Y585676D02*
X2698774Y608024D01*
X2721630Y608024D01*
X2721630Y585676D01*
X2721630Y590024D02*
X2698774Y590024D01*
X2698774Y594372D02*
X2721630Y594372D01*
X2721630Y598720D02*
X2698774Y598720D01*
X2698774Y603068D02*
X2721630Y603068D01*
X2721630Y607416D02*
X2698774Y607416D01*
X2593106Y611076D02*
X2570250Y611076D01*
X2570250Y633424D01*
X2593106Y633424D01*
X2593106Y611076D01*
X2593106Y615424D02*
X2570250Y615424D01*
X2570250Y619772D02*
X2593106Y619772D01*
X2593106Y624120D02*
X2570250Y624120D01*
X2570250Y628468D02*
X2593106Y628468D01*
X2593106Y632816D02*
X2570250Y632816D01*
D33*
X2863420Y546100D03*
X2926920Y520700D03*
D34*
X2939620Y596900D03*
X2876120Y622300D03*
D35*
X2960704Y585726D02*
X2983560Y585726D01*
X2960704Y585726D02*
X2960704Y608074D01*
X2983560Y608074D01*
X2983560Y585726D01*
X2983560Y590074D02*
X2960704Y590074D01*
X2960704Y594422D02*
X2983560Y594422D01*
X2983560Y598770D02*
X2960704Y598770D01*
X2960704Y603118D02*
X2983560Y603118D01*
X2983560Y607466D02*
X2960704Y607466D01*
X2855036Y611126D02*
X2832180Y611126D01*
X2832180Y633474D01*
X2855036Y633474D01*
X2855036Y611126D01*
X2855036Y615474D02*
X2832180Y615474D01*
X2832180Y619822D02*
X2855036Y619822D01*
X2855036Y624170D02*
X2832180Y624170D01*
X2832180Y628518D02*
X2855036Y628518D01*
X2855036Y632866D02*
X2832180Y632866D01*
D33*
X3125340Y546070D03*
X3188840Y520670D03*
D34*
X3201540Y596870D03*
X3138040Y622270D03*
D35*
X3222624Y585696D02*
X3245480Y585696D01*
X3222624Y585696D02*
X3222624Y608044D01*
X3245480Y608044D01*
X3245480Y585696D01*
X3245480Y590044D02*
X3222624Y590044D01*
X3222624Y594392D02*
X3245480Y594392D01*
X3245480Y598740D02*
X3222624Y598740D01*
X3222624Y603088D02*
X3245480Y603088D01*
X3245480Y607436D02*
X3222624Y607436D01*
X3116956Y611096D02*
X3094100Y611096D01*
X3094100Y633444D01*
X3116956Y633444D01*
X3116956Y611096D01*
X3116956Y615444D02*
X3094100Y615444D01*
X3094100Y619792D02*
X3116956Y619792D01*
X3116956Y624140D02*
X3094100Y624140D01*
X3094100Y628488D02*
X3116956Y628488D01*
X3116956Y632836D02*
X3094100Y632836D01*
D33*
X572800Y736570D03*
X636300Y711170D03*
D34*
X649000Y787370D03*
X585500Y812770D03*
D35*
X670084Y776196D02*
X692940Y776196D01*
X670084Y776196D02*
X670084Y798544D01*
X692940Y798544D01*
X692940Y776196D01*
X692940Y780544D02*
X670084Y780544D01*
X670084Y784892D02*
X692940Y784892D01*
X692940Y789240D02*
X670084Y789240D01*
X670084Y793588D02*
X692940Y793588D01*
X692940Y797936D02*
X670084Y797936D01*
X564416Y801596D02*
X541560Y801596D01*
X541560Y823944D01*
X564416Y823944D01*
X564416Y801596D01*
X564416Y805944D02*
X541560Y805944D01*
X541560Y810292D02*
X564416Y810292D01*
X564416Y814640D02*
X541560Y814640D01*
X541560Y818988D02*
X564416Y818988D01*
X564416Y823336D02*
X541560Y823336D01*
D33*
X806840Y749600D03*
X873785Y735612D03*
D34*
X873061Y812860D03*
X806115Y826848D03*
D35*
X895765Y805518D02*
X918273Y809487D01*
X895765Y805518D02*
X891885Y827525D01*
X914393Y831494D01*
X918273Y809487D01*
X918206Y809866D02*
X894998Y809866D01*
X894232Y814214D02*
X917440Y814214D01*
X916673Y818562D02*
X893465Y818562D01*
X892699Y822910D02*
X915906Y822910D01*
X915140Y827258D02*
X891932Y827258D01*
X787291Y812183D02*
X764783Y808214D01*
X760903Y830221D01*
X783411Y834190D01*
X787291Y812183D01*
X787224Y812562D02*
X764016Y812562D01*
X763250Y816910D02*
X786458Y816910D01*
X785691Y821258D02*
X762483Y821258D01*
X761717Y825606D02*
X784924Y825606D01*
X784158Y829954D02*
X760950Y829954D01*
D33*
X1182000Y815740D03*
X1248945Y801752D03*
D34*
X1248221Y879000D03*
X1181275Y892988D03*
D35*
X1270925Y871658D02*
X1293433Y875627D01*
X1270925Y871658D02*
X1267045Y893665D01*
X1289553Y897634D01*
X1293433Y875627D01*
X1293366Y876006D02*
X1270158Y876006D01*
X1269392Y880354D02*
X1292600Y880354D01*
X1291833Y884702D02*
X1268625Y884702D01*
X1267859Y889050D02*
X1291066Y889050D01*
X1290300Y893398D02*
X1267092Y893398D01*
X1162451Y878323D02*
X1139943Y874354D01*
X1136063Y896361D01*
X1158571Y900330D01*
X1162451Y878323D01*
X1162384Y878702D02*
X1139176Y878702D01*
X1138410Y883050D02*
X1161618Y883050D01*
X1160851Y887398D02*
X1137643Y887398D01*
X1136877Y891746D02*
X1160084Y891746D01*
X1159318Y896094D02*
X1136110Y896094D01*
D33*
X1835988Y828972D03*
X1894113Y792931D03*
D34*
X1919852Y865768D03*
X1861727Y901809D03*
D35*
X1938676Y851103D02*
X1961184Y847134D01*
X1938676Y851103D02*
X1942556Y873110D01*
X1965064Y869141D01*
X1961184Y847134D01*
X1961951Y851482D02*
X1938743Y851482D01*
X1939509Y855830D02*
X1962717Y855830D01*
X1963484Y860178D02*
X1940276Y860178D01*
X1941043Y864526D02*
X1964250Y864526D01*
X1965017Y868874D02*
X1941809Y868874D01*
X1839023Y894467D02*
X1816515Y898436D01*
X1820395Y920443D01*
X1842903Y916474D01*
X1839023Y894467D01*
X1839790Y898815D02*
X1816582Y898815D01*
X1817348Y903163D02*
X1840556Y903163D01*
X1841323Y907511D02*
X1818115Y907511D01*
X1818882Y911859D02*
X1842089Y911859D01*
X1842856Y916207D02*
X1819648Y916207D01*
D33*
X932340Y384880D03*
X999285Y370892D03*
D34*
X998561Y448140D03*
X931615Y462128D03*
D35*
X1021265Y440798D02*
X1043773Y444767D01*
X1021265Y440798D02*
X1017385Y462805D01*
X1039893Y466774D01*
X1043773Y444767D01*
X1043706Y445146D02*
X1020498Y445146D01*
X1019732Y449494D02*
X1042940Y449494D01*
X1042173Y453842D02*
X1018965Y453842D01*
X1018199Y458190D02*
X1041406Y458190D01*
X1040640Y462538D02*
X1017432Y462538D01*
X912791Y447463D02*
X890283Y443494D01*
X886403Y465501D01*
X908911Y469470D01*
X912791Y447463D01*
X912724Y447842D02*
X889516Y447842D01*
X888750Y452190D02*
X911958Y452190D01*
X911191Y456538D02*
X887983Y456538D01*
X887217Y460886D02*
X910424Y460886D01*
X909658Y465234D02*
X886450Y465234D01*
D33*
X1119970Y417920D03*
X1186915Y403932D03*
D34*
X1186191Y481180D03*
X1119245Y495168D03*
D35*
X1208895Y473838D02*
X1231403Y477807D01*
X1208895Y473838D02*
X1205015Y495845D01*
X1227523Y499814D01*
X1231403Y477807D01*
X1231336Y478186D02*
X1208128Y478186D01*
X1207362Y482534D02*
X1230570Y482534D01*
X1229803Y486882D02*
X1206595Y486882D01*
X1205829Y491230D02*
X1229036Y491230D01*
X1228270Y495578D02*
X1205062Y495578D01*
X1100421Y480503D02*
X1077913Y476534D01*
X1074033Y498541D01*
X1096541Y502510D01*
X1100421Y480503D01*
X1100354Y480882D02*
X1077146Y480882D01*
X1076380Y485230D02*
X1099588Y485230D01*
X1098821Y489578D02*
X1075613Y489578D01*
X1074847Y493926D02*
X1098054Y493926D01*
X1097288Y498274D02*
X1074080Y498274D01*
D33*
X1284080Y253430D03*
X1351025Y239442D03*
D34*
X1350301Y316690D03*
X1283355Y330678D03*
D35*
X1373005Y309348D02*
X1395513Y313317D01*
X1373005Y309348D02*
X1369125Y331355D01*
X1391633Y335324D01*
X1395513Y313317D01*
X1395446Y313696D02*
X1372238Y313696D01*
X1371472Y318044D02*
X1394680Y318044D01*
X1393913Y322392D02*
X1370705Y322392D01*
X1369939Y326740D02*
X1393146Y326740D01*
X1392380Y331088D02*
X1369172Y331088D01*
X1264531Y316013D02*
X1242023Y312044D01*
X1238143Y334051D01*
X1260651Y338020D01*
X1264531Y316013D01*
X1264464Y316392D02*
X1241256Y316392D01*
X1240490Y320740D02*
X1263698Y320740D01*
X1262931Y325088D02*
X1239723Y325088D01*
X1238957Y329436D02*
X1262164Y329436D01*
X1261398Y333784D02*
X1238190Y333784D01*
D33*
X1638888Y283382D03*
X1697013Y247341D03*
D34*
X1722752Y320178D03*
X1664627Y356219D03*
D35*
X1741576Y305513D02*
X1764084Y301544D01*
X1741576Y305513D02*
X1745456Y327520D01*
X1767964Y323551D01*
X1764084Y301544D01*
X1764851Y305892D02*
X1741643Y305892D01*
X1742409Y310240D02*
X1765617Y310240D01*
X1766384Y314588D02*
X1743176Y314588D01*
X1743943Y318936D02*
X1767150Y318936D01*
X1767917Y323284D02*
X1744709Y323284D01*
X1641923Y348877D02*
X1619415Y352846D01*
X1623295Y374853D01*
X1645803Y370884D01*
X1641923Y348877D01*
X1642690Y353225D02*
X1619482Y353225D01*
X1620248Y357573D02*
X1643456Y357573D01*
X1644223Y361921D02*
X1621015Y361921D01*
X1621782Y366269D02*
X1644989Y366269D01*
X1645756Y370617D02*
X1622548Y370617D01*
D33*
X1826538Y250312D03*
X1884663Y214271D03*
D34*
X1910402Y287108D03*
X1852277Y323149D03*
D35*
X1929226Y272443D02*
X1951734Y268474D01*
X1929226Y272443D02*
X1933106Y294450D01*
X1955614Y290481D01*
X1951734Y268474D01*
X1952501Y272822D02*
X1929293Y272822D01*
X1930059Y277170D02*
X1953267Y277170D01*
X1954034Y281518D02*
X1930826Y281518D01*
X1931593Y285866D02*
X1954800Y285866D01*
X1955567Y290214D02*
X1932359Y290214D01*
X1829573Y315807D02*
X1807065Y319776D01*
X1810945Y341783D01*
X1833453Y337814D01*
X1829573Y315807D01*
X1830340Y320155D02*
X1807132Y320155D01*
X1807898Y324503D02*
X1831106Y324503D01*
X1831873Y328851D02*
X1808665Y328851D01*
X1809432Y333199D02*
X1832639Y333199D01*
X1833406Y337547D02*
X1810198Y337547D01*
D33*
X2014168Y217292D03*
X2072293Y181251D03*
D34*
X2098032Y254088D03*
X2039907Y290129D03*
D35*
X2116856Y239423D02*
X2139364Y235454D01*
X2116856Y239423D02*
X2120736Y261430D01*
X2143244Y257461D01*
X2139364Y235454D01*
X2140131Y239802D02*
X2116923Y239802D01*
X2117689Y244150D02*
X2140897Y244150D01*
X2141664Y248498D02*
X2118456Y248498D01*
X2119223Y252846D02*
X2142430Y252846D01*
X2143197Y257194D02*
X2119989Y257194D01*
X2017203Y282787D02*
X1994695Y286756D01*
X1998575Y308763D01*
X2021083Y304794D01*
X2017203Y282787D01*
X2017970Y287135D02*
X1994762Y287135D01*
X1995528Y291483D02*
X2018736Y291483D01*
X2019503Y295831D02*
X1996295Y295831D01*
X1997062Y300179D02*
X2020269Y300179D01*
X2021036Y304527D02*
X1997828Y304527D01*
D33*
X2201728Y184222D03*
X2259853Y148181D03*
D34*
X2285592Y221018D03*
X2227467Y257059D03*
D35*
X2304416Y206353D02*
X2326924Y202384D01*
X2304416Y206353D02*
X2308296Y228360D01*
X2330804Y224391D01*
X2326924Y202384D01*
X2327691Y206732D02*
X2304483Y206732D01*
X2305249Y211080D02*
X2328457Y211080D01*
X2329224Y215428D02*
X2306016Y215428D01*
X2306783Y219776D02*
X2329990Y219776D01*
X2330757Y224124D02*
X2307549Y224124D01*
X2204763Y249717D02*
X2182255Y253686D01*
X2186135Y275693D01*
X2208643Y271724D01*
X2204763Y249717D01*
X2205530Y254065D02*
X2182322Y254065D01*
X2183088Y258413D02*
X2206296Y258413D01*
X2207063Y262761D02*
X2183855Y262761D01*
X2184622Y267109D02*
X2207829Y267109D01*
X2208596Y271457D02*
X2185388Y271457D01*
D33*
X2410970Y154460D03*
X2474470Y129060D03*
D34*
X2487170Y205260D03*
X2423670Y230660D03*
D35*
X2508254Y194086D02*
X2531110Y194086D01*
X2508254Y194086D02*
X2508254Y216434D01*
X2531110Y216434D01*
X2531110Y194086D01*
X2531110Y198434D02*
X2508254Y198434D01*
X2508254Y202782D02*
X2531110Y202782D01*
X2531110Y207130D02*
X2508254Y207130D01*
X2508254Y211478D02*
X2531110Y211478D01*
X2531110Y215826D02*
X2508254Y215826D01*
X2402586Y219486D02*
X2379730Y219486D01*
X2379730Y241834D01*
X2402586Y241834D01*
X2402586Y219486D01*
X2402586Y223834D02*
X2379730Y223834D01*
X2379730Y228182D02*
X2402586Y228182D01*
X2402586Y232530D02*
X2379730Y232530D01*
X2379730Y236878D02*
X2402586Y236878D01*
X2402586Y241226D02*
X2379730Y241226D01*
D33*
X2601490Y165050D03*
X2664990Y139650D03*
D34*
X2677690Y215850D03*
X2614190Y241250D03*
D35*
X2698774Y204676D02*
X2721630Y204676D01*
X2698774Y204676D02*
X2698774Y227024D01*
X2721630Y227024D01*
X2721630Y204676D01*
X2721630Y209024D02*
X2698774Y209024D01*
X2698774Y213372D02*
X2721630Y213372D01*
X2721630Y217720D02*
X2698774Y217720D01*
X2698774Y222068D02*
X2721630Y222068D01*
X2721630Y226416D02*
X2698774Y226416D01*
X2593106Y230076D02*
X2570250Y230076D01*
X2570250Y252424D01*
X2593106Y252424D01*
X2593106Y230076D01*
X2593106Y234424D02*
X2570250Y234424D01*
X2570250Y238772D02*
X2593106Y238772D01*
X2593106Y243120D02*
X2570250Y243120D01*
X2570250Y247468D02*
X2593106Y247468D01*
X2593106Y251816D02*
X2570250Y251816D01*
D33*
X2791970Y165070D03*
X2855470Y139670D03*
D34*
X2868170Y215870D03*
X2804670Y241270D03*
D35*
X2889254Y204696D02*
X2912110Y204696D01*
X2889254Y204696D02*
X2889254Y227044D01*
X2912110Y227044D01*
X2912110Y204696D01*
X2912110Y209044D02*
X2889254Y209044D01*
X2889254Y213392D02*
X2912110Y213392D01*
X2912110Y217740D02*
X2889254Y217740D01*
X2889254Y222088D02*
X2912110Y222088D01*
X2912110Y226436D02*
X2889254Y226436D01*
X2783586Y230096D02*
X2760730Y230096D01*
X2760730Y252444D01*
X2783586Y252444D01*
X2783586Y230096D01*
X2783586Y234444D02*
X2760730Y234444D01*
X2760730Y238792D02*
X2783586Y238792D01*
X2783586Y243140D02*
X2760730Y243140D01*
X2760730Y247488D02*
X2783586Y247488D01*
X2783586Y251836D02*
X2760730Y251836D01*
D33*
X-61870Y165130D03*
X1630Y139730D03*
D34*
X14330Y215930D03*
X-49170Y241330D03*
D35*
X35414Y204756D02*
X58270Y204756D01*
X35414Y204756D02*
X35414Y227104D01*
X58270Y227104D01*
X58270Y204756D01*
X58270Y209104D02*
X35414Y209104D01*
X35414Y213452D02*
X58270Y213452D01*
X58270Y217800D02*
X35414Y217800D01*
X35414Y222148D02*
X58270Y222148D01*
X58270Y226496D02*
X35414Y226496D01*
X-70254Y230156D02*
X-93110Y230156D01*
X-93110Y252504D01*
X-70254Y252504D01*
X-70254Y230156D01*
X-70254Y234504D02*
X-93110Y234504D01*
X-93110Y238852D02*
X-70254Y238852D01*
X-70254Y243200D02*
X-93110Y243200D01*
X-93110Y247548D02*
X-70254Y247548D01*
X-70254Y251896D02*
X-93110Y251896D01*
D33*
X272490Y165100D03*
X335990Y139700D03*
D34*
X348690Y215900D03*
X285190Y241300D03*
D35*
X369774Y204726D02*
X392630Y204726D01*
X369774Y204726D02*
X369774Y227074D01*
X392630Y227074D01*
X392630Y204726D01*
X392630Y209074D02*
X369774Y209074D01*
X369774Y213422D02*
X392630Y213422D01*
X392630Y217770D02*
X369774Y217770D01*
X369774Y222118D02*
X392630Y222118D01*
X392630Y226466D02*
X369774Y226466D01*
X264106Y230126D02*
X241250Y230126D01*
X241250Y252474D01*
X264106Y252474D01*
X264106Y230126D01*
X264106Y234474D02*
X241250Y234474D01*
X241250Y238822D02*
X264106Y238822D01*
X264106Y243170D02*
X241250Y243170D01*
X241250Y247518D02*
X264106Y247518D01*
X264106Y251866D02*
X241250Y251866D01*
D33*
X510590Y165070D03*
X574090Y139670D03*
D34*
X586790Y215870D03*
X523290Y241270D03*
D35*
X607874Y204696D02*
X630730Y204696D01*
X607874Y204696D02*
X607874Y227044D01*
X630730Y227044D01*
X630730Y204696D01*
X630730Y209044D02*
X607874Y209044D01*
X607874Y213392D02*
X630730Y213392D01*
X630730Y217740D02*
X607874Y217740D01*
X607874Y222088D02*
X630730Y222088D01*
X630730Y226436D02*
X607874Y226436D01*
X502206Y230096D02*
X479350Y230096D01*
X479350Y252444D01*
X502206Y252444D01*
X502206Y230096D01*
X502206Y234444D02*
X479350Y234444D01*
X479350Y238792D02*
X502206Y238792D01*
X502206Y243140D02*
X479350Y243140D01*
X479350Y247488D02*
X502206Y247488D01*
X502206Y251836D02*
X479350Y251836D01*
D33*
X721170Y154200D03*
X788115Y140212D03*
D34*
X787391Y217460D03*
X720445Y231448D03*
D35*
X810095Y210118D02*
X832603Y214087D01*
X810095Y210118D02*
X806215Y232125D01*
X828723Y236094D01*
X832603Y214087D01*
X832536Y214466D02*
X809328Y214466D01*
X808562Y218814D02*
X831770Y218814D01*
X831003Y223162D02*
X807795Y223162D01*
X807029Y227510D02*
X830236Y227510D01*
X829470Y231858D02*
X806262Y231858D01*
X701621Y216783D02*
X679113Y212814D01*
X675233Y234821D01*
X697741Y238790D01*
X701621Y216783D01*
X701554Y217162D02*
X678346Y217162D01*
X677580Y221510D02*
X700788Y221510D01*
X700021Y225858D02*
X676813Y225858D01*
X676047Y230206D02*
X699254Y230206D01*
X698488Y234554D02*
X675280Y234554D01*
D33*
X908750Y187240D03*
X975695Y173252D03*
D34*
X974971Y250500D03*
X908025Y264488D03*
D35*
X997675Y243158D02*
X1020183Y247127D01*
X997675Y243158D02*
X993795Y265165D01*
X1016303Y269134D01*
X1020183Y247127D01*
X1020116Y247506D02*
X996908Y247506D01*
X996142Y251854D02*
X1019350Y251854D01*
X1018583Y256202D02*
X995375Y256202D01*
X994609Y260550D02*
X1017816Y260550D01*
X1017050Y264898D02*
X993842Y264898D01*
X889201Y249823D02*
X866693Y245854D01*
X862813Y267861D01*
X885321Y271830D01*
X889201Y249823D01*
X889134Y250202D02*
X865926Y250202D01*
X865160Y254550D02*
X888368Y254550D01*
X887601Y258898D02*
X864393Y258898D01*
X863627Y263246D02*
X886834Y263246D01*
X886068Y267594D02*
X862860Y267594D01*
D33*
X1096400Y220340D03*
X1163345Y206352D03*
D34*
X1162621Y283600D03*
X1095675Y297588D03*
D35*
X1185325Y276258D02*
X1207833Y280227D01*
X1185325Y276258D02*
X1181445Y298265D01*
X1203953Y302234D01*
X1207833Y280227D01*
X1207766Y280606D02*
X1184558Y280606D01*
X1183792Y284954D02*
X1207000Y284954D01*
X1206233Y289302D02*
X1183025Y289302D01*
X1182259Y293650D02*
X1205466Y293650D01*
X1204700Y297998D02*
X1181492Y297998D01*
X1076851Y282923D02*
X1054343Y278954D01*
X1050463Y300961D01*
X1072971Y304930D01*
X1076851Y282923D01*
X1076784Y283302D02*
X1053576Y283302D01*
X1052810Y287650D02*
X1076018Y287650D01*
X1075251Y291998D02*
X1052043Y291998D01*
X1051277Y296346D02*
X1074484Y296346D01*
X1073718Y300694D02*
X1050510Y300694D01*
D33*
X1212680Y47390D03*
X1279625Y33402D03*
D34*
X1278901Y110650D03*
X1211955Y124638D03*
D35*
X1301605Y103308D02*
X1324113Y107277D01*
X1301605Y103308D02*
X1297725Y125315D01*
X1320233Y129284D01*
X1324113Y107277D01*
X1324046Y107656D02*
X1300838Y107656D01*
X1300072Y112004D02*
X1323280Y112004D01*
X1322513Y116352D02*
X1299305Y116352D01*
X1298539Y120700D02*
X1321746Y120700D01*
X1320980Y125048D02*
X1297772Y125048D01*
X1193131Y109973D02*
X1170623Y106004D01*
X1166743Y128011D01*
X1189251Y131980D01*
X1193131Y109973D01*
X1193064Y110352D02*
X1169856Y110352D01*
X1169090Y114700D02*
X1192298Y114700D01*
X1191531Y119048D02*
X1168323Y119048D01*
X1167557Y123396D02*
X1190764Y123396D01*
X1189998Y127744D02*
X1166790Y127744D01*
D33*
X1400310Y80460D03*
X1467255Y66472D03*
D34*
X1466531Y143720D03*
X1399585Y157708D03*
D35*
X1489235Y136378D02*
X1511743Y140347D01*
X1489235Y136378D02*
X1485355Y158385D01*
X1507863Y162354D01*
X1511743Y140347D01*
X1511676Y140726D02*
X1488468Y140726D01*
X1487702Y145074D02*
X1510910Y145074D01*
X1510143Y149422D02*
X1486935Y149422D01*
X1486169Y153770D02*
X1509376Y153770D01*
X1508610Y158118D02*
X1485402Y158118D01*
X1380761Y143043D02*
X1358253Y139074D01*
X1354373Y161081D01*
X1376881Y165050D01*
X1380761Y143043D01*
X1380694Y143422D02*
X1357486Y143422D01*
X1356720Y147770D02*
X1379928Y147770D01*
X1379161Y152118D02*
X1355953Y152118D01*
X1355187Y156466D02*
X1378394Y156466D01*
X1377628Y160814D02*
X1354420Y160814D01*
D33*
X1710698Y77312D03*
X1768823Y41271D03*
D34*
X1794562Y114108D03*
X1736437Y150149D03*
D35*
X1813386Y99443D02*
X1835894Y95474D01*
X1813386Y99443D02*
X1817266Y121450D01*
X1839774Y117481D01*
X1835894Y95474D01*
X1836661Y99822D02*
X1813453Y99822D01*
X1814219Y104170D02*
X1837427Y104170D01*
X1838194Y108518D02*
X1814986Y108518D01*
X1815753Y112866D02*
X1838960Y112866D01*
X1839727Y117214D02*
X1816519Y117214D01*
X1713733Y142807D02*
X1691225Y146776D01*
X1695105Y168783D01*
X1717613Y164814D01*
X1713733Y142807D01*
X1714500Y147155D02*
X1691292Y147155D01*
X1692058Y151503D02*
X1715266Y151503D01*
X1716033Y155851D02*
X1692825Y155851D01*
X1693592Y160199D02*
X1716799Y160199D01*
X1717566Y164547D02*
X1694358Y164547D01*
D33*
X1898298Y44212D03*
X1956423Y8171D03*
D34*
X1982162Y81008D03*
X1924037Y117049D03*
D35*
X2000986Y66343D02*
X2023494Y62374D01*
X2000986Y66343D02*
X2004866Y88350D01*
X2027374Y84381D01*
X2023494Y62374D01*
X2024261Y66722D02*
X2001053Y66722D01*
X2001819Y71070D02*
X2025027Y71070D01*
X2025794Y75418D02*
X2002586Y75418D01*
X2003353Y79766D02*
X2026560Y79766D01*
X2027327Y84114D02*
X2004119Y84114D01*
X1901333Y109707D02*
X1878825Y113676D01*
X1882705Y135683D01*
X1905213Y131714D01*
X1901333Y109707D01*
X1902100Y114055D02*
X1878892Y114055D01*
X1879658Y118403D02*
X1902866Y118403D01*
X1903633Y122751D02*
X1880425Y122751D01*
X1881192Y127099D02*
X1904399Y127099D01*
X1905166Y131447D02*
X1881958Y131447D01*
D33*
X2085878Y11172D03*
X2144003Y-24869D03*
D34*
X2169742Y47968D03*
X2111617Y84009D03*
D35*
X2188566Y33303D02*
X2211074Y29334D01*
X2188566Y33303D02*
X2192446Y55310D01*
X2214954Y51341D01*
X2211074Y29334D01*
X2211841Y33682D02*
X2188633Y33682D01*
X2189399Y38030D02*
X2212607Y38030D01*
X2213374Y42378D02*
X2190166Y42378D01*
X2190933Y46726D02*
X2214140Y46726D01*
X2214907Y51074D02*
X2191699Y51074D01*
X2088913Y76667D02*
X2066405Y80636D01*
X2070285Y102643D01*
X2092793Y98674D01*
X2088913Y76667D01*
X2089680Y81015D02*
X2066472Y81015D01*
X2067238Y85363D02*
X2090446Y85363D01*
X2091213Y89711D02*
X2068005Y89711D01*
X2068772Y94059D02*
X2091979Y94059D01*
X2092746Y98407D02*
X2069538Y98407D01*
D33*
X2273558Y-21928D03*
X2331683Y-57969D03*
D34*
X2357422Y14868D03*
X2299297Y50909D03*
D35*
X2376246Y203D02*
X2398754Y-3766D01*
X2376246Y203D02*
X2380126Y22210D01*
X2402634Y18241D01*
X2398754Y-3766D01*
X2399521Y582D02*
X2376313Y582D01*
X2377079Y4930D02*
X2400287Y4930D01*
X2401054Y9278D02*
X2377846Y9278D01*
X2378613Y13626D02*
X2401820Y13626D01*
X2402587Y17974D02*
X2379379Y17974D01*
X2276593Y43567D02*
X2254085Y47536D01*
X2257965Y69543D01*
X2280473Y65574D01*
X2276593Y43567D01*
X2277360Y47915D02*
X2254152Y47915D01*
X2254918Y52263D02*
X2278126Y52263D01*
X2278893Y56611D02*
X2255685Y56611D01*
X2256452Y60959D02*
X2279659Y60959D01*
X2280426Y65307D02*
X2257218Y65307D01*
D33*
X2482420Y-44780D03*
X2545920Y-70180D03*
D34*
X2558620Y6020D03*
X2495120Y31420D03*
D35*
X2579704Y-5154D02*
X2602560Y-5154D01*
X2579704Y-5154D02*
X2579704Y17194D01*
X2602560Y17194D01*
X2602560Y-5154D01*
X2602560Y-806D02*
X2579704Y-806D01*
X2579704Y3542D02*
X2602560Y3542D01*
X2602560Y7890D02*
X2579704Y7890D01*
X2579704Y12238D02*
X2602560Y12238D01*
X2602560Y16586D02*
X2579704Y16586D01*
X2474036Y20246D02*
X2451180Y20246D01*
X2451180Y42594D01*
X2474036Y42594D01*
X2474036Y20246D01*
X2474036Y24594D02*
X2451180Y24594D01*
X2451180Y28942D02*
X2474036Y28942D01*
X2474036Y33290D02*
X2451180Y33290D01*
X2451180Y37638D02*
X2474036Y37638D01*
X2474036Y41986D02*
X2451180Y41986D01*
D33*
X2672940Y-25370D03*
X2736440Y-50770D03*
D34*
X2749140Y25430D03*
X2685640Y50830D03*
D35*
X2770224Y14256D02*
X2793080Y14256D01*
X2770224Y14256D02*
X2770224Y36604D01*
X2793080Y36604D01*
X2793080Y14256D01*
X2793080Y18604D02*
X2770224Y18604D01*
X2770224Y22952D02*
X2793080Y22952D01*
X2793080Y27300D02*
X2770224Y27300D01*
X2770224Y31648D02*
X2793080Y31648D01*
X2793080Y35996D02*
X2770224Y35996D01*
X2664556Y39656D02*
X2641700Y39656D01*
X2641700Y62004D01*
X2664556Y62004D01*
X2664556Y39656D01*
X2664556Y44004D02*
X2641700Y44004D01*
X2641700Y48352D02*
X2664556Y48352D01*
X2664556Y52700D02*
X2641700Y52700D01*
X2641700Y57048D02*
X2664556Y57048D01*
X2664556Y61396D02*
X2641700Y61396D01*
D33*
X2863420Y-25430D03*
X2926920Y-50830D03*
D34*
X2939620Y25370D03*
X2876120Y50770D03*
D35*
X2960704Y14196D02*
X2983560Y14196D01*
X2960704Y14196D02*
X2960704Y36544D01*
X2983560Y36544D01*
X2983560Y14196D01*
X2983560Y18544D02*
X2960704Y18544D01*
X2960704Y22892D02*
X2983560Y22892D01*
X2983560Y27240D02*
X2960704Y27240D01*
X2960704Y31588D02*
X2983560Y31588D01*
X2983560Y35936D02*
X2960704Y35936D01*
X2855036Y39596D02*
X2832180Y39596D01*
X2832180Y61944D01*
X2855036Y61944D01*
X2855036Y39596D01*
X2855036Y43944D02*
X2832180Y43944D01*
X2832180Y48292D02*
X2855036Y48292D01*
X2855036Y52640D02*
X2832180Y52640D01*
X2832180Y56988D02*
X2855036Y56988D01*
X2855036Y61336D02*
X2832180Y61336D01*
D33*
X-38070Y-25430D03*
X25430Y-50830D03*
D34*
X38130Y25370D03*
X-25370Y50770D03*
D35*
X59214Y14196D02*
X82070Y14196D01*
X59214Y14196D02*
X59214Y36544D01*
X82070Y36544D01*
X82070Y14196D01*
X82070Y18544D02*
X59214Y18544D01*
X59214Y22892D02*
X82070Y22892D01*
X82070Y27240D02*
X59214Y27240D01*
X59214Y31588D02*
X82070Y31588D01*
X82070Y35936D02*
X59214Y35936D01*
X-46454Y39596D02*
X-69310Y39596D01*
X-69310Y61944D01*
X-46454Y61944D01*
X-46454Y39596D01*
X-46454Y43944D02*
X-69310Y43944D01*
X-69310Y48292D02*
X-46454Y48292D01*
X-46454Y52640D02*
X-69310Y52640D01*
X-69310Y56988D02*
X-46454Y56988D01*
X-46454Y61336D02*
X-69310Y61336D01*
D33*
X248670Y-25430D03*
X312170Y-50830D03*
D34*
X324870Y25370D03*
X261370Y50770D03*
D35*
X345954Y14196D02*
X368810Y14196D01*
X345954Y14196D02*
X345954Y36544D01*
X368810Y36544D01*
X368810Y14196D01*
X368810Y18544D02*
X345954Y18544D01*
X345954Y22892D02*
X368810Y22892D01*
X368810Y27240D02*
X345954Y27240D01*
X345954Y31588D02*
X368810Y31588D01*
X368810Y35936D02*
X345954Y35936D01*
X240286Y39596D02*
X217430Y39596D01*
X217430Y61944D01*
X240286Y61944D01*
X240286Y39596D01*
X240286Y43944D02*
X217430Y43944D01*
X217430Y48292D02*
X240286Y48292D01*
X240286Y52640D02*
X217430Y52640D01*
X217430Y56988D02*
X240286Y56988D01*
X240286Y61336D02*
X217430Y61336D01*
D33*
X439220Y-25400D03*
X502720Y-50800D03*
D34*
X515420Y25400D03*
X451920Y50800D03*
D35*
X536504Y14226D02*
X559360Y14226D01*
X536504Y14226D02*
X536504Y36574D01*
X559360Y36574D01*
X559360Y14226D01*
X559360Y18574D02*
X536504Y18574D01*
X536504Y22922D02*
X559360Y22922D01*
X559360Y27270D02*
X536504Y27270D01*
X536504Y31618D02*
X559360Y31618D01*
X559360Y35966D02*
X536504Y35966D01*
X430836Y39626D02*
X407980Y39626D01*
X407980Y61974D01*
X430836Y61974D01*
X430836Y39626D01*
X430836Y43974D02*
X407980Y43974D01*
X407980Y48322D02*
X430836Y48322D01*
X430836Y52670D02*
X407980Y52670D01*
X407980Y57018D02*
X430836Y57018D01*
X430836Y61366D02*
X407980Y61366D01*
D33*
X629640Y-44830D03*
X693140Y-70230D03*
D34*
X705840Y5970D03*
X642340Y31370D03*
D35*
X726924Y-5204D02*
X749780Y-5204D01*
X726924Y-5204D02*
X726924Y17144D01*
X749780Y17144D01*
X749780Y-5204D01*
X749780Y-856D02*
X726924Y-856D01*
X726924Y3492D02*
X749780Y3492D01*
X749780Y7840D02*
X726924Y7840D01*
X726924Y12188D02*
X749780Y12188D01*
X749780Y16536D02*
X726924Y16536D01*
X621256Y20196D02*
X598400Y20196D01*
X598400Y42544D01*
X621256Y42544D01*
X621256Y20196D01*
X621256Y24544D02*
X598400Y24544D01*
X598400Y28892D02*
X621256Y28892D01*
X621256Y33240D02*
X598400Y33240D01*
X598400Y37588D02*
X621256Y37588D01*
X621256Y41936D02*
X598400Y41936D01*
D33*
X837500Y-18780D03*
X904445Y-32768D03*
D34*
X903721Y44480D03*
X836775Y58468D03*
D35*
X926425Y37138D02*
X948933Y41107D01*
X926425Y37138D02*
X922545Y59145D01*
X945053Y63114D01*
X948933Y41107D01*
X948866Y41486D02*
X925658Y41486D01*
X924892Y45834D02*
X948100Y45834D01*
X947333Y50182D02*
X924125Y50182D01*
X923359Y54530D02*
X946566Y54530D01*
X945800Y58878D02*
X922592Y58878D01*
X817951Y43803D02*
X795443Y39834D01*
X791563Y61841D01*
X814071Y65810D01*
X817951Y43803D01*
X817884Y44182D02*
X794676Y44182D01*
X793910Y48530D02*
X817118Y48530D01*
X816351Y52878D02*
X793143Y52878D01*
X792377Y57226D02*
X815584Y57226D01*
X814818Y61574D02*
X791610Y61574D01*
D33*
X1025100Y14340D03*
X1092045Y352D03*
D34*
X1091321Y77600D03*
X1024375Y91588D03*
D35*
X1114025Y70258D02*
X1136533Y74227D01*
X1114025Y70258D02*
X1110145Y92265D01*
X1132653Y96234D01*
X1136533Y74227D01*
X1136466Y74606D02*
X1113258Y74606D01*
X1112492Y78954D02*
X1135700Y78954D01*
X1134933Y83302D02*
X1111725Y83302D01*
X1110959Y87650D02*
X1134166Y87650D01*
X1133400Y91998D02*
X1110192Y91998D01*
X1005551Y76923D02*
X983043Y72954D01*
X979163Y94961D01*
X1001671Y98930D01*
X1005551Y76923D01*
X1005484Y77302D02*
X982276Y77302D01*
X981510Y81650D02*
X1004718Y81650D01*
X1003951Y85998D02*
X980743Y85998D01*
X979977Y90346D02*
X1003184Y90346D01*
X1002418Y94694D02*
X979210Y94694D01*
D36*
X34768Y354525D03*
X34768Y318525D03*
X393241Y354853D03*
X393241Y318853D03*
X654738Y355133D03*
X654738Y319133D03*
D37*
G36*
X852850Y362257D02*
X849893Y379029D01*
X872574Y383029D01*
X875531Y366257D01*
X852850Y362257D01*
G37*
G36*
X859102Y326804D02*
X856145Y343576D01*
X878826Y347576D01*
X881783Y330804D01*
X859102Y326804D01*
G37*
G36*
X1112796Y601140D02*
X1109839Y617912D01*
X1132520Y621912D01*
X1135477Y605140D01*
X1112796Y601140D01*
G37*
G36*
X1119047Y565687D02*
X1116090Y582459D01*
X1138771Y586459D01*
X1141728Y569687D01*
X1119047Y565687D01*
G37*
G36*
X1300955Y634415D02*
X1297998Y651187D01*
X1320679Y655187D01*
X1323636Y638415D01*
X1300955Y634415D01*
G37*
G36*
X1307206Y598962D02*
X1304249Y615734D01*
X1326930Y619734D01*
X1329887Y602962D01*
X1307206Y598962D01*
G37*
G36*
X1414466Y469417D02*
X1411509Y486189D01*
X1434190Y490189D01*
X1437147Y473417D01*
X1414466Y469417D01*
G37*
G36*
X1420717Y433964D02*
X1417760Y450736D01*
X1440441Y454736D01*
X1443398Y437964D01*
X1420717Y433964D01*
G37*
G36*
X1815883Y435905D02*
X1818840Y452677D01*
X1841521Y448677D01*
X1838564Y431905D01*
X1815883Y435905D01*
G37*
G36*
X1809631Y400452D02*
X1812588Y417224D01*
X1835269Y413224D01*
X1832312Y396452D01*
X1809631Y400452D01*
G37*
G36*
X2003736Y403105D02*
X2006693Y419877D01*
X2029374Y415877D01*
X2026417Y399105D01*
X2003736Y403105D01*
G37*
G36*
X1997485Y367652D02*
X2000442Y384424D01*
X2023123Y380424D01*
X2020166Y363652D01*
X1997485Y367652D01*
G37*
G36*
X2191441Y369985D02*
X2194398Y386757D01*
X2217079Y382757D01*
X2214122Y365985D01*
X2191441Y369985D01*
G37*
G36*
X2185190Y334532D02*
X2188147Y351304D01*
X2210828Y347304D01*
X2207871Y330532D01*
X2185190Y334532D01*
G37*
G36*
X2378901Y337707D02*
X2381858Y354479D01*
X2404539Y350479D01*
X2401582Y333707D01*
X2378901Y337707D01*
G37*
G36*
X2372650Y302254D02*
X2375607Y319026D01*
X2398288Y315026D01*
X2395331Y298254D01*
X2372650Y302254D01*
G37*
D36*
X2602809Y355263D03*
X2602809Y319263D03*
X2793388Y354802D03*
X2793388Y318802D03*
X2901472Y398412D03*
X2901472Y362412D03*
D37*
X3088987Y279405D03*
X3052987Y279405D03*
D36*
X10543Y545379D03*
X10543Y509379D03*
X454455Y593059D03*
X454455Y557059D03*
X726242Y546322D03*
X726242Y510322D03*
D37*
G36*
X925800Y567483D02*
X922843Y584255D01*
X945524Y588255D01*
X948481Y571483D01*
X925800Y567483D01*
G37*
G36*
X932051Y532030D02*
X929094Y548802D01*
X951775Y552802D01*
X954732Y536030D01*
X932051Y532030D01*
G37*
G36*
X2316846Y734887D02*
X2319803Y751659D01*
X2342484Y747659D01*
X2339527Y730887D01*
X2316846Y734887D01*
G37*
G36*
X2310594Y699434D02*
X2313551Y716206D01*
X2336232Y712206D01*
X2333275Y695434D01*
X2310594Y699434D01*
G37*
D36*
X2564408Y735986D03*
X2564408Y699986D03*
D37*
G36*
X1487794Y667258D02*
X1484837Y684030D01*
X1507518Y688030D01*
X1510475Y671258D01*
X1487794Y667258D01*
G37*
G36*
X1494045Y631805D02*
X1491088Y648577D01*
X1513769Y652577D01*
X1516726Y635805D01*
X1494045Y631805D01*
G37*
G36*
X1744834Y642154D02*
X1747791Y658926D01*
X1770472Y654926D01*
X1767515Y638154D01*
X1744834Y642154D01*
G37*
G36*
X1738583Y606701D02*
X1741540Y623473D01*
X1764221Y619473D01*
X1761264Y602701D01*
X1738583Y606701D01*
G37*
G36*
X1931910Y609105D02*
X1934867Y625877D01*
X1957548Y621877D01*
X1954591Y605105D01*
X1931910Y609105D01*
G37*
G36*
X1925659Y573652D02*
X1928616Y590424D01*
X1951297Y586424D01*
X1948340Y569652D01*
X1925659Y573652D01*
G37*
G36*
X2120402Y576105D02*
X2123359Y592877D01*
X2146040Y588877D01*
X2143083Y572105D01*
X2120402Y576105D01*
G37*
G36*
X2114151Y540652D02*
X2117108Y557424D01*
X2139789Y553424D01*
X2136832Y536652D01*
X2114151Y540652D01*
G37*
G36*
X2307832Y543115D02*
X2310789Y559887D01*
X2333470Y555887D01*
X2330513Y539115D01*
X2307832Y543115D01*
G37*
G36*
X2301581Y507662D02*
X2304538Y524434D01*
X2327219Y520434D01*
X2324262Y503662D01*
X2301581Y507662D01*
G37*
D36*
X2531335Y545587D03*
X2531335Y509587D03*
X2722069Y545687D03*
X2722069Y509687D03*
X2984090Y545657D03*
X2984090Y509657D03*
X3079929Y546244D03*
X3079929Y510244D03*
X692761Y735883D03*
X692761Y699883D03*
D37*
G36*
X915965Y759584D02*
X913008Y776356D01*
X935689Y780356D01*
X938646Y763584D01*
X915965Y759584D01*
G37*
G36*
X922216Y724131D02*
X919259Y740903D01*
X941940Y744903D01*
X944897Y728131D01*
X922216Y724131D01*
G37*
G36*
X1316169Y873096D02*
X1313212Y889868D01*
X1335893Y893868D01*
X1338850Y877096D01*
X1316169Y873096D01*
G37*
G36*
X1322420Y837643D02*
X1319463Y854415D01*
X1342144Y858415D01*
X1345101Y841643D01*
X1322420Y837643D01*
G37*
G36*
X1985447Y833991D02*
X1988404Y850763D01*
X2011085Y846763D01*
X2008128Y829991D01*
X1985447Y833991D01*
G37*
G36*
X1979196Y798538D02*
X1982153Y815310D01*
X2004834Y811310D01*
X2001877Y794538D01*
X1979196Y798538D01*
G37*
G36*
X1041168Y395457D02*
X1038211Y412229D01*
X1060892Y416229D01*
X1063849Y399457D01*
X1041168Y395457D01*
G37*
G36*
X1047419Y360004D02*
X1044462Y376776D01*
X1067143Y380776D01*
X1070100Y364004D01*
X1047419Y360004D01*
G37*
G36*
X1228204Y430887D02*
X1225247Y447659D01*
X1247928Y451659D01*
X1250885Y434887D01*
X1228204Y430887D01*
G37*
G36*
X1234456Y395434D02*
X1231499Y412206D01*
X1254180Y416206D01*
X1257137Y399434D01*
X1234456Y395434D01*
G37*
G36*
X1393415Y263755D02*
X1390458Y280527D01*
X1413139Y284527D01*
X1416096Y267755D01*
X1393415Y263755D01*
G37*
G36*
X1399666Y228302D02*
X1396709Y245074D01*
X1419390Y249074D01*
X1422347Y232302D01*
X1399666Y228302D01*
G37*
G36*
X1752465Y248880D02*
X1735693Y251837D01*
X1739693Y274518D01*
X1756465Y271561D01*
X1752465Y248880D01*
G37*
G36*
X1787918Y242629D02*
X1771146Y245586D01*
X1775146Y268267D01*
X1791918Y265310D01*
X1787918Y242629D01*
G37*
G36*
X1941837Y244382D02*
X1944794Y261154D01*
X1967475Y257154D01*
X1964518Y240382D01*
X1941837Y244382D01*
G37*
G36*
X1935586Y208929D02*
X1938543Y225701D01*
X1961224Y221701D01*
X1958267Y204929D01*
X1935586Y208929D01*
G37*
G36*
X2120172Y189571D02*
X2123129Y206343D01*
X2145810Y202343D01*
X2142853Y185571D01*
X2120172Y189571D01*
G37*
G36*
X2113921Y154118D02*
X2116878Y170890D01*
X2139559Y166890D01*
X2136602Y150118D01*
X2113921Y154118D01*
G37*
G36*
X2307369Y156018D02*
X2310326Y172790D01*
X2333007Y168790D01*
X2330050Y152018D01*
X2307369Y156018D01*
G37*
G36*
X2301117Y120564D02*
X2304074Y137336D01*
X2326755Y133336D01*
X2323798Y116564D01*
X2301117Y120564D01*
G37*
D36*
X2531572Y154802D03*
X2531572Y118802D03*
X2722545Y164944D03*
X2722545Y128944D03*
X2912925Y164964D03*
X2912925Y128964D03*
X57810Y164202D03*
X57810Y128202D03*
X393320Y164483D03*
X393320Y128483D03*
X630886Y164280D03*
X630886Y128280D03*
D37*
G36*
X829433Y164901D02*
X826476Y181673D01*
X849157Y185673D01*
X852114Y168901D01*
X829433Y164901D01*
G37*
G36*
X835684Y129447D02*
X832727Y146219D01*
X855408Y150219D01*
X858365Y133447D01*
X835684Y129447D01*
G37*
G36*
X1017386Y197785D02*
X1014429Y214557D01*
X1037110Y218557D01*
X1040067Y201785D01*
X1017386Y197785D01*
G37*
G36*
X1023637Y162332D02*
X1020680Y179104D01*
X1043361Y183104D01*
X1046318Y166332D01*
X1023637Y162332D01*
G37*
G36*
X1205675Y230222D02*
X1202718Y246994D01*
X1225399Y250994D01*
X1228356Y234222D01*
X1205675Y230222D01*
G37*
G36*
X1211926Y194769D02*
X1208969Y211541D01*
X1231650Y215541D01*
X1234607Y198769D01*
X1211926Y194769D01*
G37*
G36*
X1320763Y58322D02*
X1317806Y75094D01*
X1340487Y79094D01*
X1343444Y62322D01*
X1320763Y58322D01*
G37*
G36*
X1327014Y22868D02*
X1324057Y39640D01*
X1346738Y43640D01*
X1349695Y26868D01*
X1327014Y22868D01*
G37*
G36*
X1373286Y47876D02*
X1376243Y31104D01*
X1353562Y27104D01*
X1350605Y43876D01*
X1373286Y47876D01*
G37*
G36*
X1367035Y83329D02*
X1369992Y66557D01*
X1347311Y62557D01*
X1344354Y79329D01*
X1367035Y83329D01*
G37*
G36*
X1816310Y48911D02*
X1819267Y65683D01*
X1841948Y61683D01*
X1838991Y44911D01*
X1816310Y48911D01*
G37*
G36*
X1810058Y13458D02*
X1813015Y30230D01*
X1835696Y26230D01*
X1832739Y9458D01*
X1810058Y13458D01*
G37*
G36*
X2004171Y15891D02*
X2007128Y32663D01*
X2029809Y28663D01*
X2026852Y11891D01*
X2004171Y15891D01*
G37*
G36*
X1997920Y-19563D02*
X2000877Y-2791D01*
X2023558Y-6791D01*
X2020601Y-23563D01*
X1997920Y-19563D01*
G37*
G36*
X2191751Y-17590D02*
X2194708Y-818D01*
X2217389Y-4818D01*
X2214432Y-21590D01*
X2191751Y-17590D01*
G37*
G36*
X2185500Y-53043D02*
X2188457Y-36271D01*
X2211138Y-40271D01*
X2208181Y-57043D01*
X2185500Y-53043D01*
G37*
G36*
X2379201Y-49514D02*
X2382158Y-32742D01*
X2404839Y-36742D01*
X2401882Y-53514D01*
X2379201Y-49514D01*
G37*
G36*
X2372950Y-84968D02*
X2375907Y-68196D01*
X2398588Y-72196D01*
X2395631Y-88968D01*
X2372950Y-84968D01*
G37*
D36*
X2603271Y-44866D03*
X2603271Y-80866D03*
X2793235Y-25767D03*
X2793235Y-61767D03*
X2982846Y-38867D03*
X2982846Y-74867D03*
X83799Y-25152D03*
X83799Y-61152D03*
X369216Y-25766D03*
X369216Y-61766D03*
X560405Y-25616D03*
X560405Y-61616D03*
X749783Y-45066D03*
X749783Y-81066D03*
D37*
G36*
X945503Y-8582D02*
X942546Y8190D01*
X965227Y12190D01*
X968184Y-4582D01*
X945503Y-8582D01*
G37*
G36*
X951754Y-44035D02*
X948797Y-27263D01*
X971478Y-23263D01*
X974435Y-40035D01*
X951754Y-44035D01*
G37*
G36*
X1133033Y24159D02*
X1130076Y40931D01*
X1152757Y44931D01*
X1155714Y28159D01*
X1133033Y24159D01*
G37*
G36*
X1139284Y-11295D02*
X1136327Y5477D01*
X1159008Y9477D01*
X1161965Y-7295D01*
X1139284Y-11295D01*
G37*
D33*
X3053944Y-25476D03*
X3117444Y-50876D03*
D34*
X3130144Y25324D03*
X3066644Y50724D03*
D35*
X3151228Y14150D02*
X3174084Y14150D01*
X3151228Y14150D02*
X3151228Y36498D01*
X3174084Y36498D01*
X3174084Y14150D01*
X3174084Y18498D02*
X3151228Y18498D01*
X3151228Y22846D02*
X3174084Y22846D01*
X3174084Y27194D02*
X3151228Y27194D01*
X3151228Y31542D02*
X3174084Y31542D01*
X3174084Y35890D02*
X3151228Y35890D01*
X3045560Y39550D02*
X3022704Y39550D01*
X3022704Y61898D01*
X3045560Y61898D01*
X3045560Y39550D01*
X3045560Y43898D02*
X3022704Y43898D01*
X3022704Y48246D02*
X3045560Y48246D01*
X3045560Y52594D02*
X3022704Y52594D01*
X3022704Y56942D02*
X3045560Y56942D01*
X3045560Y61290D02*
X3022704Y61290D01*
D37*
X3153858Y82345D03*
X3117858Y82345D03*
D38*
X1525780Y160605D03*
X1533654Y160605D03*
X1541782Y160605D03*
X1549656Y160605D03*
X1557784Y160605D03*
X1565658Y160605D03*
X1573532Y160605D03*
X1581660Y160605D03*
X1589534Y160605D03*
X1597662Y160605D03*
X1605536Y160605D03*
D39*
X1623062Y178131D03*
X1623062Y186005D03*
X1623062Y194133D03*
X1623062Y202007D03*
X1623062Y210135D03*
X1623062Y218009D03*
X1623062Y225883D03*
X1623062Y234011D03*
X1623062Y241885D03*
X1623062Y250013D03*
X1623062Y257887D03*
D38*
X1605536Y275413D03*
X1597662Y275413D03*
X1589534Y275413D03*
X1581660Y275413D03*
X1573532Y275413D03*
X1565658Y275413D03*
X1557784Y275413D03*
X1549656Y275413D03*
X1541782Y275413D03*
X1533654Y275413D03*
X1525780Y275413D03*
D39*
X1508254Y257887D03*
X1508254Y250013D03*
X1508254Y241885D03*
X1508254Y234011D03*
X1508254Y225883D03*
X1508254Y218009D03*
X1508254Y210135D03*
X1508254Y202007D03*
X1508254Y194133D03*
X1508254Y186005D03*
X1508254Y178131D03*
D40*
X1546200Y-3810D03*
X1546200Y-34810D03*
D41*
X1518700Y41990D03*
X1523700Y41990D03*
X1528700Y41990D03*
X1533700Y41990D03*
X1538700Y41990D03*
X1543700Y41990D03*
X1548700Y41990D03*
X1553700Y41990D03*
X1558700Y41990D03*
X1563700Y41990D03*
X1568700Y41990D03*
X1573700Y41990D03*
D42*
X1574200Y29490D03*
X1570200Y22490D03*
X1562200Y22490D03*
X1566200Y29490D03*
X1558200Y29490D03*
X1554200Y22490D03*
X1550200Y29490D03*
X1542200Y29490D03*
X1538200Y22490D03*
X1534200Y29490D03*
X1530200Y22490D03*
X1522200Y22490D03*
X1526200Y29490D03*
X1518200Y29490D03*
D43*
X1503500Y22990D02*
X1503500Y12990D01*
X1588900Y12990D02*
X1588900Y22990D01*
X1588900Y-24310D02*
X1588900Y-34310D01*
X1503500Y-34310D02*
X1503500Y-24310D01*
D44*
X1481600Y-10647D03*
X1464600Y-10647D03*
D45*
X1627007Y160270D03*
X1644007Y160270D03*
X1504504Y274116D03*
X1487504Y274116D03*
D44*
X1584076Y299320D03*
X1584076Y316320D03*
D45*
X1456423Y199796D03*
X1439423Y199796D03*
D44*
X1513130Y126944D03*
X1513130Y109944D03*
X1593543Y132626D03*
X1593543Y115626D03*
D46*
X1663066Y24081D03*
X1619066Y24081D03*
D44*
X1632167Y-11663D03*
X1615167Y-11663D03*
D45*
X1614427Y117388D03*
X1614427Y100388D03*
D44*
X1689247Y210401D03*
X1706247Y210401D03*
X1573196Y132576D03*
X1573196Y115576D03*
D45*
X1486855Y199774D03*
X1469855Y199774D03*
X1664911Y240026D03*
X1647911Y240026D03*
X1648085Y181080D03*
X1665085Y181080D03*
D47*
X1664743Y221487D03*
X1664743Y199487D03*
X1648743Y221487D03*
X1648743Y199487D03*
D45*
X1533173Y109915D03*
X1533173Y126915D03*
X1553261Y109943D03*
X1553261Y126943D03*
D48*
G36*
X1944614Y183666D02*
X1924887Y187145D01*
X1927150Y199978D01*
X1946877Y196499D01*
X1944614Y183666D01*
G37*
G36*
X2003703Y173247D02*
X1983976Y176726D01*
X1986239Y189559D01*
X2005966Y186080D01*
X2003703Y173247D01*
G37*
G36*
X1938103Y146736D02*
X1918376Y150215D01*
X1920639Y163048D01*
X1940366Y159569D01*
X1938103Y146736D01*
G37*
G36*
X1997191Y136317D02*
X1977464Y139796D01*
X1979727Y152629D01*
X1999454Y149150D01*
X1997191Y136317D01*
G37*
D49*
X1773616Y205262D03*
X1748602Y209672D03*
X1744191Y184658D03*
X1769205Y180248D03*
X1778027Y230276D03*
X1753013Y234687D03*
D44*
X2688158Y795943D03*
X2688158Y812943D03*
X2788056Y796324D03*
X2788056Y813324D03*
X2892501Y796375D03*
X2892501Y813375D03*
X404622Y727777D03*
X404622Y710777D03*
X304470Y727472D03*
X304470Y710472D03*
X204241Y726507D03*
X204241Y709507D03*
D50*
X1687271Y2718D03*
X1632915Y56744D03*
X1614449Y151499D03*
X2804998Y793346D03*
X2704109Y794337D03*
X2905379Y793575D03*
X192024Y730098D03*
X292786Y731495D03*
X393090Y731799D03*
X1636395Y198095D03*
X1677035Y210210D03*
X1591890Y51054D03*
X1521612Y140818D03*
X1545285Y59080D03*
X1553032Y77445D03*
X1545692Y70030D03*
X1593825Y96545D03*
X1502283Y95123D03*
X1651787Y170713D03*
X1487424Y288188D03*
X1583817Y332613D03*
X1608912Y205715D03*
X1557884Y144983D03*
X1492021Y250190D03*
X1525880Y290601D03*
X2688514Y824179D03*
X2787625Y824992D03*
X2892146Y824916D03*
X204267Y696849D03*
X304571Y697459D03*
X404393Y697687D03*
X1439316Y186233D03*
X1523111Y185674D03*
X1664995Y252908D03*
X1909750Y156235D03*
X1605305Y290220D03*
X1474292Y185674D03*
X1636827Y186055D03*
X1727079Y232912D03*
X1602171Y824900D03*
X1609423Y448640D03*
X1597386Y622529D03*
X1602568Y458748D03*
X1585595Y406984D03*
X1435938Y326387D03*
X1742796Y21361D03*
X1341145Y94031D03*
X-108229Y227838D03*
X-127203Y409346D03*
X-91237Y18237D03*
X1577594Y177038D03*
X1451094Y241950D03*
X206375Y284709D03*
X1592047Y179603D03*
X1459078Y249022D03*
X1732331Y222174D03*
X468503Y291338D03*
X675996Y293116D03*
X882523Y318973D03*
X1045642Y353060D03*
X1233018Y390423D03*
X1582649Y386651D03*
X1527708Y219354D03*
X1659153Y143993D03*
X2174820Y292282D03*
X1747266Y372135D03*
X1577518Y256362D03*
X2368169Y261391D03*
X1759915Y380213D03*
X1605661Y250520D03*
X2557653Y263119D03*
X1774622Y386029D03*
X1579369Y227358D03*
X2747696Y241376D03*
X1792104Y386252D03*
X1581658Y214401D03*
X2982747Y227406D03*
X1808277Y389001D03*
X1593825Y203479D03*
X3022261Y70866D03*
X1513662Y167183D03*
X1552956Y494919D03*
X2549347Y482346D03*
M02*
