G04 EAGLE Gerber RS-274X export*
G75*
%MOMM*%
%FSLAX34Y34*%
%LPD*%
%INTop Copper*%
%IPPOS*%
%AMOC8*
5,1,8,0,0,1.08239X$1,22.5*%
G01*
%ADD10C,2.540000*%
%ADD11C,0.248919*%
%ADD12R,2.100000X1.500000*%
%ADD13R,1.500000X2.100000*%
%ADD14R,0.508000X1.473200*%
%ADD15R,1.473200X0.508000*%
%ADD16R,0.200000X1.000000*%
%ADD17R,0.300000X1.200000*%
%ADD18C,0.650000*%
%ADD19C,1.000000*%
%ADD20R,1.000000X1.100000*%
%ADD21R,1.100000X1.000000*%
%ADD22R,2.400000X2.400000*%
%ADD23R,1.200000X1.400000*%
%ADD24R,1.800000X1.100000*%
%ADD25C,1.625600*%
%ADD26C,0.279400*%
%ADD27C,0.553200*%


D10*
X-85690Y355520D03*
X-22190Y330120D03*
D11*
X11566Y395118D02*
X34478Y395118D01*
X11566Y395118D02*
X11566Y417522D01*
X34478Y417522D01*
X34478Y395118D01*
X34478Y397483D02*
X11566Y397483D01*
X11566Y399848D02*
X34478Y399848D01*
X34478Y402213D02*
X11566Y402213D01*
X11566Y404578D02*
X34478Y404578D01*
X34478Y406943D02*
X11566Y406943D01*
X11566Y409308D02*
X34478Y409308D01*
X34478Y411673D02*
X11566Y411673D01*
X11566Y414038D02*
X34478Y414038D01*
X34478Y416403D02*
X11566Y416403D01*
X-94046Y420518D02*
X-116958Y420518D01*
X-116958Y442922D01*
X-94046Y442922D01*
X-94046Y420518D01*
X-94046Y422883D02*
X-116958Y422883D01*
X-116958Y425248D02*
X-94046Y425248D01*
X-94046Y427613D02*
X-116958Y427613D01*
X-116958Y429978D02*
X-94046Y429978D01*
X-94046Y432343D02*
X-116958Y432343D01*
X-116958Y434708D02*
X-94046Y434708D01*
X-94046Y437073D02*
X-116958Y437073D01*
X-116958Y439438D02*
X-94046Y439438D01*
X-94046Y441803D02*
X-116958Y441803D01*
D10*
X272440Y355600D03*
X335940Y330200D03*
D11*
X369696Y395198D02*
X392608Y395198D01*
X369696Y395198D02*
X369696Y417602D01*
X392608Y417602D01*
X392608Y395198D01*
X392608Y397563D02*
X369696Y397563D01*
X369696Y399928D02*
X392608Y399928D01*
X392608Y402293D02*
X369696Y402293D01*
X369696Y404658D02*
X392608Y404658D01*
X392608Y407023D02*
X369696Y407023D01*
X369696Y409388D02*
X392608Y409388D01*
X392608Y411753D02*
X369696Y411753D01*
X369696Y414118D02*
X392608Y414118D01*
X392608Y416483D02*
X369696Y416483D01*
X264084Y420598D02*
X241172Y420598D01*
X241172Y443002D01*
X264084Y443002D01*
X264084Y420598D01*
X264084Y422963D02*
X241172Y422963D01*
X241172Y425328D02*
X264084Y425328D01*
X264084Y427693D02*
X241172Y427693D01*
X241172Y430058D02*
X264084Y430058D01*
X264084Y432423D02*
X241172Y432423D01*
X241172Y434788D02*
X264084Y434788D01*
X264084Y437153D02*
X241172Y437153D01*
X241172Y439518D02*
X264084Y439518D01*
X264084Y441883D02*
X241172Y441883D01*
D10*
X534420Y355570D03*
X597920Y330170D03*
D11*
X631676Y395168D02*
X654588Y395168D01*
X631676Y395168D02*
X631676Y417572D01*
X654588Y417572D01*
X654588Y395168D01*
X654588Y397533D02*
X631676Y397533D01*
X631676Y399898D02*
X654588Y399898D01*
X654588Y402263D02*
X631676Y402263D01*
X631676Y404628D02*
X654588Y404628D01*
X654588Y406993D02*
X631676Y406993D01*
X631676Y409358D02*
X654588Y409358D01*
X654588Y411723D02*
X631676Y411723D01*
X631676Y414088D02*
X654588Y414088D01*
X654588Y416453D02*
X631676Y416453D01*
X526064Y420568D02*
X503152Y420568D01*
X503152Y442972D01*
X526064Y442972D01*
X526064Y420568D01*
X526064Y422933D02*
X503152Y422933D01*
X503152Y425298D02*
X526064Y425298D01*
X526064Y427663D02*
X503152Y427663D01*
X503152Y430028D02*
X526064Y430028D01*
X526064Y432393D02*
X503152Y432393D01*
X503152Y434758D02*
X526064Y434758D01*
X526064Y437123D02*
X503152Y437123D01*
X503152Y439488D02*
X526064Y439488D01*
X526064Y441853D02*
X503152Y441853D01*
D10*
X744710Y351780D03*
X811655Y337792D03*
D11*
X833613Y407665D02*
X856176Y411644D01*
X833613Y407665D02*
X829722Y429728D01*
X852285Y433707D01*
X856176Y411644D01*
X847024Y410030D02*
X833196Y410030D01*
X832779Y412395D02*
X856044Y412395D01*
X855626Y414760D02*
X832362Y414760D01*
X831945Y417125D02*
X855209Y417125D01*
X854792Y419490D02*
X831528Y419490D01*
X831110Y421855D02*
X854375Y421855D01*
X853958Y424220D02*
X830693Y424220D01*
X830276Y426585D02*
X853541Y426585D01*
X853124Y428950D02*
X829859Y428950D01*
X838721Y431315D02*
X852707Y431315D01*
X852290Y433680D02*
X852132Y433680D01*
X725194Y414340D02*
X702631Y410361D01*
X698740Y432424D01*
X721303Y436403D01*
X725194Y414340D01*
X716042Y412726D02*
X702214Y412726D01*
X701797Y415091D02*
X725062Y415091D01*
X724644Y417456D02*
X701380Y417456D01*
X700963Y419821D02*
X724227Y419821D01*
X723810Y422186D02*
X700546Y422186D01*
X700128Y424551D02*
X723393Y424551D01*
X722976Y426916D02*
X699711Y426916D01*
X699294Y429281D02*
X722559Y429281D01*
X722142Y431646D02*
X698877Y431646D01*
X707739Y434011D02*
X721725Y434011D01*
X721308Y436376D02*
X721150Y436376D01*
D10*
X1004050Y590900D03*
X1070995Y576912D03*
D11*
X1092953Y646785D02*
X1115516Y650764D01*
X1092953Y646785D02*
X1089062Y668848D01*
X1111625Y672827D01*
X1115516Y650764D01*
X1106364Y649150D02*
X1092536Y649150D01*
X1092119Y651515D02*
X1115384Y651515D01*
X1114966Y653880D02*
X1091702Y653880D01*
X1091285Y656245D02*
X1114549Y656245D01*
X1114132Y658610D02*
X1090868Y658610D01*
X1090450Y660975D02*
X1113715Y660975D01*
X1113298Y663340D02*
X1090033Y663340D01*
X1089616Y665705D02*
X1112881Y665705D01*
X1112464Y668070D02*
X1089199Y668070D01*
X1098061Y670435D02*
X1112047Y670435D01*
X1111630Y672800D02*
X1111472Y672800D01*
X984534Y653460D02*
X961971Y649481D01*
X958080Y671544D01*
X980643Y675523D01*
X984534Y653460D01*
X975382Y651846D02*
X961554Y651846D01*
X961137Y654211D02*
X984402Y654211D01*
X983984Y656576D02*
X960720Y656576D01*
X960303Y658941D02*
X983567Y658941D01*
X983150Y661306D02*
X959886Y661306D01*
X959468Y663671D02*
X982733Y663671D01*
X982316Y666036D02*
X959051Y666036D01*
X958634Y668401D02*
X981899Y668401D01*
X981482Y670766D02*
X958217Y670766D01*
X967079Y673131D02*
X981065Y673131D01*
X980648Y675496D02*
X980490Y675496D01*
D10*
X1191650Y624020D03*
X1258595Y610032D03*
D11*
X1280553Y679905D02*
X1303116Y683884D01*
X1280553Y679905D02*
X1276662Y701968D01*
X1299225Y705947D01*
X1303116Y683884D01*
X1293964Y682270D02*
X1280136Y682270D01*
X1279719Y684635D02*
X1302984Y684635D01*
X1302566Y687000D02*
X1279302Y687000D01*
X1278885Y689365D02*
X1302149Y689365D01*
X1301732Y691730D02*
X1278468Y691730D01*
X1278050Y694095D02*
X1301315Y694095D01*
X1300898Y696460D02*
X1277633Y696460D01*
X1277216Y698825D02*
X1300481Y698825D01*
X1300064Y701190D02*
X1276799Y701190D01*
X1285661Y703555D02*
X1299647Y703555D01*
X1299230Y705920D02*
X1299072Y705920D01*
X1172134Y686580D02*
X1149571Y682601D01*
X1145680Y704664D01*
X1168243Y708643D01*
X1172134Y686580D01*
X1162982Y684966D02*
X1149154Y684966D01*
X1148737Y687331D02*
X1172002Y687331D01*
X1171584Y689696D02*
X1148320Y689696D01*
X1147903Y692061D02*
X1171167Y692061D01*
X1170750Y694426D02*
X1147486Y694426D01*
X1147068Y696791D02*
X1170333Y696791D01*
X1169916Y699156D02*
X1146651Y699156D01*
X1146234Y701521D02*
X1169499Y701521D01*
X1169082Y703886D02*
X1145817Y703886D01*
X1154679Y706251D02*
X1168665Y706251D01*
X1168248Y708616D02*
X1168090Y708616D01*
D10*
X1307550Y450970D03*
X1374495Y436982D03*
D11*
X1396453Y506855D02*
X1419016Y510834D01*
X1396453Y506855D02*
X1392562Y528918D01*
X1415125Y532897D01*
X1419016Y510834D01*
X1409864Y509220D02*
X1396036Y509220D01*
X1395619Y511585D02*
X1418884Y511585D01*
X1418466Y513950D02*
X1395202Y513950D01*
X1394785Y516315D02*
X1418049Y516315D01*
X1417632Y518680D02*
X1394368Y518680D01*
X1393950Y521045D02*
X1417215Y521045D01*
X1416798Y523410D02*
X1393533Y523410D01*
X1393116Y525775D02*
X1416381Y525775D01*
X1415964Y528140D02*
X1392699Y528140D01*
X1401561Y530505D02*
X1415547Y530505D01*
X1415130Y532870D02*
X1414972Y532870D01*
X1288034Y513530D02*
X1265471Y509551D01*
X1261580Y531614D01*
X1284143Y535593D01*
X1288034Y513530D01*
X1278882Y511916D02*
X1265054Y511916D01*
X1264637Y514281D02*
X1287902Y514281D01*
X1287484Y516646D02*
X1264220Y516646D01*
X1263803Y519011D02*
X1287067Y519011D01*
X1286650Y521376D02*
X1263386Y521376D01*
X1262968Y523741D02*
X1286233Y523741D01*
X1285816Y526106D02*
X1262551Y526106D01*
X1262134Y528471D02*
X1285399Y528471D01*
X1284982Y530836D02*
X1261717Y530836D01*
X1270579Y533201D02*
X1284565Y533201D01*
X1284148Y535566D02*
X1283990Y535566D01*
D10*
X1710188Y464252D03*
X1768313Y428211D03*
D11*
X1812843Y486360D02*
X1835406Y482381D01*
X1812843Y486360D02*
X1816734Y508423D01*
X1839297Y504444D01*
X1835406Y482381D01*
X1835823Y484746D02*
X1821995Y484746D01*
X1812975Y487111D02*
X1836240Y487111D01*
X1836657Y489476D02*
X1813393Y489476D01*
X1813810Y491841D02*
X1837074Y491841D01*
X1837491Y494206D02*
X1814227Y494206D01*
X1814644Y496571D02*
X1837909Y496571D01*
X1838326Y498936D02*
X1815061Y498936D01*
X1815478Y501301D02*
X1838743Y501301D01*
X1839160Y503666D02*
X1815895Y503666D01*
X1816312Y506031D02*
X1830298Y506031D01*
X1816887Y508396D02*
X1816729Y508396D01*
X1713245Y529714D02*
X1690682Y533693D01*
X1694573Y555756D01*
X1717136Y551777D01*
X1713245Y529714D01*
X1713662Y532079D02*
X1699834Y532079D01*
X1690814Y534444D02*
X1714079Y534444D01*
X1714496Y536809D02*
X1691232Y536809D01*
X1691649Y539174D02*
X1714913Y539174D01*
X1715330Y541539D02*
X1692066Y541539D01*
X1692483Y543904D02*
X1715748Y543904D01*
X1716165Y546269D02*
X1692900Y546269D01*
X1693317Y548634D02*
X1716582Y548634D01*
X1716999Y550999D02*
X1693734Y550999D01*
X1694151Y553364D02*
X1708137Y553364D01*
X1694726Y555729D02*
X1694568Y555729D01*
D10*
X1897838Y431212D03*
X1955963Y395171D03*
D11*
X2000493Y453320D02*
X2023056Y449341D01*
X2000493Y453320D02*
X2004384Y475383D01*
X2026947Y471404D01*
X2023056Y449341D01*
X2023473Y451706D02*
X2009645Y451706D01*
X2000625Y454071D02*
X2023890Y454071D01*
X2024307Y456436D02*
X2001043Y456436D01*
X2001460Y458801D02*
X2024724Y458801D01*
X2025141Y461166D02*
X2001877Y461166D01*
X2002294Y463531D02*
X2025559Y463531D01*
X2025976Y465896D02*
X2002711Y465896D01*
X2003128Y468261D02*
X2026393Y468261D01*
X2026810Y470626D02*
X2003545Y470626D01*
X2003962Y472991D02*
X2017948Y472991D01*
X2004537Y475356D02*
X2004379Y475356D01*
X1900895Y496674D02*
X1878332Y500653D01*
X1882223Y522716D01*
X1904786Y518737D01*
X1900895Y496674D01*
X1901312Y499039D02*
X1887484Y499039D01*
X1878464Y501404D02*
X1901729Y501404D01*
X1902146Y503769D02*
X1878882Y503769D01*
X1879299Y506134D02*
X1902563Y506134D01*
X1902980Y508499D02*
X1879716Y508499D01*
X1880133Y510864D02*
X1903398Y510864D01*
X1903815Y513229D02*
X1880550Y513229D01*
X1880967Y515594D02*
X1904232Y515594D01*
X1904649Y517959D02*
X1881384Y517959D01*
X1881801Y520324D02*
X1895787Y520324D01*
X1882376Y522689D02*
X1882218Y522689D01*
D10*
X2085448Y398082D03*
X2143573Y362041D03*
D11*
X2188103Y420190D02*
X2210666Y416211D01*
X2188103Y420190D02*
X2191994Y442253D01*
X2214557Y438274D01*
X2210666Y416211D01*
X2211083Y418576D02*
X2197255Y418576D01*
X2188235Y420941D02*
X2211500Y420941D01*
X2211917Y423306D02*
X2188653Y423306D01*
X2189070Y425671D02*
X2212334Y425671D01*
X2212751Y428036D02*
X2189487Y428036D01*
X2189904Y430401D02*
X2213169Y430401D01*
X2213586Y432766D02*
X2190321Y432766D01*
X2190738Y435131D02*
X2214003Y435131D01*
X2214420Y437496D02*
X2191155Y437496D01*
X2191572Y439861D02*
X2205558Y439861D01*
X2192147Y442226D02*
X2191989Y442226D01*
X2088505Y463544D02*
X2065942Y467523D01*
X2069833Y489586D01*
X2092396Y485607D01*
X2088505Y463544D01*
X2088922Y465909D02*
X2075094Y465909D01*
X2066074Y468274D02*
X2089339Y468274D01*
X2089756Y470639D02*
X2066492Y470639D01*
X2066909Y473004D02*
X2090173Y473004D01*
X2090590Y475369D02*
X2067326Y475369D01*
X2067743Y477734D02*
X2091008Y477734D01*
X2091425Y480099D02*
X2068160Y480099D01*
X2068577Y482464D02*
X2091842Y482464D01*
X2092259Y484829D02*
X2068994Y484829D01*
X2069411Y487194D02*
X2083397Y487194D01*
X2069986Y489559D02*
X2069828Y489559D01*
D10*
X2273078Y365012D03*
X2331203Y328971D03*
D11*
X2375733Y387120D02*
X2398296Y383141D01*
X2375733Y387120D02*
X2379624Y409183D01*
X2402187Y405204D01*
X2398296Y383141D01*
X2398713Y385506D02*
X2384885Y385506D01*
X2375865Y387871D02*
X2399130Y387871D01*
X2399547Y390236D02*
X2376283Y390236D01*
X2376700Y392601D02*
X2399964Y392601D01*
X2400381Y394966D02*
X2377117Y394966D01*
X2377534Y397331D02*
X2400799Y397331D01*
X2401216Y399696D02*
X2377951Y399696D01*
X2378368Y402061D02*
X2401633Y402061D01*
X2402050Y404426D02*
X2378785Y404426D01*
X2379202Y406791D02*
X2393188Y406791D01*
X2379777Y409156D02*
X2379619Y409156D01*
X2276135Y430474D02*
X2253572Y434453D01*
X2257463Y456516D01*
X2280026Y452537D01*
X2276135Y430474D01*
X2276552Y432839D02*
X2262724Y432839D01*
X2253704Y435204D02*
X2276969Y435204D01*
X2277386Y437569D02*
X2254122Y437569D01*
X2254539Y439934D02*
X2277803Y439934D01*
X2278220Y442299D02*
X2254956Y442299D01*
X2255373Y444664D02*
X2278638Y444664D01*
X2279055Y447029D02*
X2255790Y447029D01*
X2256207Y449394D02*
X2279472Y449394D01*
X2279889Y451759D02*
X2256624Y451759D01*
X2257041Y454124D02*
X2271027Y454124D01*
X2257616Y456489D02*
X2257458Y456489D01*
D10*
X2482420Y355600D03*
X2545920Y330200D03*
D11*
X2579676Y395198D02*
X2602588Y395198D01*
X2579676Y395198D02*
X2579676Y417602D01*
X2602588Y417602D01*
X2602588Y395198D01*
X2602588Y397563D02*
X2579676Y397563D01*
X2579676Y399928D02*
X2602588Y399928D01*
X2602588Y402293D02*
X2579676Y402293D01*
X2579676Y404658D02*
X2602588Y404658D01*
X2602588Y407023D02*
X2579676Y407023D01*
X2579676Y409388D02*
X2602588Y409388D01*
X2602588Y411753D02*
X2579676Y411753D01*
X2579676Y414118D02*
X2602588Y414118D01*
X2602588Y416483D02*
X2579676Y416483D01*
X2474064Y420598D02*
X2451152Y420598D01*
X2451152Y443002D01*
X2474064Y443002D01*
X2474064Y420598D01*
X2474064Y422963D02*
X2451152Y422963D01*
X2451152Y425328D02*
X2474064Y425328D01*
X2474064Y427693D02*
X2451152Y427693D01*
X2451152Y430058D02*
X2474064Y430058D01*
X2474064Y432423D02*
X2451152Y432423D01*
X2451152Y434788D02*
X2474064Y434788D01*
X2474064Y437153D02*
X2451152Y437153D01*
X2451152Y439518D02*
X2474064Y439518D01*
X2474064Y441883D02*
X2451152Y441883D01*
D10*
X2672940Y355630D03*
X2736440Y330230D03*
D11*
X2770196Y395228D02*
X2793108Y395228D01*
X2770196Y395228D02*
X2770196Y417632D01*
X2793108Y417632D01*
X2793108Y395228D01*
X2793108Y397593D02*
X2770196Y397593D01*
X2770196Y399958D02*
X2793108Y399958D01*
X2793108Y402323D02*
X2770196Y402323D01*
X2770196Y404688D02*
X2793108Y404688D01*
X2793108Y407053D02*
X2770196Y407053D01*
X2770196Y409418D02*
X2793108Y409418D01*
X2793108Y411783D02*
X2770196Y411783D01*
X2770196Y414148D02*
X2793108Y414148D01*
X2793108Y416513D02*
X2770196Y416513D01*
X2664584Y420628D02*
X2641672Y420628D01*
X2641672Y443032D01*
X2664584Y443032D01*
X2664584Y420628D01*
X2664584Y422993D02*
X2641672Y422993D01*
X2641672Y425358D02*
X2664584Y425358D01*
X2664584Y427723D02*
X2641672Y427723D01*
X2641672Y430088D02*
X2664584Y430088D01*
X2664584Y432453D02*
X2641672Y432453D01*
X2641672Y434818D02*
X2664584Y434818D01*
X2664584Y437183D02*
X2641672Y437183D01*
X2641672Y439548D02*
X2664584Y439548D01*
X2664584Y441913D02*
X2641672Y441913D01*
D10*
X2982440Y355570D03*
X3045940Y330170D03*
D11*
X3079696Y395168D02*
X3102608Y395168D01*
X3079696Y395168D02*
X3079696Y417572D01*
X3102608Y417572D01*
X3102608Y395168D01*
X3102608Y397533D02*
X3079696Y397533D01*
X3079696Y399898D02*
X3102608Y399898D01*
X3102608Y402263D02*
X3079696Y402263D01*
X3079696Y404628D02*
X3102608Y404628D01*
X3102608Y406993D02*
X3079696Y406993D01*
X3079696Y409358D02*
X3102608Y409358D01*
X3102608Y411723D02*
X3079696Y411723D01*
X3079696Y414088D02*
X3102608Y414088D01*
X3102608Y416453D02*
X3079696Y416453D01*
X2974084Y420568D02*
X2951172Y420568D01*
X2951172Y442972D01*
X2974084Y442972D01*
X2974084Y420568D01*
X2974084Y422933D02*
X2951172Y422933D01*
X2951172Y425298D02*
X2974084Y425298D01*
X2974084Y427663D02*
X2951172Y427663D01*
X2951172Y430028D02*
X2974084Y430028D01*
X2974084Y432393D02*
X2951172Y432393D01*
X2951172Y434758D02*
X2974084Y434758D01*
X2974084Y437123D02*
X2951172Y437123D01*
X2951172Y439488D02*
X2974084Y439488D01*
X2974084Y441853D02*
X2951172Y441853D01*
D10*
X3030090Y165070D03*
X3093590Y139670D03*
D11*
X3127346Y204668D02*
X3150258Y204668D01*
X3127346Y204668D02*
X3127346Y227072D01*
X3150258Y227072D01*
X3150258Y204668D01*
X3150258Y207033D02*
X3127346Y207033D01*
X3127346Y209398D02*
X3150258Y209398D01*
X3150258Y211763D02*
X3127346Y211763D01*
X3127346Y214128D02*
X3150258Y214128D01*
X3150258Y216493D02*
X3127346Y216493D01*
X3127346Y218858D02*
X3150258Y218858D01*
X3150258Y221223D02*
X3127346Y221223D01*
X3127346Y223588D02*
X3150258Y223588D01*
X3150258Y225953D02*
X3127346Y225953D01*
X3021734Y230068D02*
X2998822Y230068D01*
X2998822Y252472D01*
X3021734Y252472D01*
X3021734Y230068D01*
X3021734Y232433D02*
X2998822Y232433D01*
X2998822Y234798D02*
X3021734Y234798D01*
X3021734Y237163D02*
X2998822Y237163D01*
X2998822Y239528D02*
X3021734Y239528D01*
X3021734Y241893D02*
X2998822Y241893D01*
X2998822Y244258D02*
X3021734Y244258D01*
X3021734Y246623D02*
X2998822Y246623D01*
X2998822Y248988D02*
X3021734Y248988D01*
X3021734Y251353D02*
X2998822Y251353D01*
D10*
X-109520Y546070D03*
X-46020Y520670D03*
D11*
X-12264Y585668D02*
X10648Y585668D01*
X-12264Y585668D02*
X-12264Y608072D01*
X10648Y608072D01*
X10648Y585668D01*
X10648Y588033D02*
X-12264Y588033D01*
X-12264Y590398D02*
X10648Y590398D01*
X10648Y592763D02*
X-12264Y592763D01*
X-12264Y595128D02*
X10648Y595128D01*
X10648Y597493D02*
X-12264Y597493D01*
X-12264Y599858D02*
X10648Y599858D01*
X10648Y602223D02*
X-12264Y602223D01*
X-12264Y604588D02*
X10648Y604588D01*
X10648Y606953D02*
X-12264Y606953D01*
X-117876Y611068D02*
X-140788Y611068D01*
X-140788Y633472D01*
X-117876Y633472D01*
X-117876Y611068D01*
X-117876Y613433D02*
X-140788Y613433D01*
X-140788Y615798D02*
X-117876Y615798D01*
X-117876Y618163D02*
X-140788Y618163D01*
X-140788Y620528D02*
X-117876Y620528D01*
X-117876Y622893D02*
X-140788Y622893D01*
X-140788Y625258D02*
X-117876Y625258D01*
X-117876Y627623D02*
X-140788Y627623D01*
X-140788Y629988D02*
X-117876Y629988D01*
X-117876Y632353D02*
X-140788Y632353D01*
D10*
X296320Y546070D03*
X359820Y520670D03*
D11*
X393576Y585668D02*
X416488Y585668D01*
X393576Y585668D02*
X393576Y608072D01*
X416488Y608072D01*
X416488Y585668D01*
X416488Y588033D02*
X393576Y588033D01*
X393576Y590398D02*
X416488Y590398D01*
X416488Y592763D02*
X393576Y592763D01*
X393576Y595128D02*
X416488Y595128D01*
X416488Y597493D02*
X393576Y597493D01*
X393576Y599858D02*
X416488Y599858D01*
X416488Y602223D02*
X393576Y602223D01*
X393576Y604588D02*
X416488Y604588D01*
X416488Y606953D02*
X393576Y606953D01*
X287964Y611068D02*
X265052Y611068D01*
X265052Y633472D01*
X287964Y633472D01*
X287964Y611068D01*
X287964Y613433D02*
X265052Y613433D01*
X265052Y615798D02*
X287964Y615798D01*
X287964Y618163D02*
X265052Y618163D01*
X265052Y620528D02*
X287964Y620528D01*
X287964Y622893D02*
X265052Y622893D01*
X265052Y625258D02*
X287964Y625258D01*
X287964Y627623D02*
X265052Y627623D01*
X265052Y629988D02*
X287964Y629988D01*
X287964Y632353D02*
X265052Y632353D01*
D10*
X605840Y546050D03*
X669340Y520650D03*
D11*
X703096Y585648D02*
X726008Y585648D01*
X703096Y585648D02*
X703096Y608052D01*
X726008Y608052D01*
X726008Y585648D01*
X726008Y588013D02*
X703096Y588013D01*
X703096Y590378D02*
X726008Y590378D01*
X726008Y592743D02*
X703096Y592743D01*
X703096Y595108D02*
X726008Y595108D01*
X726008Y597473D02*
X703096Y597473D01*
X703096Y599838D02*
X726008Y599838D01*
X726008Y602203D02*
X703096Y602203D01*
X703096Y604568D02*
X726008Y604568D01*
X726008Y606933D02*
X703096Y606933D01*
X597484Y611048D02*
X574572Y611048D01*
X574572Y633452D01*
X597484Y633452D01*
X597484Y611048D01*
X597484Y613413D02*
X574572Y613413D01*
X574572Y615778D02*
X597484Y615778D01*
X597484Y618143D02*
X574572Y618143D01*
X574572Y620508D02*
X597484Y620508D01*
X597484Y622873D02*
X574572Y622873D01*
X574572Y625238D02*
X597484Y625238D01*
X597484Y627603D02*
X574572Y627603D01*
X574572Y629968D02*
X597484Y629968D01*
X597484Y632333D02*
X574572Y632333D01*
D10*
X816440Y557800D03*
X883385Y543812D03*
D11*
X905343Y613685D02*
X927906Y617664D01*
X905343Y613685D02*
X901452Y635748D01*
X924015Y639727D01*
X927906Y617664D01*
X918754Y616050D02*
X904926Y616050D01*
X904509Y618415D02*
X927774Y618415D01*
X927356Y620780D02*
X904092Y620780D01*
X903675Y623145D02*
X926939Y623145D01*
X926522Y625510D02*
X903258Y625510D01*
X902840Y627875D02*
X926105Y627875D01*
X925688Y630240D02*
X902423Y630240D01*
X902006Y632605D02*
X925271Y632605D01*
X924854Y634970D02*
X901589Y634970D01*
X910451Y637335D02*
X924437Y637335D01*
X924020Y639700D02*
X923862Y639700D01*
X796924Y620360D02*
X774361Y616381D01*
X770470Y638444D01*
X793033Y642423D01*
X796924Y620360D01*
X787772Y618746D02*
X773944Y618746D01*
X773527Y621111D02*
X796792Y621111D01*
X796374Y623476D02*
X773110Y623476D01*
X772693Y625841D02*
X795957Y625841D01*
X795540Y628206D02*
X772276Y628206D01*
X771858Y630571D02*
X795123Y630571D01*
X794706Y632936D02*
X771441Y632936D01*
X771024Y635301D02*
X794289Y635301D01*
X793872Y637666D02*
X770607Y637666D01*
X779469Y640031D02*
X793455Y640031D01*
X793038Y642396D02*
X792880Y642396D01*
D10*
X2211178Y762802D03*
X2269303Y726761D03*
D11*
X2313833Y784910D02*
X2336396Y780931D01*
X2313833Y784910D02*
X2317724Y806973D01*
X2340287Y802994D01*
X2336396Y780931D01*
X2336813Y783296D02*
X2322985Y783296D01*
X2313965Y785661D02*
X2337230Y785661D01*
X2337647Y788026D02*
X2314383Y788026D01*
X2314800Y790391D02*
X2338064Y790391D01*
X2338481Y792756D02*
X2315217Y792756D01*
X2315634Y795121D02*
X2338899Y795121D01*
X2339316Y797486D02*
X2316051Y797486D01*
X2316468Y799851D02*
X2339733Y799851D01*
X2340150Y802216D02*
X2316885Y802216D01*
X2317302Y804581D02*
X2331288Y804581D01*
X2317877Y806946D02*
X2317719Y806946D01*
X2214235Y828264D02*
X2191672Y832243D01*
X2195563Y854306D01*
X2218126Y850327D01*
X2214235Y828264D01*
X2214652Y830629D02*
X2200824Y830629D01*
X2191804Y832994D02*
X2215069Y832994D01*
X2215486Y835359D02*
X2192222Y835359D01*
X2192639Y837724D02*
X2215903Y837724D01*
X2216320Y840089D02*
X2193056Y840089D01*
X2193473Y842454D02*
X2216738Y842454D01*
X2217155Y844819D02*
X2193890Y844819D01*
X2194307Y847184D02*
X2217572Y847184D01*
X2217989Y849549D02*
X2194724Y849549D01*
X2195141Y851914D02*
X2209127Y851914D01*
X2195716Y854279D02*
X2195558Y854279D01*
D10*
X2444040Y736600D03*
X2507540Y711200D03*
D11*
X2541296Y776198D02*
X2564208Y776198D01*
X2541296Y776198D02*
X2541296Y798602D01*
X2564208Y798602D01*
X2564208Y776198D01*
X2564208Y778563D02*
X2541296Y778563D01*
X2541296Y780928D02*
X2564208Y780928D01*
X2564208Y783293D02*
X2541296Y783293D01*
X2541296Y785658D02*
X2564208Y785658D01*
X2564208Y788023D02*
X2541296Y788023D01*
X2541296Y790388D02*
X2564208Y790388D01*
X2564208Y792753D02*
X2541296Y792753D01*
X2541296Y795118D02*
X2564208Y795118D01*
X2564208Y797483D02*
X2541296Y797483D01*
X2435684Y801598D02*
X2412772Y801598D01*
X2412772Y824002D01*
X2435684Y824002D01*
X2435684Y801598D01*
X2435684Y803963D02*
X2412772Y803963D01*
X2412772Y806328D02*
X2435684Y806328D01*
X2435684Y808693D02*
X2412772Y808693D01*
X2412772Y811058D02*
X2435684Y811058D01*
X2435684Y813423D02*
X2412772Y813423D01*
X2412772Y815788D02*
X2435684Y815788D01*
X2435684Y818153D02*
X2412772Y818153D01*
X2412772Y820518D02*
X2435684Y820518D01*
X2435684Y822883D02*
X2412772Y822883D01*
D10*
X1379230Y657070D03*
X1446175Y643082D03*
D11*
X1468133Y712955D02*
X1490696Y716934D01*
X1468133Y712955D02*
X1464242Y735018D01*
X1486805Y738997D01*
X1490696Y716934D01*
X1481544Y715320D02*
X1467716Y715320D01*
X1467299Y717685D02*
X1490564Y717685D01*
X1490146Y720050D02*
X1466882Y720050D01*
X1466465Y722415D02*
X1489729Y722415D01*
X1489312Y724780D02*
X1466048Y724780D01*
X1465630Y727145D02*
X1488895Y727145D01*
X1488478Y729510D02*
X1465213Y729510D01*
X1464796Y731875D02*
X1488061Y731875D01*
X1487644Y734240D02*
X1464379Y734240D01*
X1473241Y736605D02*
X1487227Y736605D01*
X1486810Y738970D02*
X1486652Y738970D01*
X1359714Y719630D02*
X1337151Y715651D01*
X1333260Y737714D01*
X1355823Y741693D01*
X1359714Y719630D01*
X1350562Y718016D02*
X1336734Y718016D01*
X1336317Y720381D02*
X1359582Y720381D01*
X1359164Y722746D02*
X1335900Y722746D01*
X1335483Y725111D02*
X1358747Y725111D01*
X1358330Y727476D02*
X1335066Y727476D01*
X1334648Y729841D02*
X1357913Y729841D01*
X1357496Y732206D02*
X1334231Y732206D01*
X1333814Y734571D02*
X1357079Y734571D01*
X1356662Y736936D02*
X1333397Y736936D01*
X1342259Y739301D02*
X1356245Y739301D01*
X1355828Y741666D02*
X1355670Y741666D01*
D10*
X1638758Y670352D03*
X1696883Y634311D03*
D11*
X1741413Y692460D02*
X1763976Y688481D01*
X1741413Y692460D02*
X1745304Y714523D01*
X1767867Y710544D01*
X1763976Y688481D01*
X1764393Y690846D02*
X1750565Y690846D01*
X1741545Y693211D02*
X1764810Y693211D01*
X1765227Y695576D02*
X1741963Y695576D01*
X1742380Y697941D02*
X1765644Y697941D01*
X1766061Y700306D02*
X1742797Y700306D01*
X1743214Y702671D02*
X1766479Y702671D01*
X1766896Y705036D02*
X1743631Y705036D01*
X1744048Y707401D02*
X1767313Y707401D01*
X1767730Y709766D02*
X1744465Y709766D01*
X1744882Y712131D02*
X1758868Y712131D01*
X1745457Y714496D02*
X1745299Y714496D01*
X1641815Y735814D02*
X1619252Y739793D01*
X1623143Y761856D01*
X1645706Y757877D01*
X1641815Y735814D01*
X1642232Y738179D02*
X1628404Y738179D01*
X1619384Y740544D02*
X1642649Y740544D01*
X1643066Y742909D02*
X1619802Y742909D01*
X1620219Y745274D02*
X1643483Y745274D01*
X1643900Y747639D02*
X1620636Y747639D01*
X1621053Y750004D02*
X1644318Y750004D01*
X1644735Y752369D02*
X1621470Y752369D01*
X1621887Y754734D02*
X1645152Y754734D01*
X1645569Y757099D02*
X1622304Y757099D01*
X1622721Y759464D02*
X1636707Y759464D01*
X1623296Y761829D02*
X1623138Y761829D01*
D10*
X1826418Y637252D03*
X1884543Y601211D03*
D11*
X1929073Y659360D02*
X1951636Y655381D01*
X1929073Y659360D02*
X1932964Y681423D01*
X1955527Y677444D01*
X1951636Y655381D01*
X1952053Y657746D02*
X1938225Y657746D01*
X1929205Y660111D02*
X1952470Y660111D01*
X1952887Y662476D02*
X1929623Y662476D01*
X1930040Y664841D02*
X1953304Y664841D01*
X1953721Y667206D02*
X1930457Y667206D01*
X1930874Y669571D02*
X1954139Y669571D01*
X1954556Y671936D02*
X1931291Y671936D01*
X1931708Y674301D02*
X1954973Y674301D01*
X1955390Y676666D02*
X1932125Y676666D01*
X1932542Y679031D02*
X1946528Y679031D01*
X1933117Y681396D02*
X1932959Y681396D01*
X1829475Y702714D02*
X1806912Y706693D01*
X1810803Y728756D01*
X1833366Y724777D01*
X1829475Y702714D01*
X1829892Y705079D02*
X1816064Y705079D01*
X1807044Y707444D02*
X1830309Y707444D01*
X1830726Y709809D02*
X1807462Y709809D01*
X1807879Y712174D02*
X1831143Y712174D01*
X1831560Y714539D02*
X1808296Y714539D01*
X1808713Y716904D02*
X1831978Y716904D01*
X1832395Y719269D02*
X1809130Y719269D01*
X1809547Y721634D02*
X1832812Y721634D01*
X1833229Y723999D02*
X1809964Y723999D01*
X1810381Y726364D02*
X1824367Y726364D01*
X1810956Y728729D02*
X1810798Y728729D01*
D10*
X2013948Y604132D03*
X2072073Y568091D03*
D11*
X2116603Y626240D02*
X2139166Y622261D01*
X2116603Y626240D02*
X2120494Y648303D01*
X2143057Y644324D01*
X2139166Y622261D01*
X2139583Y624626D02*
X2125755Y624626D01*
X2116735Y626991D02*
X2140000Y626991D01*
X2140417Y629356D02*
X2117153Y629356D01*
X2117570Y631721D02*
X2140834Y631721D01*
X2141251Y634086D02*
X2117987Y634086D01*
X2118404Y636451D02*
X2141669Y636451D01*
X2142086Y638816D02*
X2118821Y638816D01*
X2119238Y641181D02*
X2142503Y641181D01*
X2142920Y643546D02*
X2119655Y643546D01*
X2120072Y645911D02*
X2134058Y645911D01*
X2120647Y648276D02*
X2120489Y648276D01*
X2017005Y669594D02*
X1994442Y673573D01*
X1998333Y695636D01*
X2020896Y691657D01*
X2017005Y669594D01*
X2017422Y671959D02*
X2003594Y671959D01*
X1994574Y674324D02*
X2017839Y674324D01*
X2018256Y676689D02*
X1994992Y676689D01*
X1995409Y679054D02*
X2018673Y679054D01*
X2019090Y681419D02*
X1995826Y681419D01*
X1996243Y683784D02*
X2019508Y683784D01*
X2019925Y686149D02*
X1996660Y686149D01*
X1997077Y688514D02*
X2020342Y688514D01*
X2020759Y690879D02*
X1997494Y690879D01*
X1997911Y693244D02*
X2011897Y693244D01*
X1998486Y695609D02*
X1998328Y695609D01*
D10*
X2201578Y571082D03*
X2259703Y535041D03*
D11*
X2304233Y593190D02*
X2326796Y589211D01*
X2304233Y593190D02*
X2308124Y615253D01*
X2330687Y611274D01*
X2326796Y589211D01*
X2327213Y591576D02*
X2313385Y591576D01*
X2304365Y593941D02*
X2327630Y593941D01*
X2328047Y596306D02*
X2304783Y596306D01*
X2305200Y598671D02*
X2328464Y598671D01*
X2328881Y601036D02*
X2305617Y601036D01*
X2306034Y603401D02*
X2329299Y603401D01*
X2329716Y605766D02*
X2306451Y605766D01*
X2306868Y608131D02*
X2330133Y608131D01*
X2330550Y610496D02*
X2307285Y610496D01*
X2307702Y612861D02*
X2321688Y612861D01*
X2308277Y615226D02*
X2308119Y615226D01*
X2204635Y636544D02*
X2182072Y640523D01*
X2185963Y662586D01*
X2208526Y658607D01*
X2204635Y636544D01*
X2205052Y638909D02*
X2191224Y638909D01*
X2182204Y641274D02*
X2205469Y641274D01*
X2205886Y643639D02*
X2182622Y643639D01*
X2183039Y646004D02*
X2206303Y646004D01*
X2206720Y648369D02*
X2183456Y648369D01*
X2183873Y650734D02*
X2207138Y650734D01*
X2207555Y653099D02*
X2184290Y653099D01*
X2184707Y655464D02*
X2207972Y655464D01*
X2208389Y657829D02*
X2185124Y657829D01*
X2185541Y660194D02*
X2199527Y660194D01*
X2186116Y662559D02*
X2185958Y662559D01*
D10*
X2410970Y546100D03*
X2474470Y520700D03*
D11*
X2508226Y585698D02*
X2531138Y585698D01*
X2508226Y585698D02*
X2508226Y608102D01*
X2531138Y608102D01*
X2531138Y585698D01*
X2531138Y588063D02*
X2508226Y588063D01*
X2508226Y590428D02*
X2531138Y590428D01*
X2531138Y592793D02*
X2508226Y592793D01*
X2508226Y595158D02*
X2531138Y595158D01*
X2531138Y597523D02*
X2508226Y597523D01*
X2508226Y599888D02*
X2531138Y599888D01*
X2531138Y602253D02*
X2508226Y602253D01*
X2508226Y604618D02*
X2531138Y604618D01*
X2531138Y606983D02*
X2508226Y606983D01*
X2402614Y611098D02*
X2379702Y611098D01*
X2379702Y633502D01*
X2402614Y633502D01*
X2402614Y611098D01*
X2402614Y613463D02*
X2379702Y613463D01*
X2379702Y615828D02*
X2402614Y615828D01*
X2402614Y618193D02*
X2379702Y618193D01*
X2379702Y620558D02*
X2402614Y620558D01*
X2402614Y622923D02*
X2379702Y622923D01*
X2379702Y625288D02*
X2402614Y625288D01*
X2402614Y627653D02*
X2379702Y627653D01*
X2379702Y630018D02*
X2402614Y630018D01*
X2402614Y632383D02*
X2379702Y632383D01*
D10*
X2601490Y546050D03*
X2664990Y520650D03*
D11*
X2698746Y585648D02*
X2721658Y585648D01*
X2698746Y585648D02*
X2698746Y608052D01*
X2721658Y608052D01*
X2721658Y585648D01*
X2721658Y588013D02*
X2698746Y588013D01*
X2698746Y590378D02*
X2721658Y590378D01*
X2721658Y592743D02*
X2698746Y592743D01*
X2698746Y595108D02*
X2721658Y595108D01*
X2721658Y597473D02*
X2698746Y597473D01*
X2698746Y599838D02*
X2721658Y599838D01*
X2721658Y602203D02*
X2698746Y602203D01*
X2698746Y604568D02*
X2721658Y604568D01*
X2721658Y606933D02*
X2698746Y606933D01*
X2593134Y611048D02*
X2570222Y611048D01*
X2570222Y633452D01*
X2593134Y633452D01*
X2593134Y611048D01*
X2593134Y613413D02*
X2570222Y613413D01*
X2570222Y615778D02*
X2593134Y615778D01*
X2593134Y618143D02*
X2570222Y618143D01*
X2570222Y620508D02*
X2593134Y620508D01*
X2593134Y622873D02*
X2570222Y622873D01*
X2570222Y625238D02*
X2593134Y625238D01*
X2593134Y627603D02*
X2570222Y627603D01*
X2570222Y629968D02*
X2593134Y629968D01*
X2593134Y632333D02*
X2570222Y632333D01*
D10*
X2863420Y546100D03*
X2926920Y520700D03*
D11*
X2960676Y585698D02*
X2983588Y585698D01*
X2960676Y585698D02*
X2960676Y608102D01*
X2983588Y608102D01*
X2983588Y585698D01*
X2983588Y588063D02*
X2960676Y588063D01*
X2960676Y590428D02*
X2983588Y590428D01*
X2983588Y592793D02*
X2960676Y592793D01*
X2960676Y595158D02*
X2983588Y595158D01*
X2983588Y597523D02*
X2960676Y597523D01*
X2960676Y599888D02*
X2983588Y599888D01*
X2983588Y602253D02*
X2960676Y602253D01*
X2960676Y604618D02*
X2983588Y604618D01*
X2983588Y606983D02*
X2960676Y606983D01*
X2855064Y611098D02*
X2832152Y611098D01*
X2832152Y633502D01*
X2855064Y633502D01*
X2855064Y611098D01*
X2855064Y613463D02*
X2832152Y613463D01*
X2832152Y615828D02*
X2855064Y615828D01*
X2855064Y618193D02*
X2832152Y618193D01*
X2832152Y620558D02*
X2855064Y620558D01*
X2855064Y622923D02*
X2832152Y622923D01*
X2832152Y625288D02*
X2855064Y625288D01*
X2855064Y627653D02*
X2832152Y627653D01*
X2832152Y630018D02*
X2855064Y630018D01*
X2855064Y632383D02*
X2832152Y632383D01*
D10*
X3125340Y546070D03*
X3188840Y520670D03*
D11*
X3222596Y585668D02*
X3245508Y585668D01*
X3222596Y585668D02*
X3222596Y608072D01*
X3245508Y608072D01*
X3245508Y585668D01*
X3245508Y588033D02*
X3222596Y588033D01*
X3222596Y590398D02*
X3245508Y590398D01*
X3245508Y592763D02*
X3222596Y592763D01*
X3222596Y595128D02*
X3245508Y595128D01*
X3245508Y597493D02*
X3222596Y597493D01*
X3222596Y599858D02*
X3245508Y599858D01*
X3245508Y602223D02*
X3222596Y602223D01*
X3222596Y604588D02*
X3245508Y604588D01*
X3245508Y606953D02*
X3222596Y606953D01*
X3116984Y611068D02*
X3094072Y611068D01*
X3094072Y633472D01*
X3116984Y633472D01*
X3116984Y611068D01*
X3116984Y613433D02*
X3094072Y613433D01*
X3094072Y615798D02*
X3116984Y615798D01*
X3116984Y618163D02*
X3094072Y618163D01*
X3094072Y620528D02*
X3116984Y620528D01*
X3116984Y622893D02*
X3094072Y622893D01*
X3094072Y625258D02*
X3116984Y625258D01*
X3116984Y627623D02*
X3094072Y627623D01*
X3094072Y629988D02*
X3116984Y629988D01*
X3116984Y632353D02*
X3094072Y632353D01*
D10*
X572800Y736570D03*
X636300Y711170D03*
D11*
X670056Y776168D02*
X692968Y776168D01*
X670056Y776168D02*
X670056Y798572D01*
X692968Y798572D01*
X692968Y776168D01*
X692968Y778533D02*
X670056Y778533D01*
X670056Y780898D02*
X692968Y780898D01*
X692968Y783263D02*
X670056Y783263D01*
X670056Y785628D02*
X692968Y785628D01*
X692968Y787993D02*
X670056Y787993D01*
X670056Y790358D02*
X692968Y790358D01*
X692968Y792723D02*
X670056Y792723D01*
X670056Y795088D02*
X692968Y795088D01*
X692968Y797453D02*
X670056Y797453D01*
X564444Y801568D02*
X541532Y801568D01*
X541532Y823972D01*
X564444Y823972D01*
X564444Y801568D01*
X564444Y803933D02*
X541532Y803933D01*
X541532Y806298D02*
X564444Y806298D01*
X564444Y808663D02*
X541532Y808663D01*
X541532Y811028D02*
X564444Y811028D01*
X564444Y813393D02*
X541532Y813393D01*
X541532Y815758D02*
X564444Y815758D01*
X564444Y818123D02*
X541532Y818123D01*
X541532Y820488D02*
X564444Y820488D01*
X564444Y822853D02*
X541532Y822853D01*
D10*
X806840Y749600D03*
X873785Y735612D03*
D11*
X895743Y805485D02*
X918306Y809464D01*
X895743Y805485D02*
X891852Y827548D01*
X914415Y831527D01*
X918306Y809464D01*
X909154Y807850D02*
X895326Y807850D01*
X894909Y810215D02*
X918174Y810215D01*
X917756Y812580D02*
X894492Y812580D01*
X894075Y814945D02*
X917339Y814945D01*
X916922Y817310D02*
X893658Y817310D01*
X893240Y819675D02*
X916505Y819675D01*
X916088Y822040D02*
X892823Y822040D01*
X892406Y824405D02*
X915671Y824405D01*
X915254Y826770D02*
X891989Y826770D01*
X900851Y829135D02*
X914837Y829135D01*
X914420Y831500D02*
X914262Y831500D01*
X787324Y812160D02*
X764761Y808181D01*
X760870Y830244D01*
X783433Y834223D01*
X787324Y812160D01*
X778172Y810546D02*
X764344Y810546D01*
X763927Y812911D02*
X787192Y812911D01*
X786774Y815276D02*
X763510Y815276D01*
X763093Y817641D02*
X786357Y817641D01*
X785940Y820006D02*
X762676Y820006D01*
X762258Y822371D02*
X785523Y822371D01*
X785106Y824736D02*
X761841Y824736D01*
X761424Y827101D02*
X784689Y827101D01*
X784272Y829466D02*
X761007Y829466D01*
X769869Y831831D02*
X783855Y831831D01*
X783438Y834196D02*
X783280Y834196D01*
D10*
X1182000Y815740D03*
X1248945Y801752D03*
D11*
X1270903Y871625D02*
X1293466Y875604D01*
X1270903Y871625D02*
X1267012Y893688D01*
X1289575Y897667D01*
X1293466Y875604D01*
X1284314Y873990D02*
X1270486Y873990D01*
X1270069Y876355D02*
X1293334Y876355D01*
X1292916Y878720D02*
X1269652Y878720D01*
X1269235Y881085D02*
X1292499Y881085D01*
X1292082Y883450D02*
X1268818Y883450D01*
X1268400Y885815D02*
X1291665Y885815D01*
X1291248Y888180D02*
X1267983Y888180D01*
X1267566Y890545D02*
X1290831Y890545D01*
X1290414Y892910D02*
X1267149Y892910D01*
X1276011Y895275D02*
X1289997Y895275D01*
X1289580Y897640D02*
X1289422Y897640D01*
X1162484Y878300D02*
X1139921Y874321D01*
X1136030Y896384D01*
X1158593Y900363D01*
X1162484Y878300D01*
X1153332Y876686D02*
X1139504Y876686D01*
X1139087Y879051D02*
X1162352Y879051D01*
X1161934Y881416D02*
X1138670Y881416D01*
X1138253Y883781D02*
X1161517Y883781D01*
X1161100Y886146D02*
X1137836Y886146D01*
X1137418Y888511D02*
X1160683Y888511D01*
X1160266Y890876D02*
X1137001Y890876D01*
X1136584Y893241D02*
X1159849Y893241D01*
X1159432Y895606D02*
X1136167Y895606D01*
X1145029Y897971D02*
X1159015Y897971D01*
X1158598Y900336D02*
X1158440Y900336D01*
D10*
X1835988Y828972D03*
X1894113Y792931D03*
D11*
X1938643Y851080D02*
X1961206Y847101D01*
X1938643Y851080D02*
X1942534Y873143D01*
X1965097Y869164D01*
X1961206Y847101D01*
X1961623Y849466D02*
X1947795Y849466D01*
X1938775Y851831D02*
X1962040Y851831D01*
X1962457Y854196D02*
X1939193Y854196D01*
X1939610Y856561D02*
X1962874Y856561D01*
X1963291Y858926D02*
X1940027Y858926D01*
X1940444Y861291D02*
X1963709Y861291D01*
X1964126Y863656D02*
X1940861Y863656D01*
X1941278Y866021D02*
X1964543Y866021D01*
X1964960Y868386D02*
X1941695Y868386D01*
X1942112Y870751D02*
X1956098Y870751D01*
X1942687Y873116D02*
X1942529Y873116D01*
X1839045Y894434D02*
X1816482Y898413D01*
X1820373Y920476D01*
X1842936Y916497D01*
X1839045Y894434D01*
X1839462Y896799D02*
X1825634Y896799D01*
X1816614Y899164D02*
X1839879Y899164D01*
X1840296Y901529D02*
X1817032Y901529D01*
X1817449Y903894D02*
X1840713Y903894D01*
X1841130Y906259D02*
X1817866Y906259D01*
X1818283Y908624D02*
X1841548Y908624D01*
X1841965Y910989D02*
X1818700Y910989D01*
X1819117Y913354D02*
X1842382Y913354D01*
X1842799Y915719D02*
X1819534Y915719D01*
X1819951Y918084D02*
X1833937Y918084D01*
X1820526Y920449D02*
X1820368Y920449D01*
D10*
X932340Y384880D03*
X999285Y370892D03*
D11*
X1021243Y440765D02*
X1043806Y444744D01*
X1021243Y440765D02*
X1017352Y462828D01*
X1039915Y466807D01*
X1043806Y444744D01*
X1034654Y443130D02*
X1020826Y443130D01*
X1020409Y445495D02*
X1043674Y445495D01*
X1043256Y447860D02*
X1019992Y447860D01*
X1019575Y450225D02*
X1042839Y450225D01*
X1042422Y452590D02*
X1019158Y452590D01*
X1018740Y454955D02*
X1042005Y454955D01*
X1041588Y457320D02*
X1018323Y457320D01*
X1017906Y459685D02*
X1041171Y459685D01*
X1040754Y462050D02*
X1017489Y462050D01*
X1026351Y464415D02*
X1040337Y464415D01*
X1039920Y466780D02*
X1039762Y466780D01*
X912824Y447440D02*
X890261Y443461D01*
X886370Y465524D01*
X908933Y469503D01*
X912824Y447440D01*
X903672Y445826D02*
X889844Y445826D01*
X889427Y448191D02*
X912692Y448191D01*
X912274Y450556D02*
X889010Y450556D01*
X888593Y452921D02*
X911857Y452921D01*
X911440Y455286D02*
X888176Y455286D01*
X887758Y457651D02*
X911023Y457651D01*
X910606Y460016D02*
X887341Y460016D01*
X886924Y462381D02*
X910189Y462381D01*
X909772Y464746D02*
X886507Y464746D01*
X895369Y467111D02*
X909355Y467111D01*
X908938Y469476D02*
X908780Y469476D01*
D10*
X1119970Y417920D03*
X1186915Y403932D03*
D11*
X1208873Y473805D02*
X1231436Y477784D01*
X1208873Y473805D02*
X1204982Y495868D01*
X1227545Y499847D01*
X1231436Y477784D01*
X1222284Y476170D02*
X1208456Y476170D01*
X1208039Y478535D02*
X1231304Y478535D01*
X1230886Y480900D02*
X1207622Y480900D01*
X1207205Y483265D02*
X1230469Y483265D01*
X1230052Y485630D02*
X1206788Y485630D01*
X1206370Y487995D02*
X1229635Y487995D01*
X1229218Y490360D02*
X1205953Y490360D01*
X1205536Y492725D02*
X1228801Y492725D01*
X1228384Y495090D02*
X1205119Y495090D01*
X1213981Y497455D02*
X1227967Y497455D01*
X1227550Y499820D02*
X1227392Y499820D01*
X1100454Y480480D02*
X1077891Y476501D01*
X1074000Y498564D01*
X1096563Y502543D01*
X1100454Y480480D01*
X1091302Y478866D02*
X1077474Y478866D01*
X1077057Y481231D02*
X1100322Y481231D01*
X1099904Y483596D02*
X1076640Y483596D01*
X1076223Y485961D02*
X1099487Y485961D01*
X1099070Y488326D02*
X1075806Y488326D01*
X1075388Y490691D02*
X1098653Y490691D01*
X1098236Y493056D02*
X1074971Y493056D01*
X1074554Y495421D02*
X1097819Y495421D01*
X1097402Y497786D02*
X1074137Y497786D01*
X1082999Y500151D02*
X1096985Y500151D01*
X1096568Y502516D02*
X1096410Y502516D01*
D10*
X1284080Y253430D03*
X1351025Y239442D03*
D11*
X1372983Y309315D02*
X1395546Y313294D01*
X1372983Y309315D02*
X1369092Y331378D01*
X1391655Y335357D01*
X1395546Y313294D01*
X1386394Y311680D02*
X1372566Y311680D01*
X1372149Y314045D02*
X1395414Y314045D01*
X1394996Y316410D02*
X1371732Y316410D01*
X1371315Y318775D02*
X1394579Y318775D01*
X1394162Y321140D02*
X1370898Y321140D01*
X1370480Y323505D02*
X1393745Y323505D01*
X1393328Y325870D02*
X1370063Y325870D01*
X1369646Y328235D02*
X1392911Y328235D01*
X1392494Y330600D02*
X1369229Y330600D01*
X1378091Y332965D02*
X1392077Y332965D01*
X1391660Y335330D02*
X1391502Y335330D01*
X1264564Y315990D02*
X1242001Y312011D01*
X1238110Y334074D01*
X1260673Y338053D01*
X1264564Y315990D01*
X1255412Y314376D02*
X1241584Y314376D01*
X1241167Y316741D02*
X1264432Y316741D01*
X1264014Y319106D02*
X1240750Y319106D01*
X1240333Y321471D02*
X1263597Y321471D01*
X1263180Y323836D02*
X1239916Y323836D01*
X1239498Y326201D02*
X1262763Y326201D01*
X1262346Y328566D02*
X1239081Y328566D01*
X1238664Y330931D02*
X1261929Y330931D01*
X1261512Y333296D02*
X1238247Y333296D01*
X1247109Y335661D02*
X1261095Y335661D01*
X1260678Y338026D02*
X1260520Y338026D01*
D10*
X1638888Y283382D03*
X1697013Y247341D03*
D11*
X1741543Y305490D02*
X1764106Y301511D01*
X1741543Y305490D02*
X1745434Y327553D01*
X1767997Y323574D01*
X1764106Y301511D01*
X1764523Y303876D02*
X1750695Y303876D01*
X1741675Y306241D02*
X1764940Y306241D01*
X1765357Y308606D02*
X1742093Y308606D01*
X1742510Y310971D02*
X1765774Y310971D01*
X1766191Y313336D02*
X1742927Y313336D01*
X1743344Y315701D02*
X1766609Y315701D01*
X1767026Y318066D02*
X1743761Y318066D01*
X1744178Y320431D02*
X1767443Y320431D01*
X1767860Y322796D02*
X1744595Y322796D01*
X1745012Y325161D02*
X1758998Y325161D01*
X1745587Y327526D02*
X1745429Y327526D01*
X1641945Y348844D02*
X1619382Y352823D01*
X1623273Y374886D01*
X1645836Y370907D01*
X1641945Y348844D01*
X1642362Y351209D02*
X1628534Y351209D01*
X1619514Y353574D02*
X1642779Y353574D01*
X1643196Y355939D02*
X1619932Y355939D01*
X1620349Y358304D02*
X1643613Y358304D01*
X1644030Y360669D02*
X1620766Y360669D01*
X1621183Y363034D02*
X1644448Y363034D01*
X1644865Y365399D02*
X1621600Y365399D01*
X1622017Y367764D02*
X1645282Y367764D01*
X1645699Y370129D02*
X1622434Y370129D01*
X1622851Y372494D02*
X1636837Y372494D01*
X1623426Y374859D02*
X1623268Y374859D01*
D10*
X1826538Y250312D03*
X1884663Y214271D03*
D11*
X1929193Y272420D02*
X1951756Y268441D01*
X1929193Y272420D02*
X1933084Y294483D01*
X1955647Y290504D01*
X1951756Y268441D01*
X1952173Y270806D02*
X1938345Y270806D01*
X1929325Y273171D02*
X1952590Y273171D01*
X1953007Y275536D02*
X1929743Y275536D01*
X1930160Y277901D02*
X1953424Y277901D01*
X1953841Y280266D02*
X1930577Y280266D01*
X1930994Y282631D02*
X1954259Y282631D01*
X1954676Y284996D02*
X1931411Y284996D01*
X1931828Y287361D02*
X1955093Y287361D01*
X1955510Y289726D02*
X1932245Y289726D01*
X1932662Y292091D02*
X1946648Y292091D01*
X1933237Y294456D02*
X1933079Y294456D01*
X1829595Y315774D02*
X1807032Y319753D01*
X1810923Y341816D01*
X1833486Y337837D01*
X1829595Y315774D01*
X1830012Y318139D02*
X1816184Y318139D01*
X1807164Y320504D02*
X1830429Y320504D01*
X1830846Y322869D02*
X1807582Y322869D01*
X1807999Y325234D02*
X1831263Y325234D01*
X1831680Y327599D02*
X1808416Y327599D01*
X1808833Y329964D02*
X1832098Y329964D01*
X1832515Y332329D02*
X1809250Y332329D01*
X1809667Y334694D02*
X1832932Y334694D01*
X1833349Y337059D02*
X1810084Y337059D01*
X1810501Y339424D02*
X1824487Y339424D01*
X1811076Y341789D02*
X1810918Y341789D01*
D10*
X2014168Y217292D03*
X2072293Y181251D03*
D11*
X2116823Y239400D02*
X2139386Y235421D01*
X2116823Y239400D02*
X2120714Y261463D01*
X2143277Y257484D01*
X2139386Y235421D01*
X2139803Y237786D02*
X2125975Y237786D01*
X2116955Y240151D02*
X2140220Y240151D01*
X2140637Y242516D02*
X2117373Y242516D01*
X2117790Y244881D02*
X2141054Y244881D01*
X2141471Y247246D02*
X2118207Y247246D01*
X2118624Y249611D02*
X2141889Y249611D01*
X2142306Y251976D02*
X2119041Y251976D01*
X2119458Y254341D02*
X2142723Y254341D01*
X2143140Y256706D02*
X2119875Y256706D01*
X2120292Y259071D02*
X2134278Y259071D01*
X2120867Y261436D02*
X2120709Y261436D01*
X2017225Y282754D02*
X1994662Y286733D01*
X1998553Y308796D01*
X2021116Y304817D01*
X2017225Y282754D01*
X2017642Y285119D02*
X2003814Y285119D01*
X1994794Y287484D02*
X2018059Y287484D01*
X2018476Y289849D02*
X1995212Y289849D01*
X1995629Y292214D02*
X2018893Y292214D01*
X2019310Y294579D02*
X1996046Y294579D01*
X1996463Y296944D02*
X2019728Y296944D01*
X2020145Y299309D02*
X1996880Y299309D01*
X1997297Y301674D02*
X2020562Y301674D01*
X2020979Y304039D02*
X1997714Y304039D01*
X1998131Y306404D02*
X2012117Y306404D01*
X1998706Y308769D02*
X1998548Y308769D01*
D10*
X2201728Y184222D03*
X2259853Y148181D03*
D11*
X2304383Y206330D02*
X2326946Y202351D01*
X2304383Y206330D02*
X2308274Y228393D01*
X2330837Y224414D01*
X2326946Y202351D01*
X2327363Y204716D02*
X2313535Y204716D01*
X2304515Y207081D02*
X2327780Y207081D01*
X2328197Y209446D02*
X2304933Y209446D01*
X2305350Y211811D02*
X2328614Y211811D01*
X2329031Y214176D02*
X2305767Y214176D01*
X2306184Y216541D02*
X2329449Y216541D01*
X2329866Y218906D02*
X2306601Y218906D01*
X2307018Y221271D02*
X2330283Y221271D01*
X2330700Y223636D02*
X2307435Y223636D01*
X2307852Y226001D02*
X2321838Y226001D01*
X2308427Y228366D02*
X2308269Y228366D01*
X2204785Y249684D02*
X2182222Y253663D01*
X2186113Y275726D01*
X2208676Y271747D01*
X2204785Y249684D01*
X2205202Y252049D02*
X2191374Y252049D01*
X2182354Y254414D02*
X2205619Y254414D01*
X2206036Y256779D02*
X2182772Y256779D01*
X2183189Y259144D02*
X2206453Y259144D01*
X2206870Y261509D02*
X2183606Y261509D01*
X2184023Y263874D02*
X2207288Y263874D01*
X2207705Y266239D02*
X2184440Y266239D01*
X2184857Y268604D02*
X2208122Y268604D01*
X2208539Y270969D02*
X2185274Y270969D01*
X2185691Y273334D02*
X2199677Y273334D01*
X2186266Y275699D02*
X2186108Y275699D01*
D10*
X2410970Y154460D03*
X2474470Y129060D03*
D11*
X2508226Y194058D02*
X2531138Y194058D01*
X2508226Y194058D02*
X2508226Y216462D01*
X2531138Y216462D01*
X2531138Y194058D01*
X2531138Y196423D02*
X2508226Y196423D01*
X2508226Y198788D02*
X2531138Y198788D01*
X2531138Y201153D02*
X2508226Y201153D01*
X2508226Y203518D02*
X2531138Y203518D01*
X2531138Y205883D02*
X2508226Y205883D01*
X2508226Y208248D02*
X2531138Y208248D01*
X2531138Y210613D02*
X2508226Y210613D01*
X2508226Y212978D02*
X2531138Y212978D01*
X2531138Y215343D02*
X2508226Y215343D01*
X2402614Y219458D02*
X2379702Y219458D01*
X2379702Y241862D01*
X2402614Y241862D01*
X2402614Y219458D01*
X2402614Y221823D02*
X2379702Y221823D01*
X2379702Y224188D02*
X2402614Y224188D01*
X2402614Y226553D02*
X2379702Y226553D01*
X2379702Y228918D02*
X2402614Y228918D01*
X2402614Y231283D02*
X2379702Y231283D01*
X2379702Y233648D02*
X2402614Y233648D01*
X2402614Y236013D02*
X2379702Y236013D01*
X2379702Y238378D02*
X2402614Y238378D01*
X2402614Y240743D02*
X2379702Y240743D01*
D10*
X2601490Y165050D03*
X2664990Y139650D03*
D11*
X2698746Y204648D02*
X2721658Y204648D01*
X2698746Y204648D02*
X2698746Y227052D01*
X2721658Y227052D01*
X2721658Y204648D01*
X2721658Y207013D02*
X2698746Y207013D01*
X2698746Y209378D02*
X2721658Y209378D01*
X2721658Y211743D02*
X2698746Y211743D01*
X2698746Y214108D02*
X2721658Y214108D01*
X2721658Y216473D02*
X2698746Y216473D01*
X2698746Y218838D02*
X2721658Y218838D01*
X2721658Y221203D02*
X2698746Y221203D01*
X2698746Y223568D02*
X2721658Y223568D01*
X2721658Y225933D02*
X2698746Y225933D01*
X2593134Y230048D02*
X2570222Y230048D01*
X2570222Y252452D01*
X2593134Y252452D01*
X2593134Y230048D01*
X2593134Y232413D02*
X2570222Y232413D01*
X2570222Y234778D02*
X2593134Y234778D01*
X2593134Y237143D02*
X2570222Y237143D01*
X2570222Y239508D02*
X2593134Y239508D01*
X2593134Y241873D02*
X2570222Y241873D01*
X2570222Y244238D02*
X2593134Y244238D01*
X2593134Y246603D02*
X2570222Y246603D01*
X2570222Y248968D02*
X2593134Y248968D01*
X2593134Y251333D02*
X2570222Y251333D01*
D10*
X2791970Y165070D03*
X2855470Y139670D03*
D11*
X2889226Y204668D02*
X2912138Y204668D01*
X2889226Y204668D02*
X2889226Y227072D01*
X2912138Y227072D01*
X2912138Y204668D01*
X2912138Y207033D02*
X2889226Y207033D01*
X2889226Y209398D02*
X2912138Y209398D01*
X2912138Y211763D02*
X2889226Y211763D01*
X2889226Y214128D02*
X2912138Y214128D01*
X2912138Y216493D02*
X2889226Y216493D01*
X2889226Y218858D02*
X2912138Y218858D01*
X2912138Y221223D02*
X2889226Y221223D01*
X2889226Y223588D02*
X2912138Y223588D01*
X2912138Y225953D02*
X2889226Y225953D01*
X2783614Y230068D02*
X2760702Y230068D01*
X2760702Y252472D01*
X2783614Y252472D01*
X2783614Y230068D01*
X2783614Y232433D02*
X2760702Y232433D01*
X2760702Y234798D02*
X2783614Y234798D01*
X2783614Y237163D02*
X2760702Y237163D01*
X2760702Y239528D02*
X2783614Y239528D01*
X2783614Y241893D02*
X2760702Y241893D01*
X2760702Y244258D02*
X2783614Y244258D01*
X2783614Y246623D02*
X2760702Y246623D01*
X2760702Y248988D02*
X2783614Y248988D01*
X2783614Y251353D02*
X2760702Y251353D01*
D10*
X-61870Y165130D03*
X1630Y139730D03*
D11*
X35386Y204728D02*
X58298Y204728D01*
X35386Y204728D02*
X35386Y227132D01*
X58298Y227132D01*
X58298Y204728D01*
X58298Y207093D02*
X35386Y207093D01*
X35386Y209458D02*
X58298Y209458D01*
X58298Y211823D02*
X35386Y211823D01*
X35386Y214188D02*
X58298Y214188D01*
X58298Y216553D02*
X35386Y216553D01*
X35386Y218918D02*
X58298Y218918D01*
X58298Y221283D02*
X35386Y221283D01*
X35386Y223648D02*
X58298Y223648D01*
X58298Y226013D02*
X35386Y226013D01*
X-70226Y230128D02*
X-93138Y230128D01*
X-93138Y252532D01*
X-70226Y252532D01*
X-70226Y230128D01*
X-70226Y232493D02*
X-93138Y232493D01*
X-93138Y234858D02*
X-70226Y234858D01*
X-70226Y237223D02*
X-93138Y237223D01*
X-93138Y239588D02*
X-70226Y239588D01*
X-70226Y241953D02*
X-93138Y241953D01*
X-93138Y244318D02*
X-70226Y244318D01*
X-70226Y246683D02*
X-93138Y246683D01*
X-93138Y249048D02*
X-70226Y249048D01*
X-70226Y251413D02*
X-93138Y251413D01*
D10*
X272490Y165100D03*
X335990Y139700D03*
D11*
X369746Y204698D02*
X392658Y204698D01*
X369746Y204698D02*
X369746Y227102D01*
X392658Y227102D01*
X392658Y204698D01*
X392658Y207063D02*
X369746Y207063D01*
X369746Y209428D02*
X392658Y209428D01*
X392658Y211793D02*
X369746Y211793D01*
X369746Y214158D02*
X392658Y214158D01*
X392658Y216523D02*
X369746Y216523D01*
X369746Y218888D02*
X392658Y218888D01*
X392658Y221253D02*
X369746Y221253D01*
X369746Y223618D02*
X392658Y223618D01*
X392658Y225983D02*
X369746Y225983D01*
X264134Y230098D02*
X241222Y230098D01*
X241222Y252502D01*
X264134Y252502D01*
X264134Y230098D01*
X264134Y232463D02*
X241222Y232463D01*
X241222Y234828D02*
X264134Y234828D01*
X264134Y237193D02*
X241222Y237193D01*
X241222Y239558D02*
X264134Y239558D01*
X264134Y241923D02*
X241222Y241923D01*
X241222Y244288D02*
X264134Y244288D01*
X264134Y246653D02*
X241222Y246653D01*
X241222Y249018D02*
X264134Y249018D01*
X264134Y251383D02*
X241222Y251383D01*
D10*
X510590Y165070D03*
X574090Y139670D03*
D11*
X607846Y204668D02*
X630758Y204668D01*
X607846Y204668D02*
X607846Y227072D01*
X630758Y227072D01*
X630758Y204668D01*
X630758Y207033D02*
X607846Y207033D01*
X607846Y209398D02*
X630758Y209398D01*
X630758Y211763D02*
X607846Y211763D01*
X607846Y214128D02*
X630758Y214128D01*
X630758Y216493D02*
X607846Y216493D01*
X607846Y218858D02*
X630758Y218858D01*
X630758Y221223D02*
X607846Y221223D01*
X607846Y223588D02*
X630758Y223588D01*
X630758Y225953D02*
X607846Y225953D01*
X502234Y230068D02*
X479322Y230068D01*
X479322Y252472D01*
X502234Y252472D01*
X502234Y230068D01*
X502234Y232433D02*
X479322Y232433D01*
X479322Y234798D02*
X502234Y234798D01*
X502234Y237163D02*
X479322Y237163D01*
X479322Y239528D02*
X502234Y239528D01*
X502234Y241893D02*
X479322Y241893D01*
X479322Y244258D02*
X502234Y244258D01*
X502234Y246623D02*
X479322Y246623D01*
X479322Y248988D02*
X502234Y248988D01*
X502234Y251353D02*
X479322Y251353D01*
D10*
X721170Y154200D03*
X788115Y140212D03*
D11*
X810073Y210085D02*
X832636Y214064D01*
X810073Y210085D02*
X806182Y232148D01*
X828745Y236127D01*
X832636Y214064D01*
X823484Y212450D02*
X809656Y212450D01*
X809239Y214815D02*
X832504Y214815D01*
X832086Y217180D02*
X808822Y217180D01*
X808405Y219545D02*
X831669Y219545D01*
X831252Y221910D02*
X807988Y221910D01*
X807570Y224275D02*
X830835Y224275D01*
X830418Y226640D02*
X807153Y226640D01*
X806736Y229005D02*
X830001Y229005D01*
X829584Y231370D02*
X806319Y231370D01*
X815181Y233735D02*
X829167Y233735D01*
X828750Y236100D02*
X828592Y236100D01*
X701654Y216760D02*
X679091Y212781D01*
X675200Y234844D01*
X697763Y238823D01*
X701654Y216760D01*
X692502Y215146D02*
X678674Y215146D01*
X678257Y217511D02*
X701522Y217511D01*
X701104Y219876D02*
X677840Y219876D01*
X677423Y222241D02*
X700687Y222241D01*
X700270Y224606D02*
X677006Y224606D01*
X676588Y226971D02*
X699853Y226971D01*
X699436Y229336D02*
X676171Y229336D01*
X675754Y231701D02*
X699019Y231701D01*
X698602Y234066D02*
X675337Y234066D01*
X684199Y236431D02*
X698185Y236431D01*
X697768Y238796D02*
X697610Y238796D01*
D10*
X908750Y187240D03*
X975695Y173252D03*
D11*
X997653Y243125D02*
X1020216Y247104D01*
X997653Y243125D02*
X993762Y265188D01*
X1016325Y269167D01*
X1020216Y247104D01*
X1011064Y245490D02*
X997236Y245490D01*
X996819Y247855D02*
X1020084Y247855D01*
X1019666Y250220D02*
X996402Y250220D01*
X995985Y252585D02*
X1019249Y252585D01*
X1018832Y254950D02*
X995568Y254950D01*
X995150Y257315D02*
X1018415Y257315D01*
X1017998Y259680D02*
X994733Y259680D01*
X994316Y262045D02*
X1017581Y262045D01*
X1017164Y264410D02*
X993899Y264410D01*
X1002761Y266775D02*
X1016747Y266775D01*
X1016330Y269140D02*
X1016172Y269140D01*
X889234Y249800D02*
X866671Y245821D01*
X862780Y267884D01*
X885343Y271863D01*
X889234Y249800D01*
X880082Y248186D02*
X866254Y248186D01*
X865837Y250551D02*
X889102Y250551D01*
X888684Y252916D02*
X865420Y252916D01*
X865003Y255281D02*
X888267Y255281D01*
X887850Y257646D02*
X864586Y257646D01*
X864168Y260011D02*
X887433Y260011D01*
X887016Y262376D02*
X863751Y262376D01*
X863334Y264741D02*
X886599Y264741D01*
X886182Y267106D02*
X862917Y267106D01*
X871779Y269471D02*
X885765Y269471D01*
X885348Y271836D02*
X885190Y271836D01*
D10*
X1096400Y220340D03*
X1163345Y206352D03*
D11*
X1185303Y276225D02*
X1207866Y280204D01*
X1185303Y276225D02*
X1181412Y298288D01*
X1203975Y302267D01*
X1207866Y280204D01*
X1198714Y278590D02*
X1184886Y278590D01*
X1184469Y280955D02*
X1207734Y280955D01*
X1207316Y283320D02*
X1184052Y283320D01*
X1183635Y285685D02*
X1206899Y285685D01*
X1206482Y288050D02*
X1183218Y288050D01*
X1182800Y290415D02*
X1206065Y290415D01*
X1205648Y292780D02*
X1182383Y292780D01*
X1181966Y295145D02*
X1205231Y295145D01*
X1204814Y297510D02*
X1181549Y297510D01*
X1190411Y299875D02*
X1204397Y299875D01*
X1203980Y302240D02*
X1203822Y302240D01*
X1076884Y282900D02*
X1054321Y278921D01*
X1050430Y300984D01*
X1072993Y304963D01*
X1076884Y282900D01*
X1067732Y281286D02*
X1053904Y281286D01*
X1053487Y283651D02*
X1076752Y283651D01*
X1076334Y286016D02*
X1053070Y286016D01*
X1052653Y288381D02*
X1075917Y288381D01*
X1075500Y290746D02*
X1052236Y290746D01*
X1051818Y293111D02*
X1075083Y293111D01*
X1074666Y295476D02*
X1051401Y295476D01*
X1050984Y297841D02*
X1074249Y297841D01*
X1073832Y300206D02*
X1050567Y300206D01*
X1059429Y302571D02*
X1073415Y302571D01*
X1072998Y304936D02*
X1072840Y304936D01*
D10*
X1212680Y47390D03*
X1279625Y33402D03*
D11*
X1301583Y103275D02*
X1324146Y107254D01*
X1301583Y103275D02*
X1297692Y125338D01*
X1320255Y129317D01*
X1324146Y107254D01*
X1314994Y105640D02*
X1301166Y105640D01*
X1300749Y108005D02*
X1324014Y108005D01*
X1323596Y110370D02*
X1300332Y110370D01*
X1299915Y112735D02*
X1323179Y112735D01*
X1322762Y115100D02*
X1299498Y115100D01*
X1299080Y117465D02*
X1322345Y117465D01*
X1321928Y119830D02*
X1298663Y119830D01*
X1298246Y122195D02*
X1321511Y122195D01*
X1321094Y124560D02*
X1297829Y124560D01*
X1306691Y126925D02*
X1320677Y126925D01*
X1320260Y129290D02*
X1320102Y129290D01*
X1193164Y109950D02*
X1170601Y105971D01*
X1166710Y128034D01*
X1189273Y132013D01*
X1193164Y109950D01*
X1184012Y108336D02*
X1170184Y108336D01*
X1169767Y110701D02*
X1193032Y110701D01*
X1192614Y113066D02*
X1169350Y113066D01*
X1168933Y115431D02*
X1192197Y115431D01*
X1191780Y117796D02*
X1168516Y117796D01*
X1168098Y120161D02*
X1191363Y120161D01*
X1190946Y122526D02*
X1167681Y122526D01*
X1167264Y124891D02*
X1190529Y124891D01*
X1190112Y127256D02*
X1166847Y127256D01*
X1175709Y129621D02*
X1189695Y129621D01*
X1189278Y131986D02*
X1189120Y131986D01*
D10*
X1400310Y80460D03*
X1467255Y66472D03*
D11*
X1489213Y136345D02*
X1511776Y140324D01*
X1489213Y136345D02*
X1485322Y158408D01*
X1507885Y162387D01*
X1511776Y140324D01*
X1502624Y138710D02*
X1488796Y138710D01*
X1488379Y141075D02*
X1511644Y141075D01*
X1511226Y143440D02*
X1487962Y143440D01*
X1487545Y145805D02*
X1510809Y145805D01*
X1510392Y148170D02*
X1487128Y148170D01*
X1486710Y150535D02*
X1509975Y150535D01*
X1509558Y152900D02*
X1486293Y152900D01*
X1485876Y155265D02*
X1509141Y155265D01*
X1508724Y157630D02*
X1485459Y157630D01*
X1494321Y159995D02*
X1508307Y159995D01*
X1507890Y162360D02*
X1507732Y162360D01*
X1380794Y143020D02*
X1358231Y139041D01*
X1354340Y161104D01*
X1376903Y165083D01*
X1380794Y143020D01*
X1371642Y141406D02*
X1357814Y141406D01*
X1357397Y143771D02*
X1380662Y143771D01*
X1380244Y146136D02*
X1356980Y146136D01*
X1356563Y148501D02*
X1379827Y148501D01*
X1379410Y150866D02*
X1356146Y150866D01*
X1355728Y153231D02*
X1378993Y153231D01*
X1378576Y155596D02*
X1355311Y155596D01*
X1354894Y157961D02*
X1378159Y157961D01*
X1377742Y160326D02*
X1354477Y160326D01*
X1363339Y162691D02*
X1377325Y162691D01*
X1376908Y165056D02*
X1376750Y165056D01*
D10*
X1710698Y77312D03*
X1768823Y41271D03*
D11*
X1813353Y99420D02*
X1835916Y95441D01*
X1813353Y99420D02*
X1817244Y121483D01*
X1839807Y117504D01*
X1835916Y95441D01*
X1836333Y97806D02*
X1822505Y97806D01*
X1813485Y100171D02*
X1836750Y100171D01*
X1837167Y102536D02*
X1813903Y102536D01*
X1814320Y104901D02*
X1837584Y104901D01*
X1838001Y107266D02*
X1814737Y107266D01*
X1815154Y109631D02*
X1838419Y109631D01*
X1838836Y111996D02*
X1815571Y111996D01*
X1815988Y114361D02*
X1839253Y114361D01*
X1839670Y116726D02*
X1816405Y116726D01*
X1816822Y119091D02*
X1830808Y119091D01*
X1817397Y121456D02*
X1817239Y121456D01*
X1713755Y142774D02*
X1691192Y146753D01*
X1695083Y168816D01*
X1717646Y164837D01*
X1713755Y142774D01*
X1714172Y145139D02*
X1700344Y145139D01*
X1691324Y147504D02*
X1714589Y147504D01*
X1715006Y149869D02*
X1691742Y149869D01*
X1692159Y152234D02*
X1715423Y152234D01*
X1715840Y154599D02*
X1692576Y154599D01*
X1692993Y156964D02*
X1716258Y156964D01*
X1716675Y159329D02*
X1693410Y159329D01*
X1693827Y161694D02*
X1717092Y161694D01*
X1717509Y164059D02*
X1694244Y164059D01*
X1694661Y166424D02*
X1708647Y166424D01*
X1695236Y168789D02*
X1695078Y168789D01*
D10*
X1898298Y44212D03*
X1956423Y8171D03*
D11*
X2000953Y66320D02*
X2023516Y62341D01*
X2000953Y66320D02*
X2004844Y88383D01*
X2027407Y84404D01*
X2023516Y62341D01*
X2023933Y64706D02*
X2010105Y64706D01*
X2001085Y67071D02*
X2024350Y67071D01*
X2024767Y69436D02*
X2001503Y69436D01*
X2001920Y71801D02*
X2025184Y71801D01*
X2025601Y74166D02*
X2002337Y74166D01*
X2002754Y76531D02*
X2026019Y76531D01*
X2026436Y78896D02*
X2003171Y78896D01*
X2003588Y81261D02*
X2026853Y81261D01*
X2027270Y83626D02*
X2004005Y83626D01*
X2004422Y85991D02*
X2018408Y85991D01*
X2004997Y88356D02*
X2004839Y88356D01*
X1901355Y109674D02*
X1878792Y113653D01*
X1882683Y135716D01*
X1905246Y131737D01*
X1901355Y109674D01*
X1901772Y112039D02*
X1887944Y112039D01*
X1878924Y114404D02*
X1902189Y114404D01*
X1902606Y116769D02*
X1879342Y116769D01*
X1879759Y119134D02*
X1903023Y119134D01*
X1903440Y121499D02*
X1880176Y121499D01*
X1880593Y123864D02*
X1903858Y123864D01*
X1904275Y126229D02*
X1881010Y126229D01*
X1881427Y128594D02*
X1904692Y128594D01*
X1905109Y130959D02*
X1881844Y130959D01*
X1882261Y133324D02*
X1896247Y133324D01*
X1882836Y135689D02*
X1882678Y135689D01*
D10*
X2085878Y11172D03*
X2144003Y-24869D03*
D11*
X2188533Y33280D02*
X2211096Y29301D01*
X2188533Y33280D02*
X2192424Y55343D01*
X2214987Y51364D01*
X2211096Y29301D01*
X2211513Y31666D02*
X2197685Y31666D01*
X2188665Y34031D02*
X2211930Y34031D01*
X2212347Y36396D02*
X2189083Y36396D01*
X2189500Y38761D02*
X2212764Y38761D01*
X2213181Y41126D02*
X2189917Y41126D01*
X2190334Y43491D02*
X2213599Y43491D01*
X2214016Y45856D02*
X2190751Y45856D01*
X2191168Y48221D02*
X2214433Y48221D01*
X2214850Y50586D02*
X2191585Y50586D01*
X2192002Y52951D02*
X2205988Y52951D01*
X2192577Y55316D02*
X2192419Y55316D01*
X2088935Y76634D02*
X2066372Y80613D01*
X2070263Y102676D01*
X2092826Y98697D01*
X2088935Y76634D01*
X2089352Y78999D02*
X2075524Y78999D01*
X2066504Y81364D02*
X2089769Y81364D01*
X2090186Y83729D02*
X2066922Y83729D01*
X2067339Y86094D02*
X2090603Y86094D01*
X2091020Y88459D02*
X2067756Y88459D01*
X2068173Y90824D02*
X2091438Y90824D01*
X2091855Y93189D02*
X2068590Y93189D01*
X2069007Y95554D02*
X2092272Y95554D01*
X2092689Y97919D02*
X2069424Y97919D01*
X2069841Y100284D02*
X2083827Y100284D01*
X2070416Y102649D02*
X2070258Y102649D01*
D10*
X2273558Y-21928D03*
X2331683Y-57969D03*
D11*
X2376213Y180D02*
X2398776Y-3799D01*
X2376213Y180D02*
X2380104Y22243D01*
X2402667Y18264D01*
X2398776Y-3799D01*
X2399193Y-1434D02*
X2385365Y-1434D01*
X2376345Y931D02*
X2399610Y931D01*
X2400027Y3296D02*
X2376763Y3296D01*
X2377180Y5661D02*
X2400444Y5661D01*
X2400861Y8026D02*
X2377597Y8026D01*
X2378014Y10391D02*
X2401279Y10391D01*
X2401696Y12756D02*
X2378431Y12756D01*
X2378848Y15121D02*
X2402113Y15121D01*
X2402530Y17486D02*
X2379265Y17486D01*
X2379682Y19851D02*
X2393668Y19851D01*
X2380257Y22216D02*
X2380099Y22216D01*
X2276615Y43534D02*
X2254052Y47513D01*
X2257943Y69576D01*
X2280506Y65597D01*
X2276615Y43534D01*
X2277032Y45899D02*
X2263204Y45899D01*
X2254184Y48264D02*
X2277449Y48264D01*
X2277866Y50629D02*
X2254602Y50629D01*
X2255019Y52994D02*
X2278283Y52994D01*
X2278700Y55359D02*
X2255436Y55359D01*
X2255853Y57724D02*
X2279118Y57724D01*
X2279535Y60089D02*
X2256270Y60089D01*
X2256687Y62454D02*
X2279952Y62454D01*
X2280369Y64819D02*
X2257104Y64819D01*
X2257521Y67184D02*
X2271507Y67184D01*
X2258096Y69549D02*
X2257938Y69549D01*
D10*
X2482420Y-44780D03*
X2545920Y-70180D03*
D11*
X2579676Y-5182D02*
X2602588Y-5182D01*
X2579676Y-5182D02*
X2579676Y17222D01*
X2602588Y17222D01*
X2602588Y-5182D01*
X2602588Y-2817D02*
X2579676Y-2817D01*
X2579676Y-452D02*
X2602588Y-452D01*
X2602588Y1913D02*
X2579676Y1913D01*
X2579676Y4278D02*
X2602588Y4278D01*
X2602588Y6643D02*
X2579676Y6643D01*
X2579676Y9008D02*
X2602588Y9008D01*
X2602588Y11373D02*
X2579676Y11373D01*
X2579676Y13738D02*
X2602588Y13738D01*
X2602588Y16103D02*
X2579676Y16103D01*
X2474064Y20218D02*
X2451152Y20218D01*
X2451152Y42622D01*
X2474064Y42622D01*
X2474064Y20218D01*
X2474064Y22583D02*
X2451152Y22583D01*
X2451152Y24948D02*
X2474064Y24948D01*
X2474064Y27313D02*
X2451152Y27313D01*
X2451152Y29678D02*
X2474064Y29678D01*
X2474064Y32043D02*
X2451152Y32043D01*
X2451152Y34408D02*
X2474064Y34408D01*
X2474064Y36773D02*
X2451152Y36773D01*
X2451152Y39138D02*
X2474064Y39138D01*
X2474064Y41503D02*
X2451152Y41503D01*
D10*
X2672940Y-25370D03*
X2736440Y-50770D03*
D11*
X2770196Y14228D02*
X2793108Y14228D01*
X2770196Y14228D02*
X2770196Y36632D01*
X2793108Y36632D01*
X2793108Y14228D01*
X2793108Y16593D02*
X2770196Y16593D01*
X2770196Y18958D02*
X2793108Y18958D01*
X2793108Y21323D02*
X2770196Y21323D01*
X2770196Y23688D02*
X2793108Y23688D01*
X2793108Y26053D02*
X2770196Y26053D01*
X2770196Y28418D02*
X2793108Y28418D01*
X2793108Y30783D02*
X2770196Y30783D01*
X2770196Y33148D02*
X2793108Y33148D01*
X2793108Y35513D02*
X2770196Y35513D01*
X2664584Y39628D02*
X2641672Y39628D01*
X2641672Y62032D01*
X2664584Y62032D01*
X2664584Y39628D01*
X2664584Y41993D02*
X2641672Y41993D01*
X2641672Y44358D02*
X2664584Y44358D01*
X2664584Y46723D02*
X2641672Y46723D01*
X2641672Y49088D02*
X2664584Y49088D01*
X2664584Y51453D02*
X2641672Y51453D01*
X2641672Y53818D02*
X2664584Y53818D01*
X2664584Y56183D02*
X2641672Y56183D01*
X2641672Y58548D02*
X2664584Y58548D01*
X2664584Y60913D02*
X2641672Y60913D01*
D10*
X2863420Y-25430D03*
X2926920Y-50830D03*
D11*
X2960676Y14168D02*
X2983588Y14168D01*
X2960676Y14168D02*
X2960676Y36572D01*
X2983588Y36572D01*
X2983588Y14168D01*
X2983588Y16533D02*
X2960676Y16533D01*
X2960676Y18898D02*
X2983588Y18898D01*
X2983588Y21263D02*
X2960676Y21263D01*
X2960676Y23628D02*
X2983588Y23628D01*
X2983588Y25993D02*
X2960676Y25993D01*
X2960676Y28358D02*
X2983588Y28358D01*
X2983588Y30723D02*
X2960676Y30723D01*
X2960676Y33088D02*
X2983588Y33088D01*
X2983588Y35453D02*
X2960676Y35453D01*
X2855064Y39568D02*
X2832152Y39568D01*
X2832152Y61972D01*
X2855064Y61972D01*
X2855064Y39568D01*
X2855064Y41933D02*
X2832152Y41933D01*
X2832152Y44298D02*
X2855064Y44298D01*
X2855064Y46663D02*
X2832152Y46663D01*
X2832152Y49028D02*
X2855064Y49028D01*
X2855064Y51393D02*
X2832152Y51393D01*
X2832152Y53758D02*
X2855064Y53758D01*
X2855064Y56123D02*
X2832152Y56123D01*
X2832152Y58488D02*
X2855064Y58488D01*
X2855064Y60853D02*
X2832152Y60853D01*
D10*
X-38070Y-25430D03*
X25430Y-50830D03*
D11*
X59186Y14168D02*
X82098Y14168D01*
X59186Y14168D02*
X59186Y36572D01*
X82098Y36572D01*
X82098Y14168D01*
X82098Y16533D02*
X59186Y16533D01*
X59186Y18898D02*
X82098Y18898D01*
X82098Y21263D02*
X59186Y21263D01*
X59186Y23628D02*
X82098Y23628D01*
X82098Y25993D02*
X59186Y25993D01*
X59186Y28358D02*
X82098Y28358D01*
X82098Y30723D02*
X59186Y30723D01*
X59186Y33088D02*
X82098Y33088D01*
X82098Y35453D02*
X59186Y35453D01*
X-46426Y39568D02*
X-69338Y39568D01*
X-69338Y61972D01*
X-46426Y61972D01*
X-46426Y39568D01*
X-46426Y41933D02*
X-69338Y41933D01*
X-69338Y44298D02*
X-46426Y44298D01*
X-46426Y46663D02*
X-69338Y46663D01*
X-69338Y49028D02*
X-46426Y49028D01*
X-46426Y51393D02*
X-69338Y51393D01*
X-69338Y53758D02*
X-46426Y53758D01*
X-46426Y56123D02*
X-69338Y56123D01*
X-69338Y58488D02*
X-46426Y58488D01*
X-46426Y60853D02*
X-69338Y60853D01*
D10*
X248670Y-25430D03*
X312170Y-50830D03*
D11*
X345926Y14168D02*
X368838Y14168D01*
X345926Y14168D02*
X345926Y36572D01*
X368838Y36572D01*
X368838Y14168D01*
X368838Y16533D02*
X345926Y16533D01*
X345926Y18898D02*
X368838Y18898D01*
X368838Y21263D02*
X345926Y21263D01*
X345926Y23628D02*
X368838Y23628D01*
X368838Y25993D02*
X345926Y25993D01*
X345926Y28358D02*
X368838Y28358D01*
X368838Y30723D02*
X345926Y30723D01*
X345926Y33088D02*
X368838Y33088D01*
X368838Y35453D02*
X345926Y35453D01*
X240314Y39568D02*
X217402Y39568D01*
X217402Y61972D01*
X240314Y61972D01*
X240314Y39568D01*
X240314Y41933D02*
X217402Y41933D01*
X217402Y44298D02*
X240314Y44298D01*
X240314Y46663D02*
X217402Y46663D01*
X217402Y49028D02*
X240314Y49028D01*
X240314Y51393D02*
X217402Y51393D01*
X217402Y53758D02*
X240314Y53758D01*
X240314Y56123D02*
X217402Y56123D01*
X217402Y58488D02*
X240314Y58488D01*
X240314Y60853D02*
X217402Y60853D01*
D10*
X439220Y-25400D03*
X502720Y-50800D03*
D11*
X536476Y14198D02*
X559388Y14198D01*
X536476Y14198D02*
X536476Y36602D01*
X559388Y36602D01*
X559388Y14198D01*
X559388Y16563D02*
X536476Y16563D01*
X536476Y18928D02*
X559388Y18928D01*
X559388Y21293D02*
X536476Y21293D01*
X536476Y23658D02*
X559388Y23658D01*
X559388Y26023D02*
X536476Y26023D01*
X536476Y28388D02*
X559388Y28388D01*
X559388Y30753D02*
X536476Y30753D01*
X536476Y33118D02*
X559388Y33118D01*
X559388Y35483D02*
X536476Y35483D01*
X430864Y39598D02*
X407952Y39598D01*
X407952Y62002D01*
X430864Y62002D01*
X430864Y39598D01*
X430864Y41963D02*
X407952Y41963D01*
X407952Y44328D02*
X430864Y44328D01*
X430864Y46693D02*
X407952Y46693D01*
X407952Y49058D02*
X430864Y49058D01*
X430864Y51423D02*
X407952Y51423D01*
X407952Y53788D02*
X430864Y53788D01*
X430864Y56153D02*
X407952Y56153D01*
X407952Y58518D02*
X430864Y58518D01*
X430864Y60883D02*
X407952Y60883D01*
D10*
X629640Y-44830D03*
X693140Y-70230D03*
D11*
X726896Y-5232D02*
X749808Y-5232D01*
X726896Y-5232D02*
X726896Y17172D01*
X749808Y17172D01*
X749808Y-5232D01*
X749808Y-2867D02*
X726896Y-2867D01*
X726896Y-502D02*
X749808Y-502D01*
X749808Y1863D02*
X726896Y1863D01*
X726896Y4228D02*
X749808Y4228D01*
X749808Y6593D02*
X726896Y6593D01*
X726896Y8958D02*
X749808Y8958D01*
X749808Y11323D02*
X726896Y11323D01*
X726896Y13688D02*
X749808Y13688D01*
X749808Y16053D02*
X726896Y16053D01*
X621284Y20168D02*
X598372Y20168D01*
X598372Y42572D01*
X621284Y42572D01*
X621284Y20168D01*
X621284Y22533D02*
X598372Y22533D01*
X598372Y24898D02*
X621284Y24898D01*
X621284Y27263D02*
X598372Y27263D01*
X598372Y29628D02*
X621284Y29628D01*
X621284Y31993D02*
X598372Y31993D01*
X598372Y34358D02*
X621284Y34358D01*
X621284Y36723D02*
X598372Y36723D01*
X598372Y39088D02*
X621284Y39088D01*
X621284Y41453D02*
X598372Y41453D01*
D10*
X837500Y-18780D03*
X904445Y-32768D03*
D11*
X926403Y37105D02*
X948966Y41084D01*
X926403Y37105D02*
X922512Y59168D01*
X945075Y63147D01*
X948966Y41084D01*
X939814Y39470D02*
X925986Y39470D01*
X925569Y41835D02*
X948834Y41835D01*
X948416Y44200D02*
X925152Y44200D01*
X924735Y46565D02*
X947999Y46565D01*
X947582Y48930D02*
X924318Y48930D01*
X923900Y51295D02*
X947165Y51295D01*
X946748Y53660D02*
X923483Y53660D01*
X923066Y56025D02*
X946331Y56025D01*
X945914Y58390D02*
X922649Y58390D01*
X931511Y60755D02*
X945497Y60755D01*
X945080Y63120D02*
X944922Y63120D01*
X817984Y43780D02*
X795421Y39801D01*
X791530Y61864D01*
X814093Y65843D01*
X817984Y43780D01*
X808832Y42166D02*
X795004Y42166D01*
X794587Y44531D02*
X817852Y44531D01*
X817434Y46896D02*
X794170Y46896D01*
X793753Y49261D02*
X817017Y49261D01*
X816600Y51626D02*
X793336Y51626D01*
X792918Y53991D02*
X816183Y53991D01*
X815766Y56356D02*
X792501Y56356D01*
X792084Y58721D02*
X815349Y58721D01*
X814932Y61086D02*
X791667Y61086D01*
X800529Y63451D02*
X814515Y63451D01*
X814098Y65816D02*
X813940Y65816D01*
D10*
X1025100Y14340D03*
X1092045Y352D03*
D11*
X1114003Y70225D02*
X1136566Y74204D01*
X1114003Y70225D02*
X1110112Y92288D01*
X1132675Y96267D01*
X1136566Y74204D01*
X1127414Y72590D02*
X1113586Y72590D01*
X1113169Y74955D02*
X1136434Y74955D01*
X1136016Y77320D02*
X1112752Y77320D01*
X1112335Y79685D02*
X1135599Y79685D01*
X1135182Y82050D02*
X1111918Y82050D01*
X1111500Y84415D02*
X1134765Y84415D01*
X1134348Y86780D02*
X1111083Y86780D01*
X1110666Y89145D02*
X1133931Y89145D01*
X1133514Y91510D02*
X1110249Y91510D01*
X1119111Y93875D02*
X1133097Y93875D01*
X1132680Y96240D02*
X1132522Y96240D01*
X1005584Y76900D02*
X983021Y72921D01*
X979130Y94984D01*
X1001693Y98963D01*
X1005584Y76900D01*
X996432Y75286D02*
X982604Y75286D01*
X982187Y77651D02*
X1005452Y77651D01*
X1005034Y80016D02*
X981770Y80016D01*
X981353Y82381D02*
X1004617Y82381D01*
X1004200Y84746D02*
X980936Y84746D01*
X980518Y87111D02*
X1003783Y87111D01*
X1003366Y89476D02*
X980101Y89476D01*
X979684Y91841D02*
X1002949Y91841D01*
X1002532Y94206D02*
X979267Y94206D01*
X988129Y96571D02*
X1002115Y96571D01*
X1001698Y98936D02*
X1001540Y98936D01*
D12*
X34770Y354530D03*
X34770Y318530D03*
X393240Y354850D03*
X393240Y318850D03*
X654740Y355130D03*
X654740Y319130D03*
D13*
G36*
X853676Y363438D02*
X851072Y378209D01*
X871752Y381856D01*
X874356Y367085D01*
X853676Y363438D01*
G37*
G36*
X859928Y327984D02*
X857324Y342755D01*
X878004Y346402D01*
X880608Y331631D01*
X859928Y327984D01*
G37*
G36*
X1113616Y602318D02*
X1111012Y617089D01*
X1131692Y620736D01*
X1134296Y605965D01*
X1113616Y602318D01*
G37*
G36*
X1119868Y566864D02*
X1117264Y581635D01*
X1137944Y585282D01*
X1140548Y570511D01*
X1119868Y566864D01*
G37*
G36*
X1301776Y635588D02*
X1299172Y650359D01*
X1319852Y654006D01*
X1322456Y639235D01*
X1301776Y635588D01*
G37*
G36*
X1308028Y600134D02*
X1305424Y614905D01*
X1326104Y618552D01*
X1328708Y603781D01*
X1308028Y600134D01*
G37*
G36*
X1415286Y470598D02*
X1412682Y485369D01*
X1433362Y489016D01*
X1435966Y474245D01*
X1415286Y470598D01*
G37*
G36*
X1421538Y435144D02*
X1418934Y449915D01*
X1439614Y453562D01*
X1442218Y438791D01*
X1421538Y435144D01*
G37*
G36*
X1817064Y436725D02*
X1819668Y451496D01*
X1840348Y447849D01*
X1837744Y433078D01*
X1817064Y436725D01*
G37*
G36*
X1810812Y401271D02*
X1813416Y416042D01*
X1834096Y412395D01*
X1831492Y397624D01*
X1810812Y401271D01*
G37*
G36*
X2004914Y403925D02*
X2007518Y418696D01*
X2028198Y415049D01*
X2025594Y400278D01*
X2004914Y403925D01*
G37*
G36*
X1998662Y368471D02*
X2001266Y383242D01*
X2021946Y379595D01*
X2019342Y364824D01*
X1998662Y368471D01*
G37*
G36*
X2192614Y370805D02*
X2195218Y385576D01*
X2215898Y381929D01*
X2213294Y367158D01*
X2192614Y370805D01*
G37*
G36*
X2186362Y335351D02*
X2188966Y350122D01*
X2209646Y346475D01*
X2207042Y331704D01*
X2186362Y335351D01*
G37*
G36*
X2380074Y338535D02*
X2382678Y353306D01*
X2403358Y349659D01*
X2400754Y334888D01*
X2380074Y338535D01*
G37*
G36*
X2373822Y303081D02*
X2376426Y317852D01*
X2397106Y314205D01*
X2394502Y299434D01*
X2373822Y303081D01*
G37*
D12*
X2602810Y355260D03*
X2602810Y319260D03*
X2793390Y354800D03*
X2793390Y318800D03*
X2901470Y398410D03*
X2901470Y362410D03*
D13*
X3088990Y279400D03*
X3052990Y279400D03*
D12*
X10540Y545380D03*
X10540Y509380D03*
X454460Y593060D03*
X454460Y557060D03*
X726240Y546320D03*
X726240Y510320D03*
D13*
G36*
X926626Y568658D02*
X924022Y583429D01*
X944702Y587076D01*
X947306Y572305D01*
X926626Y568658D01*
G37*
G36*
X932878Y533204D02*
X930274Y547975D01*
X950954Y551622D01*
X953558Y536851D01*
X932878Y533204D01*
G37*
G36*
X2318024Y735715D02*
X2320628Y750486D01*
X2341308Y746839D01*
X2338704Y732068D01*
X2318024Y735715D01*
G37*
G36*
X2311772Y700261D02*
X2314376Y715032D01*
X2335056Y711385D01*
X2332452Y696614D01*
X2311772Y700261D01*
G37*
D12*
X2564410Y735990D03*
X2564410Y699990D03*
D13*
G36*
X1488616Y668438D02*
X1486012Y683209D01*
X1506692Y686856D01*
X1509296Y672085D01*
X1488616Y668438D01*
G37*
G36*
X1494868Y632984D02*
X1492264Y647755D01*
X1512944Y651402D01*
X1515548Y636631D01*
X1494868Y632984D01*
G37*
G36*
X1746014Y642975D02*
X1748618Y657746D01*
X1769298Y654099D01*
X1766694Y639328D01*
X1746014Y642975D01*
G37*
G36*
X1739762Y607521D02*
X1742366Y622292D01*
X1763046Y618645D01*
X1760442Y603874D01*
X1739762Y607521D01*
G37*
G36*
X1933084Y609925D02*
X1935688Y624696D01*
X1956368Y621049D01*
X1953764Y606278D01*
X1933084Y609925D01*
G37*
G36*
X1926832Y574471D02*
X1929436Y589242D01*
X1950116Y585595D01*
X1947512Y570824D01*
X1926832Y574471D01*
G37*
G36*
X2121584Y576925D02*
X2124188Y591696D01*
X2144868Y588049D01*
X2142264Y573278D01*
X2121584Y576925D01*
G37*
G36*
X2115332Y541471D02*
X2117936Y556242D01*
X2138616Y552595D01*
X2136012Y537824D01*
X2115332Y541471D01*
G37*
G36*
X2309014Y543935D02*
X2311618Y558706D01*
X2332298Y555059D01*
X2329694Y540288D01*
X2309014Y543935D01*
G37*
G36*
X2302762Y508481D02*
X2305366Y523252D01*
X2326046Y519605D01*
X2323442Y504834D01*
X2302762Y508481D01*
G37*
D12*
X2531330Y545590D03*
X2531330Y509590D03*
X2722070Y545690D03*
X2722070Y509690D03*
X2984090Y545660D03*
X2984090Y509660D03*
X3079930Y546240D03*
X3079930Y510240D03*
X692760Y735880D03*
X692760Y699880D03*
D13*
G36*
X916786Y760758D02*
X914182Y775529D01*
X934862Y779176D01*
X937466Y764405D01*
X916786Y760758D01*
G37*
G36*
X923038Y725304D02*
X920434Y740075D01*
X941114Y743722D01*
X943718Y728951D01*
X923038Y725304D01*
G37*
G36*
X1316996Y874278D02*
X1314392Y889049D01*
X1335072Y892696D01*
X1337676Y877925D01*
X1316996Y874278D01*
G37*
G36*
X1323248Y838824D02*
X1320644Y853595D01*
X1341324Y857242D01*
X1343928Y842471D01*
X1323248Y838824D01*
G37*
G36*
X1986624Y834815D02*
X1989228Y849586D01*
X2009908Y845939D01*
X2007304Y831168D01*
X1986624Y834815D01*
G37*
G36*
X1980372Y799361D02*
X1982976Y814132D01*
X2003656Y810485D01*
X2001052Y795714D01*
X1980372Y799361D01*
G37*
G36*
X1041996Y396638D02*
X1039392Y411409D01*
X1060072Y415056D01*
X1062676Y400285D01*
X1041996Y396638D01*
G37*
G36*
X1048248Y361184D02*
X1045644Y375955D01*
X1066324Y379602D01*
X1068928Y364831D01*
X1048248Y361184D01*
G37*
G36*
X1229026Y432068D02*
X1226422Y446839D01*
X1247102Y450486D01*
X1249706Y435715D01*
X1229026Y432068D01*
G37*
G36*
X1235278Y396614D02*
X1232674Y411385D01*
X1253354Y415032D01*
X1255958Y400261D01*
X1235278Y396614D01*
G37*
G36*
X1394236Y264928D02*
X1391632Y279699D01*
X1412312Y283346D01*
X1414916Y268575D01*
X1394236Y264928D01*
G37*
G36*
X1400488Y229474D02*
X1397884Y244245D01*
X1418564Y247892D01*
X1421168Y233121D01*
X1400488Y229474D01*
G37*
G36*
X1751645Y250054D02*
X1736874Y252658D01*
X1740521Y273338D01*
X1755292Y270734D01*
X1751645Y250054D01*
G37*
G36*
X1787099Y243802D02*
X1772328Y246406D01*
X1775975Y267086D01*
X1790746Y264482D01*
X1787099Y243802D01*
G37*
G36*
X1943014Y245205D02*
X1945618Y259976D01*
X1966298Y256329D01*
X1963694Y241558D01*
X1943014Y245205D01*
G37*
G36*
X1936762Y209751D02*
X1939366Y224522D01*
X1960046Y220875D01*
X1957442Y206104D01*
X1936762Y209751D01*
G37*
G36*
X2121354Y190395D02*
X2123958Y205166D01*
X2144638Y201519D01*
X2142034Y186748D01*
X2121354Y190395D01*
G37*
G36*
X2115102Y154941D02*
X2117706Y169712D01*
X2138386Y166065D01*
X2135782Y151294D01*
X2115102Y154941D01*
G37*
G36*
X2308544Y156845D02*
X2311148Y171616D01*
X2331828Y167969D01*
X2329224Y153198D01*
X2308544Y156845D01*
G37*
G36*
X2302292Y121391D02*
X2304896Y136162D01*
X2325576Y132515D01*
X2322972Y117744D01*
X2302292Y121391D01*
G37*
D12*
X2531570Y154800D03*
X2531570Y118800D03*
X2722540Y164940D03*
X2722540Y128940D03*
X2912920Y164960D03*
X2912920Y128960D03*
X57810Y164200D03*
X57810Y128200D03*
X393320Y164480D03*
X393320Y128480D03*
X630890Y164280D03*
X630890Y128280D03*
D13*
G36*
X830256Y166078D02*
X827652Y180849D01*
X848332Y184496D01*
X850936Y169725D01*
X830256Y166078D01*
G37*
G36*
X836508Y130624D02*
X833904Y145395D01*
X854584Y149042D01*
X857188Y134271D01*
X836508Y130624D01*
G37*
G36*
X1018206Y198958D02*
X1015602Y213729D01*
X1036282Y217376D01*
X1038886Y202605D01*
X1018206Y198958D01*
G37*
G36*
X1024458Y163504D02*
X1021854Y178275D01*
X1042534Y181922D01*
X1045138Y167151D01*
X1024458Y163504D01*
G37*
G36*
X1206496Y231398D02*
X1203892Y246169D01*
X1224572Y249816D01*
X1227176Y235045D01*
X1206496Y231398D01*
G37*
G36*
X1212748Y195944D02*
X1210144Y210715D01*
X1230824Y214362D01*
X1233428Y199591D01*
X1212748Y195944D01*
G37*
G36*
X1321586Y59498D02*
X1318982Y74269D01*
X1339662Y77916D01*
X1342266Y63145D01*
X1321586Y59498D01*
G37*
G36*
X1327838Y24044D02*
X1325234Y38815D01*
X1345914Y42462D01*
X1348518Y27691D01*
X1327838Y24044D01*
G37*
G36*
X1372464Y46702D02*
X1375068Y31931D01*
X1354388Y28284D01*
X1351784Y43055D01*
X1372464Y46702D01*
G37*
G36*
X1366212Y82156D02*
X1368816Y67385D01*
X1348136Y63738D01*
X1345532Y78509D01*
X1366212Y82156D01*
G37*
G36*
X1817484Y49735D02*
X1820088Y64506D01*
X1840768Y60859D01*
X1838164Y46088D01*
X1817484Y49735D01*
G37*
G36*
X1811232Y14281D02*
X1813836Y29052D01*
X1834516Y25405D01*
X1831912Y10634D01*
X1811232Y14281D01*
G37*
G36*
X2005344Y16715D02*
X2007948Y31486D01*
X2028628Y27839D01*
X2026024Y13068D01*
X2005344Y16715D01*
G37*
G36*
X1999092Y-18739D02*
X2001696Y-3968D01*
X2022376Y-7615D01*
X2019772Y-22386D01*
X1999092Y-18739D01*
G37*
G36*
X2192924Y-16765D02*
X2195528Y-1994D01*
X2216208Y-5641D01*
X2213604Y-20412D01*
X2192924Y-16765D01*
G37*
G36*
X2186672Y-52219D02*
X2189276Y-37448D01*
X2209956Y-41095D01*
X2207352Y-55866D01*
X2186672Y-52219D01*
G37*
G36*
X2380374Y-48695D02*
X2382978Y-33924D01*
X2403658Y-37571D01*
X2401054Y-52342D01*
X2380374Y-48695D01*
G37*
G36*
X2374122Y-84149D02*
X2376726Y-69378D01*
X2397406Y-73025D01*
X2394802Y-87796D01*
X2374122Y-84149D01*
G37*
D12*
X2603270Y-44870D03*
X2603270Y-80870D03*
X2793230Y-25770D03*
X2793230Y-61770D03*
X2982850Y-38870D03*
X2982850Y-74870D03*
X83800Y-25150D03*
X83800Y-61150D03*
X369220Y-25770D03*
X369220Y-61770D03*
X560400Y-25620D03*
X560400Y-61620D03*
X749780Y-45070D03*
X749780Y-81070D03*
D13*
G36*
X946326Y-7402D02*
X943722Y7369D01*
X964402Y11016D01*
X967006Y-3755D01*
X946326Y-7402D01*
G37*
G36*
X952578Y-42856D02*
X949974Y-28085D01*
X970654Y-24438D01*
X973258Y-39209D01*
X952578Y-42856D01*
G37*
G36*
X1133856Y25338D02*
X1131252Y40109D01*
X1151932Y43756D01*
X1154536Y28985D01*
X1133856Y25338D01*
G37*
G36*
X1140108Y-10116D02*
X1137504Y4655D01*
X1158184Y8302D01*
X1160788Y-6469D01*
X1140108Y-10116D01*
G37*
D10*
X3053944Y-25476D03*
X3117444Y-50876D03*
D11*
X3151200Y14122D02*
X3174112Y14122D01*
X3151200Y14122D02*
X3151200Y36526D01*
X3174112Y36526D01*
X3174112Y14122D01*
X3174112Y16487D02*
X3151200Y16487D01*
X3151200Y18852D02*
X3174112Y18852D01*
X3174112Y21217D02*
X3151200Y21217D01*
X3151200Y23582D02*
X3174112Y23582D01*
X3174112Y25947D02*
X3151200Y25947D01*
X3151200Y28312D02*
X3174112Y28312D01*
X3174112Y30677D02*
X3151200Y30677D01*
X3151200Y33042D02*
X3174112Y33042D01*
X3174112Y35407D02*
X3151200Y35407D01*
X3045588Y39522D02*
X3022676Y39522D01*
X3022676Y61926D01*
X3045588Y61926D01*
X3045588Y39522D01*
X3045588Y41887D02*
X3022676Y41887D01*
X3022676Y44252D02*
X3045588Y44252D01*
X3045588Y46617D02*
X3022676Y46617D01*
X3022676Y48982D02*
X3045588Y48982D01*
X3045588Y51347D02*
X3022676Y51347D01*
X3022676Y53712D02*
X3045588Y53712D01*
X3045588Y56077D02*
X3022676Y56077D01*
X3022676Y58442D02*
X3045588Y58442D01*
X3045588Y60807D02*
X3022676Y60807D01*
D13*
X3153860Y82350D03*
X3117860Y82350D03*
D14*
X1525782Y160606D03*
X1533656Y160606D03*
X1541784Y160606D03*
X1549658Y160606D03*
X1557786Y160606D03*
X1565660Y160606D03*
X1573534Y160606D03*
X1581662Y160606D03*
X1589536Y160606D03*
X1597664Y160606D03*
X1605538Y160606D03*
D15*
X1623064Y178132D03*
X1623064Y186006D03*
X1623064Y194134D03*
X1623064Y202008D03*
X1623064Y210136D03*
X1623064Y218010D03*
X1623064Y225884D03*
X1623064Y234012D03*
X1623064Y241886D03*
X1623064Y250014D03*
X1623064Y257888D03*
D14*
X1605538Y275414D03*
X1597664Y275414D03*
X1589536Y275414D03*
X1581662Y275414D03*
X1573534Y275414D03*
X1565660Y275414D03*
X1557786Y275414D03*
X1549658Y275414D03*
X1541784Y275414D03*
X1533656Y275414D03*
X1525782Y275414D03*
D15*
X1508256Y257888D03*
X1508256Y250014D03*
X1508256Y241886D03*
X1508256Y234012D03*
X1508256Y225884D03*
X1508256Y218010D03*
X1508256Y210136D03*
X1508256Y202008D03*
X1508256Y194134D03*
X1508256Y186006D03*
X1508256Y178132D03*
D16*
X1546200Y-3810D03*
X1546200Y-34810D03*
D17*
X1518700Y41990D03*
X1523700Y41990D03*
X1528700Y41990D03*
X1533700Y41990D03*
X1538700Y41990D03*
X1543700Y41990D03*
X1548700Y41990D03*
X1553700Y41990D03*
X1558700Y41990D03*
X1563700Y41990D03*
X1568700Y41990D03*
X1573700Y41990D03*
D18*
X1574200Y29490D03*
X1570200Y22490D03*
X1562200Y22490D03*
X1566200Y29490D03*
X1558200Y29490D03*
X1554200Y22490D03*
X1550200Y29490D03*
X1542200Y29490D03*
X1538200Y22490D03*
X1534200Y29490D03*
X1530200Y22490D03*
X1522200Y22490D03*
X1526200Y29490D03*
X1518200Y29490D03*
D19*
X1503500Y22990D02*
X1503500Y12990D01*
X1588900Y12990D02*
X1588900Y22990D01*
X1588900Y-24310D02*
X1588900Y-34310D01*
X1503500Y-34310D02*
X1503500Y-24310D01*
D20*
X1481600Y-10650D03*
X1464600Y-10650D03*
D21*
X1627010Y160270D03*
X1644010Y160270D03*
X1504500Y274120D03*
X1487500Y274120D03*
D20*
X1584080Y299320D03*
X1584080Y316320D03*
D21*
X1456420Y199800D03*
X1439420Y199800D03*
D20*
X1513130Y126940D03*
X1513130Y109940D03*
X1593540Y132630D03*
X1593540Y115630D03*
D22*
X1663066Y24081D03*
X1619066Y24081D03*
D20*
X1632170Y-11660D03*
X1615170Y-11660D03*
D21*
X1614430Y117390D03*
X1614430Y100390D03*
D20*
X1689250Y210400D03*
X1706250Y210400D03*
X1573200Y132580D03*
X1573200Y115580D03*
D21*
X1486860Y199770D03*
X1469860Y199770D03*
X1664910Y240030D03*
X1647910Y240030D03*
X1648090Y181080D03*
X1665090Y181080D03*
D23*
X1664740Y221490D03*
X1664740Y199490D03*
X1648740Y221490D03*
X1648740Y199490D03*
D21*
X1533170Y109910D03*
X1533170Y126910D03*
X1553260Y109940D03*
X1553260Y126940D03*
D24*
G36*
X1943790Y184846D02*
X1926064Y187972D01*
X1927974Y198804D01*
X1945700Y195678D01*
X1943790Y184846D01*
G37*
G36*
X2002878Y174427D02*
X1985152Y177553D01*
X1987062Y188385D01*
X2004788Y185259D01*
X2002878Y174427D01*
G37*
G36*
X1937278Y147915D02*
X1919552Y151041D01*
X1921462Y161873D01*
X1939188Y158747D01*
X1937278Y147915D01*
G37*
G36*
X1996366Y137496D02*
X1978640Y140622D01*
X1980550Y151454D01*
X1998276Y148328D01*
X1996366Y137496D01*
G37*
D25*
X1773617Y205265D03*
X1748603Y209675D03*
X1744192Y184661D03*
X1769206Y180251D03*
X1778028Y230279D03*
X1753014Y234689D03*
D20*
X2688160Y795940D03*
X2688160Y812940D03*
X2788060Y796320D03*
X2788060Y813320D03*
X2892500Y796380D03*
X2892500Y813380D03*
X404620Y727780D03*
X404620Y710780D03*
X304470Y727470D03*
X304470Y710470D03*
X204240Y726510D03*
X204240Y709510D03*
D21*
X2613558Y760282D03*
X2613558Y777282D03*
D26*
X668049Y711170D02*
X636300Y711170D01*
X668049Y711170D02*
X692760Y735880D01*
X692761Y776121D01*
X681512Y787370D01*
X905079Y818506D02*
X925827Y797758D01*
X925824Y769967D01*
X891469Y735612D02*
X873785Y735612D01*
X891469Y735612D02*
X925824Y769967D01*
X1280239Y884646D02*
X1324867Y884646D01*
X1326034Y883487D01*
X1326031Y878838D02*
X1248945Y801752D01*
X1326031Y878838D02*
X1326034Y883487D01*
X1951870Y860122D02*
X1978521Y860122D01*
X1998266Y840377D01*
X1931867Y792931D02*
X1894113Y792931D01*
X1931867Y792931D02*
X1957629Y818693D01*
X1957629Y854364D01*
X1951870Y860122D01*
X2327060Y793952D02*
X2329665Y791348D01*
X2329666Y741277D01*
X2315153Y726761D01*
X2269303Y726761D01*
X2552752Y787400D02*
X2564408Y775744D01*
X2564410Y735990D01*
X2539622Y711200D01*
X2507540Y711200D01*
X2982850Y-38870D02*
X2970882Y-50830D01*
X2926920Y-50830D01*
X2975231Y28469D02*
X3010895Y28469D01*
X2975231Y28469D02*
X2972132Y25370D01*
X3010895Y28469D02*
X3022448Y16916D01*
X3022448Y-21285D01*
X3004464Y-39268D01*
X2983248Y-39268D01*
X2982850Y-38870D01*
X2768232Y-50770D02*
X2736440Y-50770D01*
X2768232Y-50770D02*
X2793230Y-25770D01*
X2793235Y13847D02*
X2781652Y25430D01*
X2793235Y13847D02*
X2793230Y-25770D01*
X2577958Y-70180D02*
X2545920Y-70180D01*
X2577958Y-70180D02*
X2603270Y-44870D01*
X2603271Y-6119D02*
X2591132Y6020D01*
X2603271Y-6119D02*
X2603270Y-44870D01*
X2377180Y-57969D02*
X2331683Y-57969D01*
X2392016Y-43133D02*
X2392020Y6642D01*
X2389440Y9222D01*
X2392020Y-43128D02*
X2377180Y-57969D01*
X2392016Y-43133D02*
X2392020Y-43128D01*
X2190905Y-24869D02*
X2144003Y-24869D01*
X2204570Y39512D02*
X2201760Y42322D01*
X2204570Y39512D02*
X2204566Y-11203D01*
X2190905Y-24869D01*
X2002885Y8171D02*
X1956423Y8171D01*
X2002885Y8171D02*
X2016986Y22277D01*
X2016990Y72552D02*
X2014180Y75362D01*
X2016990Y72552D02*
X2016986Y22277D01*
X1815102Y41271D02*
X1768823Y41271D01*
X1815102Y41271D02*
X1829126Y55297D01*
X1829129Y105914D02*
X1826580Y108462D01*
X1829129Y105914D02*
X1829126Y55297D01*
X1503507Y112635D02*
X1503507Y144408D01*
X1467255Y76384D02*
X1467255Y66472D01*
X1467255Y76384D02*
X1503507Y112635D01*
X1503507Y144408D02*
X1498549Y149366D01*
X1364694Y38760D02*
X1363426Y37493D01*
X1364694Y38760D02*
X1438273Y38760D01*
X1465985Y66472D01*
X1467255Y66472D01*
X1310919Y112181D02*
X1310919Y116296D01*
X1310919Y112181D02*
X1327119Y95980D01*
X1327119Y72213D01*
X1330624Y68707D01*
X1295319Y33402D01*
X1279625Y33402D01*
X1142894Y34547D02*
X1108702Y352D01*
X1092045Y352D01*
X1142894Y34547D02*
X1142895Y63690D01*
X1123339Y83246D01*
X955364Y1807D02*
X920793Y-32768D01*
X904445Y-32768D01*
X955364Y1807D02*
X955365Y30500D01*
X935739Y50126D01*
X749780Y-45070D02*
X724619Y-70230D01*
X693140Y-70230D01*
X749780Y-45070D02*
X749783Y-5461D01*
X738352Y5970D01*
X560400Y-25620D02*
X535221Y-50800D01*
X502720Y-50800D01*
X560400Y-25620D02*
X560405Y12927D01*
X547932Y25400D01*
X369220Y-25770D02*
X344153Y-50830D01*
X312170Y-50830D01*
X369220Y-25770D02*
X369216Y13536D01*
X357382Y25370D01*
X83800Y-25150D02*
X58122Y-50830D01*
X25430Y-50830D01*
X83800Y-25150D02*
X83799Y12213D01*
X70642Y25370D01*
X33337Y139730D02*
X1630Y139730D01*
X33337Y139730D02*
X57810Y164200D01*
X57810Y204962D01*
X46842Y215930D01*
X335990Y139700D02*
X368537Y139700D01*
X393320Y164480D01*
X393320Y203782D01*
X381202Y215900D01*
X619302Y215870D02*
X630886Y204286D01*
X630890Y164280D01*
X606276Y139670D02*
X574090Y139670D01*
X606276Y139670D02*
X630890Y164280D01*
X788115Y140212D02*
X804220Y140212D01*
X839294Y175287D01*
X839295Y203220D01*
X819409Y223106D01*
X975695Y173252D02*
X992329Y173252D01*
X1027244Y208167D01*
X1027248Y235886D01*
X1006989Y256146D01*
X1163345Y206352D02*
X1181281Y206352D01*
X1215534Y240607D01*
X1215537Y268348D01*
X1194639Y289246D01*
X1351025Y239442D02*
X1368578Y239442D01*
X1403274Y274137D01*
X1403277Y301378D01*
X1382319Y322336D01*
X1697013Y247341D02*
X1711142Y261471D01*
X1745850Y261471D02*
X1746083Y261696D01*
X1745850Y261471D02*
X1711142Y261471D01*
X1746083Y261696D02*
X1746079Y267846D01*
X1757615Y279382D01*
X1757615Y311688D01*
X1754770Y314532D01*
X1942420Y281462D02*
X1942420Y269785D01*
X1954656Y257550D02*
X1954656Y250767D01*
X1954656Y257550D02*
X1942420Y269785D01*
X1885095Y214703D02*
X1884663Y214271D01*
X1885095Y214703D02*
X1913790Y214703D01*
X1950947Y251860D01*
X1954656Y251657D02*
X1954859Y251860D01*
X1954656Y251657D02*
X1954656Y250767D01*
X1954859Y251860D02*
X1950947Y251860D01*
X2072293Y181251D02*
X2118285Y181251D01*
X2132996Y195957D01*
X2132991Y245501D01*
X2130050Y248442D01*
X2317610Y215372D02*
X2320188Y212795D01*
X2320186Y162407D01*
X2305965Y148181D02*
X2259853Y148181D01*
X2305965Y148181D02*
X2320186Y162407D01*
X2474470Y129060D02*
X2505829Y129060D01*
X2531570Y154800D01*
X2531572Y193370D01*
X2519682Y205260D01*
X2710202Y215850D02*
X2722545Y203507D01*
X2722540Y164940D01*
X2697251Y139650D02*
X2664990Y139650D01*
X2697251Y139650D02*
X2722540Y164940D01*
X2855470Y139670D02*
X2887631Y139670D01*
X2912920Y164960D01*
X2912925Y203627D02*
X2900682Y215870D01*
X2912925Y203627D02*
X2912920Y164960D01*
X3153860Y82350D02*
X3162656Y73547D01*
X3162656Y25324D01*
X3169844Y18136D01*
X3169844Y-26086D01*
X3145053Y-50876D01*
X3117444Y-50876D01*
X3138802Y229590D02*
X3088990Y279400D01*
X3138802Y229590D02*
X3138802Y215870D01*
X3145612Y209060D01*
X3145612Y171069D01*
X3114213Y139670D01*
X3093590Y139670D01*
X3097505Y400017D02*
X3091152Y406370D01*
X3097505Y400017D02*
X3097505Y353212D01*
X3074462Y330170D01*
X3045940Y330170D01*
X2962424Y330170D02*
X2901472Y391122D01*
X2901470Y398410D01*
X2962424Y330170D02*
X3045940Y330170D01*
X2793388Y394694D02*
X2781652Y406430D01*
X2793388Y394694D02*
X2793390Y354800D01*
X2768817Y330230D02*
X2736440Y330230D01*
X2768817Y330230D02*
X2793390Y354800D01*
X2577747Y330200D02*
X2545920Y330200D01*
X2577747Y330200D02*
X2602810Y355260D01*
X2602809Y394723D01*
X2591132Y406400D01*
X2376598Y328971D02*
X2331203Y328971D01*
X2376598Y328971D02*
X2391716Y344097D01*
X2391720Y393402D01*
X2388960Y396162D01*
X2204260Y426302D02*
X2201330Y429232D01*
X2204260Y426302D02*
X2204256Y376367D01*
X2189930Y362041D01*
X2143573Y362041D01*
X2016555Y459528D02*
X2013720Y462362D01*
X2016555Y459528D02*
X2016556Y409487D01*
X2002235Y395171D01*
X1955963Y395171D01*
X1828702Y492771D02*
X1826070Y495402D01*
X1828702Y492771D02*
X1828706Y442287D01*
X1814622Y428211D01*
X1768313Y428211D01*
X1417316Y479803D02*
X1374495Y436982D01*
X1417316Y479803D02*
X1424324Y479807D01*
X1424328Y501337D01*
X1405789Y519876D01*
X1200726Y403932D02*
X1186915Y403932D01*
X1200726Y403932D02*
X1238064Y441277D01*
X1238066Y466968D01*
X1218209Y486826D01*
X1016079Y370892D02*
X999285Y370892D01*
X1016079Y370892D02*
X1051034Y405847D01*
X1051030Y433335D01*
X1030579Y453786D01*
X827862Y337792D02*
X811655Y337792D01*
X827862Y337792D02*
X862714Y372647D01*
X862712Y400922D01*
X842949Y420686D01*
X629776Y330170D02*
X597920Y330170D01*
X629776Y330170D02*
X654740Y355130D01*
X654738Y394764D01*
X643132Y406370D01*
X368588Y330200D02*
X335940Y330200D01*
X368588Y330200D02*
X393240Y354850D01*
X393241Y394311D01*
X381152Y406400D01*
X34768Y394574D02*
X23022Y406320D01*
X34768Y394574D02*
X34770Y354530D01*
X10363Y330120D02*
X-22190Y330120D01*
X10363Y330120D02*
X34770Y354530D01*
X-14167Y520670D02*
X-46020Y520670D01*
X-14167Y520670D02*
X10540Y545380D01*
X10543Y585519D01*
X-808Y596870D01*
X405032Y596870D02*
X450644Y596870D01*
X454460Y593060D01*
X412115Y589787D02*
X405032Y596870D01*
X412115Y589787D02*
X412115Y556184D01*
X376601Y520670D01*
X359820Y520670D01*
X714552Y596850D02*
X726242Y585160D01*
X726240Y546320D01*
X700570Y520650D01*
X669340Y520650D01*
X914679Y626706D02*
X935662Y605722D01*
X935664Y577867D01*
X901606Y543812D01*
X883385Y543812D01*
X1088045Y576912D02*
X1122654Y611527D01*
X1088045Y576912D02*
X1070995Y576912D01*
X1122654Y611527D02*
X1122658Y639436D01*
X1102289Y659806D01*
X1276048Y610032D02*
X1310814Y644797D01*
X1276048Y610032D02*
X1258595Y610032D01*
X1310814Y644797D02*
X1310817Y671998D01*
X1289889Y692926D01*
X1477469Y725976D02*
X1497656Y705789D01*
X1497654Y677647D01*
X1463094Y643082D01*
X1446175Y643082D01*
X1754640Y701502D02*
X1757653Y698489D01*
X1757656Y648537D01*
X1743424Y634311D01*
X1696883Y634311D01*
X1942300Y668402D02*
X1944729Y665973D01*
X1944726Y615487D01*
X1930449Y601211D02*
X1884543Y601211D01*
X1930449Y601211D02*
X1944726Y615487D01*
X2129830Y635282D02*
X2133221Y631891D01*
X2133226Y582487D01*
X2118821Y568091D01*
X2072073Y568091D01*
X2317460Y602232D02*
X2320651Y599041D01*
X2320656Y549497D01*
X2306191Y535041D01*
X2259703Y535041D01*
X2519682Y596900D02*
X2531335Y585247D01*
X2531330Y545590D01*
X2506447Y520700D01*
X2474470Y520700D01*
X2710202Y596850D02*
X2722069Y584983D01*
X2722070Y545690D01*
X2697032Y520650D01*
X2664990Y520650D01*
X2972132Y596900D02*
X2984090Y584942D01*
X2984090Y545660D01*
X2959133Y520700D01*
X2926920Y520700D01*
X3079930Y546240D02*
X3105503Y520670D01*
X3188840Y520670D01*
X3242234Y588688D02*
X3234052Y596870D01*
X3242234Y588688D02*
X3242234Y541884D01*
X3221020Y520670D01*
X3188840Y520670D01*
X1508254Y270366D02*
X1508256Y257888D01*
X1508254Y270366D02*
X1504500Y274120D01*
X1597664Y275414D02*
X1597662Y286727D01*
X1585067Y299320D01*
X1584080Y299320D01*
X1508178Y178207D02*
X1508256Y178132D01*
X1508178Y178207D02*
X1466263Y178207D01*
X1456422Y188048D01*
X1456420Y199800D01*
D27*
X1687271Y2718D03*
D26*
X1684429Y2718D01*
X1663066Y24081D01*
X1632915Y54232D02*
X1632915Y56744D01*
D27*
X1632915Y56744D03*
X1614449Y151499D03*
D26*
X1632915Y54232D02*
X1663066Y24081D01*
X1516171Y257887D02*
X1508256Y257888D01*
X1597662Y264594D02*
X1597664Y275414D01*
X1597662Y264594D02*
X1556103Y223035D01*
X2689708Y794394D02*
X2704109Y794394D01*
X2689708Y794394D02*
X2688160Y795940D01*
X2889453Y793327D02*
X2892500Y796380D01*
D27*
X2804998Y793346D03*
D26*
X2704109Y794337D02*
X2704109Y794394D01*
D27*
X2704109Y794337D03*
X2905379Y793575D03*
X192024Y730098D03*
D26*
X200651Y730098D01*
X204240Y726510D01*
X287798Y726507D01*
X292786Y731495D01*
D27*
X292786Y731495D03*
D26*
X304470Y727470D02*
X388763Y727472D01*
X393090Y731799D01*
D27*
X393090Y731799D03*
D26*
X300448Y731495D02*
X292786Y731495D01*
X300448Y731495D02*
X304470Y727470D01*
X393090Y731799D02*
X400600Y731799D01*
X404620Y727780D01*
X2804865Y793480D02*
X2804998Y793346D01*
X2804865Y793480D02*
X2790901Y793480D01*
X2788060Y796320D01*
X2804998Y793346D02*
X2807424Y793346D01*
X2807443Y793327D01*
X2889453Y793327D01*
X2788060Y796320D02*
X2786126Y794394D01*
X2704109Y794394D01*
X2895302Y793575D02*
X2905379Y793575D01*
X2895302Y793575D02*
X2892500Y796380D01*
X1623220Y160270D02*
X1614449Y151499D01*
X1623220Y160270D02*
X1627010Y160270D01*
X1581762Y193982D02*
X1565911Y178131D01*
X1622835Y193906D02*
X1623064Y194134D01*
X1622835Y193906D02*
X1581838Y193906D01*
X1565911Y178131D02*
X1508256Y178132D01*
X1581762Y193982D02*
X1581838Y193906D01*
X1581762Y193982D02*
X1568122Y207622D01*
X1567513Y207622D01*
X1556103Y219032D01*
X1556103Y223035D01*
X1623064Y194134D02*
X1623163Y194031D01*
X1622378Y160270D02*
X1627010Y160270D01*
X1622378Y160270D02*
X1609268Y173380D01*
X1614432Y194031D02*
X1623163Y194031D01*
X1609268Y188867D02*
X1609268Y173380D01*
X1609268Y188867D02*
X1614432Y194031D01*
X1623064Y194134D02*
X1632433Y194133D01*
X1636395Y198095D01*
D27*
X1636395Y198095D03*
X1677035Y210210D03*
D26*
X1689056Y210210D01*
X1689250Y210400D01*
X1556103Y223035D02*
X1551023Y223035D01*
X1516171Y257887D01*
X1558700Y29990D02*
X1558200Y29490D01*
X1558700Y29990D02*
X1558700Y41990D01*
X1534200Y29490D02*
X1533700Y29990D01*
X1533700Y41990D01*
X1558669Y42021D02*
X1558669Y49811D01*
X1558669Y42021D02*
X1558700Y41990D01*
X1558669Y49811D02*
X1560572Y51714D01*
X1591890Y51054D02*
X1618863Y24081D01*
X1619066Y24081D01*
X1591229Y51714D02*
X1560572Y51714D01*
X1591229Y51714D02*
X1591890Y51054D01*
D27*
X1591890Y51054D03*
D26*
X1532814Y159765D02*
X1533656Y160606D01*
X1593540Y132630D02*
X1599189Y132626D01*
X1614430Y117390D01*
D27*
X1521612Y140818D03*
D26*
X1628309Y110030D02*
X1628309Y85818D01*
X1620951Y117388D02*
X1614430Y117390D01*
X1620951Y117388D02*
X1628309Y110030D01*
X1628309Y85818D02*
X1593545Y51054D01*
X1591890Y51054D01*
X1568653Y172593D02*
X1537920Y172593D01*
X1533654Y168326D01*
X1533656Y160606D01*
X1513130Y132335D02*
X1513130Y126940D01*
X1513130Y132335D02*
X1521612Y140818D01*
X1521612Y140945D01*
X1532814Y152146D01*
X1532814Y159765D01*
X1621971Y124932D02*
X1650487Y124932D01*
X1621971Y124932D02*
X1614430Y117390D01*
X1573532Y167714D02*
X1568653Y172593D01*
X1573532Y167714D02*
X1573534Y160606D01*
X1573532Y153236D01*
X1582268Y144501D02*
X1586205Y144501D01*
X1593543Y137162D01*
X1593540Y132630D01*
X1582268Y144501D02*
X1573532Y153236D01*
X1671245Y155925D02*
X1671245Y145689D01*
X1650487Y124932D01*
X1699978Y184658D02*
X1744192Y184661D01*
X1699978Y184658D02*
X1671245Y155925D01*
X1534264Y54940D02*
X1506220Y54940D01*
X1534264Y54940D02*
X1538703Y50500D01*
X1506220Y54940D02*
X1482613Y31333D01*
X1481600Y-10650D01*
X1538703Y41994D02*
X1538703Y50500D01*
X1538703Y41994D02*
X1538700Y41990D01*
D27*
X1545285Y59080D03*
D26*
X1543700Y57495D02*
X1543700Y41990D01*
X1543700Y57495D02*
X1545285Y59080D01*
D27*
X1553032Y77445D03*
D26*
X1552803Y109486D02*
X1553260Y109940D01*
X1552803Y109486D02*
X1552803Y77673D01*
X1553032Y77445D01*
D27*
X1545692Y70030D03*
D26*
X1552687Y55681D02*
X1548700Y51693D01*
X1548700Y41990D01*
X1552687Y55681D02*
X1552687Y63035D01*
X1545692Y70030D01*
X1533173Y82549D01*
X1533170Y109910D01*
X1580418Y-11663D02*
X1615170Y-11660D01*
X1580418Y-11663D02*
X1554200Y14555D01*
X1554200Y22490D01*
X1546200Y-34810D02*
X1533931Y-34810D01*
X1502842Y-3720D01*
X1502842Y17332D02*
X1503500Y17990D01*
X1502842Y17332D02*
X1502842Y-3720D01*
X1573700Y34065D02*
X1573700Y41990D01*
X1573700Y34065D02*
X1573869Y29820D01*
X1574200Y29490D01*
X1518700Y32287D02*
X1518700Y41990D01*
X1518700Y32287D02*
X1518604Y29894D01*
X1518200Y29490D01*
X1632170Y-11660D02*
X1633355Y-22525D01*
X1630583Y-25297D01*
X1592913Y-25297D01*
X1588900Y-29310D01*
X1557606Y160427D02*
X1557786Y160606D01*
D27*
X1593825Y96545D03*
X1502283Y95123D03*
X1651787Y170713D03*
D26*
X1487504Y288108D02*
X1487424Y288188D01*
X1487504Y288108D02*
X1487500Y274120D01*
D27*
X1487424Y288188D03*
X1583817Y332613D03*
D26*
X1583817Y316320D02*
X1584080Y316320D01*
X1583817Y316320D02*
X1583817Y332613D01*
X1651787Y170713D02*
X1644007Y162932D01*
X1644010Y160270D01*
X1563400Y-3810D02*
X1546200Y-3810D01*
X1563400Y-3810D02*
X1588900Y-29310D01*
X1612620Y202007D02*
X1623064Y202008D01*
X1612620Y202007D02*
X1608912Y205715D01*
D27*
X1608912Y205715D03*
D26*
X1513130Y109940D02*
X1513130Y105970D01*
X1502283Y95123D01*
D27*
X1557884Y144983D03*
X1492021Y250190D03*
X1525880Y290601D03*
D26*
X1929370Y154894D02*
X1988458Y144475D01*
X1464600Y-10650D02*
X1463421Y-12332D01*
X1463421Y-23343D01*
X1465834Y-25755D02*
X1501367Y-25755D01*
X1503500Y-27888D01*
X1503500Y-29310D01*
X1465834Y-25755D02*
X1463421Y-23343D01*
X1557784Y145083D02*
X1557786Y160606D01*
X1557784Y145083D02*
X1557884Y144983D01*
X1508256Y250014D02*
X1508077Y250190D01*
X1492021Y250190D01*
X1525880Y275513D02*
X1525880Y290601D01*
X1525880Y275513D02*
X1525782Y275414D01*
X1592227Y96545D02*
X1593825Y96545D01*
X1592227Y96545D02*
X1573200Y115580D01*
X2688158Y823824D02*
X2688514Y824179D01*
X2688158Y823824D02*
X2688160Y812940D01*
D27*
X2688514Y824179D03*
D26*
X2787625Y824992D02*
X2788056Y824560D01*
X2788060Y813320D01*
D27*
X2787625Y824992D03*
D26*
X2892146Y824916D02*
X2892501Y824560D01*
X2892500Y813380D01*
D27*
X2892146Y824916D03*
D26*
X204240Y709510D02*
X204241Y696874D01*
X204267Y696849D01*
D27*
X204267Y696849D03*
D26*
X304470Y697560D02*
X304470Y710470D01*
X304470Y697560D02*
X304571Y697459D01*
D27*
X304571Y697459D03*
D26*
X404622Y697916D02*
X404620Y710780D01*
X404622Y697916D02*
X404393Y697687D01*
D27*
X404393Y697687D03*
D26*
X1546200Y-3810D02*
X1546200Y-34810D01*
X1439423Y186311D02*
X1439420Y199800D01*
X1439423Y186311D02*
X1439316Y186233D01*
D27*
X1439316Y186233D03*
X1523111Y185674D03*
D26*
X1593540Y115630D02*
X1593543Y96264D01*
X1593825Y96545D02*
X1597684Y100404D01*
X1593825Y96545D02*
X1593543Y96264D01*
X1612776Y100388D02*
X1614430Y100390D01*
X1612776Y100388D02*
X1612760Y100404D01*
X1597684Y100404D01*
X1664911Y221655D02*
X1664910Y240030D01*
X1664911Y221655D02*
X1664740Y221490D01*
X1648085Y198830D02*
X1648090Y181080D01*
X1648085Y198830D02*
X1648740Y199490D01*
X1664910Y240030D02*
X1664911Y252824D01*
X1664995Y252908D01*
D27*
X1664995Y252908D03*
D26*
X1648090Y181080D02*
X1648085Y174415D01*
X1651787Y170713D01*
X1911093Y154892D02*
X1929370Y154894D01*
X1911093Y154892D02*
X1909750Y156235D01*
D27*
X1909750Y156235D03*
D26*
X1605538Y275414D02*
X1605536Y289990D01*
X1605305Y290220D01*
D27*
X1605305Y290220D03*
D26*
X1522780Y186005D02*
X1508256Y186006D01*
X1522780Y186005D02*
X1523111Y185674D01*
X1469855Y193678D02*
X1469860Y199770D01*
X1469855Y193678D02*
X1474292Y189241D01*
X1474292Y185674D01*
D27*
X1474292Y185674D03*
D26*
X1935882Y191825D02*
X1994970Y181406D01*
X1636777Y186005D02*
X1623064Y186006D01*
X1636777Y186005D02*
X1636827Y186055D01*
D27*
X1636827Y186055D03*
D26*
X1778028Y230279D02*
X1824735Y183567D01*
X1706250Y210400D02*
X1706247Y212081D01*
X1727079Y232912D01*
D27*
X1727079Y232912D03*
D26*
X1903198Y183567D02*
X1912925Y193294D01*
X1934410Y193294D01*
X1935882Y191825D01*
X1903198Y183567D02*
X1824735Y183567D01*
X1573196Y139243D02*
X1573200Y132580D01*
X1565658Y146782D02*
X1565660Y160606D01*
X1565658Y146782D02*
X1573196Y139243D01*
X1494745Y199774D02*
X1486860Y199770D01*
X1494745Y199774D02*
X1500386Y194133D01*
X1508254Y194133D01*
X1508256Y194134D01*
X1665085Y199144D02*
X1665090Y181080D01*
X1665085Y199144D02*
X1664740Y199490D01*
X1664743Y202129D01*
X1656686Y210186D01*
X1623113Y210186D02*
X1623064Y210136D01*
X1623113Y210186D02*
X1656686Y210186D01*
X1623671Y217399D02*
X1623064Y218010D01*
X1644655Y217399D02*
X1648740Y221490D01*
X1644655Y217399D02*
X1623671Y217399D01*
X1647910Y240030D02*
X1648743Y239194D01*
X1648740Y221490D01*
X1533173Y135449D02*
X1533170Y126910D01*
X1533173Y135449D02*
X1541782Y144058D01*
X1541784Y160606D01*
X1553261Y136976D02*
X1553260Y126940D01*
X1553261Y136976D02*
X1549656Y140581D01*
X1549658Y160606D01*
X1602171Y825002D02*
X1602400Y825231D01*
X1602171Y825002D02*
X1602171Y824900D01*
X1601775Y825297D01*
D27*
X1602171Y824900D03*
X1609423Y448640D03*
D26*
X1598222Y448640D01*
X1564667Y415086D01*
X1564667Y276403D02*
X1565660Y275414D01*
X1564667Y276403D02*
X1564667Y415086D01*
X1355015Y825297D02*
X1332286Y848033D01*
X1355015Y825297D02*
X1601775Y825297D01*
X1332286Y848033D02*
X1265278Y781025D01*
X978586Y781025D02*
X932076Y734513D01*
X978586Y781025D02*
X1265278Y781025D01*
X932076Y734513D02*
X897444Y699883D01*
X692760Y699880D01*
X1792417Y825231D02*
X1851812Y765835D01*
X1933572Y765835D01*
X1972660Y804924D01*
X1992014Y804923D01*
X1792417Y825231D02*
X1602400Y825231D01*
X2547936Y683514D02*
X2564410Y699990D01*
X2547936Y683514D02*
X2337105Y683514D01*
X2323413Y697206D01*
X2323414Y705823D01*
X2312868Y695274D01*
X2109523Y804924D02*
X1992014Y804923D01*
X2219173Y695274D02*
X2312868Y695274D01*
X2219173Y695274D02*
X2109523Y804924D01*
D27*
X1597386Y622529D03*
X1602568Y458748D03*
D26*
X1597208Y458748D01*
X1556360Y417899D01*
X1556360Y276837D02*
X1557786Y275414D01*
X1556360Y276837D02*
X1556360Y417899D01*
X27883Y526720D02*
X10540Y509380D01*
X27883Y526720D02*
X253568Y526720D01*
X299517Y480771D01*
X375945Y480771D01*
X452233Y557059D02*
X454460Y557060D01*
X452233Y557059D02*
X375945Y480771D01*
X454460Y557060D02*
X502578Y557059D01*
X568325Y491312D01*
X707232Y491312D02*
X726240Y510320D01*
X707232Y491312D02*
X568325Y491312D01*
X726240Y510320D02*
X909819Y510322D01*
X941916Y542413D01*
X1095252Y542416D01*
X1128906Y576073D01*
X1283793Y576073D01*
X1317066Y609343D01*
X1471064Y609348D01*
X1503906Y642193D01*
X1577724Y642191D01*
X1597386Y622529D01*
X1609146Y610768D01*
X1749083Y610768D01*
X1751404Y613083D01*
X1784451Y580038D01*
X1938474Y580033D01*
X1971478Y547038D01*
X2126974Y547033D01*
X2159960Y514048D01*
X2314404Y514043D01*
X2333682Y494767D01*
X2517724Y494767D01*
X2531335Y508377D01*
X2531330Y509590D01*
X2547426Y493497D01*
X2707767Y493497D01*
X2722069Y507799D01*
X2722070Y509690D01*
X2738590Y493166D01*
X2969590Y493166D01*
X2984090Y507667D01*
X2984090Y509660D01*
X3079342Y509657D01*
X3079930Y510240D01*
X1597000Y436270D02*
X1572463Y411734D01*
X1572463Y276481D02*
X1573534Y275414D01*
X1572463Y276481D02*
X1572463Y411734D01*
X1430576Y444353D02*
X1410963Y424734D01*
X1306185Y405820D01*
X1244316Y405823D01*
X1226138Y405820D01*
X1204369Y384050D02*
X1126130Y370390D01*
X1057286Y370393D01*
X1204369Y384050D02*
X1226138Y405820D01*
X1057286Y370393D02*
X1037419Y370390D01*
X1011009Y343980D02*
X968792Y336529D01*
X869624Y336529D01*
X868966Y337193D01*
X1011009Y343980D02*
X1037419Y370390D01*
X868966Y337193D02*
X844074Y312300D01*
X789782Y302596D01*
X670021Y302596D01*
X654738Y317878D02*
X654740Y319130D01*
X654738Y317878D02*
X670021Y302596D01*
X654740Y319130D02*
X638653Y303047D01*
X409046Y303047D02*
X393240Y318850D01*
X409046Y303047D02*
X638653Y303047D01*
X393240Y318850D02*
X377766Y303378D01*
X49916Y303378D02*
X34770Y318530D01*
X49916Y303378D02*
X377766Y303378D01*
X1431980Y444350D02*
X1455437Y467807D01*
X1431980Y444350D02*
X1430576Y444353D01*
X1597000Y436270D02*
X1691107Y436270D01*
X1720539Y406838D02*
X1822454Y406833D01*
X1720539Y406838D02*
X1691107Y436270D01*
X1822454Y406833D02*
X1847596Y381693D01*
X1891006Y374038D01*
X2010304Y374033D01*
X2035842Y348500D01*
X2078841Y340918D01*
X2198004Y340913D01*
X2222477Y316451D01*
X2266771Y308640D01*
X2385464Y308643D01*
X2592187Y308640D01*
X2602810Y319260D01*
X2613665Y308407D01*
X2782993Y308407D02*
X2793390Y318800D01*
X2782993Y308407D02*
X2613665Y308407D01*
X2793390Y318800D02*
X2836999Y362412D01*
X2901470Y362410D01*
X2984479Y279405D01*
X3052990Y279400D01*
X1691107Y436270D02*
X1659570Y467807D01*
X1455437Y467807D01*
D27*
X1585595Y406984D03*
X1435938Y326387D03*
D26*
X1436091Y326234D01*
X1436091Y237261D01*
X1447469Y225883D01*
X1779322Y257658D02*
X1779322Y324721D01*
X1779322Y257658D02*
X1781537Y255444D01*
X1781532Y252721D02*
X1843187Y191066D01*
X1781532Y252721D02*
X1781537Y255444D01*
X1843187Y191066D02*
X1899518Y191066D01*
X1923767Y215315D01*
X1948404Y215313D01*
X1409526Y238683D02*
X1404702Y233862D01*
X1386480Y233862D01*
X1357773Y205155D01*
X1221786Y205153D01*
X1189351Y172718D01*
X1033496Y172713D01*
X1000615Y139833D01*
X845546Y139833D01*
X816406Y110693D01*
X641147Y110693D01*
X630886Y120954D01*
X630890Y128280D01*
X614188Y111582D01*
X410220Y111582D02*
X393320Y128480D01*
X410220Y111582D02*
X614188Y111582D01*
X393320Y128480D02*
X377511Y112674D01*
X71374Y112674D01*
X57810Y126239D01*
X57810Y128200D01*
X1447469Y225883D02*
X1508256Y225884D01*
X1436091Y237261D02*
X1434664Y238688D01*
X1409526Y238683D01*
X1585595Y406984D02*
X1697059Y406984D01*
X1779322Y324721D01*
X2959543Y82345D02*
X3117860Y82350D01*
X2959543Y82345D02*
X2912920Y128960D01*
X2897118Y113157D01*
X2736291Y113157D01*
X2722545Y126903D01*
X2722540Y128940D01*
X2701069Y107467D01*
X2542907Y107467D02*
X2531570Y118800D01*
X2542907Y107467D02*
X2701069Y107467D01*
X2531570Y118800D02*
X2518332Y105562D01*
X2330653Y105562D01*
X2313936Y122279D01*
X2313934Y126953D01*
X2160293Y126950D01*
X2126744Y160503D01*
X1968215Y195504D02*
X1948404Y215313D01*
X1968215Y195504D02*
X2024736Y195504D01*
X2059508Y160731D01*
X2059508Y160706D01*
X2059710Y160504D01*
X2126744Y160503D01*
D27*
X1742796Y21361D03*
X1341145Y94031D03*
D26*
X1508228Y218034D02*
X1508256Y218010D01*
X271718Y-61152D02*
X83800Y-61150D01*
X271718Y-61152D02*
X288392Y-77826D01*
X353157Y-77826D01*
X369220Y-61770D01*
X471570Y-61766D01*
X484962Y-75159D01*
X546863Y-75159D01*
X560400Y-61620D01*
X587879Y-61616D01*
X618515Y-92253D01*
X738596Y-92253D01*
X749780Y-81070D01*
X914199Y-81066D01*
X1302713Y-909D02*
X1336876Y33253D01*
X1357173Y53551D01*
X1357174Y72947D01*
X1357173Y78004D01*
X1341145Y94031D01*
X1341145Y172181D01*
X1386999Y218034D01*
X1508228Y218034D01*
X2806334Y-74867D02*
X2982850Y-74870D01*
X2806334Y-74867D02*
X2793230Y-61770D01*
X2774136Y-80866D01*
X2603270Y-80870D01*
X2589015Y-95123D01*
X2400469Y-95123D01*
X1855898Y-13177D02*
X1822874Y19843D01*
X1744313Y19844D01*
X1742796Y21361D01*
X2384848Y-79502D02*
X2385764Y-78587D01*
X2198314Y-46657D02*
X2044219Y-46657D01*
X2010734Y-13177D02*
X1855898Y-13177D01*
X1116405Y-33649D02*
X961616Y-33647D01*
X1149146Y-907D02*
X1302713Y-909D01*
X2198314Y-46657D02*
X2231164Y-79502D01*
X2384848Y-79502D01*
X961616Y-33647D02*
X914199Y-81066D01*
X1116405Y-33649D02*
X1149146Y-907D01*
X2385764Y-78587D02*
X2385769Y-80422D01*
X2400469Y-95123D01*
X2044219Y-46657D02*
X2010734Y-13177D01*
X1431594Y386690D02*
X793249Y271348D01*
X1431594Y386690D02*
X1443660Y374625D01*
X1443660Y239941D02*
X1449590Y234011D01*
X1508256Y234012D01*
X1443660Y239941D02*
X1443660Y374625D01*
X-75713Y252325D02*
X-75713Y247299D01*
X-81682Y241330D01*
X-75713Y252325D02*
X-56689Y271348D01*
X793249Y271348D01*
X-81682Y241330D02*
X-94737Y241330D01*
X-108229Y227838D01*
D27*
X-108229Y227838D03*
D26*
X-127203Y410019D02*
X-105502Y431720D01*
X-127203Y410019D02*
X-127203Y409346D01*
D27*
X-127203Y409346D03*
D26*
X-149900Y567760D02*
X-149900Y600690D01*
X-149900Y567760D02*
X-127884Y545744D01*
X-109846Y545744D02*
X-109520Y546070D01*
X-109846Y545744D02*
X-127884Y545744D01*
X-129332Y621258D02*
X-129332Y622270D01*
X-129332Y621258D02*
X-149900Y600690D01*
X-57882Y50770D02*
X-90415Y18237D01*
X-91237Y18237D01*
D27*
X-91237Y18237D03*
X1577594Y177038D03*
D26*
X1581660Y172972D02*
X1581662Y160606D01*
X1581660Y172972D02*
X1577594Y177038D01*
X1434042Y394148D02*
X796205Y277800D01*
X1434042Y394148D02*
X1451094Y377096D01*
X1451094Y241950D01*
D27*
X1451094Y241950D03*
D26*
X213284Y277800D02*
X206375Y284709D01*
D27*
X206375Y284709D03*
D26*
X213284Y277800D02*
X796205Y277800D01*
X252678Y241300D02*
X225857Y214479D01*
X225857Y177749D01*
X238506Y165100D01*
X272490Y165100D01*
X218288Y397460D02*
X252628Y431800D01*
X218288Y397460D02*
X218288Y375209D01*
X237896Y355600D01*
X272440Y355600D01*
X228858Y50770D02*
X203556Y25468D01*
X203556Y-17145D02*
X211887Y-25476D01*
X248624Y-25476D01*
X248670Y-25430D01*
X203556Y-17145D02*
X203556Y25468D01*
X252705Y598467D02*
X276508Y622270D01*
X252705Y598467D02*
X252705Y557225D01*
X263860Y546070D01*
X296320Y546070D01*
D27*
X1592047Y179603D03*
D26*
X1589534Y177091D02*
X1589536Y160606D01*
X1589534Y177091D02*
X1592047Y179603D01*
X1436018Y400987D02*
X802155Y284937D01*
D27*
X1459078Y249022D03*
D26*
X1458823Y378181D02*
X1436018Y400987D01*
X1458823Y378181D02*
X1458823Y249022D01*
X1459078Y249022D01*
D27*
X1732331Y222174D03*
D26*
X1756907Y221971D02*
X1773617Y205265D01*
X1732534Y221971D02*
X1732331Y222174D01*
X1732534Y221971D02*
X1756907Y221971D01*
X474904Y284937D02*
X468503Y291338D01*
D27*
X468503Y291338D03*
D26*
X474904Y284937D02*
X802155Y284937D01*
X490778Y241270D02*
X468579Y219071D01*
X468579Y175006D01*
X478515Y165070D01*
X510590Y165070D01*
X487934Y405096D02*
X514608Y431770D01*
X487934Y405096D02*
X487934Y373278D01*
X505642Y355570D01*
X534420Y355570D01*
X419408Y50800D02*
X393929Y25321D01*
X393929Y-7899D01*
X411429Y-25400D01*
X439220Y-25400D01*
X528726Y788508D02*
X552988Y812770D01*
X528726Y788508D02*
X528726Y751637D01*
X543793Y736570D01*
X572800Y736570D01*
X586028Y622250D02*
X554406Y590628D01*
X554406Y568300D01*
X576655Y546050D01*
X605840Y546050D01*
X799869Y292537D02*
X1440376Y407017D01*
X1465960Y381432D01*
X1465960Y250902D01*
X1474977Y241885D01*
X1508256Y241886D01*
X799869Y292537D02*
X676574Y292537D01*
X675996Y293116D01*
D27*
X675996Y293116D03*
D26*
X688427Y225802D02*
X676250Y213625D01*
X676250Y165862D01*
X687912Y154200D01*
X721170Y154200D01*
X695350Y406766D02*
X711967Y423382D01*
X695350Y406766D02*
X695350Y370738D01*
X714309Y351780D01*
X744710Y351780D01*
X609828Y31370D02*
X597511Y31370D01*
X579044Y12903D01*
X579044Y-30150D01*
X593724Y-44830D02*
X629640Y-44830D01*
X593724Y-44830D02*
X579044Y-30150D01*
X770204Y615910D02*
X783697Y629402D01*
X770204Y615910D02*
X770204Y569087D01*
X781491Y557800D01*
X816440Y557800D01*
X755117Y802222D02*
X774097Y821202D01*
X755117Y802222D02*
X755117Y768960D01*
X774476Y749600D01*
X806840Y749600D01*
X1442804Y413505D02*
X1532738Y323571D01*
X1532738Y276329D02*
X1533656Y275414D01*
X1532738Y276329D02*
X1532738Y323571D01*
D27*
X882523Y318973D03*
D26*
X907171Y318973D02*
X1442804Y413505D01*
X907171Y318973D02*
X882523Y318973D01*
X876007Y258842D02*
X875473Y258309D01*
X863713Y258309D01*
X857317Y251913D01*
X857317Y199121D01*
X869071Y187366D01*
X908623Y187366D02*
X908750Y187240D01*
X908623Y187366D02*
X869071Y187366D01*
X882574Y439459D02*
X899597Y456482D01*
X882574Y439459D02*
X882574Y399847D01*
X897541Y384880D01*
X932340Y384880D01*
X804757Y52822D02*
X775614Y23680D01*
X775614Y-3785D01*
X790610Y-18780D01*
X837500Y-18780D01*
X954913Y646108D02*
X971307Y662502D01*
X954913Y646108D02*
X954913Y599669D01*
X963682Y590900D01*
X1004050Y590900D01*
X1045642Y353060D02*
X1064498Y353060D01*
X1446635Y419783D01*
X1540840Y325577D01*
X1540840Y276354D02*
X1541784Y275414D01*
X1540840Y276354D02*
X1540840Y325577D01*
X1063657Y291942D02*
X1045812Y274097D01*
X1045812Y231972D01*
X1057541Y220243D01*
X1096303Y220243D02*
X1096400Y220340D01*
X1096303Y220243D02*
X1057541Y220243D01*
D27*
X1045642Y353060D03*
D26*
X1063752Y466047D02*
X1087227Y489522D01*
X1063752Y466047D02*
X1063752Y430225D01*
X1076057Y417920D01*
X1119970Y417920D01*
X992357Y85942D02*
X969518Y63103D01*
X969518Y29616D01*
X984795Y14340D01*
X1025100Y14340D01*
X1147350Y815740D02*
X1182000Y815740D01*
X1147350Y815740D02*
X1125118Y837971D01*
X1125118Y863204D01*
X1149257Y887342D01*
X1158907Y695622D02*
X1140943Y677658D01*
X1140943Y642366D01*
X1159289Y624020D01*
X1191650Y624020D01*
X1241398Y388989D02*
X1449685Y426588D01*
X1548638Y327635D01*
X1548638Y276431D02*
X1549658Y275414D01*
X1548638Y276431D02*
X1548638Y327635D01*
X1251337Y325032D02*
X1232611Y306307D01*
X1232611Y264770D01*
X1243951Y253430D01*
X1284080Y253430D01*
X1241398Y388989D02*
X1234452Y388989D01*
X1233018Y390423D01*
D27*
X1233018Y390423D03*
D26*
X1274807Y513543D02*
X1274807Y522572D01*
X1274807Y513543D02*
X1255065Y493801D01*
X1255065Y462483D01*
X1266578Y450970D02*
X1307550Y450970D01*
X1266578Y450970D02*
X1255065Y462483D01*
X1212680Y47390D02*
X1176648Y47390D01*
X1176477Y47219D01*
X1163409Y60287D01*
X1163409Y102464D02*
X1179937Y118992D01*
X1163409Y102464D02*
X1163409Y60287D01*
X1333017Y715203D02*
X1346487Y728672D01*
X1333017Y715203D02*
X1333017Y669265D01*
X1345212Y657070D01*
X1379230Y657070D01*
X1607642Y300723D02*
X1624984Y283382D01*
X1607435Y361865D02*
X1582649Y386651D01*
X1607435Y361865D02*
X1607642Y361658D01*
X1607642Y300723D01*
X1624984Y283382D02*
X1638888Y283382D01*
D27*
X1582649Y386651D03*
X1527708Y219354D03*
D26*
X1518489Y210135D01*
X1508256Y210136D01*
X1607435Y361865D02*
X1632609Y361865D01*
X1367567Y152062D02*
X1352144Y136639D01*
X1352144Y102870D01*
X1374553Y80460D01*
X1400310Y80460D01*
X1367567Y152062D02*
X1367567Y179964D01*
X1397737Y210135D02*
X1508256Y210136D01*
X1397737Y210135D02*
X1367567Y179964D01*
X1609674Y726030D02*
X1632479Y748835D01*
X1609674Y726030D02*
X1609674Y680999D01*
X1620322Y670352D01*
X1638758Y670352D01*
X1703909Y542735D02*
X1670787Y509612D01*
X1670787Y483565D01*
X1690100Y464252D01*
X1710188Y464252D01*
D27*
X1659153Y143993D03*
D26*
X1647190Y132029D01*
X1612443Y132029D01*
X1597662Y146810D02*
X1597664Y160606D01*
X1597662Y146810D02*
X1612443Y132029D01*
X1679012Y137723D02*
X1679012Y91077D01*
X1692392Y77697D01*
X1710313Y77697D01*
X1704419Y155795D02*
X1697084Y155795D01*
X1679012Y137723D01*
X1710313Y77697D02*
X1710698Y77312D01*
X1791005Y686600D02*
X1820139Y715735D01*
X1791005Y648106D02*
X1801952Y637159D01*
X1826325Y637159D01*
X1826418Y637252D01*
X1791005Y648106D02*
X1791005Y686600D01*
X1883631Y509695D02*
X1891559Y509695D01*
X1883631Y509695D02*
X1851177Y477241D01*
X1851177Y460248D01*
X1880286Y431140D01*
X1897766Y431140D01*
X1897838Y431212D01*
X1820259Y328795D02*
X1795678Y304214D01*
X1795678Y268859D01*
X1814226Y250312D01*
X1798650Y876396D02*
X1829709Y907455D01*
X1835988Y828972D02*
X1815371Y828972D01*
X1798650Y845693D02*
X1798650Y876396D01*
X1798650Y845693D02*
X1815371Y828972D01*
X1814226Y250312D02*
X1826538Y250312D01*
X1759404Y197002D02*
X1701419Y197002D01*
X1642616Y138199D01*
X1613436Y138199D01*
X1605536Y146099D02*
X1605538Y160606D01*
X1605536Y146099D02*
X1613436Y138199D01*
X1759404Y197002D02*
X1769205Y187201D01*
X1769206Y180251D01*
X1859356Y90032D02*
X1892019Y122695D01*
X1859356Y90032D02*
X1859356Y56947D01*
X1872091Y44212D01*
X1898298Y44212D01*
X1775209Y174244D02*
X1769206Y180251D01*
X1775209Y174244D02*
X1856054Y174244D01*
X1892019Y138279D01*
X1892019Y122695D01*
X1979549Y654494D02*
X2007669Y682615D01*
X1979549Y654494D02*
X1979549Y619836D01*
X1995253Y604132D01*
X2013948Y604132D01*
X2079169Y476565D02*
X2044649Y442045D01*
X2044649Y416560D01*
X2063127Y398082D01*
X2085448Y398082D01*
X2007889Y295775D02*
X1972208Y260094D01*
X1972208Y237007D01*
X1991924Y217292D01*
X2014168Y217292D01*
D27*
X2174820Y292282D03*
X1747266Y372135D03*
X1577518Y256362D03*
D26*
X1581660Y260504D01*
X1581662Y275414D01*
X1747266Y372135D02*
X1747343Y372058D01*
X2171113Y296015D01*
X2174820Y292282D01*
X2190837Y841285D02*
X2204899Y841285D01*
X2190837Y841285D02*
X2169389Y819836D01*
X2169389Y773862D01*
X2180742Y762508D01*
X2210884Y762508D01*
X2211178Y762802D01*
X2174820Y292282D02*
X2195449Y271653D01*
X2195449Y262705D01*
X2079599Y89655D02*
X2056536Y66592D01*
X2056536Y25476D01*
X2070841Y11172D01*
X2085878Y11172D01*
X2161235Y615501D02*
X2195299Y649565D01*
X2161235Y615501D02*
X2161235Y588848D01*
X2179002Y571082D01*
X2201578Y571082D01*
X2266799Y443495D02*
X2234565Y411260D01*
X2234565Y377825D01*
X2247378Y365012D01*
X2273078Y365012D01*
D27*
X2368169Y261391D03*
D26*
X2339699Y271951D01*
X1765042Y375086D01*
X1759915Y380213D01*
D27*
X1759915Y380213D03*
X1605661Y250520D03*
D26*
X1622606Y250013D02*
X1623064Y250014D01*
X1622606Y250013D02*
X1622554Y249961D01*
X1606220Y249961D01*
X1605661Y250520D01*
X2251623Y56555D02*
X2267279Y56555D01*
X2251623Y56555D02*
X2231974Y36906D01*
X2231974Y-1981D01*
X2251964Y-21971D01*
X2273515Y-21971D01*
X2273558Y-21928D01*
X2364410Y595552D02*
X2391158Y622300D01*
X2364410Y595552D02*
X2364410Y565023D01*
X2383333Y546100D01*
X2410970Y546100D01*
X2462608Y431800D02*
X2439010Y408202D01*
X2439010Y370992D01*
X2454402Y355600D01*
X2482420Y355600D01*
X2402942Y791514D02*
X2424228Y812800D01*
X2402942Y791514D02*
X2402942Y748563D01*
X2414905Y736600D01*
X2444040Y736600D01*
X2368169Y261391D02*
X2368169Y241559D01*
X2379068Y230660D02*
X2391158Y230660D01*
X2379068Y230660D02*
X2368169Y241559D01*
D27*
X2557653Y263119D03*
D26*
X2557196Y263576D01*
X2419628Y263576D01*
X1783719Y376932D01*
X1774622Y386029D01*
D27*
X1774622Y386029D03*
X1579369Y227358D03*
D26*
X1612216Y241885D02*
X1623064Y241886D01*
X1612216Y241885D02*
X1597689Y227358D01*
X1579369Y227358D01*
X2441448Y10260D02*
X2462608Y31420D01*
X2441448Y10260D02*
X2441448Y-32664D01*
X2453208Y-44425D01*
X2482065Y-44425D02*
X2482420Y-44780D01*
X2482065Y-44425D02*
X2453208Y-44425D01*
X2563622Y604194D02*
X2581678Y622250D01*
X2563622Y604194D02*
X2563622Y555549D01*
X2573121Y546050D01*
X2601490Y546050D01*
X2653128Y431830D02*
X2631643Y410345D01*
X2631643Y373278D01*
X2649292Y355630D01*
X2672940Y355630D01*
X2557653Y263119D02*
X2557653Y251739D01*
X2568142Y241250D02*
X2581678Y241250D01*
X2568142Y241250D02*
X2557653Y251739D01*
D27*
X2747696Y241376D03*
D26*
X2719451Y269621D01*
X2416607Y269621D01*
X1798403Y379953D02*
X1792104Y386252D01*
X1798403Y379953D02*
X2416607Y269621D01*
D27*
X1792104Y386252D03*
X1581658Y214401D03*
D26*
X1592835Y214401D01*
X1612445Y234011D02*
X1623064Y234012D01*
X1612445Y234011D02*
X1592835Y214401D01*
X2628900Y26602D02*
X2653128Y50830D01*
X2628900Y26602D02*
X2628900Y-8738D01*
X2645532Y-25370D01*
X2672940Y-25370D01*
X2822804Y601496D02*
X2843608Y622300D01*
X2822804Y601496D02*
X2822804Y554406D01*
X2831109Y546100D01*
X2863420Y546100D01*
X2962628Y431770D02*
X2940837Y409979D01*
X2940837Y368706D01*
X2953974Y355570D01*
X2982440Y355570D01*
X2772052Y241376D02*
X2747696Y241376D01*
X2772052Y241376D02*
X2772158Y241270D01*
D27*
X2982747Y227406D03*
D26*
X2981223Y228930D01*
X2920490Y228930D01*
X2874084Y275336D01*
X2422288Y275336D01*
X1814832Y382446D02*
X1808277Y389001D01*
X1814832Y382446D02*
X2422288Y275336D01*
D27*
X1808277Y389001D03*
X1593825Y203479D03*
D26*
X1593825Y206477D01*
X1613231Y225883D01*
X1623064Y225884D01*
X3034132Y58995D02*
X3034132Y50724D01*
X3034132Y58995D02*
X3022261Y70866D01*
D27*
X3022261Y70866D03*
D26*
X2843608Y50770D02*
X2820899Y28061D01*
X2820899Y-13284D01*
X2833044Y-25430D01*
X2863420Y-25430D01*
X3086989Y603731D02*
X3105528Y622270D01*
X3086989Y603731D02*
X3086989Y564515D01*
X3105434Y546070D01*
X3125340Y546070D01*
X2996611Y241270D02*
X2982747Y227406D01*
X2996611Y241270D02*
X3010278Y241270D01*
X1525782Y160606D02*
X1520240Y160605D01*
X1513662Y167183D01*
D27*
X1513662Y167183D03*
X1573733Y487705D03*
D26*
X1573733Y487731D01*
X1655013Y569011D01*
X1797692Y569011D01*
X2376094Y466903D01*
X2533904Y466903D01*
X2549347Y482346D01*
D27*
X2549347Y482346D03*
X2613635Y746531D03*
D26*
X2613558Y746608D01*
X2613558Y760282D01*
X2613558Y777282D02*
X2631126Y777282D01*
X2631262Y777418D01*
D27*
X2631262Y777418D03*
M02*
