G04 #@! TF.GenerationSoftware,KiCad,Pcbnew,(6.0.1)*
G04 #@! TF.CreationDate,2022-05-05T21:04:55+02:00*
G04 #@! TF.ProjectId,BMEK_Alps,424d454b-5f41-46c7-9073-2e6b69636164,1*
G04 #@! TF.SameCoordinates,Original*
G04 #@! TF.FileFunction,Soldermask,Top*
G04 #@! TF.FilePolarity,Negative*
%FSLAX46Y46*%
G04 Gerber Fmt 4.6, Leading zero omitted, Abs format (unit mm)*
G04 Created by KiCad (PCBNEW (6.0.1)) date 2022-05-05 21:04:55*
%MOMM*%
%LPD*%
G01*
G04 APERTURE LIST*
G04 Aperture macros list*
%AMHorizOval*
0 Thick line with rounded ends*
0 $1 width*
0 $2 $3 position (X,Y) of the first rounded end (center of the circle)*
0 $4 $5 position (X,Y) of the second rounded end (center of the circle)*
0 Add line between two ends*
20,1,$1,$2,$3,$4,$5,0*
0 Add two circle primitives to create the rounded ends*
1,1,$1,$2,$3*
1,1,$1,$4,$5*%
%AMRotRect*
0 Rectangle, with rotation*
0 The origin of the aperture is its center*
0 $1 length*
0 $2 width*
0 $3 Rotation angle, in degrees counterclockwise*
0 Add horizontal line*
21,1,$1,$2,0,0,$3*%
G04 Aperture macros list end*
%ADD10C,2.250000*%
%ADD11R,1.500000X1.000000*%
%ADD12C,3.800000*%
%ADD13C,6.500000*%
%ADD14C,5.350000*%
%ADD15C,9.000000*%
%ADD16RotRect,1.700000X1.700000X190.000000*%
%ADD17HorizOval,1.700000X0.000000X0.000000X0.000000X0.000000X0*%
%ADD18C,0.650000*%
%ADD19O,1.000000X2.100000*%
%ADD20O,1.000000X1.600000*%
G04 APERTURE END LIST*
D10*
X258616488Y-102557688D03*
X263453703Y-101197044D03*
X118685073Y-101689449D03*
X123695936Y-102065286D03*
X227408613Y-116183911D03*
X222571398Y-117544555D03*
X225785535Y-108346689D03*
X230622750Y-106986045D03*
X159741178Y-117052151D03*
X154730315Y-116676314D03*
X151516177Y-107478449D03*
X156527040Y-107854286D03*
X282177450Y-100140000D03*
X287177450Y-99640000D03*
X95048150Y-100140000D03*
X100048150Y-99640000D03*
X79306250Y-81090000D03*
X84306250Y-80590000D03*
X350306950Y-81090000D03*
X355306950Y-80590000D03*
X333638200Y-81090000D03*
X338638200Y-80590000D03*
X324113250Y-81090000D03*
X329113250Y-80590000D03*
X297919450Y-81090000D03*
X302919450Y-80590000D03*
X278869450Y-81089999D03*
X283869450Y-80589999D03*
X257653638Y-83383588D03*
X262490853Y-82022944D03*
X238893038Y-86691588D03*
X243730253Y-85330944D03*
X220132438Y-89999588D03*
X224969653Y-88638944D03*
X201371838Y-93307589D03*
X206209053Y-91946945D03*
X175929823Y-92439349D03*
X180940686Y-92815186D03*
X157169223Y-89131349D03*
X162180086Y-89507186D03*
X138408623Y-85823349D03*
X143419486Y-86199186D03*
X119648023Y-82515349D03*
X124658886Y-82891186D03*
X98356150Y-81090000D03*
X103356150Y-80590000D03*
X57875000Y-81090000D03*
X62875000Y-80590000D03*
X67399900Y-81090000D03*
X72399900Y-80590000D03*
X26809552Y-81090000D03*
X31809552Y-80590000D03*
X340781850Y-42990000D03*
X345781850Y-42490000D03*
X336019401Y-62040000D03*
X341019401Y-61540000D03*
X305063150Y-62040000D03*
X310063150Y-61540000D03*
X286013150Y-62039999D03*
X291013150Y-61539999D03*
X264804038Y-62778888D03*
X269641253Y-61418244D03*
X246043438Y-66086889D03*
X250880653Y-64726245D03*
X227282838Y-69394888D03*
X232120053Y-68034244D03*
X208522238Y-72702889D03*
X213359453Y-71342245D03*
X168761323Y-71831449D03*
X173772186Y-72207286D03*
X150000723Y-68523449D03*
X155011586Y-68899286D03*
X131240123Y-65215449D03*
X136250986Y-65591286D03*
X112479523Y-61907449D03*
X117490386Y-62283286D03*
X91212450Y-62040000D03*
X96212450Y-61540000D03*
X65018750Y-62040000D03*
X70018750Y-61540000D03*
X29190852Y-62040000D03*
X34190852Y-61540000D03*
X343163051Y-23940000D03*
X348163051Y-23440000D03*
X316969350Y-42990000D03*
X321969350Y-42490000D03*
X297919350Y-42990000D03*
X302919350Y-42490000D03*
X278869350Y-41929500D03*
X283869350Y-41429500D03*
X257673639Y-44692288D03*
X262510854Y-43331644D03*
X238913039Y-48000288D03*
X243750254Y-46639644D03*
X220152439Y-51308289D03*
X224989654Y-49947645D03*
X201391838Y-54616289D03*
X206229053Y-53255645D03*
X166405123Y-52072148D03*
X171415986Y-52447985D03*
X147644523Y-48764149D03*
X152655386Y-49139986D03*
X128883923Y-45456149D03*
X133894786Y-45831986D03*
X110123348Y-42148149D03*
X115134211Y-42523986D03*
X88831250Y-42990000D03*
X93831250Y-42490000D03*
X65018750Y-42990000D03*
X70018750Y-42490000D03*
X31572152Y-42990000D03*
X36572152Y-42490000D03*
X333638051Y-23940000D03*
X338638051Y-23440000D03*
X324113051Y-23940000D03*
X329113051Y-23440000D03*
X305063051Y-23940000D03*
X310063051Y-23440000D03*
X286013050Y-21999800D03*
X291013050Y-21499800D03*
X264848738Y-24083190D03*
X269685953Y-22722546D03*
X246088139Y-27391188D03*
X250925354Y-26030544D03*
X227327538Y-30699189D03*
X232164753Y-29338545D03*
X208566939Y-34007189D03*
X213404154Y-32646545D03*
X178036223Y-34779149D03*
X183047086Y-35154986D03*
X159275623Y-31471149D03*
X164286486Y-31846986D03*
X140515024Y-28163149D03*
X145525887Y-28538986D03*
X121754424Y-24855149D03*
X126765287Y-25230986D03*
X100737551Y-21999801D03*
X105737551Y-21499801D03*
X81687551Y-23940000D03*
X86687551Y-23440000D03*
X62637551Y-23940000D03*
X67637551Y-23440000D03*
X33953451Y-23940000D03*
X38953451Y-23440000D03*
D11*
X56010000Y-102540000D03*
X56010000Y-105740000D03*
X60910000Y-105740000D03*
X60910000Y-102540000D03*
X306162500Y-105740000D03*
X306162500Y-102540000D03*
X301262500Y-102540000D03*
X301262500Y-105740000D03*
X76010000Y-102540000D03*
X76010000Y-105740000D03*
X80910000Y-105740000D03*
X80910000Y-102540000D03*
X326162500Y-105740000D03*
X326162500Y-102540000D03*
X321262500Y-102540000D03*
X321262500Y-105740000D03*
X316162500Y-105740000D03*
X316162500Y-102540000D03*
X311262500Y-102540000D03*
X311262500Y-105740000D03*
D12*
X50800000Y-27940000D03*
X334200000Y-104140000D03*
X48020000Y-104140000D03*
X191060000Y-105090000D03*
D13*
X179760000Y-117050000D03*
D14*
X191060000Y-72960000D03*
D13*
X202460000Y-117050000D03*
D15*
X191060000Y-83090000D03*
D14*
X46080000Y-66040000D03*
D11*
X66010000Y-102540000D03*
X66010000Y-105740000D03*
X70910000Y-105740000D03*
X70910000Y-102540000D03*
D16*
X196472434Y-37567088D03*
D17*
X196913500Y-40068500D03*
X197354567Y-42569911D03*
X197795633Y-45071323D03*
D18*
X188178500Y-27440000D03*
X193958500Y-27440000D03*
D19*
X186748500Y-27970000D03*
D20*
X195388500Y-23790000D03*
D19*
X195388500Y-27970000D03*
D20*
X186748500Y-23790000D03*
D16*
X203835000Y-43307000D03*
D17*
X201333588Y-43748066D03*
X204276066Y-45808412D03*
X201774655Y-46249478D03*
X204717133Y-48309823D03*
X202215721Y-48750890D03*
M02*
