G04 #@! TF.GenerationSoftware,KiCad,Pcbnew,(6.0.1)*
G04 #@! TF.CreationDate,2022-05-05T21:04:55+02:00*
G04 #@! TF.ProjectId,BMEK_Alps,424d454b-5f41-46c7-9073-2e6b69636164,1*
G04 #@! TF.SameCoordinates,Original*
G04 #@! TF.FileFunction,Legend,Top*
G04 #@! TF.FilePolarity,Positive*
%FSLAX46Y46*%
G04 Gerber Fmt 4.6, Leading zero omitted, Abs format (unit mm)*
G04 Created by KiCad (PCBNEW (6.0.1)) date 2022-05-05 21:04:55*
%MOMM*%
%LPD*%
G01*
G04 APERTURE LIST*
G04 Aperture macros list*
%AMHorizOval*
0 Thick line with rounded ends*
0 $1 width*
0 $2 $3 position (X,Y) of the first rounded end (center of the circle)*
0 $4 $5 position (X,Y) of the second rounded end (center of the circle)*
0 Add line between two ends*
20,1,$1,$2,$3,$4,$5,0*
0 Add two circle primitives to create the rounded ends*
1,1,$1,$2,$3*
1,1,$1,$4,$5*%
%AMRotRect*
0 Rectangle, with rotation*
0 The origin of the aperture is its center*
0 $1 length*
0 $2 width*
0 $3 Rotation angle, in degrees counterclockwise*
0 Add horizontal line*
21,1,$1,$2,0,0,$3*%
G04 Aperture macros list end*
%ADD10C,0.150000*%
%ADD11C,0.120000*%
%ADD12C,0.100000*%
%ADD13C,2.250000*%
%ADD14R,1.500000X1.000000*%
%ADD15C,3.800000*%
%ADD16C,6.500000*%
%ADD17C,5.350000*%
%ADD18C,9.000000*%
%ADD19RotRect,1.700000X1.700000X190.000000*%
%ADD20HorizOval,1.700000X0.000000X0.000000X0.000000X0.000000X0*%
%ADD21C,0.650000*%
%ADD22O,1.000000X2.100000*%
%ADD23O,1.000000X1.600000*%
G04 APERTURE END LIST*
D10*
X57721904Y-101092380D02*
X57721904Y-100092380D01*
X57960000Y-100092380D01*
X58102857Y-100140000D01*
X58198095Y-100235238D01*
X58245714Y-100330476D01*
X58293333Y-100520952D01*
X58293333Y-100663809D01*
X58245714Y-100854285D01*
X58198095Y-100949523D01*
X58102857Y-101044761D01*
X57960000Y-101092380D01*
X57721904Y-101092380D01*
X58626666Y-100092380D02*
X59293333Y-100092380D01*
X58864761Y-101092380D01*
X54595714Y-102992380D02*
X54024285Y-102992380D01*
X54310000Y-102992380D02*
X54310000Y-101992380D01*
X54214761Y-102135238D01*
X54119523Y-102230476D01*
X54024285Y-102278095D01*
X302974404Y-108092380D02*
X302974404Y-107092380D01*
X303212500Y-107092380D01*
X303355357Y-107140000D01*
X303450595Y-107235238D01*
X303498214Y-107330476D01*
X303545833Y-107520952D01*
X303545833Y-107663809D01*
X303498214Y-107854285D01*
X303450595Y-107949523D01*
X303355357Y-108044761D01*
X303212500Y-108092380D01*
X302974404Y-108092380D01*
X303926785Y-107187619D02*
X303974404Y-107140000D01*
X304069642Y-107092380D01*
X304307738Y-107092380D01*
X304402976Y-107140000D01*
X304450595Y-107187619D01*
X304498214Y-107282857D01*
X304498214Y-107378095D01*
X304450595Y-107520952D01*
X303879166Y-108092380D01*
X304498214Y-108092380D01*
X308148214Y-106192380D02*
X307576785Y-106192380D01*
X307862500Y-106192380D02*
X307862500Y-105192380D01*
X307767261Y-105335238D01*
X307672023Y-105430476D01*
X307576785Y-105478095D01*
X77721904Y-101092380D02*
X77721904Y-100092380D01*
X77960000Y-100092380D01*
X78102857Y-100140000D01*
X78198095Y-100235238D01*
X78245714Y-100330476D01*
X78293333Y-100520952D01*
X78293333Y-100663809D01*
X78245714Y-100854285D01*
X78198095Y-100949523D01*
X78102857Y-101044761D01*
X77960000Y-101092380D01*
X77721904Y-101092380D01*
X79198095Y-100092380D02*
X78721904Y-100092380D01*
X78674285Y-100568571D01*
X78721904Y-100520952D01*
X78817142Y-100473333D01*
X79055238Y-100473333D01*
X79150476Y-100520952D01*
X79198095Y-100568571D01*
X79245714Y-100663809D01*
X79245714Y-100901904D01*
X79198095Y-100997142D01*
X79150476Y-101044761D01*
X79055238Y-101092380D01*
X78817142Y-101092380D01*
X78721904Y-101044761D01*
X78674285Y-100997142D01*
X74595714Y-102992380D02*
X74024285Y-102992380D01*
X74310000Y-102992380D02*
X74310000Y-101992380D01*
X74214761Y-102135238D01*
X74119523Y-102230476D01*
X74024285Y-102278095D01*
X322974404Y-108092380D02*
X322974404Y-107092380D01*
X323212500Y-107092380D01*
X323355357Y-107140000D01*
X323450595Y-107235238D01*
X323498214Y-107330476D01*
X323545833Y-107520952D01*
X323545833Y-107663809D01*
X323498214Y-107854285D01*
X323450595Y-107949523D01*
X323355357Y-108044761D01*
X323212500Y-108092380D01*
X322974404Y-108092380D01*
X324402976Y-107425714D02*
X324402976Y-108092380D01*
X324164880Y-107044761D02*
X323926785Y-107759047D01*
X324545833Y-107759047D01*
X328148214Y-106192380D02*
X327576785Y-106192380D01*
X327862500Y-106192380D02*
X327862500Y-105192380D01*
X327767261Y-105335238D01*
X327672023Y-105430476D01*
X327576785Y-105478095D01*
X312974404Y-108092380D02*
X312974404Y-107092380D01*
X313212500Y-107092380D01*
X313355357Y-107140000D01*
X313450595Y-107235238D01*
X313498214Y-107330476D01*
X313545833Y-107520952D01*
X313545833Y-107663809D01*
X313498214Y-107854285D01*
X313450595Y-107949523D01*
X313355357Y-108044761D01*
X313212500Y-108092380D01*
X312974404Y-108092380D01*
X313879166Y-107092380D02*
X314498214Y-107092380D01*
X314164880Y-107473333D01*
X314307738Y-107473333D01*
X314402976Y-107520952D01*
X314450595Y-107568571D01*
X314498214Y-107663809D01*
X314498214Y-107901904D01*
X314450595Y-107997142D01*
X314402976Y-108044761D01*
X314307738Y-108092380D01*
X314022023Y-108092380D01*
X313926785Y-108044761D01*
X313879166Y-107997142D01*
X318148214Y-106192380D02*
X317576785Y-106192380D01*
X317862500Y-106192380D02*
X317862500Y-105192380D01*
X317767261Y-105335238D01*
X317672023Y-105430476D01*
X317576785Y-105478095D01*
X49990476Y-21042380D02*
X50323809Y-22042380D01*
X50657142Y-21042380D01*
X51514285Y-22042380D02*
X50942857Y-22042380D01*
X51228571Y-22042380D02*
X51228571Y-21042380D01*
X51133333Y-21185238D01*
X51038095Y-21280476D01*
X50942857Y-21328095D01*
X67721904Y-101092380D02*
X67721904Y-100092380D01*
X67960000Y-100092380D01*
X68102857Y-100140000D01*
X68198095Y-100235238D01*
X68245714Y-100330476D01*
X68293333Y-100520952D01*
X68293333Y-100663809D01*
X68245714Y-100854285D01*
X68198095Y-100949523D01*
X68102857Y-101044761D01*
X67960000Y-101092380D01*
X67721904Y-101092380D01*
X69150476Y-100092380D02*
X68960000Y-100092380D01*
X68864761Y-100140000D01*
X68817142Y-100187619D01*
X68721904Y-100330476D01*
X68674285Y-100520952D01*
X68674285Y-100901904D01*
X68721904Y-100997142D01*
X68769523Y-101044761D01*
X68864761Y-101092380D01*
X69055238Y-101092380D01*
X69150476Y-101044761D01*
X69198095Y-100997142D01*
X69245714Y-100901904D01*
X69245714Y-100663809D01*
X69198095Y-100568571D01*
X69150476Y-100520952D01*
X69055238Y-100473333D01*
X68864761Y-100473333D01*
X68769523Y-100520952D01*
X68721904Y-100568571D01*
X68674285Y-100663809D01*
X64595714Y-102992380D02*
X64024285Y-102992380D01*
X64310000Y-102992380D02*
X64310000Y-101992380D01*
X64214761Y-102135238D01*
X64119523Y-102230476D01*
X64024285Y-102278095D01*
D11*
X255738884Y-113016268D02*
X257363817Y-112729749D01*
X248393734Y-98750004D02*
X271844468Y-94615007D01*
X255452365Y-111391336D02*
X255738884Y-113016268D01*
X271844468Y-94615007D02*
X275152466Y-113375594D01*
X266182383Y-99395849D02*
X267807316Y-99109330D01*
X268196702Y-110819619D02*
X269821635Y-110533099D01*
X251701732Y-117510591D02*
X248393734Y-98750004D01*
X275152466Y-113375594D02*
X251701732Y-117510591D01*
X268093835Y-100734262D02*
X267807316Y-99109330D01*
X253724565Y-101592499D02*
X255349498Y-101305979D01*
X254011085Y-103217431D02*
X253724565Y-101592499D01*
X269821635Y-110533099D02*
X269535115Y-108908167D01*
X112403965Y-110533100D02*
X114028898Y-110819620D01*
X110381132Y-94615008D02*
X133831866Y-98750005D01*
X112690485Y-108908168D02*
X112403965Y-110533100D01*
X133831866Y-98750005D02*
X130523868Y-117510592D01*
X126876102Y-101305980D02*
X128501035Y-101592500D01*
X124861783Y-112729750D02*
X126486716Y-113016269D01*
X107073134Y-113375595D02*
X110381132Y-94615008D01*
X130523868Y-117510592D02*
X107073134Y-113375595D01*
X128214515Y-103217432D02*
X128501035Y-101592500D01*
X114418284Y-99109331D02*
X116043217Y-99395850D01*
X114131765Y-100734263D02*
X114418284Y-99109331D01*
X126486716Y-113016269D02*
X126773235Y-111391337D01*
X230286217Y-105725331D02*
X228661284Y-106011850D01*
X251701808Y-117510597D02*
X200110192Y-126607591D01*
X230572736Y-107350263D02*
X230286217Y-105725331D01*
X200110192Y-126607591D02*
X196802194Y-107847003D01*
X219842718Y-119345750D02*
X218217785Y-119632269D01*
X217828399Y-107921980D02*
X216203466Y-108208500D01*
X248393810Y-98750009D02*
X251701808Y-117510597D01*
X196802194Y-107847003D02*
X248393810Y-98750009D01*
X217931266Y-118007337D02*
X218217785Y-119632269D01*
X232300536Y-117149100D02*
X230675603Y-117435620D01*
X232014016Y-115524168D02*
X232300536Y-117149100D01*
X216203466Y-108208500D02*
X216489986Y-109833432D01*
X222907931Y-118805269D02*
X224532864Y-118518750D01*
X206182487Y-106193004D02*
X248393809Y-98750009D01*
X222621412Y-117180337D02*
X222907931Y-118805269D01*
X248393809Y-98750009D02*
X251701807Y-117510596D01*
X233351430Y-105184850D02*
X234976363Y-104898331D01*
X235365749Y-116608620D02*
X236990682Y-116322100D01*
X209490485Y-124953591D02*
X206182487Y-106193004D01*
X251701807Y-117510596D02*
X209490485Y-124953591D01*
X235262882Y-106523263D02*
X234976363Y-104898331D01*
X220893612Y-107381500D02*
X222518545Y-107094980D01*
X221180132Y-109006432D02*
X220893612Y-107381500D01*
X236990682Y-116322100D02*
X236704162Y-114697168D01*
X166022286Y-108208500D02*
X164397353Y-107921980D01*
X182115560Y-126607591D02*
X130523944Y-117510597D01*
X165735766Y-109833432D02*
X166022286Y-108208500D01*
X130523944Y-117510597D02*
X133831942Y-98750009D01*
X151550149Y-117435620D02*
X149925216Y-117149100D01*
X153564468Y-106011850D02*
X151939535Y-105725331D01*
X185423558Y-107847003D02*
X182115560Y-126607591D01*
X133831942Y-98750009D02*
X185423558Y-107847003D01*
X150211736Y-115524168D02*
X149925216Y-117149100D01*
X164007967Y-119632269D02*
X162383034Y-119345750D01*
X164294486Y-118007337D02*
X164007967Y-119632269D01*
X151939535Y-105725331D02*
X151653016Y-107350263D01*
X145235069Y-116322100D02*
X146860002Y-116608620D01*
X133831942Y-98750009D02*
X176043264Y-106193004D01*
X145521589Y-114697168D02*
X145235069Y-116322100D01*
X176043264Y-106193004D02*
X172735266Y-124953591D01*
X159707206Y-107094980D02*
X161332139Y-107381500D01*
X157692887Y-118518750D02*
X159317820Y-118805269D01*
X130523944Y-117510596D02*
X133831942Y-98750009D01*
X172735266Y-124953591D02*
X130523944Y-117510596D01*
X161045619Y-109006432D02*
X161332139Y-107381500D01*
X147249388Y-104898331D02*
X148874321Y-105184850D01*
X146962869Y-106523263D02*
X147249388Y-104898331D01*
X159317820Y-118805269D02*
X159604339Y-117180337D01*
X277527450Y-109940000D02*
X279177450Y-109940000D01*
X275152450Y-94615000D02*
X294202450Y-94615000D01*
X277527450Y-108290000D02*
X277527450Y-109940000D01*
X294202450Y-94615000D02*
X294202450Y-113665000D01*
X290177450Y-98340000D02*
X291827450Y-98340000D01*
X290177450Y-109940000D02*
X291827450Y-109940000D01*
X275152450Y-113665000D02*
X275152450Y-94615000D01*
X294202450Y-113665000D02*
X275152450Y-113665000D01*
X291827450Y-99990000D02*
X291827450Y-98340000D01*
X277527450Y-98340000D02*
X279177450Y-98340000D01*
X277527450Y-99990000D02*
X277527450Y-98340000D01*
X291827450Y-109940000D02*
X291827450Y-108290000D01*
X90398150Y-109940000D02*
X92048150Y-109940000D01*
X88023150Y-94615000D02*
X107073150Y-94615000D01*
X90398150Y-108290000D02*
X90398150Y-109940000D01*
X107073150Y-94615000D02*
X107073150Y-113665000D01*
X103048150Y-98340000D02*
X104698150Y-98340000D01*
X103048150Y-109940000D02*
X104698150Y-109940000D01*
X88023150Y-113665000D02*
X88023150Y-94615000D01*
X107073150Y-113665000D02*
X88023150Y-113665000D01*
X104698150Y-99990000D02*
X104698150Y-98340000D01*
X90398150Y-98340000D02*
X92048150Y-98340000D01*
X90398150Y-99990000D02*
X90398150Y-98340000D01*
X104698150Y-109940000D02*
X104698150Y-108290000D01*
X74656250Y-90890000D02*
X76306250Y-90890000D01*
X72281250Y-75565000D02*
X91331250Y-75565000D01*
X74656250Y-89240000D02*
X74656250Y-90890000D01*
X91331250Y-75565000D02*
X91331250Y-94615000D01*
X87306250Y-79290000D02*
X88956250Y-79290000D01*
X87306250Y-90890000D02*
X88956250Y-90890000D01*
X72281250Y-94615000D02*
X72281250Y-75565000D01*
X91331250Y-94615000D02*
X72281250Y-94615000D01*
X88956250Y-80940000D02*
X88956250Y-79290000D01*
X74656250Y-79290000D02*
X76306250Y-79290000D01*
X74656250Y-80940000D02*
X74656250Y-79290000D01*
X88956250Y-90890000D02*
X88956250Y-89240000D01*
X345656950Y-90890000D02*
X347306950Y-90890000D01*
X343281950Y-75565000D02*
X362331950Y-75565000D01*
X345656950Y-89240000D02*
X345656950Y-90890000D01*
X362331950Y-75565000D02*
X362331950Y-94615000D01*
X358306950Y-79290000D02*
X359956950Y-79290000D01*
X358306950Y-90890000D02*
X359956950Y-90890000D01*
X343281950Y-94615000D02*
X343281950Y-75565000D01*
X362331950Y-94615000D02*
X343281950Y-94615000D01*
X359956950Y-80940000D02*
X359956950Y-79290000D01*
X345656950Y-79290000D02*
X347306950Y-79290000D01*
X345656950Y-80940000D02*
X345656950Y-79290000D01*
X359956950Y-90890000D02*
X359956950Y-89240000D01*
X328988200Y-90890000D02*
X330638200Y-90890000D01*
X326613200Y-75565000D02*
X345663200Y-75565000D01*
X328988200Y-89240000D02*
X328988200Y-90890000D01*
X345663200Y-75565000D02*
X345663200Y-94615000D01*
X341638200Y-79290000D02*
X343288200Y-79290000D01*
X341638200Y-90890000D02*
X343288200Y-90890000D01*
X326613200Y-94615000D02*
X326613200Y-75565000D01*
X345663200Y-94615000D02*
X326613200Y-94615000D01*
X343288200Y-80940000D02*
X343288200Y-79290000D01*
X328988200Y-79290000D02*
X330638200Y-79290000D01*
X328988200Y-80940000D02*
X328988200Y-79290000D01*
X343288200Y-90890000D02*
X343288200Y-89240000D01*
X319463250Y-90890000D02*
X321113250Y-90890000D01*
X317088250Y-75565000D02*
X336138250Y-75565000D01*
X319463250Y-89240000D02*
X319463250Y-90890000D01*
X336138250Y-75565000D02*
X336138250Y-94615000D01*
X332113250Y-79290000D02*
X333763250Y-79290000D01*
X332113250Y-90890000D02*
X333763250Y-90890000D01*
X317088250Y-94615000D02*
X317088250Y-75565000D01*
X336138250Y-94615000D02*
X317088250Y-94615000D01*
X333763250Y-80940000D02*
X333763250Y-79290000D01*
X319463250Y-79290000D02*
X321113250Y-79290000D01*
X319463250Y-80940000D02*
X319463250Y-79290000D01*
X333763250Y-90890000D02*
X333763250Y-89240000D01*
X293269450Y-90890000D02*
X294919450Y-90890000D01*
X290894450Y-75565000D02*
X309944450Y-75565000D01*
X293269450Y-89240000D02*
X293269450Y-90890000D01*
X309944450Y-75565000D02*
X309944450Y-94615000D01*
X305919450Y-79290000D02*
X307569450Y-79290000D01*
X305919450Y-90890000D02*
X307569450Y-90890000D01*
X290894450Y-94615000D02*
X290894450Y-75565000D01*
X309944450Y-94615000D02*
X290894450Y-94615000D01*
X307569450Y-80940000D02*
X307569450Y-79290000D01*
X293269450Y-79290000D02*
X294919450Y-79290000D01*
X293269450Y-80940000D02*
X293269450Y-79290000D01*
X307569450Y-90890000D02*
X307569450Y-89240000D01*
X274219450Y-90889999D02*
X275869450Y-90889999D01*
X271844450Y-75564999D02*
X290894450Y-75564999D01*
X274219450Y-89239999D02*
X274219450Y-90889999D01*
X290894450Y-75564999D02*
X290894450Y-94614999D01*
X286869450Y-79289999D02*
X288519450Y-79289999D01*
X286869450Y-90889999D02*
X288519450Y-90889999D01*
X271844450Y-94614999D02*
X271844450Y-75564999D01*
X290894450Y-94614999D02*
X271844450Y-94614999D01*
X288519450Y-80939999D02*
X288519450Y-79289999D01*
X274219450Y-79289999D02*
X275869450Y-79289999D01*
X274219450Y-80939999D02*
X274219450Y-79289999D01*
X288519450Y-90889999D02*
X288519450Y-89239999D01*
X254776034Y-93842168D02*
X256400967Y-93555649D01*
X249775957Y-79162404D02*
X268536545Y-75854406D01*
X254489515Y-92217236D02*
X254776034Y-93842168D01*
X268536545Y-75854406D02*
X271844543Y-94614994D01*
X265219533Y-80221749D02*
X266844466Y-79935230D01*
X267233852Y-91645519D02*
X268858785Y-91358999D01*
X253083955Y-97922992D02*
X249775957Y-79162404D01*
X271844543Y-94614994D02*
X253083955Y-97922992D01*
X267130985Y-81560162D02*
X266844466Y-79935230D01*
X252761715Y-82418399D02*
X254386648Y-82131879D01*
X253048235Y-84043331D02*
X252761715Y-82418399D01*
X268858785Y-91358999D02*
X268572265Y-89734067D01*
X236015434Y-97150168D02*
X237640367Y-96863649D01*
X231015357Y-82470404D02*
X249775945Y-79162406D01*
X235728915Y-95525236D02*
X236015434Y-97150168D01*
X249775945Y-79162406D02*
X253083943Y-97922994D01*
X246458933Y-83529749D02*
X248083866Y-83243230D01*
X248473252Y-94953519D02*
X250098185Y-94666999D01*
X234323355Y-101230992D02*
X231015357Y-82470404D01*
X253083943Y-97922994D02*
X234323355Y-101230992D01*
X248370385Y-84868162D02*
X248083866Y-83243230D01*
X234001115Y-85726399D02*
X235626048Y-85439879D01*
X234287635Y-87351331D02*
X234001115Y-85726399D01*
X250098185Y-94666999D02*
X249811665Y-93042067D01*
X217254834Y-100458168D02*
X218879767Y-100171649D01*
X212254757Y-85778404D02*
X231015345Y-82470406D01*
X216968315Y-98833236D02*
X217254834Y-100458168D01*
X231015345Y-82470406D02*
X234323343Y-101230994D01*
X227698333Y-86837749D02*
X229323266Y-86551230D01*
X229712652Y-98261519D02*
X231337585Y-97974999D01*
X215562755Y-104538992D02*
X212254757Y-85778404D01*
X234323343Y-101230994D02*
X215562755Y-104538992D01*
X229609785Y-88176162D02*
X229323266Y-86551230D01*
X215240515Y-89034399D02*
X216865448Y-88747879D01*
X215527035Y-90659331D02*
X215240515Y-89034399D01*
X231337585Y-97974999D02*
X231051065Y-96350067D01*
X198494234Y-103766169D02*
X200119167Y-103479650D01*
X193494157Y-89086405D02*
X212254745Y-85778407D01*
X198207715Y-102141237D02*
X198494234Y-103766169D01*
X212254745Y-85778407D02*
X215562743Y-104538995D01*
X208937733Y-90145750D02*
X210562666Y-89859231D01*
X210952052Y-101569520D02*
X212576985Y-101283000D01*
X196802155Y-107846993D02*
X193494157Y-89086405D01*
X215562743Y-104538995D02*
X196802155Y-107846993D01*
X210849185Y-91484163D02*
X210562666Y-89859231D01*
X196479915Y-92342400D02*
X198104848Y-92055880D01*
X196766435Y-93967332D02*
X196479915Y-92342400D01*
X212576985Y-101283000D02*
X212290465Y-99658068D01*
X169648715Y-101283000D02*
X171273648Y-101569520D01*
X169970955Y-85778407D02*
X188731543Y-89086405D01*
X169935235Y-99658068D02*
X169648715Y-101283000D01*
X188731543Y-89086405D02*
X185423545Y-107846993D01*
X184120852Y-92055880D02*
X185745785Y-92342400D01*
X182106533Y-103479650D02*
X183731466Y-103766169D01*
X166662957Y-104538995D02*
X169970955Y-85778407D01*
X185423545Y-107846993D02*
X166662957Y-104538995D01*
X185459265Y-93967332D02*
X185745785Y-92342400D01*
X171663034Y-89859231D02*
X173287967Y-90145750D01*
X171376515Y-91484163D02*
X171663034Y-89859231D01*
X183731466Y-103766169D02*
X184017985Y-102141237D01*
X150888115Y-97975000D02*
X152513048Y-98261520D01*
X151210355Y-82470407D02*
X169970943Y-85778405D01*
X151174635Y-96350068D02*
X150888115Y-97975000D01*
X169970943Y-85778405D02*
X166662945Y-104538993D01*
X165360252Y-88747880D02*
X166985185Y-89034400D01*
X163345933Y-100171650D02*
X164970866Y-100458169D01*
X147902357Y-101230995D02*
X151210355Y-82470407D01*
X166662945Y-104538993D02*
X147902357Y-101230995D01*
X166698665Y-90659332D02*
X166985185Y-89034400D01*
X152902434Y-86551231D02*
X154527367Y-86837750D01*
X152615915Y-88176163D02*
X152902434Y-86551231D01*
X164970866Y-100458169D02*
X165257385Y-98833237D01*
X132127515Y-94667000D02*
X133752448Y-94953520D01*
X132449755Y-79162407D02*
X151210343Y-82470405D01*
X132414035Y-93042068D02*
X132127515Y-94667000D01*
X151210343Y-82470405D02*
X147902345Y-101230993D01*
X146599652Y-85439880D02*
X148224585Y-85726400D01*
X144585333Y-96863650D02*
X146210266Y-97150169D01*
X129141757Y-97922995D02*
X132449755Y-79162407D01*
X147902345Y-101230993D02*
X129141757Y-97922995D01*
X147938065Y-87351332D02*
X148224585Y-85726400D01*
X134141834Y-83243231D02*
X135766767Y-83529750D01*
X133855315Y-84868163D02*
X134141834Y-83243231D01*
X146210266Y-97150169D02*
X146496785Y-95525237D01*
X113366915Y-91359000D02*
X114991848Y-91645520D01*
X113689155Y-75854407D02*
X132449743Y-79162405D01*
X113653435Y-89734068D02*
X113366915Y-91359000D01*
X132449743Y-79162405D02*
X129141745Y-97922993D01*
X127839052Y-82131880D02*
X129463985Y-82418400D01*
X125824733Y-93555650D02*
X127449666Y-93842169D01*
X110381157Y-94614995D02*
X113689155Y-75854407D01*
X129141745Y-97922993D02*
X110381157Y-94614995D01*
X129177465Y-84043332D02*
X129463985Y-82418400D01*
X115381234Y-79935231D02*
X117006167Y-80221750D01*
X115094715Y-81560163D02*
X115381234Y-79935231D01*
X127449666Y-93842169D02*
X127736185Y-92217237D01*
X93706150Y-90890000D02*
X95356150Y-90890000D01*
X91331150Y-75565000D02*
X110381150Y-75565000D01*
X93706150Y-89240000D02*
X93706150Y-90890000D01*
X110381150Y-75565000D02*
X110381150Y-94615000D01*
X106356150Y-79290000D02*
X108006150Y-79290000D01*
X106356150Y-90890000D02*
X108006150Y-90890000D01*
X91331150Y-94615000D02*
X91331150Y-75565000D01*
X110381150Y-94615000D02*
X91331150Y-94615000D01*
X108006150Y-80940000D02*
X108006150Y-79290000D01*
X93706150Y-79290000D02*
X95356150Y-79290000D01*
X93706150Y-80940000D02*
X93706150Y-79290000D01*
X108006150Y-90890000D02*
X108006150Y-89240000D01*
X53225000Y-90890000D02*
X54875000Y-90890000D01*
X50850000Y-75565000D02*
X69900000Y-75565000D01*
X53225000Y-89240000D02*
X53225000Y-90890000D01*
X69900000Y-75565000D02*
X69900000Y-94615000D01*
X65875000Y-79290000D02*
X67525000Y-79290000D01*
X65875000Y-90890000D02*
X67525000Y-90890000D01*
X50850000Y-94615000D02*
X50850000Y-75565000D01*
X69900000Y-94615000D02*
X50850000Y-94615000D01*
X67525000Y-80940000D02*
X67525000Y-79290000D01*
X53225000Y-79290000D02*
X54875000Y-79290000D01*
X53225000Y-80940000D02*
X53225000Y-79290000D01*
X67525000Y-90890000D02*
X67525000Y-89240000D01*
X62749900Y-90890000D02*
X64399900Y-90890000D01*
X60374900Y-75565000D02*
X79424900Y-75565000D01*
X62749900Y-89240000D02*
X62749900Y-90890000D01*
X79424900Y-75565000D02*
X79424900Y-94615000D01*
X75399900Y-79290000D02*
X77049900Y-79290000D01*
X75399900Y-90890000D02*
X77049900Y-90890000D01*
X60374900Y-94615000D02*
X60374900Y-75565000D01*
X79424900Y-94615000D02*
X60374900Y-94615000D01*
X77049900Y-80940000D02*
X77049900Y-79290000D01*
X62749900Y-79290000D02*
X64399900Y-79290000D01*
X62749900Y-80940000D02*
X62749900Y-79290000D01*
X77049900Y-90890000D02*
X77049900Y-89240000D01*
X22159552Y-90890000D02*
X23809552Y-90890000D01*
X19784552Y-75565000D02*
X38834552Y-75565000D01*
X22159552Y-89240000D02*
X22159552Y-90890000D01*
X38834552Y-75565000D02*
X38834552Y-94615000D01*
X34809552Y-79290000D02*
X36459552Y-79290000D01*
X34809552Y-90890000D02*
X36459552Y-90890000D01*
X19784552Y-94615000D02*
X19784552Y-75565000D01*
X38834552Y-94615000D02*
X19784552Y-94615000D01*
X36459552Y-80940000D02*
X36459552Y-79290000D01*
X22159552Y-79290000D02*
X23809552Y-79290000D01*
X22159552Y-80940000D02*
X22159552Y-79290000D01*
X36459552Y-90890000D02*
X36459552Y-89240000D01*
X336131850Y-52790000D02*
X337781850Y-52790000D01*
X333756850Y-37465000D02*
X352806850Y-37465000D01*
X336131850Y-51140000D02*
X336131850Y-52790000D01*
X352806850Y-37465000D02*
X352806850Y-56515000D01*
X348781850Y-41190000D02*
X350431850Y-41190000D01*
X348781850Y-52790000D02*
X350431850Y-52790000D01*
X333756850Y-56515000D02*
X333756850Y-37465000D01*
X352806850Y-56515000D02*
X333756850Y-56515000D01*
X350431850Y-42840000D02*
X350431850Y-41190000D01*
X336131850Y-41190000D02*
X337781850Y-41190000D01*
X336131850Y-42840000D02*
X336131850Y-41190000D01*
X350431850Y-52790000D02*
X350431850Y-51140000D01*
X331369401Y-71840000D02*
X333019401Y-71840000D01*
X328994401Y-56515000D02*
X348044401Y-56515000D01*
X331369401Y-70190000D02*
X331369401Y-71840000D01*
X348044401Y-56515000D02*
X348044401Y-75565000D01*
X344019401Y-60240000D02*
X345669401Y-60240000D01*
X344019401Y-71840000D02*
X345669401Y-71840000D01*
X328994401Y-75565000D02*
X328994401Y-56515000D01*
X348044401Y-75565000D02*
X328994401Y-75565000D01*
X345669401Y-61890000D02*
X345669401Y-60240000D01*
X331369401Y-60240000D02*
X333019401Y-60240000D01*
X331369401Y-61890000D02*
X331369401Y-60240000D01*
X345669401Y-71840000D02*
X345669401Y-70190000D01*
X300413150Y-71840000D02*
X302063150Y-71840000D01*
X298038150Y-56515000D02*
X317088150Y-56515000D01*
X300413150Y-70190000D02*
X300413150Y-71840000D01*
X317088150Y-56515000D02*
X317088150Y-75565000D01*
X313063150Y-60240000D02*
X314713150Y-60240000D01*
X313063150Y-71840000D02*
X314713150Y-71840000D01*
X298038150Y-75565000D02*
X298038150Y-56515000D01*
X317088150Y-75565000D02*
X298038150Y-75565000D01*
X314713150Y-61890000D02*
X314713150Y-60240000D01*
X300413150Y-60240000D02*
X302063150Y-60240000D01*
X300413150Y-61890000D02*
X300413150Y-60240000D01*
X314713150Y-71840000D02*
X314713150Y-70190000D01*
X281363150Y-71839999D02*
X283013150Y-71839999D01*
X278988150Y-56514999D02*
X298038150Y-56514999D01*
X281363150Y-70189999D02*
X281363150Y-71839999D01*
X298038150Y-56514999D02*
X298038150Y-75564999D01*
X294013150Y-60239999D02*
X295663150Y-60239999D01*
X294013150Y-71839999D02*
X295663150Y-71839999D01*
X278988150Y-75564999D02*
X278988150Y-56514999D01*
X298038150Y-75564999D02*
X278988150Y-75564999D01*
X295663150Y-61889999D02*
X295663150Y-60239999D01*
X281363150Y-60239999D02*
X283013150Y-60239999D01*
X281363150Y-61889999D02*
X281363150Y-60239999D01*
X295663150Y-71839999D02*
X295663150Y-70189999D01*
X261926434Y-73237468D02*
X263551367Y-72950949D01*
X256926357Y-58557704D02*
X275686945Y-55249706D01*
X261639915Y-71612536D02*
X261926434Y-73237468D01*
X275686945Y-55249706D02*
X278994943Y-74010294D01*
X272369933Y-59617049D02*
X273994866Y-59330530D01*
X274384252Y-71040819D02*
X276009185Y-70754299D01*
X260234355Y-77318292D02*
X256926357Y-58557704D01*
X278994943Y-74010294D02*
X260234355Y-77318292D01*
X274281385Y-60955462D02*
X273994866Y-59330530D01*
X259912115Y-61813699D02*
X261537048Y-61527179D01*
X260198635Y-63438631D02*
X259912115Y-61813699D01*
X276009185Y-70754299D02*
X275722665Y-69129367D01*
X243165834Y-76545469D02*
X244790767Y-76258950D01*
X238165757Y-61865705D02*
X256926345Y-58557707D01*
X242879315Y-74920537D02*
X243165834Y-76545469D01*
X256926345Y-58557707D02*
X260234343Y-77318295D01*
X253609333Y-62925050D02*
X255234266Y-62638531D01*
X255623652Y-74348820D02*
X257248585Y-74062300D01*
X241473755Y-80626293D02*
X238165757Y-61865705D01*
X260234343Y-77318295D02*
X241473755Y-80626293D01*
X255520785Y-64263463D02*
X255234266Y-62638531D01*
X241151515Y-65121700D02*
X242776448Y-64835180D01*
X241438035Y-66746632D02*
X241151515Y-65121700D01*
X257248585Y-74062300D02*
X256962065Y-72437368D01*
X224405234Y-79853468D02*
X226030167Y-79566949D01*
X219405157Y-65173704D02*
X238165745Y-61865706D01*
X224118715Y-78228536D02*
X224405234Y-79853468D01*
X238165745Y-61865706D02*
X241473743Y-80626294D01*
X234848733Y-66233049D02*
X236473666Y-65946530D01*
X236863052Y-77656819D02*
X238487985Y-77370299D01*
X222713155Y-83934292D02*
X219405157Y-65173704D01*
X241473743Y-80626294D02*
X222713155Y-83934292D01*
X236760185Y-67571462D02*
X236473666Y-65946530D01*
X222390915Y-68429699D02*
X224015848Y-68143179D01*
X222677435Y-70054631D02*
X222390915Y-68429699D01*
X238487985Y-77370299D02*
X238201465Y-75745367D01*
X205644634Y-83161469D02*
X207269567Y-82874950D01*
X200644557Y-68481705D02*
X219405145Y-65173707D01*
X205358115Y-81536537D02*
X205644634Y-83161469D01*
X219405145Y-65173707D02*
X222713143Y-83934295D01*
X216088133Y-69541050D02*
X217713066Y-69254531D01*
X218102452Y-80964820D02*
X219727385Y-80678300D01*
X203952555Y-87242293D02*
X200644557Y-68481705D01*
X222713143Y-83934295D02*
X203952555Y-87242293D01*
X217999585Y-70879463D02*
X217713066Y-69254531D01*
X203630315Y-71737700D02*
X205255248Y-71451180D01*
X203916835Y-73362632D02*
X203630315Y-71737700D01*
X219727385Y-80678300D02*
X219440865Y-79053368D01*
X162480215Y-80675100D02*
X164105148Y-80961620D01*
X162802455Y-65170507D02*
X181563043Y-68478505D01*
X162766735Y-79050168D02*
X162480215Y-80675100D01*
X181563043Y-68478505D02*
X178255045Y-87239093D01*
X176952352Y-71447980D02*
X178577285Y-71734500D01*
X174938033Y-82871750D02*
X176562966Y-83158269D01*
X159494457Y-83931095D02*
X162802455Y-65170507D01*
X178255045Y-87239093D02*
X159494457Y-83931095D01*
X178290765Y-73359432D02*
X178577285Y-71734500D01*
X164494534Y-69251331D02*
X166119467Y-69537850D01*
X164208015Y-70876263D02*
X164494534Y-69251331D01*
X176562966Y-83158269D02*
X176849485Y-81533337D01*
X143719615Y-77367100D02*
X145344548Y-77653620D01*
X144041855Y-61862507D02*
X162802443Y-65170505D01*
X144006135Y-75742168D02*
X143719615Y-77367100D01*
X162802443Y-65170505D02*
X159494445Y-83931093D01*
X158191752Y-68139980D02*
X159816685Y-68426500D01*
X156177433Y-79563750D02*
X157802366Y-79850269D01*
X140733857Y-80623095D02*
X144041855Y-61862507D01*
X159494445Y-83931093D02*
X140733857Y-80623095D01*
X159530165Y-70051432D02*
X159816685Y-68426500D01*
X145733934Y-65943331D02*
X147358867Y-66229850D01*
X145447415Y-67568263D02*
X145733934Y-65943331D01*
X157802366Y-79850269D02*
X158088885Y-78225337D01*
X124959015Y-74059100D02*
X126583948Y-74345620D01*
X125281255Y-58554507D02*
X144041843Y-61862505D01*
X125245535Y-72434168D02*
X124959015Y-74059100D01*
X144041843Y-61862505D02*
X140733845Y-80623093D01*
X139431152Y-64831980D02*
X141056085Y-65118500D01*
X137416833Y-76255750D02*
X139041766Y-76542269D01*
X121973257Y-77315095D02*
X125281255Y-58554507D01*
X140733845Y-80623093D02*
X121973257Y-77315095D01*
X140769565Y-66743432D02*
X141056085Y-65118500D01*
X126973334Y-62635331D02*
X128598267Y-62921850D01*
X126686815Y-64260263D02*
X126973334Y-62635331D01*
X139041766Y-76542269D02*
X139328285Y-74917337D01*
X106198415Y-70751100D02*
X107823348Y-71037620D01*
X106520655Y-55246507D02*
X125281243Y-58554505D01*
X106484935Y-69126168D02*
X106198415Y-70751100D01*
X125281243Y-58554505D02*
X121973245Y-77315093D01*
X120670552Y-61523980D02*
X122295485Y-61810500D01*
X118656233Y-72947750D02*
X120281166Y-73234269D01*
X103212657Y-74007095D02*
X106520655Y-55246507D01*
X121973245Y-77315093D02*
X103212657Y-74007095D01*
X122008965Y-63435432D02*
X122295485Y-61810500D01*
X108212734Y-59327331D02*
X109837667Y-59613850D01*
X107926215Y-60952263D02*
X108212734Y-59327331D01*
X120281166Y-73234269D02*
X120567685Y-71609337D01*
X86562450Y-71840000D02*
X88212450Y-71840000D01*
X84187450Y-56515000D02*
X103237450Y-56515000D01*
X86562450Y-70190000D02*
X86562450Y-71840000D01*
X103237450Y-56515000D02*
X103237450Y-75565000D01*
X99212450Y-60240000D02*
X100862450Y-60240000D01*
X99212450Y-71840000D02*
X100862450Y-71840000D01*
X84187450Y-75565000D02*
X84187450Y-56515000D01*
X103237450Y-75565000D02*
X84187450Y-75565000D01*
X100862450Y-61890000D02*
X100862450Y-60240000D01*
X86562450Y-60240000D02*
X88212450Y-60240000D01*
X86562450Y-61890000D02*
X86562450Y-60240000D01*
X100862450Y-71840000D02*
X100862450Y-70190000D01*
X60368750Y-71840000D02*
X62018750Y-71840000D01*
X57993750Y-56515000D02*
X77043750Y-56515000D01*
X60368750Y-70190000D02*
X60368750Y-71840000D01*
X77043750Y-56515000D02*
X77043750Y-75565000D01*
X73018750Y-60240000D02*
X74668750Y-60240000D01*
X73018750Y-71840000D02*
X74668750Y-71840000D01*
X57993750Y-75565000D02*
X57993750Y-56515000D01*
X77043750Y-75565000D02*
X57993750Y-75565000D01*
X74668750Y-61890000D02*
X74668750Y-60240000D01*
X60368750Y-60240000D02*
X62018750Y-60240000D01*
X60368750Y-61890000D02*
X60368750Y-60240000D01*
X74668750Y-71840000D02*
X74668750Y-70190000D01*
X24540852Y-71840000D02*
X26190852Y-71840000D01*
X22165852Y-56515000D02*
X41215852Y-56515000D01*
X24540852Y-70190000D02*
X24540852Y-71840000D01*
X41215852Y-56515000D02*
X41215852Y-75565000D01*
X37190852Y-60240000D02*
X38840852Y-60240000D01*
X37190852Y-71840000D02*
X38840852Y-71840000D01*
X22165852Y-75565000D02*
X22165852Y-56515000D01*
X41215852Y-75565000D02*
X22165852Y-75565000D01*
X38840852Y-61890000D02*
X38840852Y-60240000D01*
X24540852Y-60240000D02*
X26190852Y-60240000D01*
X24540852Y-61890000D02*
X24540852Y-60240000D01*
X38840852Y-71840000D02*
X38840852Y-70190000D01*
X338513051Y-33740000D02*
X340163051Y-33740000D01*
X336138051Y-18415000D02*
X355188051Y-18415000D01*
X338513051Y-32090000D02*
X338513051Y-33740000D01*
X355188051Y-18415000D02*
X355188051Y-37465000D01*
X351163051Y-22140000D02*
X352813051Y-22140000D01*
X351163051Y-33740000D02*
X352813051Y-33740000D01*
X336138051Y-37465000D02*
X336138051Y-18415000D01*
X355188051Y-37465000D02*
X336138051Y-37465000D01*
X352813051Y-23790000D02*
X352813051Y-22140000D01*
X338513051Y-22140000D02*
X340163051Y-22140000D01*
X338513051Y-23790000D02*
X338513051Y-22140000D01*
X352813051Y-33740000D02*
X352813051Y-32090000D01*
X312319350Y-52790000D02*
X313969350Y-52790000D01*
X309944350Y-37465000D02*
X328994350Y-37465000D01*
X312319350Y-51140000D02*
X312319350Y-52790000D01*
X328994350Y-37465000D02*
X328994350Y-56515000D01*
X324969350Y-41190000D02*
X326619350Y-41190000D01*
X324969350Y-52790000D02*
X326619350Y-52790000D01*
X309944350Y-56515000D02*
X309944350Y-37465000D01*
X328994350Y-56515000D02*
X309944350Y-56515000D01*
X326619350Y-42840000D02*
X326619350Y-41190000D01*
X312319350Y-41190000D02*
X313969350Y-41190000D01*
X312319350Y-42840000D02*
X312319350Y-41190000D01*
X326619350Y-52790000D02*
X326619350Y-51140000D01*
X293269350Y-52790000D02*
X294919350Y-52790000D01*
X290894350Y-37465000D02*
X309944350Y-37465000D01*
X293269350Y-51140000D02*
X293269350Y-52790000D01*
X309944350Y-37465000D02*
X309944350Y-56515000D01*
X305919350Y-41190000D02*
X307569350Y-41190000D01*
X305919350Y-52790000D02*
X307569350Y-52790000D01*
X290894350Y-56515000D02*
X290894350Y-37465000D01*
X309944350Y-56515000D02*
X290894350Y-56515000D01*
X307569350Y-42840000D02*
X307569350Y-41190000D01*
X293269350Y-41190000D02*
X294919350Y-41190000D01*
X293269350Y-42840000D02*
X293269350Y-41190000D01*
X307569350Y-52790000D02*
X307569350Y-51140000D01*
X274219350Y-51729500D02*
X275869350Y-51729500D01*
X271844350Y-36404500D02*
X290894350Y-36404500D01*
X274219350Y-50079500D02*
X274219350Y-51729500D01*
X290894350Y-36404500D02*
X290894350Y-55454500D01*
X286869350Y-40129500D02*
X288519350Y-40129500D01*
X286869350Y-51729500D02*
X288519350Y-51729500D01*
X271844350Y-55454500D02*
X271844350Y-36404500D01*
X290894350Y-55454500D02*
X271844350Y-55454500D01*
X288519350Y-41779500D02*
X288519350Y-40129500D01*
X274219350Y-40129500D02*
X275869350Y-40129500D01*
X274219350Y-41779500D02*
X274219350Y-40129500D01*
X288519350Y-51729500D02*
X288519350Y-50079500D01*
X254796035Y-55150868D02*
X256420968Y-54864349D01*
X249795958Y-40471104D02*
X268556546Y-37163106D01*
X254509516Y-53525936D02*
X254796035Y-55150868D01*
X268556546Y-37163106D02*
X271864544Y-55923694D01*
X265239534Y-41530449D02*
X266864467Y-41243930D01*
X267253853Y-52954219D02*
X268878786Y-52667699D01*
X253103956Y-59231692D02*
X249795958Y-40471104D01*
X271864544Y-55923694D02*
X253103956Y-59231692D01*
X267150986Y-42868862D02*
X266864467Y-41243930D01*
X252781716Y-43727099D02*
X254406649Y-43440579D01*
X253068236Y-45352031D02*
X252781716Y-43727099D01*
X268878786Y-52667699D02*
X268592266Y-51042767D01*
X236035435Y-58458868D02*
X237660368Y-58172349D01*
X231035358Y-43779104D02*
X249795946Y-40471106D01*
X235748916Y-56833936D02*
X236035435Y-58458868D01*
X249795946Y-40471106D02*
X253103944Y-59231694D01*
X246478934Y-44838449D02*
X248103867Y-44551930D01*
X248493253Y-56262219D02*
X250118186Y-55975699D01*
X234343356Y-62539692D02*
X231035358Y-43779104D01*
X253103944Y-59231694D02*
X234343356Y-62539692D01*
X248390386Y-46176862D02*
X248103867Y-44551930D01*
X234021116Y-47035099D02*
X235646049Y-46748579D01*
X234307636Y-48660031D02*
X234021116Y-47035099D01*
X250118186Y-55975699D02*
X249831666Y-54350767D01*
X217274835Y-61766869D02*
X218899768Y-61480350D01*
X212274758Y-47087105D02*
X231035346Y-43779107D01*
X216988316Y-60141937D02*
X217274835Y-61766869D01*
X231035346Y-43779107D02*
X234343344Y-62539695D01*
X227718334Y-48146450D02*
X229343267Y-47859931D01*
X229732653Y-59570220D02*
X231357586Y-59283700D01*
X215582756Y-65847693D02*
X212274758Y-47087105D01*
X234343344Y-62539695D02*
X215582756Y-65847693D01*
X229629786Y-49484863D02*
X229343267Y-47859931D01*
X215260516Y-50343100D02*
X216885449Y-50056580D01*
X215547036Y-51968032D02*
X215260516Y-50343100D01*
X231357586Y-59283700D02*
X231071066Y-57658768D01*
X198514234Y-65074869D02*
X200139167Y-64788350D01*
X193514157Y-50395105D02*
X212274745Y-47087107D01*
X198227715Y-63449937D02*
X198514234Y-65074869D01*
X212274745Y-47087107D02*
X215582743Y-65847695D01*
X208957733Y-51454450D02*
X210582666Y-51167931D01*
X210972052Y-62878220D02*
X212596985Y-62591700D01*
X196822155Y-69155693D02*
X193514157Y-50395105D01*
X215582743Y-65847695D02*
X196822155Y-69155693D01*
X210869185Y-52792863D02*
X210582666Y-51167931D01*
X196499915Y-53651100D02*
X198124848Y-53364580D01*
X196786435Y-55276032D02*
X196499915Y-53651100D01*
X212596985Y-62591700D02*
X212310465Y-60966768D01*
X160124015Y-60915799D02*
X161748948Y-61202319D01*
X160446255Y-45411206D02*
X179206843Y-48719204D01*
X160410535Y-59290867D02*
X160124015Y-60915799D01*
X179206843Y-48719204D02*
X175898845Y-67479792D01*
X174596152Y-51688679D02*
X176221085Y-51975199D01*
X172581833Y-63112449D02*
X174206766Y-63398968D01*
X157138257Y-64171794D02*
X160446255Y-45411206D01*
X175898845Y-67479792D02*
X157138257Y-64171794D01*
X175934565Y-53600131D02*
X176221085Y-51975199D01*
X162138334Y-49492030D02*
X163763267Y-49778549D01*
X161851815Y-51116962D02*
X162138334Y-49492030D01*
X174206766Y-63398968D02*
X174493285Y-61774036D01*
X141363415Y-57607800D02*
X142988348Y-57894320D01*
X141685655Y-42103207D02*
X160446243Y-45411205D01*
X141649935Y-55982868D02*
X141363415Y-57607800D01*
X160446243Y-45411205D02*
X157138245Y-64171793D01*
X155835552Y-48380680D02*
X157460485Y-48667200D01*
X153821233Y-59804450D02*
X155446166Y-60090969D01*
X138377657Y-60863795D02*
X141685655Y-42103207D01*
X157138245Y-64171793D02*
X138377657Y-60863795D01*
X157173965Y-50292132D02*
X157460485Y-48667200D01*
X143377734Y-46184031D02*
X145002667Y-46470550D01*
X143091215Y-47808963D02*
X143377734Y-46184031D01*
X155446166Y-60090969D02*
X155732685Y-58466037D01*
X122602815Y-54299800D02*
X124227748Y-54586320D01*
X122925055Y-38795207D02*
X141685643Y-42103205D01*
X122889335Y-52674868D02*
X122602815Y-54299800D01*
X141685643Y-42103205D02*
X138377645Y-60863793D01*
X137074952Y-45072680D02*
X138699885Y-45359200D01*
X135060633Y-56496450D02*
X136685566Y-56782969D01*
X119617057Y-57555795D02*
X122925055Y-38795207D01*
X138377645Y-60863793D02*
X119617057Y-57555795D01*
X138413365Y-46984132D02*
X138699885Y-45359200D01*
X124617134Y-42876031D02*
X126242067Y-43162550D01*
X124330615Y-44500963D02*
X124617134Y-42876031D01*
X136685566Y-56782969D02*
X136972085Y-55158037D01*
X103842240Y-50991800D02*
X105467173Y-51278320D01*
X104164480Y-35487207D02*
X122925068Y-38795205D01*
X104128760Y-49366868D02*
X103842240Y-50991800D01*
X122925068Y-38795205D02*
X119617070Y-57555793D01*
X118314377Y-41764680D02*
X119939310Y-42051200D01*
X116300058Y-53188450D02*
X117924991Y-53474969D01*
X100856482Y-54247795D02*
X104164480Y-35487207D01*
X119617070Y-57555793D02*
X100856482Y-54247795D01*
X119652790Y-43676132D02*
X119939310Y-42051200D01*
X105856559Y-39568031D02*
X107481492Y-39854550D01*
X105570040Y-41192963D02*
X105856559Y-39568031D01*
X117924991Y-53474969D02*
X118211510Y-51850037D01*
X84181250Y-52790000D02*
X85831250Y-52790000D01*
X81806250Y-37465000D02*
X100856250Y-37465000D01*
X84181250Y-51140000D02*
X84181250Y-52790000D01*
X100856250Y-37465000D02*
X100856250Y-56515000D01*
X96831250Y-41190000D02*
X98481250Y-41190000D01*
X96831250Y-52790000D02*
X98481250Y-52790000D01*
X81806250Y-56515000D02*
X81806250Y-37465000D01*
X100856250Y-56515000D02*
X81806250Y-56515000D01*
X98481250Y-42840000D02*
X98481250Y-41190000D01*
X84181250Y-41190000D02*
X85831250Y-41190000D01*
X84181250Y-42840000D02*
X84181250Y-41190000D01*
X98481250Y-52790000D02*
X98481250Y-51140000D01*
X60368750Y-52790000D02*
X62018750Y-52790000D01*
X57993750Y-37465000D02*
X77043750Y-37465000D01*
X60368750Y-51140000D02*
X60368750Y-52790000D01*
X77043750Y-37465000D02*
X77043750Y-56515000D01*
X73018750Y-41190000D02*
X74668750Y-41190000D01*
X73018750Y-52790000D02*
X74668750Y-52790000D01*
X57993750Y-56515000D02*
X57993750Y-37465000D01*
X77043750Y-56515000D02*
X57993750Y-56515000D01*
X74668750Y-42840000D02*
X74668750Y-41190000D01*
X60368750Y-41190000D02*
X62018750Y-41190000D01*
X60368750Y-42840000D02*
X60368750Y-41190000D01*
X74668750Y-52790000D02*
X74668750Y-51140000D01*
X26922152Y-52790000D02*
X28572152Y-52790000D01*
X24547152Y-37465000D02*
X43597152Y-37465000D01*
X26922152Y-51140000D02*
X26922152Y-52790000D01*
X43597152Y-37465000D02*
X43597152Y-56515000D01*
X39572152Y-41190000D02*
X41222152Y-41190000D01*
X39572152Y-52790000D02*
X41222152Y-52790000D01*
X24547152Y-56515000D02*
X24547152Y-37465000D01*
X43597152Y-56515000D02*
X24547152Y-56515000D01*
X41222152Y-42840000D02*
X41222152Y-41190000D01*
X26922152Y-41190000D02*
X28572152Y-41190000D01*
X26922152Y-42840000D02*
X26922152Y-41190000D01*
X41222152Y-52790000D02*
X41222152Y-51140000D01*
X328988051Y-33740000D02*
X330638051Y-33740000D01*
X326613051Y-18415000D02*
X345663051Y-18415000D01*
X328988051Y-32090000D02*
X328988051Y-33740000D01*
X345663051Y-18415000D02*
X345663051Y-37465000D01*
X341638051Y-22140000D02*
X343288051Y-22140000D01*
X341638051Y-33740000D02*
X343288051Y-33740000D01*
X326613051Y-37465000D02*
X326613051Y-18415000D01*
X345663051Y-37465000D02*
X326613051Y-37465000D01*
X343288051Y-23790000D02*
X343288051Y-22140000D01*
X328988051Y-22140000D02*
X330638051Y-22140000D01*
X328988051Y-23790000D02*
X328988051Y-22140000D01*
X343288051Y-33740000D02*
X343288051Y-32090000D01*
X319463051Y-33740000D02*
X321113051Y-33740000D01*
X317088051Y-18415000D02*
X336138051Y-18415000D01*
X319463051Y-32090000D02*
X319463051Y-33740000D01*
X336138051Y-18415000D02*
X336138051Y-37465000D01*
X332113051Y-22140000D02*
X333763051Y-22140000D01*
X332113051Y-33740000D02*
X333763051Y-33740000D01*
X317088051Y-37465000D02*
X317088051Y-18415000D01*
X336138051Y-37465000D02*
X317088051Y-37465000D01*
X333763051Y-23790000D02*
X333763051Y-22140000D01*
X319463051Y-22140000D02*
X321113051Y-22140000D01*
X319463051Y-23790000D02*
X319463051Y-22140000D01*
X333763051Y-33740000D02*
X333763051Y-32090000D01*
X300413051Y-33740000D02*
X302063051Y-33740000D01*
X298038051Y-18415000D02*
X317088051Y-18415000D01*
X300413051Y-32090000D02*
X300413051Y-33740000D01*
X317088051Y-18415000D02*
X317088051Y-37465000D01*
X313063051Y-22140000D02*
X314713051Y-22140000D01*
X313063051Y-33740000D02*
X314713051Y-33740000D01*
X298038051Y-37465000D02*
X298038051Y-18415000D01*
X317088051Y-37465000D02*
X298038051Y-37465000D01*
X314713051Y-23790000D02*
X314713051Y-22140000D01*
X300413051Y-22140000D02*
X302063051Y-22140000D01*
X300413051Y-23790000D02*
X300413051Y-22140000D01*
X314713051Y-33740000D02*
X314713051Y-32090000D01*
X281363050Y-31799800D02*
X283013050Y-31799800D01*
X278988050Y-16474800D02*
X298038050Y-16474800D01*
X281363050Y-30149800D02*
X281363050Y-31799800D01*
X298038050Y-16474800D02*
X298038050Y-35524800D01*
X294013050Y-20199800D02*
X295663050Y-20199800D01*
X294013050Y-31799800D02*
X295663050Y-31799800D01*
X278988050Y-35524800D02*
X278988050Y-16474800D01*
X298038050Y-35524800D02*
X278988050Y-35524800D01*
X295663050Y-21849800D02*
X295663050Y-20199800D01*
X281363050Y-20199800D02*
X283013050Y-20199800D01*
X281363050Y-21849800D02*
X281363050Y-20199800D01*
X295663050Y-31799800D02*
X295663050Y-30149800D01*
X261971134Y-34541770D02*
X263596067Y-34255251D01*
X256971057Y-19862006D02*
X275731645Y-16554008D01*
X261684615Y-32916838D02*
X261971134Y-34541770D01*
X275731645Y-16554008D02*
X279039643Y-35314596D01*
X272414633Y-20921351D02*
X274039566Y-20634832D01*
X274428952Y-32345121D02*
X276053885Y-32058601D01*
X260279055Y-38622594D02*
X256971057Y-19862006D01*
X279039643Y-35314596D02*
X260279055Y-38622594D01*
X274326085Y-22259764D02*
X274039566Y-20634832D01*
X259956815Y-23118001D02*
X261581748Y-22831481D01*
X260243335Y-24742933D02*
X259956815Y-23118001D01*
X276053885Y-32058601D02*
X275767365Y-30433669D01*
X243210535Y-37849768D02*
X244835468Y-37563249D01*
X238210458Y-23170004D02*
X256971046Y-19862006D01*
X242924016Y-36224836D02*
X243210535Y-37849768D01*
X256971046Y-19862006D02*
X260279044Y-38622594D01*
X253654034Y-24229349D02*
X255278967Y-23942830D01*
X255668353Y-35653119D02*
X257293286Y-35366599D01*
X241518456Y-41930592D02*
X238210458Y-23170004D01*
X260279044Y-38622594D02*
X241518456Y-41930592D01*
X255565486Y-25567762D02*
X255278967Y-23942830D01*
X241196216Y-26425999D02*
X242821149Y-26139479D01*
X241482736Y-28050931D02*
X241196216Y-26425999D01*
X257293286Y-35366599D02*
X257006766Y-33741667D01*
X224449934Y-41157769D02*
X226074867Y-40871250D01*
X219449857Y-26478005D02*
X238210445Y-23170007D01*
X224163415Y-39532837D02*
X224449934Y-41157769D01*
X238210445Y-23170007D02*
X241518443Y-41930595D01*
X234893433Y-27537350D02*
X236518366Y-27250831D01*
X236907752Y-38961120D02*
X238532685Y-38674600D01*
X222757855Y-45238593D02*
X219449857Y-26478005D01*
X241518443Y-41930595D02*
X222757855Y-45238593D01*
X236804885Y-28875763D02*
X236518366Y-27250831D01*
X222435615Y-29734000D02*
X224060548Y-29447480D01*
X222722135Y-31358932D02*
X222435615Y-29734000D01*
X238532685Y-38674600D02*
X238246165Y-37049668D01*
X205689335Y-44465769D02*
X207314268Y-44179250D01*
X200689258Y-29786005D02*
X219449846Y-26478007D01*
X205402816Y-42840837D02*
X205689335Y-44465769D01*
X219449846Y-26478007D02*
X222757844Y-45238595D01*
X216132834Y-30845350D02*
X217757767Y-30558831D01*
X218147153Y-42269120D02*
X219772086Y-41982600D01*
X203997256Y-48546593D02*
X200689258Y-29786005D01*
X222757844Y-45238595D02*
X203997256Y-48546593D01*
X218044286Y-32183763D02*
X217757767Y-30558831D01*
X203675016Y-33042000D02*
X205299949Y-32755480D01*
X203961536Y-34666932D02*
X203675016Y-33042000D01*
X219772086Y-41982600D02*
X219485566Y-40357668D01*
X171755115Y-43622800D02*
X173380048Y-43909320D01*
X172077355Y-28118207D02*
X190837943Y-31426205D01*
X172041635Y-41997868D02*
X171755115Y-43622800D01*
X190837943Y-31426205D02*
X187529945Y-50186793D01*
X186227252Y-34395680D02*
X187852185Y-34682200D01*
X184212933Y-45819450D02*
X185837866Y-46105969D01*
X168769357Y-46878795D02*
X172077355Y-28118207D01*
X187529945Y-50186793D02*
X168769357Y-46878795D01*
X187565665Y-36307132D02*
X187852185Y-34682200D01*
X173769434Y-32199031D02*
X175394367Y-32485550D01*
X173482915Y-33823963D02*
X173769434Y-32199031D01*
X185837866Y-46105969D02*
X186124385Y-44481037D01*
X152994515Y-40314800D02*
X154619448Y-40601320D01*
X153316755Y-24810207D02*
X172077343Y-28118205D01*
X153281035Y-38689868D02*
X152994515Y-40314800D01*
X172077343Y-28118205D02*
X168769345Y-46878793D01*
X167466652Y-31087680D02*
X169091585Y-31374200D01*
X165452333Y-42511450D02*
X167077266Y-42797969D01*
X150008757Y-43570795D02*
X153316755Y-24810207D01*
X168769345Y-46878793D02*
X150008757Y-43570795D01*
X168805065Y-32999132D02*
X169091585Y-31374200D01*
X155008834Y-28891031D02*
X156633767Y-29177550D01*
X154722315Y-30515963D02*
X155008834Y-28891031D01*
X167077266Y-42797969D02*
X167363785Y-41173037D01*
X134233916Y-37006800D02*
X135858849Y-37293320D01*
X134556156Y-21502207D02*
X153316744Y-24810205D01*
X134520436Y-35381868D02*
X134233916Y-37006800D01*
X153316744Y-24810205D02*
X150008746Y-43570793D01*
X148706053Y-27779680D02*
X150330986Y-28066200D01*
X146691734Y-39203450D02*
X148316667Y-39489969D01*
X131248158Y-40262795D02*
X134556156Y-21502207D01*
X150008746Y-43570793D02*
X131248158Y-40262795D01*
X150044466Y-29691132D02*
X150330986Y-28066200D01*
X136248235Y-25583031D02*
X137873168Y-25869550D01*
X135961716Y-27207963D02*
X136248235Y-25583031D01*
X148316667Y-39489969D02*
X148603186Y-37865037D01*
X115473316Y-33698800D02*
X117098249Y-33985320D01*
X115795556Y-18194207D02*
X134556144Y-21502205D01*
X115759836Y-32073868D02*
X115473316Y-33698800D01*
X134556144Y-21502205D02*
X131248146Y-40262793D01*
X129945453Y-24471680D02*
X131570386Y-24758200D01*
X127931134Y-35895450D02*
X129556067Y-36181969D01*
X112487558Y-36954795D02*
X115795556Y-18194207D01*
X131248146Y-40262793D02*
X112487558Y-36954795D01*
X131283866Y-26383132D02*
X131570386Y-24758200D01*
X117487635Y-22275031D02*
X119112568Y-22561550D01*
X117201116Y-23899963D02*
X117487635Y-22275031D01*
X129556067Y-36181969D02*
X129842586Y-34557037D01*
X96087551Y-31799801D02*
X97737551Y-31799801D01*
X93712551Y-16474801D02*
X112762551Y-16474801D01*
X96087551Y-30149801D02*
X96087551Y-31799801D01*
X112762551Y-16474801D02*
X112762551Y-35524801D01*
X108737551Y-20199801D02*
X110387551Y-20199801D01*
X108737551Y-31799801D02*
X110387551Y-31799801D01*
X93712551Y-35524801D02*
X93712551Y-16474801D01*
X112762551Y-35524801D02*
X93712551Y-35524801D01*
X110387551Y-21849801D02*
X110387551Y-20199801D01*
X96087551Y-20199801D02*
X97737551Y-20199801D01*
X96087551Y-21849801D02*
X96087551Y-20199801D01*
X110387551Y-31799801D02*
X110387551Y-30149801D01*
X77037551Y-33740000D02*
X78687551Y-33740000D01*
X74662551Y-18415000D02*
X93712551Y-18415000D01*
X77037551Y-32090000D02*
X77037551Y-33740000D01*
X93712551Y-18415000D02*
X93712551Y-37465000D01*
X89687551Y-22140000D02*
X91337551Y-22140000D01*
X89687551Y-33740000D02*
X91337551Y-33740000D01*
X74662551Y-37465000D02*
X74662551Y-18415000D01*
X93712551Y-37465000D02*
X74662551Y-37465000D01*
X91337551Y-23790000D02*
X91337551Y-22140000D01*
X77037551Y-22140000D02*
X78687551Y-22140000D01*
X77037551Y-23790000D02*
X77037551Y-22140000D01*
X91337551Y-33740000D02*
X91337551Y-32090000D01*
X57987551Y-33740000D02*
X59637551Y-33740000D01*
X55612551Y-18415000D02*
X74662551Y-18415000D01*
X57987551Y-32090000D02*
X57987551Y-33740000D01*
X74662551Y-18415000D02*
X74662551Y-37465000D01*
X70637551Y-22140000D02*
X72287551Y-22140000D01*
X70637551Y-33740000D02*
X72287551Y-33740000D01*
X55612551Y-37465000D02*
X55612551Y-18415000D01*
X74662551Y-37465000D02*
X55612551Y-37465000D01*
X72287551Y-23790000D02*
X72287551Y-22140000D01*
X57987551Y-22140000D02*
X59637551Y-22140000D01*
X57987551Y-23790000D02*
X57987551Y-22140000D01*
X72287551Y-33740000D02*
X72287551Y-32090000D01*
X29303451Y-33740000D02*
X30953451Y-33740000D01*
X26928451Y-18415000D02*
X45978451Y-18415000D01*
X29303451Y-32090000D02*
X29303451Y-33740000D01*
X45978451Y-18415000D02*
X45978451Y-37465000D01*
X41953451Y-22140000D02*
X43603451Y-22140000D01*
X41953451Y-33740000D02*
X43603451Y-33740000D01*
X26928451Y-37465000D02*
X26928451Y-18415000D01*
X45978451Y-37465000D02*
X26928451Y-37465000D01*
X43603451Y-23790000D02*
X43603451Y-22140000D01*
X29303451Y-22140000D02*
X30953451Y-22140000D01*
X29303451Y-23790000D02*
X29303451Y-22140000D01*
X43603451Y-33740000D02*
X43603451Y-32090000D01*
X54810000Y-101390000D02*
X62110000Y-101390000D01*
X62110000Y-106890000D02*
X62110000Y-105740000D01*
X54810000Y-106890000D02*
X62110000Y-106890000D01*
D12*
X62092200Y-106883200D02*
X61482600Y-106883200D01*
X61482600Y-106883200D02*
X62092200Y-106273600D01*
X62092200Y-106273600D02*
X62092200Y-106883200D01*
G36*
X62092200Y-106883200D02*
G01*
X61482600Y-106883200D01*
X62092200Y-106273600D01*
X62092200Y-106883200D01*
G37*
X62092200Y-106883200D02*
X61482600Y-106883200D01*
X62092200Y-106273600D01*
X62092200Y-106883200D01*
D11*
X307362500Y-106890000D02*
X300062500Y-106890000D01*
X300062500Y-101390000D02*
X300062500Y-102540000D01*
X307362500Y-101390000D02*
X300062500Y-101390000D01*
D12*
X300080300Y-101396800D02*
X300689900Y-101396800D01*
X300689900Y-101396800D02*
X300080300Y-102006400D01*
X300080300Y-102006400D02*
X300080300Y-101396800D01*
G36*
X300080300Y-102006400D02*
G01*
X300080300Y-101396800D01*
X300689900Y-101396800D01*
X300080300Y-102006400D01*
G37*
X300080300Y-102006400D02*
X300080300Y-101396800D01*
X300689900Y-101396800D01*
X300080300Y-102006400D01*
D11*
X74810000Y-101390000D02*
X82110000Y-101390000D01*
X82110000Y-106890000D02*
X82110000Y-105740000D01*
X74810000Y-106890000D02*
X82110000Y-106890000D01*
D12*
X82092200Y-106883200D02*
X81482600Y-106883200D01*
X81482600Y-106883200D02*
X82092200Y-106273600D01*
X82092200Y-106273600D02*
X82092200Y-106883200D01*
G36*
X82092200Y-106883200D02*
G01*
X81482600Y-106883200D01*
X82092200Y-106273600D01*
X82092200Y-106883200D01*
G37*
X82092200Y-106883200D02*
X81482600Y-106883200D01*
X82092200Y-106273600D01*
X82092200Y-106883200D01*
D11*
X327362500Y-106890000D02*
X320062500Y-106890000D01*
X320062500Y-101390000D02*
X320062500Y-102540000D01*
X327362500Y-101390000D02*
X320062500Y-101390000D01*
D12*
X320080300Y-101396800D02*
X320689900Y-101396800D01*
X320689900Y-101396800D02*
X320080300Y-102006400D01*
X320080300Y-102006400D02*
X320080300Y-101396800D01*
G36*
X320080300Y-102006400D02*
G01*
X320080300Y-101396800D01*
X320689900Y-101396800D01*
X320080300Y-102006400D01*
G37*
X320080300Y-102006400D02*
X320080300Y-101396800D01*
X320689900Y-101396800D01*
X320080300Y-102006400D01*
D11*
X317362500Y-106890000D02*
X310062500Y-106890000D01*
X310062500Y-101390000D02*
X310062500Y-102540000D01*
X317362500Y-101390000D02*
X310062500Y-101390000D01*
D12*
X310080300Y-101396800D02*
X310689900Y-101396800D01*
X310689900Y-101396800D02*
X310080300Y-102006400D01*
X310080300Y-102006400D02*
X310080300Y-101396800D01*
G36*
X310080300Y-102006400D02*
G01*
X310080300Y-101396800D01*
X310689900Y-101396800D01*
X310080300Y-102006400D01*
G37*
X310080300Y-102006400D02*
X310080300Y-101396800D01*
X310689900Y-101396800D01*
X310080300Y-102006400D01*
D11*
X64810000Y-101390000D02*
X72110000Y-101390000D01*
X72110000Y-106890000D02*
X72110000Y-105740000D01*
X64810000Y-106890000D02*
X72110000Y-106890000D01*
D12*
X72092200Y-106883200D02*
X71482600Y-106883200D01*
X71482600Y-106883200D02*
X72092200Y-106273600D01*
X72092200Y-106273600D02*
X72092200Y-106883200D01*
G36*
X72092200Y-106883200D02*
G01*
X71482600Y-106883200D01*
X72092200Y-106273600D01*
X72092200Y-106883200D01*
G37*
X72092200Y-106883200D02*
X71482600Y-106883200D01*
X72092200Y-106273600D01*
X72092200Y-106883200D01*
%LPC*%
D13*
X258616488Y-102557688D03*
X263453703Y-101197044D03*
X118685073Y-101689449D03*
X123695936Y-102065286D03*
X227408613Y-116183911D03*
X222571398Y-117544555D03*
X225785535Y-108346689D03*
X230622750Y-106986045D03*
X159741178Y-117052151D03*
X154730315Y-116676314D03*
X151516177Y-107478449D03*
X156527040Y-107854286D03*
X282177450Y-100140000D03*
X287177450Y-99640000D03*
X95048150Y-100140000D03*
X100048150Y-99640000D03*
X79306250Y-81090000D03*
X84306250Y-80590000D03*
X350306950Y-81090000D03*
X355306950Y-80590000D03*
X333638200Y-81090000D03*
X338638200Y-80590000D03*
X324113250Y-81090000D03*
X329113250Y-80590000D03*
X297919450Y-81090000D03*
X302919450Y-80590000D03*
X278869450Y-81089999D03*
X283869450Y-80589999D03*
X257653638Y-83383588D03*
X262490853Y-82022944D03*
X238893038Y-86691588D03*
X243730253Y-85330944D03*
X220132438Y-89999588D03*
X224969653Y-88638944D03*
X201371838Y-93307589D03*
X206209053Y-91946945D03*
X175929823Y-92439349D03*
X180940686Y-92815186D03*
X157169223Y-89131349D03*
X162180086Y-89507186D03*
X138408623Y-85823349D03*
X143419486Y-86199186D03*
X119648023Y-82515349D03*
X124658886Y-82891186D03*
X98356150Y-81090000D03*
X103356150Y-80590000D03*
X57875000Y-81090000D03*
X62875000Y-80590000D03*
X67399900Y-81090000D03*
X72399900Y-80590000D03*
X26809552Y-81090000D03*
X31809552Y-80590000D03*
X340781850Y-42990000D03*
X345781850Y-42490000D03*
X336019401Y-62040000D03*
X341019401Y-61540000D03*
X305063150Y-62040000D03*
X310063150Y-61540000D03*
X286013150Y-62039999D03*
X291013150Y-61539999D03*
X264804038Y-62778888D03*
X269641253Y-61418244D03*
X246043438Y-66086889D03*
X250880653Y-64726245D03*
X227282838Y-69394888D03*
X232120053Y-68034244D03*
X208522238Y-72702889D03*
X213359453Y-71342245D03*
X168761323Y-71831449D03*
X173772186Y-72207286D03*
X150000723Y-68523449D03*
X155011586Y-68899286D03*
X131240123Y-65215449D03*
X136250986Y-65591286D03*
X112479523Y-61907449D03*
X117490386Y-62283286D03*
X91212450Y-62040000D03*
X96212450Y-61540000D03*
X65018750Y-62040000D03*
X70018750Y-61540000D03*
X29190852Y-62040000D03*
X34190852Y-61540000D03*
X343163051Y-23940000D03*
X348163051Y-23440000D03*
X316969350Y-42990000D03*
X321969350Y-42490000D03*
X297919350Y-42990000D03*
X302919350Y-42490000D03*
X278869350Y-41929500D03*
X283869350Y-41429500D03*
X257673639Y-44692288D03*
X262510854Y-43331644D03*
X238913039Y-48000288D03*
X243750254Y-46639644D03*
X220152439Y-51308289D03*
X224989654Y-49947645D03*
X201391838Y-54616289D03*
X206229053Y-53255645D03*
X166405123Y-52072148D03*
X171415986Y-52447985D03*
X147644523Y-48764149D03*
X152655386Y-49139986D03*
X128883923Y-45456149D03*
X133894786Y-45831986D03*
X110123348Y-42148149D03*
X115134211Y-42523986D03*
X88831250Y-42990000D03*
X93831250Y-42490000D03*
X65018750Y-42990000D03*
X70018750Y-42490000D03*
X31572152Y-42990000D03*
X36572152Y-42490000D03*
X333638051Y-23940000D03*
X338638051Y-23440000D03*
X324113051Y-23940000D03*
X329113051Y-23440000D03*
X305063051Y-23940000D03*
X310063051Y-23440000D03*
X286013050Y-21999800D03*
X291013050Y-21499800D03*
X264848738Y-24083190D03*
X269685953Y-22722546D03*
X246088139Y-27391188D03*
X250925354Y-26030544D03*
X227327538Y-30699189D03*
X232164753Y-29338545D03*
X208566939Y-34007189D03*
X213404154Y-32646545D03*
X178036223Y-34779149D03*
X183047086Y-35154986D03*
X159275623Y-31471149D03*
X164286486Y-31846986D03*
X140515024Y-28163149D03*
X145525887Y-28538986D03*
X121754424Y-24855149D03*
X126765287Y-25230986D03*
X100737551Y-21999801D03*
X105737551Y-21499801D03*
X81687551Y-23940000D03*
X86687551Y-23440000D03*
X62637551Y-23940000D03*
X67637551Y-23440000D03*
X33953451Y-23940000D03*
X38953451Y-23440000D03*
D14*
X56010000Y-102540000D03*
X56010000Y-105740000D03*
X60910000Y-105740000D03*
X60910000Y-102540000D03*
X306162500Y-105740000D03*
X306162500Y-102540000D03*
X301262500Y-102540000D03*
X301262500Y-105740000D03*
X76010000Y-102540000D03*
X76010000Y-105740000D03*
X80910000Y-105740000D03*
X80910000Y-102540000D03*
X326162500Y-105740000D03*
X326162500Y-102540000D03*
X321262500Y-102540000D03*
X321262500Y-105740000D03*
X316162500Y-105740000D03*
X316162500Y-102540000D03*
X311262500Y-102540000D03*
X311262500Y-105740000D03*
D15*
X50800000Y-27940000D03*
X334200000Y-104140000D03*
X48020000Y-104140000D03*
X191060000Y-105090000D03*
D16*
X179760000Y-117050000D03*
D17*
X191060000Y-72960000D03*
D16*
X202460000Y-117050000D03*
D18*
X191060000Y-83090000D03*
D17*
X46080000Y-66040000D03*
D14*
X66010000Y-102540000D03*
X66010000Y-105740000D03*
X70910000Y-105740000D03*
X70910000Y-102540000D03*
D19*
X196472434Y-37567088D03*
D20*
X196913500Y-40068500D03*
X197354567Y-42569911D03*
X197795633Y-45071323D03*
D21*
X188178500Y-27440000D03*
X193958500Y-27440000D03*
D22*
X186748500Y-27970000D03*
D23*
X195388500Y-23790000D03*
D22*
X195388500Y-27970000D03*
D23*
X186748500Y-23790000D03*
D19*
X203835000Y-43307000D03*
D20*
X201333588Y-43748066D03*
X204276066Y-45808412D03*
X201774655Y-46249478D03*
X204717133Y-48309823D03*
X202215721Y-48750890D03*
M02*
