G04 #@! TF.GenerationSoftware,KiCad,Pcbnew,(6.0.1)*
G04 #@! TF.CreationDate,2022-05-05T21:04:55+02:00*
G04 #@! TF.ProjectId,BMEK_Alps,424d454b-5f41-46c7-9073-2e6b69636164,1*
G04 #@! TF.SameCoordinates,Original*
G04 #@! TF.FileFunction,Soldermask,Bot*
G04 #@! TF.FilePolarity,Negative*
%FSLAX46Y46*%
G04 Gerber Fmt 4.6, Leading zero omitted, Abs format (unit mm)*
G04 Created by KiCad (PCBNEW (6.0.1)) date 2022-05-05 21:04:55*
%MOMM*%
%LPD*%
G01*
G04 APERTURE LIST*
G04 Aperture macros list*
%AMRoundRect*
0 Rectangle with rounded corners*
0 $1 Rounding radius*
0 $2 $3 $4 $5 $6 $7 $8 $9 X,Y pos of 4 corners*
0 Add a 4 corners polygon primitive as box body*
4,1,4,$2,$3,$4,$5,$6,$7,$8,$9,$2,$3,0*
0 Add four circle primitives for the rounded corners*
1,1,$1+$1,$2,$3*
1,1,$1+$1,$4,$5*
1,1,$1+$1,$6,$7*
1,1,$1+$1,$8,$9*
0 Add four rect primitives between the rounded corners*
20,1,$1+$1,$2,$3,$4,$5,0*
20,1,$1+$1,$4,$5,$6,$7,0*
20,1,$1+$1,$6,$7,$8,$9,0*
20,1,$1+$1,$8,$9,$2,$3,0*%
%AMHorizOval*
0 Thick line with rounded ends*
0 $1 width*
0 $2 $3 position (X,Y) of the first rounded end (center of the circle)*
0 $4 $5 position (X,Y) of the second rounded end (center of the circle)*
0 Add line between two ends*
20,1,$1,$2,$3,$4,$5,0*
0 Add two circle primitives to create the rounded ends*
1,1,$1,$2,$3*
1,1,$1,$4,$5*%
%AMRotRect*
0 Rectangle, with rotation*
0 The origin of the aperture is its center*
0 $1 length*
0 $2 width*
0 $3 Rotation angle, in degrees counterclockwise*
0 Add horizontal line*
21,1,$1,$2,0,0,$3*%
G04 Aperture macros list end*
%ADD10C,2.250000*%
%ADD11C,3.800000*%
%ADD12C,6.500000*%
%ADD13C,5.350000*%
%ADD14C,9.000000*%
%ADD15R,1.200000X0.900000*%
%ADD16RoundRect,0.218750X-0.026517X0.335876X-0.335876X0.026517X0.026517X-0.335876X0.335876X-0.026517X0*%
%ADD17RoundRect,0.218750X0.256250X-0.218750X0.256250X0.218750X-0.256250X0.218750X-0.256250X-0.218750X0*%
%ADD18RotRect,0.900000X1.200000X225.000000*%
%ADD19RoundRect,0.218750X0.335876X0.026517X0.026517X0.335876X-0.335876X-0.026517X-0.026517X-0.335876X0*%
%ADD20R,0.900000X1.200000*%
%ADD21R,0.750000X1.000000*%
%ADD22RotRect,1.500000X0.550000X225.000000*%
%ADD23RotRect,1.500000X0.550000X135.000000*%
%ADD24RoundRect,0.150000X0.600000X-0.700000X0.600000X0.700000X-0.600000X0.700000X-0.600000X-0.700000X0*%
%ADD25RoundRect,0.218750X-0.256250X0.218750X-0.256250X-0.218750X0.256250X-0.218750X0.256250X0.218750X0*%
%ADD26RotRect,1.700000X1.700000X190.000000*%
%ADD27HorizOval,1.700000X0.000000X0.000000X0.000000X0.000000X0*%
%ADD28R,1.360000X0.600000*%
%ADD29RoundRect,0.218750X0.026517X-0.335876X0.335876X-0.026517X-0.026517X0.335876X-0.335876X0.026517X0*%
%ADD30RoundRect,0.218750X-0.218750X-0.256250X0.218750X-0.256250X0.218750X0.256250X-0.218750X0.256250X0*%
%ADD31RoundRect,0.218750X0.218750X0.256250X-0.218750X0.256250X-0.218750X-0.256250X0.218750X-0.256250X0*%
%ADD32C,0.650000*%
%ADD33R,0.600000X2.050000*%
%ADD34R,0.300000X2.050000*%
%ADD35O,1.000000X2.100000*%
%ADD36O,1.000000X1.600000*%
%ADD37RoundRect,0.243750X0.456250X-0.243750X0.456250X0.243750X-0.456250X0.243750X-0.456250X-0.243750X0*%
G04 APERTURE END LIST*
D10*
X258616488Y-102557688D03*
X263453703Y-101197044D03*
X118685073Y-101689449D03*
X123695936Y-102065286D03*
X227408613Y-116183911D03*
X222571398Y-117544555D03*
X225785535Y-108346689D03*
X230622750Y-106986045D03*
X159741178Y-117052151D03*
X154730315Y-116676314D03*
X151516177Y-107478449D03*
X156527040Y-107854286D03*
X282177450Y-100140000D03*
X287177450Y-99640000D03*
X95048150Y-100140000D03*
X100048150Y-99640000D03*
X79306250Y-81090000D03*
X84306250Y-80590000D03*
X350306950Y-81090000D03*
X355306950Y-80590000D03*
X333638200Y-81090000D03*
X338638200Y-80590000D03*
X324113250Y-81090000D03*
X329113250Y-80590000D03*
X297919450Y-81090000D03*
X302919450Y-80590000D03*
X278869450Y-81089999D03*
X283869450Y-80589999D03*
X257653638Y-83383588D03*
X262490853Y-82022944D03*
X238893038Y-86691588D03*
X243730253Y-85330944D03*
X220132438Y-89999588D03*
X224969653Y-88638944D03*
X201371838Y-93307589D03*
X206209053Y-91946945D03*
X175929823Y-92439349D03*
X180940686Y-92815186D03*
X157169223Y-89131349D03*
X162180086Y-89507186D03*
X138408623Y-85823349D03*
X143419486Y-86199186D03*
X119648023Y-82515349D03*
X124658886Y-82891186D03*
X98356150Y-81090000D03*
X103356150Y-80590000D03*
X57875000Y-81090000D03*
X62875000Y-80590000D03*
X67399900Y-81090000D03*
X72399900Y-80590000D03*
X26809552Y-81090000D03*
X31809552Y-80590000D03*
X340781850Y-42990000D03*
X345781850Y-42490000D03*
X336019401Y-62040000D03*
X341019401Y-61540000D03*
X305063150Y-62040000D03*
X310063150Y-61540000D03*
X286013150Y-62039999D03*
X291013150Y-61539999D03*
X264804038Y-62778888D03*
X269641253Y-61418244D03*
X246043438Y-66086889D03*
X250880653Y-64726245D03*
X227282838Y-69394888D03*
X232120053Y-68034244D03*
X208522238Y-72702889D03*
X213359453Y-71342245D03*
X168761323Y-71831449D03*
X173772186Y-72207286D03*
X150000723Y-68523449D03*
X155011586Y-68899286D03*
X131240123Y-65215449D03*
X136250986Y-65591286D03*
X112479523Y-61907449D03*
X117490386Y-62283286D03*
X91212450Y-62040000D03*
X96212450Y-61540000D03*
X65018750Y-62040000D03*
X70018750Y-61540000D03*
X29190852Y-62040000D03*
X34190852Y-61540000D03*
X343163051Y-23940000D03*
X348163051Y-23440000D03*
X316969350Y-42990000D03*
X321969350Y-42490000D03*
X297919350Y-42990000D03*
X302919350Y-42490000D03*
X278869350Y-41929500D03*
X283869350Y-41429500D03*
X257673639Y-44692288D03*
X262510854Y-43331644D03*
X238913039Y-48000288D03*
X243750254Y-46639644D03*
X220152439Y-51308289D03*
X224989654Y-49947645D03*
X201391838Y-54616289D03*
X206229053Y-53255645D03*
X166405123Y-52072148D03*
X171415986Y-52447985D03*
X147644523Y-48764149D03*
X152655386Y-49139986D03*
X128883923Y-45456149D03*
X133894786Y-45831986D03*
X110123348Y-42148149D03*
X115134211Y-42523986D03*
X88831250Y-42990000D03*
X93831250Y-42490000D03*
X65018750Y-42990000D03*
X70018750Y-42490000D03*
X31572152Y-42990000D03*
X36572152Y-42490000D03*
X333638051Y-23940000D03*
X338638051Y-23440000D03*
X324113051Y-23940000D03*
X329113051Y-23440000D03*
X305063051Y-23940000D03*
X310063051Y-23440000D03*
X286013050Y-21999800D03*
X291013050Y-21499800D03*
X264848738Y-24083190D03*
X269685953Y-22722546D03*
X246088139Y-27391188D03*
X250925354Y-26030544D03*
X227327538Y-30699189D03*
X232164753Y-29338545D03*
X208566939Y-34007189D03*
X213404154Y-32646545D03*
X178036223Y-34779149D03*
X183047086Y-35154986D03*
X159275623Y-31471149D03*
X164286486Y-31846986D03*
X140515024Y-28163149D03*
X145525887Y-28538986D03*
X121754424Y-24855149D03*
X126765287Y-25230986D03*
X100737551Y-21999801D03*
X105737551Y-21499801D03*
X81687551Y-23940000D03*
X86687551Y-23440000D03*
X62637551Y-23940000D03*
X67637551Y-23440000D03*
X33953451Y-23940000D03*
X38953451Y-23440000D03*
D11*
X50800000Y-27940000D03*
X334200000Y-104140000D03*
X48020000Y-104140000D03*
X191060000Y-105090000D03*
D12*
X179760000Y-117050000D03*
D13*
X191060000Y-72960000D03*
D12*
X202460000Y-117050000D03*
D14*
X191060000Y-83090000D03*
D13*
X46080000Y-66040000D03*
D15*
X291084000Y-36450000D03*
X291084000Y-39750000D03*
X269748000Y-76074000D03*
X269748000Y-79374000D03*
D16*
X178547347Y-55577153D03*
X177433653Y-56690847D03*
D17*
X190144400Y-39954300D03*
X190144400Y-38379300D03*
D16*
X194231847Y-45734653D03*
X193118153Y-46848347D03*
D18*
X212443926Y-46331274D03*
X210110474Y-48664726D03*
D15*
X113665000Y-18670000D03*
X113665000Y-21970000D03*
D19*
X178420347Y-49197847D03*
X177306653Y-48084153D03*
D20*
X92965000Y-19050000D03*
X96265000Y-19050000D03*
D15*
X299720000Y-18035000D03*
X299720000Y-21335000D03*
D20*
X196173594Y-33300611D03*
X199473594Y-33300611D03*
D15*
X77470000Y-37085000D03*
X77470000Y-40385000D03*
D20*
X92532200Y-94437200D03*
X89232200Y-94437200D03*
D15*
X153416000Y-99442000D03*
X153416000Y-102742000D03*
X132080000Y-78360000D03*
X132080000Y-81660000D03*
D17*
X196773800Y-62179300D03*
X196773800Y-60604300D03*
D20*
X160400000Y-45466000D03*
X157100000Y-45466000D03*
D21*
X200731600Y-80139800D03*
X200731600Y-74139800D03*
X196981600Y-74139800D03*
X196981600Y-80139800D03*
D17*
X205562200Y-29006900D03*
X205562200Y-27431900D03*
X53800000Y-104927500D03*
X53800000Y-103352500D03*
D22*
X188002082Y-46081064D03*
X188567767Y-46646750D03*
X189133452Y-47212435D03*
X189699138Y-47778120D03*
X190264823Y-48343806D03*
X190830509Y-48909491D03*
X191396194Y-49475177D03*
X191961880Y-50040862D03*
X192527565Y-50606548D03*
X193093250Y-51172233D03*
X193658936Y-51737918D03*
D23*
X193658936Y-54142082D03*
X193093250Y-54707767D03*
X192527565Y-55273452D03*
X191961880Y-55839138D03*
X191396194Y-56404823D03*
X190830509Y-56970509D03*
X190264823Y-57536194D03*
X189699138Y-58101880D03*
X189133452Y-58667565D03*
X188567767Y-59233250D03*
X188002082Y-59798936D03*
D22*
X185597918Y-59798936D03*
X185032233Y-59233250D03*
X184466548Y-58667565D03*
X183900862Y-58101880D03*
X183335177Y-57536194D03*
X182769491Y-56970509D03*
X182203806Y-56404823D03*
X181638120Y-55839138D03*
X181072435Y-55273452D03*
X180506750Y-54707767D03*
X179941064Y-54142082D03*
D23*
X179941064Y-51737918D03*
X180506750Y-51172233D03*
X181072435Y-50606548D03*
X181638120Y-50040862D03*
X182203806Y-49475177D03*
X182769491Y-48909491D03*
X183335177Y-48343806D03*
X183900862Y-47778120D03*
X184466548Y-47212435D03*
X185032233Y-46646750D03*
X185597918Y-46081064D03*
D15*
X231140000Y-43435000D03*
X231140000Y-46735000D03*
X357505000Y-72645000D03*
X357505000Y-75945000D03*
X107188000Y-94362000D03*
X107188000Y-97662000D03*
D24*
X193256800Y-63203000D03*
X193256800Y-61003000D03*
X194956800Y-61003000D03*
X194956800Y-63203000D03*
D15*
X344170000Y-54230000D03*
X344170000Y-57530000D03*
X39370000Y-75820000D03*
X39370000Y-79120000D03*
X238760000Y-23115000D03*
X238760000Y-26415000D03*
X354330000Y-29210000D03*
X354330000Y-25910000D03*
D25*
X308400000Y-103352500D03*
X308400000Y-104927500D03*
D15*
X103505000Y-56135000D03*
X103505000Y-59435000D03*
X46355000Y-18670000D03*
X46355000Y-21970000D03*
D17*
X183691075Y-30595717D03*
X183691075Y-29020717D03*
D15*
X173355000Y-85345000D03*
X173355000Y-88645000D03*
X231902000Y-81154000D03*
X231902000Y-84454000D03*
X298450000Y-56135000D03*
X298450000Y-59435000D03*
X238760000Y-61215000D03*
X238760000Y-64515000D03*
X140970000Y-41530000D03*
X140970000Y-44830000D03*
D17*
X192049400Y-39954200D03*
X192049400Y-38379200D03*
D15*
X41275000Y-56135000D03*
X41275000Y-59435000D03*
X169545000Y-85345000D03*
X169545000Y-88645000D03*
D25*
X328400000Y-103352500D03*
X328400000Y-104927500D03*
D26*
X196472434Y-37567088D03*
D27*
X196913500Y-40068500D03*
X197354567Y-42569911D03*
X197795633Y-45071323D03*
D15*
X151130000Y-81535000D03*
X151130000Y-84835000D03*
X250190000Y-77598000D03*
X250190000Y-80898000D03*
D16*
X183462247Y-43308953D03*
X182348553Y-44422647D03*
D28*
X190010800Y-35824200D03*
X190010800Y-34874200D03*
X190010800Y-33924200D03*
X192360800Y-33924200D03*
X192360800Y-34874200D03*
X192360800Y-35824200D03*
D29*
X196371306Y-54326694D03*
X197485000Y-53213000D03*
D15*
X270002000Y-36450000D03*
X270002000Y-39750000D03*
X317500000Y-56135000D03*
X317500000Y-59435000D03*
X100965000Y-37085000D03*
X100965000Y-40385000D03*
X214630000Y-85218000D03*
X214630000Y-88518000D03*
X164274500Y-44705000D03*
X164274500Y-48005000D03*
X124460000Y-58040000D03*
X124460000Y-61340000D03*
X270510000Y-94870000D03*
X270510000Y-98170000D03*
D20*
X332360000Y-18415000D03*
X335660000Y-18415000D03*
X221995000Y-27940000D03*
X218695000Y-27940000D03*
D15*
X353060000Y-46735000D03*
X353060000Y-43435000D03*
X276860000Y-56135000D03*
X276860000Y-59435000D03*
D17*
X199339200Y-30581700D03*
X199339200Y-29006700D03*
D15*
X133985000Y-21210000D03*
X133985000Y-24510000D03*
X166370000Y-63755000D03*
X166370000Y-67055000D03*
X257175000Y-19940000D03*
X257175000Y-23240000D03*
X330200000Y-37085000D03*
X330200000Y-40385000D03*
D30*
X296392500Y-105714800D03*
X297967500Y-105714800D03*
D17*
X73800000Y-104927500D03*
X73800000Y-103352500D03*
D15*
X175260000Y-27560000D03*
X175260000Y-30860000D03*
D20*
X221995000Y-65792386D03*
X218695000Y-65792386D03*
D15*
X143510000Y-61215000D03*
X143510000Y-64515000D03*
X310388000Y-76074000D03*
X310388000Y-79374000D03*
D16*
X186040347Y-63514653D03*
X184926653Y-64628347D03*
D31*
X195834100Y-65100200D03*
X194259100Y-65100200D03*
D15*
X277495000Y-18035000D03*
X277495000Y-21335000D03*
X309880000Y-36450000D03*
X309880000Y-39750000D03*
X335737200Y-72365600D03*
X335737200Y-75665600D03*
X162560000Y-63755000D03*
X162560000Y-67055000D03*
X294894000Y-94870000D03*
X294894000Y-98170000D03*
D17*
X63800000Y-104927500D03*
X63800000Y-103352500D03*
X189992000Y-44170700D03*
X189992000Y-42595700D03*
D15*
X131572000Y-97918000D03*
X131572000Y-101218000D03*
X291338000Y-76074000D03*
X291338000Y-79374000D03*
X122555000Y-38355000D03*
X122555000Y-41655000D03*
X111125000Y-75820000D03*
X111125000Y-79120000D03*
X77470000Y-56135000D03*
X77470000Y-59435000D03*
D25*
X318400000Y-103352500D03*
X318400000Y-104927500D03*
D32*
X188178500Y-27440000D03*
X193958500Y-27440000D03*
D33*
X187843500Y-29215000D03*
X188618500Y-29215000D03*
D34*
X189318500Y-29215000D03*
X189818500Y-29215000D03*
X190318500Y-29215000D03*
X190818500Y-29215000D03*
X191318500Y-29215000D03*
X191818500Y-29215000D03*
X192318500Y-29215000D03*
X192818500Y-29215000D03*
D33*
X193518500Y-29215000D03*
X194293500Y-29215000D03*
D35*
X186748500Y-27970000D03*
D36*
X195388500Y-23790000D03*
D35*
X195388500Y-27970000D03*
D36*
X186748500Y-23790000D03*
D29*
X185167953Y-43686047D03*
X186281647Y-42572353D03*
X194007153Y-48181847D03*
X195120847Y-47068153D03*
D15*
X257810000Y-58040000D03*
X257810000Y-61340000D03*
X74930000Y-18670000D03*
X74930000Y-21970000D03*
D26*
X203835000Y-43307000D03*
D27*
X201333588Y-43748066D03*
X204276066Y-45808412D03*
X201774655Y-46249478D03*
X204717133Y-48309823D03*
X202215721Y-48750890D03*
D15*
X316865000Y-18035000D03*
X316865000Y-21335000D03*
D16*
X184400094Y-61878306D03*
X183286400Y-62992000D03*
D37*
X194446171Y-33856520D03*
X194446171Y-31981520D03*
D15*
X152400000Y-24385000D03*
X152400000Y-27685000D03*
X221488000Y-101474000D03*
X221488000Y-104774000D03*
D17*
X203301600Y-29006900D03*
X203301600Y-27431900D03*
D15*
X67056000Y-73534000D03*
X67056000Y-76834000D03*
X43942000Y-36958000D03*
X43942000Y-40258000D03*
X250190000Y-40260000D03*
X250190000Y-43560000D03*
X171450000Y-27560000D03*
X171450000Y-30860000D03*
M02*
