M48
; DRILL file {KiCad (6.0.1)} date Thu May  5 21:04:39 2022
; FORMAT={-:-/ absolute / inch / decimal}
; #@! TF.CreationDate,2022-05-05T21:04:39+02:00
; #@! TF.GenerationSoftware,Kicad,Pcbnew,(6.0.1)
; #@! TF.FileFunction,Plated,1,2,PTH
FMAT,2
INCH
; #@! TA.AperFunction,Plated,PTH,ViaDrill
T1C0.0118
; #@! TA.AperFunction,Plated,PTH,ViaDrill
T2C0.0157
; #@! TA.AperFunction,Plated,PTH,ComponentDrill
T3C0.0236
; #@! TA.AperFunction,Plated,PTH,ComponentDrill
T4C0.0394
; #@! TA.AperFunction,Plated,PTH,ComponentDrill
T5C0.0591
; #@! TA.AperFunction,Plated,PTH,ComponentDrill
T6C0.0945
%
G90
G05
T1
X3.132Y-1.332
X3.69Y-1.25
X4.5025Y-1.2525
X6.5675Y-1.808
X6.9595Y-2.479
X7.413Y-1.762
X7.579Y-1.227
X7.746Y-1.215
T2
X2.118Y-3.994
X2.2745Y-1.364
X2.486Y-4.192
X2.512Y-3.994
X2.906Y-3.994
X3.282Y-4.213
X4.677Y-2.885
X4.868Y-3.054
X5.2495Y-1.3905
X5.98Y-1.37
X6.826Y-4.559
X6.9375Y-1.85
X6.9475Y-2.27
X7.07Y-2.68
X7.1Y-3.36
X7.16Y-2.454
X7.193Y-2.863
X7.199Y-2.019
X7.208Y-1.071
X7.2125Y-2.5525
X7.261Y-1.673
X7.294Y-1.182
X7.356Y-2.254
X7.4125Y-1.99
X7.424Y-1.718
X7.46Y-1.252
X7.476Y-3.662
X7.48Y-2.09
X7.505Y-3.743
X7.59Y-1.458
X7.59Y-1.735
X7.64Y-1.398
X7.703Y-2.041
X7.717Y-1.18
X7.788Y-2.518
X7.85Y-1.869
X7.9025Y-2.8475
X8.05Y-2.55
X8.054Y-3.381
X8.148Y-1.143
X8.375Y-1.62
X8.437Y-1.864
X8.7Y-2.657
X9.14Y-2.0
X9.88Y-1.87
X10.16Y-2.58
X10.7Y-1.71
X10.99Y-2.5
X11.45Y-1.75
X11.74Y-2.5
X11.794Y-4.162
X12.142Y-4.2
X12.2Y-1.75
X12.534Y-3.998
X12.536Y-4.2
X12.724Y-2.892
X12.873Y-4.244
X12.928Y-4.2
X12.97Y-1.21
X13.12Y-1.75
T4
X7.7351Y-1.479
X7.7525Y-1.5775
X7.7699Y-1.676
X7.7872Y-1.7745
X7.9265Y-1.7224
X7.9439Y-1.8208
X7.9612Y-1.9193
X8.025Y-1.705
X8.0424Y-1.8035
X8.0597Y-1.902
T5
X1.0555Y-3.1925
X1.1492Y-2.4425
X1.243Y-1.6925
X1.2523Y-3.1728
X1.3368Y-0.9425
X1.3461Y-2.4228
X1.4398Y-1.6728
X1.5336Y-0.9228
X2.2785Y-3.1925
X2.466Y-0.9425
X2.4754Y-3.1728
X2.5598Y-1.6925
X2.5598Y-2.4425
X2.6535Y-3.1925
X2.6629Y-0.9228
X2.7566Y-1.6728
X2.7566Y-2.4228
X2.8504Y-3.1728
X3.1223Y-3.1925
X3.216Y-0.9425
X3.3191Y-3.1728
X3.4129Y-0.9228
X3.4973Y-1.6925
X3.591Y-2.4425
X3.6941Y-1.6728
X3.7421Y-3.9425
X3.7879Y-2.4228
X3.8723Y-3.1925
X3.9389Y-3.9228
X3.966Y-0.8661
X4.0691Y-3.1728
X4.1629Y-0.8464
X4.3356Y-1.6594
X4.4283Y-2.4373
X4.5328Y-1.6742
X4.6256Y-2.4521
X4.6726Y-4.0035
X4.7106Y-3.2486
X4.7935Y-0.9785
X4.8699Y-4.0183
X4.9078Y-3.2634
X4.9908Y-0.9933
X5.0742Y-1.7896
X5.1669Y-2.5675
X5.2714Y-1.8044
X5.3642Y-2.5823
X5.4492Y-3.3789
X5.5321Y-1.1088
X5.6464Y-3.3937
X5.7294Y-1.1236
X5.8128Y-1.9198
X5.9055Y-2.6978
X5.9652Y-4.2314
X6.0101Y-1.9346
X6.0917Y-4.5936
X6.1028Y-2.7126
X6.1625Y-4.2462
X6.1878Y-3.5091
X6.2707Y-1.239
X6.289Y-4.6084
X6.385Y-3.5239
X6.468Y-1.2538
X6.5514Y-2.0501
X6.6441Y-2.828
X6.7487Y-2.0649
X6.8414Y-2.8428
X6.9264Y-3.6393
X7.0093Y-1.3693
X7.1236Y-3.6541
X7.2066Y-1.3841
X7.928Y-3.6735
X7.9288Y-2.1502
X8.1185Y-3.62
X8.1193Y-2.0967
X8.2095Y-2.8623
X8.2113Y-1.3389
X8.4Y-2.8087
X8.4017Y-1.2853
X8.6666Y-3.5433
X8.6674Y-2.02
X8.7627Y-4.6277
X8.8571Y-3.4897
X8.8579Y-1.9664
X8.8892Y-4.2656
X8.9481Y-2.7321
X8.9499Y-1.2086
X8.9531Y-4.5742
X9.0796Y-4.212
X9.1386Y-2.6785
X9.1403Y-1.1551
X9.4052Y-3.4131
X9.406Y-1.8898
X9.5957Y-3.3595
X9.5965Y-1.8362
X9.6867Y-2.6018
X9.6885Y-1.0784
X9.8772Y-2.5483
X9.879Y-1.0248
X10.1438Y-3.2828
X10.1446Y-1.7595
X10.1818Y-4.0377
X10.3343Y-3.2292
X10.3351Y-1.706
X10.3722Y-3.9841
X10.4254Y-2.4716
X10.4271Y-0.9482
X10.6158Y-2.418
X10.6176Y-0.8946
X10.9791Y-1.6508
X10.9791Y-3.1925
X11.1093Y-3.9425
X11.176Y-1.6311
X11.176Y-3.1728
X11.2604Y-0.8661
X11.2604Y-2.4425
X11.3062Y-3.9228
X11.4572Y-0.8464
X11.4572Y-2.4228
X11.7291Y-1.6925
X11.7291Y-3.1925
X11.926Y-1.6728
X11.926Y-3.1728
X12.0104Y-0.9425
X12.0104Y-2.4425
X12.2072Y-0.9228
X12.2072Y-2.4228
X12.4791Y-1.6925
X12.676Y-1.6728
X12.7604Y-0.9425
X12.7604Y-3.1925
X12.9572Y-0.9228
X12.9572Y-3.1728
X13.1354Y-0.9425
X13.1354Y-3.1925
X13.2291Y-2.4425
X13.3322Y-0.9228
X13.3322Y-3.1728
X13.4166Y-1.6925
X13.426Y-2.4228
X13.5104Y-0.9425
X13.6135Y-1.6728
X13.7072Y-0.9228
X13.7916Y-3.1925
X13.9885Y-3.1728
T6
X1.8906Y-4.1
X2.0Y-1.1
X7.522Y-4.1374
X13.1575Y-4.1
T3
G00X7.3523Y-0.9248
M15
G01X7.3523Y-0.9484
M16
G05
G00X7.3523Y-1.0795
M15
G01X7.3523Y-1.1228
M16
G05
G00X7.6925Y-0.9248
M15
G01X7.6925Y-0.9484
M16
G05
G00X7.6925Y-1.0795
M15
G01X7.6925Y-1.1228
M16
G05
T0
M30
