M48
; DRILL file {KiCad (5.99.0-2612-g32a7d0025-dirty)} date 08/10/20 19:00:49
; FORMAT={-:-/ absolute / inch / decimal}
; #@! TF.CreationDate,2020-08-10T19:00:49+02:00
; #@! TF.GenerationSoftware,Kicad,Pcbnew,(5.99.0-2612-g32a7d0025-dirty)
; #@! TF.FileFunction,NonPlated,1,2,NPTH
FMAT,2
INCH
T1C0.0256
T2C0.0689
T3C0.1181
T4C0.1200
T5C0.1570
T6C0.2106
T7C0.2559
T8C0.3543
%
G90
G05
T1
X7.4086Y-1.0803
X7.6362Y-1.0803
T2
X6.424Y-2.1875
X6.8179Y-2.257
X6.9107Y-3.0349
X10.8775Y-3.35
X7.8561Y-2.323
X13.0588Y-3.35
X10.0719Y-1.9323
X10.4659Y-1.8628
X6.5168Y-2.9655
X11.1588Y-1.0236
X12.6588Y-3.35
X8.8755Y-2.9048
X9.2694Y-2.8353
X11.5588Y-1.0236
X8.2501Y-2.2535
X13.4088Y-1.1
X13.8088Y-1.1
X8.1369Y-3.035
X8.5308Y-2.9656
X12.3775Y-1.85
X12.7775Y-1.85
X3.4895Y-2.6
X3.8895Y-2.6
X5.0396Y-2.705
X5.4335Y-2.7744
X1.1414Y-1.85
X1.5414Y-1.85
X8.8165Y-4.4383
X3.1145Y-1.1
X3.5145Y-1.1
X1.3539Y-3.35
X11.2775Y-3.35
X0.9539Y-3.35
X10.4651Y-3.3861
X13.0338Y-3.35
X13.4338Y-3.35
X11.4078Y-4.1
X10.0712Y-3.4555
X11.0078Y-4.1
X3.0207Y-3.35
X3.4207Y-3.35
X1.2352Y-1.1
X8.5947Y-2.1927
X8.9887Y-2.1233
X1.6352Y-1.1
X13.315Y-1.85
X13.715Y-1.85
X3.3957Y-1.85
X3.7957Y-1.85
X3.8645Y-1.0236
X4.2645Y-1.0236
X9.6158Y-1.2511
X10.0097Y-1.1817
X3.6405Y-4.1
X5.6854Y-2.0573
X6.0793Y-2.1268
X5.7782Y-2.8352
X6.1721Y-2.9047
X13.0338Y-1.1
X13.4338Y-1.1
X9.2104Y-4.3689
X8.1386Y-1.5116
X8.5325Y-1.4421
X5.3218Y-3.5163
X5.7157Y-3.5858
X6.0604Y-3.6466
X6.4543Y-3.716
X10.1091Y-4.2104
X10.503Y-4.141
X8.5939Y-3.716
X5.4047Y-1.2462
X5.7986Y-1.3157
X3.7707Y-3.35
X4.1707Y-3.35
X4.6661Y-1.116
X5.06Y-1.1855
X4.0405Y-4.1
X2.4582Y-2.6
X2.8582Y-2.6
X2.3645Y-1.1
X2.7645Y-1.1
X8.9879Y-3.6466
X9.3333Y-2.0625
X9.7273Y-1.993
X10.8775Y-1.8082
X11.2775Y-1.8082
X11.6275Y-3.35
X12.0275Y-3.35
X4.5453Y-4.141
X6.8819Y-1.5067
X4.9392Y-4.2104
X7.2758Y-1.5762
X4.3009Y-2.5748
X12.6588Y-1.1
X1.0477Y-2.6
X1.4477Y-2.6
X6.0225Y-4.4014
X6.4164Y-4.4709
X5.8378Y-4.3689
X6.2317Y-4.4383
X13.1275Y-2.6
X13.5275Y-2.6
X4.6949Y-2.6442
X9.3326Y-3.5858
X9.7265Y-3.5163
X13.69Y-3.35
X14.09Y-3.35
X13.0588Y-1.1
X2.577Y-3.35
X6.5372Y-1.4459
X4.5832Y-3.3861
X4.9771Y-3.4555
X4.2082Y-1.7968
X6.799Y-3.7768
X7.1929Y-3.8463
X2.177Y-3.35
X6.1433Y-1.3765
X11.1588Y-2.6
X11.5588Y-2.6
X10.3527Y-2.6443
X4.6021Y-1.8663
X11.9088Y-1.1
X12.3088Y-1.1
X7.8553Y-3.8463
X8.2493Y-3.7768
X2.8582Y-1.85
X11.9088Y-2.6
X2.4582Y-1.85
X10.7466Y-2.5749
X11.6275Y-1.85
X12.0275Y-1.85
X12.3088Y-2.6
X8.8772Y-1.3814
X9.2711Y-1.3119
X8.6319Y-4.4709
X9.0258Y-4.4014
X2.552Y-3.35
X2.952Y-3.35
X9.6141Y-2.7746
X10.008Y-2.7051
X4.9468Y-1.9271
X5.3407Y-1.9965
X10.3544Y-1.1209
X10.7484Y-1.0514
T3
X9.3644Y-3.4786
X9.5933Y-3.3367
X13.0838Y-3.25
X13.3338Y-3.15
X11.0578Y-4.0
X1.0977Y-2.5
X10.1409Y-4.1033
X10.3698Y-3.9614
X3.6905Y-4.0
X3.9405Y-3.9
X11.3078Y-3.9
X8.6266Y-2.0856
X8.8554Y-1.9437
X13.365Y-1.75
X6.9485Y-1.4169
X7.2121Y-1.3618
X13.615Y-1.65
X4.0707Y-3.15
X9.6477Y-1.144
X9.8765Y-1.0021
X4.3676Y-2.485
X4.6311Y-2.4299
X1.3477Y-2.4
X10.9275Y-1.7082
X11.1775Y-1.6082
X6.2099Y-1.2867
X6.4735Y-1.2316
X2.5082Y-2.5
X2.7582Y-2.4
X2.4145Y-1.0
X2.6645Y-0.9
X5.652Y-3.3715
X2.5082Y-1.75
X3.6957Y-1.65
X2.7582Y-1.65
X3.4457Y-1.75
X8.9091Y-1.2742
X9.1379Y-1.1323
X11.6775Y-3.25
X11.9275Y-3.15
X3.8207Y-3.25
X6.0891Y-4.3116
X6.3526Y-4.2566
X5.4713Y-1.1564
X5.7349Y-1.1014
X5.9044Y-4.2791
X4.7327Y-1.0262
X4.9963Y-0.9711
X9.5941Y-1.8134
X6.168Y-4.224
X4.6119Y-4.0512
X4.8754Y-3.9961
X9.3652Y-1.9553
X13.1775Y-2.5
X11.2088Y-2.5
X4.6498Y-3.2963
X13.4275Y-2.4
X2.227Y-3.25
X2.477Y-3.15
X4.9133Y-3.2412
X13.99Y-3.15
X4.2748Y-1.707
X4.5384Y-1.652
X11.4588Y-2.4
X8.9073Y-2.7976
X9.1362Y-2.6558
X10.3845Y-2.5372
X10.6134Y-2.3953
X8.6637Y-4.3637
X8.8926Y-4.2218
X5.0134Y-1.8373
X13.74Y-3.25
X12.7088Y-1.0
X5.277Y-1.7822
X8.6258Y-3.6089
X7.1292Y-3.6319
X12.9588Y-0.9
X6.4906Y-2.0977
X6.7542Y-2.0427
X11.9588Y-1.0
X12.2088Y-0.9
X12.7088Y-3.25
X13.4588Y-1.0
X2.602Y-3.25
X8.1168Y-2.0739
X12.9588Y-3.15
X10.1038Y-1.8251
X10.3327Y-1.6832
X11.9588Y-2.5
X12.2088Y-2.4
X7.888Y-2.2158
X7.8872Y-3.7391
X8.1161Y-3.5972
X6.5834Y-2.8757
X6.8469Y-2.8206
X11.6775Y-1.75
X13.7088Y-0.9
X11.9275Y-1.65
X8.1687Y-2.9279
X8.3976Y-2.786
X3.1207Y-3.55
X3.3707Y-3.45
X12.4275Y-1.75
X12.6775Y-1.65
X1.0039Y-3.25
X1.2539Y-3.15
X5.1062Y-2.6152
X5.3697Y-2.5601
X10.103Y-3.3484
X8.8547Y-3.467
X9.6459Y-2.6674
X10.3863Y-1.0137
X6.8656Y-3.687
X1.1914Y-1.75
X6.0156Y-1.9124
X3.1645Y-1.0
X9.8748Y-2.5255
X1.2852Y-1.0
X10.6151Y-0.8718
X11.2088Y-0.9236
X3.4145Y-0.9
X2.852Y-3.15
X1.5352Y-0.9
X3.5395Y-2.5
X11.4588Y-0.8236
X10.9275Y-3.25
X11.1775Y-3.15
X3.9145Y-0.9236
X4.1645Y-0.8236
X5.752Y-1.9675
X8.3993Y-1.2625
X3.7895Y-2.4
X10.3319Y-3.2065
X5.8448Y-2.7454
X6.1083Y-2.6904
X13.0838Y-1.0
X13.3338Y-0.9
X8.8484Y-4.3312
X9.0772Y-4.1893
X8.1705Y-1.4044
X5.3884Y-3.4265
X6.127Y-3.5568
X6.3906Y-3.5017
X1.4414Y-1.65
T4
X13.7025Y-3.075
X6.4487Y-4.7558
X8.5996Y-4.7558
X9.5229Y-4.593
X12.765Y-3.075
X5.5254Y-4.593
X2.2832Y-3.625
X3.2207Y-3.625
X12.765Y-0.825
X13.7025Y-0.825
X5.7101Y-4.6256
X6.6333Y-4.7884
X13.7963Y-2.875
X9.3382Y-4.6256
X12.8588Y-2.875
X8.4149Y-4.7884
T5
X6.3403Y-1.4112
X5.1438Y-1.9618
X12.765Y-3.675
X13.7025Y-3.675
X10.5514Y-1.0862
X5.6296Y-4.0022
X6.5529Y-4.1649
X11.3588Y-1.0236
X11.0775Y-3.35
X13.2338Y-3.35
X11.2078Y-4.1
X9.0135Y-4.4036
X2.2832Y-3.025
X3.2207Y-3.025
X9.8128Y-1.2164
X8.7917Y-2.158
X8.3356Y-1.4769
X2.5645Y-1.1
X6.2573Y-3.6813
X13.515Y-1.85
X5.2365Y-2.7397
X5.5187Y-3.5511
X3.6895Y-2.6
X1.3414Y-1.85
X7.0789Y-1.5414
X1.2477Y-2.6
X9.5295Y-3.5511
X10.306Y-4.1757
X1.1539Y-3.35
X10.2681Y-3.4208
X4.0645Y-1.0236
X3.8405Y-4.1
X4.4979Y-2.6095
X11.0775Y-1.8082
X2.6582Y-2.6
X2.6582Y-1.85
X9.0742Y-1.3466
X6.621Y-2.2223
X9.0724Y-2.8701
X9.811Y-2.7398
X13.2338Y-1.1
X9.5303Y-2.0278
X11.3588Y-2.6
X5.8824Y-2.092
X12.765Y-1.425
X13.7025Y-1.425
X5.6017Y-1.281
X6.2194Y-4.4362
X1.4352Y-1.1
X5.9751Y-2.87
X3.5957Y-1.85
X8.7909Y-3.6813
X11.8275Y-3.35
X5.8142Y-4.0347
X6.7375Y-4.1975
X3.9707Y-3.35
X4.8631Y-1.1507
X4.7422Y-4.1757
X13.3275Y-2.6
X4.7801Y-3.4208
X4.4051Y-1.8316
X6.996Y-3.8115
X12.8588Y-1.1
X2.377Y-3.35
X12.1088Y-1.1
X8.0523Y-3.8115
X6.7137Y-3.0002
X10.5496Y-2.6096
X11.8275Y-1.85
X8.4954Y-4.1649
X9.4187Y-4.0022
X12.8588Y-2.275
X8.3338Y-3.0003
X12.1088Y-2.6
X3.2207Y-3.35
X8.8288Y-4.4362
X8.0531Y-2.2882
X8.3108Y-4.1975
X9.234Y-4.0347
X10.2689Y-1.8975
X2.752Y-3.35
X6.0348Y-4.4036
X12.8588Y-3.35
X13.6088Y-1.1
X12.5775Y-1.85
X3.3145Y-1.1
X13.7963Y-2.275
X13.89Y-3.35
T6
X1.8142Y-2.6
X7.522Y-2.8724
T7
X7.0772Y-4.6083
X7.9709Y-4.6083
T8
X7.522Y-3.2713
T0
M30
