M48
; DRILL file {KiCad (5.99.0-2612-g32a7d0025-dirty)} date 08/10/20 19:00:49
; FORMAT={-:-/ absolute / inch / decimal}
; #@! TF.CreationDate,2020-08-10T19:00:49+02:00
; #@! TF.GenerationSoftware,Kicad,Pcbnew,(5.99.0-2612-g32a7d0025-dirty)
; #@! TF.FileFunction,Plated,1,2,PTH
FMAT,2
INCH
T1C0.0118
T2C0.0157
T3C0.0236
T4C0.0394
T5C0.0945
%
G90
G05
T1
X6.5675Y-1.808
X6.9595Y-2.479
X7.413Y-1.762
X7.579Y-1.227
X7.746Y-1.215
T2
X2.099Y-2.912
X2.118Y-3.994
X2.18Y-1.01
X2.28Y-1.75
X2.28Y-2.5
X2.486Y-4.192
X2.512Y-3.994
X2.906Y-3.994
X2.93Y-1.0
X3.22Y-1.75
X3.282Y-4.213
X3.32Y-2.5
X3.58Y-3.25
X3.69Y-0.93
X4.03Y-1.68
X4.13Y-2.45
X4.41Y-3.27
X4.48Y-3.9
X4.5Y-1.01
X4.677Y-2.885
X4.77Y-1.81
X4.84Y-2.58
X4.868Y-3.054
X5.16Y-3.41
X5.25Y-1.14
X5.51Y-1.93
X5.6Y-2.72
X5.9Y-3.53
X5.97Y-4.12
X5.98Y-1.27
X6.35Y-2.84
X6.38Y-1.92
X6.62Y-3.66
X6.826Y-4.559
X6.9375Y-1.85
X6.9475Y-2.27
X7.07Y-2.68
X7.1Y-3.36
X7.16Y-2.454
X7.193Y-2.863
X7.199Y-2.019
X7.208Y-1.071
X7.2125Y-2.5525
X7.261Y-1.673
X7.294Y-1.182
X7.344Y-4.515
X7.356Y-2.254
X7.4125Y-1.99
X7.424Y-1.718
X7.46Y-1.252
X7.476Y-3.662
X7.48Y-2.09
X7.505Y-3.743
X7.59Y-1.458
X7.59Y-1.735
X7.64Y-1.398
X7.703Y-2.041
X7.717Y-1.18
X7.788Y-2.518
X7.85Y-1.869
X7.9025Y-2.8475
X8.05Y-2.55
X8.05Y-2.83
X8.054Y-3.381
X8.148Y-1.143
X8.375Y-1.62
X8.437Y-1.864
X8.504Y-1.796
X8.53Y-3.52
X8.62Y-4.23
X8.69Y-1.3
X8.7Y-2.657
X8.77Y-2.72
X9.14Y-2.0
X9.24Y-3.38
X9.42Y-2.71
X9.43Y-1.17
X9.88Y-1.87
X9.98Y-3.26
X9.98Y-4.01
X10.16Y-1.04
X10.16Y-2.58
X10.69Y-3.25
X10.7Y-1.71
X10.83Y-4.0
X10.98Y-0.93
X10.99Y-2.5
X11.45Y-1.75
X11.55Y-3.14
X11.73Y-1.0
X11.74Y-2.5
X11.794Y-4.162
X12.142Y-4.2
X12.2Y-1.75
X12.534Y-3.998
X12.536Y-4.2
X12.724Y-2.514
X12.724Y-2.892
X12.873Y-4.244
X12.928Y-4.2
X12.97Y-1.21
X13.12Y-1.75
X13.562Y-3.006
T4
X7.7351Y-1.479
X7.7525Y-1.5775
X7.7699Y-1.676
X7.7872Y-1.7745
X7.9265Y-1.7224
X7.9439Y-1.8208
X7.9612Y-1.9193
X8.025Y-1.705
X8.0424Y-1.8035
X8.0597Y-1.902
T5
X1.8906Y-4.1
X2.0Y-1.1
X7.522Y-4.1374
X13.1575Y-4.1
T3
G00X7.3523Y-0.9248
M15
G01X7.3523Y-0.9484
M16
G05
G00X7.3523Y-1.0795
M15
G01X7.3523Y-1.1228
M16
G05
G00X7.6925Y-0.9248
M15
G01X7.6925Y-0.9484
M16
G05
G00X7.6925Y-1.0795
M15
G01X7.6925Y-1.1228
M16
G05
T0
M30
